  0
SECTION
  2
HEADER
  9
$ACADVER
  1
AC1024
  9
$ACADMAINTVER
 70
6
  9
$DWGCODEPAGE
  3
ANSI_1252
  9
$LASTSAVEDBY
  1
ezdxf
  9
$INSBASE
 10
0.0
 20
0.0
 30
0.0
  9
$EXTMIN
 10
1e+20
 20
1e+20
 30
1e+20
  9
$EXTMAX
 10
-1e+20
 20
-1e+20
 30
-1e+20
  9
$LIMMIN
 10
0.0
 20
0.0
  9
$LIMMAX
 10
420.0
 20
297.0
  9
$ORTHOMODE
 70
0
  9
$REGENMODE
 70
1
  9
$FILLMODE
 70
1
  9
$QTEXTMODE
 70
0
  9
$MIRRTEXT
 70
1
  9
$LTSCALE
 40
1.0
  9
$ATTMODE
 70
1
  9
$TEXTSIZE
 40
2.5
  9
$TRACEWID
 40
1.0
  9
$TEXTSTYLE
  7
Standard
  9
$CLAYER
  8
0
  9
$CELTYPE
  6
ByLayer
  9
$CECOLOR
 62
256
  9
$CELTSCALE
 40
1.0
  9
$DISPSILH
 70
0
  9
$DIMSCALE
 40
1.0
  9
$DIMASZ
 40
2.5
  9
$DIMEXO
 40
0.625
  9
$DIMDLI
 40
3.75
  9
$DIMRND
 40
0.0
  9
$DIMDLE
 40
0.0
  9
$DIMEXE
 40
1.25
  9
$DIMTP
 40
0.0
  9
$DIMTM
 40
0.0
  9
$DIMTXT
 40
2.5
  9
$DIMCEN
 40
2.5
  9
$DIMTSZ
 40
0.0
  9
$DIMTOL
 70
0
  9
$DIMLIM
 70
0
  9
$DIMTIH
 70
0
  9
$DIMTOH
 70
0
  9
$DIMSE1
 70
0
  9
$DIMSE2
 70
0
  9
$DIMTAD
 70
1
  9
$DIMZIN
 70
8
  9
$DIMBLK
  1

  9
$DIMASO
 70
1
  9
$DIMSHO
 70
1
  9
$DIMPOST
  1

  9
$DIMAPOST
  1

  9
$DIMALT
 70
0
  9
$DIMALTD
 70
3
  9
$DIMALTF
 40
0.03937007874
  9
$DIMLFAC
 40
1.0
  9
$DIMTOFL
 70
1
  9
$DIMTVP
 40
0.0
  9
$DIMTIX
 70
0
  9
$DIMSOXD
 70
0
  9
$DIMSAH
 70
0
  9
$DIMBLK1
  1

  9
$DIMBLK2
  1

  9
$DIMSTYLE
  2
ISO-25
  9
$DIMCLRD
 70
0
  9
$DIMCLRE
 70
0
  9
$DIMCLRT
 70
0
  9
$DIMTFAC
 40
1.0
  9
$DIMGAP
 40
0.625
  9
$DIMJUST
 70
0
  9
$DIMSD1
 70
0
  9
$DIMSD2
 70
0
  9
$DIMTOLJ
 70
0
  9
$DIMTZIN
 70
8
  9
$DIMALTZ
 70
0
  9
$DIMALTTZ
 70
0
  9
$DIMUPT
 70
0
  9
$DIMDEC
 70
2
  9
$DIMTDEC
 70
2
  9
$DIMALTU
 70
2
  9
$DIMALTTD
 70
3
  9
$DIMTXSTY
  7
Standard
  9
$DIMAUNIT
 70
0
  9
$DIMADEC
 70
0
  9
$DIMALTRND
 40
0.0
  9
$DIMAZIN
 70
0
  9
$DIMDSEP
 70
44
  9
$DIMATFIT
 70
3
  9
$DIMFRAC
 70
0
  9
$DIMLDRBLK
  1

  9
$DIMLUNIT
 70
2
  9
$DIMLWD
 70
-2
  9
$DIMLWE
 70
-2
  9
$DIMTMOVE
 70
0
  9
$DIMFXL
 40
1.0
  9
$DIMFXLON
 70
0
  9
$DIMJOGANG
 40
0.785398163397
  9
$DIMTFILL
 70
0
  9
$DIMTFILLCLR
 70
0
  9
$DIMARCSYM
 70
0
  9
$DIMLTYPE
  6

  9
$DIMLTEX1
  6

  9
$DIMLTEX2
  6

  9
$DIMTXTDIRECTION
 70
0
  9
$LUNITS
 70
2
  9
$LUPREC
 70
4
  9
$SKETCHINC
 40
1.0
  9
$FILLETRAD
 40
10.0
  9
$AUNITS
 70
0
  9
$AUPREC
 70
2
  9
$MENU
  1
.
  9
$ELEVATION
 40
0.0
  9
$PELEVATION
 40
0.0
  9
$THICKNESS
 40
0.0
  9
$LIMCHECK
 70
0
  9
$CHAMFERA
 40
0.0
  9
$CHAMFERB
 40
0.0
  9
$CHAMFERC
 40
0.0
  9
$CHAMFERD
 40
0.0
  9
$SKPOLY
 70
0
  9
$TDCREATE
 40
2461131.6112152776
  9
$TDUCREATE
 40
2458532.153996898
  9
$TDUPDATE
 40
2461131.6112152776
  9
$TDUUPDATE
 40
2458532.1544311
  9
$TDINDWG
 40
0.0
  9
$TDUSRTIMER
 40
0.0
  9
$USRTIMER
 70
1
  9
$ANGBASE
 50
0.0
  9
$ANGDIR
 70
0
  9
$PDMODE
 70
0
  9
$PDSIZE
 40
0.0
  9
$PLINEWID
 40
0.0
  9
$SPLFRAME
 70
0
  9
$SPLINETYPE
 70
6
  9
$SPLINESEGS
 70
8
  9
$HANDSEED
  5
17B
  9
$SURFTAB1
 70
6
  9
$SURFTAB2
 70
6
  9
$SURFTYPE
 70
6
  9
$SURFU
 70
6
  9
$SURFV
 70
6
  9
$UCSBASE
  2

  9
$UCSNAME
  2

  9
$UCSORG
 10
0.0
 20
0.0
 30
0.0
  9
$UCSXDIR
 10
1.0
 20
0.0
 30
0.0
  9
$UCSYDIR
 10
0.0
 20
1.0
 30
0.0
  9
$UCSORTHOREF
  2

  9
$UCSORTHOVIEW
 70
0
  9
$UCSORGTOP
 10
0.0
 20
0.0
 30
0.0
  9
$UCSORGBOTTOM
 10
0.0
 20
0.0
 30
0.0
  9
$UCSORGLEFT
 10
0.0
 20
0.0
 30
0.0
  9
$UCSORGRIGHT
 10
0.0
 20
0.0
 30
0.0
  9
$UCSORGFRONT
 10
0.0
 20
0.0
 30
0.0
  9
$UCSORGBACK
 10
0.0
 20
0.0
 30
0.0
  9
$PUCSBASE
  2

  9
$PUCSNAME
  2

  9
$PUCSORG
 10
0.0
 20
0.0
 30
0.0
  9
$PUCSXDIR
 10
1.0
 20
0.0
 30
0.0
  9
$PUCSYDIR
 10
0.0
 20
1.0
 30
0.0
  9
$PUCSORTHOREF
  2

  9
$PUCSORTHOVIEW
 70
0
  9
$PUCSORGTOP
 10
0.0
 20
0.0
 30
0.0
  9
$PUCSORGBOTTOM
 10
0.0
 20
0.0
 30
0.0
  9
$PUCSORGLEFT
 10
0.0
 20
0.0
 30
0.0
  9
$PUCSORGRIGHT
 10
0.0
 20
0.0
 30
0.0
  9
$PUCSORGFRONT
 10
0.0
 20
0.0
 30
0.0
  9
$PUCSORGBACK
 10
0.0
 20
0.0
 30
0.0
  9
$USERI1
 70
0
  9
$USERI2
 70
0
  9
$USERI3
 70
0
  9
$USERI4
 70
0
  9
$USERI5
 70
0
  9
$USERR1
 40
0.0
  9
$USERR2
 40
0.0
  9
$USERR3
 40
0.0
  9
$USERR4
 40
0.0
  9
$USERR5
 40
0.0
  9
$WORLDVIEW
 70
1
  9
$SHADEDGE
 70
3
  9
$SHADEDIF
 70
70
  9
$TILEMODE
 70
1
  9
$MAXACTVP
 70
64
  9
$PINSBASE
 10
0.0
 20
0.0
 30
0.0
  9
$PLIMCHECK
 70
0
  9
$PEXTMIN
 10
1e+20
 20
1e+20
 30
1e+20
  9
$PEXTMAX
 10
-1e+20
 20
-1e+20
 30
-1e+20
  9
$PLIMMIN
 10
0.0
 20
0.0
  9
$PLIMMAX
 10
420.0
 20
297.0
  9
$UNITMODE
 70
0
  9
$VISRETAIN
 70
1
  9
$PLINEGEN
 70
0
  9
$PSLTSCALE
 70
1
  9
$TREEDEPTH
 70
3020
  9
$CMLSTYLE
  2
Standard
  9
$CMLJUST
 70
0
  9
$CMLSCALE
 40
20.0
  9
$PROXYGRAPHICS
 70
1
  9
$MEASUREMENT
 70
1
  9
$CELWEIGHT
370
-1
  9
$ENDCAPS
280
0
  9
$JOINSTYLE
280
0
  9
$LWDISPLAY
290
0
  9
$INSUNITS
 70
6
  9
$HYPERLINKBASE
  1

  9
$STYLESHEET
  1

  9
$XEDIT
290
1
  9
$CEPSNTYPE
380
0
  9
$PSTYLEMODE
290
1
  9
$FINGERPRINTGUID
  2
{D718F681-E07B-4B06-9523-1F6138682A34}
  9
$VERSIONGUID
  2
{5EBD0B0D-8245-463E-B7C2-3FC8E6EC1A87}
  9
$EXTNAMES
290
1
  9
$PSVPSCALE
 40
0.0
  9
$OLESTARTUP
290
0
  9
$SORTENTS
280
127
  9
$INDEXCTL
280
0
  9
$HIDETEXT
280
1
  9
$XCLIPFRAME
280
1
  9
$HALOGAP
280
0
  9
$OBSCOLOR
 70
257
  9
$OBSLTYPE
280
0
  9
$INTERSECTIONDISPLAY
280
0
  9
$INTERSECTIONCOLOR
 70
257
  9
$DIMASSOC
280
2
  9
$PROJECTNAME
  1

  9
$CAMERADISPLAY
290
0
  9
$LENSLENGTH
 40
50.0
  9
$CAMERAHEIGHT
 40
0.0
  9
$STEPSPERSEC
 40
24.0
  9
$STEPSIZE
 40
100.0
  9
$3DDWFPREC
 40
2.0
  9
$PSOLWIDTH
 40
0.005
  9
$PSOLHEIGHT
 40
0.08
  9
$LOFTANG1
 40
1.570796326795
  9
$LOFTANG2
 40
1.570796326795
  9
$LOFTMAG1
 40
0.0
  9
$LOFTMAG2
 40
0.0
  9
$LOFTPARAM
 70
7
  9
$LOFTNORMALS
280
1
  9
$LATITUDE
 40
37.795
  9
$LONGITUDE
 40
-122.394
  9
$NORTHDIRECTION
 40
0.0
  9
$TIMEZONE
 70
-8000
  9
$LIGHTGLYPHDISPLAY
280
1
  9
$TILEMODELIGHTSYNCH
280
1
  9
$CMATERIAL
347
20
  9
$SOLIDHIST
280
0
  9
$SHOWHIST
280
1
  9
$DWFFRAME
280
2
  9
$DGNFRAME
280
2
  9
$REALWORLDSCALE
290
1
  9
$INTERFERECOLOR
 62
256
  9
$CSHADOW
280
0
  9
$SHADOWPLANELOCATION
 40
0.0
  0
ENDSEC
  0
SECTION
  2
CLASSES
  0
CLASS
  1
ACDBDICTIONARYWDFLT
  2
AcDbDictionaryWithDefault
  3
ObjectDBX Classes
 90
0
 91
0
280
0
281
0
  0
CLASS
  1
SUN
  2
AcDbSun
  3
SCENEOE
 90
1153
 91
0
280
0
281
0
  0
CLASS
  1
VISUALSTYLE
  2
AcDbVisualStyle
  3
ObjectDBX Classes
 90
4095
 91
0
280
0
281
0
  0
CLASS
  1
MATERIAL
  2
AcDbMaterial
  3
ObjectDBX Classes
 90
1153
 91
0
280
0
281
0
  0
CLASS
  1
SCALE
  2
AcDbScale
  3
ObjectDBX Classes
 90
1153
 91
0
280
0
281
0
  0
CLASS
  1
TABLESTYLE
  2
AcDbTableStyle
  3
ObjectDBX Classes
 90
4095
 91
0
280
0
281
0
  0
CLASS
  1
MLEADERSTYLE
  2
AcDbMLeaderStyle
  3
ACDB_MLEADERSTYLE_CLASS
 90
4095
 91
0
280
0
281
0
  0
CLASS
  1
DICTIONARYVAR
  2
AcDbDictionaryVar
  3
ObjectDBX Classes
 90
0
 91
0
280
0
281
0
  0
CLASS
  1
CELLSTYLEMAP
  2
AcDbCellStyleMap
  3
ObjectDBX Classes
 90
1152
 91
0
280
0
281
0
  0
CLASS
  1
MENTALRAYRENDERSETTINGS
  2
AcDbMentalRayRenderSettings
  3
SCENEOE
 90
1024
 91
0
280
0
281
0
  0
CLASS
  1
ACDBDETAILVIEWSTYLE
  2
AcDbDetailViewStyle
  3
ObjectDBX Classes
 90
1025
 91
0
280
0
281
0
  0
CLASS
  1
ACDBSECTIONVIEWSTYLE
  2
AcDbSectionViewStyle
  3
ObjectDBX Classes
 90
1025
 91
0
280
0
281
0
  0
CLASS
  1
RASTERVARIABLES
  2
AcDbRasterVariables
  3
ISM
 90
0
 91
0
280
0
281
0
  0
CLASS
  1
LAYOUT
  2
AcDbLayout
  3
ObjectDBX Classes
 90
0
 91
0
280
0
281
0
  0
CLASS
  1
ACDBPLACEHOLDER
  2
AcDbPlaceHolder
  3
ObjectDBX Classes
 90
0
 91
0
280
0
281
0
  0
ENDSEC
  0
SECTION
  2
TABLES
  0
TABLE
  2
VPORT
  5
8
330
0
100
AcDbSymbolTable
 70
1
  0
VPORT
  5
23
330
8
100
AcDbSymbolTableRecord
100
AcDbViewportTableRecord
  2
*Active
 70
0
 10
0.0
 20
0.0
 11
1.0
 21
1.0
 12
0.0
 22
0.0
 13
0.0
 23
0.0
 14
0.5
 24
0.5
 15
0.5
 25
0.5
 16
0.0
 26
0.0
 36
1.0
 17
0.0
 27
0.0
 37
0.0
 40
1000.0
 41
1.34
 42
50.0
 43
0.0
 44
0.0
 50
0.0
 51
0.0
 71
0
 72
1000
 73
1
 74
3
 75
0
 76
0
 77
0
 78
0
281
0
 65
0
146
0.0
  0
ENDTAB
  0
TABLE
  2
LTYPE
  5
2
330
0
100
AcDbSymbolTable
 70
3
  0
LTYPE
  5
24
330
2
100
AcDbSymbolTableRecord
100
AcDbLinetypeTableRecord
  2
ByBlock
 70
0
  3

 72
65
 73
0
 40
0.0
  0
LTYPE
  5
25
330
2
100
AcDbSymbolTableRecord
100
AcDbLinetypeTableRecord
  2
ByLayer
 70
0
  3

 72
65
 73
0
 40
0.0
  0
LTYPE
  5
26
330
2
100
AcDbSymbolTableRecord
100
AcDbLinetypeTableRecord
  2
Continuous
 70
0
  3

 72
65
 73
0
 40
0.0
  0
ENDTAB
  0
TABLE
  2
LAYER
  5
1
330
0
100
AcDbSymbolTable
 70
7
  0
LAYER
  5
27
330
1
100
AcDbSymbolTableRecord
100
AcDbLayerTableRecord
  2
0
 70
0
 62
7
  6
Continuous
370
-3
390
13
347
21
  0
LAYER
  5
28
330
1
100
AcDbSymbolTableRecord
100
AcDbLayerTableRecord
  2
Defpoints
 70
0
 62
7
  6
Continuous
290
0
370
-3
390
13
347
21
  0
LAYER
  5
2F
330
1
100
AcDbSymbolTableRecord
100
AcDbLayerTableRecord
  2
A-WALL
 70
0
 62
7
  6
Continuous
370
50
390
13
347
21
  0
LAYER
  5
30
330
1
100
AcDbSymbolTableRecord
100
AcDbLayerTableRecord
  2
A-DOOR
 70
0
 62
3
  6
Continuous
370
35
390
13
347
21
  0
LAYER
  5
31
330
1
100
AcDbSymbolTableRecord
100
AcDbLayerTableRecord
  2
A-WINDOW
 70
0
 62
4
  6
Continuous
370
25
390
13
347
21
  0
LAYER
  5
32
330
1
100
AcDbSymbolTableRecord
100
AcDbLayerTableRecord
  2
A-TEXT
 70
0
 62
2
  6
Continuous
370
-3
390
13
347
21
  0
LAYER
  5
33
330
1
100
AcDbSymbolTableRecord
100
AcDbLayerTableRecord
  2
A-GRID
 70
0
 62
8
  6
Continuous
370
13
390
13
347
21
  0
ENDTAB
  0
TABLE
  2
STYLE
  5
5
330
0
100
AcDbSymbolTable
 70
1
  0
STYLE
  5
29
330
5
100
AcDbSymbolTableRecord
100
AcDbTextStyleTableRecord
  2
Standard
 70
0
 40
0.0
 41
1.0
 50
0.0
 71
0
 42
2.5
  3
txt
  4

  0
ENDTAB
  0
TABLE
  2
VIEW
  5
7
330
0
100
AcDbSymbolTable
 70
0
  0
ENDTAB
  0
TABLE
  2
UCS
  5
6
330
0
100
AcDbSymbolTable
 70
0
  0
ENDTAB
  0
TABLE
  2
APPID
  5
3
330
0
100
AcDbSymbolTable
 70
3
  0
APPID
  5
2A
330
3
100
AcDbSymbolTableRecord
100
AcDbRegAppTableRecord
  2
ACAD
 70
0
  0
APPID
  5
178
330
3
100
AcDbSymbolTableRecord
100
AcDbRegAppTableRecord
  2
HATCHBACKGROUNDCOLOR
 70
0
  0
APPID
  5
179
330
3
100
AcDbSymbolTableRecord
100
AcDbRegAppTableRecord
  2
EZDXF
 70
0
  0
ENDTAB
  0
TABLE
  2
DIMSTYLE
  5
4
330
0
100
AcDbSymbolTable
 70
1
100
AcDbDimStyleTable
  0
DIMSTYLE
105
2B
330
4
100
AcDbSymbolTableRecord
100
AcDbDimStyleTableRecord
  2
Standard
 70
0
 40
1.0
 41
2.5
 42
0.625
 43
3.75
 44
1.25
 45
0.0
 46
0.0
 47
0.0
 48
0.0
 49
2.5
140
2.5
141
2.5
142
0.0
143
0.03937007874
144
1.0
145
0.0
146
1.0
147
0.625
148
0.0
 69
0
 70
0
 71
0
 72
0
 73
0
 74
0
 75
0
 76
0
 77
1
 78
8
 79
3
170
0
171
3
172
1
173
0
174
0
175
0
176
0
177
0
178
0
179
2
271
2
272
2
273
2
274
3
275
0
276
0
277
2
278
44
279
0
280
0
281
0
282
0
283
0
284
8
285
0
286
0
288
0
289
3
290
0
371
-2
372
-2
  0
ENDTAB
  0
TABLE
  2
BLOCK_RECORD
  5
9
330
0
100
AcDbSymbolTable
 70
2
  0
BLOCK_RECORD
  5
17
330
9
100
AcDbSymbolTableRecord
100
AcDbBlockTableRecord
  2
*Model_Space
340
1A
 70
0
280
1
281
0
  0
BLOCK_RECORD
  5
1B
330
9
100
AcDbSymbolTableRecord
100
AcDbBlockTableRecord
  2
*Paper_Space
340
1E
 70
0
280
1
281
0
  0
ENDTAB
  0
ENDSEC
  0
SECTION
  2
BLOCKS
  0
BLOCK
  5
18
330
17
100
AcDbEntity
  8
0
100
AcDbBlockBegin
  2
*Model_Space
 70
0
 10
0.0
 20
0.0
 30
0.0
  3
*Model_Space
  1

  0
ENDBLK
  5
19
330
17
100
AcDbEntity
  8
0
100
AcDbBlockEnd
  0
BLOCK
  5
1C
330
1B
100
AcDbEntity
  8
0
100
AcDbBlockBegin
  2
*Paper_Space
 70
0
 10
0.0
 20
0.0
 30
0.0
  3
*Paper_Space
  1

  0
ENDBLK
  5
1D
330
1B
100
AcDbEntity
  8
0
100
AcDbBlockEnd
  0
ENDSEC
  0
SECTION
  2
ENTITIES
  0
LINE
  5
34
330
17
100
AcDbEntity
  8
A-WALL
100
AcDbLine
 10
26.60016632080078
 20
1.5970214843750021
 30
0.0
 11
26.60016632080078
 21
8.297021484375001
 31
0.0
  0
LINE
  5
35
330
17
100
AcDbEntity
  8
A-WALL
100
AcDbLine
 10
-4.399833679199219
 20
18.547021484375
 30
0.0
 11
6.50016632080078
 21
18.547021484375
 31
0.0
  0
LINE
  5
36
330
17
100
AcDbEntity
  8
A-WALL
100
AcDbLine
 10
11.650166320800786
 20
18.447021484375
 30
0.0
 11
26.60016632080078
 21
18.447021484375
 31
0.0
  0
LINE
  5
37
330
17
100
AcDbEntity
  8
A-WALL
100
AcDbLine
 10
11.400166320800786
 20
1.2970214843750014
 30
0.0
 11
11.400166320800786
 21
11.697021484375
 31
0.0
  0
LINE
  5
38
330
17
100
AcDbEntity
  8
A-WALL
100
AcDbLine
 10
-16.299833679199217
 20
15.797021484375001
 30
0.0
 11
-12.849833679199218
 21
15.797021484375001
 31
0.0
  0
LINE
  5
39
330
17
100
AcDbEntity
  8
A-WALL
100
AcDbLine
 10
-10.799833679199217
 20
6.497021484375004
 30
0.0
 11
-5.499833679199217
 21
6.497021484375004
 31
0.0
  0
LINE
  5
3A
330
17
100
AcDbEntity
  8
A-WALL
100
AcDbLine
 10
11.000166320800787
 20
11.947021484375
 30
0.0
 11
12.950166320800783
 21
12.347021484374999
 31
0.0
  0
LINE
  5
3B
330
17
100
AcDbEntity
  8
A-WALL
100
AcDbLine
 10
-4.599833679199218
 20
5.447021484375
 30
0.0
 11
-4.599833679199218
 21
11.597021484374999
 31
0.0
  0
LINE
  5
3C
330
17
100
AcDbEntity
  8
A-WALL
100
AcDbLine
 10
11.700166320800783
 20
15.397021484375003
 30
0.0
 11
15.900166320800786
 21
15.397021484375003
 31
0.0
  0
LINE
  5
3D
330
17
100
AcDbEntity
  8
A-WALL
100
AcDbLine
 10
-9.94983367919922
 20
-19.452978515625
 30
0.0
 11
-9.94983367919922
 21
-17.302978515625
 31
0.0
  0
LINE
  5
3E
330
17
100
AcDbEntity
  8
A-WALL
100
AcDbLine
 10
8.00016632080078
 20
-4.052978515625
 30
0.0
 11
14.000166320800787
 21
-4.052978515625
 31
0.0
  0
LINE
  5
3F
330
17
100
AcDbEntity
  8
A-WALL
100
AcDbLine
 10
-10.849833679199218
 20
5.797021484375001
 30
0.0
 11
-10.849833679199218
 21
14.897021484375003
 31
0.0
  0
LINE
  5
40
330
17
100
AcDbEntity
  8
A-WALL
100
AcDbLine
 10
1.050166320800784
 20
18.597021484375006
 30
0.0
 11
9.100166320800781
 21
18.597021484375006
 31
0.0
  0
LINE
  5
41
330
17
100
AcDbEntity
  8
A-WALL
100
AcDbLine
 10
-8.799833679199217
 20
12.697021484375
 30
0.0
 11
-5.599833679199218
 21
12.697021484375
 31
0.0
  0
LINE
  5
42
330
17
100
AcDbEntity
  8
A-WALL
100
AcDbLine
 10
6.75016632080078
 20
12.197021484375
 30
0.0
 11
9.950166320800783
 21
12.197021484375
 31
0.0
  0
LINE
  5
43
330
17
100
AcDbEntity
  8
A-WALL
100
AcDbLine
 10
-8.949833679199216
 20
11.847021484374999
 30
0.0
 11
-5.649833679199219
 21
11.847021484374999
 31
0.0
  0
LINE
  5
44
330
17
100
AcDbEntity
  8
A-WALL
100
AcDbLine
 10
16.000166320800787
 20
-7.602978515625001
 30
0.0
 11
26.60016632080078
 21
-7.602978515625001
 31
0.0
  0
LINE
  5
45
330
17
100
AcDbEntity
  8
A-WALL
100
AcDbLine
 10
-9.999833679199217
 20
-16.152978515625
 30
0.0
 11
-9.999833679199217
 21
-13.402978515625
 31
0.0
  0
LINE
  5
46
330
17
100
AcDbEntity
  8
A-WALL
100
AcDbLine
 10
-16.74983367919922
 20
-17.702978515625
 30
0.0
 11
-15.549833679199217
 21
-17.702978515625
 31
0.0
  0
LINE
  5
47
330
17
100
AcDbEntity
  8
A-WALL
100
AcDbLine
 10
6.6501663208007855
 20
15.447021484375
 30
0.0
 11
10.000166320800787
 21
15.447021484375
 31
0.0
  0
LINE
  5
48
330
17
100
AcDbEntity
  8
A-WALL
100
AcDbLine
 10
-6.899833679199219
 20
13.347021484375006
 30
0.0
 11
-6.049833679199217
 21
14.047021484375001
 31
0.0
  0
LINE
  5
49
330
17
100
AcDbEntity
  8
A-WALL
100
AcDbLine
 10
6.550166320800784
 20
-0.20297851562499858
 30
0.0
 11
14.650166320800786
 21
-0.20297851562499858
 31
0.0
  0
LINE
  5
4A
330
17
100
AcDbEntity
  8
A-WALL
100
AcDbLine
 10
-9.749833679199217
 20
12.497021484375004
 30
0.0
 11
-4.699833679199216
 21
12.497021484375004
 31
0.0
  0
LINE
  5
4B
330
17
100
AcDbEntity
  8
A-WALL
100
AcDbLine
 10
-10.799833679199217
 20
9.097021484374999
 30
0.0
 11
-9.799833679199217
 21
9.097021484374999
 31
0.0
  0
LINE
  5
4C
330
17
100
AcDbEntity
  8
A-WALL
100
AcDbLine
 10
9.900166320800786
 20
15.347021484375006
 30
0.0
 11
14.500166320800787
 21
15.347021484375006
 31
0.0
  0
LINE
  5
4D
330
17
100
AcDbEntity
  8
A-WALL
100
AcDbLine
 10
-4.649833679199219
 20
11.797021484375001
 30
0.0
 11
-3.699833679199216
 21
11.797021484375001
 31
0.0
  0
LINE
  5
4E
330
17
100
AcDbEntity
  8
A-WALL
100
AcDbLine
 10
11.450166320800783
 20
-7.402978515624998
 30
0.0
 11
12.550166320800784
 21
-7.402978515624998
 31
0.0
  0
LINE
  5
4F
330
17
100
AcDbEntity
  8
A-WALL
100
AcDbLine
 10
-10.099833679199218
 20
-12.452978515624999
 30
0.0
 11
-10.099833679199218
 21
-8.852978515625
 31
0.0
  0
LINE
  5
50
330
17
100
AcDbEntity
  8
A-WALL
100
AcDbLine
 10
0.00016632080078338163
 20
-4.202978515624999
 30
0.0
 11
0.00016632080078338163
 21
0.697021484375
 31
0.0
  0
LINE
  5
51
330
17
100
AcDbEntity
  8
A-WALL
100
AcDbLine
 10
-13.499833679199218
 20
15.747021484375004
 30
0.0
 11
-10.249833679199217
 21
16.647021484375003
 31
0.0
  0
LINE
  5
52
330
17
100
AcDbEntity
  8
A-WALL
100
AcDbLine
 10
24.000166320800787
 20
8.497021484375004
 30
0.0
 11
25.400166320800786
 21
8.497021484375004
 31
0.0
  0
LINE
  5
53
330
17
100
AcDbEntity
  8
A-WALL
100
AcDbLine
 10
-9.899833679199219
 20
-16.752978515625
 30
0.0
 11
-8.949833679199216
 21
-16.752978515625
 31
0.0
  0
LINE
  5
54
330
17
100
AcDbEntity
  8
A-WALL
100
AcDbLine
 10
-11.499833679199217
 20
18.397021484375003
 30
0.0
 11
-5.949833679199216
 21
18.397021484375003
 31
0.0
  0
LINE
  5
55
330
17
100
AcDbEntity
  8
A-WALL
100
AcDbLine
 10
-4.649833679199219
 20
12.647021484375003
 30
0.0
 11
-4.649833679199219
 21
13.747021484375004
 31
0.0
  0
LINE
  5
56
330
17
100
AcDbEntity
  8
A-WALL
100
AcDbLine
 10
-15.799833679199217
 20
-16.852978515624997
 30
0.0
 11
-12.099833679199218
 21
-16.852978515624997
 31
0.0
  0
LINE
  5
57
330
17
100
AcDbEntity
  8
A-WALL
100
AcDbLine
 10
-16.49983367919922
 20
11.097021484374999
 30
0.0
 11
-16.49983367919922
 21
14.647021484375003
 31
0.0
  0
LINE
  5
58
330
17
100
AcDbEntity
  8
A-WALL
100
AcDbLine
 10
-9.999833679199217
 20
-20.052978515625
 30
0.0
 11
-5.249833679199217
 21
-20.052978515625
 31
0.0
  0
LINE
  5
59
330
17
100
AcDbEntity
  8
A-WALL
100
AcDbLine
 10
-5.249833679199217
 20
10.297021484375001
 30
0.0
 11
-4.299833679199217
 21
10.297021484375001
 31
0.0
  0
LINE
  5
5A
330
17
100
AcDbEntity
  8
A-WALL
100
AcDbLine
 10
-5.199833679199216
 20
15.797021484375001
 30
0.0
 11
-3.849833679199218
 21
15.797021484375001
 31
0.0
  0
LINE
  5
5B
330
17
100
AcDbEntity
  8
A-WALL
100
AcDbLine
 10
-14.799833679199217
 20
17.347021484375006
 30
0.0
 11
-13.749833679199218
 21
16.897021484375003
 31
0.0
  0
LINE
  5
5C
330
17
100
AcDbEntity
  8
A-WALL
100
AcDbLine
 10
14.050166320800784
 20
5.947021484375
 30
0.0
 11
14.850166320800781
 21
6.147021484375003
 31
0.0
  0
LINE
  5
5D
330
17
100
AcDbEntity
  8
A-WALL
100
AcDbLine
 10
-5.599833679199218
 20
6.597021484374999
 30
0.0
 11
-5.599833679199218
 21
7.397021484375003
 31
0.0
  0
LINE
  5
5E
330
17
100
AcDbEntity
  8
A-WALL
100
AcDbLine
 10
-4.949833679199216
 20
-12.702978515624999
 30
0.0
 11
-4.949833679199216
 21
-10.852978515624999
 31
0.0
  0
LINE
  5
5F
330
17
100
AcDbEntity
  8
A-WALL
100
AcDbLine
 10
-2.5498336791992173
 20
14.947021484375
 30
0.0
 11
-1.449833679199216
 21
14.947021484375
 31
0.0
  0
LINE
  5
60
330
17
100
AcDbEntity
  8
A-WALL
100
AcDbLine
 10
7.00016632080078
 20
6.897021484375003
 30
0.0
 11
10.550166320800784
 21
6.897021484375003
 31
0.0
  0
LINE
  5
61
330
17
100
AcDbEntity
  8
A-WALL
100
AcDbLine
 10
19.250166320800787
 20
18.597021484375006
 30
0.0
 11
22.35016632080078
 21
18.597021484375006
 31
0.0
  0
LINE
  5
62
330
17
100
AcDbEntity
  8
A-WALL
100
AcDbLine
 10
24.85016632080078
 20
8.597021484374999
 30
0.0
 11
26.000166320800787
 21
8.597021484374999
 31
0.0
  0
LINE
  5
63
330
17
100
AcDbEntity
  8
A-WALL
100
AcDbLine
 10
6.6501663208007855
 20
12.197021484375
 30
0.0
 11
7.9001663208007855
 21
12.197021484375
 31
0.0
  0
LINE
  5
64
330
17
100
AcDbEntity
  8
A-WALL
100
AcDbLine
 10
-3.5498336791992173
 20
10.447021484375
 30
0.0
 11
-0.6998336791992159
 21
10.447021484375
 31
0.0
  0
LINE
  5
65
330
17
100
AcDbEntity
  8
A-WALL
100
AcDbLine
 10
0.9501663208007827
 20
-21.202978515625
 30
0.0
 11
1.7501663208007834
 21
-21.202978515625
 31
0.0
  0
LINE
  5
66
330
17
100
AcDbEntity
  8
A-WALL
100
AcDbLine
 10
13.550166320800784
 20
4.497021484375001
 30
0.0
 11
14.600166320800781
 21
4.497021484375001
 31
0.0
  0
LINE
  5
67
330
17
100
AcDbEntity
  8
A-WALL
100
AcDbLine
 10
13.100166320800781
 20
9.847021484374999
 30
0.0
 11
14.700166320800783
 21
10.147021484375003
 31
0.0
  0
LINE
  5
68
330
17
100
AcDbEntity
  8
A-WALL
100
AcDbLine
 10
3.1001663208007812
 20
-21.702978515625
 30
0.0
 11
10.250166320800787
 21
-21.702978515625
 31
0.0
  0
LINE
  5
69
330
17
100
AcDbEntity
  8
A-WALL
100
AcDbLine
 10
-10.749833679199217
 20
16.347021484375006
 30
0.0
 11
-9.249833679199217
 21
17.097021484375006
 31
0.0
  0
LINE
  5
6A
330
17
100
AcDbEntity
  8
A-WALL
100
AcDbLine
 10
-14.499833679199218
 20
15.197021484375
 30
0.0
 11
-10.149833679199219
 21
17.547021484375
 31
0.0
  0
LINE
  5
6B
330
17
100
AcDbEntity
  8
A-WALL
100
AcDbLine
 10
-16.049833679199217
 20
6.797021484375001
 30
0.0
 11
-14.999833679199218
 21
6.797021484375001
 31
0.0
  0
LINE
  5
6C
330
17
100
AcDbEntity
  8
A-WALL
100
AcDbLine
 10
-7.249833679199217
 20
-14.852978515624999
 30
0.0
 11
-7.249833679199217
 21
-13.352978515624999
 31
0.0
  0
LINE
  5
6D
330
17
100
AcDbEntity
  8
A-WALL
100
AcDbLine
 10
-10.799833679199217
 20
10.247021484375004
 30
0.0
 11
-10.799833679199217
 21
7.547021484375001
 31
0.0
  0
LINE
  5
6E
330
17
100
AcDbEntity
  8
A-WALL
100
AcDbLine
 10
-16.449833679199216
 20
6.697021484375
 30
0.0
 11
-16.449833679199216
 21
9.397021484375003
 31
0.0
  0
LINE
  5
6F
330
17
100
AcDbEntity
  8
A-WALL
100
AcDbLine
 10
-10.69983367919922
 20
-19.702978515625
 30
0.0
 11
-10.69983367919922
 21
-17.752978515625
 31
0.0
  0
LINE
  5
70
330
17
100
AcDbEntity
  8
A-WALL
100
AcDbLine
 10
-16.89983367919922
 20
16.297021484375
 30
0.0
 11
-14.149833679199219
 21
17.197021484375
 31
0.0
  0
LINE
  5
71
330
17
100
AcDbEntity
  8
A-WALL
100
AcDbLine
 10
12.800166320800784
 20
10.297021484375001
 30
0.0
 11
13.700166320800783
 21
10.297021484375001
 31
0.0
  0
LINE
  5
72
330
17
100
AcDbEntity
  8
A-WALL
100
AcDbLine
 10
12.750166320800787
 20
1.2470214843750007
 30
0.0
 11
13.600166320800781
 21
1.2470214843750007
 31
0.0
  0
LINE
  5
73
330
17
100
AcDbEntity
  8
A-WALL
100
AcDbLine
 10
-6.499833679199217
 20
-17.502978515625
 30
0.0
 11
-3.7498336791992166
 21
-17.502978515625
 31
0.0
  0
LINE
  5
74
330
17
100
AcDbEntity
  8
A-WALL
100
AcDbLine
 10
11.450166320800783
 20
-4.452978515624999
 30
0.0
 11
15.100166320800781
 21
-4.452978515624999
 31
0.0
  0
LINE
  5
75
330
17
100
AcDbEntity
  8
A-WALL
100
AcDbLine
 10
22.150166320800786
 20
-4.602978515624997
 30
0.0
 11
24.650166320800786
 21
-4.602978515624997
 31
0.0
  0
LINE
  5
76
330
17
100
AcDbEntity
  8
A-WALL
100
AcDbLine
 10
8.25016632080078
 20
9.597021484374999
 30
0.0
 11
10.750166320800787
 21
9.597021484374999
 31
0.0
  0
LINE
  5
77
330
17
100
AcDbEntity
  8
A-WALL
100
AcDbLine
 10
-8.499833679199217
 20
-17.002978515625
 30
0.0
 11
-8.499833679199217
 21
-15.002978515625
 31
0.0
  0
LINE
  5
78
330
17
100
AcDbEntity
  8
A-WALL
100
AcDbLine
 10
-6.749833679199217
 20
15.097021484375006
 30
0.0
 11
-4.149833679199219
 21
15.097021484375006
 31
0.0
  0
LINE
  5
79
330
17
100
AcDbEntity
  8
A-WALL
100
AcDbLine
 10
-15.899833679199219
 20
10.797021484375001
 30
0.0
 11
-11.999833679199217
 21
10.797021484375001
 31
0.0
  0
LINE
  5
7A
330
17
100
AcDbEntity
  8
A-WALL
100
AcDbLine
 10
-9.299833679199217
 20
-8.852978515625
 30
0.0
 11
-7.549833679199217
 21
-8.852978515625
 31
0.0
  0
LINE
  5
7B
330
17
100
AcDbEntity
  8
A-WALL
100
AcDbLine
 10
-4.849833679199218
 20
-12.052978515625
 30
0.0
 11
-4.849833679199218
 21
-10.202978515624999
 31
0.0
  0
LINE
  5
7C
330
17
100
AcDbEntity
  8
A-WALL
100
AcDbLine
 10
22.250166320800787
 20
10.997021484375004
 30
0.0
 11
25.750166320800787
 21
10.997021484375004
 31
0.0
  0
LINE
  5
7D
330
17
100
AcDbEntity
  8
A-WALL
100
AcDbLine
 10
-5.999833679199217
 20
-15.852978515624999
 30
0.0
 11
-5.799833679199217
 21
-14.952978515624999
 31
0.0
  0
LINE
  5
7E
330
17
100
AcDbEntity
  8
A-WALL
100
AcDbLine
 10
-16.049833679199217
 20
15.997021484375004
 30
0.0
 11
-14.299833679199217
 21
15.997021484375004
 31
0.0
  0
LINE
  5
7F
330
17
100
AcDbEntity
  8
A-WALL
100
AcDbLine
 10
21.900166320800786
 20
8.847021484374999
 30
0.0
 11
22.900166320800786
 21
8.597021484374999
 31
0.0
  0
LINE
  5
80
330
17
100
AcDbEntity
  8
A-WALL
100
AcDbLine
 10
-6.899833679199219
 20
-18.502978515625
 30
0.0
 11
-4.249833679199217
 21
-18.502978515625
 31
0.0
  0
LINE
  5
81
330
17
100
AcDbEntity
  8
A-WALL
100
AcDbLine
 10
-8.799833679199217
 20
16.197021484375
 30
0.0
 11
-7.649833679199219
 21
15.947021484375
 31
0.0
  0
LINE
  5
82
330
17
100
AcDbEntity
  8
A-WALL
100
AcDbLine
 10
-16.199833679199216
 20
14.597021484375006
 30
0.0
 11
-11.399833679199219
 21
14.597021484375006
 31
0.0
  0
LINE
  5
83
330
17
100
AcDbEntity
  8
A-WALL
100
AcDbLine
 10
7.50016632080078
 20
6.997021484375004
 30
0.0
 11
9.650166320800786
 21
6.997021484375004
 31
0.0
  0
LINE
  5
84
330
17
100
AcDbEntity
  8
A-WALL
100
AcDbLine
 10
-7.849833679199218
 20
-18.552978515625
 30
0.0
 11
-4.999833679199217
 21
-18.552978515625
 31
0.0
  0
LINE
  5
85
330
17
100
AcDbEntity
  8
A-WALL
100
AcDbLine
 10
-15.549833679199217
 20
9.947021484375
 30
0.0
 11
-12.849833679199218
 21
10.497021484375004
 31
0.0
  0
LINE
  5
86
330
17
100
AcDbEntity
  8
A-WALL
100
AcDbLine
 10
2.400166320800782
 20
-21.402978515625
 30
0.0
 11
3.6001663208007812
 21
-21.402978515625
 31
0.0
  0
LINE
  5
87
330
17
100
AcDbEntity
  8
A-WALL
100
AcDbLine
 10
-3.0498336791992173
 20
11.797021484375001
 30
0.0
 11
-1.3998336791992188
 21
12.347021484374999
 31
0.0
  0
LINE
  5
88
330
17
100
AcDbEntity
  8
A-WALL
100
AcDbLine
 10
15.050166320800784
 20
11.447021484375
 30
0.0
 11
16.200166320800783
 21
11.447021484375
 31
0.0
  0
LINE
  5
89
330
17
100
AcDbEntity
  8
A-WALL
100
AcDbLine
 10
14.200166320800783
 20
10.047021484375001
 30
0.0
 11
15.050166320800784
 21
9.797021484375001
 31
0.0
  0
LINE
  5
8A
330
17
100
AcDbEntity
  8
A-WALL
100
AcDbLine
 10
-4.299833679199217
 20
14.897021484375003
 30
0.0
 11
-3.099833679199218
 21
15.197021484375
 31
0.0
  0
LINE
  5
8B
330
17
100
AcDbEntity
  8
A-WALL
100
AcDbLine
 10
10.850166320800781
 20
11.997021484375004
 30
0.0
 11
11.850166320800781
 21
11.997021484375004
 31
0.0
  0
LINE
  5
8C
330
17
100
AcDbEntity
  8
A-WALL
100
AcDbLine
 10
-9.249833679199217
 20
17.697021484375
 30
0.0
 11
-6.799833679199217
 21
18.397021484375003
 31
0.0
  0
LINE
  5
8D
330
17
100
AcDbEntity
  8
A-WALL
100
AcDbLine
 10
-11.44983367919922
 20
-12.602978515624999
 30
0.0
 11
-8.799833679199217
 21
-12.602978515624999
 31
0.0
  0
LINE
  5
8E
330
17
100
AcDbEntity
  8
A-WALL
100
AcDbLine
 10
14.700166320800783
 20
1.0970214843750021
 30
0.0
 11
15.850166320800781
 21
1.0970214843750021
 31
0.0
  0
LINE
  5
8F
330
17
100
AcDbEntity
  8
A-WALL
100
AcDbLine
 10
-16.39983367919922
 20
-19.352978515625
 30
0.0
 11
-10.649833679199219
 21
-19.352978515625
 31
0.0
  0
LINE
  5
90
330
17
100
AcDbEntity
  8
A-WALL
100
AcDbLine
 10
6.850166320800781
 20
-8.402978515624998
 30
0.0
 11
8.050166320800784
 21
-8.402978515624998
 31
0.0
  0
LINE
  5
91
330
17
100
AcDbEntity
  8
A-WALL
100
AcDbLine
 10
-16.49983367919922
 20
10.847021484374999
 30
0.0
 11
-13.549833679199217
 21
10.847021484374999
 31
0.0
  0
LINE
  5
92
330
17
100
AcDbEntity
  8
A-WALL
100
AcDbLine
 10
-11.44983367919922
 20
8.747021484375004
 30
0.0
 11
-11.44983367919922
 21
7.147021484375003
 31
0.0
  0
LINE
  5
93
330
17
100
AcDbEntity
  8
A-WALL
100
AcDbLine
 10
-11.899833679199219
 20
17.497021484375004
 30
0.0
 11
-10.349833679199218
 21
17.847021484375006
 31
0.0
  0
LINE
  5
94
330
17
100
AcDbEntity
  8
A-WALL
100
AcDbLine
 10
-16.39983367919922
 20
6.597021484374999
 30
0.0
 11
-14.949833679199218
 21
6.597021484374999
 31
0.0
  0
LINE
  5
95
330
17
100
AcDbEntity
  8
A-WALL
100
AcDbLine
 10
22.550166320800784
 20
8.697021484375
 30
0.0
 11
26.10016632080078
 21
8.697021484375
 31
0.0
  0
LINE
  5
96
330
17
100
AcDbEntity
  8
A-WALL
100
AcDbLine
 10
-13.499833679199218
 20
15.797021484375001
 30
0.0
 11
-11.94983367919922
 21
15.797021484375001
 31
0.0
  0
LINE
  5
97
330
17
100
AcDbEntity
  8
A-WALL
100
AcDbLine
 10
-11.249833679199217
 20
16.847021484375006
 30
0.0
 11
-10.049833679199217
 21
16.847021484375006
 31
0.0
  0
LINE
  5
98
330
17
100
AcDbEntity
  8
A-WALL
100
AcDbLine
 10
-1.199833679199216
 20
-13.352978515624999
 30
0.0
 11
-1.199833679199216
 21
-9.802978515625
 31
0.0
  0
LINE
  5
99
330
17
100
AcDbEntity
  8
A-WALL
100
AcDbLine
 10
-2.3998336791992188
 20
0.6470214843750028
 30
0.0
 11
-0.24983367919921662
 21
0.6470214843750028
 31
0.0
  0
LINE
  5
9A
330
17
100
AcDbEntity
  8
A-WALL
100
AcDbLine
 10
5.1501663208007855
 20
-20.052978515625
 30
0.0
 11
5.450166320800783
 21
-21.002978515625
 31
0.0
  0
LINE
  5
9B
330
17
100
AcDbEntity
  8
A-WALL
100
AcDbLine
 10
-1.699833679199216
 20
5.147021484375003
 30
0.0
 11
1.3501663208007812
 21
5.147021484375003
 31
0.0
  0
LINE
  5
9C
330
17
100
AcDbEntity
  8
A-WALL
100
AcDbLine
 10
-4.249833679199217
 20
-5.002978515624999
 30
0.0
 11
-1.2498336791992166
 21
-5.002978515624999
 31
0.0
  0
LINE
  5
9D
330
17
100
AcDbEntity
  8
A-WALL
100
AcDbLine
 10
-11.399833679199219
 20
10.897021484375003
 30
0.0
 11
-11.399833679199219
 21
14.197021484375
 31
0.0
  0
LINE
  5
9E
330
17
100
AcDbEntity
  8
A-WALL
100
AcDbLine
 10
-2.099833679199218
 20
9.597021484374999
 30
0.0
 11
0.2501663208007834
 21
9.597021484374999
 31
0.0
  0
LINE
  5
9F
330
17
100
AcDbEntity
  8
A-WALL
100
AcDbLine
 10
-16.39983367919922
 20
16.947021484375
 30
0.0
 11
-15.599833679199218
 21
17.547021484375
 31
0.0
  0
LINE
  5
A0
330
17
100
AcDbEntity
  8
A-WALL
100
AcDbLine
 10
-8.099833679199218
 20
17.297021484375
 30
0.0
 11
-6.649833679199219
 21
17.297021484375
 31
0.0
  0
LINE
  5
A1
330
17
100
AcDbEntity
  8
A-WALL
100
AcDbLine
 10
11.450166320800783
 20
3.9970214843750007
 30
0.0
 11
11.450166320800783
 21
6.397021484375003
 31
0.0
  0
LINE
  5
A2
330
17
100
AcDbEntity
  8
A-WALL
100
AcDbLine
 10
-9.199833679199216
 20
16.347021484375006
 30
0.0
 11
-6.699833679199216
 21
17.247021484375004
 31
0.0
  0
LINE
  5
A3
330
17
100
AcDbEntity
  8
A-WALL
100
AcDbLine
 10
7.850166320800781
 20
11.347021484374999
 30
0.0
 11
9.300166320800784
 21
11.347021484374999
 31
0.0
  0
LINE
  5
A4
330
17
100
AcDbEntity
  8
A-WALL
100
AcDbLine
 10
-8.599833679199218
 20
-15.402978515625
 30
0.0
 11
-6.899833679199219
 21
-14.802978515625
 31
0.0
  0
LINE
  5
A5
330
17
100
AcDbEntity
  8
A-WALL
100
AcDbLine
 10
-1.2498336791992166
 20
12.247021484375004
 30
0.0
 11
-0.29983367919921733
 21
11.797021484375001
 31
0.0
  0
LINE
  5
A6
330
17
100
AcDbEntity
  8
A-WALL
100
AcDbLine
 10
-1.849833679199218
 20
11.947021484375
 30
0.0
 11
-0.14983367919921875
 21
11.947021484375
 31
0.0
  0
LINE
  5
A7
330
17
100
AcDbEntity
  8
A-WALL
100
AcDbLine
 10
-9.449833679199216
 20
9.797021484375001
 30
0.0
 11
-8.849833679199218
 21
11.747021484375004
 31
0.0
  0
LINE
  5
A8
330
17
100
AcDbEntity
  8
A-WALL
100
AcDbLine
 10
-14.399833679199219
 20
16.897021484375003
 30
0.0
 11
-12.949833679199218
 21
17.547021484375
 31
0.0
  0
LINE
  5
A9
330
17
100
AcDbEntity
  8
A-WALL
100
AcDbLine
 10
-5.349833679199218
 20
-16.202978515625
 30
0.0
 11
-4.899833679199219
 21
-13.902978515625
 31
0.0
  0
LINE
  5
AA
330
17
100
AcDbEntity
  8
A-WALL
100
AcDbLine
 10
-8.499833679199217
 20
15.697021484375
 30
0.0
 11
-5.449833679199216
 21
15.697021484375
 31
0.0
  0
LINE
  5
AB
330
17
100
AcDbEntity
  8
A-WALL
100
AcDbLine
 10
-8.649833679199219
 20
-17.102978515624997
 30
0.0
 11
-6.999833679199217
 21
-16.152978515625
 31
0.0
  0
LINE
  5
AC
330
17
100
AcDbEntity
  8
A-WALL
100
AcDbLine
 10
-3.349833679199218
 20
12.747021484375004
 30
0.0
 11
-3.349833679199218
 21
11.897021484375003
 31
0.0
  0
LINE
  5
AD
330
17
100
AcDbEntity
  8
A-WALL
100
AcDbLine
 10
-16.49983367919922
 20
16.497021484375004
 30
0.0
 11
-16.49983367919922
 21
15.547021484375001
 31
0.0
  0
LINE
  5
AE
330
17
100
AcDbEntity
  8
A-WALL
100
AcDbLine
 10
-9.649833679199219
 20
6.747021484375004
 30
0.0
 11
-6.849833679199218
 21
6.747021484375004
 31
0.0
  0
LINE
  5
AF
330
17
100
AcDbEntity
  8
A-WALL
100
AcDbLine
 10
-12.799833679199217
 20
6.447021484375
 30
0.0
 11
-11.44983367919922
 21
6.447021484375
 31
0.0
  0
LINE
  5
B0
330
17
100
AcDbEntity
  8
A-WALL
100
AcDbLine
 10
22.550166320800784
 20
10.397021484375003
 30
0.0
 11
23.700166320800783
 21
10.397021484375003
 31
0.0
  0
LINE
  5
B1
330
17
100
AcDbEntity
  8
A-WALL
100
AcDbLine
 10
-17.39983367919922
 20
10.897021484375003
 30
0.0
 11
-17.39983367919922
 21
13.297021484375001
 31
0.0
  0
LINE
  5
B2
330
17
100
AcDbEntity
  8
A-WALL
100
AcDbLine
 10
-0.6998336791992159
 20
-8.102978515625
 30
0.0
 11
0.9501663208007827
 21
-8.102978515625
 31
0.0
  0
LINE
  5
B3
330
17
100
AcDbEntity
  8
A-WALL
100
AcDbLine
 10
-9.849833679199218
 20
-17.352978515624997
 30
0.0
 11
-8.099833679199218
 21
-17.352978515624997
 31
0.0
  0
LINE
  5
B4
330
17
100
AcDbEntity
  8
A-WALL
100
AcDbLine
 10
7.200166320800783
 20
-13.152978515625
 30
0.0
 11
8.650166320800786
 21
-13.152978515625
 31
0.0
  0
LINE
  5
B5
330
17
100
AcDbEntity
  8
A-WALL
100
AcDbLine
 10
23.250166320800787
 20
16.197021484375
 30
0.0
 11
24.200166320800783
 21
16.197021484375
 31
0.0
  0
LINE
  5
B6
330
17
100
AcDbEntity
  8
A-WALL
100
AcDbLine
 10
7.00016632080078
 20
8.697021484375
 30
0.0
 11
10.300166320800784
 21
8.697021484375
 31
0.0
  0
LINE
  5
B7
330
17
100
AcDbEntity
  8
A-WALL
100
AcDbLine
 10
23.500166320800787
 20
4.997021484375001
 30
0.0
 11
26.000166320800787
 21
4.997021484375001
 31
0.0
  0
LINE
  5
B8
330
17
100
AcDbEntity
  8
A-WALL
100
AcDbLine
 10
-13.399833679199219
 20
17.397021484375003
 30
0.0
 11
-11.599833679199218
 21
18.447021484375
 31
0.0
  0
LINE
  5
B9
330
17
100
AcDbEntity
  8
A-WALL
100
AcDbLine
 10
22.800166320800784
 20
16.297021484375
 30
0.0
 11
23.900166320800786
 21
16.297021484375
 31
0.0
  0
LINE
  5
BA
330
17
100
AcDbEntity
  8
A-WALL
100
AcDbLine
 10
-2.599833679199218
 20
1.0470214843750014
 30
0.0
 11
-1.9998336791992166
 21
2.397021484375003
 31
0.0
  0
LINE
  5
BB
330
17
100
AcDbEntity
  8
A-WALL
100
AcDbLine
 10
-6.199833679199216
 20
13.797021484375001
 30
0.0
 11
-5.999833679199217
 21
12.947021484375
 31
0.0
  0
LINE
  5
BC
330
17
100
AcDbEntity
  8
A-WALL
100
AcDbLine
 10
-16.89983367919922
 20
18.097021484375006
 30
0.0
 11
-14.799833679199217
 21
17.597021484375006
 31
0.0
  0
LINE
  5
BD
330
17
100
AcDbEntity
  8
A-WALL
100
AcDbLine
 10
-9.899833679199219
 20
-13.402978515625
 30
0.0
 11
-6.449833679199216
 21
-13.402978515625
 31
0.0
  0
LINE
  5
BE
330
17
100
AcDbEntity
  8
A-WALL
100
AcDbLine
 10
23.85016632080078
 20
11.347021484374999
 30
0.0
 11
24.650166320800786
 21
11.347021484374999
 31
0.0
  0
LINE
  5
BF
330
17
100
AcDbEntity
  8
A-WALL
100
AcDbLine
 10
-7.149833679199219
 20
-12.602978515624999
 30
0.0
 11
-4.999833679199217
 21
-12.602978515624999
 31
0.0
  0
LINE
  5
C0
330
17
100
AcDbEntity
  8
A-WALL
100
AcDbLine
 10
-16.89983367919922
 20
17.897021484375003
 30
0.0
 11
-16.89983367919922
 21
16.097021484375006
 31
0.0
  0
LINE
  5
C1
330
17
100
AcDbEntity
  8
A-WALL
100
AcDbLine
 10
-13.249833679199218
 20
-19.002978515625
 30
0.0
 11
-13.249833679199218
 21
-17.652978515625
 31
0.0
  0
LINE
  5
C2
330
17
100
AcDbEntity
  8
A-WALL
100
AcDbLine
 10
-15.049833679199217
 20
18.397021484375003
 30
0.0
 11
-13.949833679199218
 21
17.797021484375
 31
0.0
  0
LINE
  5
C3
330
17
100
AcDbEntity
  8
A-WALL
100
AcDbLine
 10
24.050166320800784
 20
12.647021484375003
 30
0.0
 11
25.300166320800784
 21
12.647021484375003
 31
0.0
  0
LINE
  5
C4
330
17
100
AcDbEntity
  8
A-WALL
100
AcDbLine
 10
26.650166320800786
 20
-2.402978515624998
 30
0.0
 11
26.650166320800786
 21
-5.202978515624999
 31
0.0
  0
LINE
  5
C5
330
17
100
AcDbEntity
  8
A-WALL
100
AcDbLine
 10
6.100166320800781
 20
-16.902978515625
 30
0.0
 11
6.100166320800781
 21
-16.102978515624997
 31
0.0
  0
LINE
  5
C6
330
17
100
AcDbEntity
  8
A-WALL
100
AcDbLine
 10
-10.399833679199219
 20
15.197021484375
 30
0.0
 11
-9.449833679199216
 21
15.197021484375
 31
0.0
  0
LINE
  5
C7
330
17
100
AcDbEntity
  8
A-WALL
100
AcDbLine
 10
22.650166320800786
 20
4.997021484375001
 30
0.0
 11
24.450166320800783
 21
4.997021484375001
 31
0.0
  0
LINE
  5
C8
330
17
100
AcDbEntity
  8
A-WALL
100
AcDbLine
 10
-4.599833679199218
 20
12.497021484375004
 30
0.0
 11
-4.299833679199217
 21
13.797021484375001
 31
0.0
  0
LINE
  5
C9
330
17
100
AcDbEntity
  8
A-WALL
100
AcDbLine
 10
-3.699833679199216
 20
-18.902978515625
 30
0.0
 11
-3.699833679199216
 21
-17.752978515625
 31
0.0
  0
LINE
  5
CA
330
17
100
AcDbEntity
  8
A-WALL
100
AcDbLine
 10
-24.599833679199218
 20
1.3970214843750028
 30
0.0
 11
-24.599833679199218
 21
4.897021484375003
 31
0.0
  0
LINE
  5
CB
330
17
100
AcDbEntity
  8
A-WALL
100
AcDbLine
 10
22.250166320800787
 20
1.1470214843750028
 30
0.0
 11
23.200166320800783
 21
1.697021484375
 31
0.0
  0
LINE
  5
CC
330
17
100
AcDbEntity
  8
A-WALL
100
AcDbLine
 10
-0.34983367919921804
 20
-20.202978515625
 30
0.0
 11
-0.34983367919921804
 21
-21.052978515625
 31
0.0
  0
LINE
  5
CD
330
17
100
AcDbEntity
  8
A-WALL
100
AcDbLine
 10
5.75016632080078
 20
-19.352978515625
 30
0.0
 11
7.1501663208007855
 21
-19.352978515625
 31
0.0
  0
LINE
  5
CE
330
17
100
AcDbEntity
  8
A-WALL
100
AcDbLine
 10
22.10016632080078
 20
-0.0029785156249992895
 30
0.0
 11
24.950166320800783
 21
0.5970214843750021
 31
0.0
  0
LINE
  5
CF
330
17
100
AcDbEntity
  8
A-WALL
100
AcDbLine
 10
-3.949833679199216
 20
12.447021484375
 30
0.0
 11
-2.9998336791992166
 21
11.847021484374999
 31
0.0
  0
LINE
  5
D0
330
17
100
AcDbEntity
  8
A-WALL
100
AcDbLine
 10
-2.599833679199218
 20
3.197021484375
 30
0.0
 11
-1.699833679199216
 21
2.197021484375
 31
0.0
  0
LINE
  5
D1
330
17
100
AcDbEntity
  8
A-WALL
100
AcDbLine
 10
22.250166320800787
 20
12.747021484375004
 30
0.0
 11
23.400166320800786
 21
12.747021484375004
 31
0.0
  0
LINE
  5
D2
330
17
100
AcDbEntity
  8
A-WALL
100
AcDbLine
 10
0.20016632080078267
 20
-18.602978515625
 30
0.0
 11
1.3501663208007812
 21
-18.602978515625
 31
0.0
  0
LINE
  5
D3
330
17
100
AcDbEntity
  8
A-WALL
100
AcDbLine
 10
-8.499833679199217
 20
-15.302978515625
 30
0.0
 11
-7.599833679199218
 21
-15.102978515624999
 31
0.0
  0
LINE
  5
D4
330
17
100
AcDbEntity
  8
A-WALL
100
AcDbLine
 10
-8.299833679199217
 20
-19.152978515625
 30
0.0
 11
-6.849833679199218
 21
-19.152978515625
 31
0.0
  0
LINE
  5
D5
330
17
100
AcDbEntity
  8
A-WALL
100
AcDbLine
 10
-9.399833679199219
 20
5.697021484375
 30
0.0
 11
-9.399833679199219
 21
6.847021484374999
 31
0.0
  0
LINE
  5
D6
330
17
100
AcDbEntity
  8
A-WALL
100
AcDbLine
 10
-5.299833679199217
 20
10.497021484375004
 30
0.0
 11
-4.499833679199217
 21
10.497021484375004
 31
0.0
  0
LINE
  5
D7
330
17
100
AcDbEntity
  8
A-WALL
100
AcDbLine
 10
-0.5498336791992173
 20
-20.302978515625
 30
0.0
 11
0.35016632080078125
 21
-20.302978515625
 31
0.0
  0
LINE
  5
D8
330
17
100
AcDbEntity
  8
A-WALL
100
AcDbLine
 10
-2.7998336791992173
 20
10.097021484374999
 30
0.0
 11
-2.7998336791992173
 21
9.047021484375001
 31
0.0
  0
LINE
  5
D9
330
17
100
AcDbEntity
  8
A-WALL
100
AcDbLine
 10
21.950166320800783
 20
12.197021484375
 30
0.0
 11
23.10016632080078
 21
13.347021484375006
 31
0.0
  0
LINE
  5
DA
330
17
100
AcDbEntity
  8
A-WALL
100
AcDbLine
 10
-2.4998336791992166
 20
2.597021484375002
 30
0.0
 11
1.050166320800784
 21
2.597021484375002
 31
0.0
  0
LINE
  5
DB
330
17
100
AcDbEntity
  8
A-WALL
100
AcDbLine
 10
-15.749833679199218
 20
-10.452978515624999
 30
0.0
 11
-11.899833679199219
 21
-10.452978515624999
 31
0.0
  0
LINE
  5
DC
330
17
100
AcDbEntity
  8
A-WALL
100
AcDbLine
 10
24.35016632080078
 20
3.347021484375002
 30
0.0
 11
25.35016632080078
 21
3.347021484375002
 31
0.0
  0
LINE
  5
DD
330
17
100
AcDbEntity
  8
A-WALL
100
AcDbLine
 10
-10.249833679199217
 20
7.897021484375003
 30
0.0
 11
-9.399833679199219
 21
7.897021484375003
 31
0.0
  0
LINE
  5
DE
330
17
100
AcDbEntity
  8
A-WALL
100
AcDbLine
 10
-6.949833679199216
 20
9.097021484374999
 30
0.0
 11
-5.749833679199217
 21
9.097021484374999
 31
0.0
  0
LINE
  5
DF
330
17
100
AcDbEntity
  8
A-WALL
100
AcDbLine
 10
7.25016632080078
 20
8.747021484375004
 30
0.0
 11
8.75016632080078
 21
8.747021484375004
 31
0.0
  0
LINE
  5
E0
330
17
100
AcDbEntity
  8
A-WALL
100
AcDbLine
 10
-13.749833679199218
 20
17.897021484375003
 30
0.0
 11
-12.499833679199217
 21
17.897021484375003
 31
0.0
  0
LINE
  5
E1
330
17
100
AcDbEntity
  8
A-WALL
100
AcDbLine
 10
-15.149833679199219
 20
-10.552978515625
 30
0.0
 11
-11.249833679199217
 21
-10.552978515625
 31
0.0
  0
LINE
  5
E2
330
17
100
AcDbEntity
  8
A-WALL
100
AcDbLine
 10
23.800166320800784
 20
-1.4029785156249979
 30
0.0
 11
24.900166320800786
 21
-1.6029785156249972
 31
0.0
  0
LINE
  5
E3
330
17
100
AcDbEntity
  8
A-WALL
100
AcDbLine
 10
-2.599833679199218
 20
10.397021484375003
 30
0.0
 11
-1.3998336791992188
 21
10.397021484375003
 31
0.0
  0
LINE
  5
E4
330
17
100
AcDbEntity
  8
A-WALL
100
AcDbLine
 10
-9.849833679199218
 20
9.397021484375003
 30
0.0
 11
-9.199833679199216
 21
7.247021484375004
 31
0.0
  0
LINE
  5
E5
330
17
100
AcDbEntity
  8
A-WALL
100
AcDbLine
 10
22.000166320800787
 20
-1.2529785156249993
 30
0.0
 11
22.000166320800787
 21
-0.052978515625
 31
0.0
  0
LINE
  5
E6
330
17
100
AcDbEntity
  8
A-WALL
100
AcDbLine
 10
-11.899833679199219
 20
13.097021484375006
 30
0.0
 11
-10.499833679199217
 21
13.097021484375006
 31
0.0
  0
LINE
  5
E7
330
17
100
AcDbEntity
  8
A-WALL
100
AcDbLine
 10
-16.699833679199216
 20
18.197021484375
 30
0.0
 11
-14.549833679199217
 21
18.197021484375
 31
0.0
  0
LINE
  5
E8
330
17
100
AcDbEntity
  8
A-WALL
100
AcDbLine
 10
-10.599833679199218
 20
10.697021484375
 30
0.0
 11
-9.799833679199217
 21
10.897021484375003
 31
0.0
  0
LINE
  5
E9
330
17
100
AcDbEntity
  8
A-WALL
100
AcDbLine
 10
-2.7498336791992166
 20
10.447021484375
 30
0.0
 11
-2.7498336791992166
 21
9.547021484375001
 31
0.0
  0
LINE
  5
EA
330
17
100
AcDbEntity
  8
A-WALL
100
AcDbLine
 10
7.200166320800783
 20
-16.702978515625
 30
0.0
 11
8.400166320800786
 21
-16.702978515625
 31
0.0
  0
LINE
  5
EB
330
17
100
AcDbEntity
  8
A-WALL
100
AcDbLine
 10
0.900166320800782
 20
6.847021484374999
 30
0.0
 11
1.7501663208007834
 21
6.547021484375001
 31
0.0
  0
LINE
  5
EC
330
17
100
AcDbEntity
  8
A-WALL
100
AcDbLine
 10
22.300166320800784
 20
-5.652978515624998
 30
0.0
 11
24.800166320800784
 21
-5.652978515624998
 31
0.0
  0
LINE
  5
ED
330
17
100
AcDbEntity
  8
A-WALL
100
AcDbLine
 10
-9.699833679199216
 20
17.447021484375
 30
0.0
 11
-8.549833679199217
 21
16.447021484375
 31
0.0
  0
LINE
  5
EE
330
17
100
AcDbEntity
  8
A-WALL
100
AcDbLine
 10
-6.599833679199218
 20
17.297021484375
 30
0.0
 11
-5.699833679199216
 21
18.547021484375
 31
0.0
  0
LINE
  5
EF
330
17
100
AcDbEntity
  8
A-WALL
100
AcDbLine
 10
-2.949833679199216
 20
1.6470214843750028
 30
0.0
 11
-1.7498336791992166
 21
1.6470214843750028
 31
0.0
  0
LINE
  5
F0
330
17
100
AcDbEntity
  8
A-WALL
100
AcDbLine
 10
-10.749833679199217
 20
6.997021484375004
 30
0.0
 11
-9.899833679199219
 21
6.847021484374999
 31
0.0
  0
LINE
  5
F1
330
17
100
AcDbEntity
  8
A-WALL
100
AcDbLine
 10
-13.349833679199218
 20
16.097021484375006
 30
0.0
 11
-12.499833679199217
 21
16.097021484375006
 31
0.0
  0
LINE
  5
F2
330
17
100
AcDbEntity
  8
A-WALL
100
AcDbLine
 10
-13.499833679199218
 20
-14.702978515624999
 30
0.0
 11
-13.499833679199218
 21
-13.352978515624999
 31
0.0
  0
LINE
  5
F3
330
17
100
AcDbEntity
  8
A-WALL
100
AcDbLine
 10
14.100166320800781
 20
4.997021484375001
 30
0.0
 11
14.900166320800786
 21
4.647021484375003
 31
0.0
  0
LINE
  5
F4
330
17
100
AcDbEntity
  8
A-WALL
100
AcDbLine
 10
-1.599833679199218
 20
-16.802978515625
 30
0.0
 11
-1.449833679199216
 21
-15.952978515624999
 31
0.0
  0
LINE
  5
F5
330
17
100
AcDbEntity
  8
A-WALL
100
AcDbLine
 10
-6.849833679199218
 20
16.347021484375006
 30
0.0
 11
-6.099833679199218
 21
17.447021484375
 31
0.0
  0
LINE
  5
F6
330
17
100
AcDbEntity
  8
A-WALL
100
AcDbLine
 10
-6.249833679199217
 20
-15.052978515625
 30
0.0
 11
-4.899833679199219
 21
-13.952978515624999
 31
0.0
  0
LINE
  5
F7
330
17
100
AcDbEntity
  8
A-WALL
100
AcDbLine
 10
-2.9998336791992166
 20
3.447021484375
 30
0.0
 11
-2.9998336791992166
 21
2.5470214843750014
 31
0.0
  0
LINE
  5
F8
330
17
100
AcDbEntity
  8
A-WALL
100
AcDbLine
 10
23.400166320800786
 20
0.6470214843750028
 30
0.0
 11
24.300166320800784
 21
0.6470214843750028
 31
0.0
  0
LINE
  5
F9
330
17
100
AcDbEntity
  8
A-WALL
100
AcDbLine
 10
6.700166320800783
 20
1.4970214843750007
 30
0.0
 11
8.150166320800786
 21
1.4970214843750007
 31
0.0
  0
LINE
  5
FA
330
17
100
AcDbEntity
  8
A-WALL
100
AcDbLine
 10
-9.549833679199217
 20
18.397021484375003
 30
0.0
 11
-7.949833679199216
 21
17.347021484375006
 31
0.0
  0
LINE
  5
FB
330
17
100
AcDbEntity
  8
A-WALL
100
AcDbLine
 10
10.400166320800786
 20
-12.752978515625
 30
0.0
 11
10.400166320800786
 21
-9.802978515625
 31
0.0
  0
LINE
  5
FC
330
17
100
AcDbEntity
  8
A-WALL
100
AcDbLine
 10
14.850166320800781
 20
9.797021484375001
 30
0.0
 11
15.800166320800784
 21
9.797021484375001
 31
0.0
  0
LINE
  5
FD
330
17
100
AcDbEntity
  8
A-WALL
100
AcDbLine
 10
-2.599833679199218
 20
9.547021484375001
 30
0.0
 11
-1.5498336791992173
 21
9.547021484375001
 31
0.0
  0
LINE
  5
FE
330
17
100
AcDbEntity
  8
A-WALL
100
AcDbLine
 10
15.400166320800786
 20
3.647021484375003
 30
0.0
 11
16.35016632080078
 21
3.097021484375002
 31
0.0
  0
LINE
  5
FF
330
17
100
AcDbEntity
  8
A-WALL
100
AcDbLine
 10
-13.349833679199218
 20
17.947021484375
 30
0.0
 11
-12.799833679199217
 21
16.947021484375
 31
0.0
  0
LINE
  5
100
330
17
100
AcDbEntity
  8
A-WALL
100
AcDbLine
 10
-15.249833679199218
 20
10.397021484375003
 30
0.0
 11
-13.299833679199217
 21
10.397021484375003
 31
0.0
  0
LINE
  5
101
330
17
100
AcDbEntity
  8
A-WALL
100
AcDbLine
 10
-12.949833679199218
 20
18.447021484375
 30
0.0
 11
-12.149833679199219
 21
18.097021484375006
 31
0.0
  0
LINE
  5
102
330
17
100
AcDbEntity
  8
A-WALL
100
AcDbLine
 10
0.900166320800782
 20
-11.702978515624999
 30
0.0
 11
0.900166320800782
 21
-8.752978515625
 31
0.0
  0
LINE
  5
103
330
17
100
AcDbEntity
  8
A-WALL
100
AcDbLine
 10
-8.549833679199217
 20
-13.202978515624999
 30
0.0
 11
-7.549833679199217
 21
-13.202978515624999
 31
0.0
  0
LINE
  5
104
330
17
100
AcDbEntity
  8
A-WALL
100
AcDbLine
 10
-1.849833679199218
 20
24.897021484375003
 30
0.0
 11
-1.849833679199218
 21
23.697021484375
 31
0.0
  0
LINE
  5
105
330
17
100
AcDbEntity
  8
A-WALL
100
AcDbLine
 10
22.250166320800787
 20
16.397021484375003
 30
0.0
 11
23.300166320800784
 21
16.397021484375003
 31
0.0
  0
LINE
  5
106
330
17
100
AcDbEntity
  8
A-WALL
100
AcDbLine
 10
15.700166320800783
 20
-0.35297851562499716
 30
0.0
 11
15.700166320800783
 21
1.2970214843750014
 31
0.0
  0
LINE
  5
107
330
17
100
AcDbEntity
  8
A-WALL
100
AcDbLine
 10
22.35016632080078
 20
1.3970214843750028
 30
0.0
 11
22.700166320800783
 21
2.197021484375
 31
0.0
  0
LINE
  5
108
330
17
100
AcDbEntity
  8
A-WALL
100
AcDbLine
 10
6.100166320800781
 20
-15.702978515624999
 30
0.0
 11
6.25016632080078
 21
-14.852978515624999
 31
0.0
  0
LINE
  5
109
330
17
100
AcDbEntity
  8
A-WALL
100
AcDbLine
 10
22.200166320800783
 20
3.597021484375002
 30
0.0
 11
22.200166320800783
 21
4.947021484375
 31
0.0
  0
LINE
  5
10A
330
17
100
AcDbEntity
  8
A-WALL
100
AcDbLine
 10
15.150166320800786
 20
10.047021484375001
 30
0.0
 11
15.950166320800783
 21
9.897021484375003
 31
0.0
  0
LINE
  5
10B
330
17
100
AcDbEntity
  8
A-WALL
100
AcDbLine
 10
-0.04983367919921733
 20
4.047021484375001
 30
0.0
 11
1.3501663208007812
 21
4.347021484375002
 31
0.0
  0
LINE
  5
10C
330
17
100
AcDbEntity
  8
A-WALL
100
AcDbLine
 10
-3.699833679199216
 20
-8.002978515625
 30
0.0
 11
-2.3998336791992188
 21
-8.002978515625
 31
0.0
  0
LINE
  5
10D
330
17
100
AcDbEntity
  8
A-WALL
100
AcDbLine
 10
-8.549833679199217
 20
18.397021484375003
 30
0.0
 11
-7.999833679199217
 21
17.447021484375
 31
0.0
  0
LINE
  5
10E
330
17
100
AcDbEntity
  8
A-WALL
100
AcDbLine
 10
-4.999833679199217
 20
-9.152978515624998
 30
0.0
 11
-4.849833679199218
 21
-9.952978515624999
 31
0.0
  0
LINE
  5
10F
330
17
100
AcDbEntity
  8
A-WALL
100
AcDbLine
 10
-13.599833679199218
 20
-16.802978515625
 30
0.0
 11
-13.599833679199218
 21
-15.702978515624999
 31
0.0
  0
LINE
  5
110
330
17
100
AcDbEntity
  8
A-WALL
100
AcDbLine
 10
7.9001663208007855
 20
0.9970214843750007
 30
0.0
 11
9.550166320800784
 21
0.9970214843750007
 31
0.0
  0
LINE
  5
111
330
17
100
AcDbEntity
  8
A-WALL
100
AcDbLine
 10
6.25016632080078
 20
-14.752978515625
 30
0.0
 11
9.150166320800786
 21
-14.752978515625
 31
0.0
  0
LINE
  5
112
330
17
100
AcDbEntity
  8
A-WALL
100
AcDbLine
 10
6.350166320800781
 20
8.397021484375003
 30
0.0
 11
6.350166320800781
 21
7.397021484375003
 31
0.0
  0
LINE
  5
113
330
17
100
AcDbEntity
  8
A-WALL
100
AcDbLine
 10
-8.299833679199217
 20
-20.052978515625
 30
0.0
 11
-7.999833679199217
 21
-19.102978515625
 31
0.0
  0
LINE
  5
114
330
17
100
AcDbEntity
  8
A-WALL
100
AcDbLine
 10
-2.449833679199216
 20
7.897021484375003
 30
0.0
 11
-1.599833679199218
 21
7.897021484375003
 31
0.0
  0
LINE
  5
115
330
17
100
AcDbEntity
  8
A-WALL
100
AcDbLine
 10
22.200166320800783
 20
-4.252978515624999
 30
0.0
 11
22.200166320800783
 21
-2.902978515624998
 31
0.0
  0
LINE
  5
116
330
17
100
AcDbEntity
  8
A-WALL
100
AcDbLine
 10
-1.199833679199216
 20
-14.002978515625
 30
0.0
 11
-1.199833679199216
 21
-15.152978515625
 31
0.0
  0
LINE
  5
117
330
17
100
AcDbEntity
  8
A-WALL
100
AcDbLine
 10
-1.8998336791992188
 20
-18.602978515625
 30
0.0
 11
-0.24983367919921662
 21
-18.602978515625
 31
0.0
  0
LINE
  5
118
330
17
100
AcDbEntity
  8
A-WALL
100
AcDbLine
 10
15.650166320800786
 20
-5.552978515625
 30
0.0
 11
15.650166320800786
 21
-4.602978515624997
 31
0.0
  0
LINE
  5
119
330
17
100
AcDbEntity
  8
A-WALL
100
AcDbLine
 10
7.850166320800781
 20
-16.702978515625
 30
0.0
 11
9.200166320800783
 21
-16.702978515625
 31
0.0
  0
LINE
  5
11A
330
17
100
AcDbEntity
  8
A-WALL
100
AcDbLine
 10
-15.549833679199217
 20
9.997021484375004
 30
0.0
 11
-14.699833679199218
 21
9.797021484375001
 31
0.0
  0
LINE
  5
11B
330
17
100
AcDbEntity
  8
A-WALL
100
AcDbLine
 10
-4.599833679199218
 20
13.747021484375004
 30
0.0
 11
-2.6498336791992188
 21
13.747021484375004
 31
0.0
  0
LINE
  5
11C
330
17
100
AcDbEntity
  8
A-WALL
100
AcDbLine
 10
7.100166320800781
 20
-7.102978515625001
 30
0.0
 11
7.100166320800781
 21
-7.952978515624999
 31
0.0
  0
LINE
  5
11D
330
17
100
AcDbEntity
  8
A-WALL
100
AcDbLine
 10
-6.849833679199218
 20
12.847021484375006
 30
0.0
 11
-5.749833679199217
 21
12.847021484375006
 31
0.0
  0
LINE
  5
11E
330
17
100
AcDbEntity
  8
A-WALL
100
AcDbLine
 10
16.500166320800787
 20
18.647021484375003
 30
0.0
 11
18.200166320800783
 21
18.647021484375003
 31
0.0
  0
LINE
  5
11F
330
17
100
AcDbEntity
  8
A-WALL
100
AcDbLine
 10
-5.199833679199216
 20
-13.552978515625
 30
0.0
 11
-5.199833679199216
 21
-14.952978515624999
 31
0.0
  0
LINE
  5
120
330
17
100
AcDbEntity
  8
A-WALL
100
AcDbLine
 10
-13.699833679199218
 20
9.997021484375004
 30
0.0
 11
-11.299833679199217
 21
9.997021484375004
 31
0.0
  0
LINE
  5
121
330
17
100
AcDbEntity
  8
A-WALL
100
AcDbLine
 10
-17.299833679199217
 20
7.697021484375
 30
0.0
 11
-17.299833679199217
 21
9.397021484375003
 31
0.0
  0
LINE
  5
122
330
17
100
AcDbEntity
  8
A-WALL
100
AcDbLine
 10
-10.099833679199218
 20
12.297021484375001
 30
0.0
 11
-9.899833679199219
 21
11.497021484375004
 31
0.0
  0
LINE
  5
123
330
17
100
AcDbEntity
  8
A-WALL
100
AcDbLine
 10
15.650166320800786
 20
-6.552978515625
 30
0.0
 11
15.650166320800786
 21
-5.602978515624997
 31
0.0
  0
LINE
  5
124
330
17
100
AcDbEntity
  8
A-WALL
100
AcDbLine
 10
9.300166320800784
 20
-7.652978515624998
 30
0.0
 11
10.350166320800781
 21
-7.652978515624998
 31
0.0
  0
LINE
  5
125
330
17
100
AcDbEntity
  8
A-WALL
100
AcDbLine
 10
-9.749833679199217
 20
-17.152978515625
 30
0.0
 11
-8.499833679199217
 21
-17.152978515625
 31
0.0
  0
LINE
  5
126
330
17
100
AcDbEntity
  8
A-WALL
100
AcDbLine
 10
24.500166320800787
 20
-1.6029785156249972
 30
0.0
 11
25.500166320800787
 21
-1.6029785156249972
 31
0.0
  0
LINE
  5
127
330
17
100
AcDbEntity
  8
A-WALL
100
AcDbLine
 10
-9.849833679199218
 20
13.047021484375001
 30
0.0
 11
-8.999833679199217
 21
13.047021484375001
 31
0.0
  0
LINE
  5
128
330
17
100
AcDbEntity
  8
A-WALL
100
AcDbLine
 10
11.500166320800787
 20
-7.152978515624998
 30
0.0
 11
11.500166320800787
 21
-4.602978515624997
 31
0.0
  0
LINE
  5
129
330
17
100
AcDbEntity
  8
A-WALL
100
AcDbLine
 10
21.60016632080078
 20
-6.752978515624999
 30
0.0
 11
21.60016632080078
 21
-5.752978515624999
 31
0.0
  0
LINE
  5
12A
330
17
100
AcDbEntity
  8
A-WALL
100
AcDbLine
 10
-7.299833679199217
 20
-16.752978515625
 30
0.0
 11
-7.299833679199217
 21
-15.952978515624999
 31
0.0
  0
LINE
  5
12B
330
17
100
AcDbEntity
  8
A-WALL
100
AcDbLine
 10
-17.24983367919922
 20
-18.952978515625
 30
0.0
 11
-17.24983367919922
 21
-19.802978515625
 31
0.0
  0
LINE
  5
12C
330
17
100
AcDbEntity
  8
A-WALL
100
AcDbLine
 10
6.350166320800781
 20
9.897021484375003
 30
0.0
 11
6.350166320800781
 21
10.997021484375004
 31
0.0
  0
LINE
  5
12D
330
17
100
AcDbEntity
  8
A-WALL
100
AcDbLine
 10
-16.849833679199218
 20
17.447021484375
 30
0.0
 11
-15.799833679199217
 21
17.247021484375004
 31
0.0
  0
LINE
  5
12E
330
17
100
AcDbEntity
  8
A-WALL
100
AcDbLine
 10
7.050166320800784
 20
15.597021484375006
 30
0.0
 11
8.00016632080078
 21
15.597021484375006
 31
0.0
  0
LINE
  5
12F
330
17
100
AcDbEntity
  8
A-WALL
100
AcDbLine
 10
-8.199833679199216
 20
-19.202978515625
 30
0.0
 11
-7.199833679199216
 21
-19.202978515625
 31
0.0
  0
LINE
  5
130
330
17
100
AcDbEntity
  8
A-WALL
100
AcDbLine
 10
11.600166320800781
 20
15.347021484375006
 30
0.0
 11
11.600166320800781
 21
16.347021484375006
 31
0.0
  0
LINE
  5
131
330
17
100
AcDbEntity
  8
A-WALL
100
AcDbLine
 10
-9.94983367919922
 20
11.497021484375004
 30
0.0
 11
-9.549833679199217
 21
12.297021484375001
 31
0.0
  0
LINE
  5
132
330
17
100
AcDbEntity
  8
A-WALL
100
AcDbLine
 10
-12.149833679199219
 20
17.797021484375
 30
0.0
 11
-11.349833679199218
 21
16.697021484375
 31
0.0
  0
LINE
  5
133
330
17
100
AcDbEntity
  8
A-WALL
100
AcDbLine
 10
-9.799833679199217
 20
18.447021484375
 30
0.0
 11
-9.799833679199217
 21
17.347021484375006
 31
0.0
  0
LINE
  5
134
330
17
100
AcDbEntity
  8
A-WALL
100
AcDbLine
 10
-5.349833679199218
 20
10.797021484375001
 30
0.0
 11
-4.399833679199219
 21
10.347021484374999
 31
0.0
  0
LINE
  5
135
330
17
100
AcDbEntity
  8
A-WALL
100
AcDbLine
 10
1.2001663208007827
 20
3.897021484375003
 30
0.0
 11
1.650166320800782
 21
3.0470214843750014
 31
0.0
  0
LINE
  5
136
330
17
100
AcDbEntity
  8
A-WALL
100
AcDbLine
 10
6.100166320800781
 20
-18.302978515625
 30
0.0
 11
7.00016632080078
 21
-18.302978515625
 31
0.0
  0
LINE
  5
137
330
17
100
AcDbEntity
  8
A-WALL
100
AcDbLine
 10
-24.64983367919922
 20
-3.7529785156249993
 30
0.0
 11
-24.64983367919922
 21
-0.8529785156249972
 31
0.0
  0
LINE
  5
138
330
17
100
AcDbEntity
  8
A-WALL
100
AcDbLine
 10
10.450166320800783
 20
-12.852978515624999
 30
0.0
 11
10.450166320800783
 21
-13.702978515624999
 31
0.0
  0
LINE
  5
139
330
17
100
AcDbEntity
  8
A-WALL
100
AcDbLine
 10
6.25016632080078
 20
10.847021484374999
 30
0.0
 11
6.25016632080078
 21
9.997021484375004
 31
0.0
  0
LINE
  5
13A
330
17
100
AcDbEntity
  8
A-WALL
100
AcDbLine
 10
6.00016632080078
 20
-14.902978515625
 30
0.0
 11
6.300166320800784
 21
-15.752978515625
 31
0.0
  0
LINE
  5
13B
330
17
100
AcDbEntity
  8
A-WALL
100
AcDbLine
 10
8.350166320800781
 20
-19.402978515625
 30
0.0
 11
9.25016632080078
 21
-19.402978515625
 31
0.0
  0
LINE
  5
13C
330
17
100
AcDbEntity
  8
A-WALL
100
AcDbLine
 10
-8.099833679199218
 20
17.697021484375
 30
0.0
 11
-7.699833679199216
 21
18.497021484375004
 31
0.0
  0
LINE
  5
13D
330
17
100
AcDbEntity
  8
A-WALL
100
AcDbLine
 10
-13.649833679199219
 20
-15.752978515625
 30
0.0
 11
-13.649833679199219
 21
-14.352978515624999
 31
0.0
  0
LINE
  5
13E
330
17
100
AcDbEntity
  8
A-WALL
100
AcDbLine
 10
11.650166320800786
 20
17.147021484375003
 30
0.0
 11
11.650166320800786
 21
18.047021484375
 31
0.0
  0
LINE
  5
13F
330
17
100
AcDbEntity
  8
A-WALL
100
AcDbLine
 10
8.600166320800781
 20
-7.602978515625001
 30
0.0
 11
9.350166320800781
 21
-8.502978515625
 31
0.0
  0
LINE
  5
140
330
17
100
AcDbEntity
  8
A-WALL
100
AcDbLine
 10
14.450166320800783
 20
3.5470214843750014
 30
0.0
 11
15.450166320800783
 21
3.5470214843750014
 31
0.0
  0
LINE
  5
141
330
17
100
AcDbEntity
  8
A-WALL
100
AcDbLine
 10
9.050166320800784
 20
0.947021484375
 30
0.0
 11
9.900166320800786
 21
1.3970214843750028
 31
0.0
  0
LINE
  5
142
330
17
100
AcDbEntity
  8
A-WALL
100
AcDbLine
 10
7.850166320800781
 20
-13.302978515625
 30
0.0
 11
9.550166320800784
 21
-13.302978515625
 31
0.0
  0
LINE
  5
143
330
17
100
AcDbEntity
  8
A-WALL
100
AcDbLine
 10
7.100166320800781
 20
0.09702148437500213
 30
0.0
 11
8.300166320800784
 21
0.09702148437500213
 31
0.0
  0
LINE
  5
144
330
17
100
AcDbEntity
  8
A-WALL
100
AcDbLine
 10
22.050166320800784
 20
16.897021484375003
 30
0.0
 11
22.200166320800783
 21
17.697021484375
 31
0.0
  0
LINE
  5
145
330
17
100
AcDbEntity
  8
A-WALL
100
AcDbLine
 10
10.250166320800787
 20
-13.352978515624999
 30
0.0
 11
10.600166320800781
 21
-14.202978515624999
 31
0.0
  0
LINE
  5
146
330
17
100
AcDbEntity
  8
A-WALL
100
AcDbLine
 10
5.25016632080078
 20
-18.052978515625
 30
0.0
 11
5.25016632080078
 21
-17.102978515624997
 31
0.0
  0
LINE
  5
147
330
17
100
AcDbEntity
  8
A-WALL
100
AcDbLine
 10
0.45016632080078267
 20
-18.702978515625
 30
0.0
 11
1.5001663208007834
 21
-18.702978515625
 31
0.0
  0
LINE
  5
148
330
17
100
AcDbEntity
  8
A-WALL
100
AcDbLine
 10
22.10016632080078
 20
12.097021484374999
 30
0.0
 11
22.10016632080078
 21
11.197021484375
 31
0.0
  0
LINE
  5
149
330
17
100
AcDbEntity
  8
A-WALL
100
AcDbLine
 10
10.650166320800786
 20
-17.052978515625
 30
0.0
 11
10.950166320800783
 21
-17.852978515625
 31
0.0
  0
LINE
  5
14A
330
17
100
AcDbEntity
  8
A-WALL
100
AcDbLine
 10
8.550166320800784
 20
-9.952978515624999
 30
0.0
 11
9.550166320800784
 21
-9.952978515624999
 31
0.0
  0
LINE
  5
14B
330
17
100
AcDbEntity
  8
A-WALL
100
AcDbLine
 10
-16.39983367919922
 20
-18.552978515625
 30
0.0
 11
-16.39983367919922
 21
-19.352978515625
 31
0.0
  0
LINE
  5
14C
330
17
100
AcDbEntity
  8
A-WALL
100
AcDbLine
 10
7.550166320800784
 20
-15.552978515625
 30
0.0
 11
7.950166320800783
 21
-14.702978515624999
 31
0.0
  0
LINE
  5
14D
330
17
100
AcDbEntity
  8
A-WALL
100
AcDbLine
 10
7.50016632080078
 20
-14.902978515625
 30
0.0
 11
7.50016632080078
 21
-15.852978515624999
 31
0.0
  0
LINE
  5
14E
330
17
100
AcDbEntity
  8
A-WALL
100
AcDbLine
 10
-17.24983367919922
 20
0.4970214843750007
 30
0.0
 11
-17.24983367919922
 21
-0.302978515625
 31
0.0
  0
LINE
  5
14F
330
17
100
AcDbEntity
  8
A-DOOR
100
AcDbLine
 10
-4.5998
 20
5.447
 30
0.0
 11
-4.5998
 21
7.696999999999999
 31
0.0
  0
ARC
  5
150
330
17
100
AcDbEntity
  8
A-DOOR
100
AcDbCircle
 10
-4.5998
 20
5.447
 30
0.0
 40
2.25
100
AcDbArc
 50
90.0
 51
180.0
  0
LINE
  5
151
330
17
100
AcDbEntity
  8
A-DOOR
100
AcDbLine
 10
7.6002
 20
18.597
 30
0.0
 11
9.1002
 21
18.597
 31
0.0
  0
ARC
  5
152
330
17
100
AcDbEntity
  8
A-DOOR
100
AcDbCircle
 10
7.6002
 20
18.597
 30
0.0
 40
1.5
100
AcDbArc
 50
0.0
 51
90.0
  0
LINE
  5
153
330
17
100
AcDbEntity
  8
A-DOOR
100
AcDbLine
 10
24.7002
 20
-7.603
 30
0.0
 11
25.550199999999997
 21
-7.603
 31
0.0
  0
ARC
  5
154
330
17
100
AcDbEntity
  8
A-DOOR
100
AcDbCircle
 10
24.7002
 20
-7.603
 30
0.0
 40
0.85
100
AcDbArc
 50
0.0
 51
90.0
  0
LINE
  5
155
330
17
100
AcDbEntity
  8
A-DOOR
100
AcDbLine
 10
13.7002
 20
-0.203
 30
0.0
 11
14.4002
 21
-0.203
 31
0.0
  0
ARC
  5
156
330
17
100
AcDbEntity
  8
A-DOOR
100
AcDbCircle
 10
13.7002
 20
-0.203
 30
0.0
 40
0.7
100
AcDbArc
 50
0.0
 51
90.0
  0
LINE
  5
157
330
17
100
AcDbEntity
  8
A-DOOR
100
AcDbLine
 10
0.9502
 20
-21.203
 30
0.0
 11
1.6502000000000008
 21
-21.203
 31
0.0
  0
ARC
  5
158
330
17
100
AcDbEntity
  8
A-DOOR
100
AcDbCircle
 10
0.9502
 20
-21.203
 30
0.0
 40
0.7
100
AcDbArc
 50
0.0
 51
90.0
  0
LINE
  5
159
330
17
100
AcDbEntity
  8
A-DOOR
100
AcDbLine
 10
3.1002
 20
-21.703
 30
0.0
 11
4.100200000000001
 21
-21.703
 31
0.0
  0
ARC
  5
15A
330
17
100
AcDbEntity
  8
A-DOOR
100
AcDbCircle
 10
3.1002
 20
-21.703
 30
0.0
 40
1.0
100
AcDbArc
 50
0.0
 51
90.0
  0
LINE
  5
15B
330
17
100
AcDbEntity
  8
A-DOOR
100
AcDbLine
 10
5.6002
 20
-21.703
 30
0.0
 11
6.700200000000001
 21
-21.703
 31
0.0
  0
ARC
  5
15C
330
17
100
AcDbEntity
  8
A-DOOR
100
AcDbCircle
 10
5.6002
 20
-21.703
 30
0.0
 40
1.1
100
AcDbArc
 50
0.0
 51
90.0
  0
LINE
  5
15D
330
17
100
AcDbEntity
  8
A-DOOR
100
AcDbLine
 10
-1.1998
 20
-13.353
 30
0.0
 11
-1.1998
 21
-12.053
 31
0.0
  0
ARC
  5
15E
330
17
100
AcDbEntity
  8
A-DOOR
100
AcDbCircle
 10
-1.1998
 20
-13.353
 30
0.0
 40
1.3
100
AcDbArc
 50
90.0
 51
180.0
  0
LINE
  5
15F
330
17
100
AcDbEntity
  8
A-DOOR
100
AcDbLine
 10
-4.2498
 20
-5.003
 30
0.0
 11
-3.3997999999999995
 21
-5.003
 31
0.0
  0
ARC
  5
160
330
17
100
AcDbEntity
  8
A-DOOR
100
AcDbCircle
 10
-4.2498
 20
-5.003
 30
0.0
 40
0.85
100
AcDbArc
 50
0.0
 51
90.0
  0
LINE
  5
161
330
17
100
AcDbEntity
  8
A-DOOR
100
AcDbLine
 10
-9.3998
 20
5.697
 30
0.0
 11
-9.3998
 21
6.446999999999999
 31
0.0
  0
ARC
  5
162
330
17
100
AcDbEntity
  8
A-DOOR
100
AcDbCircle
 10
-9.3998
 20
5.697
 30
0.0
 40
0.75
100
AcDbArc
 50
90.0
 51
180.0
  0
LINE
  5
163
330
17
100
AcDbEntity
  8
A-DOOR
100
AcDbLine
 10
-1.5998
 20
-16.803
 30
0.0
 11
-1.44338706986444
 21
-15.916660062565171
 31
0.0
  0
ARC
  5
164
330
17
100
AcDbEntity
  8
A-DOOR
100
AcDbCircle
 10
-1.5998
 20
-16.803
 30
0.0
 40
0.9
100
AcDbArc
 50
79.99202019855854
 51
169.99202019855852
  0
LINE
  5
165
330
17
100
AcDbEntity
  8
A-DOOR
100
AcDbLine
 10
-3.6998
 20
-8.003
 30
0.0
 11
-2.399800000000003
 21
-8.003
 31
0.0
  0
ARC
  5
166
330
17
100
AcDbEntity
  8
A-DOOR
100
AcDbCircle
 10
-3.6998
 20
-8.003
 30
0.0
 40
1.3
100
AcDbArc
 50
0.0
 51
90.0
  0
LINE
  5
167
330
17
100
AcDbEntity
  8
A-DOOR
100
AcDbLine
 10
-1.1998
 20
-14.003
 30
0.0
 11
-1.1998
 21
-15.203000000000001
 31
0.0
  0
ARC
  5
168
330
17
100
AcDbEntity
  8
A-DOOR
100
AcDbCircle
 10
-1.1998
 20
-14.003
 30
0.0
 40
1.2
100
AcDbArc
 50
-90.0
 51
0.0
  0
LINE
  5
169
330
17
100
AcDbEntity
  8
A-DOOR
100
AcDbLine
 10
-17.2498
 20
-18.953
 30
0.0
 11
-17.2498
 21
-19.853
 31
0.0
  0
ARC
  5
16A
330
17
100
AcDbEntity
  8
A-DOOR
100
AcDbCircle
 10
-17.2498
 20
-18.953
 30
0.0
 40
0.9
100
AcDbArc
 50
-90.0
 51
0.0
  0
LINE
  5
16B
330
17
100
AcDbEntity
  8
A-DOOR
100
AcDbLine
 10
10.6502
 20
-17.053
 30
0.0
 11
10.895986516853931
 21
-17.70843071161049
 31
0.0
  0
ARC
  5
16C
330
17
100
AcDbEntity
  8
A-DOOR
100
AcDbCircle
 10
10.6502
 20
-17.053
 30
0.0
 40
0.7
100
AcDbArc
 50
-69.44395478041673
 51
20.556045219583268
  0
LINE
  5
16D
330
17
100
AcDbEntity
  8
A-DOOR
100
AcDbLine
 10
-17.2498
 20
0.497
 30
0.0
 11
-17.2498
 21
-0.35300000000000076
 31
0.0
  0
ARC
  5
16E
330
17
100
AcDbEntity
  8
A-DOOR
100
AcDbCircle
 10
-17.2498
 20
0.497
 30
0.0
 40
0.85
100
AcDbArc
 50
-90.0
 51
0.0
  0
LINE
  5
16F
330
17
100
AcDbEntity
  8
A-WINDOW
100
AcDbLine
 10
23.650199999999998
 20
4.947
 30
0.0
 11
24.2502
 21
4.947
 31
0.0
  0
LINE
  5
170
330
17
100
AcDbEntity
  8
A-WINDOW
100
AcDbLine
 10
23.650199999999998
 20
5.047
 30
0.0
 11
24.2502
 21
5.047
 31
0.0
  0
LINE
  5
171
330
17
100
AcDbEntity
  8
A-WINDOW
100
AcDbLine
 10
23.650199999999998
 20
4.947
 30
0.0
 11
24.2502
 21
4.947
 31
0.0
  0
LINE
  5
172
330
17
100
AcDbEntity
  8
A-WINDOW
100
AcDbLine
 10
23.650199999999998
 20
5.047
 30
0.0
 11
24.2502
 21
5.047
 31
0.0
  0
LINE
  5
173
330
17
100
AcDbEntity
  8
A-WINDOW
100
AcDbLine
 10
24.350199999999997
 20
3.297
 30
0.0
 11
25.3002
 21
3.297
 31
0.0
  0
LINE
  5
174
330
17
100
AcDbEntity
  8
A-WINDOW
100
AcDbLine
 10
24.350199999999997
 20
3.397
 30
0.0
 11
25.3002
 21
3.397
 31
0.0
  0
LINE
  5
175
330
17
100
AcDbEntity
  8
A-WINDOW
100
AcDbLine
 10
11.7002
 20
17.147000000000002
 30
0.0
 11
11.7002
 21
17.947
 31
0.0
  0
LINE
  5
176
330
17
100
AcDbEntity
  8
A-WINDOW
100
AcDbLine
 10
11.6002
 20
17.147000000000002
 30
0.0
 11
11.6002
 21
17.947
 31
0.0
  0
TEXT
  5
177
330
17
100
AcDbEntity
  8
A-TEXT
100
AcDbText
 10
-28.89983367919922
 20
-27.802978515625
 30
0.0
 40
0.4
  1
Floor 0  —  283 walls  ·  16 doors  ·  4 windows
 11
-28.89983367919922
 21
-27.802978515625
 31
0.0
100
AcDbText
  0
ENDSEC
  0
SECTION
  2
OBJECTS
  0
DICTIONARY
  5
A
330
0
100
AcDbDictionary
281
1
  3
ACAD_COLOR
350
B
  3
ACAD_GROUP
350
C
  3
ACAD_LAYOUT
350
D
  3
ACAD_MATERIAL
350
E
  3
ACAD_MLEADERSTYLE
350
F
  3
ACAD_MLINESTYLE
350
10
  3
ACAD_PLOTSETTINGS
350
11
  3
ACAD_PLOTSTYLENAME
350
12
  3
ACAD_SCALELIST
350
14
  3
ACAD_TABLESTYLE
350
15
  3
ACAD_VISUALSTYLE
350
16
  3
EZDXF_META
350
2D
  0
DICTIONARY
  5
B
330
A
100
AcDbDictionary
281
1
  0
DICTIONARY
  5
C
330
A
100
AcDbDictionary
281
1
  0
DICTIONARY
  5
D
330
A
100
AcDbDictionary
281
1
  3
Model
350
1A
  3
Layout1
350
1E
  0
DICTIONARY
  5
E
330
A
100
AcDbDictionary
281
1
  3
ByBlock
350
1F
  3
ByLayer
350
20
  3
Global
350
21
  0
DICTIONARY
  5
F
330
A
100
AcDbDictionary
281
1
  3
Standard
350
2C
  0
DICTIONARY
  5
10
330
A
100
AcDbDictionary
281
1
  3
Standard
350
22
  0
DICTIONARY
  5
11
330
A
100
AcDbDictionary
281
1
  0
ACDBDICTIONARYWDFLT
  5
12
330
A
100
AcDbDictionary
281
1
  3
Normal
350
13
100
AcDbDictionaryWithDefault
340
13
  0
ACDBPLACEHOLDER
  5
13
330
12
  0
DICTIONARY
  5
14
330
A
100
AcDbDictionary
281
1
  0
DICTIONARY
  5
15
330
A
100
AcDbDictionary
281
1
  0
DICTIONARY
  5
16
330
A
100
AcDbDictionary
281
1
  0
LAYOUT
  5
1A
330
D
100
AcDbPlotSettings
  1

  4
A3
  6

 40
7.5
 41
20.0
 42
7.5
 43
20.0
 44
420.0
 45
297.0
 46
0.0
 47
0.0
 48
0.0
 49
0.0
140
0.0
141
0.0
142
1.0
143
1.0
 70
1024
 72
1
 73
0
 74
5
  7

 75
16
 76
0
 77
2
 78
300
147
1.0
148
0.0
149
0.0
100
AcDbLayout
  1
Model
 70
1
 71
0
 10
0.0
 20
0.0
 11
420.0
 21
297.0
 12
0.0
 22
0.0
 32
0.0
 14
1e+20
 24
1e+20
 34
1e+20
 15
-1e+20
 25
-1e+20
 35
-1e+20
146
0.0
 13
0.0
 23
0.0
 33
0.0
 16
1.0
 26
0.0
 36
0.0
 17
0.0
 27
1.0
 37
0.0
 76
1
330
17
  0
LAYOUT
  5
1E
330
D
100
AcDbPlotSettings
  1

  4
A3
  6

 40
7.5
 41
20.0
 42
7.5
 43
20.0
 44
420.0
 45
297.0
 46
0.0
 47
0.0
 48
0.0
 49
0.0
140
0.0
141
0.0
142
1.0
143
1.0
 70
0
 72
1
 73
0
 74
5
  7

 75
16
 76
0
 77
2
 78
300
147
1.0
148
0.0
149
0.0
100
AcDbLayout
  1
Layout1
 70
1
 71
1
 10
0.0
 20
0.0
 11
420.0
 21
297.0
 12
0.0
 22
0.0
 32
0.0
 14
1e+20
 24
1e+20
 34
1e+20
 15
-1e+20
 25
-1e+20
 35
-1e+20
146
0.0
 13
0.0
 23
0.0
 33
0.0
 16
1.0
 26
0.0
 36
0.0
 17
0.0
 27
1.0
 37
0.0
 76
1
330
1B
  0
MATERIAL
  5
1F
102
{ACAD_REACTORS
330
E
102
}
330
E
100
AcDbMaterial
  1
ByBlock
  2

 70
0
 40
1.0
 71
1
 41
1.0
 91
-1023410177
 42
1.0
 72
1
  3

 73
1
 74
1
 75
1
 44
0.5
 73
0
 45
1.0
 46
1.0
 77
1
  4

 78
1
 79
1
170
1
 48
1.0
171
1
  6

172
1
173
1
174
1
140
1.0
141
1.0
175
1
  7

176
1
177
1
178
1
143
1.0
179
1
  8

270
1
271
1
272
1
145
1.0
146
1.0
273
1
  9

274
1
275
1
276
1
 42
1.0
 72
1
  3

 73
1
 74
1
 75
1
 94
63
  0
MATERIAL
  5
20
102
{ACAD_REACTORS
330
E
102
}
330
E
100
AcDbMaterial
  1
ByLayer
  2

 70
0
 40
1.0
 71
1
 41
1.0
 91
-1023410177
 42
1.0
 72
1
  3

 73
1
 74
1
 75
1
 44
0.5
 73
0
 45
1.0
 46
1.0
 77
1
  4

 78
1
 79
1
170
1
 48
1.0
171
1
  6

172
1
173
1
174
1
140
1.0
141
1.0
175
1
  7

176
1
177
1
178
1
143
1.0
179
1
  8

270
1
271
1
272
1
145
1.0
146
1.0
273
1
  9

274
1
275
1
276
1
 42
1.0
 72
1
  3

 73
1
 74
1
 75
1
 94
63
  0
MATERIAL
  5
21
102
{ACAD_REACTORS
330
E
102
}
330
E
100
AcDbMaterial
  1
Global
  2

 70
0
 40
1.0
 71
1
 41
1.0
 91
-1023410177
 42
1.0
 72
1
  3

 73
1
 74
1
 75
1
 44
0.5
 73
0
 45
1.0
 46
1.0
 77
1
  4

 78
1
 79
1
170
1
 48
1.0
171
1
  6

172
1
173
1
174
1
140
1.0
141
1.0
175
1
  7

176
1
177
1
178
1
143
1.0
179
1
  8

270
1
271
1
272
1
145
1.0
146
1.0
273
1
  9

274
1
275
1
276
1
 42
1.0
 72
1
  3

 73
1
 74
1
 75
1
 94
63
  0
MLINESTYLE
  5
22
102
{ACAD_REACTORS
330
10
102
}
330
10
100
AcDbMlineStyle
  2
Standard
 70
0
  3

 62
256
 51
90.0
 52
90.0
 71
2
 49
0.5
 62
256
  6
BYLAYER
 49
-0.5
 62
256
  6
BYLAYER
  0
MLEADERSTYLE
  5
2C
102
{ACAD_REACTORS
330
F
102
}
330
F
100
AcDbMLeaderStyle
179
2
170
2
171
1
172
0
 90
2
 40
0.0
 41
0.0
173
1
 91
-1056964608
 92
-2
290
1
 42
2.0
291
1
 43
8.0
  3
Standard
 44
4.0
300

342
29
174
1
175
1
176
0
178
1
 93
-1056964608
 45
4.0
292
0
297
0
 46
4.0
 94
-1056964608
 47
1.0
 49
1.0
140
1.0
294
1
141
0.0
177
0
142
1.0
295
0
296
0
143
3.75
271
0
272
9
273
9
  0
DICTIONARY
  5
2D
330
A
100
AcDbDictionary
280
1
281
1
  3
CREATED_BY_EZDXF
350
2E
  3
WRITTEN_BY_EZDXF
350
17A
  0
DICTIONARYVAR
  5
2E
330
2D
100
DictionaryVariables
280
0
  1
1.4.3 @ 2026-03-31T12:40:09.542809+00:00
  0
DICTIONARYVAR
  5
17A
330
2D
100
DictionaryVariables
280
0
  1
1.4.3 @ 2026-03-31T12:40:09.547607+00:00
  0
ENDSEC
  0
EOF
