  0
SECTION
  2
HEADER
  9
$ACADVER
  1
AC1024
  9
$ACADMAINTVER
 70
6
  9
$DWGCODEPAGE
  3
ANSI_1252
  9
$LASTSAVEDBY
  1
ezdxf
  9
$INSBASE
 10
0.0
 20
0.0
 30
0.0
  9
$EXTMIN
 10
1e+20
 20
1e+20
 30
1e+20
  9
$EXTMAX
 10
-1e+20
 20
-1e+20
 30
-1e+20
  9
$LIMMIN
 10
0.0
 20
0.0
  9
$LIMMAX
 10
420.0
 20
297.0
  9
$ORTHOMODE
 70
0
  9
$REGENMODE
 70
1
  9
$FILLMODE
 70
1
  9
$QTEXTMODE
 70
0
  9
$MIRRTEXT
 70
1
  9
$LTSCALE
 40
1.0
  9
$ATTMODE
 70
1
  9
$TEXTSIZE
 40
2.5
  9
$TRACEWID
 40
1.0
  9
$TEXTSTYLE
  7
Standard
  9
$CLAYER
  8
0
  9
$CELTYPE
  6
ByLayer
  9
$CECOLOR
 62
256
  9
$CELTSCALE
 40
1.0
  9
$DISPSILH
 70
0
  9
$DIMSCALE
 40
1.0
  9
$DIMASZ
 40
2.5
  9
$DIMEXO
 40
0.625
  9
$DIMDLI
 40
3.75
  9
$DIMRND
 40
0.0
  9
$DIMDLE
 40
0.0
  9
$DIMEXE
 40
1.25
  9
$DIMTP
 40
0.0
  9
$DIMTM
 40
0.0
  9
$DIMTXT
 40
2.5
  9
$DIMCEN
 40
2.5
  9
$DIMTSZ
 40
0.0
  9
$DIMTOL
 70
0
  9
$DIMLIM
 70
0
  9
$DIMTIH
 70
0
  9
$DIMTOH
 70
0
  9
$DIMSE1
 70
0
  9
$DIMSE2
 70
0
  9
$DIMTAD
 70
1
  9
$DIMZIN
 70
8
  9
$DIMBLK
  1

  9
$DIMASO
 70
1
  9
$DIMSHO
 70
1
  9
$DIMPOST
  1

  9
$DIMAPOST
  1

  9
$DIMALT
 70
0
  9
$DIMALTD
 70
3
  9
$DIMALTF
 40
0.03937007874
  9
$DIMLFAC
 40
1.0
  9
$DIMTOFL
 70
1
  9
$DIMTVP
 40
0.0
  9
$DIMTIX
 70
0
  9
$DIMSOXD
 70
0
  9
$DIMSAH
 70
0
  9
$DIMBLK1
  1

  9
$DIMBLK2
  1

  9
$DIMSTYLE
  2
ISO-25
  9
$DIMCLRD
 70
0
  9
$DIMCLRE
 70
0
  9
$DIMCLRT
 70
0
  9
$DIMTFAC
 40
1.0
  9
$DIMGAP
 40
0.625
  9
$DIMJUST
 70
0
  9
$DIMSD1
 70
0
  9
$DIMSD2
 70
0
  9
$DIMTOLJ
 70
0
  9
$DIMTZIN
 70
8
  9
$DIMALTZ
 70
0
  9
$DIMALTTZ
 70
0
  9
$DIMUPT
 70
0
  9
$DIMDEC
 70
2
  9
$DIMTDEC
 70
2
  9
$DIMALTU
 70
2
  9
$DIMALTTD
 70
3
  9
$DIMTXSTY
  7
Standard
  9
$DIMAUNIT
 70
0
  9
$DIMADEC
 70
0
  9
$DIMALTRND
 40
0.0
  9
$DIMAZIN
 70
0
  9
$DIMDSEP
 70
44
  9
$DIMATFIT
 70
3
  9
$DIMFRAC
 70
0
  9
$DIMLDRBLK
  1

  9
$DIMLUNIT
 70
2
  9
$DIMLWD
 70
-2
  9
$DIMLWE
 70
-2
  9
$DIMTMOVE
 70
0
  9
$DIMFXL
 40
1.0
  9
$DIMFXLON
 70
0
  9
$DIMJOGANG
 40
0.785398163397
  9
$DIMTFILL
 70
0
  9
$DIMTFILLCLR
 70
0
  9
$DIMARCSYM
 70
0
  9
$DIMLTYPE
  6

  9
$DIMLTEX1
  6

  9
$DIMLTEX2
  6

  9
$DIMTXTDIRECTION
 70
0
  9
$LUNITS
 70
2
  9
$LUPREC
 70
4
  9
$SKETCHINC
 40
1.0
  9
$FILLETRAD
 40
10.0
  9
$AUNITS
 70
0
  9
$AUPREC
 70
2
  9
$MENU
  1
.
  9
$ELEVATION
 40
0.0
  9
$PELEVATION
 40
0.0
  9
$THICKNESS
 40
0.0
  9
$LIMCHECK
 70
0
  9
$CHAMFERA
 40
0.0
  9
$CHAMFERB
 40
0.0
  9
$CHAMFERC
 40
0.0
  9
$CHAMFERD
 40
0.0
  9
$SKPOLY
 70
0
  9
$TDCREATE
 40
2461144.5065277778
  9
$TDUCREATE
 40
2458532.153996898
  9
$TDUPDATE
 40
2461144.5065277778
  9
$TDUUPDATE
 40
2458532.1544311
  9
$TDINDWG
 40
0.0
  9
$TDUSRTIMER
 40
0.0
  9
$USRTIMER
 70
1
  9
$ANGBASE
 50
0.0
  9
$ANGDIR
 70
0
  9
$PDMODE
 70
0
  9
$PDSIZE
 40
0.0
  9
$PLINEWID
 40
0.0
  9
$SPLFRAME
 70
0
  9
$SPLINETYPE
 70
6
  9
$SPLINESEGS
 70
8
  9
$HANDSEED
  5
1D6
  9
$SURFTAB1
 70
6
  9
$SURFTAB2
 70
6
  9
$SURFTYPE
 70
6
  9
$SURFU
 70
6
  9
$SURFV
 70
6
  9
$UCSBASE
  2

  9
$UCSNAME
  2

  9
$UCSORG
 10
0.0
 20
0.0
 30
0.0
  9
$UCSXDIR
 10
1.0
 20
0.0
 30
0.0
  9
$UCSYDIR
 10
0.0
 20
1.0
 30
0.0
  9
$UCSORTHOREF
  2

  9
$UCSORTHOVIEW
 70
0
  9
$UCSORGTOP
 10
0.0
 20
0.0
 30
0.0
  9
$UCSORGBOTTOM
 10
0.0
 20
0.0
 30
0.0
  9
$UCSORGLEFT
 10
0.0
 20
0.0
 30
0.0
  9
$UCSORGRIGHT
 10
0.0
 20
0.0
 30
0.0
  9
$UCSORGFRONT
 10
0.0
 20
0.0
 30
0.0
  9
$UCSORGBACK
 10
0.0
 20
0.0
 30
0.0
  9
$PUCSBASE
  2

  9
$PUCSNAME
  2

  9
$PUCSORG
 10
0.0
 20
0.0
 30
0.0
  9
$PUCSXDIR
 10
1.0
 20
0.0
 30
0.0
  9
$PUCSYDIR
 10
0.0
 20
1.0
 30
0.0
  9
$PUCSORTHOREF
  2

  9
$PUCSORTHOVIEW
 70
0
  9
$PUCSORGTOP
 10
0.0
 20
0.0
 30
0.0
  9
$PUCSORGBOTTOM
 10
0.0
 20
0.0
 30
0.0
  9
$PUCSORGLEFT
 10
0.0
 20
0.0
 30
0.0
  9
$PUCSORGRIGHT
 10
0.0
 20
0.0
 30
0.0
  9
$PUCSORGFRONT
 10
0.0
 20
0.0
 30
0.0
  9
$PUCSORGBACK
 10
0.0
 20
0.0
 30
0.0
  9
$USERI1
 70
0
  9
$USERI2
 70
0
  9
$USERI3
 70
0
  9
$USERI4
 70
0
  9
$USERI5
 70
0
  9
$USERR1
 40
0.0
  9
$USERR2
 40
0.0
  9
$USERR3
 40
0.0
  9
$USERR4
 40
0.0
  9
$USERR5
 40
0.0
  9
$WORLDVIEW
 70
1
  9
$SHADEDGE
 70
3
  9
$SHADEDIF
 70
70
  9
$TILEMODE
 70
1
  9
$MAXACTVP
 70
64
  9
$PINSBASE
 10
0.0
 20
0.0
 30
0.0
  9
$PLIMCHECK
 70
0
  9
$PEXTMIN
 10
1e+20
 20
1e+20
 30
1e+20
  9
$PEXTMAX
 10
-1e+20
 20
-1e+20
 30
-1e+20
  9
$PLIMMIN
 10
0.0
 20
0.0
  9
$PLIMMAX
 10
420.0
 20
297.0
  9
$UNITMODE
 70
0
  9
$VISRETAIN
 70
1
  9
$PLINEGEN
 70
0
  9
$PSLTSCALE
 70
1
  9
$TREEDEPTH
 70
3020
  9
$CMLSTYLE
  2
Standard
  9
$CMLJUST
 70
0
  9
$CMLSCALE
 40
20.0
  9
$PROXYGRAPHICS
 70
1
  9
$MEASUREMENT
 70
1
  9
$CELWEIGHT
370
-1
  9
$ENDCAPS
280
0
  9
$JOINSTYLE
280
0
  9
$LWDISPLAY
290
0
  9
$INSUNITS
 70
6
  9
$HYPERLINKBASE
  1

  9
$STYLESHEET
  1

  9
$XEDIT
290
1
  9
$CEPSNTYPE
380
0
  9
$PSTYLEMODE
290
1
  9
$FINGERPRINTGUID
  2
{05A0A9CC-C548-48B0-BA5F-98047993F39F}
  9
$VERSIONGUID
  2
{5DDCDCF1-FFC2-49EB-93D9-DDC5BF1328D2}
  9
$EXTNAMES
290
1
  9
$PSVPSCALE
 40
0.0
  9
$OLESTARTUP
290
0
  9
$SORTENTS
280
127
  9
$INDEXCTL
280
0
  9
$HIDETEXT
280
1
  9
$XCLIPFRAME
280
1
  9
$HALOGAP
280
0
  9
$OBSCOLOR
 70
257
  9
$OBSLTYPE
280
0
  9
$INTERSECTIONDISPLAY
280
0
  9
$INTERSECTIONCOLOR
 70
257
  9
$DIMASSOC
280
2
  9
$PROJECTNAME
  1

  9
$CAMERADISPLAY
290
0
  9
$LENSLENGTH
 40
50.0
  9
$CAMERAHEIGHT
 40
0.0
  9
$STEPSPERSEC
 40
24.0
  9
$STEPSIZE
 40
100.0
  9
$3DDWFPREC
 40
2.0
  9
$PSOLWIDTH
 40
0.005
  9
$PSOLHEIGHT
 40
0.08
  9
$LOFTANG1
 40
1.570796326795
  9
$LOFTANG2
 40
1.570796326795
  9
$LOFTMAG1
 40
0.0
  9
$LOFTMAG2
 40
0.0
  9
$LOFTPARAM
 70
7
  9
$LOFTNORMALS
280
1
  9
$LATITUDE
 40
37.795
  9
$LONGITUDE
 40
-122.394
  9
$NORTHDIRECTION
 40
0.0
  9
$TIMEZONE
 70
-8000
  9
$LIGHTGLYPHDISPLAY
280
1
  9
$TILEMODELIGHTSYNCH
280
1
  9
$CMATERIAL
347
20
  9
$SOLIDHIST
280
0
  9
$SHOWHIST
280
1
  9
$DWFFRAME
280
2
  9
$DGNFRAME
280
2
  9
$REALWORLDSCALE
290
1
  9
$INTERFERECOLOR
 62
256
  9
$CSHADOW
280
0
  9
$SHADOWPLANELOCATION
 40
0.0
  0
ENDSEC
  0
SECTION
  2
CLASSES
  0
CLASS
  1
ACDBDICTIONARYWDFLT
  2
AcDbDictionaryWithDefault
  3
ObjectDBX Classes
 90
0
 91
0
280
0
281
0
  0
CLASS
  1
SUN
  2
AcDbSun
  3
SCENEOE
 90
1153
 91
0
280
0
281
0
  0
CLASS
  1
VISUALSTYLE
  2
AcDbVisualStyle
  3
ObjectDBX Classes
 90
4095
 91
0
280
0
281
0
  0
CLASS
  1
MATERIAL
  2
AcDbMaterial
  3
ObjectDBX Classes
 90
1153
 91
0
280
0
281
0
  0
CLASS
  1
SCALE
  2
AcDbScale
  3
ObjectDBX Classes
 90
1153
 91
0
280
0
281
0
  0
CLASS
  1
TABLESTYLE
  2
AcDbTableStyle
  3
ObjectDBX Classes
 90
4095
 91
0
280
0
281
0
  0
CLASS
  1
MLEADERSTYLE
  2
AcDbMLeaderStyle
  3
ACDB_MLEADERSTYLE_CLASS
 90
4095
 91
0
280
0
281
0
  0
CLASS
  1
DICTIONARYVAR
  2
AcDbDictionaryVar
  3
ObjectDBX Classes
 90
0
 91
0
280
0
281
0
  0
CLASS
  1
CELLSTYLEMAP
  2
AcDbCellStyleMap
  3
ObjectDBX Classes
 90
1152
 91
0
280
0
281
0
  0
CLASS
  1
MENTALRAYRENDERSETTINGS
  2
AcDbMentalRayRenderSettings
  3
SCENEOE
 90
1024
 91
0
280
0
281
0
  0
CLASS
  1
ACDBDETAILVIEWSTYLE
  2
AcDbDetailViewStyle
  3
ObjectDBX Classes
 90
1025
 91
0
280
0
281
0
  0
CLASS
  1
ACDBSECTIONVIEWSTYLE
  2
AcDbSectionViewStyle
  3
ObjectDBX Classes
 90
1025
 91
0
280
0
281
0
  0
CLASS
  1
RASTERVARIABLES
  2
AcDbRasterVariables
  3
ISM
 90
0
 91
0
280
0
281
0
  0
CLASS
  1
LAYOUT
  2
AcDbLayout
  3
ObjectDBX Classes
 90
0
 91
0
280
0
281
0
  0
CLASS
  1
ACDBPLACEHOLDER
  2
AcDbPlaceHolder
  3
ObjectDBX Classes
 90
0
 91
0
280
0
281
0
  0
ENDSEC
  0
SECTION
  2
TABLES
  0
TABLE
  2
VPORT
  5
8
330
0
100
AcDbSymbolTable
 70
1
  0
VPORT
  5
23
330
8
100
AcDbSymbolTableRecord
100
AcDbViewportTableRecord
  2
*Active
 70
0
 10
0.0
 20
0.0
 11
1.0
 21
1.0
 12
0.0
 22
0.0
 13
0.0
 23
0.0
 14
0.5
 24
0.5
 15
0.5
 25
0.5
 16
0.0
 26
0.0
 36
1.0
 17
0.0
 27
0.0
 37
0.0
 40
1000.0
 41
1.34
 42
50.0
 43
0.0
 44
0.0
 50
0.0
 51
0.0
 71
0
 72
1000
 73
1
 74
3
 75
0
 76
0
 77
0
 78
0
281
0
 65
0
146
0.0
  0
ENDTAB
  0
TABLE
  2
LTYPE
  5
2
330
0
100
AcDbSymbolTable
 70
3
  0
LTYPE
  5
24
330
2
100
AcDbSymbolTableRecord
100
AcDbLinetypeTableRecord
  2
ByBlock
 70
0
  3

 72
65
 73
0
 40
0.0
  0
LTYPE
  5
25
330
2
100
AcDbSymbolTableRecord
100
AcDbLinetypeTableRecord
  2
ByLayer
 70
0
  3

 72
65
 73
0
 40
0.0
  0
LTYPE
  5
26
330
2
100
AcDbSymbolTableRecord
100
AcDbLinetypeTableRecord
  2
Continuous
 70
0
  3

 72
65
 73
0
 40
0.0
  0
ENDTAB
  0
TABLE
  2
LAYER
  5
1
330
0
100
AcDbSymbolTable
 70
8
  0
LAYER
  5
27
330
1
100
AcDbSymbolTableRecord
100
AcDbLayerTableRecord
  2
0
 70
0
 62
7
  6
Continuous
370
-3
390
13
347
21
  0
LAYER
  5
28
330
1
100
AcDbSymbolTableRecord
100
AcDbLayerTableRecord
  2
Defpoints
 70
0
 62
7
  6
Continuous
290
0
370
-3
390
13
347
21
  0
LAYER
  5
2F
330
1
100
AcDbSymbolTableRecord
100
AcDbLayerTableRecord
  2
A-WALL
 70
0
 62
7
  6
Continuous
370
50
390
13
347
21
  0
LAYER
  5
30
330
1
100
AcDbSymbolTableRecord
100
AcDbLayerTableRecord
  2
A-DOOR
 70
0
 62
3
  6
Continuous
370
35
390
13
347
21
  0
LAYER
  5
31
330
1
100
AcDbSymbolTableRecord
100
AcDbLayerTableRecord
  2
A-WINDOW
 70
0
 62
4
  6
Continuous
370
25
390
13
347
21
  0
LAYER
  5
32
330
1
100
AcDbSymbolTableRecord
100
AcDbLayerTableRecord
  2
A-TEXT
 70
0
 62
2
  6
Continuous
370
-3
390
13
347
21
  0
LAYER
  5
33
330
1
100
AcDbSymbolTableRecord
100
AcDbLayerTableRecord
  2
A-GRID
 70
0
 62
8
  6
Continuous
370
13
390
13
347
21
  0
LAYER
  5
34
330
1
100
AcDbSymbolTableRecord
100
AcDbLayerTableRecord
  2
A-ROOM
 70
0
 62
6
  6
Continuous
370
13
390
13
347
21
  0
ENDTAB
  0
TABLE
  2
STYLE
  5
5
330
0
100
AcDbSymbolTable
 70
1
  0
STYLE
  5
29
330
5
100
AcDbSymbolTableRecord
100
AcDbTextStyleTableRecord
  2
Standard
 70
0
 40
0.0
 41
1.0
 50
0.0
 71
0
 42
2.5
  3
txt
  4

  0
ENDTAB
  0
TABLE
  2
VIEW
  5
7
330
0
100
AcDbSymbolTable
 70
0
  0
ENDTAB
  0
TABLE
  2
UCS
  5
6
330
0
100
AcDbSymbolTable
 70
0
  0
ENDTAB
  0
TABLE
  2
APPID
  5
3
330
0
100
AcDbSymbolTable
 70
3
  0
APPID
  5
2A
330
3
100
AcDbSymbolTableRecord
100
AcDbRegAppTableRecord
  2
ACAD
 70
0
  0
APPID
  5
1D3
330
3
100
AcDbSymbolTableRecord
100
AcDbRegAppTableRecord
  2
HATCHBACKGROUNDCOLOR
 70
0
  0
APPID
  5
1D4
330
3
100
AcDbSymbolTableRecord
100
AcDbRegAppTableRecord
  2
EZDXF
 70
0
  0
ENDTAB
  0
TABLE
  2
DIMSTYLE
  5
4
330
0
100
AcDbSymbolTable
 70
1
100
AcDbDimStyleTable
  0
DIMSTYLE
105
2B
330
4
100
AcDbSymbolTableRecord
100
AcDbDimStyleTableRecord
  2
Standard
 70
0
 40
1.0
 41
2.5
 42
0.625
 43
3.75
 44
1.25
 45
0.0
 46
0.0
 47
0.0
 48
0.0
 49
2.5
140
2.5
141
2.5
142
0.0
143
0.03937007874
144
1.0
145
0.0
146
1.0
147
0.625
148
0.0
 69
0
 70
0
 71
0
 72
0
 73
0
 74
0
 75
0
 76
0
 77
1
 78
8
 79
3
170
0
171
3
172
1
173
0
174
0
175
0
176
0
177
0
178
0
179
2
271
2
272
2
273
2
274
3
275
0
276
0
277
2
278
44
279
0
280
0
281
0
282
0
283
0
284
8
285
0
286
0
288
0
289
3
290
0
371
-2
372
-2
  0
ENDTAB
  0
TABLE
  2
BLOCK_RECORD
  5
9
330
0
100
AcDbSymbolTable
 70
2
  0
BLOCK_RECORD
  5
17
330
9
100
AcDbSymbolTableRecord
100
AcDbBlockTableRecord
  2
*Model_Space
340
1A
 70
0
280
1
281
0
  0
BLOCK_RECORD
  5
1B
330
9
100
AcDbSymbolTableRecord
100
AcDbBlockTableRecord
  2
*Paper_Space
340
1E
 70
0
280
1
281
0
  0
ENDTAB
  0
ENDSEC
  0
SECTION
  2
BLOCKS
  0
BLOCK
  5
18
330
17
100
AcDbEntity
  8
0
100
AcDbBlockBegin
  2
*Model_Space
 70
0
 10
0.0
 20
0.0
 30
0.0
  3
*Model_Space
  1

  0
ENDBLK
  5
19
330
17
100
AcDbEntity
  8
0
100
AcDbBlockEnd
  0
BLOCK
  5
1C
330
1B
100
AcDbEntity
  8
0
100
AcDbBlockBegin
  2
*Paper_Space
 70
0
 10
0.0
 20
0.0
 30
0.0
  3
*Paper_Space
  1

  0
ENDBLK
  5
1D
330
1B
100
AcDbEntity
  8
0
100
AcDbBlockEnd
  0
ENDSEC
  0
SECTION
  2
ENTITIES
  0
LINE
  5
35
330
17
100
AcDbEntity
  8
A-WALL
100
AcDbLine
 10
1.2449996185302723
 20
13.98499923706055
 30
0.0
 11
1.2449996185302723
 21
16.02499923706055
 31
0.0
  0
LINE
  5
36
330
17
100
AcDbEntity
  8
A-WALL
100
AcDbLine
 10
5.724999618530273
 20
13.524999237060548
 30
0.0
 11
5.724999618530273
 21
16.464999237060546
 31
0.0
  0
LINE
  5
37
330
17
100
AcDbEntity
  8
A-WALL
100
AcDbLine
 10
5.444999618530275
 20
16.184999237060545
 30
0.0
 11
5.444999618530275
 21
15.524999237060548
 31
0.0
  0
LINE
  5
38
330
17
100
AcDbEntity
  8
A-WALL
100
AcDbLine
 10
3.8049996185302746
 20
10.564999237060547
 30
0.0
 11
3.8049996185302746
 21
12.744999237060547
 31
0.0
  0
LINE
  5
39
330
17
100
AcDbEntity
  8
A-WALL
100
AcDbLine
 10
2.284999618530275
 20
10.80499923706055
 30
0.0
 11
2.284999618530275
 21
12.824999237060545
 31
0.0
  0
LINE
  5
3A
330
17
100
AcDbEntity
  8
A-WALL
100
AcDbLine
 10
5.284999618530275
 20
8.724999237060548
 30
0.0
 11
5.284999618530275
 21
8.064999237060547
 31
0.0
  0
LINE
  5
3B
330
17
100
AcDbEntity
  8
A-WALL
100
AcDbLine
 10
-22.995000381469726
 20
3.624999237060546
 30
0.0
 11
-22.995000381469726
 21
7.144999237060546
 31
0.0
  0
LINE
  5
3C
330
17
100
AcDbEntity
  8
A-WALL
100
AcDbLine
 10
-23.015000381469726
 20
6.024999237060548
 30
0.0
 11
-23.015000381469726
 21
4.764999237060547
 31
0.0
  0
LINE
  5
3D
330
17
100
AcDbEntity
  8
A-WALL
100
AcDbLine
 10
-23.075000381469728
 20
7.964999237060546
 30
0.0
 11
-23.075000381469728
 21
7.464999237060546
 31
0.0
  0
LINE
  5
3E
330
17
100
AcDbEntity
  8
A-WALL
100
AcDbLine
 10
-22.995000381469726
 20
10.824999237060545
 30
0.0
 11
-22.995000381469726
 21
7.964999237060546
 31
0.0
  0
LINE
  5
3F
330
17
100
AcDbEntity
  8
A-WALL
100
AcDbLine
 10
-23.095000381469728
 20
10.284999237060546
 30
0.0
 11
-23.095000381469728
 21
11.424999237060547
 31
0.0
  0
LINE
  5
40
330
17
100
AcDbEntity
  8
A-WALL
100
AcDbLine
 10
-23.235000381469728
 20
2.1449992370605457
 30
0.0
 11
-23.235000381469728
 21
1.6049992370605466
 31
0.0
  0
LINE
  5
41
330
17
100
AcDbEntity
  8
A-WALL
100
AcDbLine
 10
-16.955000381469727
 20
8.244999237060547
 30
0.0
 11
-16.955000381469727
 21
4.4449992370605464
 31
0.0
  0
LINE
  5
42
330
17
100
AcDbEntity
  8
A-WALL
100
AcDbLine
 10
-16.795000381469727
 20
9.94499923706055
 30
0.0
 11
-16.795000381469727
 21
8.764999237060547
 31
0.0
  0
LINE
  5
43
330
17
100
AcDbEntity
  8
A-WALL
100
AcDbLine
 10
-17.035000381469725
 20
8.504999237060549
 30
0.0
 11
-17.535000381469725
 21
8.504999237060549
 31
0.0
  0
LINE
  5
44
330
17
100
AcDbEntity
  8
A-WALL
100
AcDbLine
 10
-22.195000381469725
 20
8.504999237060549
 30
0.0
 11
-21.555000381469725
 21
8.504999237060549
 31
0.0
  0
LINE
  5
45
330
17
100
AcDbEntity
  8
A-WALL
100
AcDbLine
 10
-16.775000381469727
 20
11.12499923706055
 30
0.0
 11
-16.775000381469727
 21
13.12499923706055
 31
0.0
  0
LINE
  5
46
330
17
100
AcDbEntity
  8
A-WALL
100
AcDbLine
 10
-16.635000381469727
 20
16.08499923706055
 30
0.0
 11
-11.275000381469725
 21
16.08499923706055
 31
0.0
  0
LINE
  5
47
330
17
100
AcDbEntity
  8
A-WALL
100
AcDbLine
 10
-11.275000381469725
 20
15.744999237060547
 30
0.0
 11
-10.435000381469726
 21
15.744999237060547
 31
0.0
  0
LINE
  5
48
330
17
100
AcDbEntity
  8
A-WALL
100
AcDbLine
 10
-23.155000381469726
 20
-0.7350007629394533
 30
0.0
 11
-23.155000381469726
 21
-2.375000762939454
 31
0.0
  0
LINE
  5
49
330
17
100
AcDbEntity
  8
A-WALL
100
AcDbLine
 10
1.2449996185302723
 20
-3.3550007629394543
 30
0.0
 11
1.2449996185302723
 21
-4.795000762939452
 31
0.0
  0
LINE
  5
4A
330
17
100
AcDbEntity
  8
A-WALL
100
AcDbLine
 10
1.3249996185302741
 20
-5.835000762939451
 30
0.0
 11
1.3249996185302741
 21
-4.835000762939451
 31
0.0
  0
LINE
  5
4B
330
17
100
AcDbEntity
  8
A-WALL
100
AcDbLine
 10
-20.875000381469725
 20
-7.115000762939452
 30
0.0
 11
-22.255000381469728
 21
-7.115000762939452
 31
0.0
  0
LINE
  5
4C
330
17
100
AcDbEntity
  8
A-WALL
100
AcDbLine
 10
-22.655000381469726
 20
-7.4750007629394535
 30
0.0
 11
-22.655000381469726
 21
-8.455000762939452
 31
0.0
  0
LINE
  5
4D
330
17
100
AcDbEntity
  8
A-WALL
100
AcDbLine
 10
4.764999618530275
 20
-7.155000762939453
 30
0.0
 11
4.764999618530275
 21
-9.195000762939452
 31
0.0
  0
LINE
  5
4E
330
17
100
AcDbEntity
  8
A-WALL
100
AcDbLine
 10
-10.715000381469727
 20
-9.175000762939453
 30
0.0
 11
-10.715000381469727
 21
-7.335000762939453
 31
0.0
  0
LINE
  5
4F
330
17
100
AcDbEntity
  8
A-WALL
100
AcDbLine
 10
-11.875000381469727
 20
-7.115000762939452
 30
0.0
 11
-11.875000381469727
 21
-9.495000762939453
 31
0.0
  0
LINE
  5
50
330
17
100
AcDbEntity
  8
A-WALL
100
AcDbLine
 10
-22.015000381469726
 20
-7.295000762939452
 30
0.0
 11
-22.015000381469726
 21
-8.075000762939453
 31
0.0
  0
LINE
  5
51
330
17
100
AcDbEntity
  8
A-WALL
100
AcDbLine
 10
-22.815000381469726
 20
-9.375000762939452
 30
0.0
 11
-22.815000381469726
 21
-8.375000762939452
 31
0.0
  0
LINE
  5
52
330
17
100
AcDbEntity
  8
A-WALL
100
AcDbLine
 10
-7.115000381469727
 20
-8.595000762939453
 30
0.0
 11
-7.115000381469727
 21
-9.255000762939453
 31
0.0
  0
LINE
  5
53
330
17
100
AcDbEntity
  8
A-WALL
100
AcDbLine
 10
-8.255000381469726
 20
-7.5550007629394536
 30
0.0
 11
-8.255000381469726
 21
-9.215000762939454
 31
0.0
  0
LINE
  5
54
330
17
100
AcDbEntity
  8
A-WALL
100
AcDbLine
 10
-9.275000381469725
 20
-8.215000762939454
 30
0.0
 11
-9.275000381469725
 21
-9.295000762939452
 31
0.0
  0
LINE
  5
55
330
17
100
AcDbEntity
  8
A-WALL
100
AcDbLine
 10
-6.095000381469728
 20
-9.835000762939453
 30
0.0
 11
-6.095000381469728
 21
-10.275000762939452
 31
0.0
  0
LINE
  5
56
330
17
100
AcDbEntity
  8
A-WALL
100
AcDbLine
 10
-13.435000381469726
 20
-9.075000762939453
 30
0.0
 11
-13.435000381469726
 21
-7.035000762939452
 31
0.0
  0
LINE
  5
57
330
17
100
AcDbEntity
  8
A-WALL
100
AcDbLine
 10
-11.835000381469726
 20
-9.615000762939452
 30
0.0
 11
-11.375000381469727
 21
-9.615000762939452
 31
0.0
  0
LINE
  5
58
330
17
100
AcDbEntity
  8
A-WALL
100
AcDbLine
 10
-6.895000381469725
 20
-9.895000762939453
 30
0.0
 11
-9.635000381469727
 21
-9.895000762939453
 31
0.0
  0
LINE
  5
59
330
17
100
AcDbEntity
  8
A-WALL
100
AcDbLine
 10
-5.995000381469726
 20
-7.095000762939453
 30
0.0
 11
-13.495000381469726
 21
-7.095000762939453
 31
0.0
  0
LINE
  5
5A
330
17
100
AcDbEntity
  8
A-WALL
100
AcDbLine
 10
-6.075000381469724
 20
-1.3550007629394543
 30
0.0
 11
-6.075000381469724
 21
-7.0550007629394536
 31
0.0
  0
LINE
  5
5B
330
17
100
AcDbEntity
  8
A-WALL
100
AcDbLine
 10
2.504999618530274
 20
-10.215000762939454
 30
0.0
 11
3.3449996185302737
 21
-10.215000762939454
 31
0.0
  0
LINE
  5
5C
330
17
100
AcDbEntity
  8
A-WALL
100
AcDbLine
 10
10.104999618530272
 20
-6.255000762939453
 30
0.0
 11
0.9249996185302756
 21
-6.255000762939453
 31
0.0
  0
LINE
  5
5D
330
17
100
AcDbEntity
  8
A-WALL
100
AcDbLine
 10
1.3849996185302729
 20
-2.5950007629394527
 30
0.0
 11
0.8449996185302737
 21
-2.5950007629394527
 31
0.0
  0
LINE
  5
5E
330
17
100
AcDbEntity
  8
A-WALL
100
AcDbLine
 10
2.2449996185302723
 20
-0.795000762939452
 30
0.0
 11
1.3649996185302733
 21
-0.795000762939452
 31
0.0
  0
LINE
  5
5F
330
17
100
AcDbEntity
  8
A-WALL
100
AcDbLine
 10
1.3249996185302741
 20
-0.6550007629394514
 30
0.0
 11
0.9049996185302724
 21
-0.6550007629394514
 31
0.0
  0
LINE
  5
60
330
17
100
AcDbEntity
  8
A-WALL
100
AcDbLine
 10
3.1049996185302753
 20
-0.295000762939452
 30
0.0
 11
2.284999618530275
 21
-0.295000762939452
 31
0.0
  0
LINE
  5
61
330
17
100
AcDbEntity
  8
A-WALL
100
AcDbLine
 10
0.8049996185302746
 20
1.2249992370605476
 30
0.0
 11
2.704999618530273
 21
1.2249992370605476
 31
0.0
  0
LINE
  5
62
330
17
100
AcDbEntity
  8
A-WALL
100
AcDbLine
 10
5.404999618530272
 20
-0.15500076293945142
 30
0.0
 11
5.404999618530272
 21
0.7449992370605472
 31
0.0
  0
LINE
  5
63
330
17
100
AcDbEntity
  8
A-WALL
100
AcDbLine
 10
5.444999618530275
 20
2.584999237060547
 30
0.0
 11
5.444999618530275
 21
1.5649992370605474
 31
0.0
  0
LINE
  5
64
330
17
100
AcDbEntity
  8
A-WALL
100
AcDbLine
 10
5.304999618530275
 20
3.244999237060547
 30
0.0
 11
5.304999618530275
 21
4.844999237060549
 31
0.0
  0
LINE
  5
65
330
17
100
AcDbEntity
  8
A-WALL
100
AcDbLine
 10
5.444999618530275
 20
5.064999237060547
 30
0.0
 11
5.444999618530275
 21
6.884999237060548
 31
0.0
  0
LINE
  5
66
330
17
100
AcDbEntity
  8
A-WALL
100
AcDbLine
 10
5.264999618530275
 20
9.98499923706055
 30
0.0
 11
5.264999618530275
 21
9.524999237060548
 31
0.0
  0
LINE
  5
67
330
17
100
AcDbEntity
  8
A-WALL
100
AcDbLine
 10
2.6849996185302736
 20
10.284999237060546
 30
0.0
 11
4.204999618530273
 21
10.284999237060546
 31
0.0
  0
LINE
  5
68
330
17
100
AcDbEntity
  8
A-WALL
100
AcDbLine
 10
2.5249996185302734
 20
10.284999237060546
 30
0.0
 11
0.9649996185302747
 21
10.284999237060546
 31
0.0
  0
LINE
  5
69
330
17
100
AcDbEntity
  8
A-WALL
100
AcDbLine
 10
2.164999618530274
 20
11.164999237060549
 30
0.0
 11
2.164999618530274
 21
10.564999237060547
 31
0.0
  0
LINE
  5
6A
330
17
100
AcDbEntity
  8
A-WALL
100
AcDbLine
 10
1.0649996185302726
 20
13.164999237060549
 30
0.0
 11
10.204999618530273
 21
13.164999237060549
 31
0.0
  0
LINE
  5
6B
330
17
100
AcDbEntity
  8
A-WALL
100
AcDbLine
 10
0.7449996185302723
 20
16.464999237060546
 30
0.0
 11
4.744999618530272
 21
16.464999237060546
 31
0.0
  0
LINE
  5
6C
330
17
100
AcDbEntity
  8
A-WALL
100
AcDbLine
 10
4.784999618530275
 20
15.62499923706055
 30
0.0
 11
4.784999618530275
 21
13.784999237060546
 31
0.0
  0
LINE
  5
6D
330
17
100
AcDbEntity
  8
A-WALL
100
AcDbLine
 10
4.504999618530274
 20
14.824999237060545
 30
0.0
 11
4.504999618530274
 21
13.864999237060545
 31
0.0
  0
LINE
  5
6E
330
17
100
AcDbEntity
  8
A-WALL
100
AcDbLine
 10
10.344999618530274
 20
-9.615000762939452
 30
0.0
 11
5.804999618530275
 21
-9.615000762939452
 31
0.0
  0
LINE
  5
6F
330
17
100
AcDbEntity
  8
A-WALL
100
AcDbLine
 10
3.7649996185302754
 20
-6.735000762939453
 30
0.0
 11
4.904999618530272
 21
-6.735000762939453
 31
0.0
  0
LINE
  5
70
330
17
100
AcDbEntity
  8
A-WALL
100
AcDbLine
 10
4.264999618530275
 20
-9.235000762939453
 30
0.0
 11
4.264999618530275
 21
-6.755000762939453
 31
0.0
  0
LINE
  5
71
330
17
100
AcDbEntity
  8
A-WALL
100
AcDbLine
 10
3.8049996185302746
 20
-6.755000762939453
 30
0.0
 11
3.8049996185302746
 21
-9.115000762939452
 31
0.0
  0
LINE
  5
72
330
17
100
AcDbEntity
  8
A-WALL
100
AcDbLine
 10
4.644999618530274
 20
-8.175000762939453
 30
0.0
 11
4.644999618530274
 21
-9.235000762939453
 31
0.0
  0
LINE
  5
73
330
17
100
AcDbEntity
  8
A-WALL
100
AcDbLine
 10
0.9449996185302751
 20
-9.535000762939452
 30
0.0
 11
7.564999618530273
 21
-9.535000762939452
 31
0.0
  0
LINE
  5
74
330
17
100
AcDbEntity
  8
A-WALL
100
AcDbLine
 10
-15.875000381469725
 20
-14.735000762939453
 30
0.0
 11
-15.875000381469725
 21
-10.835000762939453
 31
0.0
  0
LINE
  5
75
330
17
100
AcDbEntity
  8
A-WALL
100
AcDbLine
 10
-17.355000381469726
 20
-15.355000762939454
 30
0.0
 11
-17.355000381469726
 21
-12.715000762939454
 31
0.0
  0
LINE
  5
76
330
17
100
AcDbEntity
  8
A-WALL
100
AcDbLine
 10
-9.155000381469726
 20
-21.635000762939452
 30
0.0
 11
-9.155000381469726
 21
-22.295000762939452
 31
0.0
  0
LINE
  5
77
330
17
100
AcDbEntity
  8
A-WALL
100
AcDbLine
 10
-16.035000381469725
 20
-21.855000762939454
 30
0.0
 11
-16.035000381469725
 21
-21.135000762939452
 31
0.0
  0
LINE
  5
78
330
17
100
AcDbEntity
  8
A-WALL
100
AcDbLine
 10
-22.915000381469728
 20
-21.575000762939453
 30
0.0
 11
-22.915000381469728
 21
-18.775000762939452
 31
0.0
  0
LINE
  5
79
330
17
100
AcDbEntity
  8
A-WALL
100
AcDbLine
 10
-23.015000381469726
 20
-21.755000762939453
 30
0.0
 11
-23.015000381469726
 21
-22.415000762939453
 31
0.0
  0
LINE
  5
7A
330
17
100
AcDbEntity
  8
A-WALL
100
AcDbLine
 10
-22.555000381469725
 20
-10.515000762939453
 30
0.0
 11
-22.555000381469725
 21
-19.915000762939453
 31
0.0
  0
LINE
  5
7B
330
17
100
AcDbEntity
  8
A-WALL
100
AcDbLine
 10
-22.295000381469727
 20
-9.035000762939452
 30
0.0
 11
-22.295000381469727
 21
-9.615000762939452
 31
0.0
  0
LINE
  5
7C
330
17
100
AcDbEntity
  8
A-WALL
100
AcDbLine
 10
-22.875000381469725
 20
-7.175000762939453
 30
0.0
 11
-22.875000381469725
 21
-7.9750007629394535
 31
0.0
  0
LINE
  5
7D
330
17
100
AcDbEntity
  8
A-WALL
100
AcDbLine
 10
-22.215000381469725
 20
-4.875000762939454
 30
0.0
 11
-22.215000381469725
 21
-3.795000762939452
 31
0.0
  0
LINE
  5
7E
330
17
100
AcDbEntity
  8
A-WALL
100
AcDbLine
 10
-22.935000381469727
 20
-4.175000762939451
 30
0.0
 11
-22.935000381469727
 21
-1.4750007629394517
 31
0.0
  0
LINE
  5
7F
330
17
100
AcDbEntity
  8
A-WALL
100
AcDbLine
 10
-21.835000381469726
 20
-5.495000762939451
 30
0.0
 11
-21.835000381469726
 21
-6.215000762939454
 31
0.0
  0
LINE
  5
80
330
17
100
AcDbEntity
  8
A-WALL
100
AcDbLine
 10
-22.295000381469727
 20
-9.655000762939453
 30
0.0
 11
-22.975000381469727
 21
-9.655000762939453
 31
0.0
  0
LINE
  5
81
330
17
100
AcDbEntity
  8
A-WALL
100
AcDbLine
 10
-22.215000381469725
 20
-9.695000762939452
 30
0.0
 11
-20.855000381469726
 21
-9.695000762939452
 31
0.0
  0
LINE
  5
82
330
17
100
AcDbEntity
  8
A-WALL
100
AcDbLine
 10
-19.675000381469726
 20
-9.135000762939454
 30
0.0
 11
-19.675000381469726
 21
-8.455000762939452
 31
0.0
  0
LINE
  5
83
330
17
100
AcDbEntity
  8
A-WALL
100
AcDbLine
 10
-15.695000381469725
 20
-15.095000762939453
 30
0.0
 11
-14.195000381469727
 21
-15.095000762939453
 31
0.0
  0
LINE
  5
84
330
17
100
AcDbEntity
  8
A-WALL
100
AcDbLine
 10
-10.575000381469726
 20
-15.055000762939454
 30
0.0
 11
-13.115000381469727
 21
-15.055000762939454
 31
0.0
  0
LINE
  5
85
330
17
100
AcDbEntity
  8
A-WALL
100
AcDbLine
 10
-10.935000381469726
 20
-17.175000762939455
 30
0.0
 11
-13.155000381469726
 21
-17.175000762939455
 31
0.0
  0
LINE
  5
86
330
17
100
AcDbEntity
  8
A-WALL
100
AcDbLine
 10
-11.555000381469727
 20
-18.255000762939453
 30
0.0
 11
-11.555000381469727
 21
-18.855000762939454
 31
0.0
  0
LINE
  5
87
330
17
100
AcDbEntity
  8
A-WALL
100
AcDbLine
 10
-12.815000381469726
 20
-18.895000762939453
 30
0.0
 11
-12.815000381469726
 21
-18.075000762939453
 31
0.0
  0
LINE
  5
88
330
17
100
AcDbEntity
  8
A-WALL
100
AcDbLine
 10
-14.275000381469725
 20
-19.135000762939452
 30
0.0
 11
-9.375000381469727
 21
-19.135000762939452
 31
0.0
  0
LINE
  5
89
330
17
100
AcDbEntity
  8
A-WALL
100
AcDbLine
 10
-14.135000381469727
 20
-17.075000762939453
 30
0.0
 11
-14.135000381469727
 21
-19.235000762939453
 31
0.0
  0
LINE
  5
8A
330
17
100
AcDbEntity
  8
A-WALL
100
AcDbLine
 10
0.8849996185302729
 20
14.62499923706055
 30
0.0
 11
0.8849996185302729
 21
14.164999237060549
 31
0.0
  0
LINE
  5
8B
330
17
100
AcDbEntity
  8
A-WALL
100
AcDbLine
 10
2.7249996185302727
 20
11.324999237060545
 30
0.0
 11
2.7249996185302727
 21
12.344999237060549
 31
0.0
  0
LINE
  5
8C
330
17
100
AcDbEntity
  8
A-WALL
100
AcDbLine
 10
5.124999618530275
 20
7.644999237060546
 30
0.0
 11
5.264999618530275
 21
8.084999237060547
 31
0.0
  0
LINE
  5
8D
330
17
100
AcDbEntity
  8
A-WALL
100
AcDbLine
 10
-23.155000381469726
 20
8.184999237060548
 30
0.0
 11
-23.155000381469726
 21
9.80499923706055
 31
0.0
  0
LINE
  5
8E
330
17
100
AcDbEntity
  8
A-WALL
100
AcDbLine
 10
-23.155000381469726
 20
9.824999237060545
 30
0.0
 11
-23.155000381469726
 21
10.284999237060546
 31
0.0
  0
LINE
  5
8F
330
17
100
AcDbEntity
  8
A-WALL
100
AcDbLine
 10
-16.295000381469727
 20
1.8649992370605482
 30
0.0
 11
-15.235000381469726
 21
1.8649992370605482
 31
0.0
  0
LINE
  5
90
330
17
100
AcDbEntity
  8
A-WALL
100
AcDbLine
 10
-10.275000381469725
 20
0.9249992370605469
 30
0.0
 11
-10.275000381469725
 21
7.844999237060549
 31
0.0
  0
LINE
  5
91
330
17
100
AcDbEntity
  8
A-WALL
100
AcDbLine
 10
-10.555000381469727
 20
6.044999237060548
 30
0.0
 11
-10.555000381469727
 21
5.624999237060546
 31
0.0
  0
LINE
  5
92
330
17
100
AcDbEntity
  8
A-WALL
100
AcDbLine
 10
-10.775000381469725
 20
5.344999237060549
 30
0.0
 11
-11.235000381469726
 21
5.344999237060549
 31
0.0
  0
LINE
  5
93
330
17
100
AcDbEntity
  8
A-WALL
100
AcDbLine
 10
-11.235000381469726
 20
5.344999237060549
 30
0.0
 11
-11.235000381469726
 21
4.464999237060546
 31
0.0
  0
LINE
  5
94
330
17
100
AcDbEntity
  8
A-WALL
100
AcDbLine
 10
-11.235000381469726
 20
4.464999237060546
 30
0.0
 11
-14.915000381469726
 21
4.464999237060546
 31
0.0
  0
LINE
  5
95
330
17
100
AcDbEntity
  8
A-WALL
100
AcDbLine
 10
-15.015000381469726
 20
1.964999237060546
 30
0.0
 11
-15.015000381469726
 21
4.204999237060548
 31
0.0
  0
LINE
  5
96
330
17
100
AcDbEntity
  8
A-WALL
100
AcDbLine
 10
-15.775000381469727
 20
2.744999237060547
 30
0.0
 11
-16.435000381469727
 21
2.744999237060547
 31
0.0
  0
LINE
  5
97
330
17
100
AcDbEntity
  8
A-WALL
100
AcDbLine
 10
-16.495000381469726
 20
7.404999237060547
 30
0.0
 11
-16.495000381469726
 21
1.964999237060546
 31
0.0
  0
LINE
  5
98
330
17
100
AcDbEntity
  8
A-WALL
100
AcDbLine
 10
-16.755000381469728
 20
8.924999237060547
 30
0.0
 11
-16.755000381469728
 21
9.524999237060548
 31
0.0
  0
LINE
  5
99
330
17
100
AcDbEntity
  8
A-WALL
100
AcDbLine
 10
-16.475000381469727
 20
9.744999237060547
 30
0.0
 11
-16.555000381469725
 21
10.164999237060549
 31
0.0
  0
LINE
  5
9A
330
17
100
AcDbEntity
  8
A-WALL
100
AcDbLine
 10
-17.515000381469726
 20
8.744999237060547
 30
0.0
 11
-17.515000381469726
 21
8.264999237060547
 31
0.0
  0
LINE
  5
9B
330
17
100
AcDbEntity
  8
A-WALL
100
AcDbLine
 10
-17.115000381469727
 20
4.4449992370605464
 30
0.0
 11
-21.475000381469727
 21
4.4449992370605464
 31
0.0
  0
LINE
  5
9C
330
17
100
AcDbEntity
  8
A-WALL
100
AcDbLine
 10
-21.515000381469726
 20
4.524999237060548
 30
0.0
 11
-22.175000381469726
 21
4.524999237060548
 31
0.0
  0
LINE
  5
9D
330
17
100
AcDbEntity
  8
A-WALL
100
AcDbLine
 10
-22.195000381469725
 20
4.524999237060548
 30
0.0
 11
-22.195000381469725
 21
8.264999237060547
 31
0.0
  0
LINE
  5
9E
330
17
100
AcDbEntity
  8
A-WALL
100
AcDbLine
 10
-21.555000381469725
 20
8.264999237060547
 30
0.0
 11
-21.555000381469725
 21
8.744999237060547
 31
0.0
  0
LINE
  5
9F
330
17
100
AcDbEntity
  8
A-WALL
100
AcDbLine
 10
-22.235000381469728
 20
8.764999237060547
 30
0.0
 11
-22.235000381469728
 21
9.604999237060547
 31
0.0
  0
LINE
  5
A0
330
17
100
AcDbEntity
  8
A-WALL
100
AcDbLine
 10
-22.195000381469725
 20
9.844999237060549
 30
0.0
 11
-22.195000381469725
 21
11.524999237060548
 31
0.0
  0
LINE
  5
A1
330
17
100
AcDbEntity
  8
A-WALL
100
AcDbLine
 10
-22.215000381469725
 20
12.504999237060545
 30
0.0
 11
-23.175000381469726
 21
12.504999237060545
 31
0.0
  0
LINE
  5
A2
330
17
100
AcDbEntity
  8
A-WALL
100
AcDbLine
 10
-21.955000381469727
 20
12.58499923706055
 30
0.0
 11
-21.015000381469726
 21
12.58499923706055
 31
0.0
  0
LINE
  5
A3
330
17
100
AcDbEntity
  8
A-WALL
100
AcDbLine
 10
-20.855000381469726
 20
12.564999237060547
 30
0.0
 11
-17.235000381469725
 21
12.564999237060547
 31
0.0
  0
LINE
  5
A4
330
17
100
AcDbEntity
  8
A-WALL
100
AcDbLine
 10
-16.615000381469727
 20
13.76499923706055
 30
0.0
 11
-17.055000381469725
 21
13.76499923706055
 31
0.0
  0
LINE
  5
A5
330
17
100
AcDbEntity
  8
A-WALL
100
AcDbLine
 10
-17.135000381469727
 20
13.58499923706055
 30
0.0
 11
-22.535000381469725
 21
13.58499923706055
 31
0.0
  0
LINE
  5
A6
330
17
100
AcDbEntity
  8
A-WALL
100
AcDbLine
 10
-22.575000381469728
 20
13.664999237060549
 30
0.0
 11
-22.575000381469728
 21
16.064999237060547
 31
0.0
  0
LINE
  5
A7
330
17
100
AcDbEntity
  8
A-WALL
100
AcDbLine
 10
-22.355000381469726
 20
16.34499923706055
 30
0.0
 11
-17.135000381469727
 21
16.34499923706055
 31
0.0
  0
LINE
  5
A8
330
17
100
AcDbEntity
  8
A-WALL
100
AcDbLine
 10
-17.135000381469727
 20
16.22499923706055
 30
0.0
 11
-16.655000381469726
 21
16.22499923706055
 31
0.0
  0
LINE
  5
A9
330
17
100
AcDbEntity
  8
A-WALL
100
AcDbLine
 10
-11.055000381469727
 20
15.104999237060547
 30
0.0
 11
-11.055000381469727
 21
14.644999237060546
 31
0.0
  0
LINE
  5
AA
330
17
100
AcDbEntity
  8
A-WALL
100
AcDbLine
 10
-10.955000381469727
 20
13.824999237060545
 30
0.0
 11
-8.295000381469727
 21
13.824999237060545
 31
0.0
  0
LINE
  5
AB
330
17
100
AcDbEntity
  8
A-WALL
100
AcDbLine
 10
-8.075000381469726
 20
13.564999237060547
 30
0.0
 11
-8.075000381469726
 21
12.524999237060548
 31
0.0
  0
LINE
  5
AC
330
17
100
AcDbEntity
  8
A-WALL
100
AcDbLine
 10
-8.355000381469726
 20
11.704999237060548
 30
0.0
 11
-9.015000381469726
 21
11.704999237060548
 31
0.0
  0
LINE
  5
AD
330
17
100
AcDbEntity
  8
A-WALL
100
AcDbLine
 10
-9.035000381469727
 20
11.664999237060549
 30
0.0
 11
-9.515000381469726
 21
11.664999237060549
 31
0.0
  0
LINE
  5
AE
330
17
100
AcDbEntity
  8
A-WALL
100
AcDbLine
 10
-9.575000381469726
 20
10.744999237060547
 30
0.0
 11
-9.575000381469726
 21
10.244999237060547
 31
0.0
  0
LINE
  5
AF
330
17
100
AcDbEntity
  8
A-WALL
100
AcDbLine
 10
-10.135000381469727
 20
9.164999237060549
 30
0.0
 11
-10.135000381469727
 21
8.264999237060547
 31
0.0
  0
LINE
  5
B0
330
17
100
AcDbEntity
  8
A-WALL
100
AcDbLine
 10
-10.255000381469726
 20
5.404999237060547
 30
0.0
 11
-10.255000381469726
 21
4.984999237060549
 31
0.0
  0
LINE
  5
B1
330
17
100
AcDbEntity
  8
A-WALL
100
AcDbLine
 10
-21.875000381469725
 20
-8.355000762939452
 30
0.0
 11
-21.875000381469725
 21
-9.235000762939453
 31
0.0
  0
LINE
  5
B2
330
17
100
AcDbEntity
  8
A-WALL
100
AcDbLine
 10
-21.795000381469727
 20
-8.535000762939452
 30
0.0
 11
-21.795000381469727
 21
-7.335000762939453
 31
0.0
  0
LINE
  5
B3
330
17
100
AcDbEntity
  8
A-WALL
100
AcDbLine
 10
-8.075000381469726
 20
-8.855000762939452
 30
0.0
 11
-7.935000381469726
 21
-8.215000762939454
 31
0.0
  0
LINE
  5
B4
330
17
100
AcDbEntity
  8
A-WALL
100
AcDbLine
 10
-9.055000381469727
 20
-8.435000762939453
 30
0.0
 11
-9.055000381469727
 21
-7.335000762939453
 31
0.0
  0
LINE
  5
B5
330
17
100
AcDbEntity
  8
A-WALL
100
AcDbLine
 10
-5.835000381469726
 20
-10.275000762939452
 30
0.0
 11
-6.875000381469725
 21
-10.275000762939452
 31
0.0
  0
LINE
  5
B6
330
17
100
AcDbEntity
  8
A-WALL
100
AcDbLine
 10
-13.635000381469727
 20
-9.455000762939452
 30
0.0
 11
-11.695000381469727
 21
-9.455000762939452
 31
0.0
  0
LINE
  5
B7
330
17
100
AcDbEntity
  8
A-WALL
100
AcDbLine
 10
-12.435000381469726
 20
-7.935000762939453
 30
0.0
 11
-12.435000381469726
 21
-8.795000762939452
 31
0.0
  0
LINE
  5
B8
330
17
100
AcDbEntity
  8
A-WALL
100
AcDbLine
 10
-12.995000381469726
 20
-8.435000762939453
 30
0.0
 11
-12.995000381469726
 21
-6.995000762939453
 31
0.0
  0
LINE
  5
B9
330
17
100
AcDbEntity
  8
A-WALL
100
AcDbLine
 10
-5.855000381469726
 20
-6.8550007629394525
 30
0.0
 11
-5.855000381469726
 21
-6.155000762939451
 31
0.0
  0
LINE
  5
BA
330
17
100
AcDbEntity
  8
A-WALL
100
AcDbLine
 10
-5.875000381469725
 20
-1.3550007629394543
 30
0.0
 11
-8.575000381469726
 21
-1.3550007629394543
 31
0.0
  0
LINE
  5
BB
330
17
100
AcDbEntity
  8
A-WALL
100
AcDbLine
 10
-8.575000381469726
 20
-7.635000762939454
 30
0.0
 11
-8.435000381469726
 21
-7.155000762939453
 31
0.0
  0
LINE
  5
BC
330
17
100
AcDbEntity
  8
A-WALL
100
AcDbLine
 10
-10.475000381469727
 20
-9.015000762939453
 30
0.0
 11
-10.375000381469727
 21
-9.415000762939453
 31
0.0
  0
LINE
  5
BD
330
17
100
AcDbEntity
  8
A-WALL
100
AcDbLine
 10
-9.375000381469727
 20
-9.455000762939452
 30
0.0
 11
-9.475000381469727
 21
-9.035000762939452
 31
0.0
  0
LINE
  5
BE
330
17
100
AcDbEntity
  8
A-WALL
100
AcDbLine
 10
-9.315000381469726
 20
-9.455000762939452
 30
0.0
 11
-8.895000381469726
 21
-9.455000762939452
 31
0.0
  0
LINE
  5
BF
330
17
100
AcDbEntity
  8
A-WALL
100
AcDbLine
 10
-8.755000381469726
 20
-9.455000762939452
 30
0.0
 11
-6.775000381469727
 21
-9.455000762939452
 31
0.0
  0
LINE
  5
C0
330
17
100
AcDbEntity
  8
A-WALL
100
AcDbLine
 10
-7.355000381469726
 20
-7.575000762939453
 30
0.0
 11
-7.355000381469726
 21
-8.735000762939453
 31
0.0
  0
LINE
  5
C1
330
17
100
AcDbEntity
  8
A-WALL
100
AcDbLine
 10
0.8249996185302741
 20
-9.535000762939452
 30
0.0
 11
0.9649996185302747
 21
-9.135000762939454
 31
0.0
  0
LINE
  5
C2
330
17
100
AcDbEntity
  8
A-WALL
100
AcDbLine
 10
1.0249996185302734
 20
-9.115000762939452
 30
0.0
 11
1.0249996185302734
 21
-6.8550007629394525
 31
0.0
  0
LINE
  5
C3
330
17
100
AcDbEntity
  8
A-WALL
100
AcDbLine
 10
1.6249996185302749
 20
-3.635000762939452
 30
0.0
 11
1.7649996185302754
 21
-2.955000762939452
 31
0.0
  0
LINE
  5
C4
330
17
100
AcDbEntity
  8
A-WALL
100
AcDbLine
 10
1.1449996185302744
 20
-1.8150007629394516
 30
0.0
 11
1.1449996185302744
 21
-1.2750007629394524
 31
0.0
  0
LINE
  5
C5
330
17
100
AcDbEntity
  8
A-WALL
100
AcDbLine
 10
1.9449996185302751
 20
-0.9750007629394517
 30
0.0
 11
2.4049996185302724
 21
-0.9750007629394517
 31
0.0
  0
LINE
  5
C6
330
17
100
AcDbEntity
  8
A-WALL
100
AcDbLine
 10
2.4649996185302747
 20
-0.8150007629394516
 30
0.0
 11
3.044999618530273
 21
-0.8150007629394516
 31
0.0
  0
LINE
  5
C7
330
17
100
AcDbEntity
  8
A-WALL
100
AcDbLine
 10
1.1249996185302749
 20
-0.015000762939454404
 30
0.0
 11
1.1249996185302749
 21
0.5049992370605487
 31
0.0
  0
LINE
  5
C8
330
17
100
AcDbEntity
  8
A-WALL
100
AcDbLine
 10
0.8249996185302741
 20
0.7249992370605476
 30
0.0
 11
0.8249996185302741
 21
1.324999237060549
 31
0.0
  0
LINE
  5
C9
330
17
100
AcDbEntity
  8
A-WALL
100
AcDbLine
 10
2.124999618530275
 20
0.824999237060549
 30
0.0
 11
1.8049996185302746
 21
1.1249992370605462
 31
0.0
  0
LINE
  5
CA
330
17
100
AcDbEntity
  8
A-WALL
100
AcDbLine
 10
2.9849996185302743
 20
-0.03500076293945398
 30
0.0
 11
3.4249996185302756
 21
-0.03500076293945398
 31
0.0
  0
LINE
  5
CB
330
17
100
AcDbEntity
  8
A-WALL
100
AcDbLine
 10
3.0849996185302757
 20
-0.415000762939453
 30
0.0
 11
3.784999618530275
 21
-0.415000762939453
 31
0.0
  0
LINE
  5
CC
330
17
100
AcDbEntity
  8
A-WALL
100
AcDbLine
 10
4.084999618530276
 20
-0.6350007629394518
 30
0.0
 11
4.844999618530274
 21
-0.6350007629394518
 31
0.0
  0
LINE
  5
CD
330
17
100
AcDbEntity
  8
A-WALL
100
AcDbLine
 10
5.224999618530273
 20
0.7449992370605472
 30
0.0
 11
4.904999618530272
 21
1.0249992370605483
 31
0.0
  0
LINE
  5
CE
330
17
100
AcDbEntity
  8
A-WALL
100
AcDbLine
 10
5.224999618530273
 20
1.1049992370605466
 30
0.0
 11
3.0249996185302734
 21
1.1049992370605466
 31
0.0
  0
LINE
  5
CF
330
17
100
AcDbEntity
  8
A-WALL
100
AcDbLine
 10
3.0249996185302734
 20
1.2249992370605476
 30
0.0
 11
3.5249996185302734
 21
1.2249992370605476
 31
0.0
  0
LINE
  5
D0
330
17
100
AcDbEntity
  8
A-WALL
100
AcDbLine
 10
5.344999618530274
 20
0.4049992370605473
 30
0.0
 11
5.344999618530274
 21
-0.015000762939454404
 31
0.0
  0
LINE
  5
D1
330
17
100
AcDbEntity
  8
A-WALL
100
AcDbLine
 10
5.724999618530273
 20
7.384999237060548
 30
0.0
 11
5.724999618530273
 21
9.404999237060547
 31
0.0
  0
LINE
  5
D2
330
17
100
AcDbEntity
  8
A-WALL
100
AcDbLine
 10
5.044999618530273
 20
9.94499923706055
 30
0.0
 11
3.7249996185302727
 21
9.94499923706055
 31
0.0
  0
LINE
  5
D3
330
17
100
AcDbEntity
  8
A-WALL
100
AcDbLine
 10
3.884999618530273
 20
12.524999237060548
 30
0.0
 11
3.884999618530273
 21
11.524999237060548
 31
0.0
  0
LINE
  5
D4
330
17
100
AcDbEntity
  8
A-WALL
100
AcDbLine
 10
2.004999618530274
 20
12.44499923706055
 30
0.0
 11
2.004999618530274
 21
13.024999237060548
 31
0.0
  0
LINE
  5
D5
330
17
100
AcDbEntity
  8
A-WALL
100
AcDbLine
 10
1.2449996185302723
 20
12.144999237060546
 30
0.0
 11
1.2449996185302723
 21
13.024999237060548
 31
0.0
  0
LINE
  5
D6
330
17
100
AcDbEntity
  8
A-WALL
100
AcDbLine
 10
1.3249996185302741
 20
11.76499923706055
 30
0.0
 11
1.2249996185302727
 21
12.26499923706055
 31
0.0
  0
LINE
  5
D7
330
17
100
AcDbEntity
  8
A-WALL
100
AcDbLine
 10
1.2249996185302727
 20
13.024999237060548
 30
0.0
 11
0.7649996185302754
 21
13.164999237060549
 31
0.0
  0
LINE
  5
D8
330
17
100
AcDbEntity
  8
A-WALL
100
AcDbLine
 10
1.2249996185302727
 20
14.724999237060551
 30
0.0
 11
1.2249996185302727
 21
13.844999237060549
 31
0.0
  0
LINE
  5
D9
330
17
100
AcDbEntity
  8
A-WALL
100
AcDbLine
 10
4.464999618530275
 20
16.26499923706055
 30
0.0
 11
5.624999618530275
 21
16.26499923706055
 31
0.0
  0
LINE
  5
DA
330
17
100
AcDbEntity
  8
A-WALL
100
AcDbLine
 10
4.384999618530273
 20
13.784999237060546
 30
0.0
 11
5.464999618530275
 21
13.784999237060546
 31
0.0
  0
LINE
  5
DB
330
17
100
AcDbEntity
  8
A-WALL
100
AcDbLine
 10
10.204999618530273
 20
13.48499923706055
 30
0.0
 11
6.984999618530274
 21
13.48499923706055
 31
0.0
  0
LINE
  5
DC
330
17
100
AcDbEntity
  8
A-WALL
100
AcDbLine
 10
6.744999618530272
 20
13.524999237060548
 30
0.0
 11
5.964999618530275
 21
13.524999237060548
 31
0.0
  0
LINE
  5
DD
330
17
100
AcDbEntity
  8
A-WALL
100
AcDbLine
 10
6.024999618530273
 20
16.44499923706055
 30
0.0
 11
10.704999618530273
 21
16.44499923706055
 31
0.0
  0
LINE
  5
DE
330
17
100
AcDbEntity
  8
A-WALL
100
AcDbLine
 10
10.844999618530274
 20
16.66499923706055
 30
0.0
 11
11.404999618530276
 21
16.66499923706055
 31
0.0
  0
LINE
  5
DF
330
17
100
AcDbEntity
  8
A-WALL
100
AcDbLine
 10
11.484999618530274
 20
16.644999237060546
 30
0.0
 11
12.044999618530277
 21
16.644999237060546
 31
0.0
  0
LINE
  5
E0
330
17
100
AcDbEntity
  8
A-WALL
100
AcDbLine
 10
12.044999618530277
 20
16.644999237060546
 30
0.0
 11
13.444999618530275
 21
16.644999237060546
 31
0.0
  0
LINE
  5
E1
330
17
100
AcDbEntity
  8
A-WALL
100
AcDbLine
 10
13.584999618530276
 20
16.564999237060547
 30
0.0
 11
16.724999618530276
 21
16.564999237060547
 31
0.0
  0
LINE
  5
E2
330
17
100
AcDbEntity
  8
A-WALL
100
AcDbLine
 10
16.744999618530272
 20
16.384999237060548
 30
0.0
 11
21.024999618530273
 21
16.384999237060548
 31
0.0
  0
LINE
  5
E3
330
17
100
AcDbEntity
  8
A-WALL
100
AcDbLine
 10
21.044999618530277
 20
16.34499923706055
 30
0.0
 11
21.044999618530277
 21
15.644999237060546
 31
0.0
  0
LINE
  5
E4
330
17
100
AcDbEntity
  8
A-WALL
100
AcDbLine
 10
21.164999618530274
 20
15.62499923706055
 30
0.0
 11
21.164999618530274
 21
14.964999237060546
 31
0.0
  0
LINE
  5
E5
330
17
100
AcDbEntity
  8
A-WALL
100
AcDbLine
 10
20.96499961853027
 20
14.644999237060546
 30
0.0
 11
20.96499961853027
 21
-9.535000762939452
 31
0.0
  0
LINE
  5
E6
330
17
100
AcDbEntity
  8
A-WALL
100
AcDbLine
 10
20.924999618530272
 20
-9.555000762939454
 30
0.0
 11
16.384999618530273
 21
-9.555000762939454
 31
0.0
  0
LINE
  5
E7
330
17
100
AcDbEntity
  8
A-WALL
100
AcDbLine
 10
15.944999618530275
 20
-9.735000762939453
 30
0.0
 11
10.624999618530275
 21
-9.735000762939453
 31
0.0
  0
LINE
  5
E8
330
17
100
AcDbEntity
  8
A-WALL
100
AcDbLine
 10
5.804999618530275
 20
-9.435000762939453
 30
0.0
 11
5.804999618530275
 21
-6.475000762939452
 31
0.0
  0
LINE
  5
E9
330
17
100
AcDbEntity
  8
A-WALL
100
AcDbLine
 10
5.764999618530275
 20
-6.475000762939452
 30
0.0
 11
10.084999618530276
 21
-6.475000762939452
 31
0.0
  0
LINE
  5
EA
330
17
100
AcDbEntity
  8
A-WALL
100
AcDbLine
 10
3.7449996185302723
 20
-9.215000762939454
 30
0.0
 11
4.924999618530276
 21
-9.215000762939454
 31
0.0
  0
LINE
  5
EB
330
17
100
AcDbEntity
  8
A-WALL
100
AcDbLine
 10
1.7249996185302727
 20
-10.075000762939453
 30
0.0
 11
0.8649996185302733
 21
-9.875000762939452
 31
0.0
  0
LINE
  5
EC
330
17
100
AcDbEntity
  8
A-WALL
100
AcDbLine
 10
-15.835000381469726
 20
-13.575000762939453
 30
0.0
 11
-15.835000381469726
 21
-14.435000762939453
 31
0.0
  0
LINE
  5
ED
330
17
100
AcDbEntity
  8
A-WALL
100
AcDbLine
 10
-21.195000381469725
 20
-13.835000762939453
 30
0.0
 11
-21.195000381469725
 21
-18.955000762939452
 31
0.0
  0
LINE
  5
EE
330
17
100
AcDbEntity
  8
A-WALL
100
AcDbLine
 10
-21.155000381469726
 20
-13.115000762939452
 30
0.0
 11
-21.155000381469726
 21
-12.675000762939453
 31
0.0
  0
LINE
  5
EF
330
17
100
AcDbEntity
  8
A-WALL
100
AcDbLine
 10
-21.115000381469727
 20
-12.555000762939454
 30
0.0
 11
-17.295000381469727
 21
-12.555000762939454
 31
0.0
  0
LINE
  5
F0
330
17
100
AcDbEntity
  8
A-WALL
100
AcDbLine
 10
-17.195000381469725
 20
-17.955000762939452
 30
0.0
 11
-17.195000381469725
 21
-18.895000762939453
 31
0.0
  0
LINE
  5
F1
330
17
100
AcDbEntity
  8
A-WALL
100
AcDbLine
 10
-17.235000381469725
 20
-18.955000762939452
 30
0.0
 11
-21.195000381469725
 21
-18.955000762939452
 31
0.0
  0
LINE
  5
F2
330
17
100
AcDbEntity
  8
A-WALL
100
AcDbLine
 10
-23.195000381469725
 20
-20.135000762939452
 30
0.0
 11
-23.295000381469727
 21
-19.635000762939452
 31
0.0
  0
LINE
  5
F3
330
17
100
AcDbEntity
  8
A-WALL
100
AcDbLine
 10
-9.375000381469727
 20
-22.575000762939453
 30
0.0
 11
-10.535000381469727
 21
-22.575000762939453
 31
0.0
  0
LINE
  5
F4
330
17
100
AcDbEntity
  8
A-WALL
100
AcDbLine
 10
-10.555000381469727
 20
-22.47500076293945
 30
0.0
 11
-10.975000381469727
 21
-22.47500076293945
 31
0.0
  0
LINE
  5
F5
330
17
100
AcDbEntity
  8
A-WALL
100
AcDbLine
 10
-11.455000381469727
 20
-22.255000762939453
 30
0.0
 11
-13.275000381469725
 21
-22.255000762939453
 31
0.0
  0
LINE
  5
F6
330
17
100
AcDbEntity
  8
A-WALL
100
AcDbLine
 10
-13.295000381469727
 20
-22.135000762939452
 30
0.0
 11
-13.775000381469725
 21
-22.135000762939452
 31
0.0
  0
LINE
  5
F7
330
17
100
AcDbEntity
  8
A-WALL
100
AcDbLine
 10
-13.975000381469727
 20
-22.055000762939454
 30
0.0
 11
-14.835000381469726
 21
-22.055000762939454
 31
0.0
  0
LINE
  5
F8
330
17
100
AcDbEntity
  8
A-WALL
100
AcDbLine
 10
-14.855000381469726
 20
-21.97500076293945
 30
0.0
 11
-15.475000381469727
 21
-21.97500076293945
 31
0.0
  0
LINE
  5
F9
330
17
100
AcDbEntity
  8
A-WALL
100
AcDbLine
 10
-15.655000381469726
 20
-21.135000762939452
 30
0.0
 11
-16.175000381469726
 21
-21.135000762939452
 31
0.0
  0
LINE
  5
FA
330
17
100
AcDbEntity
  8
A-WALL
100
AcDbLine
 10
-16.475000381469727
 20
-21.895000762939453
 30
0.0
 11
-17.695000381469725
 21
-21.895000762939453
 31
0.0
  0
LINE
  5
FB
330
17
100
AcDbEntity
  8
A-WALL
100
AcDbLine
 10
-17.735000381469725
 20
-21.755000762939453
 30
0.0
 11
-19.355000381469726
 21
-21.755000762939453
 31
0.0
  0
LINE
  5
FC
330
17
100
AcDbEntity
  8
A-WALL
100
AcDbLine
 10
-19.355000381469726
 20
-21.635000762939452
 30
0.0
 11
-20.035000381469725
 21
-21.635000762939452
 31
0.0
  0
LINE
  5
FD
330
17
100
AcDbEntity
  8
A-WALL
100
AcDbLine
 10
-20.055000381469725
 20
-21.575000762939453
 30
0.0
 11
-20.975000381469727
 21
-21.575000762939453
 31
0.0
  0
LINE
  5
FE
330
17
100
AcDbEntity
  8
A-WALL
100
AcDbLine
 10
-21.015000381469726
 20
-21.455000762939452
 30
0.0
 11
-21.975000381469727
 21
-21.455000762939452
 31
0.0
  0
LINE
  5
FF
330
17
100
AcDbEntity
  8
A-WALL
100
AcDbLine
 10
-22.035000381469725
 20
-21.395000762939453
 30
0.0
 11
-22.035000381469725
 21
-20.935000762939453
 31
0.0
  0
LINE
  5
100
330
17
100
AcDbEntity
  8
A-WALL
100
AcDbLine
 10
-22.955000381469727
 20
-10.275000762939452
 30
0.0
 11
-22.955000381469727
 21
-9.755000762939453
 31
0.0
  0
LINE
  5
101
330
17
100
AcDbEntity
  8
A-WALL
100
AcDbLine
 10
-22.335000381469726
 20
-7.175000762939453
 30
0.0
 11
-22.955000381469727
 21
-7.175000762939453
 31
0.0
  0
LINE
  5
102
330
17
100
AcDbEntity
  8
A-WALL
100
AcDbLine
 10
-22.955000381469727
 20
-8.075000762939453
 30
0.0
 11
-22.855000381469726
 21
-7.615000762939452
 31
0.0
  0
LINE
  5
103
330
17
100
AcDbEntity
  8
A-WALL
100
AcDbLine
 10
-22.955000381469727
 20
-6.195000762939454
 30
0.0
 11
-22.955000381469727
 21
-7.155000762939453
 31
0.0
  0
LINE
  5
104
330
17
100
AcDbEntity
  8
A-WALL
100
AcDbLine
 10
-22.875000381469725
 20
-3.6150007629394523
 30
0.0
 11
-21.775000381469727
 21
-3.6150007629394523
 31
0.0
  0
LINE
  5
105
330
17
100
AcDbEntity
  8
A-WALL
100
AcDbLine
 10
-21.615000381469727
 20
-4.735000762939453
 30
0.0
 11
-21.615000381469727
 21
-3.635000762939452
 31
0.0
  0
LINE
  5
106
330
17
100
AcDbEntity
  8
A-WALL
100
AcDbLine
 10
-22.935000381469727
 20
-6.1750007629394545
 30
0.0
 11
-21.475000381469727
 21
-6.1750007629394545
 31
0.0
  0
LINE
  5
107
330
17
100
AcDbEntity
  8
A-WALL
100
AcDbLine
 10
-21.635000381469727
 20
-4.835000762939451
 30
0.0
 11
-21.635000381469727
 21
-5.455000762939452
 31
0.0
  0
LINE
  5
108
330
17
100
AcDbEntity
  8
A-WALL
100
AcDbLine
 10
-22.275000381469727
 20
-7.035000762939452
 30
0.0
 11
-21.515000381469726
 21
-7.035000762939452
 31
0.0
  0
LINE
  5
109
330
17
100
AcDbEntity
  8
A-WALL
100
AcDbLine
 10
-21.795000381469727
 20
-7.675000762939453
 30
0.0
 11
-21.795000381469727
 21
-7.275000762939452
 31
0.0
  0
LINE
  5
10A
330
17
100
AcDbEntity
  8
A-WALL
100
AcDbLine
 10
-22.475000381469727
 20
-8.555000762939454
 30
0.0
 11
-22.355000381469726
 21
-8.975000762939453
 31
0.0
  0
LINE
  5
10B
330
17
100
AcDbEntity
  8
A-WALL
100
AcDbLine
 10
-21.795000381469727
 20
-9.475000762939453
 30
0.0
 11
-21.255000381469728
 21
-9.375000762939452
 31
0.0
  0
LINE
  5
10C
330
17
100
AcDbEntity
  8
A-WALL
100
AcDbLine
 10
-22.195000381469725
 20
-19.455000762939452
 30
0.0
 11
-16.535000381469725
 21
-19.455000762939452
 31
0.0
  0
LINE
  5
10D
330
17
100
AcDbEntity
  8
A-WALL
100
AcDbLine
 10
-16.515000381469726
 20
-19.455000762939452
 30
0.0
 11
-16.515000381469726
 21
-19.855000762939454
 31
0.0
  0
LINE
  5
10E
330
17
100
AcDbEntity
  8
A-WALL
100
AcDbLine
 10
-16.175000381469726
 20
-19.955000762939452
 30
0.0
 11
-15.655000381469726
 21
-19.955000762939452
 31
0.0
  0
LINE
  5
10F
330
17
100
AcDbEntity
  8
A-WALL
100
AcDbLine
 10
-15.635000381469727
 20
-19.955000762939452
 30
0.0
 11
-15.635000381469727
 21
-19.395000762939453
 31
0.0
  0
LINE
  5
110
330
17
100
AcDbEntity
  8
A-WALL
100
AcDbLine
 10
-15.655000381469726
 20
-18.83500076293945
 30
0.0
 11
-15.655000381469726
 21
-15.455000762939452
 31
0.0
  0
LINE
  5
111
330
17
100
AcDbEntity
  8
A-WALL
100
AcDbLine
 10
-14.355000381469726
 20
-15.275000762939452
 30
0.0
 11
-14.355000381469726
 21
-14.735000762939453
 31
0.0
  0
LINE
  5
112
330
17
100
AcDbEntity
  8
A-WALL
100
AcDbLine
 10
-15.635000381469727
 20
-10.735000762939453
 30
0.0
 11
-10.635000381469727
 21
-10.735000762939453
 31
0.0
  0
LINE
  5
113
330
17
100
AcDbEntity
  8
A-WALL
100
AcDbLine
 10
-10.575000381469726
 20
-10.835000762939453
 30
0.0
 11
-10.575000381469726
 21
-14.675000762939453
 31
0.0
  0
LINE
  5
114
330
17
100
AcDbEntity
  8
A-WALL
100
AcDbLine
 10
-13.115000381469727
 20
-14.735000762939453
 30
0.0
 11
-13.115000381469727
 21
-15.275000762939452
 31
0.0
  0
LINE
  5
115
330
17
100
AcDbEntity
  8
A-WALL
100
AcDbLine
 10
-12.155000381469726
 20
-15.455000762939452
 30
0.0
 11
-11.635000381469727
 21
-15.455000762939452
 31
0.0
  0
LINE
  5
116
330
17
100
AcDbEntity
  8
A-WALL
100
AcDbLine
 10
-11.615000381469727
 20
-15.575000762939453
 30
0.0
 11
-10.635000381469727
 21
-15.575000762939453
 31
0.0
  0
LINE
  5
117
330
17
100
AcDbEntity
  8
A-WALL
100
AcDbLine
 10
-10.655000381469726
 20
-17.055000762939454
 30
0.0
 11
-10.655000381469726
 21
-15.555000762939454
 31
0.0
  0
LINE
  5
118
330
17
100
AcDbEntity
  8
A-WALL
100
AcDbLine
 10
-10.595000381469726
 20
-18.715000762939454
 30
0.0
 11
-10.595000381469726
 21
-17.235000762939453
 31
0.0
  0
LINE
  5
119
330
17
100
AcDbEntity
  8
A-WALL
100
AcDbLine
 10
-10.575000381469726
 20
-18.715000762939454
 30
0.0
 11
-11.435000381469726
 21
-18.715000762939454
 31
0.0
  0
LINE
  5
11A
330
17
100
AcDbEntity
  8
A-WALL
100
AcDbLine
 10
-11.635000381469727
 20
-18.855000762939454
 30
0.0
 11
-12.735000381469726
 21
-18.855000762939454
 31
0.0
  0
LINE
  5
11B
330
17
100
AcDbEntity
  8
A-WALL
100
AcDbLine
 10
-9.375000381469727
 20
-19.455000762939452
 30
0.0
 11
-9.375000381469727
 21
-21.055000762939454
 31
0.0
  0
LINE
  5
11C
330
17
100
AcDbEntity
  8
A-DOOR
100
AcDbLine
 10
5.725
 20
13.525
 30
0.0
 11
5.725
 21
16.474999999999998
 31
0.0
  0
ARC
  5
11D
330
17
100
AcDbEntity
  8
A-DOOR
100
AcDbCircle
 10
5.725
 20
13.525
 30
0.0
 40
2.95
100
AcDbArc
 50
90.0
 51
180.0
  0
LINE
  5
11E
330
17
100
AcDbEntity
  8
A-DOOR
100
AcDbLine
 10
5.445
 20
16.185
 30
0.0
 11
5.445
 21
15.485000000000003
 31
0.0
  0
ARC
  5
11F
330
17
100
AcDbEntity
  8
A-DOOR
100
AcDbCircle
 10
5.445
 20
16.185
 30
0.0
 40
0.7
100
AcDbArc
 50
-90.0
 51
0.0
  0
LINE
  5
120
330
17
100
AcDbEntity
  8
A-DOOR
100
AcDbLine
 10
5.285
 20
8.725
 30
0.0
 11
5.285
 21
8.025
 31
0.0
  0
ARC
  5
121
330
17
100
AcDbEntity
  8
A-DOOR
100
AcDbCircle
 10
5.285
 20
8.725
 30
0.0
 40
0.7
100
AcDbArc
 50
-90.0
 51
0.0
  0
LINE
  5
122
330
17
100
AcDbEntity
  8
A-DOOR
100
AcDbLine
 10
-16.795
 20
9.895
 30
0.0
 11
-16.795
 21
8.744999999999996
 31
0.0
  0
ARC
  5
123
330
17
100
AcDbEntity
  8
A-DOOR
100
AcDbCircle
 10
-16.795
 20
9.895
 30
0.0
 40
1.15
100
AcDbArc
 50
-90.0
 51
0.0
  0
LINE
  5
124
330
17
100
AcDbEntity
  8
A-DOOR
100
AcDbLine
 10
-16.775
 20
12.425
 30
0.0
 11
-16.775
 21
13.125
 31
0.0
  0
ARC
  5
125
330
17
100
AcDbEntity
  8
A-DOOR
100
AcDbCircle
 10
-16.775
 20
12.425
 30
0.0
 40
0.7
100
AcDbArc
 50
90.0
 51
180.0
  0
LINE
  5
126
330
17
100
AcDbEntity
  8
A-DOOR
100
AcDbLine
 10
-23.155
 20
-1.135
 30
0.0
 11
-23.155
 21
-2.3850000000000007
 31
0.0
  0
ARC
  5
127
330
17
100
AcDbEntity
  8
A-DOOR
100
AcDbCircle
 10
-23.155
 20
-1.135
 30
0.0
 40
1.25
100
AcDbArc
 50
-90.0
 51
0.0
  0
LINE
  5
128
330
17
100
AcDbEntity
  8
A-DOOR
100
AcDbLine
 10
-20.875
 20
-7.115
 30
0.0
 11
-22.275000000000002
 21
-7.115
 31
0.0
  0
ARC
  5
129
330
17
100
AcDbEntity
  8
A-DOOR
100
AcDbCircle
 10
-20.875
 20
-7.115
 30
0.0
 40
1.4
100
AcDbArc
 50
180.0
 51
270.0
  0
LINE
  5
12A
330
17
100
AcDbEntity
  8
A-DOOR
100
AcDbLine
 10
-22.655
 20
-7.475
 30
0.0
 11
-22.655
 21
-8.474999999999998
 31
0.0
  0
ARC
  5
12B
330
17
100
AcDbEntity
  8
A-DOOR
100
AcDbCircle
 10
-22.655
 20
-7.475
 30
0.0
 40
1.0
100
AcDbArc
 50
-90.0
 51
0.0
  0
LINE
  5
12C
330
17
100
AcDbEntity
  8
A-DOOR
100
AcDbLine
 10
4.765
 20
-7.155
 30
0.0
 11
4.765
 21
-9.204999999999998
 31
0.0
  0
ARC
  5
12D
330
17
100
AcDbEntity
  8
A-DOOR
100
AcDbCircle
 10
4.765
 20
-7.155
 30
0.0
 40
2.05
100
AcDbArc
 50
-90.0
 51
0.0
  0
LINE
  5
12E
330
17
100
AcDbEntity
  8
A-DOOR
100
AcDbLine
 10
-10.715
 20
-9.175
 30
0.0
 11
-10.715
 21
-7.325000000000001
 31
0.0
  0
ARC
  5
12F
330
17
100
AcDbEntity
  8
A-DOOR
100
AcDbCircle
 10
-10.715
 20
-9.175
 30
0.0
 40
1.85
100
AcDbArc
 50
90.0
 51
180.0
  0
LINE
  5
130
330
17
100
AcDbEntity
  8
A-DOOR
100
AcDbLine
 10
-11.875
 20
-7.115
 30
0.0
 11
-11.875
 21
-9.515
 31
0.0
  0
ARC
  5
131
330
17
100
AcDbEntity
  8
A-DOOR
100
AcDbCircle
 10
-11.875
 20
-7.115
 30
0.0
 40
2.4
100
AcDbArc
 50
-90.0
 51
0.0
  0
LINE
  5
132
330
17
100
AcDbEntity
  8
A-DOOR
100
AcDbLine
 10
-22.015
 20
-7.295
 30
0.0
 11
-22.015
 21
-8.095
 31
0.0
  0
ARC
  5
133
330
17
100
AcDbEntity
  8
A-DOOR
100
AcDbCircle
 10
-22.015
 20
-7.295
 30
0.0
 40
0.8
100
AcDbArc
 50
-90.0
 51
0.0
  0
LINE
  5
134
330
17
100
AcDbEntity
  8
A-DOOR
100
AcDbLine
 10
-22.815
 20
-9.375
 30
0.0
 11
-22.815
 21
-8.375
 31
0.0
  0
ARC
  5
135
330
17
100
AcDbEntity
  8
A-DOOR
100
AcDbCircle
 10
-22.815
 20
-9.375
 30
0.0
 40
1.0
100
AcDbArc
 50
90.0
 51
180.0
  0
LINE
  5
136
330
17
100
AcDbEntity
  8
A-DOOR
100
AcDbLine
 10
-13.435
 20
-9.075
 30
0.0
 11
-13.435
 21
-7.024999999999999
 31
0.0
  0
ARC
  5
137
330
17
100
AcDbEntity
  8
A-DOOR
100
AcDbCircle
 10
-13.435
 20
-9.075
 30
0.0
 40
2.05
100
AcDbArc
 50
90.0
 51
180.0
  0
LINE
  5
138
330
17
100
AcDbEntity
  8
A-DOOR
100
AcDbLine
 10
-7.995
 20
-9.895
 30
0.0
 11
-9.645000000000001
 21
-9.895
 31
0.0
  0
ARC
  5
139
330
17
100
AcDbEntity
  8
A-DOOR
100
AcDbCircle
 10
-7.995
 20
-9.895
 30
0.0
 40
1.65
100
AcDbArc
 50
180.0
 51
270.0
  0
LINE
  5
13A
330
17
100
AcDbEntity
  8
A-DOOR
100
AcDbLine
 10
-9.495
 20
-7.095
 30
0.0
 11
-13.495
 21
-7.095
 31
0.0
  0
ARC
  5
13B
330
17
100
AcDbEntity
  8
A-DOOR
100
AcDbCircle
 10
-9.495
 20
-7.095
 30
0.0
 40
4.0
100
AcDbArc
 50
180.0
 51
270.0
  0
LINE
  5
13C
330
17
100
AcDbEntity
  8
A-DOOR
100
AcDbLine
 10
-6.075
 20
-1.905
 30
0.0
 11
-6.075
 21
-6.254999999999999
 31
0.0
  0
ARC
  5
13D
330
17
100
AcDbEntity
  8
A-DOOR
100
AcDbCircle
 10
-6.075
 20
-1.905
 30
0.0
 40
4.35
100
AcDbArc
 50
-90.0
 51
0.0
  0
LINE
  5
13E
330
17
100
AcDbEntity
  8
A-DOOR
100
AcDbLine
 10
3.295
 20
16.465
 30
0.0
 11
4.745
 21
16.465
 31
0.0
  0
ARC
  5
13F
330
17
100
AcDbEntity
  8
A-DOOR
100
AcDbCircle
 10
3.295
 20
16.465
 30
0.0
 40
1.45
100
AcDbArc
 50
0.0
 51
90.0
  0
LINE
  5
140
330
17
100
AcDbEntity
  8
A-DOOR
100
AcDbLine
 10
4.785
 20
15.625
 30
0.0
 11
4.785
 21
13.774999999999997
 31
0.0
  0
ARC
  5
141
330
17
100
AcDbEntity
  8
A-DOOR
100
AcDbCircle
 10
4.785
 20
15.625
 30
0.0
 40
1.85
100
AcDbArc
 50
-90.0
 51
0.0
  0
LINE
  5
142
330
17
100
AcDbEntity
  8
A-DOOR
100
AcDbLine
 10
4.505
 20
14.825
 30
0.0
 11
4.505
 21
13.825
 31
0.0
  0
ARC
  5
143
330
17
100
AcDbEntity
  8
A-DOOR
100
AcDbCircle
 10
4.505
 20
14.825
 30
0.0
 40
1.0
100
AcDbArc
 50
-90.0
 51
0.0
  0
LINE
  5
144
330
17
100
AcDbEntity
  8
A-DOOR
100
AcDbLine
 10
3.765
 20
-6.735
 30
0.0
 11
4.914999999999997
 21
-6.735
 31
0.0
  0
ARC
  5
145
330
17
100
AcDbEntity
  8
A-DOOR
100
AcDbCircle
 10
3.765
 20
-6.735
 30
0.0
 40
1.15
100
AcDbArc
 50
0.0
 51
90.0
  0
LINE
  5
146
330
17
100
AcDbEntity
  8
A-DOOR
100
AcDbLine
 10
4.265
 20
-9.235
 30
0.0
 11
4.265
 21
-6.734999999999999
 31
0.0
  0
ARC
  5
147
330
17
100
AcDbEntity
  8
A-DOOR
100
AcDbCircle
 10
4.265
 20
-9.235
 30
0.0
 40
2.5
100
AcDbArc
 50
90.0
 51
180.0
  0
LINE
  5
148
330
17
100
AcDbEntity
  8
A-DOOR
100
AcDbLine
 10
3.805
 20
-6.755
 30
0.0
 11
3.805
 21
-9.155
 31
0.0
  0
ARC
  5
149
330
17
100
AcDbEntity
  8
A-DOOR
100
AcDbCircle
 10
3.805
 20
-6.755
 30
0.0
 40
2.4
100
AcDbArc
 50
-90.0
 51
0.0
  0
LINE
  5
14A
330
17
100
AcDbEntity
  8
A-DOOR
100
AcDbLine
 10
4.645
 20
-8.175
 30
0.0
 11
4.645
 21
-9.275000000000002
 31
0.0
  0
ARC
  5
14B
330
17
100
AcDbEntity
  8
A-DOOR
100
AcDbCircle
 10
4.645
 20
-8.175
 30
0.0
 40
1.1
100
AcDbArc
 50
-90.0
 51
0.0
  0
LINE
  5
14C
330
17
100
AcDbEntity
  8
A-DOOR
100
AcDbLine
 10
4.845
 20
-9.535
 30
0.0
 11
5.794999999999999
 21
-9.535
 31
0.0
  0
ARC
  5
14D
330
17
100
AcDbEntity
  8
A-DOOR
100
AcDbCircle
 10
4.845
 20
-9.535
 30
0.0
 40
0.95
100
AcDbArc
 50
0.0
 51
90.0
  0
LINE
  5
14E
330
17
100
AcDbEntity
  8
A-DOOR
100
AcDbLine
 10
-15.875
 20
-13.135
 30
0.0
 11
-15.875
 21
-11.135
 31
0.0
  0
ARC
  5
14F
330
17
100
AcDbEntity
  8
A-DOOR
100
AcDbCircle
 10
-15.875
 20
-13.135
 30
0.0
 40
2.0
100
AcDbArc
 50
90.0
 51
180.0
  0
LINE
  5
150
330
17
100
AcDbEntity
  8
A-DOOR
100
AcDbLine
 10
-9.155
 20
-21.635
 30
0.0
 11
-9.155
 21
-22.335
 31
0.0
  0
ARC
  5
151
330
17
100
AcDbEntity
  8
A-DOOR
100
AcDbCircle
 10
-9.155
 20
-21.635
 30
0.0
 40
0.7
100
AcDbArc
 50
-90.0
 51
0.0
  0
LINE
  5
152
330
17
100
AcDbEntity
  8
A-DOOR
100
AcDbLine
 10
-22.915
 20
-21.425
 30
0.0
 11
-22.915
 21
-18.725
 31
0.0
  0
ARC
  5
153
330
17
100
AcDbEntity
  8
A-DOOR
100
AcDbCircle
 10
-22.915
 20
-21.425
 30
0.0
 40
2.7
100
AcDbArc
 50
90.0
 51
180.0
  0
LINE
  5
154
330
17
100
AcDbEntity
  8
A-DOOR
100
AcDbLine
 10
-22.555
 20
-10.515
 30
0.0
 11
-22.555
 21
-19.765
 31
0.0
  0
ARC
  5
155
330
17
100
AcDbEntity
  8
A-DOOR
100
AcDbCircle
 10
-22.555
 20
-10.515
 30
0.0
 40
9.25
100
AcDbArc
 50
-90.0
 51
0.0
  0
LINE
  5
156
330
17
100
AcDbEntity
  8
A-DOOR
100
AcDbLine
 10
-22.875
 20
-7.175
 30
0.0
 11
-22.875
 21
-8.025
 31
0.0
  0
ARC
  5
157
330
17
100
AcDbEntity
  8
A-DOOR
100
AcDbCircle
 10
-22.875
 20
-7.175
 30
0.0
 40
0.85
100
AcDbArc
 50
-90.0
 51
0.0
  0
LINE
  5
158
330
17
100
AcDbEntity
  8
A-DOOR
100
AcDbLine
 10
-22.215
 20
-4.875
 30
0.0
 11
-22.215
 21
-3.774999999999998
 31
0.0
  0
ARC
  5
159
330
17
100
AcDbEntity
  8
A-DOOR
100
AcDbCircle
 10
-22.215
 20
-4.875
 30
0.0
 40
1.1
100
AcDbArc
 50
90.0
 51
180.0
  0
LINE
  5
15A
330
17
100
AcDbEntity
  8
A-DOOR
100
AcDbLine
 10
-22.935
 20
-4.175
 30
0.0
 11
-22.935
 21
-1.4750000000000005
 31
0.0
  0
ARC
  5
15B
330
17
100
AcDbEntity
  8
A-DOOR
100
AcDbCircle
 10
-22.935
 20
-4.175
 30
0.0
 40
2.7
100
AcDbArc
 50
90.0
 51
180.0
  0
LINE
  5
15C
330
17
100
AcDbEntity
  8
A-DOOR
100
AcDbLine
 10
-21.835
 20
-5.495
 30
0.0
 11
-21.835
 21
-6.245000000000003
 31
0.0
  0
ARC
  5
15D
330
17
100
AcDbEntity
  8
A-DOOR
100
AcDbCircle
 10
-21.835
 20
-5.495
 30
0.0
 40
0.75
100
AcDbArc
 50
-90.0
 51
0.0
  0
LINE
  5
15E
330
17
100
AcDbEntity
  8
A-DOOR
100
AcDbLine
 10
-22.295
 20
-9.655
 30
0.0
 11
-22.995
 21
-9.655
 31
0.0
  0
ARC
  5
15F
330
17
100
AcDbEntity
  8
A-DOOR
100
AcDbCircle
 10
-22.295
 20
-9.655
 30
0.0
 40
0.7
100
AcDbArc
 50
180.0
 51
270.0
  0
LINE
  5
160
330
17
100
AcDbEntity
  8
A-DOOR
100
AcDbLine
 10
-22.215
 20
-9.695
 30
0.0
 11
-20.815
 21
-9.695
 31
0.0
  0
ARC
  5
161
330
17
100
AcDbEntity
  8
A-DOOR
100
AcDbCircle
 10
-22.215
 20
-9.695
 30
0.0
 40
1.4
100
AcDbArc
 50
0.0
 51
90.0
  0
LINE
  5
162
330
17
100
AcDbEntity
  8
A-DOOR
100
AcDbLine
 10
-19.675
 20
-9.135
 30
0.0
 11
-19.675
 21
-8.434999999999999
 31
0.0
  0
ARC
  5
163
330
17
100
AcDbEntity
  8
A-DOOR
100
AcDbCircle
 10
-19.675
 20
-9.135
 30
0.0
 40
0.7
100
AcDbArc
 50
90.0
 51
180.0
  0
LINE
  5
164
330
17
100
AcDbEntity
  8
A-DOOR
100
AcDbLine
 10
-15.695
 20
-15.095
 30
0.0
 11
-14.395000000000001
 21
-15.095
 31
0.0
  0
ARC
  5
165
330
17
100
AcDbEntity
  8
A-DOOR
100
AcDbCircle
 10
-15.695
 20
-15.095
 30
0.0
 40
1.3
100
AcDbArc
 50
0.0
 51
90.0
  0
LINE
  5
166
330
17
100
AcDbEntity
  8
A-DOOR
100
AcDbLine
 10
-10.575
 20
-15.055
 30
0.0
 11
-12.425
 21
-15.055
 31
0.0
  0
ARC
  5
167
330
17
100
AcDbEntity
  8
A-DOOR
100
AcDbCircle
 10
-10.575
 20
-15.055
 30
0.0
 40
1.85
100
AcDbArc
 50
180.0
 51
270.0
  0
LINE
  5
168
330
17
100
AcDbEntity
  8
A-DOOR
100
AcDbLine
 10
-14.125
 20
-19.135
 30
0.0
 11
-9.375000000000002
 21
-19.135
 31
0.0
  0
ARC
  5
169
330
17
100
AcDbEntity
  8
A-DOOR
100
AcDbCircle
 10
-14.125
 20
-19.135
 30
0.0
 40
4.75
100
AcDbArc
 50
0.0
 51
90.0
  0
LINE
  5
16A
330
17
100
AcDbEntity
  8
A-DOOR
100
AcDbLine
 10
-16.295
 20
1.865
 30
0.0
 11
-15.195
 21
1.865
 31
0.0
  0
ARC
  5
16B
330
17
100
AcDbEntity
  8
A-DOOR
100
AcDbCircle
 10
-16.295
 20
1.865
 30
0.0
 40
1.1
100
AcDbArc
 50
0.0
 51
90.0
  0
LINE
  5
16C
330
17
100
AcDbEntity
  8
A-DOOR
100
AcDbLine
 10
-10.275
 20
0.925
 30
0.0
 11
-10.275
 21
5.425000000000001
 31
0.0
  0
ARC
  5
16D
330
17
100
AcDbEntity
  8
A-DOOR
100
AcDbCircle
 10
-10.275
 20
0.925
 30
0.0
 40
4.5
100
AcDbArc
 50
90.0
 51
180.0
  0
LINE
  5
16E
330
17
100
AcDbEntity
  8
A-DOOR
100
AcDbLine
 10
-15.015
 20
1.965
 30
0.0
 11
-15.015
 21
4.215000000000002
 31
0.0
  0
ARC
  5
16F
330
17
100
AcDbEntity
  8
A-DOOR
100
AcDbCircle
 10
-15.015
 20
1.965
 30
0.0
 40
2.25
100
AcDbArc
 50
90.0
 51
180.0
  0
LINE
  5
170
330
17
100
AcDbEntity
  8
A-DOOR
100
AcDbLine
 10
-15.775
 20
2.745
 30
0.0
 11
-16.475
 21
2.745
 31
0.0
  0
ARC
  5
171
330
17
100
AcDbEntity
  8
A-DOOR
100
AcDbCircle
 10
-15.775
 20
2.745
 30
0.0
 40
0.7
100
AcDbArc
 50
180.0
 51
270.0
  0
LINE
  5
172
330
17
100
AcDbEntity
  8
A-DOOR
100
AcDbLine
 10
-16.495
 20
4.455
 30
0.0
 11
-16.495
 21
1.9549999999999996
 31
0.0
  0
ARC
  5
173
330
17
100
AcDbEntity
  8
A-DOOR
100
AcDbCircle
 10
-16.495
 20
4.455
 30
0.0
 40
2.5
100
AcDbArc
 50
-90.0
 51
0.0
  0
LINE
  5
174
330
17
100
AcDbEntity
  8
A-DOOR
100
AcDbLine
 10
-21.875
 20
-8.355
 30
0.0
 11
-21.875
 21
-9.255
 31
0.0
  0
ARC
  5
175
330
17
100
AcDbEntity
  8
A-DOOR
100
AcDbCircle
 10
-21.875
 20
-8.355
 30
0.0
 40
0.9
100
AcDbArc
 50
-90.0
 51
0.0
  0
LINE
  5
176
330
17
100
AcDbEntity
  8
A-DOOR
100
AcDbLine
 10
-21.795
 20
-8.535
 30
0.0
 11
-21.795
 21
-7.335000000000001
 31
0.0
  0
ARC
  5
177
330
17
100
AcDbEntity
  8
A-DOOR
100
AcDbCircle
 10
-21.795
 20
-8.535
 30
0.0
 40
1.2
100
AcDbArc
 50
90.0
 51
180.0
  0
LINE
  5
178
330
17
100
AcDbEntity
  8
A-DOOR
100
AcDbLine
 10
-13.635
 20
-9.455
 30
0.0
 11
-11.685
 21
-9.455
 31
0.0
  0
ARC
  5
179
330
17
100
AcDbEntity
  8
A-DOOR
100
AcDbCircle
 10
-13.635
 20
-9.455
 30
0.0
 40
1.95
100
AcDbArc
 50
0.0
 51
90.0
  0
LINE
  5
17A
330
17
100
AcDbEntity
  8
A-DOOR
100
AcDbLine
 10
-12.435
 20
-7.935
 30
0.0
 11
-12.435
 21
-8.834999999999999
 31
0.0
  0
ARC
  5
17B
330
17
100
AcDbEntity
  8
A-DOOR
100
AcDbCircle
 10
-12.435
 20
-7.935
 30
0.0
 40
0.9
100
AcDbArc
 50
-90.0
 51
0.0
  0
LINE
  5
17C
330
17
100
AcDbEntity
  8
A-DOOR
100
AcDbLine
 10
-12.995
 20
-8.435
 30
0.0
 11
-12.995
 21
-6.985000000000001
 31
0.0
  0
ARC
  5
17D
330
17
100
AcDbEntity
  8
A-DOOR
100
AcDbCircle
 10
-12.995
 20
-8.435
 30
0.0
 40
1.45
100
AcDbArc
 50
90.0
 51
180.0
  0
LINE
  5
17E
330
17
100
AcDbEntity
  8
A-DOOR
100
AcDbLine
 10
5.225
 20
1.105
 30
0.0
 11
3.2250000000000005
 21
1.105
 31
0.0
  0
ARC
  5
17F
330
17
100
AcDbEntity
  8
A-DOOR
100
AcDbCircle
 10
5.225
 20
1.105
 30
0.0
 40
2.0
100
AcDbArc
 50
180.0
 51
270.0
  0
LINE
  5
180
330
17
100
AcDbEntity
  8
A-DOOR
100
AcDbLine
 10
4.465
 20
16.265
 30
0.0
 11
5.665
 21
16.265
 31
0.0
  0
ARC
  5
181
330
17
100
AcDbEntity
  8
A-DOOR
100
AcDbCircle
 10
4.465
 20
16.265
 30
0.0
 40
1.2
100
AcDbArc
 50
0.0
 51
90.0
  0
LINE
  5
182
330
17
100
AcDbEntity
  8
A-DOOR
100
AcDbLine
 10
4.385
 20
13.785
 30
0.0
 11
5.485000000000001
 21
13.785
 31
0.0
  0
ARC
  5
183
330
17
100
AcDbEntity
  8
A-DOOR
100
AcDbCircle
 10
4.385
 20
13.785
 30
0.0
 40
1.1
100
AcDbArc
 50
0.0
 51
90.0
  0
LINE
  5
184
330
17
100
AcDbEntity
  8
A-DOOR
100
AcDbLine
 10
6.075
 20
16.445
 30
0.0
 11
7.525
 21
16.445
 31
0.0
  0
ARC
  5
185
330
17
100
AcDbEntity
  8
A-DOOR
100
AcDbCircle
 10
6.075
 20
16.445
 30
0.0
 40
1.45
100
AcDbArc
 50
0.0
 51
90.0
  0
LINE
  5
186
330
17
100
AcDbEntity
  8
A-DOOR
100
AcDbLine
 10
9.475
 20
16.445
 30
0.0
 11
10.725
 21
16.445
 31
0.0
  0
ARC
  5
187
330
17
100
AcDbEntity
  8
A-DOOR
100
AcDbCircle
 10
9.475
 20
16.445
 30
0.0
 40
1.25
100
AcDbArc
 50
0.0
 51
90.0
  0
LINE
  5
188
330
17
100
AcDbEntity
  8
A-DOOR
100
AcDbLine
 10
18.145
 20
16.385
 30
0.0
 11
20.895
 21
16.385
 31
0.0
  0
ARC
  5
189
330
17
100
AcDbEntity
  8
A-DOOR
100
AcDbCircle
 10
18.145
 20
16.385
 30
0.0
 40
2.75
100
AcDbArc
 50
0.0
 51
90.0
  0
LINE
  5
18A
330
17
100
AcDbEntity
  8
A-DOOR
100
AcDbLine
 10
20.965
 20
14.645
 30
0.0
 11
20.965
 21
10.645
 31
0.0
  0
ARC
  5
18B
330
17
100
AcDbEntity
  8
A-DOOR
100
AcDbCircle
 10
20.965
 20
14.645
 30
0.0
 40
4.0
100
AcDbArc
 50
-90.0
 51
0.0
  0
LINE
  5
18C
330
17
100
AcDbEntity
  8
A-DOOR
100
AcDbLine
 10
20.965
 20
5.995
 30
0.0
 11
20.965
 21
2.395
 31
0.0
  0
ARC
  5
18D
330
17
100
AcDbEntity
  8
A-DOOR
100
AcDbCircle
 10
20.965
 20
5.995
 30
0.0
 40
3.6
100
AcDbArc
 50
-90.0
 51
0.0
  0
LINE
  5
18E
330
17
100
AcDbEntity
  8
A-DOOR
100
AcDbLine
 10
20.965
 20
-6.055
 30
0.0
 11
20.965
 21
-7.154999999999999
 31
0.0
  0
ARC
  5
18F
330
17
100
AcDbEntity
  8
A-DOOR
100
AcDbCircle
 10
20.965
 20
-6.055
 30
0.0
 40
1.1
100
AcDbArc
 50
-90.0
 51
0.0
  0
LINE
  5
190
330
17
100
AcDbEntity
  8
A-DOOR
100
AcDbLine
 10
20.965
 20
-7.305
 30
0.0
 11
20.965
 21
-8.405
 31
0.0
  0
ARC
  5
191
330
17
100
AcDbEntity
  8
A-DOOR
100
AcDbCircle
 10
20.965
 20
-7.305
 30
0.0
 40
1.1
100
AcDbArc
 50
-90.0
 51
0.0
  0
LINE
  5
192
330
17
100
AcDbEntity
  8
A-DOOR
100
AcDbLine
 10
3.745
 20
-9.215
 30
0.0
 11
4.945000000000004
 21
-9.215
 31
0.0
  0
ARC
  5
193
330
17
100
AcDbEntity
  8
A-DOOR
100
AcDbCircle
 10
3.745
 20
-9.215
 30
0.0
 40
1.2
100
AcDbArc
 50
0.0
 51
90.0
  0
LINE
  5
194
330
17
100
AcDbEntity
  8
A-DOOR
100
AcDbLine
 10
-9.375
 20
-22.575
 30
0.0
 11
-10.575
 21
-22.575
 31
0.0
  0
ARC
  5
195
330
17
100
AcDbEntity
  8
A-DOOR
100
AcDbCircle
 10
-9.375
 20
-22.575
 30
0.0
 40
1.2
100
AcDbArc
 50
180.0
 51
270.0
  0
LINE
  5
196
330
17
100
AcDbEntity
  8
A-DOOR
100
AcDbLine
 10
-22.955
 20
-6.195
 30
0.0
 11
-22.955
 21
-7.194999999999999
 31
0.0
  0
ARC
  5
197
330
17
100
AcDbEntity
  8
A-DOOR
100
AcDbCircle
 10
-22.955
 20
-6.195
 30
0.0
 40
1.0
100
AcDbArc
 50
-90.0
 51
0.0
  0
LINE
  5
198
330
17
100
AcDbEntity
  8
A-DOOR
100
AcDbLine
 10
-22.875
 20
-3.615
 30
0.0
 11
-21.775000000000002
 21
-3.615
 31
0.0
  0
ARC
  5
199
330
17
100
AcDbEntity
  8
A-DOOR
100
AcDbCircle
 10
-22.875
 20
-3.615
 30
0.0
 40
1.1
100
AcDbArc
 50
0.0
 51
90.0
  0
LINE
  5
19A
330
17
100
AcDbEntity
  8
A-DOOR
100
AcDbLine
 10
-21.615
 20
-4.735
 30
0.0
 11
-21.615
 21
-3.584999999999999
 31
0.0
  0
ARC
  5
19B
330
17
100
AcDbEntity
  8
A-DOOR
100
AcDbCircle
 10
-21.615
 20
-4.735
 30
0.0
 40
1.15
100
AcDbArc
 50
90.0
 51
180.0
  0
LINE
  5
19C
330
17
100
AcDbEntity
  8
A-DOOR
100
AcDbLine
 10
-22.935
 20
-6.175
 30
0.0
 11
-21.435
 21
-6.175
 31
0.0
  0
ARC
  5
19D
330
17
100
AcDbEntity
  8
A-DOOR
100
AcDbCircle
 10
-22.935
 20
-6.175
 30
0.0
 40
1.5
100
AcDbArc
 50
0.0
 51
90.0
  0
LINE
  5
19E
330
17
100
AcDbEntity
  8
A-DOOR
100
AcDbLine
 10
-22.275
 20
-7.035
 30
0.0
 11
-21.474999999999998
 21
-7.035
 31
0.0
  0
ARC
  5
19F
330
17
100
AcDbEntity
  8
A-DOOR
100
AcDbCircle
 10
-22.275
 20
-7.035
 30
0.0
 40
0.8
100
AcDbArc
 50
0.0
 51
90.0
  0
LINE
  5
1A0
330
17
100
AcDbEntity
  8
A-DOOR
100
AcDbLine
 10
-15.655
 20
-17.385
 30
0.0
 11
-15.655
 21
-15.935000000000002
 31
0.0
  0
ARC
  5
1A1
330
17
100
AcDbEntity
  8
A-DOOR
100
AcDbCircle
 10
-15.655
 20
-17.385
 30
0.0
 40
1.45
100
AcDbArc
 50
90.0
 51
180.0
  0
LINE
  5
1A2
330
17
100
AcDbEntity
  8
A-WINDOW
100
AcDbLine
 10
6.915000000000001
 20
13.114999999999998
 30
0.0
 11
9.865
 21
13.114999999999998
 31
0.0
  0
LINE
  5
1A3
330
17
100
AcDbEntity
  8
A-WINDOW
100
AcDbLine
 10
6.915000000000001
 20
13.215
 30
0.0
 11
9.865
 21
13.215
 31
0.0
  0
LINE
  5
1A4
330
17
100
AcDbEntity
  8
A-WINDOW
100
AcDbLine
 10
20.915
 20
1.795
 30
0.0
 11
20.915
 21
0.245
 31
0.0
  0
LINE
  5
1A5
330
17
100
AcDbEntity
  8
A-WINDOW
100
AcDbLine
 10
21.015
 20
1.795
 30
0.0
 11
21.015
 21
0.245
 31
0.0
  0
LINE
  5
1A6
330
17
100
AcDbEntity
  8
A-WINDOW
100
AcDbLine
 10
20.915
 20
-4.355
 30
0.0
 11
20.915
 21
-4.855
 31
0.0
  0
LINE
  5
1A7
330
17
100
AcDbEntity
  8
A-WINDOW
100
AcDbLine
 10
21.015
 20
-4.355
 30
0.0
 11
21.015
 21
-4.855
 31
0.0
  0
LINE
  5
1A8
330
17
100
AcDbEntity
  8
A-WINDOW
100
AcDbLine
 10
5.8549999999999995
 20
-9.235
 30
0.0
 11
5.8549999999999995
 21
-7.534999999999999
 31
0.0
  0
LINE
  5
1A9
330
17
100
AcDbEntity
  8
A-WINDOW
100
AcDbLine
 10
5.755
 20
-9.235
 30
0.0
 11
5.755
 21
-7.534999999999999
 31
0.0
  0
LINE
  5
1AA
330
17
100
AcDbEntity
  8
A-WINDOW
100
AcDbLine
 10
5.865
 20
-6.5249999999999995
 30
0.0
 11
7.965
 21
-6.5249999999999995
 31
0.0
  0
LINE
  5
1AB
330
17
100
AcDbEntity
  8
A-WINDOW
100
AcDbLine
 10
5.865
 20
-6.425
 30
0.0
 11
7.965
 21
-6.425
 31
0.0
  0
LINE
  5
1AC
330
17
100
AcDbEntity
  8
A-WINDOW
100
AcDbLine
 10
-10.625
 20
-11.834999999999999
 30
0.0
 11
-10.625
 21
-14.185
 31
0.0
  0
LINE
  5
1AD
330
17
100
AcDbEntity
  8
A-WINDOW
100
AcDbLine
 10
-10.524999999999999
 20
-11.834999999999999
 30
0.0
 11
-10.524999999999999
 21
-14.185
 31
0.0
  0
LWPOLYLINE
  5
1AE
330
17
100
AcDbEntity
  8
A-ROOM
100
AcDbPolyline
 90
4
 70
1
 10
1.385
 20
-9.515
 10
20.825
 20
-9.515
 10
20.825
 20
16.405
 10
1.385
 20
16.405
  0
TEXT
  5
1AF
330
17
100
AcDbEntity
  8
A-TEXT
100
AcDbText
 10
12.7862
 20
3.1366
 30
0.0
 40
0.25
  1
R1  400.0 m²
 72
1
 11
12.7862
 21
3.1366
 31
0.0
100
AcDbText
 73
2
  0
LWPOLYLINE
  5
1B0
330
17
100
AcDbEntity
  8
A-ROOM
100
AcDbPolyline
 90
4
 70
1
 10
-22.335
 20
2.965
 10
-8.295
 20
2.965
 10
-8.295
 20
16.105
 10
-22.335
 20
16.105
  0
TEXT
  5
1B1
330
17
100
AcDbEntity
  8
A-TEXT
100
AcDbText
 10
-14.3274
 20
11.0393
 30
0.0
 40
0.25
  1
R2  81.4 m²
 72
1
 11
-14.3274
 21
11.0393
 31
0.0
100
AcDbText
 73
2
  0
LWPOLYLINE
  5
1B2
330
17
100
AcDbEntity
  8
A-ROOM
100
AcDbPolyline
 90
4
 70
1
 10
-21.955
 20
4.665
 10
-16.995
 20
4.665
 10
-16.995
 20
12.325
 10
-21.955
 20
12.325
  0
TEXT
  5
1B3
330
17
100
AcDbEntity
  8
A-TEXT
100
AcDbText
 10
-19.5265
 20
8.5471
 30
0.0
 40
0.25
  1
R3  34.5 m²
 72
1
 11
-19.5265
 21
8.5471
 31
0.0
100
AcDbText
 73
2
  0
LWPOLYLINE
  5
1B4
330
17
100
AcDbEntity
  8
A-ROOM
100
AcDbPolyline
 90
4
 70
1
 10
-15.635
 20
-14.875
 10
-10.795
 20
-14.875
 10
-10.795
 20
-10.975
 10
-15.635
 20
-10.975
  0
TEXT
  5
1B5
330
17
100
AcDbEntity
  8
A-TEXT
100
AcDbText
 10
-13.2017
 20
-12.8401
 30
0.0
 40
0.25
  1
R4  18.0 m²
 72
1
 11
-13.2017
 21
-12.8401
 31
0.0
100
AcDbText
 73
2
  0
LWPOLYLINE
  5
1B6
330
17
100
AcDbEntity
  8
A-ROOM
100
AcDbPolyline
 90
4
 70
1
 10
-15.415
 20
-22.355
 10
-9.375
 20
-22.355
 10
-9.375
 20
-19.235
 10
-15.415
 20
-19.235
  0
TEXT
  5
1B7
330
17
100
AcDbEntity
  8
A-TEXT
100
AcDbText
 10
-12.2564
 20
-20.7068
 30
0.0
 40
0.25
  1
R5  14.6 m²
 72
1
 11
-12.2564
 21
-20.7068
 31
0.0
100
AcDbText
 73
2
  0
LWPOLYLINE
  5
1B8
330
17
100
AcDbEntity
  8
A-ROOM
100
AcDbPolyline
 90
4
 70
1
 10
-22.315
 20
-21.535
 10
-16.675
 20
-21.535
 10
-16.675
 20
-19.695
 10
-22.315
 20
-19.695
  0
TEXT
  5
1B9
330
17
100
AcDbEntity
  8
A-TEXT
100
AcDbText
 10
-19.292
 20
-20.5237
 30
0.0
 40
0.25
  1
R6  8.9 m²
 72
1
 11
-19.292
 21
-20.5237
 31
0.0
100
AcDbText
 73
2
  0
LWPOLYLINE
  5
1BA
330
17
100
AcDbEntity
  8
A-ROOM
100
AcDbPolyline
 90
4
 70
1
 10
-23.775
 20
-19.055
 10
-22.775
 20
-19.055
 10
-22.775
 20
-9.855
 10
-23.775
 20
-9.855
  0
TEXT
  5
1BB
330
17
100
AcDbEntity
  8
A-TEXT
100
AcDbText
 10
-23.3128
 20
-14.483
 30
0.0
 40
0.25
  1
R7  8.4 m²
 72
1
 11
-23.3128
 21
-14.483
 31
0.0
100
AcDbText
 73
2
  0
LWPOLYLINE
  5
1BC
330
17
100
AcDbEntity
  8
A-ROOM
100
AcDbPolyline
 90
4
 70
1
 10
-15.415
 20
-19.055
 10
-10.875
 20
-19.055
 10
-10.875
 20
-15.335
 10
-15.415
 20
-15.335
  0
TEXT
  5
1BD
330
17
100
AcDbEntity
  8
A-TEXT
100
AcDbText
 10
-13.7146
 20
-16.7172
 30
0.0
 40
0.25
  1
R8  7.9 m²
 72
1
 11
-13.7146
 21
-16.7172
 31
0.0
100
AcDbText
 73
2
  0
LWPOLYLINE
  5
1BE
330
17
100
AcDbEntity
  8
A-ROOM
100
AcDbPolyline
 90
4
 70
1
 10
1.485
 20
13.385
 10
4.565
 20
13.385
 10
4.565
 20
16.225
 10
1.485
 20
16.225
  0
TEXT
  5
1BF
330
17
100
AcDbEntity
  8
A-TEXT
100
AcDbText
 10
2.8753
 20
14.9085
 30
0.0
 40
0.25
  1
R9  7.5 m²
 72
1
 11
2.8753
 21
14.9085
 31
0.0
100
AcDbText
 73
2
  0
LWPOLYLINE
  5
1C0
330
17
100
AcDbEntity
  8
A-ROOM
100
AcDbPolyline
 90
4
 70
1
 10
1.265
 20
-9.315
 10
3.585
 20
-9.315
 10
3.585
 20
-6.495
 10
1.265
 20
-6.495
  0
TEXT
  5
1C1
330
17
100
AcDbEntity
  8
A-TEXT
100
AcDbText
 10
2.3686
 20
-7.8997
 30
0.0
 40
0.25
  1
R10  6.1 m²
 72
1
 11
2.3686
 21
-7.8997
 31
0.0
100
AcDbText
 73
2
  0
LWPOLYLINE
  5
1C2
330
17
100
AcDbEntity
  8
A-ROOM
100
AcDbPolyline
 90
4
 70
1
 10
2.685
 20
-0.415
 10
5.125
 20
-0.415
 10
5.125
 20
0.865
 10
2.685
 20
0.865
  0
TEXT
  5
1C3
330
17
100
AcDbEntity
  8
A-TEXT
100
AcDbText
 10
4.0546
 20
0.3688
 30
0.0
 40
0.25
  1
R11  2.2 m²
 72
1
 11
4.0546
 21
0.3688
 31
0.0
100
AcDbText
 73
2
  0
LWPOLYLINE
  5
1C4
330
17
100
AcDbEntity
  8
A-ROOM
100
AcDbPolyline
 90
4
 70
1
 10
-23.775
 20
-6.035
 10
-22.435
 20
-6.035
 10
-22.435
 20
-3.635
 10
-23.775
 20
-3.635
  0
TEXT
  5
1C5
330
17
100
AcDbEntity
  8
A-TEXT
100
AcDbText
 10
-23.3026
 20
-4.9468
 30
0.0
 40
0.25
  1
R12  1.9 m²
 72
1
 11
-23.3026
 21
-4.9468
 31
0.0
100
AcDbText
 73
2
  0
LWPOLYLINE
  5
1C6
330
17
100
AcDbEntity
  8
A-ROOM
100
AcDbPolyline
 90
4
 70
1
 10
2.965
 20
10.505
 10
3.585
 20
10.505
 10
3.585
 20
12.925
 10
2.965
 20
12.925
  0
TEXT
  5
1C7
330
17
100
AcDbEntity
  8
A-TEXT
100
AcDbText
 10
3.265
 20
11.725
 30
0.0
 40
0.25
  1
R13  1.5 m²
 72
1
 11
3.265
 21
11.725
 31
0.0
100
AcDbText
 73
2
  0
LWPOLYLINE
  5
1C8
330
17
100
AcDbEntity
  8
A-ROOM
100
AcDbPolyline
 90
4
 70
1
 10
-11.635
 20
-9.235
 10
-10.935
 20
-9.235
 10
-10.935
 20
-7.335
 10
-11.635
 20
-7.335
  0
TEXT
  5
1C9
330
17
100
AcDbEntity
  8
A-TEXT
100
AcDbText
 10
-11.295
 20
-8.275
 30
0.0
 40
0.25
  1
R14  1.3 m²
 72
1
 11
-11.295
 21
-8.275
 31
0.0
100
AcDbText
 73
2
  0
LWPOLYLINE
  5
1CA
330
17
100
AcDbEntity
  8
A-ROOM
100
AcDbPolyline
 90
4
 70
1
 10
-10.475
 20
-8.775
 10
-9.495
 20
-8.775
 10
-9.495
 20
-7.335
 10
-10.475
 20
-7.335
  0
TEXT
  5
1CB
330
17
100
AcDbEntity
  8
A-TEXT
100
AcDbText
 10
-10.0067
 20
-7.9802
 30
0.0
 40
0.25
  1
R15  1.3 m²
 72
1
 11
-10.0067
 21
-7.9802
 31
0.0
100
AcDbText
 73
2
  0
LWPOLYLINE
  5
1CC
330
17
100
AcDbEntity
  8
A-ROOM
100
AcDbPolyline
 90
4
 70
1
 10
-23.775
 20
-9.475
 10
-23.135
 20
-9.475
 10
-23.135
 20
-7.355
 10
-23.775
 20
-7.355
  0
TEXT
  5
1CD
330
17
100
AcDbEntity
  8
A-TEXT
100
AcDbText
 10
-23.4898
 20
-8.4204
 30
0.0
 40
0.25
  1
R16  1.2 m²
 72
1
 11
-23.4898
 21
-8.4204
 31
0.0
100
AcDbText
 73
2
  0
LWPOLYLINE
  5
1CE
330
17
100
AcDbEntity
  8
A-ROOM
100
AcDbPolyline
 90
4
 70
1
 10
-13.895
 20
-18.915
 10
-13.035
 20
-18.915
 10
-13.035
 20
-17.415
 10
-13.895
 20
-17.415
  0
TEXT
  5
1CF
330
17
100
AcDbEntity
  8
A-TEXT
100
AcDbText
 10
-13.4943
 20
-18.1107
 30
0.0
 40
0.25
  1
R17  1.2 m²
 72
1
 11
-13.4943
 21
-18.1107
 31
0.0
100
AcDbText
 73
2
  0
LWPOLYLINE
  5
1D0
330
17
100
AcDbEntity
  8
A-ROOM
100
AcDbPolyline
 90
4
 70
1
 10
-12.575
 20
-18.635
 10
-11.775
 20
-18.635
 10
-11.775
 20
-17.415
 10
-12.575
 20
-17.415
  0
TEXT
  5
1D1
330
17
100
AcDbEntity
  8
A-TEXT
100
AcDbText
 10
-12.1943
 20
-17.9968
 30
0.0
 40
0.25
  1
R18  0.9 m²
 72
1
 11
-12.1943
 21
-17.9968
 31
0.0
100
AcDbText
 73
2
  0
TEXT
  5
1D2
330
17
100
AcDbEntity
  8
A-TEXT
100
AcDbText
 10
-23.475000381469727
 20
-24.575000762939453
 30
0.0
 40
0.4
  1
Floor 0  —  231 walls  ·  67 doors  ·  6 windows
 11
-23.475000381469727
 21
-24.575000762939453
 31
0.0
100
AcDbText
  0
ENDSEC
  0
SECTION
  2
OBJECTS
  0
DICTIONARY
  5
A
330
0
100
AcDbDictionary
281
1
  3
ACAD_COLOR
350
B
  3
ACAD_GROUP
350
C
  3
ACAD_LAYOUT
350
D
  3
ACAD_MATERIAL
350
E
  3
ACAD_MLEADERSTYLE
350
F
  3
ACAD_MLINESTYLE
350
10
  3
ACAD_PLOTSETTINGS
350
11
  3
ACAD_PLOTSTYLENAME
350
12
  3
ACAD_SCALELIST
350
14
  3
ACAD_TABLESTYLE
350
15
  3
ACAD_VISUALSTYLE
350
16
  3
EZDXF_META
350
2D
  0
DICTIONARY
  5
B
330
A
100
AcDbDictionary
281
1
  0
DICTIONARY
  5
C
330
A
100
AcDbDictionary
281
1
  0
DICTIONARY
  5
D
330
A
100
AcDbDictionary
281
1
  3
Model
350
1A
  3
Layout1
350
1E
  0
DICTIONARY
  5
E
330
A
100
AcDbDictionary
281
1
  3
ByBlock
350
1F
  3
ByLayer
350
20
  3
Global
350
21
  0
DICTIONARY
  5
F
330
A
100
AcDbDictionary
281
1
  3
Standard
350
2C
  0
DICTIONARY
  5
10
330
A
100
AcDbDictionary
281
1
  3
Standard
350
22
  0
DICTIONARY
  5
11
330
A
100
AcDbDictionary
281
1
  0
ACDBDICTIONARYWDFLT
  5
12
330
A
100
AcDbDictionary
281
1
  3
Normal
350
13
100
AcDbDictionaryWithDefault
340
13
  0
ACDBPLACEHOLDER
  5
13
330
12
  0
DICTIONARY
  5
14
330
A
100
AcDbDictionary
281
1
  0
DICTIONARY
  5
15
330
A
100
AcDbDictionary
281
1
  0
DICTIONARY
  5
16
330
A
100
AcDbDictionary
281
1
  0
LAYOUT
  5
1A
330
D
100
AcDbPlotSettings
  1

  4
A3
  6

 40
7.5
 41
20.0
 42
7.5
 43
20.0
 44
420.0
 45
297.0
 46
0.0
 47
0.0
 48
0.0
 49
0.0
140
0.0
141
0.0
142
1.0
143
1.0
 70
1024
 72
1
 73
0
 74
5
  7

 75
16
 76
0
 77
2
 78
300
147
1.0
148
0.0
149
0.0
100
AcDbLayout
  1
Model
 70
1
 71
0
 10
0.0
 20
0.0
 11
420.0
 21
297.0
 12
0.0
 22
0.0
 32
0.0
 14
1e+20
 24
1e+20
 34
1e+20
 15
-1e+20
 25
-1e+20
 35
-1e+20
146
0.0
 13
0.0
 23
0.0
 33
0.0
 16
1.0
 26
0.0
 36
0.0
 17
0.0
 27
1.0
 37
0.0
 76
1
330
17
  0
LAYOUT
  5
1E
330
D
100
AcDbPlotSettings
  1

  4
A3
  6

 40
7.5
 41
20.0
 42
7.5
 43
20.0
 44
420.0
 45
297.0
 46
0.0
 47
0.0
 48
0.0
 49
0.0
140
0.0
141
0.0
142
1.0
143
1.0
 70
0
 72
1
 73
0
 74
5
  7

 75
16
 76
0
 77
2
 78
300
147
1.0
148
0.0
149
0.0
100
AcDbLayout
  1
Layout1
 70
1
 71
1
 10
0.0
 20
0.0
 11
420.0
 21
297.0
 12
0.0
 22
0.0
 32
0.0
 14
1e+20
 24
1e+20
 34
1e+20
 15
-1e+20
 25
-1e+20
 35
-1e+20
146
0.0
 13
0.0
 23
0.0
 33
0.0
 16
1.0
 26
0.0
 36
0.0
 17
0.0
 27
1.0
 37
0.0
 76
1
330
1B
  0
MATERIAL
  5
1F
102
{ACAD_REACTORS
330
E
102
}
330
E
100
AcDbMaterial
  1
ByBlock
  2

 70
0
 40
1.0
 71
1
 41
1.0
 91
-1023410177
 42
1.0
 72
1
  3

 73
1
 74
1
 75
1
 44
0.5
 73
0
 45
1.0
 46
1.0
 77
1
  4

 78
1
 79
1
170
1
 48
1.0
171
1
  6

172
1
173
1
174
1
140
1.0
141
1.0
175
1
  7

176
1
177
1
178
1
143
1.0
179
1
  8

270
1
271
1
272
1
145
1.0
146
1.0
273
1
  9

274
1
275
1
276
1
 42
1.0
 72
1
  3

 73
1
 74
1
 75
1
 94
63
  0
MATERIAL
  5
20
102
{ACAD_REACTORS
330
E
102
}
330
E
100
AcDbMaterial
  1
ByLayer
  2

 70
0
 40
1.0
 71
1
 41
1.0
 91
-1023410177
 42
1.0
 72
1
  3

 73
1
 74
1
 75
1
 44
0.5
 73
0
 45
1.0
 46
1.0
 77
1
  4

 78
1
 79
1
170
1
 48
1.0
171
1
  6

172
1
173
1
174
1
140
1.0
141
1.0
175
1
  7

176
1
177
1
178
1
143
1.0
179
1
  8

270
1
271
1
272
1
145
1.0
146
1.0
273
1
  9

274
1
275
1
276
1
 42
1.0
 72
1
  3

 73
1
 74
1
 75
1
 94
63
  0
MATERIAL
  5
21
102
{ACAD_REACTORS
330
E
102
}
330
E
100
AcDbMaterial
  1
Global
  2

 70
0
 40
1.0
 71
1
 41
1.0
 91
-1023410177
 42
1.0
 72
1
  3

 73
1
 74
1
 75
1
 44
0.5
 73
0
 45
1.0
 46
1.0
 77
1
  4

 78
1
 79
1
170
1
 48
1.0
171
1
  6

172
1
173
1
174
1
140
1.0
141
1.0
175
1
  7

176
1
177
1
178
1
143
1.0
179
1
  8

270
1
271
1
272
1
145
1.0
146
1.0
273
1
  9

274
1
275
1
276
1
 42
1.0
 72
1
  3

 73
1
 74
1
 75
1
 94
63
  0
MLINESTYLE
  5
22
102
{ACAD_REACTORS
330
10
102
}
330
10
100
AcDbMlineStyle
  2
Standard
 70
0
  3

 62
256
 51
90.0
 52
90.0
 71
2
 49
0.5
 62
256
  6
BYLAYER
 49
-0.5
 62
256
  6
BYLAYER
  0
MLEADERSTYLE
  5
2C
102
{ACAD_REACTORS
330
F
102
}
330
F
100
AcDbMLeaderStyle
179
2
170
2
171
1
172
0
 90
2
 40
0.0
 41
0.0
173
1
 91
-1056964608
 92
-2
290
1
 42
2.0
291
1
 43
8.0
  3
Standard
 44
4.0
300

342
29
174
1
175
1
176
0
178
1
 93
-1056964608
 45
4.0
292
0
297
0
 46
4.0
 94
-1056964608
 47
1.0
 49
1.0
140
1.0
294
1
141
0.0
177
0
142
1.0
295
0
296
0
143
3.75
271
0
272
9
273
9
  0
DICTIONARY
  5
2D
330
A
100
AcDbDictionary
280
1
281
1
  3
CREATED_BY_EZDXF
350
2E
  3
WRITTEN_BY_EZDXF
350
1D5
  0
DICTIONARYVAR
  5
2E
330
2D
100
DictionaryVariables
280
0
  1
1.4.3 @ 2026-04-13T10:09:24.573200+00:00
  0
DICTIONARYVAR
  5
1D5
330
2D
100
DictionaryVariables
280
0
  1
1.4.3 @ 2026-04-13T10:09:24.585060+00:00
  0
ENDSEC
  0
EOF
