  0
SECTION
  2
HEADER
  9
$ACADVER
  1
AC1024
  9
$ACADMAINTVER
 70
6
  9
$DWGCODEPAGE
  3
ANSI_1252
  9
$LASTSAVEDBY
  1
ezdxf
  9
$INSBASE
 10
0.0
 20
0.0
 30
0.0
  9
$EXTMIN
 10
1e+20
 20
1e+20
 30
1e+20
  9
$EXTMAX
 10
-1e+20
 20
-1e+20
 30
-1e+20
  9
$LIMMIN
 10
0.0
 20
0.0
  9
$LIMMAX
 10
420.0
 20
297.0
  9
$ORTHOMODE
 70
0
  9
$REGENMODE
 70
1
  9
$FILLMODE
 70
1
  9
$QTEXTMODE
 70
0
  9
$MIRRTEXT
 70
1
  9
$LTSCALE
 40
1.0
  9
$ATTMODE
 70
1
  9
$TEXTSIZE
 40
2.5
  9
$TRACEWID
 40
1.0
  9
$TEXTSTYLE
  7
Standard
  9
$CLAYER
  8
0
  9
$CELTYPE
  6
ByLayer
  9
$CECOLOR
 62
256
  9
$CELTSCALE
 40
1.0
  9
$DISPSILH
 70
0
  9
$DIMSCALE
 40
1.0
  9
$DIMASZ
 40
2.5
  9
$DIMEXO
 40
0.625
  9
$DIMDLI
 40
3.75
  9
$DIMRND
 40
0.0
  9
$DIMDLE
 40
0.0
  9
$DIMEXE
 40
1.25
  9
$DIMTP
 40
0.0
  9
$DIMTM
 40
0.0
  9
$DIMTXT
 40
2.5
  9
$DIMCEN
 40
2.5
  9
$DIMTSZ
 40
0.0
  9
$DIMTOL
 70
0
  9
$DIMLIM
 70
0
  9
$DIMTIH
 70
0
  9
$DIMTOH
 70
0
  9
$DIMSE1
 70
0
  9
$DIMSE2
 70
0
  9
$DIMTAD
 70
1
  9
$DIMZIN
 70
8
  9
$DIMBLK
  1

  9
$DIMASO
 70
1
  9
$DIMSHO
 70
1
  9
$DIMPOST
  1

  9
$DIMAPOST
  1

  9
$DIMALT
 70
0
  9
$DIMALTD
 70
3
  9
$DIMALTF
 40
0.03937007874
  9
$DIMLFAC
 40
1.0
  9
$DIMTOFL
 70
1
  9
$DIMTVP
 40
0.0
  9
$DIMTIX
 70
0
  9
$DIMSOXD
 70
0
  9
$DIMSAH
 70
0
  9
$DIMBLK1
  1

  9
$DIMBLK2
  1

  9
$DIMSTYLE
  2
ISO-25
  9
$DIMCLRD
 70
0
  9
$DIMCLRE
 70
0
  9
$DIMCLRT
 70
0
  9
$DIMTFAC
 40
1.0
  9
$DIMGAP
 40
0.625
  9
$DIMJUST
 70
0
  9
$DIMSD1
 70
0
  9
$DIMSD2
 70
0
  9
$DIMTOLJ
 70
0
  9
$DIMTZIN
 70
8
  9
$DIMALTZ
 70
0
  9
$DIMALTTZ
 70
0
  9
$DIMUPT
 70
0
  9
$DIMDEC
 70
2
  9
$DIMTDEC
 70
2
  9
$DIMALTU
 70
2
  9
$DIMALTTD
 70
3
  9
$DIMTXSTY
  7
Standard
  9
$DIMAUNIT
 70
0
  9
$DIMADEC
 70
0
  9
$DIMALTRND
 40
0.0
  9
$DIMAZIN
 70
0
  9
$DIMDSEP
 70
44
  9
$DIMATFIT
 70
3
  9
$DIMFRAC
 70
0
  9
$DIMLDRBLK
  1

  9
$DIMLUNIT
 70
2
  9
$DIMLWD
 70
-2
  9
$DIMLWE
 70
-2
  9
$DIMTMOVE
 70
0
  9
$DIMFXL
 40
1.0
  9
$DIMFXLON
 70
0
  9
$DIMJOGANG
 40
0.785398163397
  9
$DIMTFILL
 70
0
  9
$DIMTFILLCLR
 70
0
  9
$DIMARCSYM
 70
0
  9
$DIMLTYPE
  6

  9
$DIMLTEX1
  6

  9
$DIMLTEX2
  6

  9
$DIMTXTDIRECTION
 70
0
  9
$LUNITS
 70
2
  9
$LUPREC
 70
4
  9
$SKETCHINC
 40
1.0
  9
$FILLETRAD
 40
10.0
  9
$AUNITS
 70
0
  9
$AUPREC
 70
2
  9
$MENU
  1
.
  9
$ELEVATION
 40
0.0
  9
$PELEVATION
 40
0.0
  9
$THICKNESS
 40
0.0
  9
$LIMCHECK
 70
0
  9
$CHAMFERA
 40
0.0
  9
$CHAMFERB
 40
0.0
  9
$CHAMFERC
 40
0.0
  9
$CHAMFERD
 40
0.0
  9
$SKPOLY
 70
0
  9
$TDCREATE
 40
2461147.5517592593
  9
$TDUCREATE
 40
2458532.153996898
  9
$TDUPDATE
 40
2461147.5517592593
  9
$TDUUPDATE
 40
2458532.1544311
  9
$TDINDWG
 40
0.0
  9
$TDUSRTIMER
 40
0.0
  9
$USRTIMER
 70
1
  9
$ANGBASE
 50
0.0
  9
$ANGDIR
 70
0
  9
$PDMODE
 70
0
  9
$PDSIZE
 40
0.0
  9
$PLINEWID
 40
0.0
  9
$SPLFRAME
 70
0
  9
$SPLINETYPE
 70
6
  9
$SPLINESEGS
 70
8
  9
$HANDSEED
  5
138
  9
$SURFTAB1
 70
6
  9
$SURFTAB2
 70
6
  9
$SURFTYPE
 70
6
  9
$SURFU
 70
6
  9
$SURFV
 70
6
  9
$UCSBASE
  2

  9
$UCSNAME
  2

  9
$UCSORG
 10
0.0
 20
0.0
 30
0.0
  9
$UCSXDIR
 10
1.0
 20
0.0
 30
0.0
  9
$UCSYDIR
 10
0.0
 20
1.0
 30
0.0
  9
$UCSORTHOREF
  2

  9
$UCSORTHOVIEW
 70
0
  9
$UCSORGTOP
 10
0.0
 20
0.0
 30
0.0
  9
$UCSORGBOTTOM
 10
0.0
 20
0.0
 30
0.0
  9
$UCSORGLEFT
 10
0.0
 20
0.0
 30
0.0
  9
$UCSORGRIGHT
 10
0.0
 20
0.0
 30
0.0
  9
$UCSORGFRONT
 10
0.0
 20
0.0
 30
0.0
  9
$UCSORGBACK
 10
0.0
 20
0.0
 30
0.0
  9
$PUCSBASE
  2

  9
$PUCSNAME
  2

  9
$PUCSORG
 10
0.0
 20
0.0
 30
0.0
  9
$PUCSXDIR
 10
1.0
 20
0.0
 30
0.0
  9
$PUCSYDIR
 10
0.0
 20
1.0
 30
0.0
  9
$PUCSORTHOREF
  2

  9
$PUCSORTHOVIEW
 70
0
  9
$PUCSORGTOP
 10
0.0
 20
0.0
 30
0.0
  9
$PUCSORGBOTTOM
 10
0.0
 20
0.0
 30
0.0
  9
$PUCSORGLEFT
 10
0.0
 20
0.0
 30
0.0
  9
$PUCSORGRIGHT
 10
0.0
 20
0.0
 30
0.0
  9
$PUCSORGFRONT
 10
0.0
 20
0.0
 30
0.0
  9
$PUCSORGBACK
 10
0.0
 20
0.0
 30
0.0
  9
$USERI1
 70
0
  9
$USERI2
 70
0
  9
$USERI3
 70
0
  9
$USERI4
 70
0
  9
$USERI5
 70
0
  9
$USERR1
 40
0.0
  9
$USERR2
 40
0.0
  9
$USERR3
 40
0.0
  9
$USERR4
 40
0.0
  9
$USERR5
 40
0.0
  9
$WORLDVIEW
 70
1
  9
$SHADEDGE
 70
3
  9
$SHADEDIF
 70
70
  9
$TILEMODE
 70
1
  9
$MAXACTVP
 70
64
  9
$PINSBASE
 10
0.0
 20
0.0
 30
0.0
  9
$PLIMCHECK
 70
0
  9
$PEXTMIN
 10
1e+20
 20
1e+20
 30
1e+20
  9
$PEXTMAX
 10
-1e+20
 20
-1e+20
 30
-1e+20
  9
$PLIMMIN
 10
0.0
 20
0.0
  9
$PLIMMAX
 10
420.0
 20
297.0
  9
$UNITMODE
 70
0
  9
$VISRETAIN
 70
1
  9
$PLINEGEN
 70
0
  9
$PSLTSCALE
 70
1
  9
$TREEDEPTH
 70
3020
  9
$CMLSTYLE
  2
Standard
  9
$CMLJUST
 70
0
  9
$CMLSCALE
 40
20.0
  9
$PROXYGRAPHICS
 70
1
  9
$MEASUREMENT
 70
1
  9
$CELWEIGHT
370
-1
  9
$ENDCAPS
280
0
  9
$JOINSTYLE
280
0
  9
$LWDISPLAY
290
0
  9
$INSUNITS
 70
6
  9
$HYPERLINKBASE
  1

  9
$STYLESHEET
  1

  9
$XEDIT
290
1
  9
$CEPSNTYPE
380
0
  9
$PSTYLEMODE
290
1
  9
$FINGERPRINTGUID
  2
{858C3054-BDAD-4FD5-97FA-8AF079F232E1}
  9
$VERSIONGUID
  2
{9DE34C11-A371-4533-A051-9A72C244C761}
  9
$EXTNAMES
290
1
  9
$PSVPSCALE
 40
0.0
  9
$OLESTARTUP
290
0
  9
$SORTENTS
280
127
  9
$INDEXCTL
280
0
  9
$HIDETEXT
280
1
  9
$XCLIPFRAME
280
1
  9
$HALOGAP
280
0
  9
$OBSCOLOR
 70
257
  9
$OBSLTYPE
280
0
  9
$INTERSECTIONDISPLAY
280
0
  9
$INTERSECTIONCOLOR
 70
257
  9
$DIMASSOC
280
2
  9
$PROJECTNAME
  1

  9
$CAMERADISPLAY
290
0
  9
$LENSLENGTH
 40
50.0
  9
$CAMERAHEIGHT
 40
0.0
  9
$STEPSPERSEC
 40
24.0
  9
$STEPSIZE
 40
100.0
  9
$3DDWFPREC
 40
2.0
  9
$PSOLWIDTH
 40
0.005
  9
$PSOLHEIGHT
 40
0.08
  9
$LOFTANG1
 40
1.570796326795
  9
$LOFTANG2
 40
1.570796326795
  9
$LOFTMAG1
 40
0.0
  9
$LOFTMAG2
 40
0.0
  9
$LOFTPARAM
 70
7
  9
$LOFTNORMALS
280
1
  9
$LATITUDE
 40
37.795
  9
$LONGITUDE
 40
-122.394
  9
$NORTHDIRECTION
 40
0.0
  9
$TIMEZONE
 70
-8000
  9
$LIGHTGLYPHDISPLAY
280
1
  9
$TILEMODELIGHTSYNCH
280
1
  9
$CMATERIAL
347
20
  9
$SOLIDHIST
280
0
  9
$SHOWHIST
280
1
  9
$DWFFRAME
280
2
  9
$DGNFRAME
280
2
  9
$REALWORLDSCALE
290
1
  9
$INTERFERECOLOR
 62
256
  9
$CSHADOW
280
0
  9
$SHADOWPLANELOCATION
 40
0.0
  0
ENDSEC
  0
SECTION
  2
CLASSES
  0
CLASS
  1
ACDBDICTIONARYWDFLT
  2
AcDbDictionaryWithDefault
  3
ObjectDBX Classes
 90
0
 91
0
280
0
281
0
  0
CLASS
  1
SUN
  2
AcDbSun
  3
SCENEOE
 90
1153
 91
0
280
0
281
0
  0
CLASS
  1
VISUALSTYLE
  2
AcDbVisualStyle
  3
ObjectDBX Classes
 90
4095
 91
0
280
0
281
0
  0
CLASS
  1
MATERIAL
  2
AcDbMaterial
  3
ObjectDBX Classes
 90
1153
 91
0
280
0
281
0
  0
CLASS
  1
SCALE
  2
AcDbScale
  3
ObjectDBX Classes
 90
1153
 91
0
280
0
281
0
  0
CLASS
  1
TABLESTYLE
  2
AcDbTableStyle
  3
ObjectDBX Classes
 90
4095
 91
0
280
0
281
0
  0
CLASS
  1
MLEADERSTYLE
  2
AcDbMLeaderStyle
  3
ACDB_MLEADERSTYLE_CLASS
 90
4095
 91
0
280
0
281
0
  0
CLASS
  1
DICTIONARYVAR
  2
AcDbDictionaryVar
  3
ObjectDBX Classes
 90
0
 91
0
280
0
281
0
  0
CLASS
  1
CELLSTYLEMAP
  2
AcDbCellStyleMap
  3
ObjectDBX Classes
 90
1152
 91
0
280
0
281
0
  0
CLASS
  1
MENTALRAYRENDERSETTINGS
  2
AcDbMentalRayRenderSettings
  3
SCENEOE
 90
1024
 91
0
280
0
281
0
  0
CLASS
  1
ACDBDETAILVIEWSTYLE
  2
AcDbDetailViewStyle
  3
ObjectDBX Classes
 90
1025
 91
0
280
0
281
0
  0
CLASS
  1
ACDBSECTIONVIEWSTYLE
  2
AcDbSectionViewStyle
  3
ObjectDBX Classes
 90
1025
 91
0
280
0
281
0
  0
CLASS
  1
RASTERVARIABLES
  2
AcDbRasterVariables
  3
ISM
 90
0
 91
0
280
0
281
0
  0
CLASS
  1
LAYOUT
  2
AcDbLayout
  3
ObjectDBX Classes
 90
0
 91
0
280
0
281
0
  0
CLASS
  1
ACDBPLACEHOLDER
  2
AcDbPlaceHolder
  3
ObjectDBX Classes
 90
0
 91
0
280
0
281
0
  0
ENDSEC
  0
SECTION
  2
TABLES
  0
TABLE
  2
VPORT
  5
8
330
0
100
AcDbSymbolTable
 70
1
  0
VPORT
  5
23
330
8
100
AcDbSymbolTableRecord
100
AcDbViewportTableRecord
  2
*Active
 70
0
 10
0.0
 20
0.0
 11
1.0
 21
1.0
 12
0.0
 22
0.0
 13
0.0
 23
0.0
 14
0.5
 24
0.5
 15
0.5
 25
0.5
 16
0.0
 26
0.0
 36
1.0
 17
0.0
 27
0.0
 37
0.0
 40
1000.0
 41
1.34
 42
50.0
 43
0.0
 44
0.0
 50
0.0
 51
0.0
 71
0
 72
1000
 73
1
 74
3
 75
0
 76
0
 77
0
 78
0
281
0
 65
0
146
0.0
  0
ENDTAB
  0
TABLE
  2
LTYPE
  5
2
330
0
100
AcDbSymbolTable
 70
3
  0
LTYPE
  5
24
330
2
100
AcDbSymbolTableRecord
100
AcDbLinetypeTableRecord
  2
ByBlock
 70
0
  3

 72
65
 73
0
 40
0.0
  0
LTYPE
  5
25
330
2
100
AcDbSymbolTableRecord
100
AcDbLinetypeTableRecord
  2
ByLayer
 70
0
  3

 72
65
 73
0
 40
0.0
  0
LTYPE
  5
26
330
2
100
AcDbSymbolTableRecord
100
AcDbLinetypeTableRecord
  2
Continuous
 70
0
  3

 72
65
 73
0
 40
0.0
  0
ENDTAB
  0
TABLE
  2
LAYER
  5
1
330
0
100
AcDbSymbolTable
 70
8
  0
LAYER
  5
27
330
1
100
AcDbSymbolTableRecord
100
AcDbLayerTableRecord
  2
0
 70
0
 62
7
  6
Continuous
370
-3
390
13
347
21
  0
LAYER
  5
28
330
1
100
AcDbSymbolTableRecord
100
AcDbLayerTableRecord
  2
Defpoints
 70
0
 62
7
  6
Continuous
290
0
370
-3
390
13
347
21
  0
LAYER
  5
2F
330
1
100
AcDbSymbolTableRecord
100
AcDbLayerTableRecord
  2
A-WALL
 70
0
 62
7
  6
Continuous
370
50
390
13
347
21
  0
LAYER
  5
30
330
1
100
AcDbSymbolTableRecord
100
AcDbLayerTableRecord
  2
A-DOOR
 70
0
 62
3
  6
Continuous
370
35
390
13
347
21
  0
LAYER
  5
31
330
1
100
AcDbSymbolTableRecord
100
AcDbLayerTableRecord
  2
A-WINDOW
 70
0
 62
4
  6
Continuous
370
25
390
13
347
21
  0
LAYER
  5
32
330
1
100
AcDbSymbolTableRecord
100
AcDbLayerTableRecord
  2
A-TEXT
 70
0
 62
2
  6
Continuous
370
-3
390
13
347
21
  0
LAYER
  5
33
330
1
100
AcDbSymbolTableRecord
100
AcDbLayerTableRecord
  2
A-GRID
 70
0
 62
8
  6
Continuous
370
13
390
13
347
21
  0
LAYER
  5
34
330
1
100
AcDbSymbolTableRecord
100
AcDbLayerTableRecord
  2
A-ROOM
 70
0
 62
6
  6
Continuous
370
13
390
13
347
21
  0
ENDTAB
  0
TABLE
  2
STYLE
  5
5
330
0
100
AcDbSymbolTable
 70
1
  0
STYLE
  5
29
330
5
100
AcDbSymbolTableRecord
100
AcDbTextStyleTableRecord
  2
Standard
 70
0
 40
0.0
 41
1.0
 50
0.0
 71
0
 42
2.5
  3
txt
  4

  0
ENDTAB
  0
TABLE
  2
VIEW
  5
7
330
0
100
AcDbSymbolTable
 70
0
  0
ENDTAB
  0
TABLE
  2
UCS
  5
6
330
0
100
AcDbSymbolTable
 70
0
  0
ENDTAB
  0
TABLE
  2
APPID
  5
3
330
0
100
AcDbSymbolTable
 70
3
  0
APPID
  5
2A
330
3
100
AcDbSymbolTableRecord
100
AcDbRegAppTableRecord
  2
ACAD
 70
0
  0
APPID
  5
135
330
3
100
AcDbSymbolTableRecord
100
AcDbRegAppTableRecord
  2
HATCHBACKGROUNDCOLOR
 70
0
  0
APPID
  5
136
330
3
100
AcDbSymbolTableRecord
100
AcDbRegAppTableRecord
  2
EZDXF
 70
0
  0
ENDTAB
  0
TABLE
  2
DIMSTYLE
  5
4
330
0
100
AcDbSymbolTable
 70
1
100
AcDbDimStyleTable
  0
DIMSTYLE
105
2B
330
4
100
AcDbSymbolTableRecord
100
AcDbDimStyleTableRecord
  2
Standard
 70
0
 40
1.0
 41
2.5
 42
0.625
 43
3.75
 44
1.25
 45
0.0
 46
0.0
 47
0.0
 48
0.0
 49
2.5
140
2.5
141
2.5
142
0.0
143
0.03937007874
144
1.0
145
0.0
146
1.0
147
0.625
148
0.0
 69
0
 70
0
 71
0
 72
0
 73
0
 74
0
 75
0
 76
0
 77
1
 78
8
 79
3
170
0
171
3
172
1
173
0
174
0
175
0
176
0
177
0
178
0
179
2
271
2
272
2
273
2
274
3
275
0
276
0
277
2
278
44
279
0
280
0
281
0
282
0
283
0
284
8
285
0
286
0
288
0
289
3
290
0
371
-2
372
-2
  0
ENDTAB
  0
TABLE
  2
BLOCK_RECORD
  5
9
330
0
100
AcDbSymbolTable
 70
2
  0
BLOCK_RECORD
  5
17
330
9
100
AcDbSymbolTableRecord
100
AcDbBlockTableRecord
  2
*Model_Space
340
1A
 70
0
280
1
281
0
  0
BLOCK_RECORD
  5
1B
330
9
100
AcDbSymbolTableRecord
100
AcDbBlockTableRecord
  2
*Paper_Space
340
1E
 70
0
280
1
281
0
  0
ENDTAB
  0
ENDSEC
  0
SECTION
  2
BLOCKS
  0
BLOCK
  5
18
330
17
100
AcDbEntity
  8
0
100
AcDbBlockBegin
  2
*Model_Space
 70
0
 10
0.0
 20
0.0
 30
0.0
  3
*Model_Space
  1

  0
ENDBLK
  5
19
330
17
100
AcDbEntity
  8
0
100
AcDbBlockEnd
  0
BLOCK
  5
1C
330
1B
100
AcDbEntity
  8
0
100
AcDbBlockBegin
  2
*Paper_Space
 70
0
 10
0.0
 20
0.0
 30
0.0
  3
*Paper_Space
  1

  0
ENDBLK
  5
1D
330
1B
100
AcDbEntity
  8
0
100
AcDbBlockEnd
  0
ENDSEC
  0
SECTION
  2
ENTITIES
  0
LINE
  5
35
330
17
100
AcDbEntity
  8
A-WALL
100
AcDbLine
 10
9.724999237060551
 20
10.175000000000004
 30
0.0
 11
9.724999237060551
 21
13.175000000000004
 31
0.0
  0
LINE
  5
36
330
17
100
AcDbEntity
  8
A-WALL
100
AcDbLine
 10
4.774999237060548
 20
13.274999999999999
 30
0.0
 11
9.774999237060548
 21
13.274999999999999
 31
0.0
  0
LINE
  5
37
330
17
100
AcDbEntity
  8
A-WALL
100
AcDbLine
 10
9.724999237060551
 20
-6.375
 30
0.0
 11
7.474999237060548
 21
-6.375
 31
0.0
  0
LINE
  5
38
330
17
100
AcDbEntity
  8
A-WALL
100
AcDbLine
 10
9.574999237060545
 20
-5.625
 30
0.0
 11
9.574999237060545
 21
-2.5249999999999986
 31
0.0
  0
LINE
  5
39
330
17
100
AcDbEntity
  8
A-WALL
100
AcDbLine
 10
9.37499923706055
 20
-2.224999999999998
 30
0.0
 11
6.774999237060548
 21
-2.224999999999998
 31
0.0
  0
LINE
  5
3A
330
17
100
AcDbEntity
  8
A-WALL
100
AcDbLine
 10
-22.575000762939453
 20
-2.974999999999998
 30
0.0
 11
-22.575000762939453
 21
-3.625
 31
0.0
  0
LINE
  5
3B
330
17
100
AcDbEntity
  8
A-WALL
100
AcDbLine
 10
-22.675000762939455
 20
-1.9249999999999972
 30
0.0
 11
-22.675000762939455
 21
-3.0249999999999986
 31
0.0
  0
LINE
  5
3C
330
17
100
AcDbEntity
  8
A-WALL
100
AcDbLine
 10
-22.22500076293945
 20
-3.474999999999998
 30
0.0
 11
-21.075000762939453
 21
-3.474999999999998
 31
0.0
  0
LINE
  5
3D
330
17
100
AcDbEntity
  8
A-WALL
100
AcDbLine
 10
-22.22500076293945
 20
-1.8249999999999993
 30
0.0
 11
-16.97500076293945
 21
-1.8249999999999993
 31
0.0
  0
LINE
  5
3E
330
17
100
AcDbEntity
  8
A-WALL
100
AcDbLine
 10
-16.72500076293945
 20
-1.875
 30
0.0
 11
-16.72500076293945
 21
0.5750000000000028
 31
0.0
  0
LINE
  5
3F
330
17
100
AcDbEntity
  8
A-WALL
100
AcDbLine
 10
-15.375000762939454
 20
-6.725
 30
0.0
 11
-18.275000762939452
 21
-6.725
 31
0.0
  0
LINE
  5
40
330
17
100
AcDbEntity
  8
A-WALL
100
AcDbLine
 10
9.474999237060551
 20
-9.725
 30
0.0
 11
20.924999237060547
 21
-9.725
 31
0.0
  0
LINE
  5
41
330
17
100
AcDbEntity
  8
A-WALL
100
AcDbLine
 10
21.02499923706055
 20
-9.575
 30
0.0
 11
21.02499923706055
 21
9.675000000000004
 31
0.0
  0
LINE
  5
42
330
17
100
AcDbEntity
  8
A-WALL
100
AcDbLine
 10
20.87499923706055
 20
1.125
 30
0.0
 11
20.87499923706055
 21
-0.5749999999999993
 31
0.0
  0
LINE
  5
43
330
17
100
AcDbEntity
  8
A-WALL
100
AcDbLine
 10
21.074999237060553
 20
15.675000000000004
 30
0.0
 11
21.074999237060553
 21
14.725000000000001
 31
0.0
  0
LINE
  5
44
330
17
100
AcDbEntity
  8
A-WALL
100
AcDbLine
 10
21.424999237060547
 20
16.525000000000006
 30
0.0
 11
7.274999237060548
 21
16.525000000000006
 31
0.0
  0
LINE
  5
45
330
17
100
AcDbEntity
  8
A-WALL
100
AcDbLine
 10
12.174999237060547
 20
16.875
 30
0.0
 11
20.37499923706055
 21
16.875
 31
0.0
  0
LINE
  5
46
330
17
100
AcDbEntity
  8
A-WALL
100
AcDbLine
 10
-16.025000762939452
 20
-9.924999999999999
 30
0.0
 11
-17.47500076293945
 21
-9.924999999999999
 31
0.0
  0
LINE
  5
47
330
17
100
AcDbEntity
  8
A-WALL
100
AcDbLine
 10
-18.675000762939455
 20
-10.825
 30
0.0
 11
-18.675000762939455
 21
-9.774999999999999
 31
0.0
  0
LINE
  5
48
330
17
100
AcDbEntity
  8
A-WALL
100
AcDbLine
 10
-21.075000762939453
 20
-10.524999999999999
 30
0.0
 11
-18.97500076293945
 21
-10.524999999999999
 31
0.0
  0
LINE
  5
49
330
17
100
AcDbEntity
  8
A-WALL
100
AcDbLine
 10
-21.375000762939454
 20
-10.625
 30
0.0
 11
-21.375000762939454
 21
-9.875
 31
0.0
  0
LINE
  5
4A
330
17
100
AcDbEntity
  8
A-WALL
100
AcDbLine
 10
-9.575000762939453
 20
-10.225
 30
0.0
 11
-6.925000762939451
 21
-10.225
 31
0.0
  0
LINE
  5
4B
330
17
100
AcDbEntity
  8
A-WALL
100
AcDbLine
 10
-22.97500076293945
 20
11.425000000000004
 30
0.0
 11
-22.97500076293945
 21
2.825000000000003
 31
0.0
  0
LINE
  5
4C
330
17
100
AcDbEntity
  8
A-WALL
100
AcDbLine
 10
-22.97500076293945
 20
6.575000000000003
 30
0.0
 11
-22.97500076293945
 21
6.125
 31
0.0
  0
LINE
  5
4D
330
17
100
AcDbEntity
  8
A-WALL
100
AcDbLine
 10
-23.025000762939452
 20
0.625
 30
0.0
 11
-23.025000762939452
 21
-0.375
 31
0.0
  0
LINE
  5
4E
330
17
100
AcDbEntity
  8
A-WALL
100
AcDbLine
 10
5.824999237060549
 20
-0.9749999999999979
 30
0.0
 11
5.824999237060549
 21
9.425000000000004
 31
0.0
  0
LINE
  5
4F
330
17
100
AcDbEntity
  8
A-WALL
100
AcDbLine
 10
4.12499923706055
 20
10.175000000000004
 30
0.0
 11
9.974999237060551
 21
10.175000000000004
 31
0.0
  0
LINE
  5
50
330
17
100
AcDbEntity
  8
A-WALL
100
AcDbLine
 10
5.924999237060547
 20
7.775000000000002
 30
0.0
 11
5.924999237060547
 21
7.275000000000002
 31
0.0
  0
LINE
  5
51
330
17
100
AcDbEntity
  8
A-WALL
100
AcDbLine
 10
9.924999237060547
 20
-0.7249999999999979
 30
0.0
 11
9.924999237060547
 21
-1.125
 31
0.0
  0
LINE
  5
52
330
17
100
AcDbEntity
  8
A-WALL
100
AcDbLine
 10
9.724999237060551
 20
-1.0749999999999993
 30
0.0
 11
5.924999237060547
 21
-1.0749999999999993
 31
0.0
  0
LINE
  5
53
330
17
100
AcDbEntity
  8
A-WALL
100
AcDbLine
 10
0.9249992370605469
 20
-2.474999999999998
 30
0.0
 11
0.9249992370605469
 21
-1.875
 31
0.0
  0
LINE
  5
54
330
17
100
AcDbEntity
  8
A-WALL
100
AcDbLine
 10
5.074999237060549
 20
-6.375
 30
0.0
 11
7.074999237060549
 21
-6.375
 31
0.0
  0
LINE
  5
55
330
17
100
AcDbEntity
  8
A-WALL
100
AcDbLine
 10
9.424999237060547
 20
-6.125
 30
0.0
 11
9.424999237060547
 21
-5.625
 31
0.0
  0
LINE
  5
56
330
17
100
AcDbEntity
  8
A-WALL
100
AcDbLine
 10
6.87499923706055
 20
-2.0749999999999993
 30
0.0
 11
7.674999237060547
 21
-2.0749999999999993
 31
0.0
  0
LINE
  5
57
330
17
100
AcDbEntity
  8
A-WALL
100
AcDbLine
 10
0.9249992370605469
 20
-6.524999999999999
 30
0.0
 11
0.9249992370605469
 21
-5.974999999999998
 31
0.0
  0
LINE
  5
58
330
17
100
AcDbEntity
  8
A-WALL
100
AcDbLine
 10
-23.075000762939453
 20
-7.174999999999999
 30
0.0
 11
-23.075000762939453
 21
-6.125
 31
0.0
  0
LINE
  5
59
330
17
100
AcDbEntity
  8
A-WALL
100
AcDbLine
 10
-22.675000762939455
 20
-3.724999999999998
 30
0.0
 11
-22.675000762939455
 21
-5.974999999999998
 31
0.0
  0
LINE
  5
5A
330
17
100
AcDbEntity
  8
A-WALL
100
AcDbLine
 10
-22.575000762939453
 20
-3.724999999999998
 30
0.0
 11
-23.075000762939453
 21
-3.625
 31
0.0
  0
LINE
  5
5B
330
17
100
AcDbEntity
  8
A-WALL
100
AcDbLine
 10
-22.97500076293945
 20
-3.125
 30
0.0
 11
-22.825000762939453
 21
-2.674999999999997
 31
0.0
  0
LINE
  5
5C
330
17
100
AcDbEntity
  8
A-WALL
100
AcDbLine
 10
-23.025000762939452
 20
-1.2749999999999986
 30
0.0
 11
-23.025000762939452
 21
-1.9249999999999972
 31
0.0
  0
LINE
  5
5D
330
17
100
AcDbEntity
  8
A-WALL
100
AcDbLine
 10
-22.825000762939453
 20
-1.9249999999999972
 30
0.0
 11
-22.325000762939453
 21
-1.9249999999999972
 31
0.0
  0
LINE
  5
5E
330
17
100
AcDbEntity
  8
A-WALL
100
AcDbLine
 10
-16.97500076293945
 20
-1.875
 30
0.0
 11
-16.47500076293945
 21
-1.875
 31
0.0
  0
LINE
  5
5F
330
17
100
AcDbEntity
  8
A-WALL
100
AcDbLine
 10
-16.575000762939453
 20
0.625
 30
0.0
 11
-16.72500076293945
 21
1.125
 31
0.0
  0
LINE
  5
60
330
17
100
AcDbEntity
  8
A-WALL
100
AcDbLine
 10
-16.47500076293945
 20
1.625
 30
0.0
 11
-16.47500076293945
 21
7.325000000000003
 31
0.0
  0
LINE
  5
61
330
17
100
AcDbEntity
  8
A-WALL
100
AcDbLine
 10
-16.72500076293945
 20
7.425000000000001
 30
0.0
 11
-16.72500076293945
 21
8.175
 31
0.0
  0
LINE
  5
62
330
17
100
AcDbEntity
  8
A-WALL
100
AcDbLine
 10
-16.47500076293945
 20
8.275000000000002
 30
0.0
 11
-16.47500076293945
 21
8.775000000000002
 31
0.0
  0
LINE
  5
63
330
17
100
AcDbEntity
  8
A-WALL
100
AcDbLine
 10
-16.72500076293945
 20
9.125
 30
0.0
 11
-16.825000762939453
 21
9.625
 31
0.0
  0
LINE
  5
64
330
17
100
AcDbEntity
  8
A-WALL
100
AcDbLine
 10
-16.525000762939452
 20
9.675000000000004
 30
0.0
 11
-16.525000762939452
 21
13.575000000000003
 31
0.0
  0
LINE
  5
65
330
17
100
AcDbEntity
  8
A-WALL
100
AcDbLine
 10
-16.72500076293945
 20
13.625
 30
0.0
 11
-22.325000762939453
 21
13.625
 31
0.0
  0
LINE
  5
66
330
17
100
AcDbEntity
  8
A-WALL
100
AcDbLine
 10
-22.325000762939453
 20
13.575000000000003
 30
0.0
 11
-22.72500076293945
 21
13.675000000000004
 31
0.0
  0
LINE
  5
67
330
17
100
AcDbEntity
  8
A-WALL
100
AcDbLine
 10
-22.72500076293945
 20
13.675000000000004
 30
0.0
 11
-22.72500076293945
 21
15.825000000000003
 31
0.0
  0
LINE
  5
68
330
17
100
AcDbEntity
  8
A-WALL
100
AcDbLine
 10
-22.47500076293945
 20
16.375
 30
0.0
 11
-17.22500076293945
 21
16.375
 31
0.0
  0
LINE
  5
69
330
17
100
AcDbEntity
  8
A-WALL
100
AcDbLine
 10
-16.575000762939453
 20
16.425000000000004
 30
0.0
 11
-11.225000762939452
 21
16.425000000000004
 31
0.0
  0
LINE
  5
6A
330
17
100
AcDbEntity
  8
A-WALL
100
AcDbLine
 10
-11.225000762939452
 20
16.175000000000004
 30
0.0
 11
-10.475000762939452
 21
16.175000000000004
 31
0.0
  0
LINE
  5
6B
330
17
100
AcDbEntity
  8
A-WALL
100
AcDbLine
 10
-10.425000762939453
 20
16.125
 30
0.0
 11
-10.425000762939453
 21
13.875
 31
0.0
  0
LINE
  5
6C
330
17
100
AcDbEntity
  8
A-WALL
100
AcDbLine
 10
-10.375000762939452
 20
13.875
 30
0.0
 11
-9.425000762939453
 21
13.675000000000004
 31
0.0
  0
LINE
  5
6D
330
17
100
AcDbEntity
  8
A-WALL
100
AcDbLine
 10
-9.375000762939452
 20
13.675000000000004
 30
0.0
 11
-8.225000762939452
 21
13.675000000000004
 31
0.0
  0
LINE
  5
6E
330
17
100
AcDbEntity
  8
A-WALL
100
AcDbLine
 10
-8.175000762939453
 20
13.075000000000003
 30
0.0
 11
-8.175000762939453
 21
11.825000000000003
 31
0.0
  0
LINE
  5
6F
330
17
100
AcDbEntity
  8
A-WALL
100
AcDbLine
 10
-8.275000762939452
 20
11.675000000000004
 30
0.0
 11
-9.375000762939452
 21
11.675000000000004
 31
0.0
  0
LINE
  5
70
330
17
100
AcDbEntity
  8
A-WALL
100
AcDbLine
 10
-9.575000762939453
 20
11.625
 30
0.0
 11
-9.575000762939453
 21
9.875
 31
0.0
  0
LINE
  5
71
330
17
100
AcDbEntity
  8
A-WALL
100
AcDbLine
 10
-9.575000762939453
 20
9.875
 30
0.0
 11
-10.175000762939453
 21
9.875
 31
0.0
  0
LINE
  5
72
330
17
100
AcDbEntity
  8
A-WALL
100
AcDbLine
 10
-10.375000762939452
 20
9.425000000000004
 30
0.0
 11
-10.375000762939452
 21
7.325000000000003
 31
0.0
  0
LINE
  5
73
330
17
100
AcDbEntity
  8
A-WALL
100
AcDbLine
 10
-10.375000762939452
 20
7.075000000000003
 30
0.0
 11
-10.375000762939452
 21
2.625
 31
0.0
  0
LINE
  5
74
330
17
100
AcDbEntity
  8
A-WALL
100
AcDbLine
 10
-10.175000762939453
 20
2.575000000000003
 30
0.0
 11
-10.175000762939453
 21
1.3250000000000028
 31
0.0
  0
LINE
  5
75
330
17
100
AcDbEntity
  8
A-WALL
100
AcDbLine
 10
-10.275000762939452
 20
1.125
 30
0.0
 11
-10.275000762939452
 21
-1.375
 31
0.0
  0
LINE
  5
76
330
17
100
AcDbEntity
  8
A-WALL
100
AcDbLine
 10
-9.525000762939452
 20
-1.375
 30
0.0
 11
-5.825000762939453
 21
-1.375
 31
0.0
  0
LINE
  5
77
330
17
100
AcDbEntity
  8
A-WALL
100
AcDbLine
 10
-5.875000762939454
 20
-1.375
 30
0.0
 11
-5.875000762939454
 21
-7.125
 31
0.0
  0
LINE
  5
78
330
17
100
AcDbEntity
  8
A-WALL
100
AcDbLine
 10
-5.925000762939451
 20
-7.024999999999999
 30
0.0
 11
-14.975000762939453
 21
-7.024999999999999
 31
0.0
  0
LINE
  5
79
330
17
100
AcDbEntity
  8
A-WALL
100
AcDbLine
 10
-18.47500076293945
 20
-6.824999999999999
 30
0.0
 11
-20.47500076293945
 21
-6.824999999999999
 31
0.0
  0
LINE
  5
7A
330
17
100
AcDbEntity
  8
A-WALL
100
AcDbLine
 10
-19.575000762939453
 20
-6.274999999999999
 30
0.0
 11
-19.47500076293945
 21
-6.774999999999999
 31
0.0
  0
LINE
  5
7B
330
17
100
AcDbEntity
  8
A-WALL
100
AcDbLine
 10
-17.075000762939453
 20
-6.474999999999998
 30
0.0
 11
-17.075000762939453
 21
-4.125
 31
0.0
  0
LINE
  5
7C
330
17
100
AcDbEntity
  8
A-WALL
100
AcDbLine
 10
-17.075000762939453
 20
-4.074999999999999
 30
0.0
 11
-18.47500076293945
 21
-4.074999999999999
 31
0.0
  0
LINE
  5
7D
330
17
100
AcDbEntity
  8
A-WALL
100
AcDbLine
 10
-18.47500076293945
 20
-4.024999999999999
 30
0.0
 11
-18.97500076293945
 21
-3.875
 31
0.0
  0
LINE
  5
7E
330
17
100
AcDbEntity
  8
A-WALL
100
AcDbLine
 10
-18.97500076293945
 20
-3.875
 30
0.0
 11
-19.47500076293945
 21
-3.2749999999999986
 31
0.0
  0
LINE
  5
7F
330
17
100
AcDbEntity
  8
A-WALL
100
AcDbLine
 10
-19.525000762939452
 20
-1.9249999999999972
 30
0.0
 11
-19.525000762939452
 21
-3.2749999999999986
 31
0.0
  0
LINE
  5
80
330
17
100
AcDbEntity
  8
A-WALL
100
AcDbLine
 10
-20.72500076293945
 20
-3.375
 30
0.0
 11
-20.72500076293945
 21
-4.125
 31
0.0
  0
LINE
  5
81
330
17
100
AcDbEntity
  8
A-WALL
100
AcDbLine
 10
-20.47500076293945
 20
-4.474999999999998
 30
0.0
 11
-20.47500076293945
 21
-5.724999999999998
 31
0.0
  0
LINE
  5
82
330
17
100
AcDbEntity
  8
A-WALL
100
AcDbLine
 10
-20.72500076293945
 20
-5.875
 30
0.0
 11
-20.72500076293945
 21
-6.375
 31
0.0
  0
LINE
  5
83
330
17
100
AcDbEntity
  8
A-WALL
100
AcDbLine
 10
-20.825000762939453
 20
-6.474999999999998
 30
0.0
 11
-20.825000762939453
 21
-6.875
 31
0.0
  0
LINE
  5
84
330
17
100
AcDbEntity
  8
A-WALL
100
AcDbLine
 10
-21.22500076293945
 20
-7.024999999999999
 30
0.0
 11
-22.22500076293945
 21
-7.024999999999999
 31
0.0
  0
LINE
  5
85
330
17
100
AcDbEntity
  8
A-WALL
100
AcDbLine
 10
-22.325000762939453
 20
-7.174999999999999
 30
0.0
 11
-23.075000762939453
 21
-7.174999999999999
 31
0.0
  0
LINE
  5
86
330
17
100
AcDbEntity
  8
A-WALL
100
AcDbLine
 10
5.174999237060547
 20
-9.524999999999999
 30
0.0
 11
9.424999237060547
 21
-9.524999999999999
 31
0.0
  0
LINE
  5
87
330
17
100
AcDbEntity
  8
A-WALL
100
AcDbLine
 10
21.12499923706055
 20
2.875
 30
0.0
 11
21.12499923706055
 21
15.425000000000004
 31
0.0
  0
LINE
  5
88
330
17
100
AcDbEntity
  8
A-WALL
100
AcDbLine
 10
21.02499923706055
 20
13.675000000000004
 30
0.0
 11
21.02499923706055
 21
14.625
 31
0.0
  0
LINE
  5
89
330
17
100
AcDbEntity
  8
A-WALL
100
AcDbLine
 10
7.12499923706055
 20
16.575000000000003
 30
0.0
 11
5.824999237060549
 21
16.575000000000003
 31
0.0
  0
LINE
  5
8A
330
17
100
AcDbEntity
  8
A-WALL
100
AcDbLine
 10
9.474999237060551
 20
16.725
 30
0.0
 11
10.224999237060551
 21
16.725
 31
0.0
  0
LINE
  5
8B
330
17
100
AcDbEntity
  8
A-WALL
100
AcDbLine
 10
10.474999237060551
 20
16.675000000000004
 30
0.0
 11
11.474999237060551
 21
16.675000000000004
 31
0.0
  0
LINE
  5
8C
330
17
100
AcDbEntity
  8
A-WALL
100
AcDbLine
 10
11.474999237060551
 20
16.875
 30
0.0
 11
12.12499923706055
 21
16.875
 31
0.0
  0
LINE
  5
8D
330
17
100
AcDbEntity
  8
A-WALL
100
AcDbLine
 10
20.37499923706055
 20
16.575000000000003
 30
0.0
 11
20.924999237060547
 21
16.675000000000004
 31
0.0
  0
LINE
  5
8E
330
17
100
AcDbEntity
  8
A-WALL
100
AcDbLine
 10
21.22499923706055
 20
2.825000000000003
 30
0.0
 11
21.22499923706055
 21
2.325000000000003
 31
0.0
  0
LINE
  5
8F
330
17
100
AcDbEntity
  8
A-WALL
100
AcDbLine
 10
21.22499923706055
 20
2.325000000000003
 30
0.0
 11
21.22499923706055
 21
1.125
 31
0.0
  0
LINE
  5
90
330
17
100
AcDbEntity
  8
A-WALL
100
AcDbLine
 10
16.87499923706055
 20
-9.875
 30
0.0
 11
15.924999237060547
 21
-9.875
 31
0.0
  0
LINE
  5
91
330
17
100
AcDbEntity
  8
A-WALL
100
AcDbLine
 10
15.924999237060547
 20
-9.924999999999999
 30
0.0
 11
11.474999237060551
 21
-9.924999999999999
 31
0.0
  0
LINE
  5
92
330
17
100
AcDbEntity
  8
A-WALL
100
AcDbLine
 10
9.474999237060551
 20
-9.774999999999999
 30
0.0
 11
7.474999237060548
 21
-9.774999999999999
 31
0.0
  0
LINE
  5
93
330
17
100
AcDbEntity
  8
A-WALL
100
AcDbLine
 10
-22.72500076293945
 20
-13.174999999999999
 30
0.0
 11
-22.825000762939453
 21
-12.674999999999999
 31
0.0
  0
LINE
  5
94
330
17
100
AcDbEntity
  8
A-WALL
100
AcDbLine
 10
-22.72500076293945
 20
-12.674999999999999
 30
0.0
 11
-22.72500076293945
 21
-13.174999999999999
 31
0.0
  0
LINE
  5
95
330
17
100
AcDbEntity
  8
A-WALL
100
AcDbLine
 10
-22.775000762939452
 20
-14.075
 30
0.0
 11
-22.775000762939452
 21
-16.125
 31
0.0
  0
LINE
  5
96
330
17
100
AcDbEntity
  8
A-WALL
100
AcDbLine
 10
-22.72500076293945
 20
-16.525
 30
0.0
 11
-22.72500076293945
 21
-18.525
 31
0.0
  0
LINE
  5
97
330
17
100
AcDbEntity
  8
A-WALL
100
AcDbLine
 10
-23.025000762939452
 20
-21.025
 30
0.0
 11
-23.025000762939452
 21
-21.625
 31
0.0
  0
LINE
  5
98
330
17
100
AcDbEntity
  8
A-WALL
100
AcDbLine
 10
-22.97500076293945
 20
-20.875
 30
0.0
 11
-22.075000762939453
 21
-20.875
 31
0.0
  0
LINE
  5
99
330
17
100
AcDbEntity
  8
A-WALL
100
AcDbLine
 10
-22.325000762939453
 20
-20.775
 30
0.0
 11
-22.325000762939453
 21
-19.625
 31
0.0
  0
LINE
  5
9A
330
17
100
AcDbEntity
  8
A-WALL
100
AcDbLine
 10
-22.325000762939453
 20
-19.625
 30
0.0
 11
-22.72500076293945
 21
-19.525
 31
0.0
  0
LINE
  5
9B
330
17
100
AcDbEntity
  8
A-WALL
100
AcDbLine
 10
-22.72500076293945
 20
-19.525
 30
0.0
 11
-22.825000762939453
 21
-20.025
 31
0.0
  0
LINE
  5
9C
330
17
100
AcDbEntity
  8
A-WALL
100
AcDbLine
 10
-22.875000762939454
 20
-20.025
 30
0.0
 11
-22.875000762939454
 21
-18.775
 31
0.0
  0
LINE
  5
9D
330
17
100
AcDbEntity
  8
A-WALL
100
AcDbLine
 10
-22.875000762939454
 20
-18.025
 30
0.0
 11
-22.875000762939454
 21
-19.275
 31
0.0
  0
LINE
  5
9E
330
17
100
AcDbEntity
  8
A-WALL
100
AcDbLine
 10
-22.72500076293945
 20
-19.525
 30
0.0
 11
-15.775000762939452
 21
-19.525
 31
0.0
  0
LINE
  5
9F
330
17
100
AcDbEntity
  8
A-WALL
100
AcDbLine
 10
-15.775000762939452
 20
-19.525
 30
0.0
 11
-15.775000762939452
 21
-18.025
 31
0.0
  0
LINE
  5
A0
330
17
100
AcDbEntity
  8
A-WALL
100
AcDbLine
 10
-15.975000762939452
 20
-17.875
 30
0.0
 11
-15.975000762939452
 21
-17.125
 31
0.0
  0
LINE
  5
A1
330
17
100
AcDbEntity
  8
A-WALL
100
AcDbLine
 10
-15.725000762939452
 20
-17.025
 30
0.0
 11
-15.725000762939452
 21
-15.125
 31
0.0
  0
LINE
  5
A2
330
17
100
AcDbEntity
  8
A-WALL
100
AcDbLine
 10
-16.025000762939452
 20
-14.325
 30
0.0
 11
-16.025000762939452
 21
-13.575
 31
0.0
  0
LINE
  5
A3
330
17
100
AcDbEntity
  8
A-WALL
100
AcDbLine
 10
-15.775000762939452
 20
-13.525
 30
0.0
 11
-15.775000762939452
 21
-10.674999999999999
 31
0.0
  0
LINE
  5
A4
330
17
100
AcDbEntity
  8
A-WALL
100
AcDbLine
 10
-15.525000762939452
 20
-10.325
 30
0.0
 11
-15.975000762939452
 21
-10.325
 31
0.0
  0
LINE
  5
A5
330
17
100
AcDbEntity
  8
A-WALL
100
AcDbLine
 10
-15.975000762939452
 20
-10.325
 30
0.0
 11
-15.975000762939452
 21
-9.875
 31
0.0
  0
LINE
  5
A6
330
17
100
AcDbEntity
  8
A-WALL
100
AcDbLine
 10
-17.325000762939453
 20
-9.674999999999999
 30
0.0
 11
-17.47500076293945
 21
-10.274999999999999
 31
0.0
  0
LINE
  5
A7
330
17
100
AcDbEntity
  8
A-WALL
100
AcDbLine
 10
-17.97500076293945
 20
-10.274999999999999
 30
0.0
 11
-18.075000762939453
 21
-9.725
 31
0.0
  0
LINE
  5
A8
330
17
100
AcDbEntity
  8
A-WALL
100
AcDbLine
 10
-17.575000762939453
 20
-9.774999999999999
 30
0.0
 11
-18.97500076293945
 21
-9.774999999999999
 31
0.0
  0
LINE
  5
A9
330
17
100
AcDbEntity
  8
A-WALL
100
AcDbLine
 10
-18.97500076293945
 20
-10.774999999999999
 30
0.0
 11
-19.325000762939453
 21
-10.575
 31
0.0
  0
LINE
  5
AA
330
17
100
AcDbEntity
  8
A-WALL
100
AcDbLine
 10
-20.575000762939453
 20
-10.575
 30
0.0
 11
-20.97500076293945
 21
-10.674999999999999
 31
0.0
  0
LINE
  5
AB
330
17
100
AcDbEntity
  8
A-WALL
100
AcDbLine
 10
-21.22500076293945
 20
-9.725
 30
0.0
 11
-23.075000762939453
 21
-9.725
 31
0.0
  0
LINE
  5
AC
330
17
100
AcDbEntity
  8
A-WALL
100
AcDbLine
 10
-22.325000762939453
 20
-9.625
 30
0.0
 11
-22.825000762939453
 21
-9.625
 31
0.0
  0
LINE
  5
AD
330
17
100
AcDbEntity
  8
A-WALL
100
AcDbLine
 10
-22.825000762939453
 20
-9.674999999999999
 30
0.0
 11
-22.97500076293945
 21
-10.325
 31
0.0
  0
LINE
  5
AE
330
17
100
AcDbEntity
  8
A-WALL
100
AcDbLine
 10
-22.875000762939454
 20
-9.774999999999999
 30
0.0
 11
-22.875000762939454
 21
-11.875
 31
0.0
  0
LINE
  5
AF
330
17
100
AcDbEntity
  8
A-WALL
100
AcDbLine
 10
-22.72500076293945
 20
-11.875
 30
0.0
 11
-22.825000762939453
 21
-11.424999999999999
 31
0.0
  0
LINE
  5
B0
330
17
100
AcDbEntity
  8
A-WALL
100
AcDbLine
 10
-21.22500076293945
 20
-9.825
 30
0.0
 11
-21.075000762939453
 21
-10.375
 31
0.0
  0
LINE
  5
B1
330
17
100
AcDbEntity
  8
A-WALL
100
AcDbLine
 10
-16.825000762939453
 20
-9.625
 30
0.0
 11
-16.075000762939453
 21
-9.625
 31
0.0
  0
LINE
  5
B2
330
17
100
AcDbEntity
  8
A-WALL
100
AcDbLine
 10
-15.725000762939452
 20
-9.524999999999999
 30
0.0
 11
-11.625000762939452
 21
-9.524999999999999
 31
0.0
  0
LINE
  5
B3
330
17
100
AcDbEntity
  8
A-WALL
100
AcDbLine
 10
-11.375000762939452
 20
-9.924999999999999
 30
0.0
 11
-9.925000762939453
 21
-9.924999999999999
 31
0.0
  0
LINE
  5
B4
330
17
100
AcDbEntity
  8
A-WALL
100
AcDbLine
 10
-9.875000762939452
 20
-9.575
 30
0.0
 11
-9.875000762939452
 21
-10.325
 31
0.0
  0
LINE
  5
B5
330
17
100
AcDbEntity
  8
A-WALL
100
AcDbLine
 10
-14.275000762939452
 20
-9.625
 30
0.0
 11
-14.275000762939452
 21
-11.575
 31
0.0
  0
LINE
  5
B6
330
17
100
AcDbEntity
  8
A-WALL
100
AcDbLine
 10
-13.975000762939453
 20
-11.625
 30
0.0
 11
-13.975000762939453
 21
-12.125
 31
0.0
  0
LINE
  5
B7
330
17
100
AcDbEntity
  8
A-WALL
100
AcDbLine
 10
-14.025000762939452
 20
-12.125
 30
0.0
 11
-13.775000762939452
 21
-12.575
 31
0.0
  0
LINE
  5
B8
330
17
100
AcDbEntity
  8
A-WALL
100
AcDbLine
 10
-13.775000762939452
 20
-12.575
 30
0.0
 11
-14.275000762939452
 21
-12.575
 31
0.0
  0
LINE
  5
B9
330
17
100
AcDbEntity
  8
A-WALL
100
AcDbLine
 10
-14.275000762939452
 20
-12.575
 30
0.0
 11
-14.275000762939452
 21
-13.275
 31
0.0
  0
LINE
  5
BA
330
17
100
AcDbEntity
  8
A-WALL
100
AcDbLine
 10
-14.275000762939452
 20
-13.275
 30
0.0
 11
-13.825000762939453
 21
-13.375
 31
0.0
  0
LINE
  5
BB
330
17
100
AcDbEntity
  8
A-WALL
100
AcDbLine
 10
-13.975000762939453
 20
-13.575
 30
0.0
 11
-13.875000762939452
 21
-14.075
 31
0.0
  0
LINE
  5
BC
330
17
100
AcDbEntity
  8
A-WALL
100
AcDbLine
 10
-13.875000762939452
 20
-14.125
 30
0.0
 11
-14.275000762939452
 21
-14.125
 31
0.0
  0
LINE
  5
BD
330
17
100
AcDbEntity
  8
A-WALL
100
AcDbLine
 10
-14.275000762939452
 20
-14.125
 30
0.0
 11
-14.275000762939452
 21
-19.375
 31
0.0
  0
LINE
  5
BE
330
17
100
AcDbEntity
  8
A-WALL
100
AcDbLine
 10
-14.275000762939452
 20
-19.425
 30
0.0
 11
-8.875000762939452
 21
-19.425
 31
0.0
  0
LINE
  5
BF
330
17
100
AcDbEntity
  8
A-WALL
100
AcDbLine
 10
-8.875000762939452
 20
-19.525
 30
0.0
 11
-8.875000762939452
 21
-20.525
 31
0.0
  0
LINE
  5
C0
330
17
100
AcDbEntity
  8
A-WALL
100
AcDbLine
 10
-9.375000762939452
 20
-20.775
 30
0.0
 11
-9.375000762939452
 21
-21.375
 31
0.0
  0
LINE
  5
C1
330
17
100
AcDbEntity
  8
A-WALL
100
AcDbLine
 10
-9.325000762939453
 20
-21.375
 30
0.0
 11
-8.925000762939453
 21
-21.375
 31
0.0
  0
LINE
  5
C2
330
17
100
AcDbEntity
  8
A-WALL
100
AcDbLine
 10
-8.925000762939453
 20
-21.375
 30
0.0
 11
-8.925000762939453
 21
-22.375
 31
0.0
  0
LINE
  5
C3
330
17
100
AcDbEntity
  8
A-WALL
100
AcDbLine
 10
-9.375000762939452
 20
-22.575
 30
0.0
 11
-12.475000762939452
 21
-22.575
 31
0.0
  0
LINE
  5
C4
330
17
100
AcDbEntity
  8
A-WALL
100
AcDbLine
 10
-12.475000762939452
 20
-22.325
 30
0.0
 11
-14.125000762939452
 21
-22.325
 31
0.0
  0
LINE
  5
C5
330
17
100
AcDbEntity
  8
A-WALL
100
AcDbLine
 10
-14.225000762939453
 20
-22.625
 30
0.0
 11
-15.325000762939453
 21
-22.625
 31
0.0
  0
LINE
  5
C6
330
17
100
AcDbEntity
  8
A-WALL
100
AcDbLine
 10
-15.775000762939452
 20
-22.025
 30
0.0
 11
-17.47500076293945
 21
-22.025
 31
0.0
  0
LINE
  5
C7
330
17
100
AcDbEntity
  8
A-WALL
100
AcDbLine
 10
-17.575000762939453
 20
-21.725
 30
0.0
 11
-22.075000762939453
 21
-21.725
 31
0.0
  0
LINE
  5
C8
330
17
100
AcDbEntity
  8
A-WALL
100
AcDbLine
 10
-22.075000762939453
 20
-21.525
 30
0.0
 11
-22.075000762939453
 21
-20.875
 31
0.0
  0
LINE
  5
C9
330
17
100
AcDbEntity
  8
A-WALL
100
AcDbLine
 10
5.174999237060547
 20
-9.524999999999999
 30
0.0
 11
5.074999237060549
 21
-6.375
 31
0.0
  0
LINE
  5
CA
330
17
100
AcDbEntity
  8
A-WALL
100
AcDbLine
 10
4.774999237060548
 20
13.274999999999999
 30
0.0
 11
5.824999237060549
 21
16.575000000000003
 31
0.0
  0
LINE
  5
CB
330
17
100
AcDbEntity
  8
A-WALL
100
AcDbLine
 10
5.824999237060549
 20
9.425000000000004
 30
0.0
 11
6.0
 21
10.0
 31
0.0
  0
LINE
  5
CC
330
17
100
AcDbEntity
  8
A-WALL
100
AcDbLine
 10
21.074999237060553
 20
15.675000000000004
 30
0.0
 11
20.924999237060547
 21
16.675000000000004
 31
0.0
  0
LINE
  5
CD
330
17
100
AcDbEntity
  8
A-WALL
100
AcDbLine
 10
9.37499923706055
 20
-2.224999999999998
 30
0.0
 11
9.724999237060551
 21
-1.0749999999999993
 31
0.0
  0
LINE
  5
CE
330
17
100
AcDbEntity
  8
A-DOOR
100
AcDbLine
 10
-16.725
 20
-1.825
 30
0.0
 11
-16.725
 21
0.6250000000000029
 31
0.0
  0
ARC
  5
CF
330
17
100
AcDbEntity
  8
A-DOOR
100
AcDbCircle
 10
-16.725
 20
-1.825
 30
0.0
 40
2.45
100
AcDbArc
 50
90.0
 51
180.0
  0
LINE
  5
D0
330
17
100
AcDbEntity
  8
A-DOOR
100
AcDbLine
 10
-15.375
 20
-6.725
 30
0.0
 11
-16.175
 21
-6.725
 31
0.0
  0
ARC
  5
D1
330
17
100
AcDbEntity
  8
A-DOOR
100
AcDbCircle
 10
-15.375
 20
-6.725
 30
0.0
 40
0.8
100
AcDbArc
 50
180.0
 51
270.0
  0
LINE
  5
D2
330
17
100
AcDbEntity
  8
A-DOOR
100
AcDbLine
 10
-16.975
 20
-6.725
 30
0.0
 11
-18.175
 21
-6.725
 31
0.0
  0
ARC
  5
D3
330
17
100
AcDbEntity
  8
A-DOOR
100
AcDbCircle
 10
-16.975
 20
-6.725
 30
0.0
 40
1.2
100
AcDbArc
 50
180.0
 51
270.0
  0
LINE
  5
D4
330
17
100
AcDbEntity
  8
A-DOOR
100
AcDbLine
 10
12.175
 20
16.875
 30
0.0
 11
20.425000000000004
 21
16.875
 31
0.0
  0
ARC
  5
D5
330
17
100
AcDbEntity
  8
A-DOOR
100
AcDbCircle
 10
12.175
 20
16.875
 30
0.0
 40
8.25
100
AcDbArc
 50
0.0
 51
90.0
  0
LINE
  5
D6
330
17
100
AcDbEntity
  8
A-DOOR
100
AcDbLine
 10
-16.025
 20
-9.925
 30
0.0
 11
-17.374999999999996
 21
-9.925
 31
0.0
  0
ARC
  5
D7
330
17
100
AcDbEntity
  8
A-DOOR
100
AcDbCircle
 10
-16.025
 20
-9.925
 30
0.0
 40
1.35
100
AcDbArc
 50
180.0
 51
270.0
  0
LINE
  5
D8
330
17
100
AcDbEntity
  8
A-DOOR
100
AcDbLine
 10
-8.525
 20
-10.225
 30
0.0
 11
-6.874999999999999
 21
-10.225
 31
0.0
  0
ARC
  5
D9
330
17
100
AcDbEntity
  8
A-DOOR
100
AcDbCircle
 10
-8.525
 20
-10.225
 30
0.0
 40
1.65
100
AcDbArc
 50
0.0
 51
90.0
  0
LINE
  5
DA
330
17
100
AcDbEntity
  8
A-DOOR
100
AcDbLine
 10
-22.975
 20
7.925
 30
0.0
 11
-22.975
 21
7.074999999999999
 31
0.0
  0
ARC
  5
DB
330
17
100
AcDbEntity
  8
A-DOOR
100
AcDbCircle
 10
-22.975
 20
7.925
 30
0.0
 40
0.85
100
AcDbArc
 50
-90.0
 51
0.0
  0
LINE
  5
DC
330
17
100
AcDbEntity
  8
A-DOOR
100
AcDbLine
 10
-22.975
 20
5.875
 30
0.0
 11
-22.975
 21
4.7749999999999995
 31
0.0
  0
ARC
  5
DD
330
17
100
AcDbEntity
  8
A-DOOR
100
AcDbCircle
 10
-22.975
 20
5.875
 30
0.0
 40
1.1
100
AcDbArc
 50
-90.0
 51
0.0
  0
LINE
  5
DE
330
17
100
AcDbEntity
  8
A-DOOR
100
AcDbLine
 10
-22.975
 20
3.775
 30
0.0
 11
-22.975
 21
2.7749999999999995
 31
0.0
  0
ARC
  5
DF
330
17
100
AcDbEntity
  8
A-DOOR
100
AcDbCircle
 10
-22.975
 20
3.775
 30
0.0
 40
1.0
100
AcDbArc
 50
-90.0
 51
0.0
  0
LINE
  5
E0
330
17
100
AcDbEntity
  8
A-DOOR
100
AcDbLine
 10
-16.475
 20
1.775
 30
0.0
 11
-16.475
 21
2.5250000000000004
 31
0.0
  0
ARC
  5
E1
330
17
100
AcDbEntity
  8
A-DOOR
100
AcDbCircle
 10
-16.475
 20
1.775
 30
0.0
 40
0.75
100
AcDbArc
 50
90.0
 51
180.0
  0
LINE
  5
E2
330
17
100
AcDbEntity
  8
A-DOOR
100
AcDbLine
 10
-16.475
 20
3.325
 30
0.0
 11
-16.475
 21
4.175000000000001
 31
0.0
  0
ARC
  5
E3
330
17
100
AcDbEntity
  8
A-DOOR
100
AcDbCircle
 10
-16.475
 20
3.325
 30
0.0
 40
0.85
100
AcDbArc
 50
90.0
 51
180.0
  0
LINE
  5
E4
330
17
100
AcDbEntity
  8
A-DOOR
100
AcDbLine
 10
-16.475
 20
4.375
 30
0.0
 11
-16.475
 21
5.175000000000001
 31
0.0
  0
ARC
  5
E5
330
17
100
AcDbEntity
  8
A-DOOR
100
AcDbCircle
 10
-16.475
 20
4.375
 30
0.0
 40
0.8
100
AcDbArc
 50
90.0
 51
180.0
  0
LINE
  5
E6
330
17
100
AcDbEntity
  8
A-DOOR
100
AcDbLine
 10
-16.875
 20
13.625
 30
0.0
 11
-17.675
 21
13.625
 31
0.0
  0
ARC
  5
E7
330
17
100
AcDbEntity
  8
A-DOOR
100
AcDbCircle
 10
-16.875
 20
13.625
 30
0.0
 40
0.8
100
AcDbArc
 50
180.0
 51
270.0
  0
LINE
  5
E8
330
17
100
AcDbEntity
  8
A-DOOR
100
AcDbLine
 10
-22.725
 20
13.825
 30
0.0
 11
-22.725
 21
14.774999999999999
 31
0.0
  0
ARC
  5
E9
330
17
100
AcDbEntity
  8
A-DOOR
100
AcDbCircle
 10
-22.725
 20
13.825
 30
0.0
 40
0.95
100
AcDbArc
 50
90.0
 51
180.0
  0
LINE
  5
EA
330
17
100
AcDbEntity
  8
A-DOOR
100
AcDbLine
 10
-18.575
 20
16.375
 30
0.0
 11
-17.724999999999998
 21
16.375
 31
0.0
  0
ARC
  5
EB
330
17
100
AcDbEntity
  8
A-DOOR
100
AcDbCircle
 10
-18.575
 20
16.375
 30
0.0
 40
0.85
100
AcDbArc
 50
0.0
 51
90.0
  0
LINE
  5
EC
330
17
100
AcDbEntity
  8
A-DOOR
100
AcDbLine
 10
-15.275
 20
16.425
 30
0.0
 11
-12.675
 21
16.425
 31
0.0
  0
ARC
  5
ED
330
17
100
AcDbEntity
  8
A-DOOR
100
AcDbCircle
 10
-15.275
 20
16.425
 30
0.0
 40
2.6
100
AcDbArc
 50
0.0
 51
90.0
  0
LINE
  5
EE
330
17
100
AcDbEntity
  8
A-DOOR
100
AcDbLine
 10
-10.425
 20
16.075
 30
0.0
 11
-10.425
 21
13.875
 31
0.0
  0
ARC
  5
EF
330
17
100
AcDbEntity
  8
A-DOOR
100
AcDbCircle
 10
-10.425
 20
16.075
 30
0.0
 40
2.2
100
AcDbArc
 50
-90.0
 51
0.0
  0
LINE
  5
F0
330
17
100
AcDbEntity
  8
A-DOOR
100
AcDbLine
 10
-10.375
 20
13.875
 30
0.0
 11
-9.641069221260816
 21
13.720488257107544
 31
0.0
  0
ARC
  5
F1
330
17
100
AcDbEntity
  8
A-DOOR
100
AcDbCircle
 10
-10.375
 20
13.875
 30
0.0
 40
0.75
100
AcDbArc
 50
-11.888658039627739
 51
78.11134196037226
  0
LINE
  5
F2
330
17
100
AcDbEntity
  8
A-DOOR
100
AcDbLine
 10
-9.375
 20
13.675
 30
0.0
 11
-8.174999999999999
 21
13.675
 31
0.0
  0
ARC
  5
F3
330
17
100
AcDbEntity
  8
A-DOOR
100
AcDbCircle
 10
-9.375
 20
13.675
 30
0.0
 40
1.2
100
AcDbArc
 50
0.0
 51
90.0
  0
LINE
  5
F4
330
17
100
AcDbEntity
  8
A-DOOR
100
AcDbLine
 10
-10.175
 20
2.475
 30
0.0
 11
-10.175
 21
1.425
 31
0.0
  0
ARC
  5
F5
330
17
100
AcDbEntity
  8
A-DOOR
100
AcDbCircle
 10
-10.175
 20
2.475
 30
0.0
 40
1.05
100
AcDbArc
 50
-90.0
 51
0.0
  0
LINE
  5
F6
330
17
100
AcDbEntity
  8
A-DOOR
100
AcDbLine
 10
-7.775
 20
-1.375
 30
0.0
 11
-5.875000000000001
 21
-1.375
 31
0.0
  0
ARC
  5
F7
330
17
100
AcDbEntity
  8
A-DOOR
100
AcDbCircle
 10
-7.775
 20
-1.375
 30
0.0
 40
1.9
100
AcDbArc
 50
0.0
 51
90.0
  0
LINE
  5
F8
330
17
100
AcDbEntity
  8
A-DOOR
100
AcDbLine
 10
-5.875
 20
-4.475
 30
0.0
 11
-5.875
 21
-7.0249999999999995
 31
0.0
  0
ARC
  5
F9
330
17
100
AcDbEntity
  8
A-DOOR
100
AcDbCircle
 10
-5.875
 20
-4.475
 30
0.0
 40
2.55
100
AcDbArc
 50
-90.0
 51
0.0
  0
LINE
  5
FA
330
17
100
AcDbEntity
  8
A-DOOR
100
AcDbLine
 10
-10.125
 20
-7.025
 30
0.0
 11
-11.725000000000001
 21
-7.025
 31
0.0
  0
ARC
  5
FB
330
17
100
AcDbEntity
  8
A-DOOR
100
AcDbCircle
 10
-10.125
 20
-7.025
 30
0.0
 40
1.6
100
AcDbArc
 50
180.0
 51
270.0
  0
LINE
  5
FC
330
17
100
AcDbEntity
  8
A-DOOR
100
AcDbLine
 10
-13.075
 20
-7.025
 30
0.0
 11
-13.924999999999999
 21
-7.025
 31
0.0
  0
ARC
  5
FD
330
17
100
AcDbEntity
  8
A-DOOR
100
AcDbCircle
 10
-13.075
 20
-7.025
 30
0.0
 40
0.85
100
AcDbArc
 50
180.0
 51
270.0
  0
LINE
  5
FE
330
17
100
AcDbEntity
  8
A-DOOR
100
AcDbLine
 10
-20.475
 20
-4.475
 30
0.0
 11
-20.475
 21
-5.725
 31
0.0
  0
ARC
  5
FF
330
17
100
AcDbEntity
  8
A-DOOR
100
AcDbCircle
 10
-20.475
 20
-4.475
 30
0.0
 40
1.25
100
AcDbArc
 50
-90.0
 51
0.0
  0
LINE
  5
100
330
17
100
AcDbEntity
  8
A-DOOR
100
AcDbLine
 10
-22.775
 20
-14.175
 30
0.0
 11
-22.775
 21
-15.375000000000002
 31
0.0
  0
ARC
  5
101
330
17
100
AcDbEntity
  8
A-DOOR
100
AcDbCircle
 10
-22.775
 20
-14.175
 30
0.0
 40
1.2
100
AcDbArc
 50
-90.0
 51
0.0
  0
LINE
  5
102
330
17
100
AcDbEntity
  8
A-DOOR
100
AcDbLine
 10
-15.775
 20
-13.475
 30
0.0
 11
-15.775
 21
-11.474999999999998
 31
0.0
  0
ARC
  5
103
330
17
100
AcDbEntity
  8
A-DOOR
100
AcDbCircle
 10
-15.775
 20
-13.475
 30
0.0
 40
2.0
100
AcDbArc
 50
90.0
 51
180.0
  0
LINE
  5
104
330
17
100
AcDbEntity
  8
A-DOOR
100
AcDbLine
 10
-15.725
 20
-9.525
 30
0.0
 11
-14.325
 21
-9.525
 31
0.0
  0
ARC
  5
105
330
17
100
AcDbEntity
  8
A-DOOR
100
AcDbCircle
 10
-15.725
 20
-9.525
 30
0.0
 40
1.4
100
AcDbArc
 50
0.0
 51
90.0
  0
LINE
  5
106
330
17
100
AcDbEntity
  8
A-DOOR
100
AcDbLine
 10
-13.525
 20
-9.525
 30
0.0
 11
-12.675
 21
-9.525
 31
0.0
  0
ARC
  5
107
330
17
100
AcDbEntity
  8
A-DOOR
100
AcDbCircle
 10
-13.525
 20
-9.525
 30
0.0
 40
0.85
100
AcDbArc
 50
0.0
 51
90.0
  0
LINE
  5
108
330
17
100
AcDbEntity
  8
A-DOOR
100
AcDbLine
 10
-12.525
 20
-9.525
 30
0.0
 11
-11.675
 21
-9.525
 31
0.0
  0
ARC
  5
109
330
17
100
AcDbEntity
  8
A-DOOR
100
AcDbCircle
 10
-12.525
 20
-9.525
 30
0.0
 40
0.85
100
AcDbArc
 50
0.0
 51
90.0
  0
LINE
  5
10A
330
17
100
AcDbEntity
  8
A-DOOR
100
AcDbLine
 10
-11.225
 20
-9.925
 30
0.0
 11
-10.425
 21
-9.925
 31
0.0
  0
ARC
  5
10B
330
17
100
AcDbEntity
  8
A-DOOR
100
AcDbCircle
 10
-11.225
 20
-9.925
 30
0.0
 40
0.8
100
AcDbArc
 50
0.0
 51
90.0
  0
LINE
  5
10C
330
17
100
AcDbEntity
  8
A-DOOR
100
AcDbLine
 10
-20.725
 20
-21.725
 30
0.0
 11
-22.075000000000003
 21
-21.725
 31
0.0
  0
ARC
  5
10D
330
17
100
AcDbEntity
  8
A-DOOR
100
AcDbCircle
 10
-20.725
 20
-21.725
 30
0.0
 40
1.35
100
AcDbArc
 50
180.0
 51
270.0
  0
LINE
  5
10E
330
17
100
AcDbEntity
  8
A-WINDOW
100
AcDbLine
 10
17.125
 20
15.225000000000001
 30
0.0
 11
17.674999999999997
 21
15.225000000000001
 31
0.0
  0
LINE
  5
10F
330
17
100
AcDbEntity
  8
A-WINDOW
100
AcDbLine
 10
17.125
 20
15.325
 30
0.0
 11
17.674999999999997
 21
15.325
 31
0.0
  0
LINE
  5
110
330
17
100
AcDbEntity
  8
A-WINDOW
100
AcDbLine
 10
-11.925
 20
16.375
 30
0.0
 11
-11.175
 21
16.375
 31
0.0
  0
LINE
  5
111
330
17
100
AcDbEntity
  8
A-WINDOW
100
AcDbLine
 10
-11.925
 20
16.475
 30
0.0
 11
-11.175
 21
16.475
 31
0.0
  0
LINE
  5
112
330
17
100
AcDbEntity
  8
A-WINDOW
100
AcDbLine
 10
-9.625
 20
9.925
 30
0.0
 11
-10.175
 21
9.925
 31
0.0
  0
LINE
  5
113
330
17
100
AcDbEntity
  8
A-WINDOW
100
AcDbLine
 10
-9.625
 20
9.825
 30
0.0
 11
-10.175
 21
9.825
 31
0.0
  0
LINE
  5
114
330
17
100
AcDbEntity
  8
A-WINDOW
100
AcDbLine
 10
-10.425
 20
7.075
 30
0.0
 11
-10.425
 21
6.0249999999999995
 31
0.0
  0
LINE
  5
115
330
17
100
AcDbEntity
  8
A-WINDOW
100
AcDbLine
 10
-10.325
 20
7.075
 30
0.0
 11
-10.325
 21
6.0249999999999995
 31
0.0
  0
LINE
  5
116
330
17
100
AcDbEntity
  8
A-WINDOW
100
AcDbLine
 10
-10.425
 20
4.525
 30
0.0
 11
-10.425
 21
2.5749999999999993
 31
0.0
  0
LINE
  5
117
330
17
100
AcDbEntity
  8
A-WINDOW
100
AcDbLine
 10
-10.325
 20
4.525
 30
0.0
 11
-10.325
 21
2.5749999999999993
 31
0.0
  0
LINE
  5
118
330
17
100
AcDbEntity
  8
A-WINDOW
100
AcDbLine
 10
-17.025
 20
-6.0249999999999995
 30
0.0
 11
-17.025
 21
-4.4750000000000005
 31
0.0
  0
LINE
  5
119
330
17
100
AcDbEntity
  8
A-WINDOW
100
AcDbLine
 10
-17.125
 20
-6.0249999999999995
 30
0.0
 11
-17.125
 21
-4.4750000000000005
 31
0.0
  0
LWPOLYLINE
  5
11A
330
17
100
AcDbEntity
  8
A-ROOM
100
AcDbPolyline
 90
4
 70
1
 10
5.325
 20
-9.475
 10
20.875
 20
-9.475
 10
20.875
 20
16.275
 10
5.325
 20
16.275
  0
TEXT
  5
11B
330
17
100
AcDbEntity
  8
A-TEXT
100
AcDbText
 10
13.9662
 20
3.5368
 30
0.0
 40
0.25
  1
R1  340.2 m²
 72
1
 11
13.9662
 21
3.5368
 31
0.0
100
AcDbText
 73
2
  0
LWPOLYLINE
  5
11C
330
17
100
AcDbEntity
  8
A-ROOM
100
AcDbPolyline
 90
4
 70
1
 10
-22.425
 20
-6.775
 10
-6.125
 20
-6.775
 10
-6.125
 20
16.125
 10
-22.425
 20
16.125
  0
TEXT
  5
11D
330
17
100
AcDbEntity
  8
A-TEXT
100
AcDbText
 10
-13.2822
 20
4.2189
 30
0.0
 40
0.25
  1
R2  173.2 m²
 72
1
 11
-13.2822
 21
4.2189
 31
0.0
100
AcDbText
 73
2
  0
LWPOLYLINE
  5
11E
330
17
100
AcDbEntity
  8
A-ROOM
100
AcDbPolyline
 90
4
 70
1
 10
-23.625
 20
-1.725
 10
-16.725
 20
-1.725
 10
-16.725
 20
13.575
 10
-23.625
 20
13.575
  0
TEXT
  5
11F
330
17
100
AcDbEntity
  8
A-TEXT
100
AcDbText
 10
-20.0636
 20
5.9467
 30
0.0
 40
0.25
  1
R3  93.4 m²
 72
1
 11
-20.0636
 21
5.9467
 31
0.0
100
AcDbText
 73
2
  0
LWPOLYLINE
  5
120
330
17
100
AcDbEntity
  8
A-ROOM
100
AcDbPolyline
 90
4
 70
1
 10
-22.575
 20
-19.275
 10
-15.975
 20
-19.275
 10
-15.975
 20
-10.025
 10
-22.575
 20
-10.025
  0
TEXT
  5
121
330
17
100
AcDbEntity
  8
A-TEXT
100
AcDbText
 10
-19.3172
 20
-14.9944
 30
0.0
 40
0.25
  1
R4  53.3 m²
 72
1
 11
-19.3172
 21
-14.9944
 31
0.0
100
AcDbText
 73
2
  0
LWPOLYLINE
  5
122
330
17
100
AcDbEntity
  8
A-ROOM
100
AcDbPolyline
 90
4
 70
1
 10
-21.775
 20
-22.325
 10
-9.575
 20
-22.325
 10
-9.575
 20
-19.725
 10
-21.775
 20
-19.725
  0
TEXT
  5
123
330
17
100
AcDbEntity
  8
A-TEXT
100
AcDbText
 10
-15.0466
 20
-20.8146
 30
0.0
 40
0.25
  1
R5  24.1 m²
 72
1
 11
-15.0466
 21
-20.8146
 31
0.0
100
AcDbText
 73
2
  0
LWPOLYLINE
  5
124
330
17
100
AcDbEntity
  8
A-ROOM
100
AcDbPolyline
 90
4
 70
1
 10
-20.175
 20
-6.475
 10
-17.325
 20
-6.475
 10
-17.325
 20
-3.975
 10
-20.175
 20
-3.975
  0
TEXT
  5
125
330
17
100
AcDbEntity
  8
A-TEXT
100
AcDbText
 10
-18.7168
 20
-5.2499
 30
0.0
 40
0.25
  1
R6  5.5 m²
 72
1
 11
-18.7168
 21
-5.2499
 31
0.0
100
AcDbText
 73
2
  0
LWPOLYLINE
  5
126
330
17
100
AcDbEntity
  8
A-ROOM
100
AcDbPolyline
 90
4
 70
1
 10
6.225
 20
16.775
 10
20.675
 20
16.775
 10
20.675
 20
17.425
 10
6.225
 20
17.425
  0
TEXT
  5
127
330
17
100
AcDbEntity
  8
A-TEXT
100
AcDbText
 10
12.325
 20
17.2393
 30
0.0
 40
0.25
  1
R7  5.5 m²
 72
1
 11
12.325
 21
17.2393
 31
0.0
100
AcDbText
 73
2
  0
LWPOLYLINE
  5
128
330
17
100
AcDbEntity
  8
A-ROOM
100
AcDbPolyline
 90
4
 70
1
 10
-23.625
 20
-19.275
 10
-22.975
 20
-19.275
 10
-22.975
 20
-10.025
 10
-23.625
 20
-10.025
  0
TEXT
  5
129
330
17
100
AcDbEntity
  8
A-TEXT
100
AcDbText
 10
-23.3729
 20
-14.8044
 30
0.0
 40
0.25
  1
R8  5.0 m²
 72
1
 11
-23.3729
 21
-14.8044
 31
0.0
100
AcDbText
 73
2
  0
LWPOLYLINE
  5
12A
330
17
100
AcDbEntity
  8
A-ROOM
100
AcDbPolyline
 90
4
 70
1
 10
-15.475
 20
-19.275
 10
-14.525
 20
-19.275
 10
-14.525
 20
-14.325
 10
-15.475
 20
-14.325
  0
TEXT
  5
12B
330
17
100
AcDbEntity
  8
A-TEXT
100
AcDbText
 10
-15.013
 20
-16.8062
 30
0.0
 40
0.25
  1
R9  4.5 m²
 72
1
 11
-15.013
 21
-16.8062
 31
0.0
100
AcDbText
 73
2
  0
LWPOLYLINE
  5
12C
330
17
100
AcDbEntity
  8
A-ROOM
100
AcDbPolyline
 90
4
 70
1
 10
-22.375
 20
-6.775
 10
-20.925
 20
-6.775
 10
-20.925
 20
-3.775
 10
-22.375
 20
-3.775
  0
TEXT
  5
12D
330
17
100
AcDbEntity
  8
A-TEXT
100
AcDbText
 10
-21.6866
 20
-5.2816
 30
0.0
 40
0.25
  1
R10  4.0 m²
 72
1
 11
-21.6866
 21
-5.2816
 31
0.0
100
AcDbText
 73
2
  0
LWPOLYLINE
  5
12E
330
17
100
AcDbEntity
  8
A-ROOM
100
AcDbPolyline
 90
4
 70
1
 10
-22.275
 20
-3.225
 10
-19.775
 20
-3.225
 10
-19.775
 20
-2.125
 10
-22.275
 20
-2.125
  0
TEXT
  5
12F
330
17
100
AcDbEntity
  8
A-TEXT
100
AcDbText
 10
-21.197
 20
-2.58
 30
0.0
 40
0.25
  1
R11  2.1 m²
 72
1
 11
-21.197
 21
-2.58
 31
0.0
100
AcDbText
 73
2
  0
LWPOLYLINE
  5
130
330
17
100
AcDbEntity
  8
A-ROOM
100
AcDbPolyline
 90
4
 70
1
 10
-15.475
 20
-12.575
 10
-14.525
 20
-12.575
 10
-14.525
 20
-10.625
 10
-15.475
 20
-10.625
  0
TEXT
  5
131
330
17
100
AcDbEntity
  8
A-TEXT
100
AcDbText
 10
-15.0394
 20
-11.5322
 30
0.0
 40
0.25
  1
R12  1.8 m²
 72
1
 11
-15.0394
 21
-11.5322
 31
0.0
100
AcDbText
 73
2
  0
LWPOLYLINE
  5
132
330
17
100
AcDbEntity
  8
A-ROOM
100
AcDbPolyline
 90
4
 70
1
 10
-23.625
 20
-6.925
 10
-22.925
 20
-6.925
 10
-22.925
 20
-3.875
 10
-23.625
 20
-3.875
  0
TEXT
  5
133
330
17
100
AcDbEntity
  8
A-TEXT
100
AcDbText
 10
-23.3595
 20
-5.0883
 30
0.0
 40
0.25
  1
R13  1.5 m²
 72
1
 11
-23.3595
 21
-5.0883
 31
0.0
100
AcDbText
 73
2
  0
TEXT
  5
134
330
17
100
AcDbEntity
  8
A-TEXT
100
AcDbText
 10
-23.075000762939453
 20
-24.625
 30
0.0
 40
0.4
  1
Floor 1  —  153 walls  ·  32 doors  ·  6 windows
 11
-23.075000762939453
 21
-24.625
 31
0.0
100
AcDbText
  0
ENDSEC
  0
SECTION
  2
OBJECTS
  0
DICTIONARY
  5
A
330
0
100
AcDbDictionary
281
1
  3
ACAD_COLOR
350
B
  3
ACAD_GROUP
350
C
  3
ACAD_LAYOUT
350
D
  3
ACAD_MATERIAL
350
E
  3
ACAD_MLEADERSTYLE
350
F
  3
ACAD_MLINESTYLE
350
10
  3
ACAD_PLOTSETTINGS
350
11
  3
ACAD_PLOTSTYLENAME
350
12
  3
ACAD_SCALELIST
350
14
  3
ACAD_TABLESTYLE
350
15
  3
ACAD_VISUALSTYLE
350
16
  3
EZDXF_META
350
2D
  0
DICTIONARY
  5
B
330
A
100
AcDbDictionary
281
1
  0
DICTIONARY
  5
C
330
A
100
AcDbDictionary
281
1
  0
DICTIONARY
  5
D
330
A
100
AcDbDictionary
281
1
  3
Model
350
1A
  3
Layout1
350
1E
  0
DICTIONARY
  5
E
330
A
100
AcDbDictionary
281
1
  3
ByBlock
350
1F
  3
ByLayer
350
20
  3
Global
350
21
  0
DICTIONARY
  5
F
330
A
100
AcDbDictionary
281
1
  3
Standard
350
2C
  0
DICTIONARY
  5
10
330
A
100
AcDbDictionary
281
1
  3
Standard
350
22
  0
DICTIONARY
  5
11
330
A
100
AcDbDictionary
281
1
  0
ACDBDICTIONARYWDFLT
  5
12
330
A
100
AcDbDictionary
281
1
  3
Normal
350
13
100
AcDbDictionaryWithDefault
340
13
  0
ACDBPLACEHOLDER
  5
13
330
12
  0
DICTIONARY
  5
14
330
A
100
AcDbDictionary
281
1
  0
DICTIONARY
  5
15
330
A
100
AcDbDictionary
281
1
  0
DICTIONARY
  5
16
330
A
100
AcDbDictionary
281
1
  0
LAYOUT
  5
1A
330
D
100
AcDbPlotSettings
  1

  4
A3
  6

 40
7.5
 41
20.0
 42
7.5
 43
20.0
 44
420.0
 45
297.0
 46
0.0
 47
0.0
 48
0.0
 49
0.0
140
0.0
141
0.0
142
1.0
143
1.0
 70
1024
 72
1
 73
0
 74
5
  7

 75
16
 76
0
 77
2
 78
300
147
1.0
148
0.0
149
0.0
100
AcDbLayout
  1
Model
 70
1
 71
0
 10
0.0
 20
0.0
 11
420.0
 21
297.0
 12
0.0
 22
0.0
 32
0.0
 14
1e+20
 24
1e+20
 34
1e+20
 15
-1e+20
 25
-1e+20
 35
-1e+20
146
0.0
 13
0.0
 23
0.0
 33
0.0
 16
1.0
 26
0.0
 36
0.0
 17
0.0
 27
1.0
 37
0.0
 76
1
330
17
  0
LAYOUT
  5
1E
330
D
100
AcDbPlotSettings
  1

  4
A3
  6

 40
7.5
 41
20.0
 42
7.5
 43
20.0
 44
420.0
 45
297.0
 46
0.0
 47
0.0
 48
0.0
 49
0.0
140
0.0
141
0.0
142
1.0
143
1.0
 70
0
 72
1
 73
0
 74
5
  7

 75
16
 76
0
 77
2
 78
300
147
1.0
148
0.0
149
0.0
100
AcDbLayout
  1
Layout1
 70
1
 71
1
 10
0.0
 20
0.0
 11
420.0
 21
297.0
 12
0.0
 22
0.0
 32
0.0
 14
1e+20
 24
1e+20
 34
1e+20
 15
-1e+20
 25
-1e+20
 35
-1e+20
146
0.0
 13
0.0
 23
0.0
 33
0.0
 16
1.0
 26
0.0
 36
0.0
 17
0.0
 27
1.0
 37
0.0
 76
1
330
1B
  0
MATERIAL
  5
1F
102
{ACAD_REACTORS
330
E
102
}
330
E
100
AcDbMaterial
  1
ByBlock
  2

 70
0
 40
1.0
 71
1
 41
1.0
 91
-1023410177
 42
1.0
 72
1
  3

 73
1
 74
1
 75
1
 44
0.5
 73
0
 45
1.0
 46
1.0
 77
1
  4

 78
1
 79
1
170
1
 48
1.0
171
1
  6

172
1
173
1
174
1
140
1.0
141
1.0
175
1
  7

176
1
177
1
178
1
143
1.0
179
1
  8

270
1
271
1
272
1
145
1.0
146
1.0
273
1
  9

274
1
275
1
276
1
 42
1.0
 72
1
  3

 73
1
 74
1
 75
1
 94
63
  0
MATERIAL
  5
20
102
{ACAD_REACTORS
330
E
102
}
330
E
100
AcDbMaterial
  1
ByLayer
  2

 70
0
 40
1.0
 71
1
 41
1.0
 91
-1023410177
 42
1.0
 72
1
  3

 73
1
 74
1
 75
1
 44
0.5
 73
0
 45
1.0
 46
1.0
 77
1
  4

 78
1
 79
1
170
1
 48
1.0
171
1
  6

172
1
173
1
174
1
140
1.0
141
1.0
175
1
  7

176
1
177
1
178
1
143
1.0
179
1
  8

270
1
271
1
272
1
145
1.0
146
1.0
273
1
  9

274
1
275
1
276
1
 42
1.0
 72
1
  3

 73
1
 74
1
 75
1
 94
63
  0
MATERIAL
  5
21
102
{ACAD_REACTORS
330
E
102
}
330
E
100
AcDbMaterial
  1
Global
  2

 70
0
 40
1.0
 71
1
 41
1.0
 91
-1023410177
 42
1.0
 72
1
  3

 73
1
 74
1
 75
1
 44
0.5
 73
0
 45
1.0
 46
1.0
 77
1
  4

 78
1
 79
1
170
1
 48
1.0
171
1
  6

172
1
173
1
174
1
140
1.0
141
1.0
175
1
  7

176
1
177
1
178
1
143
1.0
179
1
  8

270
1
271
1
272
1
145
1.0
146
1.0
273
1
  9

274
1
275
1
276
1
 42
1.0
 72
1
  3

 73
1
 74
1
 75
1
 94
63
  0
MLINESTYLE
  5
22
102
{ACAD_REACTORS
330
10
102
}
330
10
100
AcDbMlineStyle
  2
Standard
 70
0
  3

 62
256
 51
90.0
 52
90.0
 71
2
 49
0.5
 62
256
  6
BYLAYER
 49
-0.5
 62
256
  6
BYLAYER
  0
MLEADERSTYLE
  5
2C
102
{ACAD_REACTORS
330
F
102
}
330
F
100
AcDbMLeaderStyle
179
2
170
2
171
1
172
0
 90
2
 40
0.0
 41
0.0
173
1
 91
-1056964608
 92
-2
290
1
 42
2.0
291
1
 43
8.0
  3
Standard
 44
4.0
300

342
29
174
1
175
1
176
0
178
1
 93
-1056964608
 45
4.0
292
0
297
0
 46
4.0
 94
-1056964608
 47
1.0
 49
1.0
140
1.0
294
1
141
0.0
177
0
142
1.0
295
0
296
0
143
3.75
271
0
272
9
273
9
  0
DICTIONARY
  5
2D
330
A
100
AcDbDictionary
280
1
281
1
  3
CREATED_BY_EZDXF
350
2E
  3
WRITTEN_BY_EZDXF
350
137
  0
DICTIONARYVAR
  5
2E
330
2D
100
DictionaryVariables
280
0
  1
1.4.3 @ 2026-04-16T11:14:32.033908+00:00
  0
DICTIONARYVAR
  5
137
330
2D
100
DictionaryVariables
280
0
  1
1.4.3 @ 2026-04-16T11:14:32.037300+00:00
  0
ENDSEC
  0
EOF
