  0
SECTION
  2
HEADER
  9
$ACADVER
  1
AC1024
  9
$ACADMAINTVER
 70
6
  9
$DWGCODEPAGE
  3
ANSI_1252
  9
$LASTSAVEDBY
  1
ezdxf
  9
$INSBASE
 10
0.0
 20
0.0
 30
0.0
  9
$EXTMIN
 10
1e+20
 20
1e+20
 30
1e+20
  9
$EXTMAX
 10
-1e+20
 20
-1e+20
 30
-1e+20
  9
$LIMMIN
 10
0.0
 20
0.0
  9
$LIMMAX
 10
420.0
 20
297.0
  9
$ORTHOMODE
 70
0
  9
$REGENMODE
 70
1
  9
$FILLMODE
 70
1
  9
$QTEXTMODE
 70
0
  9
$MIRRTEXT
 70
1
  9
$LTSCALE
 40
1.0
  9
$ATTMODE
 70
1
  9
$TEXTSIZE
 40
2.5
  9
$TRACEWID
 40
1.0
  9
$TEXTSTYLE
  7
Standard
  9
$CLAYER
  8
0
  9
$CELTYPE
  6
ByLayer
  9
$CECOLOR
 62
256
  9
$CELTSCALE
 40
1.0
  9
$DISPSILH
 70
0
  9
$DIMSCALE
 40
1.0
  9
$DIMASZ
 40
2.5
  9
$DIMEXO
 40
0.625
  9
$DIMDLI
 40
3.75
  9
$DIMRND
 40
0.0
  9
$DIMDLE
 40
0.0
  9
$DIMEXE
 40
1.25
  9
$DIMTP
 40
0.0
  9
$DIMTM
 40
0.0
  9
$DIMTXT
 40
2.5
  9
$DIMCEN
 40
2.5
  9
$DIMTSZ
 40
0.0
  9
$DIMTOL
 70
0
  9
$DIMLIM
 70
0
  9
$DIMTIH
 70
0
  9
$DIMTOH
 70
0
  9
$DIMSE1
 70
0
  9
$DIMSE2
 70
0
  9
$DIMTAD
 70
1
  9
$DIMZIN
 70
8
  9
$DIMBLK
  1

  9
$DIMASO
 70
1
  9
$DIMSHO
 70
1
  9
$DIMPOST
  1

  9
$DIMAPOST
  1

  9
$DIMALT
 70
0
  9
$DIMALTD
 70
3
  9
$DIMALTF
 40
0.03937007874
  9
$DIMLFAC
 40
1.0
  9
$DIMTOFL
 70
1
  9
$DIMTVP
 40
0.0
  9
$DIMTIX
 70
0
  9
$DIMSOXD
 70
0
  9
$DIMSAH
 70
0
  9
$DIMBLK1
  1

  9
$DIMBLK2
  1

  9
$DIMSTYLE
  2
ISO-25
  9
$DIMCLRD
 70
0
  9
$DIMCLRE
 70
0
  9
$DIMCLRT
 70
0
  9
$DIMTFAC
 40
1.0
  9
$DIMGAP
 40
0.625
  9
$DIMJUST
 70
0
  9
$DIMSD1
 70
0
  9
$DIMSD2
 70
0
  9
$DIMTOLJ
 70
0
  9
$DIMTZIN
 70
8
  9
$DIMALTZ
 70
0
  9
$DIMALTTZ
 70
0
  9
$DIMUPT
 70
0
  9
$DIMDEC
 70
2
  9
$DIMTDEC
 70
2
  9
$DIMALTU
 70
2
  9
$DIMALTTD
 70
3
  9
$DIMTXSTY
  7
Standard
  9
$DIMAUNIT
 70
0
  9
$DIMADEC
 70
0
  9
$DIMALTRND
 40
0.0
  9
$DIMAZIN
 70
0
  9
$DIMDSEP
 70
44
  9
$DIMATFIT
 70
3
  9
$DIMFRAC
 70
0
  9
$DIMLDRBLK
  1

  9
$DIMLUNIT
 70
2
  9
$DIMLWD
 70
-2
  9
$DIMLWE
 70
-2
  9
$DIMTMOVE
 70
0
  9
$DIMFXL
 40
1.0
  9
$DIMFXLON
 70
0
  9
$DIMJOGANG
 40
0.785398163397
  9
$DIMTFILL
 70
0
  9
$DIMTFILLCLR
 70
0
  9
$DIMARCSYM
 70
0
  9
$DIMLTYPE
  6

  9
$DIMLTEX1
  6

  9
$DIMLTEX2
  6

  9
$DIMTXTDIRECTION
 70
0
  9
$LUNITS
 70
2
  9
$LUPREC
 70
4
  9
$SKETCHINC
 40
1.0
  9
$FILLETRAD
 40
10.0
  9
$AUNITS
 70
0
  9
$AUPREC
 70
2
  9
$MENU
  1
.
  9
$ELEVATION
 40
0.0
  9
$PELEVATION
 40
0.0
  9
$THICKNESS
 40
0.0
  9
$LIMCHECK
 70
0
  9
$CHAMFERA
 40
0.0
  9
$CHAMFERB
 40
0.0
  9
$CHAMFERC
 40
0.0
  9
$CHAMFERD
 40
0.0
  9
$SKPOLY
 70
0
  9
$TDCREATE
 40
2461141.633888889
  9
$TDUCREATE
 40
2458532.153996898
  9
$TDUPDATE
 40
2461141.633888889
  9
$TDUUPDATE
 40
2458532.1544311
  9
$TDINDWG
 40
0.0
  9
$TDUSRTIMER
 40
0.0
  9
$USRTIMER
 70
1
  9
$ANGBASE
 50
0.0
  9
$ANGDIR
 70
0
  9
$PDMODE
 70
0
  9
$PDSIZE
 40
0.0
  9
$PLINEWID
 40
0.0
  9
$SPLFRAME
 70
0
  9
$SPLINETYPE
 70
6
  9
$SPLINESEGS
 70
8
  9
$HANDSEED
  5
19B
  9
$SURFTAB1
 70
6
  9
$SURFTAB2
 70
6
  9
$SURFTYPE
 70
6
  9
$SURFU
 70
6
  9
$SURFV
 70
6
  9
$UCSBASE
  2

  9
$UCSNAME
  2

  9
$UCSORG
 10
0.0
 20
0.0
 30
0.0
  9
$UCSXDIR
 10
1.0
 20
0.0
 30
0.0
  9
$UCSYDIR
 10
0.0
 20
1.0
 30
0.0
  9
$UCSORTHOREF
  2

  9
$UCSORTHOVIEW
 70
0
  9
$UCSORGTOP
 10
0.0
 20
0.0
 30
0.0
  9
$UCSORGBOTTOM
 10
0.0
 20
0.0
 30
0.0
  9
$UCSORGLEFT
 10
0.0
 20
0.0
 30
0.0
  9
$UCSORGRIGHT
 10
0.0
 20
0.0
 30
0.0
  9
$UCSORGFRONT
 10
0.0
 20
0.0
 30
0.0
  9
$UCSORGBACK
 10
0.0
 20
0.0
 30
0.0
  9
$PUCSBASE
  2

  9
$PUCSNAME
  2

  9
$PUCSORG
 10
0.0
 20
0.0
 30
0.0
  9
$PUCSXDIR
 10
1.0
 20
0.0
 30
0.0
  9
$PUCSYDIR
 10
0.0
 20
1.0
 30
0.0
  9
$PUCSORTHOREF
  2

  9
$PUCSORTHOVIEW
 70
0
  9
$PUCSORGTOP
 10
0.0
 20
0.0
 30
0.0
  9
$PUCSORGBOTTOM
 10
0.0
 20
0.0
 30
0.0
  9
$PUCSORGLEFT
 10
0.0
 20
0.0
 30
0.0
  9
$PUCSORGRIGHT
 10
0.0
 20
0.0
 30
0.0
  9
$PUCSORGFRONT
 10
0.0
 20
0.0
 30
0.0
  9
$PUCSORGBACK
 10
0.0
 20
0.0
 30
0.0
  9
$USERI1
 70
0
  9
$USERI2
 70
0
  9
$USERI3
 70
0
  9
$USERI4
 70
0
  9
$USERI5
 70
0
  9
$USERR1
 40
0.0
  9
$USERR2
 40
0.0
  9
$USERR3
 40
0.0
  9
$USERR4
 40
0.0
  9
$USERR5
 40
0.0
  9
$WORLDVIEW
 70
1
  9
$SHADEDGE
 70
3
  9
$SHADEDIF
 70
70
  9
$TILEMODE
 70
1
  9
$MAXACTVP
 70
64
  9
$PINSBASE
 10
0.0
 20
0.0
 30
0.0
  9
$PLIMCHECK
 70
0
  9
$PEXTMIN
 10
1e+20
 20
1e+20
 30
1e+20
  9
$PEXTMAX
 10
-1e+20
 20
-1e+20
 30
-1e+20
  9
$PLIMMIN
 10
0.0
 20
0.0
  9
$PLIMMAX
 10
420.0
 20
297.0
  9
$UNITMODE
 70
0
  9
$VISRETAIN
 70
1
  9
$PLINEGEN
 70
0
  9
$PSLTSCALE
 70
1
  9
$TREEDEPTH
 70
3020
  9
$CMLSTYLE
  2
Standard
  9
$CMLJUST
 70
0
  9
$CMLSCALE
 40
20.0
  9
$PROXYGRAPHICS
 70
1
  9
$MEASUREMENT
 70
1
  9
$CELWEIGHT
370
-1
  9
$ENDCAPS
280
0
  9
$JOINSTYLE
280
0
  9
$LWDISPLAY
290
0
  9
$INSUNITS
 70
6
  9
$HYPERLINKBASE
  1

  9
$STYLESHEET
  1

  9
$XEDIT
290
1
  9
$CEPSNTYPE
380
0
  9
$PSTYLEMODE
290
1
  9
$FINGERPRINTGUID
  2
{E01EC3CC-9204-425C-AC42-40114965FEE5}
  9
$VERSIONGUID
  2
{187E9DE0-9BA8-494A-90B6-C507B9705CF1}
  9
$EXTNAMES
290
1
  9
$PSVPSCALE
 40
0.0
  9
$OLESTARTUP
290
0
  9
$SORTENTS
280
127
  9
$INDEXCTL
280
0
  9
$HIDETEXT
280
1
  9
$XCLIPFRAME
280
1
  9
$HALOGAP
280
0
  9
$OBSCOLOR
 70
257
  9
$OBSLTYPE
280
0
  9
$INTERSECTIONDISPLAY
280
0
  9
$INTERSECTIONCOLOR
 70
257
  9
$DIMASSOC
280
2
  9
$PROJECTNAME
  1

  9
$CAMERADISPLAY
290
0
  9
$LENSLENGTH
 40
50.0
  9
$CAMERAHEIGHT
 40
0.0
  9
$STEPSPERSEC
 40
24.0
  9
$STEPSIZE
 40
100.0
  9
$3DDWFPREC
 40
2.0
  9
$PSOLWIDTH
 40
0.005
  9
$PSOLHEIGHT
 40
0.08
  9
$LOFTANG1
 40
1.570796326795
  9
$LOFTANG2
 40
1.570796326795
  9
$LOFTMAG1
 40
0.0
  9
$LOFTMAG2
 40
0.0
  9
$LOFTPARAM
 70
7
  9
$LOFTNORMALS
280
1
  9
$LATITUDE
 40
37.795
  9
$LONGITUDE
 40
-122.394
  9
$NORTHDIRECTION
 40
0.0
  9
$TIMEZONE
 70
-8000
  9
$LIGHTGLYPHDISPLAY
280
1
  9
$TILEMODELIGHTSYNCH
280
1
  9
$CMATERIAL
347
20
  9
$SOLIDHIST
280
0
  9
$SHOWHIST
280
1
  9
$DWFFRAME
280
2
  9
$DGNFRAME
280
2
  9
$REALWORLDSCALE
290
1
  9
$INTERFERECOLOR
 62
256
  9
$CSHADOW
280
0
  9
$SHADOWPLANELOCATION
 40
0.0
  0
ENDSEC
  0
SECTION
  2
CLASSES
  0
CLASS
  1
ACDBDICTIONARYWDFLT
  2
AcDbDictionaryWithDefault
  3
ObjectDBX Classes
 90
0
 91
0
280
0
281
0
  0
CLASS
  1
SUN
  2
AcDbSun
  3
SCENEOE
 90
1153
 91
0
280
0
281
0
  0
CLASS
  1
VISUALSTYLE
  2
AcDbVisualStyle
  3
ObjectDBX Classes
 90
4095
 91
0
280
0
281
0
  0
CLASS
  1
MATERIAL
  2
AcDbMaterial
  3
ObjectDBX Classes
 90
1153
 91
0
280
0
281
0
  0
CLASS
  1
SCALE
  2
AcDbScale
  3
ObjectDBX Classes
 90
1153
 91
0
280
0
281
0
  0
CLASS
  1
TABLESTYLE
  2
AcDbTableStyle
  3
ObjectDBX Classes
 90
4095
 91
0
280
0
281
0
  0
CLASS
  1
MLEADERSTYLE
  2
AcDbMLeaderStyle
  3
ACDB_MLEADERSTYLE_CLASS
 90
4095
 91
0
280
0
281
0
  0
CLASS
  1
DICTIONARYVAR
  2
AcDbDictionaryVar
  3
ObjectDBX Classes
 90
0
 91
0
280
0
281
0
  0
CLASS
  1
CELLSTYLEMAP
  2
AcDbCellStyleMap
  3
ObjectDBX Classes
 90
1152
 91
0
280
0
281
0
  0
CLASS
  1
MENTALRAYRENDERSETTINGS
  2
AcDbMentalRayRenderSettings
  3
SCENEOE
 90
1024
 91
0
280
0
281
0
  0
CLASS
  1
ACDBDETAILVIEWSTYLE
  2
AcDbDetailViewStyle
  3
ObjectDBX Classes
 90
1025
 91
0
280
0
281
0
  0
CLASS
  1
ACDBSECTIONVIEWSTYLE
  2
AcDbSectionViewStyle
  3
ObjectDBX Classes
 90
1025
 91
0
280
0
281
0
  0
CLASS
  1
RASTERVARIABLES
  2
AcDbRasterVariables
  3
ISM
 90
0
 91
0
280
0
281
0
  0
CLASS
  1
ACDBPLACEHOLDER
  2
AcDbPlaceHolder
  3
ObjectDBX Classes
 90
0
 91
0
280
0
281
0
  0
CLASS
  1
LAYOUT
  2
AcDbLayout
  3
ObjectDBX Classes
 90
0
 91
0
280
0
281
0
  0
ENDSEC
  0
SECTION
  2
TABLES
  0
TABLE
  2
VPORT
  5
8
330
0
100
AcDbSymbolTable
 70
1
  0
VPORT
  5
23
330
8
100
AcDbSymbolTableRecord
100
AcDbViewportTableRecord
  2
*Active
 70
0
 10
0.0
 20
0.0
 11
1.0
 21
1.0
 12
0.0
 22
0.0
 13
0.0
 23
0.0
 14
0.5
 24
0.5
 15
0.5
 25
0.5
 16
0.0
 26
0.0
 36
1.0
 17
0.0
 27
0.0
 37
0.0
 40
1000.0
 41
1.34
 42
50.0
 43
0.0
 44
0.0
 50
0.0
 51
0.0
 71
0
 72
1000
 73
1
 74
3
 75
0
 76
0
 77
0
 78
0
281
0
 65
0
146
0.0
  0
ENDTAB
  0
TABLE
  2
LTYPE
  5
2
330
0
100
AcDbSymbolTable
 70
3
  0
LTYPE
  5
24
330
2
100
AcDbSymbolTableRecord
100
AcDbLinetypeTableRecord
  2
ByBlock
 70
0
  3

 72
65
 73
0
 40
0.0
  0
LTYPE
  5
25
330
2
100
AcDbSymbolTableRecord
100
AcDbLinetypeTableRecord
  2
ByLayer
 70
0
  3

 72
65
 73
0
 40
0.0
  0
LTYPE
  5
26
330
2
100
AcDbSymbolTableRecord
100
AcDbLinetypeTableRecord
  2
Continuous
 70
0
  3

 72
65
 73
0
 40
0.0
  0
ENDTAB
  0
TABLE
  2
LAYER
  5
1
330
0
100
AcDbSymbolTable
 70
8
  0
LAYER
  5
27
330
1
100
AcDbSymbolTableRecord
100
AcDbLayerTableRecord
  2
0
 70
0
 62
7
  6
Continuous
370
-3
390
13
347
21
  0
LAYER
  5
28
330
1
100
AcDbSymbolTableRecord
100
AcDbLayerTableRecord
  2
Defpoints
 70
0
 62
7
  6
Continuous
290
0
370
-3
390
13
347
21
  0
LAYER
  5
2F
330
1
100
AcDbSymbolTableRecord
100
AcDbLayerTableRecord
  2
A-WALL
 70
0
 62
7
  6
Continuous
370
50
390
13
347
21
  0
LAYER
  5
30
330
1
100
AcDbSymbolTableRecord
100
AcDbLayerTableRecord
  2
A-DOOR
 70
0
 62
3
  6
Continuous
370
35
390
13
347
21
  0
LAYER
  5
31
330
1
100
AcDbSymbolTableRecord
100
AcDbLayerTableRecord
  2
A-WINDOW
 70
0
 62
4
  6
Continuous
370
25
390
13
347
21
  0
LAYER
  5
32
330
1
100
AcDbSymbolTableRecord
100
AcDbLayerTableRecord
  2
A-TEXT
 70
0
 62
2
  6
Continuous
370
-3
390
13
347
21
  0
LAYER
  5
33
330
1
100
AcDbSymbolTableRecord
100
AcDbLayerTableRecord
  2
A-GRID
 70
0
 62
8
  6
Continuous
370
13
390
13
347
21
  0
LAYER
  5
34
330
1
100
AcDbSymbolTableRecord
100
AcDbLayerTableRecord
  2
A-ROOM
 70
0
 62
6
  6
Continuous
370
13
390
13
347
21
  0
ENDTAB
  0
TABLE
  2
STYLE
  5
5
330
0
100
AcDbSymbolTable
 70
1
  0
STYLE
  5
29
330
5
100
AcDbSymbolTableRecord
100
AcDbTextStyleTableRecord
  2
Standard
 70
0
 40
0.0
 41
1.0
 50
0.0
 71
0
 42
2.5
  3
txt
  4

  0
ENDTAB
  0
TABLE
  2
VIEW
  5
7
330
0
100
AcDbSymbolTable
 70
0
  0
ENDTAB
  0
TABLE
  2
UCS
  5
6
330
0
100
AcDbSymbolTable
 70
0
  0
ENDTAB
  0
TABLE
  2
APPID
  5
3
330
0
100
AcDbSymbolTable
 70
3
  0
APPID
  5
2A
330
3
100
AcDbSymbolTableRecord
100
AcDbRegAppTableRecord
  2
ACAD
 70
0
  0
APPID
  5
198
330
3
100
AcDbSymbolTableRecord
100
AcDbRegAppTableRecord
  2
HATCHBACKGROUNDCOLOR
 70
0
  0
APPID
  5
199
330
3
100
AcDbSymbolTableRecord
100
AcDbRegAppTableRecord
  2
EZDXF
 70
0
  0
ENDTAB
  0
TABLE
  2
DIMSTYLE
  5
4
330
0
100
AcDbSymbolTable
 70
1
100
AcDbDimStyleTable
  0
DIMSTYLE
105
2B
330
4
100
AcDbSymbolTableRecord
100
AcDbDimStyleTableRecord
  2
Standard
 70
0
 40
1.0
 41
2.5
 42
0.625
 43
3.75
 44
1.25
 45
0.0
 46
0.0
 47
0.0
 48
0.0
 49
2.5
140
2.5
141
2.5
142
0.0
143
0.03937007874
144
1.0
145
0.0
146
1.0
147
0.625
148
0.0
 69
0
 70
0
 71
0
 72
0
 73
0
 74
0
 75
0
 76
0
 77
1
 78
8
 79
3
170
0
171
3
172
1
173
0
174
0
175
0
176
0
177
0
178
0
179
2
271
2
272
2
273
2
274
3
275
0
276
0
277
2
278
44
279
0
280
0
281
0
282
0
283
0
284
8
285
0
286
0
288
0
289
3
290
0
371
-2
372
-2
  0
ENDTAB
  0
TABLE
  2
BLOCK_RECORD
  5
9
330
0
100
AcDbSymbolTable
 70
2
  0
BLOCK_RECORD
  5
17
330
9
100
AcDbSymbolTableRecord
100
AcDbBlockTableRecord
  2
*Model_Space
340
1A
 70
0
280
1
281
0
  0
BLOCK_RECORD
  5
1B
330
9
100
AcDbSymbolTableRecord
100
AcDbBlockTableRecord
  2
*Paper_Space
340
1E
 70
0
280
1
281
0
  0
ENDTAB
  0
ENDSEC
  0
SECTION
  2
BLOCKS
  0
BLOCK
  5
18
330
17
100
AcDbEntity
  8
0
100
AcDbBlockBegin
  2
*Model_Space
 70
0
 10
0.0
 20
0.0
 30
0.0
  3
*Model_Space
  1

  0
ENDBLK
  5
19
330
17
100
AcDbEntity
  8
0
100
AcDbBlockEnd
  0
BLOCK
  5
1C
330
1B
100
AcDbEntity
  8
0
100
AcDbBlockBegin
  2
*Paper_Space
 70
0
 10
0.0
 20
0.0
 30
0.0
  3
*Paper_Space
  1

  0
ENDBLK
  5
1D
330
1B
100
AcDbEntity
  8
0
100
AcDbBlockEnd
  0
ENDSEC
  0
SECTION
  2
ENTITIES
  0
LINE
  5
35
330
17
100
AcDbEntity
  8
A-WALL
100
AcDbLine
 10
3.2650000000000006
 20
33.004997711181645
 30
0.0
 11
3.164999999999999
 21
33.424997711181646
 31
0.0
  0
LINE
  5
36
330
17
100
AcDbEntity
  8
A-WALL
100
AcDbLine
 10
-0.4549999999999983
 20
32.66499771118164
 30
0.0
 11
-0.4549999999999983
 21
32.144997711181645
 31
0.0
  0
LINE
  5
37
330
17
100
AcDbEntity
  8
A-WALL
100
AcDbLine
 10
0.48499999999999943
 20
32.46499771118164
 30
0.0
 11
0.48499999999999943
 21
31.74499771118164
 31
0.0
  0
LINE
  5
38
330
17
100
AcDbEntity
  8
A-WALL
100
AcDbLine
 10
4.945
 20
34.70499771118165
 30
0.0
 11
4.945
 21
33.784997711181646
 31
0.0
  0
LINE
  5
39
330
17
100
AcDbEntity
  8
A-WALL
100
AcDbLine
 10
6.564999999999998
 20
32.72499771118164
 30
0.0
 11
5.865000000000002
 21
32.72499771118164
 31
0.0
  0
LINE
  5
3A
330
17
100
AcDbEntity
  8
A-WALL
100
AcDbLine
 10
2.085000000000001
 20
30.464997711181645
 30
0.0
 11
2.085000000000001
 21
31.144997711181645
 31
0.0
  0
LINE
  5
3B
330
17
100
AcDbEntity
  8
A-WALL
100
AcDbLine
 10
18.445
 20
15.56499771118164
 30
0.0
 11
18.445
 21
16.124997711181642
 31
0.0
  0
LINE
  5
3C
330
17
100
AcDbEntity
  8
A-WALL
100
AcDbLine
 10
17.605000000000004
 20
12.264997711181643
 30
0.0
 11
17.605000000000004
 21
9.664997711181641
 31
0.0
  0
LINE
  5
3D
330
17
100
AcDbEntity
  8
A-WALL
100
AcDbLine
 10
17.345
 20
14.604997711181639
 30
0.0
 11
17.345
 21
12.92499771118164
 31
0.0
  0
LINE
  5
3E
330
17
100
AcDbEntity
  8
A-WALL
100
AcDbLine
 10
18.365000000000002
 20
15.38499771118164
 30
0.0
 11
17.585
 21
15.38499771118164
 31
0.0
  0
LINE
  5
3F
330
17
100
AcDbEntity
  8
A-WALL
100
AcDbLine
 10
17.905
 20
3.424997711181639
 30
0.0
 11
17.905
 21
5.924997711181639
 31
0.0
  0
LINE
  5
40
330
17
100
AcDbEntity
  8
A-WALL
100
AcDbLine
 10
17.425000000000004
 20
9.144997711181638
 30
0.0
 11
17.425000000000004
 21
6.9849977111816415
 31
0.0
  0
LINE
  5
41
330
17
100
AcDbEntity
  8
A-WALL
100
AcDbLine
 10
17.605000000000004
 20
1.2449977111816395
 30
0.0
 11
17.605000000000004
 21
3.164997711181641
 31
0.0
  0
LINE
  5
42
330
17
100
AcDbEntity
  8
A-WALL
100
AcDbLine
 10
5.744999999999997
 20
2.7049977111816403
 30
0.0
 11
16.145000000000003
 21
2.7049977111816403
 31
0.0
  0
LINE
  5
43
330
17
100
AcDbEntity
  8
A-WALL
100
AcDbLine
 10
14.945
 20
8.70499771118164
 30
0.0
 11
14.945
 21
2.8049977111816418
 31
0.0
  0
LINE
  5
44
330
17
100
AcDbEntity
  8
A-WALL
100
AcDbLine
 10
17.105000000000004
 20
9.764997711181643
 30
0.0
 11
17.105000000000004
 21
10.604997711181639
 31
0.0
  0
LINE
  5
45
330
17
100
AcDbEntity
  8
A-WALL
100
AcDbLine
 10
17.064999999999998
 20
5.20499771118164
 30
0.0
 11
17.064999999999998
 21
4.764997711181643
 31
0.0
  0
LINE
  5
46
330
17
100
AcDbEntity
  8
A-WALL
100
AcDbLine
 10
17.225
 20
4.624997711181642
 30
0.0
 11
17.225
 21
4.164997711181641
 31
0.0
  0
LINE
  5
47
330
17
100
AcDbEntity
  8
A-WALL
100
AcDbLine
 10
-17.395
 20
8.264997711181643
 30
0.0
 11
-17.395
 21
12.364997711181644
 31
0.0
  0
LINE
  5
48
330
17
100
AcDbEntity
  8
A-WALL
100
AcDbLine
 10
18.425000000000004
 20
4.764997711181643
 30
0.0
 11
18.425000000000004
 21
3.5249977111816406
 31
0.0
  0
LINE
  5
49
330
17
100
AcDbEntity
  8
A-WALL
100
AcDbLine
 10
4.305
 20
0.1649977111816412
 30
0.0
 11
4.305
 21
-1.035002288818358
 31
0.0
  0
LINE
  5
4A
330
17
100
AcDbEntity
  8
A-WALL
100
AcDbLine
 10
17.425000000000004
 20
1.6649977111816412
 30
0.0
 11
17.425000000000004
 21
-1.375002288818358
 31
0.0
  0
LINE
  5
4B
330
17
100
AcDbEntity
  8
A-WALL
100
AcDbLine
 10
-17.015
 20
-2.5950022888183604
 30
0.0
 11
-17.015
 21
-8.395002288818358
 31
0.0
  0
LINE
  5
4C
330
17
100
AcDbEntity
  8
A-WALL
100
AcDbLine
 10
-2.0549999999999997
 20
-1.5750022888183572
 30
0.0
 11
-3.2950000000000017
 21
-1.5750022888183572
 31
0.0
  0
LINE
  5
4D
330
17
100
AcDbEntity
  8
A-WALL
100
AcDbLine
 10
-2.2550000000000026
 20
-1.8350022888183588
 30
0.0
 11
-2.2550000000000026
 21
-1.2350022888183574
 31
0.0
  0
LINE
  5
4E
330
17
100
AcDbEntity
  8
A-WALL
100
AcDbLine
 10
-0.8149999999999977
 20
0.624997711181642
 30
0.0
 11
-4.634999999999998
 21
0.624997711181642
 31
0.0
  0
LINE
  5
4F
330
17
100
AcDbEntity
  8
A-WALL
100
AcDbLine
 10
-4.594999999999999
 20
2.664997711181641
 30
0.0
 11
-4.594999999999999
 21
1.5249977111816406
 31
0.0
  0
LINE
  5
50
330
17
100
AcDbEntity
  8
A-WALL
100
AcDbLine
 10
-5.395
 20
3.0249977111816406
 30
0.0
 11
-4.954999999999998
 21
3.0249977111816406
 31
0.0
  0
LINE
  5
51
330
17
100
AcDbEntity
  8
A-WALL
100
AcDbLine
 10
-4.695
 20
3.0649977111816398
 30
0.0
 11
-5.155000000000001
 21
3.0649977111816398
 31
0.0
  0
LINE
  5
52
330
17
100
AcDbEntity
  8
A-WALL
100
AcDbLine
 10
-4.774999999999999
 20
7.584997711181643
 30
0.0
 11
-4.774999999999999
 21
8.02499771118164
 31
0.0
  0
LINE
  5
53
330
17
100
AcDbEntity
  8
A-WALL
100
AcDbLine
 10
-4.734999999999999
 20
8.484997711181641
 30
0.0
 11
-4.734999999999999
 21
11.52499771118164
 31
0.0
  0
LINE
  5
54
330
17
100
AcDbEntity
  8
A-WALL
100
AcDbLine
 10
-4.674999999999997
 20
10.104997711181639
 30
0.0
 11
-5.434999999999999
 21
10.104997711181639
 31
0.0
  0
LINE
  5
55
330
17
100
AcDbEntity
  8
A-WALL
100
AcDbLine
 10
-5.495000000000001
 20
10.864997711181644
 30
0.0
 11
-5.495000000000001
 21
10.184997711181644
 31
0.0
  0
LINE
  5
56
330
17
100
AcDbEntity
  8
A-WALL
100
AcDbLine
 10
-5.495000000000001
 20
11.184997711181644
 30
0.0
 11
-4.795000000000002
 21
11.184997711181644
 31
0.0
  0
LINE
  5
57
330
17
100
AcDbEntity
  8
A-WALL
100
AcDbLine
 10
-4.475000000000001
 20
12.224997711181643
 30
0.0
 11
-7.474999999999998
 21
12.224997711181643
 31
0.0
  0
LINE
  5
58
330
17
100
AcDbEntity
  8
A-WALL
100
AcDbLine
 10
-4.094999999999999
 20
13.784997711181639
 30
0.0
 11
-2.5349999999999966
 21
13.784997711181639
 31
0.0
  0
LINE
  5
59
330
17
100
AcDbEntity
  8
A-WALL
100
AcDbLine
 10
-2.5349999999999966
 20
15.74499771118164
 30
0.0
 11
-3.835000000000001
 21
15.74499771118164
 31
0.0
  0
LINE
  5
5A
330
17
100
AcDbEntity
  8
A-WALL
100
AcDbLine
 10
-5.055
 20
19.004997711181645
 30
0.0
 11
-5.055
 21
15.844997711181641
 31
0.0
  0
LINE
  5
5B
330
17
100
AcDbEntity
  8
A-WALL
100
AcDbLine
 10
-4.814999999999998
 20
20.444997711181642
 30
0.0
 11
-4.814999999999998
 21
19.004997711181645
 31
0.0
  0
LINE
  5
5C
330
17
100
AcDbEntity
  8
A-WALL
100
AcDbLine
 10
-4.655000000000001
 20
22.124997711181642
 30
0.0
 11
-4.655000000000001
 21
21.42499771118164
 31
0.0
  0
LINE
  5
5D
330
17
100
AcDbEntity
  8
A-WALL
100
AcDbLine
 10
-0.134999999999998
 20
2.5249977111816406
 30
0.0
 11
5.725000000000001
 21
2.5249977111816406
 31
0.0
  0
LINE
  5
5E
330
17
100
AcDbEntity
  8
A-WALL
100
AcDbLine
 10
17.685000000000002
 20
-4.875002288818358
 30
0.0
 11
17.685000000000002
 21
-7.6350022888183595
 31
0.0
  0
LINE
  5
5F
330
17
100
AcDbEntity
  8
A-WALL
100
AcDbLine
 10
16.865000000000002
 20
-4.995002288818359
 30
0.0
 11
16.865000000000002
 21
-7.59500228881836
 31
0.0
  0
LINE
  5
60
330
17
100
AcDbEntity
  8
A-WALL
100
AcDbLine
 10
17.285000000000004
 20
-3.8950022888183575
 30
0.0
 11
17.285000000000004
 21
-3.155002288818359
 31
0.0
  0
LINE
  5
61
330
17
100
AcDbEntity
  8
A-WALL
100
AcDbLine
 10
-23.015
 20
-3.335002288818359
 30
0.0
 11
-22.555
 21
-2.9350022888183602
 31
0.0
  0
LINE
  5
62
330
17
100
AcDbEntity
  8
A-WALL
100
AcDbLine
 10
-21.795
 20
-1.5550022888183577
 30
0.0
 11
-22.134999999999998
 21
-2.155002288818359
 31
0.0
  0
LINE
  5
63
330
17
100
AcDbEntity
  8
A-WALL
100
AcDbLine
 10
-27.195
 20
-8.79500228881836
 30
0.0
 11
-27.515
 21
-9.055002288818358
 31
0.0
  0
LINE
  5
64
330
17
100
AcDbEntity
  8
A-WALL
100
AcDbLine
 10
-1.9750000000000014
 20
-9.215002288818358
 30
0.0
 11
-2.9750000000000014
 21
-9.215002288818358
 31
0.0
  0
LINE
  5
65
330
17
100
AcDbEntity
  8
A-WALL
100
AcDbLine
 10
-3.6950000000000003
 20
-12.395002288818358
 30
0.0
 11
-3.6950000000000003
 21
-14.035002288818358
 31
0.0
  0
LINE
  5
66
330
17
100
AcDbEntity
  8
A-WALL
100
AcDbLine
 10
18.125
 20
-13.715002288818358
 30
0.0
 11
19.205
 21
-13.715002288818358
 31
0.0
  0
LINE
  5
67
330
17
100
AcDbEntity
  8
A-WALL
100
AcDbLine
 10
17.665
 20
-14.695002288818358
 30
0.0
 11
17.665
 21
-15.155002288818359
 31
0.0
  0
LINE
  5
68
330
17
100
AcDbEntity
  8
A-WALL
100
AcDbLine
 10
17.425000000000004
 20
-18.25500228881836
 30
0.0
 11
16.945
 21
-18.25500228881836
 31
0.0
  0
LINE
  5
69
330
17
100
AcDbEntity
  8
A-WALL
100
AcDbLine
 10
-3.7550000000000026
 20
-17.375002288818358
 30
0.0
 11
-3.7550000000000026
 21
-18.875002288818358
 31
0.0
  0
LINE
  5
6A
330
17
100
AcDbEntity
  8
A-WALL
100
AcDbLine
 10
-3.655000000000001
 20
-17.415002288818357
 30
0.0
 11
-6.594999999999999
 21
-17.415002288818357
 31
0.0
  0
LINE
  5
6B
330
17
100
AcDbEntity
  8
A-WALL
100
AcDbLine
 10
14.505000000000003
 20
-19.31500228881836
 30
0.0
 11
13.945
 21
-19.31500228881836
 31
0.0
  0
LINE
  5
6C
330
17
100
AcDbEntity
  8
A-WALL
100
AcDbLine
 10
17.545
 20
-19.275002288818357
 30
0.0
 11
18.245000000000005
 21
-19.275002288818357
 31
0.0
  0
LINE
  5
6D
330
17
100
AcDbEntity
  8
A-WALL
100
AcDbLine
 10
-17.235
 20
-16.27500228881836
 30
0.0
 11
-17.235
 21
-8.77500228881836
 31
0.0
  0
LINE
  5
6E
330
17
100
AcDbEntity
  8
A-WALL
100
AcDbLine
 10
15.625
 20
-19.45500228881836
 30
0.0
 11
15.185000000000002
 21
-19.45500228881836
 31
0.0
  0
LINE
  5
6F
330
17
100
AcDbEntity
  8
A-WALL
100
AcDbLine
 10
14.285000000000004
 20
-18.15500228881836
 30
0.0
 11
14.285000000000004
 21
-17.65500228881836
 31
0.0
  0
LINE
  5
70
330
17
100
AcDbEntity
  8
A-WALL
100
AcDbLine
 10
13.945
 20
-17.35500228881836
 30
0.0
 11
13.524999999999999
 21
-17.35500228881836
 31
0.0
  0
LINE
  5
71
330
17
100
AcDbEntity
  8
A-WALL
100
AcDbLine
 10
13.785000000000004
 20
-17.01500228881836
 30
0.0
 11
13.785000000000004
 21
-16.45500228881836
 31
0.0
  0
LINE
  5
72
330
17
100
AcDbEntity
  8
A-WALL
100
AcDbLine
 10
12.945
 20
-14.355002288818358
 30
0.0
 11
13.405000000000001
 21
-14.355002288818358
 31
0.0
  0
LINE
  5
73
330
17
100
AcDbEntity
  8
A-WALL
100
AcDbLine
 10
12.625
 20
-13.91500228881836
 30
0.0
 11
13.085
 21
-13.91500228881836
 31
0.0
  0
LINE
  5
74
330
17
100
AcDbEntity
  8
A-WALL
100
AcDbLine
 10
16.545
 20
-9.97500228881836
 30
0.0
 11
17.064999999999998
 21
-9.97500228881836
 31
0.0
  0
LINE
  5
75
330
17
100
AcDbEntity
  8
A-WALL
100
AcDbLine
 10
16.025
 20
-15.875002288818358
 30
0.0
 11
16.525
 21
-15.875002288818358
 31
0.0
  0
LINE
  5
76
330
17
100
AcDbEntity
  8
A-WALL
100
AcDbLine
 10
10.545000000000002
 20
-20.57500228881836
 30
0.0
 11
10.545000000000002
 21
-21.19500228881836
 31
0.0
  0
LINE
  5
77
330
17
100
AcDbEntity
  8
A-WALL
100
AcDbLine
 10
-6.035
 20
-20.53500228881836
 30
0.0
 11
-4.335000000000001
 21
-20.53500228881836
 31
0.0
  0
LINE
  5
78
330
17
100
AcDbEntity
  8
A-WALL
100
AcDbLine
 10
-3.854999999999997
 20
-20.21500228881836
 30
0.0
 11
-4.394999999999996
 21
-20.33500228881836
 31
0.0
  0
LINE
  5
79
330
17
100
AcDbEntity
  8
A-WALL
100
AcDbLine
 10
-3.174999999999997
 20
-16.09500228881836
 30
0.0
 11
-1.4949999999999974
 21
-16.09500228881836
 31
0.0
  0
LINE
  5
7A
330
17
100
AcDbEntity
  8
A-WALL
100
AcDbLine
 10
-1.3350000000000009
 20
-15.97500228881836
 30
0.0
 11
-1.3350000000000009
 21
-8.035002288818358
 31
0.0
  0
LINE
  5
7B
330
17
100
AcDbEntity
  8
A-WALL
100
AcDbLine
 10
-1.1749999999999972
 20
-8.195002288818358
 30
0.0
 11
-3.0749999999999957
 21
-8.195002288818358
 31
0.0
  0
LINE
  5
7C
330
17
100
AcDbEntity
  8
A-WALL
100
AcDbLine
 10
-1.9350000000000023
 20
-6.5150022888183585
 30
0.0
 11
-1.9350000000000023
 21
-8.035002288818358
 31
0.0
  0
LINE
  5
7D
330
17
100
AcDbEntity
  8
A-WALL
100
AcDbLine
 10
-0.8149999999999977
 20
-6.695002288818358
 30
0.0
 11
-1.8549999999999969
 21
-6.695002288818358
 31
0.0
  0
LINE
  5
7E
330
17
100
AcDbEntity
  8
A-WALL
100
AcDbLine
 10
-0.5150000000000006
 20
-6.79500228881836
 30
0.0
 11
2.325000000000003
 21
-6.79500228881836
 31
0.0
  0
LINE
  5
7F
330
17
100
AcDbEntity
  8
A-WALL
100
AcDbLine
 10
8.365000000000002
 20
-22.61500228881836
 30
0.0
 11
8.825000000000003
 21
-22.61500228881836
 31
0.0
  0
LINE
  5
80
330
17
100
AcDbEntity
  8
A-WALL
100
AcDbLine
 10
-28.415
 20
-23.13500228881836
 30
0.0
 11
-28.415
 21
-21.415002288818357
 31
0.0
  0
LINE
  5
81
330
17
100
AcDbEntity
  8
A-WALL
100
AcDbLine
 10
-28.494999999999997
 20
-18.555002288818358
 30
0.0
 11
-28.494999999999997
 21
-20.555002288818358
 31
0.0
  0
LINE
  5
82
330
17
100
AcDbEntity
  8
A-WALL
100
AcDbLine
 10
-28.435000000000002
 20
-15.29500228881836
 30
0.0
 11
-28.435000000000002
 21
-17.915002288818357
 31
0.0
  0
LINE
  5
83
330
17
100
AcDbEntity
  8
A-WALL
100
AcDbLine
 10
-28.515
 20
-14.47500228881836
 30
0.0
 11
-28.515
 21
-10.335002288818359
 31
0.0
  0
LINE
  5
84
330
17
100
AcDbEntity
  8
A-WALL
100
AcDbLine
 10
20.064999999999998
 20
-22.97500228881836
 30
0.0
 11
19.384999999999998
 21
-22.97500228881836
 31
0.0
  0
LINE
  5
85
330
17
100
AcDbEntity
  8
A-WALL
100
AcDbLine
 10
18.185000000000002
 20
-22.97500228881836
 30
0.0
 11
19.465000000000003
 21
-22.97500228881836
 31
0.0
  0
LINE
  5
86
330
17
100
AcDbEntity
  8
A-WALL
100
AcDbLine
 10
12.405000000000001
 20
-23.85500228881836
 30
0.0
 11
11.865000000000002
 21
-23.85500228881836
 31
0.0
  0
LINE
  5
87
330
17
100
AcDbEntity
  8
A-WALL
100
AcDbLine
 10
10.145000000000003
 20
-25.055002288818358
 30
0.0
 11
10.145000000000003
 21
-25.51500228881836
 31
0.0
  0
LINE
  5
88
330
17
100
AcDbEntity
  8
A-WALL
100
AcDbLine
 10
11.285000000000004
 20
-24.47500228881836
 30
0.0
 11
10.844999999999999
 21
-24.47500228881836
 31
0.0
  0
LINE
  5
89
330
17
100
AcDbEntity
  8
A-WALL
100
AcDbLine
 10
11.704999999999998
 20
-24.29500228881836
 30
0.0
 11
12.485
 21
-24.43500228881836
 31
0.0
  0
LINE
  5
8A
330
17
100
AcDbEntity
  8
A-WALL
100
AcDbLine
 10
12.105000000000004
 20
-26.75500228881836
 30
0.0
 11
12.105000000000004
 21
-27.25500228881836
 31
0.0
  0
LINE
  5
8B
330
17
100
AcDbEntity
  8
A-WALL
100
AcDbLine
 10
2.7049999999999983
 20
-29.97500228881836
 30
0.0
 11
6.244999999999997
 21
-29.97500228881836
 31
0.0
  0
LINE
  5
8C
330
17
100
AcDbEntity
  8
A-WALL
100
AcDbLine
 10
-13.395
 20
-30.555002288818358
 30
0.0
 11
-11.294999999999998
 21
-30.555002288818358
 31
0.0
  0
LINE
  5
8D
330
17
100
AcDbEntity
  8
A-WALL
100
AcDbLine
 10
10.365000000000002
 20
-31.41500228881836
 30
0.0
 11
11.225000000000001
 21
-31.41500228881836
 31
0.0
  0
LINE
  5
8E
330
17
100
AcDbEntity
  8
A-WALL
100
AcDbLine
 10
11.245000000000005
 20
-31.41500228881836
 30
0.0
 11
13.745000000000005
 21
-31.41500228881836
 31
0.0
  0
LINE
  5
8F
330
17
100
AcDbEntity
  8
A-WALL
100
AcDbLine
 10
13.905000000000001
 20
-30.13500228881836
 30
0.0
 11
13.905000000000001
 21
-31.33500228881836
 31
0.0
  0
LINE
  5
90
330
17
100
AcDbEntity
  8
A-WALL
100
AcDbLine
 10
13.965000000000003
 20
-30.15500228881836
 30
0.0
 11
15.225000000000001
 21
-30.15500228881836
 31
0.0
  0
LINE
  5
91
330
17
100
AcDbEntity
  8
A-WALL
100
AcDbLine
 10
17.105000000000004
 20
-30.215002288818358
 30
0.0
 11
15.305
 21
-30.215002288818358
 31
0.0
  0
LINE
  5
92
330
17
100
AcDbEntity
  8
A-WALL
100
AcDbLine
 10
2.4650000000000034
 20
-30.93500228881836
 30
0.0
 11
-0.9549999999999983
 21
-30.93500228881836
 31
0.0
  0
LINE
  5
93
330
17
100
AcDbEntity
  8
A-WALL
100
AcDbLine
 10
1.8250000000000028
 20
32.38499771118164
 30
0.0
 11
1.9250000000000043
 21
32.82499771118164
 31
0.0
  0
LINE
  5
94
330
17
100
AcDbEntity
  8
A-WALL
100
AcDbLine
 10
3.145000000000003
 20
33.46499771118164
 30
0.0
 11
3.145000000000003
 21
33.02499771118164
 31
0.0
  0
LINE
  5
95
330
17
100
AcDbEntity
  8
A-WALL
100
AcDbLine
 10
4.244999999999997
 20
32.60499771118164
 30
0.0
 11
4.704999999999998
 21
32.72499771118164
 31
0.0
  0
LINE
  5
96
330
17
100
AcDbEntity
  8
A-WALL
100
AcDbLine
 10
5.265000000000001
 20
32.44499771118164
 30
0.0
 11
5.265000000000001
 21
32.02499771118164
 31
0.0
  0
LINE
  5
97
330
17
100
AcDbEntity
  8
A-WALL
100
AcDbLine
 10
4.425000000000004
 20
31.02499771118164
 30
0.0
 11
4.425000000000004
 21
30.56499771118164
 31
0.0
  0
LINE
  5
98
330
17
100
AcDbEntity
  8
A-WALL
100
AcDbLine
 10
-10.934999999999999
 20
15.144997711181645
 30
0.0
 11
-9.774999999999999
 21
15.144997711181645
 31
0.0
  0
LINE
  5
99
330
17
100
AcDbEntity
  8
A-WALL
100
AcDbLine
 10
-6.875
 20
14.844997711181641
 30
0.0
 11
-5.835000000000001
 21
14.844997711181641
 31
0.0
  0
LINE
  5
9A
330
17
100
AcDbEntity
  8
A-WALL
100
AcDbLine
 10
-5.774999999999999
 20
14.56499771118164
 30
0.0
 11
-6.254999999999999
 21
14.42499771118164
 31
0.0
  0
LINE
  5
9B
330
17
100
AcDbEntity
  8
A-WALL
100
AcDbLine
 10
17.785000000000004
 20
13.104997711181639
 30
0.0
 11
17.785000000000004
 21
12.52499771118164
 31
0.0
  0
LINE
  5
9C
330
17
100
AcDbEntity
  8
A-WALL
100
AcDbLine
 10
15.765
 20
2.9449977111816423
 30
0.0
 11
15.165
 21
2.9449977111816423
 31
0.0
  0
LINE
  5
9D
330
17
100
AcDbEntity
  8
A-WALL
100
AcDbLine
 10
14.825000000000003
 20
18.764997711181643
 30
0.0
 11
14.825000000000003
 21
9.084997711181643
 31
0.0
  0
LINE
  5
9E
330
17
100
AcDbEntity
  8
A-WALL
100
AcDbLine
 10
15.685000000000002
 20
18.644997711181645
 30
0.0
 11
16.665
 21
18.644997711181645
 31
0.0
  0
LINE
  5
9F
330
17
100
AcDbEntity
  8
A-WALL
100
AcDbLine
 10
17.064999999999998
 20
18.66499771118164
 30
0.0
 11
17.665
 21
18.66499771118164
 31
0.0
  0
LINE
  5
A0
330
17
100
AcDbEntity
  8
A-WALL
100
AcDbLine
 10
18.325000000000003
 20
17.724997711181643
 30
0.0
 11
18.325000000000003
 21
17.264997711181643
 31
0.0
  0
LINE
  5
A1
330
17
100
AcDbEntity
  8
A-WALL
100
AcDbLine
 10
18.345
 20
17.044997711181644
 30
0.0
 11
18.345
 21
16.544997711181644
 31
0.0
  0
LINE
  5
A2
330
17
100
AcDbEntity
  8
A-WALL
100
AcDbLine
 10
18.384999999999998
 20
16.02499771118164
 30
0.0
 11
18.384999999999998
 21
15.56499771118164
 31
0.0
  0
LINE
  5
A3
330
17
100
AcDbEntity
  8
A-WALL
100
AcDbLine
 10
16.985
 20
6.4849977111816415
 30
0.0
 11
16.985
 21
8.624997711181642
 31
0.0
  0
LINE
  5
A4
330
17
100
AcDbEntity
  8
A-WALL
100
AcDbLine
 10
17.105000000000004
 20
5.444997711181642
 30
0.0
 11
17.105000000000004
 21
6.444997711181642
 31
0.0
  0
LINE
  5
A5
330
17
100
AcDbEntity
  8
A-WALL
100
AcDbLine
 10
-17.235
 20
6.764997711181643
 30
0.0
 11
-17.235
 21
2.164997711181641
 31
0.0
  0
LINE
  5
A6
330
17
100
AcDbEntity
  8
A-WALL
100
AcDbLine
 10
-17.375
 20
5.944997711181642
 30
0.0
 11
-17.375
 21
8.044997711181644
 31
0.0
  0
LINE
  5
A7
330
17
100
AcDbEntity
  8
A-WALL
100
AcDbLine
 10
-17.415
 20
7.764997711181643
 30
0.0
 11
-17.415
 21
8.24499771118164
 31
0.0
  0
LINE
  5
A8
330
17
100
AcDbEntity
  8
A-WALL
100
AcDbLine
 10
17.785000000000004
 20
1.2249977111816435
 30
0.0
 11
17.785000000000004
 21
0.6649977111816412
 31
0.0
  0
LINE
  5
A9
330
17
100
AcDbEntity
  8
A-WALL
100
AcDbLine
 10
18.365000000000002
 20
3.084997711181643
 30
0.0
 11
18.365000000000002
 21
2.624997711181642
 31
0.0
  0
LINE
  5
AA
330
17
100
AcDbEntity
  8
A-WALL
100
AcDbLine
 10
-19.855
 20
0.7249977111816435
 30
0.0
 11
-20.375
 21
0.06499771118163977
 31
0.0
  0
LINE
  5
AB
330
17
100
AcDbEntity
  8
A-WALL
100
AcDbLine
 10
-19.855
 20
0.6649977111816412
 30
0.0
 11
-20.235
 21
0.30499771118164176
 31
0.0
  0
LINE
  5
AC
330
17
100
AcDbEntity
  8
A-WALL
100
AcDbLine
 10
3.625
 20
0.6649977111816412
 30
0.0
 11
2.7250000000000014
 21
0.6649977111816412
 31
0.0
  0
LINE
  5
AD
330
17
100
AcDbEntity
  8
A-WALL
100
AcDbLine
 10
2.645000000000003
 20
0.7449977111816395
 30
0.0
 11
1.9650000000000034
 21
0.7449977111816395
 31
0.0
  0
LINE
  5
AE
330
17
100
AcDbEntity
  8
A-WALL
100
AcDbLine
 10
-20.735
 20
-0.27500228881835653
 30
0.0
 11
-21.075
 21
-0.8150022888183557
 31
0.0
  0
LINE
  5
AF
330
17
100
AcDbEntity
  8
A-WALL
100
AcDbLine
 10
-17.255
 20
-2.875002288818358
 30
0.0
 11
-17.695
 21
-2.875002288818358
 31
0.0
  0
LINE
  5
B0
330
17
100
AcDbEntity
  8
A-WALL
100
AcDbLine
 10
-17.695
 20
-2.8550022888183584
 30
0.0
 11
-17.255
 21
-2.8550022888183584
 31
0.0
  0
LINE
  5
B1
330
17
100
AcDbEntity
  8
A-WALL
100
AcDbLine
 10
-17.195
 20
-3.0550022888183577
 30
0.0
 11
-16.775
 21
-3.0550022888183577
 31
0.0
  0
LINE
  5
B2
330
17
100
AcDbEntity
  8
A-WALL
100
AcDbLine
 10
-2.634999999999998
 20
-4.655002288818359
 30
0.0
 11
-3.0749999999999957
 21
-4.655002288818359
 31
0.0
  0
LINE
  5
B3
330
17
100
AcDbEntity
  8
A-WALL
100
AcDbLine
 10
-3.0749999999999957
 20
-4.6350022888183595
 30
0.0
 11
-3.0749999999999957
 21
-3.4350022888183602
 31
0.0
  0
LINE
  5
B4
330
17
100
AcDbEntity
  8
A-WALL
100
AcDbLine
 10
-3.0349999999999966
 20
-3.335002288818359
 30
0.0
 11
-2.354999999999997
 21
-3.335002288818359
 31
0.0
  0
LINE
  5
B5
330
17
100
AcDbEntity
  8
A-WALL
100
AcDbLine
 10
-2.2749999999999986
 20
-2.535002288818358
 30
0.0
 11
-1.8350000000000009
 21
-2.4350022888183602
 31
0.0
  0
LINE
  5
B6
330
17
100
AcDbEntity
  8
A-WALL
100
AcDbLine
 10
-1.5549999999999997
 20
-0.7350022888183574
 30
0.0
 11
-1.5549999999999997
 21
-0.29500228881835966
 31
0.0
  0
LINE
  5
B7
330
17
100
AcDbEntity
  8
A-WALL
100
AcDbLine
 10
-4.655000000000001
 20
1.5649977111816398
 30
0.0
 11
-5.354999999999997
 21
1.5649977111816398
 31
0.0
  0
LINE
  5
B8
330
17
100
AcDbEntity
  8
A-WALL
100
AcDbLine
 10
-5.454999999999998
 20
1.7649977111816426
 30
0.0
 11
-5.454999999999998
 21
2.7249977111816435
 31
0.0
  0
LINE
  5
B9
330
17
100
AcDbEntity
  8
A-WALL
100
AcDbLine
 10
-4.634999999999998
 20
3.344997711181641
 30
0.0
 11
-4.634999999999998
 21
2.7449977111816395
 31
0.0
  0
LINE
  5
BA
330
17
100
AcDbEntity
  8
A-WALL
100
AcDbLine
 10
-5.474999999999998
 20
3.424997711181639
 30
0.0
 11
-5.474999999999998
 21
4.524997711181641
 31
0.0
  0
LINE
  5
BB
330
17
100
AcDbEntity
  8
A-WALL
100
AcDbLine
 10
-5.474999999999998
 20
4.544997711181644
 30
0.0
 11
-4.674999999999997
 21
4.544997711181644
 31
0.0
  0
LINE
  5
BC
330
17
100
AcDbEntity
  8
A-WALL
100
AcDbLine
 10
-4.674999999999997
 20
7.304997711181642
 30
0.0
 11
-4.674999999999997
 21
4.584997711181643
 31
0.0
  0
LINE
  5
BD
330
17
100
AcDbEntity
  8
A-WALL
100
AcDbLine
 10
-4.674999999999997
 20
7.344997711181641
 30
0.0
 11
-5.134999999999998
 21
7.344997711181641
 31
0.0
  0
LINE
  5
BE
330
17
100
AcDbEntity
  8
A-WALL
100
AcDbLine
 10
-5.134999999999998
 20
8.464997711181638
 30
0.0
 11
-4.674999999999997
 21
8.464997711181638
 31
0.0
  0
LINE
  5
BF
330
17
100
AcDbEntity
  8
A-WALL
100
AcDbLine
 10
-3.9750000000000014
 20
13.74499771118164
 30
0.0
 11
-3.9750000000000014
 21
11.92499771118164
 31
0.0
  0
LINE
  5
C0
330
17
100
AcDbEntity
  8
A-WALL
100
AcDbLine
 10
-7.495000000000001
 20
13.644997711181638
 30
0.0
 11
-7.495000000000001
 21
12.52499771118164
 31
0.0
  0
LINE
  5
C1
330
17
100
AcDbEntity
  8
A-WALL
100
AcDbLine
 10
-6.035
 20
13.784997711181639
 30
0.0
 11
-5.274999999999999
 21
13.784997711181639
 31
0.0
  0
LINE
  5
C2
330
17
100
AcDbEntity
  8
A-WALL
100
AcDbLine
 10
-5.015000000000001
 20
13.784997711181639
 30
0.0
 11
-4.375
 21
13.784997711181639
 31
0.0
  0
LINE
  5
C3
330
17
100
AcDbEntity
  8
A-WALL
100
AcDbLine
 10
-2.5349999999999966
 20
15.724997711181643
 30
0.0
 11
-2.5349999999999966
 21
13.824997711181645
 31
0.0
  0
LINE
  5
C4
330
17
100
AcDbEntity
  8
A-WALL
100
AcDbLine
 10
-4.774999999999999
 20
16.34499771118164
 30
0.0
 11
-5.274999999999999
 21
16.34499771118164
 31
0.0
  0
LINE
  5
C5
330
17
100
AcDbEntity
  8
A-WALL
100
AcDbLine
 10
-5.574999999999999
 20
17.224997711181643
 30
0.0
 11
-4.835000000000001
 21
17.224997711181643
 31
0.0
  0
LINE
  5
C6
330
17
100
AcDbEntity
  8
A-WALL
100
AcDbLine
 10
-4.454999999999998
 20
20.144997711181645
 30
0.0
 11
-5.134999999999998
 21
20.324997711181645
 31
0.0
  0
LINE
  5
C7
330
17
100
AcDbEntity
  8
A-WALL
100
AcDbLine
 10
-4.914999999999999
 20
21.444997711181642
 30
0.0
 11
-4.494999999999997
 21
21.444997711181642
 31
0.0
  0
LINE
  5
C8
330
17
100
AcDbEntity
  8
A-WALL
100
AcDbLine
 10
-4.414999999999999
 20
22.144997711181645
 30
0.0
 11
-2.094999999999999
 21
22.144997711181645
 31
0.0
  0
LINE
  5
C9
330
17
100
AcDbEntity
  8
A-WALL
100
AcDbLine
 10
-1.8549999999999969
 20
22.38499771118164
 30
0.0
 11
-1.8549999999999969
 21
27.06499771118164
 31
0.0
  0
LINE
  5
CA
330
17
100
AcDbEntity
  8
A-WALL
100
AcDbLine
 10
-1.9549999999999983
 20
25.52499771118164
 30
0.0
 11
-1.9549999999999983
 21
26.24499771118164
 31
0.0
  0
LINE
  5
CB
330
17
100
AcDbEntity
  8
A-WALL
100
AcDbLine
 10
-4.575000000000003
 20
4.56499771118164
 30
0.0
 11
-4.575000000000003
 21
3.4449977111816423
 31
0.0
  0
LINE
  5
CC
330
17
100
AcDbEntity
  8
A-WALL
100
AcDbLine
 10
-0.7749999999999986
 20
2.624997711181642
 30
0.0
 11
-0.7749999999999986
 21
0.624997711181642
 31
0.0
  0
LINE
  5
CD
330
17
100
AcDbEntity
  8
A-WALL
100
AcDbLine
 10
2.6850000000000023
 20
2.4449977111816423
 30
0.0
 11
1.9250000000000043
 21
2.4449977111816423
 31
0.0
  0
LINE
  5
CE
330
17
100
AcDbEntity
  8
A-WALL
100
AcDbLine
 10
0.865000000000002
 20
2.2449977111816395
 30
0.0
 11
0.2850000000000037
 21
2.2449977111816395
 31
0.0
  0
LINE
  5
CF
330
17
100
AcDbEntity
  8
A-WALL
100
AcDbLine
 10
-1.1749999999999972
 20
0.1649977111816412
 30
0.0
 11
-1.0349999999999966
 21
-0.2550022888183605
 31
0.0
  0
LINE
  5
D0
330
17
100
AcDbEntity
  8
A-WALL
100
AcDbLine
 10
-0.9750000000000014
 20
-0.37500228881835795
 30
0.0
 11
-0.9750000000000014
 21
-2.6350022888183595
 31
0.0
  0
LINE
  5
D1
330
17
100
AcDbEntity
  8
A-WALL
100
AcDbLine
 10
-1.0150000000000006
 20
-3.1750022888183587
 30
0.0
 11
-1.0150000000000006
 21
-2.655002288818359
 31
0.0
  0
LINE
  5
D2
330
17
100
AcDbEntity
  8
A-WALL
100
AcDbLine
 10
-1.0349999999999966
 20
-3.1950022888183582
 30
0.0
 11
-1.0349999999999966
 21
-4.6350022888183595
 31
0.0
  0
LINE
  5
D3
330
17
100
AcDbEntity
  8
A-WALL
100
AcDbLine
 10
-1.0349999999999966
 20
-4.655002288818359
 30
0.0
 11
-2.634999999999998
 21
-4.655002288818359
 31
0.0
  0
LINE
  5
D4
330
17
100
AcDbEntity
  8
A-WALL
100
AcDbLine
 10
11.524999999999999
 20
-6.075002288818357
 30
0.0
 11
11.125
 21
-6.475002288818359
 31
0.0
  0
LINE
  5
D5
330
17
100
AcDbEntity
  8
A-WALL
100
AcDbLine
 10
17.345
 20
-2.875002288818358
 30
0.0
 11
17.345
 21
-3.3150022888183592
 31
0.0
  0
LINE
  5
D6
330
17
100
AcDbEntity
  8
A-WALL
100
AcDbLine
 10
-27.535
 20
-9.235002288818357
 30
0.0
 11
-27.195
 21
-8.675002288818359
 31
0.0
  0
LINE
  5
D7
330
17
100
AcDbEntity
  8
A-WALL
100
AcDbLine
 10
-25.455
 20
-6.475002288818359
 30
0.0
 11
-24.634999999999998
 21
-5.535002288818358
 31
0.0
  0
LINE
  5
D8
330
17
100
AcDbEntity
  8
A-WALL
100
AcDbLine
 10
-24.955
 20
-5.77500228881836
 30
0.0
 11
-25.275
 21
-6.375002288818358
 31
0.0
  0
LINE
  5
D9
330
17
100
AcDbEntity
  8
A-WALL
100
AcDbLine
 10
-24.634999999999998
 20
-5.375002288818358
 30
0.0
 11
-24.275
 21
-5.0150022888183585
 31
0.0
  0
LINE
  5
DA
330
17
100
AcDbEntity
  8
A-WALL
100
AcDbLine
 10
-23.955
 20
-4.45500228881836
 30
0.0
 11
-23.115000000000002
 21
-3.535002288818358
 31
0.0
  0
LINE
  5
DB
330
17
100
AcDbEntity
  8
A-WALL
100
AcDbLine
 10
-22.735
 20
-2.875002288818358
 30
0.0
 11
-22.075
 21
-2.1750022888183587
 31
0.0
  0
LINE
  5
DC
330
17
100
AcDbEntity
  8
A-WALL
100
AcDbLine
 10
-22.075
 20
-2.035002288818358
 30
0.0
 11
-21.575
 21
-1.535002288818358
 31
0.0
  0
LINE
  5
DD
330
17
100
AcDbEntity
  8
A-WALL
100
AcDbLine
 10
-21.735
 20
-1.5750022888183572
 30
0.0
 11
-21.375
 21
-1.2150022888183578
 31
0.0
  0
LINE
  5
DE
330
17
100
AcDbEntity
  8
A-WALL
100
AcDbLine
 10
-21.375
 20
-1.155002288818359
 30
0.0
 11
-21.575
 21
-1.535002288818358
 31
0.0
  0
LINE
  5
DF
330
17
100
AcDbEntity
  8
A-WALL
100
AcDbLine
 10
-23.835
 20
-4.475002288818359
 30
0.0
 11
-24.134999999999998
 21
-4.79500228881836
 31
0.0
  0
LINE
  5
E0
330
17
100
AcDbEntity
  8
A-WALL
100
AcDbLine
 10
-26.075
 20
-7.475002288818359
 30
0.0
 11
-26.455
 21
-7.855002288818358
 31
0.0
  0
LINE
  5
E1
330
17
100
AcDbEntity
  8
A-WALL
100
AcDbLine
 10
19.505000000000003
 20
-9.835002288818359
 30
0.0
 11
19.045
 21
-9.735002288818357
 31
0.0
  0
LINE
  5
E2
330
17
100
AcDbEntity
  8
A-WALL
100
AcDbLine
 10
19.525
 20
-9.075002288818357
 30
0.0
 11
20.025
 21
-8.915002288818357
 31
0.0
  0
LINE
  5
E3
330
17
100
AcDbEntity
  8
A-WALL
100
AcDbLine
 10
20.884999999999998
 20
-9.035002288818358
 30
0.0
 11
21.425000000000004
 21
-9.035002288818358
 31
0.0
  0
LINE
  5
E4
330
17
100
AcDbEntity
  8
A-WALL
100
AcDbLine
 10
17.865000000000002
 20
-10.75500228881836
 30
0.0
 11
17.465000000000003
 21
-10.27500228881836
 31
0.0
  0
LINE
  5
E5
330
17
100
AcDbEntity
  8
A-WALL
100
AcDbLine
 10
17.765
 20
-9.575002288818357
 30
0.0
 11
17.925000000000004
 21
-9.95500228881836
 31
0.0
  0
LINE
  5
E6
330
17
100
AcDbEntity
  8
A-WALL
100
AcDbLine
 10
17.925000000000004
 20
-10.31500228881836
 30
0.0
 11
18.384999999999998
 21
-10.835002288818359
 31
0.0
  0
LINE
  5
E7
330
17
100
AcDbEntity
  8
A-WALL
100
AcDbLine
 10
-24.994999999999997
 20
-13.175002288818359
 30
0.0
 11
-24.674999999999997
 21
-13.47500228881836
 31
0.0
  0
LINE
  5
E8
330
17
100
AcDbEntity
  8
A-WALL
100
AcDbLine
 10
-3.894999999999996
 20
-12.355002288818358
 30
0.0
 11
-5.335000000000001
 21
-12.355002288818358
 31
0.0
  0
LINE
  5
E9
330
17
100
AcDbEntity
  8
A-WALL
100
AcDbLine
 10
-4.195
 20
-11.47500228881836
 30
0.0
 11
-3.875
 21
-11.215002288818358
 31
0.0
  0
LINE
  5
EA
330
17
100
AcDbEntity
  8
A-WALL
100
AcDbLine
 10
-3.854999999999997
 20
-10.155002288818359
 30
0.0
 11
-3.854999999999997
 21
-11.215002288818358
 31
0.0
  0
LINE
  5
EB
330
17
100
AcDbEntity
  8
A-WALL
100
AcDbLine
 10
17.905
 20
-13.27500228881836
 30
0.0
 11
17.905
 21
-13.77500228881836
 31
0.0
  0
LINE
  5
EC
330
17
100
AcDbEntity
  8
A-WALL
100
AcDbLine
 10
18.625
 20
-13.735002288818357
 30
0.0
 11
18.945
 21
-14.035002288818358
 31
0.0
  0
LINE
  5
ED
330
17
100
AcDbEntity
  8
A-WALL
100
AcDbLine
 10
18.045
 20
-18.095002288818357
 30
0.0
 11
18.665
 21
-18.095002288818357
 31
0.0
  0
LINE
  5
EE
330
17
100
AcDbEntity
  8
A-WALL
100
AcDbLine
 10
18.625
 20
-18.33500228881836
 30
0.0
 11
18.145000000000003
 21
-18.235002288818357
 31
0.0
  0
LINE
  5
EF
330
17
100
AcDbEntity
  8
A-WALL
100
AcDbLine
 10
16.465000000000003
 20
-18.555002288818358
 30
0.0
 11
16.064999999999998
 21
-18.47500228881836
 31
0.0
  0
LINE
  5
F0
330
17
100
AcDbEntity
  8
A-WALL
100
AcDbLine
 10
-3.7349999999999994
 20
-18.11500228881836
 30
0.0
 11
-3.7349999999999994
 21
-17.45500228881836
 31
0.0
  0
LINE
  5
F1
330
17
100
AcDbEntity
  8
A-WALL
100
AcDbLine
 10
-4.774999999999999
 20
-18.13500228881836
 30
0.0
 11
-4.774999999999999
 21
-18.61500228881836
 31
0.0
  0
LINE
  5
F2
330
17
100
AcDbEntity
  8
A-WALL
100
AcDbLine
 10
-5.055
 20
-18.65500228881836
 30
0.0
 11
-5.555
 21
-18.65500228881836
 31
0.0
  0
LINE
  5
F3
330
17
100
AcDbEntity
  8
A-WALL
100
AcDbLine
 10
-5.654999999999998
 20
-18.65500228881836
 30
0.0
 11
-7.035
 21
-18.65500228881836
 31
0.0
  0
LINE
  5
F4
330
17
100
AcDbEntity
  8
A-WALL
100
AcDbLine
 10
-7.055
 20
-18.67500228881836
 30
0.0
 11
-7.055
 21
-17.875002288818358
 31
0.0
  0
LINE
  5
F5
330
17
100
AcDbEntity
  8
A-WALL
100
AcDbLine
 10
-6.934999999999999
 20
-17.85500228881836
 30
0.0
 11
-6.175000000000001
 21
-17.85500228881836
 31
0.0
  0
LINE
  5
F6
330
17
100
AcDbEntity
  8
A-WALL
100
AcDbLine
 10
-6.134999999999998
 20
-17.415002288818357
 30
0.0
 11
-6.574999999999999
 21
-17.33500228881836
 31
0.0
  0
LINE
  5
F7
330
17
100
AcDbEntity
  8
A-WALL
100
AcDbLine
 10
-5.234999999999999
 20
-19.17500228881836
 30
0.0
 11
-7.574999999999999
 21
-19.17500228881836
 31
0.0
  0
LINE
  5
F8
330
17
100
AcDbEntity
  8
A-WALL
100
AcDbLine
 10
17.225
 20
-19.01500228881836
 30
0.0
 11
17.365000000000002
 21
-18.555002288818358
 31
0.0
  0
LINE
  5
F9
330
17
100
AcDbEntity
  8
A-WALL
100
AcDbLine
 10
-17.175
 20
-16.555002288818358
 30
0.0
 11
-17.175
 21
-19.61500228881836
 31
0.0
  0
LINE
  5
FA
330
17
100
AcDbEntity
  8
A-WALL
100
AcDbLine
 10
-17.235
 20
-16.99500228881836
 30
0.0
 11
-17.235
 21
-16.395002288818358
 31
0.0
  0
LINE
  5
FB
330
17
100
AcDbEntity
  8
A-WALL
100
AcDbLine
 10
-17.275
 20
-4.855002288818358
 30
0.0
 11
-16.835
 21
-4.855002288818358
 31
0.0
  0
LINE
  5
FC
330
17
100
AcDbEntity
  8
A-WALL
100
AcDbLine
 10
-17.255
 20
-5.995002288818359
 30
0.0
 11
-17.255
 21
-6.45500228881836
 31
0.0
  0
LINE
  5
FD
330
17
100
AcDbEntity
  8
A-WALL
100
AcDbLine
 10
-16.815
 20
-7.075002288818357
 30
0.0
 11
-16.815
 21
-7.475002288818359
 31
0.0
  0
LINE
  5
FE
330
17
100
AcDbEntity
  8
A-WALL
100
AcDbLine
 10
12.905000000000001
 20
-15.175002288818359
 30
0.0
 11
12.445
 21
-15.175002288818359
 31
0.0
  0
LINE
  5
FF
330
17
100
AcDbEntity
  8
A-WALL
100
AcDbLine
 10
14.225000000000001
 20
-11.355002288818358
 30
0.0
 11
14.225000000000001
 21
-10.855002288818358
 31
0.0
  0
LINE
  5
100
330
17
100
AcDbEntity
  8
A-WALL
100
AcDbLine
 10
15.344999999999999
 20
-9.93500228881836
 30
0.0
 11
15.805
 21
-10.035002288818358
 31
0.0
  0
LINE
  5
101
330
17
100
AcDbEntity
  8
A-WALL
100
AcDbLine
 10
16.625
 20
-9.895002288818358
 30
0.0
 11
16.525
 21
-10.355002288818358
 31
0.0
  0
LINE
  5
102
330
17
100
AcDbEntity
  8
A-WALL
100
AcDbLine
 10
17.365000000000002
 20
-10.575002288818357
 30
0.0
 11
17.465000000000003
 21
-11.035002288818358
 31
0.0
  0
LINE
  5
103
330
17
100
AcDbEntity
  8
A-WALL
100
AcDbLine
 10
15.865000000000002
 20
-13.155002288818359
 30
0.0
 11
16.165
 21
-13.575002288818357
 31
0.0
  0
LINE
  5
104
330
17
100
AcDbEntity
  8
A-WALL
100
AcDbLine
 10
16.165
 20
-13.575002288818357
 30
0.0
 11
15.844999999999999
 21
-13.27500228881836
 31
0.0
  0
LINE
  5
105
330
17
100
AcDbEntity
  8
A-WALL
100
AcDbLine
 10
15.465000000000003
 20
-14.035002288818358
 30
0.0
 11
15.865000000000002
 21
-14.175002288818359
 31
0.0
  0
LINE
  5
106
330
17
100
AcDbEntity
  8
A-WALL
100
AcDbLine
 10
15.445
 20
-14.655002288818359
 30
0.0
 11
16.025
 21
-14.655002288818359
 31
0.0
  0
LINE
  5
107
330
17
100
AcDbEntity
  8
A-WALL
100
AcDbLine
 10
16.925000000000004
 20
-14.555002288818358
 30
0.0
 11
16.185000000000002
 21
-14.555002288818358
 31
0.0
  0
LINE
  5
108
330
17
100
AcDbEntity
  8
A-WALL
100
AcDbLine
 10
16.805
 20
-16.49500228881836
 30
0.0
 11
16.384999999999998
 21
-16.49500228881836
 31
0.0
  0
LINE
  5
109
330
17
100
AcDbEntity
  8
A-WALL
100
AcDbLine
 10
15.564999999999998
 20
-16.59500228881836
 30
0.0
 11
15.024999999999999
 21
-16.59500228881836
 31
0.0
  0
LINE
  5
10A
330
17
100
AcDbEntity
  8
A-WALL
100
AcDbLine
 10
14.745000000000005
 20
-17.57500228881836
 30
0.0
 11
15.405000000000001
 21
-17.57500228881836
 31
0.0
  0
LINE
  5
10B
330
17
100
AcDbEntity
  8
A-WALL
100
AcDbLine
 10
16.125
 20
-20.275002288818357
 30
0.0
 11
16.325000000000003
 21
-20.67500228881836
 31
0.0
  0
LINE
  5
10C
330
17
100
AcDbEntity
  8
A-WALL
100
AcDbLine
 10
16.525
 20
-20.85500228881836
 30
0.0
 11
16.965000000000003
 21
-20.85500228881836
 31
0.0
  0
LINE
  5
10D
330
17
100
AcDbEntity
  8
A-WALL
100
AcDbLine
 10
-3.2149999999999963
 20
-21.43500228881836
 30
0.0
 11
-3.2149999999999963
 21
-15.47500228881836
 31
0.0
  0
LINE
  5
10E
330
17
100
AcDbEntity
  8
A-WALL
100
AcDbLine
 10
-3.875
 20
-15.875002288818358
 30
0.0
 11
-3.674999999999997
 21
-15.27500228881836
 31
0.0
  0
LINE
  5
10F
330
17
100
AcDbEntity
  8
A-WALL
100
AcDbLine
 10
-3.835000000000001
 20
-14.375002288818358
 30
0.0
 11
-3.835000000000001
 21
-15.27500228881836
 31
0.0
  0
LINE
  5
110
330
17
100
AcDbEntity
  8
A-WALL
100
AcDbLine
 10
-3.7349999999999994
 20
-15.535002288818358
 30
0.0
 11
-3.3149999999999977
 21
-15.535002288818358
 31
0.0
  0
LINE
  5
111
330
17
100
AcDbEntity
  8
A-WALL
100
AcDbLine
 10
-1.2950000000000017
 20
-12.575002288818357
 30
0.0
 11
-1.2950000000000017
 21
-13.355002288818358
 31
0.0
  0
LINE
  5
112
330
17
100
AcDbEntity
  8
A-WALL
100
AcDbLine
 10
-1.2950000000000017
 20
-11.75500228881836
 30
0.0
 11
-1.2950000000000017
 21
-12.43500228881836
 31
0.0
  0
LINE
  5
113
330
17
100
AcDbEntity
  8
A-WALL
100
AcDbLine
 10
-0.9149999999999991
 20
-5.035002288818358
 30
0.0
 11
-0.9149999999999991
 21
-5.575002288818357
 31
0.0
  0
LINE
  5
114
330
17
100
AcDbEntity
  8
A-WALL
100
AcDbLine
 10
1.365000000000002
 20
-6.855002288818358
 30
0.0
 11
16.165
 21
-6.855002288818358
 31
0.0
  0
LINE
  5
115
330
17
100
AcDbEntity
  8
A-WALL
100
AcDbLine
 10
5.725000000000001
 20
-6.815002288818359
 30
0.0
 11
6.204999999999998
 21
-6.815002288818359
 31
0.0
  0
LINE
  5
116
330
17
100
AcDbEntity
  8
A-WALL
100
AcDbLine
 10
10.064999999999998
 20
-6.3950022888183575
 30
0.0
 11
10.064999999999998
 21
-6.835002288818359
 31
0.0
  0
LINE
  5
117
330
17
100
AcDbEntity
  8
A-WALL
100
AcDbLine
 10
-3.2749999999999986
 20
-20.375002288818358
 30
0.0
 11
-3.7149999999999963
 21
-20.375002288818358
 31
0.0
  0
LINE
  5
118
330
17
100
AcDbEntity
  8
A-WALL
100
AcDbLine
 10
-6.055
 20
-20.45500228881836
 30
0.0
 11
-6.474999999999998
 21
-20.45500228881836
 31
0.0
  0
LINE
  5
119
330
17
100
AcDbEntity
  8
A-WALL
100
AcDbLine
 10
18.105000000000004
 20
-21.47500228881836
 30
0.0
 11
17.365000000000002
 21
-21.13500228881836
 31
0.0
  0
LINE
  5
11A
330
17
100
AcDbEntity
  8
A-WALL
100
AcDbLine
 10
17.425000000000004
 20
-20.875002288818358
 30
0.0
 11
17.865000000000002
 21
-20.875002288818358
 31
0.0
  0
LINE
  5
11B
330
17
100
AcDbEntity
  8
A-WALL
100
AcDbLine
 10
8.825000000000003
 20
-22.97500228881836
 30
0.0
 11
8.465000000000003
 21
-23.19500228881836
 31
0.0
  0
LINE
  5
11C
330
17
100
AcDbEntity
  8
A-WALL
100
AcDbLine
 10
-29.035
 20
-21.13500228881836
 30
0.0
 11
-28.775
 21
-20.67500228881836
 31
0.0
  0
LINE
  5
11D
330
17
100
AcDbEntity
  8
A-WALL
100
AcDbLine
 10
-29.115000000000002
 20
-18.95500228881836
 30
0.0
 11
-28.775
 21
-18.61500228881836
 31
0.0
  0
LINE
  5
11E
330
17
100
AcDbEntity
  8
A-WALL
100
AcDbLine
 10
-28.535
 20
-16.27500228881836
 30
0.0
 11
-28.535
 21
-15.61500228881836
 31
0.0
  0
LINE
  5
11F
330
17
100
AcDbEntity
  8
A-WALL
100
AcDbLine
 10
-28.994999999999997
 20
-14.875002288818358
 30
0.0
 11
-28.535
 21
-14.515002288818359
 31
0.0
  0
LINE
  5
120
330
17
100
AcDbEntity
  8
A-WALL
100
AcDbLine
 10
-28.494999999999997
 20
-11.515002288818359
 30
0.0
 11
-28.494999999999997
 21
-10.355002288818358
 31
0.0
  0
LINE
  5
121
330
17
100
AcDbEntity
  8
A-WALL
100
AcDbLine
 10
-28.615000000000002
 20
-10.655002288818359
 30
0.0
 11
-37.375
 21
-10.655002288818359
 31
0.0
  0
LINE
  5
122
330
17
100
AcDbEntity
  8
A-WALL
100
AcDbLine
 10
19.365000000000002
 20
-23.13500228881836
 30
0.0
 11
18.545
 21
-23.13500228881836
 31
0.0
  0
LINE
  5
123
330
17
100
AcDbEntity
  8
A-WALL
100
AcDbLine
 10
17.125
 20
-22.95500228881836
 30
0.0
 11
16.685000000000002
 21
-22.875002288818358
 31
0.0
  0
LINE
  5
124
330
17
100
AcDbEntity
  8
A-WALL
100
AcDbLine
 10
17.045
 20
-22.055002288818358
 30
0.0
 11
17.465000000000003
 21
-22.17500228881836
 31
0.0
  0
LINE
  5
125
330
17
100
AcDbEntity
  8
A-WALL
100
AcDbLine
 10
10.825000000000003
 20
-22.055002288818358
 30
0.0
 11
11.245000000000005
 21
-22.055002288818358
 31
0.0
  0
LINE
  5
126
330
17
100
AcDbEntity
  8
A-WALL
100
AcDbLine
 10
11.245000000000005
 20
-22.095002288818357
 30
0.0
 11
11.564999999999998
 21
-21.735002288818357
 31
0.0
  0
LINE
  5
127
330
17
100
AcDbEntity
  8
A-WALL
100
AcDbLine
 10
13.965000000000003
 20
-21.43500228881836
 30
0.0
 11
14.285000000000004
 21
-21.775002288818357
 31
0.0
  0
LINE
  5
128
330
17
100
AcDbEntity
  8
A-WALL
100
AcDbLine
 10
14.045000000000002
 20
-21.61500228881836
 30
0.0
 11
13.425000000000004
 21
-21.61500228881836
 31
0.0
  0
LINE
  5
129
330
17
100
AcDbEntity
  8
A-WALL
100
AcDbLine
 10
13.665
 20
-22.57500228881836
 30
0.0
 11
14.165
 21
-22.57500228881836
 31
0.0
  0
LINE
  5
12A
330
17
100
AcDbEntity
  8
A-WALL
100
AcDbLine
 10
12.265
 20
-23.81500228881836
 30
0.0
 11
12.585
 21
-24.13500228881836
 31
0.0
  0
LINE
  5
12B
330
17
100
AcDbEntity
  8
A-WALL
100
AcDbLine
 10
18.025
 20
-24.71500228881836
 30
0.0
 11
18.545
 21
-24.71500228881836
 31
0.0
  0
LINE
  5
12C
330
17
100
AcDbEntity
  8
A-WALL
100
AcDbLine
 10
11.524999999999999
 20
-25.535002288818358
 30
0.0
 11
12.125
 21
-25.735002288818357
 31
0.0
  0
LINE
  5
12D
330
17
100
AcDbEntity
  8
A-WALL
100
AcDbLine
 10
11.325000000000003
 20
-27.27500228881836
 30
0.0
 11
11.325000000000003
 21
-26.735002288818357
 31
0.0
  0
LINE
  5
12E
330
17
100
AcDbEntity
  8
A-WALL
100
AcDbLine
 10
-12.415
 20
-30.95500228881836
 30
0.0
 11
-12.415
 21
-30.555002288818358
 31
0.0
  0
LINE
  5
12F
330
17
100
AcDbEntity
  8
A-WALL
100
AcDbLine
 10
3.365000000000002
 20
-31.17500228881836
 30
0.0
 11
4.005000000000003
 21
-31.17500228881836
 31
0.0
  0
LINE
  5
130
330
17
100
AcDbEntity
  8
A-WALL
100
AcDbLine
 10
6.524999999999999
 20
-31.31500228881836
 30
0.0
 11
10.945
 21
-31.31500228881836
 31
0.0
  0
LINE
  5
131
330
17
100
AcDbEntity
  8
A-WALL
100
AcDbLine
 10
11.965000000000003
 20
-31.97500228881836
 30
0.0
 11
11.605000000000004
 21
-31.61500228881836
 31
0.0
  0
LINE
  5
132
330
17
100
AcDbEntity
  8
A-WALL
100
AcDbLine
 10
-1.5749999999999957
 20
-30.77500228881836
 30
0.0
 11
-6.015000000000001
 21
-30.77500228881836
 31
0.0
  0
LINE
  5
133
330
17
100
AcDbEntity
  8
A-WALL
100
AcDbLine
 10
-4.975000000000001
 20
-31.555002288818358
 30
0.0
 11
-4.975000000000001
 21
-31.035002288818358
 31
0.0
  0
LINE
  5
134
330
17
100
AcDbEntity
  8
A-WALL
100
AcDbLine
 10
-6.094999999999999
 20
-29.19500228881836
 30
0.0
 11
-6.094999999999999
 21
-30.69500228881836
 31
0.0
  0
LINE
  5
135
330
17
100
AcDbEntity
  8
A-WALL
100
AcDbLine
 10
-6.074999999999999
 20
-29.15500228881836
 30
0.0
 11
-9.974999999999998
 21
-29.15500228881836
 31
0.0
  0
LINE
  5
136
330
17
100
AcDbEntity
  8
A-WALL
100
AcDbLine
 10
-7.734999999999999
 20
-29.29500228881836
 30
0.0
 11
-8.254999999999999
 21
-29.29500228881836
 31
0.0
  0
LINE
  5
137
330
17
100
AcDbEntity
  8
A-WALL
100
AcDbLine
 10
-1.9949999999999974
 20
-30.79500228881836
 30
0.0
 11
-1.7349999999999994
 21
-30.47500228881836
 31
0.0
  0
LINE
  5
138
330
17
100
AcDbEntity
  8
A-WALL
100
AcDbLine
 10
2.7049999999999983
 20
-30.09500228881836
 30
0.0
 11
2.7049999999999983
 21
-30.875002288818358
 31
0.0
  0
LINE
  5
139
330
17
100
AcDbEntity
  8
A-DOOR
100
AcDbLine
 10
15.045
 20
2.705
 30
0.0
 11
16.195
 21
2.705
 31
0.0
  0
ARC
  5
13A
330
17
100
AcDbEntity
  8
A-DOOR
100
AcDbCircle
 10
15.045
 20
2.705
 30
0.0
 40
1.15
100
AcDbArc
 50
0.0
 51
90.0
  0
LINE
  5
13B
330
17
100
AcDbEntity
  8
A-DOOR
100
AcDbLine
 10
-17.015
 20
-4.095
 30
0.0
 11
-17.015
 21
-4.794999999999999
 31
0.0
  0
ARC
  5
13C
330
17
100
AcDbEntity
  8
A-DOOR
100
AcDbCircle
 10
-17.015
 20
-4.095
 30
0.0
 40
0.7
100
AcDbArc
 50
-90.0
 51
0.0
  0
LINE
  5
13D
330
17
100
AcDbEntity
  8
A-DOOR
100
AcDbLine
 10
-17.015
 20
-4.895
 30
0.0
 11
-17.015
 21
-6.4449999999999985
 31
0.0
  0
ARC
  5
13E
330
17
100
AcDbEntity
  8
A-DOOR
100
AcDbCircle
 10
-17.015
 20
-4.895
 30
0.0
 40
1.55
100
AcDbArc
 50
-90.0
 51
0.0
  0
LINE
  5
13F
330
17
100
AcDbEntity
  8
A-DOOR
100
AcDbLine
 10
-17.015
 20
-6.795
 30
0.0
 11
-17.015
 21
-7.545
 31
0.0
  0
ARC
  5
140
330
17
100
AcDbEntity
  8
A-DOOR
100
AcDbCircle
 10
-17.015
 20
-6.795
 30
0.0
 40
0.75
100
AcDbArc
 50
-90.0
 51
0.0
  0
LINE
  5
141
330
17
100
AcDbEntity
  8
A-DOOR
100
AcDbLine
 10
-2.405
 20
-1.575
 30
0.0
 11
-3.3050000000000015
 21
-1.575
 31
0.0
  0
ARC
  5
142
330
17
100
AcDbEntity
  8
A-DOOR
100
AcDbCircle
 10
-2.405
 20
-1.575
 30
0.0
 40
0.9
100
AcDbArc
 50
180.0
 51
270.0
  0
LINE
  5
143
330
17
100
AcDbEntity
  8
A-DOOR
100
AcDbLine
 10
-0.815
 20
0.625
 30
0.0
 11
-2.115
 21
0.625
 31
0.0
  0
ARC
  5
144
330
17
100
AcDbEntity
  8
A-DOOR
100
AcDbCircle
 10
-0.815
 20
0.625
 30
0.0
 40
1.3
100
AcDbArc
 50
180.0
 51
270.0
  0
LINE
  5
145
330
17
100
AcDbEntity
  8
A-DOOR
100
AcDbLine
 10
-2.265
 20
0.625
 30
0.0
 11
-4.565
 21
0.625
 31
0.0
  0
ARC
  5
146
330
17
100
AcDbEntity
  8
A-DOOR
100
AcDbCircle
 10
-2.265
 20
0.625
 30
0.0
 40
2.3
100
AcDbArc
 50
180.0
 51
270.0
  0
LINE
  5
147
330
17
100
AcDbEntity
  8
A-DOOR
100
AcDbLine
 10
-4.735
 20
8.485
 30
0.0
 11
-4.735
 21
9.985
 31
0.0
  0
ARC
  5
148
330
17
100
AcDbEntity
  8
A-DOOR
100
AcDbCircle
 10
-4.735
 20
8.485
 30
0.0
 40
1.5
100
AcDbArc
 50
90.0
 51
180.0
  0
LINE
  5
149
330
17
100
AcDbEntity
  8
A-DOOR
100
AcDbLine
 10
-4.475
 20
12.225
 30
0.0
 11
-7.424999999999996
 21
12.225
 31
0.0
  0
ARC
  5
14A
330
17
100
AcDbEntity
  8
A-DOOR
100
AcDbCircle
 10
-4.475
 20
12.225
 30
0.0
 40
2.95
100
AcDbArc
 50
180.0
 51
270.0
  0
LINE
  5
14B
330
17
100
AcDbEntity
  8
A-DOOR
100
AcDbLine
 10
-2.635
 20
15.745
 30
0.0
 11
-3.735000000000004
 21
15.745
 31
0.0
  0
ARC
  5
14C
330
17
100
AcDbEntity
  8
A-DOOR
100
AcDbCircle
 10
-2.635
 20
15.745
 30
0.0
 40
1.1
100
AcDbArc
 50
180.0
 51
270.0
  0
LINE
  5
14D
330
17
100
AcDbEntity
  8
A-DOOR
100
AcDbLine
 10
-5.055
 20
19.005
 30
0.0
 11
-5.055
 21
17.254999999999995
 31
0.0
  0
ARC
  5
14E
330
17
100
AcDbEntity
  8
A-DOOR
100
AcDbCircle
 10
-5.055
 20
19.005
 30
0.0
 40
1.75
100
AcDbArc
 50
-90.0
 51
0.0
  0
LINE
  5
14F
330
17
100
AcDbEntity
  8
A-DOOR
100
AcDbLine
 10
-4.815
 20
20.145
 30
0.0
 11
-4.815
 21
19.045
 31
0.0
  0
ARC
  5
150
330
17
100
AcDbEntity
  8
A-DOOR
100
AcDbCircle
 10
-4.815
 20
20.145
 30
0.0
 40
1.1
100
AcDbArc
 50
-90.0
 51
0.0
  0
LINE
  5
151
330
17
100
AcDbEntity
  8
A-DOOR
100
AcDbLine
 10
-2.275
 20
-9.215
 30
0.0
 11
-2.9749999999999996
 21
-9.215
 31
0.0
  0
ARC
  5
152
330
17
100
AcDbEntity
  8
A-DOOR
100
AcDbCircle
 10
-2.275
 20
-9.215
 30
0.0
 40
0.7
100
AcDbArc
 50
180.0
 51
270.0
  0
LINE
  5
153
330
17
100
AcDbEntity
  8
A-DOOR
100
AcDbLine
 10
-3.695
 20
-12.395
 30
0.0
 11
-3.695
 21
-13.445
 31
0.0
  0
ARC
  5
154
330
17
100
AcDbEntity
  8
A-DOOR
100
AcDbCircle
 10
-3.695
 20
-12.395
 30
0.0
 40
1.05
100
AcDbArc
 50
-90.0
 51
0.0
  0
LINE
  5
155
330
17
100
AcDbEntity
  8
A-DOOR
100
AcDbLine
 10
-12.345
 20
-30.555
 30
0.0
 11
-11.245
 21
-30.555
 31
0.0
  0
ARC
  5
156
330
17
100
AcDbEntity
  8
A-DOOR
100
AcDbCircle
 10
-12.345
 20
-30.555
 30
0.0
 40
1.1
100
AcDbArc
 50
0.0
 51
90.0
  0
LINE
  5
157
330
17
100
AcDbEntity
  8
A-DOOR
100
AcDbLine
 10
2.315
 20
-30.935
 30
0.0
 11
1.1149999999999995
 21
-30.935
 31
0.0
  0
ARC
  5
158
330
17
100
AcDbEntity
  8
A-DOOR
100
AcDbCircle
 10
2.315
 20
-30.935
 30
0.0
 40
1.2
100
AcDbArc
 50
180.0
 51
270.0
  0
LINE
  5
159
330
17
100
AcDbEntity
  8
A-DOOR
100
AcDbLine
 10
-10.585
 20
15.145
 30
0.0
 11
-9.885000000000002
 21
15.145
 31
0.0
  0
ARC
  5
15A
330
17
100
AcDbEntity
  8
A-DOOR
100
AcDbCircle
 10
-10.585
 20
15.145
 30
0.0
 40
0.7
100
AcDbArc
 50
0.0
 51
90.0
  0
LINE
  5
15B
330
17
100
AcDbEntity
  8
A-DOOR
100
AcDbLine
 10
-6.875
 20
14.845
 30
0.0
 11
-5.825000000000001
 21
14.845
 31
0.0
  0
ARC
  5
15C
330
17
100
AcDbEntity
  8
A-DOOR
100
AcDbCircle
 10
-6.875
 20
14.845
 30
0.0
 40
1.05
100
AcDbArc
 50
0.0
 51
90.0
  0
LINE
  5
15D
330
17
100
AcDbEntity
  8
A-DOOR
100
AcDbLine
 10
-4.675
 20
7.255
 30
0.0
 11
-4.675
 21
4.5550000000000015
 31
0.0
  0
ARC
  5
15E
330
17
100
AcDbEntity
  8
A-DOOR
100
AcDbCircle
 10
-4.675
 20
7.255
 30
0.0
 40
2.7
100
AcDbArc
 50
-90.0
 51
0.0
  0
LINE
  5
15F
330
17
100
AcDbEntity
  8
A-DOOR
100
AcDbLine
 10
-2.535
 20
15.175
 30
0.0
 11
-2.535
 21
13.875000000000002
 31
0.0
  0
ARC
  5
160
330
17
100
AcDbEntity
  8
A-DOOR
100
AcDbCircle
 10
-2.535
 20
15.175
 30
0.0
 40
1.3
100
AcDbArc
 50
-90.0
 51
0.0
  0
LINE
  5
161
330
17
100
AcDbEntity
  8
A-DOOR
100
AcDbLine
 10
-0.775
 20
2.575
 30
0.0
 11
-0.775
 21
0.9750000000000001
 31
0.0
  0
ARC
  5
162
330
17
100
AcDbEntity
  8
A-DOOR
100
AcDbCircle
 10
-0.775
 20
2.575
 30
0.0
 40
1.6
100
AcDbArc
 50
-90.0
 51
0.0
  0
LINE
  5
163
330
17
100
AcDbEntity
  8
A-DOOR
100
AcDbLine
 10
-27.535
 20
-9.235
 30
0.0
 11
-27.171696687528623
 21
-8.636618073576553
 31
0.0
  0
ARC
  5
164
330
17
100
AcDbEntity
  8
A-DOOR
100
AcDbCircle
 10
-27.535
 20
-9.235
 30
0.0
 40
0.7
100
AcDbArc
 50
58.736268305622524
 51
148.73626830562253
  0
LINE
  5
165
330
17
100
AcDbEntity
  8
A-DOOR
100
AcDbLine
 10
-4.395
 20
-12.355
 30
0.0
 11
-5.345000000000002
 21
-12.355
 31
0.0
  0
ARC
  5
166
330
17
100
AcDbEntity
  8
A-DOOR
100
AcDbCircle
 10
-4.395
 20
-12.355
 30
0.0
 40
0.95
100
AcDbArc
 50
180.0
 51
270.0
  0
LINE
  5
167
330
17
100
AcDbEntity
  8
A-DOOR
100
AcDbLine
 10
-28.615
 20
-10.655
 30
0.0
 11
-31.165
 21
-10.655
 31
0.0
  0
ARC
  5
168
330
17
100
AcDbEntity
  8
A-DOOR
100
AcDbCircle
 10
-28.615
 20
-10.655
 30
0.0
 40
2.55
100
AcDbArc
 50
180.0
 51
270.0
  0
LINE
  5
169
330
17
100
AcDbEntity
  8
A-DOOR
100
AcDbLine
 10
-35.065
 20
-10.655
 30
0.0
 11
-37.415
 21
-10.655
 31
0.0
  0
ARC
  5
16A
330
17
100
AcDbEntity
  8
A-DOOR
100
AcDbCircle
 10
-35.065
 20
-10.655
 30
0.0
 40
2.35
100
AcDbArc
 50
180.0
 51
270.0
  0
LINE
  5
16B
330
17
100
AcDbEntity
  8
A-DOOR
100
AcDbLine
 10
-6.095
 20
-29.195
 30
0.0
 11
-6.095
 21
-29.895
 31
0.0
  0
ARC
  5
16C
330
17
100
AcDbEntity
  8
A-DOOR
100
AcDbCircle
 10
-6.095
 20
-29.195
 30
0.0
 40
0.7
100
AcDbArc
 50
-90.0
 51
0.0
  0
LINE
  5
16D
330
17
100
AcDbEntity
  8
A-DOOR
100
AcDbLine
 10
-6.825
 20
-29.155
 30
0.0
 11
-9.075
 21
-29.155
 31
0.0
  0
ARC
  5
16E
330
17
100
AcDbEntity
  8
A-DOOR
100
AcDbCircle
 10
-6.825
 20
-29.155
 30
0.0
 40
2.25
100
AcDbArc
 50
180.0
 51
270.0
  0
LINE
  5
16F
330
17
100
AcDbEntity
  8
A-WINDOW
100
AcDbLine
 10
6.794999999999998
 20
2.6550000000000002
 30
0.0
 11
14.745000000000001
 21
2.6550000000000002
 31
0.0
  0
LINE
  5
170
330
17
100
AcDbEntity
  8
A-WINDOW
100
AcDbLine
 10
6.794999999999998
 20
2.755
 30
0.0
 11
14.745000000000001
 21
2.755
 31
0.0
  0
LINE
  5
171
330
17
100
AcDbEntity
  8
A-WINDOW
100
AcDbLine
 10
-3.845000000000001
 20
13.735
 30
0.0
 11
-2.5949999999999993
 21
13.735
 31
0.0
  0
LINE
  5
172
330
17
100
AcDbEntity
  8
A-WINDOW
100
AcDbLine
 10
-3.845000000000001
 20
13.835
 30
0.0
 11
-2.5949999999999993
 21
13.835
 31
0.0
  0
LINE
  5
173
330
17
100
AcDbEntity
  8
A-WINDOW
100
AcDbLine
 10
-17.185
 20
-9.325
 30
0.0
 11
-17.185
 21
-8.825
 31
0.0
  0
LINE
  5
174
330
17
100
AcDbEntity
  8
A-WINDOW
100
AcDbLine
 10
-17.285
 20
-9.325
 30
0.0
 11
-17.285
 21
-8.825
 31
0.0
  0
LINE
  5
175
330
17
100
AcDbEntity
  8
A-WINDOW
100
AcDbLine
 10
12.344999999999999
 20
-31.465
 30
0.0
 11
12.945
 21
-31.465
 31
0.0
  0
LINE
  5
176
330
17
100
AcDbEntity
  8
A-WINDOW
100
AcDbLine
 10
12.344999999999999
 20
-31.365
 30
0.0
 11
12.945
 21
-31.365
 31
0.0
  0
LINE
  5
177
330
17
100
AcDbEntity
  8
A-WINDOW
100
AcDbLine
 10
-17.285
 20
3.365
 30
0.0
 11
-17.285
 21
2.8149999999999995
 31
0.0
  0
LINE
  5
178
330
17
100
AcDbEntity
  8
A-WINDOW
100
AcDbLine
 10
-17.185
 20
3.365
 30
0.0
 11
-17.185
 21
2.8149999999999995
 31
0.0
  0
LINE
  5
179
330
17
100
AcDbEntity
  8
A-WINDOW
100
AcDbLine
 10
-1.805
 20
23.835
 30
0.0
 11
-1.805
 21
25.335
 31
0.0
  0
LINE
  5
17A
330
17
100
AcDbEntity
  8
A-WINDOW
100
AcDbLine
 10
-1.905
 20
23.835
 30
0.0
 11
-1.905
 21
25.335
 31
0.0
  0
LINE
  5
17B
330
17
100
AcDbEntity
  8
A-WINDOW
100
AcDbLine
 10
-17.225
 20
-19.055
 30
0.0
 11
-17.225
 21
-19.655
 31
0.0
  0
LINE
  5
17C
330
17
100
AcDbEntity
  8
A-WINDOW
100
AcDbLine
 10
-17.125
 20
-19.055
 30
0.0
 11
-17.125
 21
-19.655
 31
0.0
  0
LINE
  5
17D
330
17
100
AcDbEntity
  8
A-WINDOW
100
AcDbLine
 10
14.275
 20
-11.355
 30
0.0
 11
14.275
 21
-10.855
 31
0.0
  0
LINE
  5
17E
330
17
100
AcDbEntity
  8
A-WINDOW
100
AcDbLine
 10
14.174999999999999
 20
-11.355
 30
0.0
 11
14.174999999999999
 21
-10.855
 31
0.0
  0
LINE
  5
17F
330
17
100
AcDbEntity
  8
A-WINDOW
100
AcDbLine
 10
2.7650000000000006
 20
-6.905
 30
0.0
 11
5.715
 21
-6.905
 31
0.0
  0
LINE
  5
180
330
17
100
AcDbEntity
  8
A-WINDOW
100
AcDbLine
 10
2.7650000000000006
 20
-6.805000000000001
 30
0.0
 11
5.715
 21
-6.805000000000001
 31
0.0
  0
LINE
  5
181
330
17
100
AcDbEntity
  8
A-WINDOW
100
AcDbLine
 10
7.015
 20
-6.905
 30
0.0
 11
7.515
 21
-6.905
 31
0.0
  0
LINE
  5
182
330
17
100
AcDbEntity
  8
A-WINDOW
100
AcDbLine
 10
7.015
 20
-6.805000000000001
 30
0.0
 11
7.515
 21
-6.805000000000001
 31
0.0
  0
LINE
  5
183
330
17
100
AcDbEntity
  8
A-WINDOW
100
AcDbLine
 10
8.015
 20
-6.905
 30
0.0
 11
8.715
 21
-6.905
 31
0.0
  0
LINE
  5
184
330
17
100
AcDbEntity
  8
A-WINDOW
100
AcDbLine
 10
8.015
 20
-6.805000000000001
 30
0.0
 11
8.715
 21
-6.805000000000001
 31
0.0
  0
LINE
  5
185
330
17
100
AcDbEntity
  8
A-WINDOW
100
AcDbLine
 10
11.604120158102766
 20
-25.6140743083004
 30
0.0
 11
12.125859288537551
 21
-25.787987351778657
 31
0.0
  0
LINE
  5
186
330
17
100
AcDbEntity
  8
A-WINDOW
100
AcDbLine
 10
11.63574071146245
 20
-25.519212648221345
 30
0.0
 11
12.157479841897235
 21
-25.693125691699603
 31
0.0
  0
LINE
  5
187
330
17
100
AcDbEntity
  8
A-WINDOW
100
AcDbLine
 10
-6.145
 20
-30.145
 30
0.0
 11
-6.145
 21
-30.645
 31
0.0
  0
LINE
  5
188
330
17
100
AcDbEntity
  8
A-WINDOW
100
AcDbLine
 10
-6.045
 20
-30.145
 30
0.0
 11
-6.045
 21
-30.645
 31
0.0
  0
LINE
  5
189
330
17
100
AcDbEntity
  8
A-WINDOW
100
AcDbLine
 10
-7.735
 20
-29.245
 30
0.0
 11
-8.285
 21
-29.245
 31
0.0
  0
LINE
  5
18A
330
17
100
AcDbEntity
  8
A-WINDOW
100
AcDbLine
 10
-7.735
 20
-29.345000000000002
 30
0.0
 11
-8.285
 21
-29.345000000000002
 31
0.0
  0
LWPOLYLINE
  5
18B
330
17
100
AcDbEntity
  8
A-ROOM
100
AcDbPolyline
 90
4
 70
1
 10
-0.795
 20
-6.635
 10
18.125
 20
-6.635
 10
18.125
 20
18.425
 10
-0.795
 20
18.425
  0
TEXT
  5
18C
330
17
100
AcDbEntity
  8
A-TEXT
100
AcDbText
 10
9.678
 20
0.2306
 30
0.0
 40
0.25
  1
R1  186.9 m²
 72
1
 11
9.678
 21
0.2306
 31
0.0
100
AcDbText
 73
2
  0
LWPOLYLINE
  5
18D
330
17
100
AcDbEntity
  8
A-ROOM
100
AcDbPolyline
 90
4
 70
1
 10
-3.615
 20
-15.875
 10
-1.555
 20
-15.875
 10
-1.555
 20
-9.455
 10
-3.615
 20
-9.455
  0
TEXT
  5
18E
330
17
100
AcDbEntity
  8
A-TEXT
100
AcDbText
 10
-2.4935
 20
-12.4511
 30
0.0
 40
0.25
  1
R2  11.7 m²
 72
1
 11
-2.4935
 21
-12.4511
 31
0.0
100
AcDbText
 73
2
  0
LWPOLYLINE
  5
18F
330
17
100
AcDbEntity
  8
A-ROOM
100
AcDbPolyline
 90
4
 70
1
 10
-7.255
 20
12.445
 10
-4.195
 20
12.445
 10
-4.195
 20
14.105
 10
-7.255
 20
14.105
  0
TEXT
  5
190
330
17
100
AcDbEntity
  8
A-TEXT
100
AcDbText
 10
-5.8445
 20
13.0776
 30
0.0
 40
0.25
  1
R3  3.7 m²
 72
1
 11
-5.8445
 21
13.0776
 31
0.0
100
AcDbText
 73
2
  0
LWPOLYLINE
  5
191
330
17
100
AcDbEntity
  8
A-ROOM
100
AcDbPolyline
 90
4
 70
1
 10
-5.215
 20
14.005
 10
-2.755
 20
14.005
 10
-2.755
 20
15.525
 10
-5.215
 20
15.525
  0
TEXT
  5
192
330
17
100
AcDbEntity
  8
A-TEXT
100
AcDbText
 10
-3.939
 20
14.7706
 30
0.0
 40
0.25
  1
R4  3.4 m²
 72
1
 11
-3.939
 21
14.7706
 31
0.0
100
AcDbText
 73
2
  0
LWPOLYLINE
  5
193
330
17
100
AcDbEntity
  8
A-ROOM
100
AcDbPolyline
 90
4
 70
1
 10
14.525
 20
-19.235
 10
16.205
 20
-19.235
 10
16.205
 20
-17.815
 10
14.525
 20
-17.815
  0
TEXT
  5
194
330
17
100
AcDbEntity
  8
A-TEXT
100
AcDbText
 10
15.1962
 20
-18.5951
 30
0.0
 40
0.25
  1
R5  1.7 m²
 72
1
 11
15.1962
 21
-18.5951
 31
0.0
100
AcDbText
 73
2
  0
LWPOLYLINE
  5
195
330
17
100
AcDbEntity
  8
A-ROOM
100
AcDbPolyline
 90
4
 70
1
 10
-2.835
 20
-4.435
 10
-1.255
 20
-4.435
 10
-1.255
 20
-3.495
 10
-2.835
 20
-3.495
  0
TEXT
  5
196
330
17
100
AcDbEntity
  8
A-TEXT
100
AcDbText
 10
-2.0389
 20
-3.9802
 30
0.0
 40
0.25
  1
R6  1.4 m²
 72
1
 11
-2.0389
 21
-3.9802
 31
0.0
100
AcDbText
 73
2
  0
TEXT
  5
197
330
17
100
AcDbEntity
  8
A-TEXT
100
AcDbText
 10
-37.375
 20
-34.97500228881836
 30
0.0
 40
0.4
  1
Floor 2  —  260 walls  ·  27 doors  ·  14 windows
 11
-37.375
 21
-34.97500228881836
 31
0.0
100
AcDbText
  0
ENDSEC
  0
SECTION
  2
OBJECTS
  0
DICTIONARY
  5
A
330
0
100
AcDbDictionary
281
1
  3
ACAD_COLOR
350
B
  3
ACAD_GROUP
350
C
  3
ACAD_LAYOUT
350
D
  3
ACAD_MATERIAL
350
E
  3
ACAD_MLEADERSTYLE
350
F
  3
ACAD_MLINESTYLE
350
10
  3
ACAD_PLOTSETTINGS
350
11
  3
ACAD_PLOTSTYLENAME
350
12
  3
ACAD_SCALELIST
350
14
  3
ACAD_TABLESTYLE
350
15
  3
ACAD_VISUALSTYLE
350
16
  3
EZDXF_META
350
2D
  0
DICTIONARY
  5
B
330
A
100
AcDbDictionary
281
1
  0
DICTIONARY
  5
C
330
A
100
AcDbDictionary
281
1
  0
DICTIONARY
  5
D
330
A
100
AcDbDictionary
281
1
  3
Model
350
1A
  3
Layout1
350
1E
  0
DICTIONARY
  5
E
330
A
100
AcDbDictionary
281
1
  3
ByBlock
350
1F
  3
ByLayer
350
20
  3
Global
350
21
  0
DICTIONARY
  5
F
330
A
100
AcDbDictionary
281
1
  3
Standard
350
2C
  0
DICTIONARY
  5
10
330
A
100
AcDbDictionary
281
1
  3
Standard
350
22
  0
DICTIONARY
  5
11
330
A
100
AcDbDictionary
281
1
  0
ACDBDICTIONARYWDFLT
  5
12
330
A
100
AcDbDictionary
281
1
  3
Normal
350
13
100
AcDbDictionaryWithDefault
340
13
  0
ACDBPLACEHOLDER
  5
13
330
12
  0
DICTIONARY
  5
14
330
A
100
AcDbDictionary
281
1
  0
DICTIONARY
  5
15
330
A
100
AcDbDictionary
281
1
  0
DICTIONARY
  5
16
330
A
100
AcDbDictionary
281
1
  0
LAYOUT
  5
1A
330
D
100
AcDbPlotSettings
  1

  4
A3
  6

 40
7.5
 41
20.0
 42
7.5
 43
20.0
 44
420.0
 45
297.0
 46
0.0
 47
0.0
 48
0.0
 49
0.0
140
0.0
141
0.0
142
1.0
143
1.0
 70
1024
 72
1
 73
0
 74
5
  7

 75
16
 76
0
 77
2
 78
300
147
1.0
148
0.0
149
0.0
100
AcDbLayout
  1
Model
 70
1
 71
0
 10
0.0
 20
0.0
 11
420.0
 21
297.0
 12
0.0
 22
0.0
 32
0.0
 14
1e+20
 24
1e+20
 34
1e+20
 15
-1e+20
 25
-1e+20
 35
-1e+20
146
0.0
 13
0.0
 23
0.0
 33
0.0
 16
1.0
 26
0.0
 36
0.0
 17
0.0
 27
1.0
 37
0.0
 76
1
330
17
  0
LAYOUT
  5
1E
330
D
100
AcDbPlotSettings
  1

  4
A3
  6

 40
7.5
 41
20.0
 42
7.5
 43
20.0
 44
420.0
 45
297.0
 46
0.0
 47
0.0
 48
0.0
 49
0.0
140
0.0
141
0.0
142
1.0
143
1.0
 70
0
 72
1
 73
0
 74
5
  7

 75
16
 76
0
 77
2
 78
300
147
1.0
148
0.0
149
0.0
100
AcDbLayout
  1
Layout1
 70
1
 71
1
 10
0.0
 20
0.0
 11
420.0
 21
297.0
 12
0.0
 22
0.0
 32
0.0
 14
1e+20
 24
1e+20
 34
1e+20
 15
-1e+20
 25
-1e+20
 35
-1e+20
146
0.0
 13
0.0
 23
0.0
 33
0.0
 16
1.0
 26
0.0
 36
0.0
 17
0.0
 27
1.0
 37
0.0
 76
1
330
1B
  0
MATERIAL
  5
1F
102
{ACAD_REACTORS
330
E
102
}
330
E
100
AcDbMaterial
  1
ByBlock
  2

 70
0
 40
1.0
 71
1
 41
1.0
 91
-1023410177
 42
1.0
 72
1
  3

 73
1
 74
1
 75
1
 44
0.5
 73
0
 45
1.0
 46
1.0
 77
1
  4

 78
1
 79
1
170
1
 48
1.0
171
1
  6

172
1
173
1
174
1
140
1.0
141
1.0
175
1
  7

176
1
177
1
178
1
143
1.0
179
1
  8

270
1
271
1
272
1
145
1.0
146
1.0
273
1
  9

274
1
275
1
276
1
 42
1.0
 72
1
  3

 73
1
 74
1
 75
1
 94
63
  0
MATERIAL
  5
20
102
{ACAD_REACTORS
330
E
102
}
330
E
100
AcDbMaterial
  1
ByLayer
  2

 70
0
 40
1.0
 71
1
 41
1.0
 91
-1023410177
 42
1.0
 72
1
  3

 73
1
 74
1
 75
1
 44
0.5
 73
0
 45
1.0
 46
1.0
 77
1
  4

 78
1
 79
1
170
1
 48
1.0
171
1
  6

172
1
173
1
174
1
140
1.0
141
1.0
175
1
  7

176
1
177
1
178
1
143
1.0
179
1
  8

270
1
271
1
272
1
145
1.0
146
1.0
273
1
  9

274
1
275
1
276
1
 42
1.0
 72
1
  3

 73
1
 74
1
 75
1
 94
63
  0
MATERIAL
  5
21
102
{ACAD_REACTORS
330
E
102
}
330
E
100
AcDbMaterial
  1
Global
  2

 70
0
 40
1.0
 71
1
 41
1.0
 91
-1023410177
 42
1.0
 72
1
  3

 73
1
 74
1
 75
1
 44
0.5
 73
0
 45
1.0
 46
1.0
 77
1
  4

 78
1
 79
1
170
1
 48
1.0
171
1
  6

172
1
173
1
174
1
140
1.0
141
1.0
175
1
  7

176
1
177
1
178
1
143
1.0
179
1
  8

270
1
271
1
272
1
145
1.0
146
1.0
273
1
  9

274
1
275
1
276
1
 42
1.0
 72
1
  3

 73
1
 74
1
 75
1
 94
63
  0
MLINESTYLE
  5
22
102
{ACAD_REACTORS
330
10
102
}
330
10
100
AcDbMlineStyle
  2
Standard
 70
0
  3

 62
256
 51
90.0
 52
90.0
 71
2
 49
0.5
 62
256
  6
BYLAYER
 49
-0.5
 62
256
  6
BYLAYER
  0
MLEADERSTYLE
  5
2C
102
{ACAD_REACTORS
330
F
102
}
330
F
100
AcDbMLeaderStyle
179
2
170
2
171
1
172
0
 90
2
 40
0.0
 41
0.0
173
1
 91
-1056964608
 92
-2
290
1
 42
2.0
291
1
 43
8.0
  3
Standard
 44
4.0
300

342
29
174
1
175
1
176
0
178
1
 93
-1056964608
 45
4.0
292
0
297
0
 46
4.0
 94
-1056964608
 47
1.0
 49
1.0
140
1.0
294
1
141
0.0
177
0
142
1.0
295
0
296
0
143
3.75
271
0
272
9
273
9
  0
DICTIONARY
  5
2D
330
A
100
AcDbDictionary
280
1
281
1
  3
CREATED_BY_EZDXF
350
2E
  3
WRITTEN_BY_EZDXF
350
19A
  0
DICTIONARYVAR
  5
2E
330
2D
100
DictionaryVariables
280
0
  1
1.4.3 @ 2026-04-10T13:12:48.628923+00:00
  0
DICTIONARYVAR
  5
19A
330
2D
100
DictionaryVariables
280
0
  1
1.4.3 @ 2026-04-10T13:12:48.633204+00:00
  0
ENDSEC
  0
EOF
