  0
SECTION
  2
HEADER
  9
$ACADVER
  1
AC1024
  9
$ACADMAINTVER
 70
6
  9
$DWGCODEPAGE
  3
ANSI_1252
  9
$LASTSAVEDBY
  1
ezdxf
  9
$INSBASE
 10
0.0
 20
0.0
 30
0.0
  9
$EXTMIN
 10
1e+20
 20
1e+20
 30
1e+20
  9
$EXTMAX
 10
-1e+20
 20
-1e+20
 30
-1e+20
  9
$LIMMIN
 10
0.0
 20
0.0
  9
$LIMMAX
 10
420.0
 20
297.0
  9
$ORTHOMODE
 70
0
  9
$REGENMODE
 70
1
  9
$FILLMODE
 70
1
  9
$QTEXTMODE
 70
0
  9
$MIRRTEXT
 70
1
  9
$LTSCALE
 40
1.0
  9
$ATTMODE
 70
1
  9
$TEXTSIZE
 40
2.5
  9
$TRACEWID
 40
1.0
  9
$TEXTSTYLE
  7
Standard
  9
$CLAYER
  8
0
  9
$CELTYPE
  6
ByLayer
  9
$CECOLOR
 62
256
  9
$CELTSCALE
 40
1.0
  9
$DISPSILH
 70
0
  9
$DIMSCALE
 40
1.0
  9
$DIMASZ
 40
2.5
  9
$DIMEXO
 40
0.625
  9
$DIMDLI
 40
3.75
  9
$DIMRND
 40
0.0
  9
$DIMDLE
 40
0.0
  9
$DIMEXE
 40
1.25
  9
$DIMTP
 40
0.0
  9
$DIMTM
 40
0.0
  9
$DIMTXT
 40
2.5
  9
$DIMCEN
 40
2.5
  9
$DIMTSZ
 40
0.0
  9
$DIMTOL
 70
0
  9
$DIMLIM
 70
0
  9
$DIMTIH
 70
0
  9
$DIMTOH
 70
0
  9
$DIMSE1
 70
0
  9
$DIMSE2
 70
0
  9
$DIMTAD
 70
1
  9
$DIMZIN
 70
8
  9
$DIMBLK
  1

  9
$DIMASO
 70
1
  9
$DIMSHO
 70
1
  9
$DIMPOST
  1

  9
$DIMAPOST
  1

  9
$DIMALT
 70
0
  9
$DIMALTD
 70
3
  9
$DIMALTF
 40
0.03937007874
  9
$DIMLFAC
 40
1.0
  9
$DIMTOFL
 70
1
  9
$DIMTVP
 40
0.0
  9
$DIMTIX
 70
0
  9
$DIMSOXD
 70
0
  9
$DIMSAH
 70
0
  9
$DIMBLK1
  1

  9
$DIMBLK2
  1

  9
$DIMSTYLE
  2
ISO-25
  9
$DIMCLRD
 70
0
  9
$DIMCLRE
 70
0
  9
$DIMCLRT
 70
0
  9
$DIMTFAC
 40
1.0
  9
$DIMGAP
 40
0.625
  9
$DIMJUST
 70
0
  9
$DIMSD1
 70
0
  9
$DIMSD2
 70
0
  9
$DIMTOLJ
 70
0
  9
$DIMTZIN
 70
8
  9
$DIMALTZ
 70
0
  9
$DIMALTTZ
 70
0
  9
$DIMUPT
 70
0
  9
$DIMDEC
 70
2
  9
$DIMTDEC
 70
2
  9
$DIMALTU
 70
2
  9
$DIMALTTD
 70
3
  9
$DIMTXSTY
  7
Standard
  9
$DIMAUNIT
 70
0
  9
$DIMADEC
 70
0
  9
$DIMALTRND
 40
0.0
  9
$DIMAZIN
 70
0
  9
$DIMDSEP
 70
44
  9
$DIMATFIT
 70
3
  9
$DIMFRAC
 70
0
  9
$DIMLDRBLK
  1

  9
$DIMLUNIT
 70
2
  9
$DIMLWD
 70
-2
  9
$DIMLWE
 70
-2
  9
$DIMTMOVE
 70
0
  9
$DIMFXL
 40
1.0
  9
$DIMFXLON
 70
0
  9
$DIMJOGANG
 40
0.785398163397
  9
$DIMTFILL
 70
0
  9
$DIMTFILLCLR
 70
0
  9
$DIMARCSYM
 70
0
  9
$DIMLTYPE
  6

  9
$DIMLTEX1
  6

  9
$DIMLTEX2
  6

  9
$DIMTXTDIRECTION
 70
0
  9
$LUNITS
 70
2
  9
$LUPREC
 70
4
  9
$SKETCHINC
 40
1.0
  9
$FILLETRAD
 40
10.0
  9
$AUNITS
 70
0
  9
$AUPREC
 70
2
  9
$MENU
  1
.
  9
$ELEVATION
 40
0.0
  9
$PELEVATION
 40
0.0
  9
$THICKNESS
 40
0.0
  9
$LIMCHECK
 70
0
  9
$CHAMFERA
 40
0.0
  9
$CHAMFERB
 40
0.0
  9
$CHAMFERC
 40
0.0
  9
$CHAMFERD
 40
0.0
  9
$SKPOLY
 70
0
  9
$TDCREATE
 40
2461132.6153472224
  9
$TDUCREATE
 40
2458532.153996898
  9
$TDUPDATE
 40
2461132.6153472224
  9
$TDUUPDATE
 40
2458532.1544311
  9
$TDINDWG
 40
0.0
  9
$TDUSRTIMER
 40
0.0
  9
$USRTIMER
 70
1
  9
$ANGBASE
 50
0.0
  9
$ANGDIR
 70
0
  9
$PDMODE
 70
0
  9
$PDSIZE
 40
0.0
  9
$PLINEWID
 40
0.0
  9
$SPLFRAME
 70
0
  9
$SPLINETYPE
 70
6
  9
$SPLINESEGS
 70
8
  9
$HANDSEED
  5
94
  9
$SURFTAB1
 70
6
  9
$SURFTAB2
 70
6
  9
$SURFTYPE
 70
6
  9
$SURFU
 70
6
  9
$SURFV
 70
6
  9
$UCSBASE
  2

  9
$UCSNAME
  2

  9
$UCSORG
 10
0.0
 20
0.0
 30
0.0
  9
$UCSXDIR
 10
1.0
 20
0.0
 30
0.0
  9
$UCSYDIR
 10
0.0
 20
1.0
 30
0.0
  9
$UCSORTHOREF
  2

  9
$UCSORTHOVIEW
 70
0
  9
$UCSORGTOP
 10
0.0
 20
0.0
 30
0.0
  9
$UCSORGBOTTOM
 10
0.0
 20
0.0
 30
0.0
  9
$UCSORGLEFT
 10
0.0
 20
0.0
 30
0.0
  9
$UCSORGRIGHT
 10
0.0
 20
0.0
 30
0.0
  9
$UCSORGFRONT
 10
0.0
 20
0.0
 30
0.0
  9
$UCSORGBACK
 10
0.0
 20
0.0
 30
0.0
  9
$PUCSBASE
  2

  9
$PUCSNAME
  2

  9
$PUCSORG
 10
0.0
 20
0.0
 30
0.0
  9
$PUCSXDIR
 10
1.0
 20
0.0
 30
0.0
  9
$PUCSYDIR
 10
0.0
 20
1.0
 30
0.0
  9
$PUCSORTHOREF
  2

  9
$PUCSORTHOVIEW
 70
0
  9
$PUCSORGTOP
 10
0.0
 20
0.0
 30
0.0
  9
$PUCSORGBOTTOM
 10
0.0
 20
0.0
 30
0.0
  9
$PUCSORGLEFT
 10
0.0
 20
0.0
 30
0.0
  9
$PUCSORGRIGHT
 10
0.0
 20
0.0
 30
0.0
  9
$PUCSORGFRONT
 10
0.0
 20
0.0
 30
0.0
  9
$PUCSORGBACK
 10
0.0
 20
0.0
 30
0.0
  9
$USERI1
 70
0
  9
$USERI2
 70
0
  9
$USERI3
 70
0
  9
$USERI4
 70
0
  9
$USERI5
 70
0
  9
$USERR1
 40
0.0
  9
$USERR2
 40
0.0
  9
$USERR3
 40
0.0
  9
$USERR4
 40
0.0
  9
$USERR5
 40
0.0
  9
$WORLDVIEW
 70
1
  9
$SHADEDGE
 70
3
  9
$SHADEDIF
 70
70
  9
$TILEMODE
 70
1
  9
$MAXACTVP
 70
64
  9
$PINSBASE
 10
0.0
 20
0.0
 30
0.0
  9
$PLIMCHECK
 70
0
  9
$PEXTMIN
 10
1e+20
 20
1e+20
 30
1e+20
  9
$PEXTMAX
 10
-1e+20
 20
-1e+20
 30
-1e+20
  9
$PLIMMIN
 10
0.0
 20
0.0
  9
$PLIMMAX
 10
420.0
 20
297.0
  9
$UNITMODE
 70
0
  9
$VISRETAIN
 70
1
  9
$PLINEGEN
 70
0
  9
$PSLTSCALE
 70
1
  9
$TREEDEPTH
 70
3020
  9
$CMLSTYLE
  2
Standard
  9
$CMLJUST
 70
0
  9
$CMLSCALE
 40
20.0
  9
$PROXYGRAPHICS
 70
1
  9
$MEASUREMENT
 70
1
  9
$CELWEIGHT
370
-1
  9
$ENDCAPS
280
0
  9
$JOINSTYLE
280
0
  9
$LWDISPLAY
290
0
  9
$INSUNITS
 70
6
  9
$HYPERLINKBASE
  1

  9
$STYLESHEET
  1

  9
$XEDIT
290
1
  9
$CEPSNTYPE
380
0
  9
$PSTYLEMODE
290
1
  9
$FINGERPRINTGUID
  2
{19FAC0DF-7DA7-448D-BE80-5216C092EFE2}
  9
$VERSIONGUID
  2
{DD063E07-A0A9-44A6-B3E9-C091AF04F02E}
  9
$EXTNAMES
290
1
  9
$PSVPSCALE
 40
0.0
  9
$OLESTARTUP
290
0
  9
$SORTENTS
280
127
  9
$INDEXCTL
280
0
  9
$HIDETEXT
280
1
  9
$XCLIPFRAME
280
1
  9
$HALOGAP
280
0
  9
$OBSCOLOR
 70
257
  9
$OBSLTYPE
280
0
  9
$INTERSECTIONDISPLAY
280
0
  9
$INTERSECTIONCOLOR
 70
257
  9
$DIMASSOC
280
2
  9
$PROJECTNAME
  1

  9
$CAMERADISPLAY
290
0
  9
$LENSLENGTH
 40
50.0
  9
$CAMERAHEIGHT
 40
0.0
  9
$STEPSPERSEC
 40
24.0
  9
$STEPSIZE
 40
100.0
  9
$3DDWFPREC
 40
2.0
  9
$PSOLWIDTH
 40
0.005
  9
$PSOLHEIGHT
 40
0.08
  9
$LOFTANG1
 40
1.570796326795
  9
$LOFTANG2
 40
1.570796326795
  9
$LOFTMAG1
 40
0.0
  9
$LOFTMAG2
 40
0.0
  9
$LOFTPARAM
 70
7
  9
$LOFTNORMALS
280
1
  9
$LATITUDE
 40
37.795
  9
$LONGITUDE
 40
-122.394
  9
$NORTHDIRECTION
 40
0.0
  9
$TIMEZONE
 70
-8000
  9
$LIGHTGLYPHDISPLAY
280
1
  9
$TILEMODELIGHTSYNCH
280
1
  9
$CMATERIAL
347
20
  9
$SOLIDHIST
280
0
  9
$SHOWHIST
280
1
  9
$DWFFRAME
280
2
  9
$DGNFRAME
280
2
  9
$REALWORLDSCALE
290
1
  9
$INTERFERECOLOR
 62
256
  9
$CSHADOW
280
0
  9
$SHADOWPLANELOCATION
 40
0.0
  0
ENDSEC
  0
SECTION
  2
CLASSES
  0
CLASS
  1
ACDBDICTIONARYWDFLT
  2
AcDbDictionaryWithDefault
  3
ObjectDBX Classes
 90
0
 91
0
280
0
281
0
  0
CLASS
  1
SUN
  2
AcDbSun
  3
SCENEOE
 90
1153
 91
0
280
0
281
0
  0
CLASS
  1
VISUALSTYLE
  2
AcDbVisualStyle
  3
ObjectDBX Classes
 90
4095
 91
0
280
0
281
0
  0
CLASS
  1
MATERIAL
  2
AcDbMaterial
  3
ObjectDBX Classes
 90
1153
 91
0
280
0
281
0
  0
CLASS
  1
SCALE
  2
AcDbScale
  3
ObjectDBX Classes
 90
1153
 91
0
280
0
281
0
  0
CLASS
  1
TABLESTYLE
  2
AcDbTableStyle
  3
ObjectDBX Classes
 90
4095
 91
0
280
0
281
0
  0
CLASS
  1
MLEADERSTYLE
  2
AcDbMLeaderStyle
  3
ACDB_MLEADERSTYLE_CLASS
 90
4095
 91
0
280
0
281
0
  0
CLASS
  1
DICTIONARYVAR
  2
AcDbDictionaryVar
  3
ObjectDBX Classes
 90
0
 91
0
280
0
281
0
  0
CLASS
  1
CELLSTYLEMAP
  2
AcDbCellStyleMap
  3
ObjectDBX Classes
 90
1152
 91
0
280
0
281
0
  0
CLASS
  1
MENTALRAYRENDERSETTINGS
  2
AcDbMentalRayRenderSettings
  3
SCENEOE
 90
1024
 91
0
280
0
281
0
  0
CLASS
  1
ACDBDETAILVIEWSTYLE
  2
AcDbDetailViewStyle
  3
ObjectDBX Classes
 90
1025
 91
0
280
0
281
0
  0
CLASS
  1
ACDBSECTIONVIEWSTYLE
  2
AcDbSectionViewStyle
  3
ObjectDBX Classes
 90
1025
 91
0
280
0
281
0
  0
CLASS
  1
RASTERVARIABLES
  2
AcDbRasterVariables
  3
ISM
 90
0
 91
0
280
0
281
0
  0
CLASS
  1
ACDBPLACEHOLDER
  2
AcDbPlaceHolder
  3
ObjectDBX Classes
 90
0
 91
0
280
0
281
0
  0
CLASS
  1
LAYOUT
  2
AcDbLayout
  3
ObjectDBX Classes
 90
0
 91
0
280
0
281
0
  0
ENDSEC
  0
SECTION
  2
TABLES
  0
TABLE
  2
VPORT
  5
8
330
0
100
AcDbSymbolTable
 70
1
  0
VPORT
  5
23
330
8
100
AcDbSymbolTableRecord
100
AcDbViewportTableRecord
  2
*Active
 70
0
 10
0.0
 20
0.0
 11
1.0
 21
1.0
 12
0.0
 22
0.0
 13
0.0
 23
0.0
 14
0.5
 24
0.5
 15
0.5
 25
0.5
 16
0.0
 26
0.0
 36
1.0
 17
0.0
 27
0.0
 37
0.0
 40
1000.0
 41
1.34
 42
50.0
 43
0.0
 44
0.0
 50
0.0
 51
0.0
 71
0
 72
1000
 73
1
 74
3
 75
0
 76
0
 77
0
 78
0
281
0
 65
0
146
0.0
  0
ENDTAB
  0
TABLE
  2
LTYPE
  5
2
330
0
100
AcDbSymbolTable
 70
3
  0
LTYPE
  5
24
330
2
100
AcDbSymbolTableRecord
100
AcDbLinetypeTableRecord
  2
ByBlock
 70
0
  3

 72
65
 73
0
 40
0.0
  0
LTYPE
  5
25
330
2
100
AcDbSymbolTableRecord
100
AcDbLinetypeTableRecord
  2
ByLayer
 70
0
  3

 72
65
 73
0
 40
0.0
  0
LTYPE
  5
26
330
2
100
AcDbSymbolTableRecord
100
AcDbLinetypeTableRecord
  2
Continuous
 70
0
  3

 72
65
 73
0
 40
0.0
  0
ENDTAB
  0
TABLE
  2
LAYER
  5
1
330
0
100
AcDbSymbolTable
 70
7
  0
LAYER
  5
27
330
1
100
AcDbSymbolTableRecord
100
AcDbLayerTableRecord
  2
0
 70
0
 62
7
  6
Continuous
370
-3
390
13
347
21
  0
LAYER
  5
28
330
1
100
AcDbSymbolTableRecord
100
AcDbLayerTableRecord
  2
Defpoints
 70
0
 62
7
  6
Continuous
290
0
370
-3
390
13
347
21
  0
LAYER
  5
2F
330
1
100
AcDbSymbolTableRecord
100
AcDbLayerTableRecord
  2
A-WALL
 70
0
 62
7
  6
Continuous
370
50
390
13
347
21
  0
LAYER
  5
30
330
1
100
AcDbSymbolTableRecord
100
AcDbLayerTableRecord
  2
A-DOOR
 70
0
 62
3
  6
Continuous
370
35
390
13
347
21
  0
LAYER
  5
31
330
1
100
AcDbSymbolTableRecord
100
AcDbLayerTableRecord
  2
A-WINDOW
 70
0
 62
4
  6
Continuous
370
25
390
13
347
21
  0
LAYER
  5
32
330
1
100
AcDbSymbolTableRecord
100
AcDbLayerTableRecord
  2
A-TEXT
 70
0
 62
2
  6
Continuous
370
-3
390
13
347
21
  0
LAYER
  5
33
330
1
100
AcDbSymbolTableRecord
100
AcDbLayerTableRecord
  2
A-GRID
 70
0
 62
8
  6
Continuous
370
13
390
13
347
21
  0
ENDTAB
  0
TABLE
  2
STYLE
  5
5
330
0
100
AcDbSymbolTable
 70
1
  0
STYLE
  5
29
330
5
100
AcDbSymbolTableRecord
100
AcDbTextStyleTableRecord
  2
Standard
 70
0
 40
0.0
 41
1.0
 50
0.0
 71
0
 42
2.5
  3
txt
  4

  0
ENDTAB
  0
TABLE
  2
VIEW
  5
7
330
0
100
AcDbSymbolTable
 70
0
  0
ENDTAB
  0
TABLE
  2
UCS
  5
6
330
0
100
AcDbSymbolTable
 70
0
  0
ENDTAB
  0
TABLE
  2
APPID
  5
3
330
0
100
AcDbSymbolTable
 70
3
  0
APPID
  5
2A
330
3
100
AcDbSymbolTableRecord
100
AcDbRegAppTableRecord
  2
ACAD
 70
0
  0
APPID
  5
91
330
3
100
AcDbSymbolTableRecord
100
AcDbRegAppTableRecord
  2
HATCHBACKGROUNDCOLOR
 70
0
  0
APPID
  5
92
330
3
100
AcDbSymbolTableRecord
100
AcDbRegAppTableRecord
  2
EZDXF
 70
0
  0
ENDTAB
  0
TABLE
  2
DIMSTYLE
  5
4
330
0
100
AcDbSymbolTable
 70
1
100
AcDbDimStyleTable
  0
DIMSTYLE
105
2B
330
4
100
AcDbSymbolTableRecord
100
AcDbDimStyleTableRecord
  2
Standard
 70
0
 40
1.0
 41
2.5
 42
0.625
 43
3.75
 44
1.25
 45
0.0
 46
0.0
 47
0.0
 48
0.0
 49
2.5
140
2.5
141
2.5
142
0.0
143
0.03937007874
144
1.0
145
0.0
146
1.0
147
0.625
148
0.0
 69
0
 70
0
 71
0
 72
0
 73
0
 74
0
 75
0
 76
0
 77
1
 78
8
 79
3
170
0
171
3
172
1
173
0
174
0
175
0
176
0
177
0
178
0
179
2
271
2
272
2
273
2
274
3
275
0
276
0
277
2
278
44
279
0
280
0
281
0
282
0
283
0
284
8
285
0
286
0
288
0
289
3
290
0
371
-2
372
-2
  0
ENDTAB
  0
TABLE
  2
BLOCK_RECORD
  5
9
330
0
100
AcDbSymbolTable
 70
2
  0
BLOCK_RECORD
  5
17
330
9
100
AcDbSymbolTableRecord
100
AcDbBlockTableRecord
  2
*Model_Space
340
1A
 70
0
280
1
281
0
  0
BLOCK_RECORD
  5
1B
330
9
100
AcDbSymbolTableRecord
100
AcDbBlockTableRecord
  2
*Paper_Space
340
1E
 70
0
280
1
281
0
  0
ENDTAB
  0
ENDSEC
  0
SECTION
  2
BLOCKS
  0
BLOCK
  5
18
330
17
100
AcDbEntity
  8
0
100
AcDbBlockBegin
  2
*Model_Space
 70
0
 10
0.0
 20
0.0
 30
0.0
  3
*Model_Space
  1

  0
ENDBLK
  5
19
330
17
100
AcDbEntity
  8
0
100
AcDbBlockEnd
  0
BLOCK
  5
1C
330
1B
100
AcDbEntity
  8
0
100
AcDbBlockBegin
  2
*Paper_Space
 70
0
 10
0.0
 20
0.0
 30
0.0
  3
*Paper_Space
  1

  0
ENDBLK
  5
1D
330
1B
100
AcDbEntity
  8
0
100
AcDbBlockEnd
  0
ENDSEC
  0
SECTION
  2
ENTITIES
  0
LINE
  5
34
330
17
100
AcDbEntity
  8
A-WALL
100
AcDbLine
 10
-0.4750007629394517
 20
-6.825002288818357
 30
0.0
 11
16.27499923706055
 21
-6.825002288818357
 31
0.0
  0
LINE
  5
35
330
17
100
AcDbEntity
  8
A-WALL
100
AcDbLine
 10
1.9749992370605511
 20
2.374997711181642
 30
0.0
 11
15.274999237060548
 21
2.374997711181642
 31
0.0
  0
LINE
  5
36
330
17
100
AcDbEntity
  8
A-WALL
100
AcDbLine
 10
-28.575000762939453
 20
-20.375002288818358
 30
0.0
 11
-28.575000762939453
 21
-10.175002288818359
 31
0.0
  0
LINE
  5
37
330
17
100
AcDbEntity
  8
A-WALL
100
AcDbLine
 10
-4.6750007629394545
 20
10.574997711181645
 30
0.0
 11
-4.6750007629394545
 21
0.6749977111816392
 31
0.0
  0
LINE
  5
38
330
17
100
AcDbEntity
  8
A-WALL
100
AcDbLine
 10
-17.17500076293945
 20
-18.92500228881836
 30
0.0
 11
-17.17500076293945
 21
-9.625002288818358
 31
0.0
  0
LINE
  5
39
330
17
100
AcDbEntity
  8
A-WALL
100
AcDbLine
 10
-4.9250007629394545
 20
10.02499771118164
 30
0.0
 11
-4.9250007629394545
 21
11.224997711181643
 31
0.0
  0
LINE
  5
3A
330
17
100
AcDbEntity
  8
A-WALL
100
AcDbLine
 10
-3.2250007629394517
 20
-21.42500228881836
 30
0.0
 11
-3.2250007629394517
 21
-16.52500228881836
 31
0.0
  0
LINE
  5
3B
330
17
100
AcDbEntity
  8
A-WALL
100
AcDbLine
 10
6.974999237060551
 20
-31.32500228881836
 30
0.0
 11
10.974999237060551
 21
-31.32500228881836
 31
0.0
  0
LINE
  5
3C
330
17
100
AcDbEntity
  8
A-WALL
100
AcDbLine
 10
-1.8750007629394503
 20
22.224997711181643
 30
0.0
 11
-1.8750007629394503
 21
25.624997711181642
 31
0.0
  0
LINE
  5
3D
330
17
100
AcDbEntity
  8
A-WALL
100
AcDbLine
 10
-0.27500076293944886
 20
2.574997711181645
 30
0.0
 11
6.824999237060553
 21
2.574997711181645
 31
0.0
  0
LINE
  5
3E
330
17
100
AcDbEntity
  8
A-WALL
100
AcDbLine
 10
8.024999237060548
 20
-31.22500228881836
 30
0.0
 11
8.974999237060551
 21
-31.22500228881836
 31
0.0
  0
LINE
  5
3F
330
17
100
AcDbEntity
  8
A-WALL
100
AcDbLine
 10
-37.37500076293945
 20
-11.025002288818357
 30
0.0
 11
-34.87500076293945
 21
-11.025002288818357
 31
0.0
  0
LINE
  5
40
330
17
100
AcDbEntity
  8
A-WALL
100
AcDbLine
 10
-5.575000762939453
 20
-30.92500228881836
 30
0.0
 11
1.5249992370605483
 21
-30.92500228881836
 31
0.0
  0
LINE
  5
41
330
17
100
AcDbEntity
  8
A-WALL
100
AcDbLine
 10
-17.325000762939453
 20
6.824997711181645
 30
0.0
 11
-17.325000762939453
 21
4.824997711181645
 31
0.0
  0
LINE
  5
42
330
17
100
AcDbEntity
  8
A-WALL
100
AcDbLine
 10
-0.8250007629394531
 20
1.624997711181642
 30
0.0
 11
-0.8250007629394531
 21
2.574997711181645
 31
0.0
  0
LINE
  5
43
330
17
100
AcDbEntity
  8
A-WALL
100
AcDbLine
 10
-3.8750007629394503
 20
-13.675002288818359
 30
0.0
 11
-3.8750007629394503
 21
-11.22500228881836
 31
0.0
  0
LINE
  5
44
330
17
100
AcDbEntity
  8
A-WALL
100
AcDbLine
 10
-33.47500076293945
 20
-10.47500228881836
 30
0.0
 11
-29.025000762939452
 21
-10.47500228881836
 31
0.0
  0
LINE
  5
45
330
17
100
AcDbEntity
  8
A-WALL
100
AcDbLine
 10
-28.425000762939455
 20
-13.72500228881836
 30
0.0
 11
-28.425000762939455
 21
-11.175002288818359
 31
0.0
  0
LINE
  5
46
330
17
100
AcDbEntity
  8
A-WALL
100
AcDbLine
 10
-4.825000762939453
 20
17.624997711181642
 30
0.0
 11
-4.825000762939453
 21
19.074997711181645
 31
0.0
  0
LINE
  5
47
330
17
100
AcDbEntity
  8
A-WALL
100
AcDbLine
 10
4.024999237060548
 20
-29.82500228881836
 30
0.0
 11
5.674999237060547
 21
-29.82500228881836
 31
0.0
  0
LINE
  5
48
330
17
100
AcDbEntity
  8
A-WALL
100
AcDbLine
 10
1.4749992370605511
 20
-6.725002288818359
 30
0.0
 11
2.674999237060547
 21
-6.725002288818359
 31
0.0
  0
LINE
  5
49
330
17
100
AcDbEntity
  8
A-WALL
100
AcDbLine
 10
-1.0250007629394489
 20
-0.37500228881835795
 30
0.0
 11
-1.0250007629394489
 21
-2.4750022888183594
 31
0.0
  0
LINE
  5
4A
330
17
100
AcDbEntity
  8
A-WALL
100
AcDbLine
 10
10.174999237060547
 20
-6.725002288818359
 30
0.0
 11
12.324999237060553
 21
-6.725002288818359
 31
0.0
  0
LINE
  5
4B
330
17
100
AcDbEntity
  8
A-WALL
100
AcDbLine
 10
-3.7250007629394517
 20
-17.32500228881836
 30
0.0
 11
-3.7250007629394517
 21
-18.275002288818357
 31
0.0
  0
LINE
  5
4C
330
17
100
AcDbEntity
  8
A-WALL
100
AcDbLine
 10
-1.8750007629394503
 20
-7.0250022888183565
 30
0.0
 11
-1.8750007629394503
 21
-5.925002288818359
 31
0.0
  0
LINE
  5
4D
330
17
100
AcDbEntity
  8
A-WALL
100
AcDbLine
 10
-2.575000762939453
 20
14.224997711181643
 30
0.0
 11
-2.575000762939453
 21
15.124997711181642
 31
0.0
  0
LINE
  5
4E
330
17
100
AcDbEntity
  8
A-WALL
100
AcDbLine
 10
-4.575000762939453
 20
0.624997711181642
 30
0.0
 11
-2.1250007629394503
 21
0.624997711181642
 31
0.0
  0
LINE
  5
4F
330
17
100
AcDbEntity
  8
A-WALL
100
AcDbLine
 10
-3.3750007629394503
 20
-14.27500228881836
 30
0.0
 11
-3.3750007629394503
 21
-13.47500228881836
 31
0.0
  0
LINE
  5
50
330
17
100
AcDbEntity
  8
A-WALL
100
AcDbLine
 10
-4.475000762939452
 20
18.974997711181643
 30
0.0
 11
-4.475000762939452
 21
20.27499771118164
 31
0.0
  0
LINE
  5
51
330
17
100
AcDbEntity
  8
A-WALL
100
AcDbLine
 10
16.12499923706055
 20
-30.27500228881836
 30
0.0
 11
17.02499923706055
 21
-30.27500228881836
 31
0.0
  0
LINE
  5
52
330
17
100
AcDbEntity
  8
A-WALL
100
AcDbLine
 10
13.824999237060553
 20
-31.47500228881836
 30
0.0
 11
13.824999237060553
 21
-30.17500228881836
 31
0.0
  0
LINE
  5
53
330
17
100
AcDbEntity
  8
A-WALL
100
AcDbLine
 10
14.724999237060551
 20
-16.075002288818357
 30
0.0
 11
14.724999237060551
 21
-14.625002288818358
 31
0.0
  0
LINE
  5
54
330
17
100
AcDbEntity
  8
A-WALL
100
AcDbLine
 10
-4.525000762939449
 20
12.424997711181646
 30
0.0
 11
-4.525000762939449
 21
13.27499771118164
 31
0.0
  0
LINE
  5
55
330
17
100
AcDbEntity
  8
A-WALL
100
AcDbLine
 10
-6.075000762939453
 20
-17.42500228881836
 30
0.0
 11
-3.775000762939449
 21
-17.42500228881836
 31
0.0
  0
LINE
  5
56
330
17
100
AcDbEntity
  8
A-WALL
100
AcDbLine
 10
5.37499923706055
 20
34.02499771118164
 30
0.0
 11
5.674999237060547
 21
32.62499771118165
 31
0.0
  0
LINE
  5
57
330
17
100
AcDbEntity
  8
A-WALL
100
AcDbLine
 10
4.424999237060547
 20
30.724997711181643
 30
0.0
 11
4.724999237060551
 21
32.174997711181646
 31
0.0
  0
LINE
  5
58
330
17
100
AcDbEntity
  8
A-WALL
100
AcDbLine
 10
-9.075000762939453
 20
-29.22500228881836
 30
0.0
 11
-6.175000762939451
 21
-29.22500228881836
 31
0.0
  0
LINE
  5
59
330
17
100
AcDbEntity
  8
A-WALL
100
AcDbLine
 10
-4.475000762939452
 20
22.074997711181645
 30
0.0
 11
-2.1250007629394503
 21
22.074997711181645
 31
0.0
  0
LINE
  5
5A
330
17
100
AcDbEntity
  8
A-WALL
100
AcDbLine
 10
-6.425000762939451
 20
-19.22500228881836
 30
0.0
 11
-5.475000762939452
 21
-19.22500228881836
 31
0.0
  0
LINE
  5
5B
330
17
100
AcDbEntity
  8
A-WALL
100
AcDbLine
 10
14.524999237060548
 20
-17.275002288818357
 30
0.0
 11
15.274999237060548
 21
-15.675002288818359
 31
0.0
  0
LINE
  5
5C
330
17
100
AcDbEntity
  8
A-WALL
100
AcDbLine
 10
12.12499923706055
 20
-23.57500228881836
 30
0.0
 11
12.424999237060547
 21
-22.625002288818358
 31
0.0
  0
LINE
  5
5D
330
17
100
AcDbEntity
  8
A-WALL
100
AcDbLine
 10
16.62499923706055
 20
19.424997711181646
 30
0.0
 11
16.62499923706055
 21
20.574997711181645
 31
0.0
  0
LINE
  5
5E
330
17
100
AcDbEntity
  8
A-WALL
100
AcDbLine
 10
-4.025000762939449
 20
13.374997711181642
 30
0.0
 11
-4.025000762939449
 21
11.824997711181645
 31
0.0
  0
LINE
  5
5F
330
17
100
AcDbEntity
  8
A-WALL
100
AcDbLine
 10
-17.37500076293945
 20
11.374997711181642
 30
0.0
 11
-17.37500076293945
 21
10.174997711181646
 31
0.0
  0
LINE
  5
60
330
17
100
AcDbEntity
  8
A-WALL
100
AcDbLine
 10
20.52499923706055
 20
-9.575002288818357
 30
0.0
 11
21.37499923706055
 21
-9.025002288818357
 31
0.0
  0
LINE
  5
61
330
17
100
AcDbEntity
  8
A-WALL
100
AcDbLine
 10
14.924999237060547
 20
-13.625002288818358
 30
0.0
 11
15.224999237060551
 21
-14.625002288818358
 31
0.0
  0
LINE
  5
62
330
17
100
AcDbEntity
  8
A-WALL
100
AcDbLine
 10
15.674999237060547
 20
-12.72500228881836
 30
0.0
 11
16.52499923706055
 21
-12.125002288818358
 31
0.0
  0
LINE
  5
63
330
17
100
AcDbEntity
  8
A-WALL
100
AcDbLine
 10
-4.025000762939449
 20
13.77499771118164
 30
0.0
 11
-2.4750007629394517
 21
13.77499771118164
 31
0.0
  0
LINE
  5
64
330
17
100
AcDbEntity
  8
A-DOOR
100
AcDbLine
 10
-3.875
 20
-13.475
 30
0.0
 11
-3.875
 21
-12.375
 31
0.0
  0
ARC
  5
65
330
17
100
AcDbEntity
  8
A-DOOR
100
AcDbCircle
 10
-3.875
 20
-13.475
 30
0.0
 40
1.1
100
AcDbArc
 50
90.0
 51
180.0
  0
LINE
  5
66
330
17
100
AcDbEntity
  8
A-WINDOW
100
AcDbLine
 10
2.775
 20
-6.875
 30
0.0
 11
5.725
 21
-6.875
 31
0.0
  0
LINE
  5
67
330
17
100
AcDbEntity
  8
A-WINDOW
100
AcDbLine
 10
2.775
 20
-6.775
 30
0.0
 11
5.725
 21
-6.775
 31
0.0
  0
LINE
  5
68
330
17
100
AcDbEntity
  8
A-WINDOW
100
AcDbLine
 10
7.025
 20
-6.875
 30
0.0
 11
7.525
 21
-6.875
 31
0.0
  0
LINE
  5
69
330
17
100
AcDbEntity
  8
A-WINDOW
100
AcDbLine
 10
7.025
 20
-6.775
 30
0.0
 11
7.525
 21
-6.775
 31
0.0
  0
LINE
  5
6A
330
17
100
AcDbEntity
  8
A-WINDOW
100
AcDbLine
 10
8.025
 20
-6.875
 30
0.0
 11
8.725
 21
-6.875
 31
0.0
  0
LINE
  5
6B
330
17
100
AcDbEntity
  8
A-WINDOW
100
AcDbLine
 10
8.025
 20
-6.775
 30
0.0
 11
8.725
 21
-6.775
 31
0.0
  0
LINE
  5
6C
330
17
100
AcDbEntity
  8
A-WINDOW
100
AcDbLine
 10
11.025
 20
2.325
 30
0.0
 11
11.775
 21
2.325
 31
0.0
  0
LINE
  5
6D
330
17
100
AcDbEntity
  8
A-WINDOW
100
AcDbLine
 10
11.025
 20
2.425
 30
0.0
 11
11.775
 21
2.425
 31
0.0
  0
LINE
  5
6E
330
17
100
AcDbEntity
  8
A-WINDOW
100
AcDbLine
 10
-4.725
 20
10.025
 30
0.0
 11
-4.725
 21
8.525
 31
0.0
  0
LINE
  5
6F
330
17
100
AcDbEntity
  8
A-WINDOW
100
AcDbLine
 10
-4.625
 20
10.025
 30
0.0
 11
-4.625
 21
8.525
 31
0.0
  0
LINE
  5
70
330
17
100
AcDbEntity
  8
A-WINDOW
100
AcDbLine
 10
-4.725
 20
7.275
 30
0.0
 11
-4.725
 21
4.725
 31
0.0
  0
LINE
  5
71
330
17
100
AcDbEntity
  8
A-WINDOW
100
AcDbLine
 10
-4.625
 20
7.275
 30
0.0
 11
-4.625
 21
4.725
 31
0.0
  0
LINE
  5
72
330
17
100
AcDbEntity
  8
A-WINDOW
100
AcDbLine
 10
-4.725
 20
3.325
 30
0.0
 11
-4.725
 21
2.825
 31
0.0
  0
LINE
  5
73
330
17
100
AcDbEntity
  8
A-WINDOW
100
AcDbLine
 10
-4.625
 20
3.325
 30
0.0
 11
-4.625
 21
2.825
 31
0.0
  0
LINE
  5
74
330
17
100
AcDbEntity
  8
A-WINDOW
100
AcDbLine
 10
-3.1750000000000003
 20
-20.875
 30
0.0
 11
-3.1750000000000003
 21
-20.375
 31
0.0
  0
LINE
  5
75
330
17
100
AcDbEntity
  8
A-WINDOW
100
AcDbLine
 10
-3.275
 20
-20.875
 30
0.0
 11
-3.275
 21
-20.375
 31
0.0
  0
LINE
  5
76
330
17
100
AcDbEntity
  8
A-WINDOW
100
AcDbLine
 10
-1.825
 20
23.875
 30
0.0
 11
-1.825
 21
25.375
 31
0.0
  0
LINE
  5
77
330
17
100
AcDbEntity
  8
A-WINDOW
100
AcDbLine
 10
-1.925
 20
23.875
 30
0.0
 11
-1.925
 21
25.375
 31
0.0
  0
LINE
  5
78
330
17
100
AcDbEntity
  8
A-WINDOW
100
AcDbLine
 10
-5.5249999999999995
 20
-30.975
 30
0.0
 11
-4.925
 21
-30.975
 31
0.0
  0
LINE
  5
79
330
17
100
AcDbEntity
  8
A-WINDOW
100
AcDbLine
 10
-5.5249999999999995
 20
-30.875
 30
0.0
 11
-4.925
 21
-30.875
 31
0.0
  0
LINE
  5
7A
330
17
100
AcDbEntity
  8
A-WINDOW
100
AcDbLine
 10
-4.075
 20
-30.975
 30
0.0
 11
-3.2749999999999995
 21
-30.975
 31
0.0
  0
LINE
  5
7B
330
17
100
AcDbEntity
  8
A-WINDOW
100
AcDbLine
 10
-4.075
 20
-30.875
 30
0.0
 11
-3.2749999999999995
 21
-30.875
 31
0.0
  0
LINE
  5
7C
330
17
100
AcDbEntity
  8
A-WINDOW
100
AcDbLine
 10
-0.7749999999999998
 20
1.6249999999999984
 30
0.0
 11
-0.7749999999999998
 21
2.6250000000000018
 31
0.0
  0
LINE
  5
7D
330
17
100
AcDbEntity
  8
A-WINDOW
100
AcDbLine
 10
-0.8750000000000001
 20
1.6249999999999984
 30
0.0
 11
-0.8750000000000001
 21
2.6250000000000018
 31
0.0
  0
LINE
  5
7E
330
17
100
AcDbEntity
  8
A-WINDOW
100
AcDbLine
 10
-29.725
 20
-10.525
 30
0.0
 11
-29.025
 21
-10.525
 31
0.0
  0
LINE
  5
7F
330
17
100
AcDbEntity
  8
A-WINDOW
100
AcDbLine
 10
-29.725
 20
-10.424999999999999
 30
0.0
 11
-29.025
 21
-10.424999999999999
 31
0.0
  0
LINE
  5
80
330
17
100
AcDbEntity
  8
A-WINDOW
100
AcDbLine
 10
-4.775
 20
17.624999999999996
 30
0.0
 11
-4.775
 21
19.025000000000002
 31
0.0
  0
LINE
  5
81
330
17
100
AcDbEntity
  8
A-WINDOW
100
AcDbLine
 10
-4.875
 20
17.624999999999996
 30
0.0
 11
-4.875
 21
19.025000000000002
 31
0.0
  0
LINE
  5
82
330
17
100
AcDbEntity
  8
A-WINDOW
100
AcDbLine
 10
4.2250000000000005
 20
-29.875
 30
0.0
 11
4.7749999999999995
 21
-29.875
 31
0.0
  0
LINE
  5
83
330
17
100
AcDbEntity
  8
A-WINDOW
100
AcDbLine
 10
4.2250000000000005
 20
-29.775
 30
0.0
 11
4.7749999999999995
 21
-29.775
 31
0.0
  0
LINE
  5
84
330
17
100
AcDbEntity
  8
A-WINDOW
100
AcDbLine
 10
-2.5250000000000004
 20
14.225000000000001
 30
0.0
 11
-2.5250000000000004
 21
15.125
 31
0.0
  0
LINE
  5
85
330
17
100
AcDbEntity
  8
A-WINDOW
100
AcDbLine
 10
-2.625
 20
14.225000000000001
 30
0.0
 11
-2.625
 21
15.125
 31
0.0
  0
LINE
  5
86
330
17
100
AcDbEntity
  8
A-WINDOW
100
AcDbLine
 10
-4.525000000000001
 20
0.575
 30
0.0
 11
-2.2249999999999988
 21
0.575
 31
0.0
  0
LINE
  5
87
330
17
100
AcDbEntity
  8
A-WINDOW
100
AcDbLine
 10
-4.525000000000001
 20
0.675
 30
0.0
 11
-2.2249999999999988
 21
0.675
 31
0.0
  0
LINE
  5
88
330
17
100
AcDbEntity
  8
A-WINDOW
100
AcDbLine
 10
-4.425
 20
19.075
 30
0.0
 11
-4.425
 21
19.974999999999998
 31
0.0
  0
LINE
  5
89
330
17
100
AcDbEntity
  8
A-WINDOW
100
AcDbLine
 10
-4.5249999999999995
 20
19.075
 30
0.0
 11
-4.5249999999999995
 21
19.974999999999998
 31
0.0
  0
LINE
  5
8A
330
17
100
AcDbEntity
  8
A-WINDOW
100
AcDbLine
 10
-4.375
 20
-17.475
 30
0.0
 11
-3.8249999999999993
 21
-17.475
 31
0.0
  0
LINE
  5
8B
330
17
100
AcDbEntity
  8
A-WINDOW
100
AcDbLine
 10
-4.375
 20
-17.375
 30
0.0
 11
-3.8249999999999993
 21
-17.375
 31
0.0
  0
LINE
  5
8C
330
17
100
AcDbEntity
  8
A-WINDOW
100
AcDbLine
 10
-9.025
 20
-29.275000000000002
 30
0.0
 11
-6.924999999999999
 21
-29.275000000000002
 31
0.0
  0
LINE
  5
8D
330
17
100
AcDbEntity
  8
A-WINDOW
100
AcDbLine
 10
-9.025
 20
-29.175
 30
0.0
 11
-6.924999999999999
 21
-29.175
 31
0.0
  0
LINE
  5
8E
330
17
100
AcDbEntity
  8
A-WINDOW
100
AcDbLine
 10
-3.824999999999999
 20
13.725
 30
0.0
 11
-2.5750000000000015
 21
13.725
 31
0.0
  0
LINE
  5
8F
330
17
100
AcDbEntity
  8
A-WINDOW
100
AcDbLine
 10
-3.824999999999999
 20
13.825000000000001
 30
0.0
 11
-2.5750000000000015
 21
13.825000000000001
 31
0.0
  0
TEXT
  5
90
330
17
100
AcDbEntity
  8
A-TEXT
100
AcDbText
 10
-37.57500076293945
 20
-35.22500228881836
 30
0.0
 40
0.4
  1
Floor 2  —  48 walls  ·  1 doors  ·  21 windows
 11
-37.57500076293945
 21
-35.22500228881836
 31
0.0
100
AcDbText
  0
ENDSEC
  0
SECTION
  2
OBJECTS
  0
DICTIONARY
  5
A
330
0
100
AcDbDictionary
281
1
  3
ACAD_COLOR
350
B
  3
ACAD_GROUP
350
C
  3
ACAD_LAYOUT
350
D
  3
ACAD_MATERIAL
350
E
  3
ACAD_MLEADERSTYLE
350
F
  3
ACAD_MLINESTYLE
350
10
  3
ACAD_PLOTSETTINGS
350
11
  3
ACAD_PLOTSTYLENAME
350
12
  3
ACAD_SCALELIST
350
14
  3
ACAD_TABLESTYLE
350
15
  3
ACAD_VISUALSTYLE
350
16
  3
EZDXF_META
350
2D
  0
DICTIONARY
  5
B
330
A
100
AcDbDictionary
281
1
  0
DICTIONARY
  5
C
330
A
100
AcDbDictionary
281
1
  0
DICTIONARY
  5
D
330
A
100
AcDbDictionary
281
1
  3
Model
350
1A
  3
Layout1
350
1E
  0
DICTIONARY
  5
E
330
A
100
AcDbDictionary
281
1
  3
ByBlock
350
1F
  3
ByLayer
350
20
  3
Global
350
21
  0
DICTIONARY
  5
F
330
A
100
AcDbDictionary
281
1
  3
Standard
350
2C
  0
DICTIONARY
  5
10
330
A
100
AcDbDictionary
281
1
  3
Standard
350
22
  0
DICTIONARY
  5
11
330
A
100
AcDbDictionary
281
1
  0
ACDBDICTIONARYWDFLT
  5
12
330
A
100
AcDbDictionary
281
1
  3
Normal
350
13
100
AcDbDictionaryWithDefault
340
13
  0
ACDBPLACEHOLDER
  5
13
330
12
  0
DICTIONARY
  5
14
330
A
100
AcDbDictionary
281
1
  0
DICTIONARY
  5
15
330
A
100
AcDbDictionary
281
1
  0
DICTIONARY
  5
16
330
A
100
AcDbDictionary
281
1
  0
LAYOUT
  5
1A
330
D
100
AcDbPlotSettings
  1

  4
A3
  6

 40
7.5
 41
20.0
 42
7.5
 43
20.0
 44
420.0
 45
297.0
 46
0.0
 47
0.0
 48
0.0
 49
0.0
140
0.0
141
0.0
142
1.0
143
1.0
 70
1024
 72
1
 73
0
 74
5
  7

 75
16
 76
0
 77
2
 78
300
147
1.0
148
0.0
149
0.0
100
AcDbLayout
  1
Model
 70
1
 71
0
 10
0.0
 20
0.0
 11
420.0
 21
297.0
 12
0.0
 22
0.0
 32
0.0
 14
1e+20
 24
1e+20
 34
1e+20
 15
-1e+20
 25
-1e+20
 35
-1e+20
146
0.0
 13
0.0
 23
0.0
 33
0.0
 16
1.0
 26
0.0
 36
0.0
 17
0.0
 27
1.0
 37
0.0
 76
1
330
17
  0
LAYOUT
  5
1E
330
D
100
AcDbPlotSettings
  1

  4
A3
  6

 40
7.5
 41
20.0
 42
7.5
 43
20.0
 44
420.0
 45
297.0
 46
0.0
 47
0.0
 48
0.0
 49
0.0
140
0.0
141
0.0
142
1.0
143
1.0
 70
0
 72
1
 73
0
 74
5
  7

 75
16
 76
0
 77
2
 78
300
147
1.0
148
0.0
149
0.0
100
AcDbLayout
  1
Layout1
 70
1
 71
1
 10
0.0
 20
0.0
 11
420.0
 21
297.0
 12
0.0
 22
0.0
 32
0.0
 14
1e+20
 24
1e+20
 34
1e+20
 15
-1e+20
 25
-1e+20
 35
-1e+20
146
0.0
 13
0.0
 23
0.0
 33
0.0
 16
1.0
 26
0.0
 36
0.0
 17
0.0
 27
1.0
 37
0.0
 76
1
330
1B
  0
MATERIAL
  5
1F
102
{ACAD_REACTORS
330
E
102
}
330
E
100
AcDbMaterial
  1
ByBlock
  2

 70
0
 40
1.0
 71
1
 41
1.0
 91
-1023410177
 42
1.0
 72
1
  3

 73
1
 74
1
 75
1
 44
0.5
 73
0
 45
1.0
 46
1.0
 77
1
  4

 78
1
 79
1
170
1
 48
1.0
171
1
  6

172
1
173
1
174
1
140
1.0
141
1.0
175
1
  7

176
1
177
1
178
1
143
1.0
179
1
  8

270
1
271
1
272
1
145
1.0
146
1.0
273
1
  9

274
1
275
1
276
1
 42
1.0
 72
1
  3

 73
1
 74
1
 75
1
 94
63
  0
MATERIAL
  5
20
102
{ACAD_REACTORS
330
E
102
}
330
E
100
AcDbMaterial
  1
ByLayer
  2

 70
0
 40
1.0
 71
1
 41
1.0
 91
-1023410177
 42
1.0
 72
1
  3

 73
1
 74
1
 75
1
 44
0.5
 73
0
 45
1.0
 46
1.0
 77
1
  4

 78
1
 79
1
170
1
 48
1.0
171
1
  6

172
1
173
1
174
1
140
1.0
141
1.0
175
1
  7

176
1
177
1
178
1
143
1.0
179
1
  8

270
1
271
1
272
1
145
1.0
146
1.0
273
1
  9

274
1
275
1
276
1
 42
1.0
 72
1
  3

 73
1
 74
1
 75
1
 94
63
  0
MATERIAL
  5
21
102
{ACAD_REACTORS
330
E
102
}
330
E
100
AcDbMaterial
  1
Global
  2

 70
0
 40
1.0
 71
1
 41
1.0
 91
-1023410177
 42
1.0
 72
1
  3

 73
1
 74
1
 75
1
 44
0.5
 73
0
 45
1.0
 46
1.0
 77
1
  4

 78
1
 79
1
170
1
 48
1.0
171
1
  6

172
1
173
1
174
1
140
1.0
141
1.0
175
1
  7

176
1
177
1
178
1
143
1.0
179
1
  8

270
1
271
1
272
1
145
1.0
146
1.0
273
1
  9

274
1
275
1
276
1
 42
1.0
 72
1
  3

 73
1
 74
1
 75
1
 94
63
  0
MLINESTYLE
  5
22
102
{ACAD_REACTORS
330
10
102
}
330
10
100
AcDbMlineStyle
  2
Standard
 70
0
  3

 62
256
 51
90.0
 52
90.0
 71
2
 49
0.5
 62
256
  6
BYLAYER
 49
-0.5
 62
256
  6
BYLAYER
  0
MLEADERSTYLE
  5
2C
102
{ACAD_REACTORS
330
F
102
}
330
F
100
AcDbMLeaderStyle
179
2
170
2
171
1
172
0
 90
2
 40
0.0
 41
0.0
173
1
 91
-1056964608
 92
-2
290
1
 42
2.0
291
1
 43
8.0
  3
Standard
 44
4.0
300

342
29
174
1
175
1
176
0
178
1
 93
-1056964608
 45
4.0
292
0
297
0
 46
4.0
 94
-1056964608
 47
1.0
 49
1.0
140
1.0
294
1
141
0.0
177
0
142
1.0
295
0
296
0
143
3.75
271
0
272
9
273
9
  0
DICTIONARY
  5
2D
330
A
100
AcDbDictionary
280
1
281
1
  3
CREATED_BY_EZDXF
350
2E
  3
WRITTEN_BY_EZDXF
350
93
  0
DICTIONARYVAR
  5
2E
330
2D
100
DictionaryVariables
280
0
  1
1.4.3 @ 2026-04-01T12:46:06.365933+00:00
  0
DICTIONARYVAR
  5
93
330
2D
100
DictionaryVariables
280
0
  1
1.4.3 @ 2026-04-01T12:46:06.366695+00:00
  0
ENDSEC
  0
EOF
