  0
SECTION
  2
HEADER
  9
$ACADVER
  1
AC1024
  9
$ACADMAINTVER
 70
6
  9
$DWGCODEPAGE
  3
ANSI_1252
  9
$LASTSAVEDBY
  1
ezdxf
  9
$INSBASE
 10
0.0
 20
0.0
 30
0.0
  9
$EXTMIN
 10
1e+20
 20
1e+20
 30
1e+20
  9
$EXTMAX
 10
-1e+20
 20
-1e+20
 30
-1e+20
  9
$LIMMIN
 10
0.0
 20
0.0
  9
$LIMMAX
 10
420.0
 20
297.0
  9
$ORTHOMODE
 70
0
  9
$REGENMODE
 70
1
  9
$FILLMODE
 70
1
  9
$QTEXTMODE
 70
0
  9
$MIRRTEXT
 70
1
  9
$LTSCALE
 40
1.0
  9
$ATTMODE
 70
1
  9
$TEXTSIZE
 40
2.5
  9
$TRACEWID
 40
1.0
  9
$TEXTSTYLE
  7
Standard
  9
$CLAYER
  8
0
  9
$CELTYPE
  6
ByLayer
  9
$CECOLOR
 62
256
  9
$CELTSCALE
 40
1.0
  9
$DISPSILH
 70
0
  9
$DIMSCALE
 40
1.0
  9
$DIMASZ
 40
2.5
  9
$DIMEXO
 40
0.625
  9
$DIMDLI
 40
3.75
  9
$DIMRND
 40
0.0
  9
$DIMDLE
 40
0.0
  9
$DIMEXE
 40
1.25
  9
$DIMTP
 40
0.0
  9
$DIMTM
 40
0.0
  9
$DIMTXT
 40
2.5
  9
$DIMCEN
 40
2.5
  9
$DIMTSZ
 40
0.0
  9
$DIMTOL
 70
0
  9
$DIMLIM
 70
0
  9
$DIMTIH
 70
0
  9
$DIMTOH
 70
0
  9
$DIMSE1
 70
0
  9
$DIMSE2
 70
0
  9
$DIMTAD
 70
1
  9
$DIMZIN
 70
8
  9
$DIMBLK
  1

  9
$DIMASO
 70
1
  9
$DIMSHO
 70
1
  9
$DIMPOST
  1

  9
$DIMAPOST
  1

  9
$DIMALT
 70
0
  9
$DIMALTD
 70
3
  9
$DIMALTF
 40
0.03937007874
  9
$DIMLFAC
 40
1.0
  9
$DIMTOFL
 70
1
  9
$DIMTVP
 40
0.0
  9
$DIMTIX
 70
0
  9
$DIMSOXD
 70
0
  9
$DIMSAH
 70
0
  9
$DIMBLK1
  1

  9
$DIMBLK2
  1

  9
$DIMSTYLE
  2
ISO-25
  9
$DIMCLRD
 70
0
  9
$DIMCLRE
 70
0
  9
$DIMCLRT
 70
0
  9
$DIMTFAC
 40
1.0
  9
$DIMGAP
 40
0.625
  9
$DIMJUST
 70
0
  9
$DIMSD1
 70
0
  9
$DIMSD2
 70
0
  9
$DIMTOLJ
 70
0
  9
$DIMTZIN
 70
8
  9
$DIMALTZ
 70
0
  9
$DIMALTTZ
 70
0
  9
$DIMUPT
 70
0
  9
$DIMDEC
 70
2
  9
$DIMTDEC
 70
2
  9
$DIMALTU
 70
2
  9
$DIMALTTD
 70
3
  9
$DIMTXSTY
  7
Standard
  9
$DIMAUNIT
 70
0
  9
$DIMADEC
 70
0
  9
$DIMALTRND
 40
0.0
  9
$DIMAZIN
 70
0
  9
$DIMDSEP
 70
44
  9
$DIMATFIT
 70
3
  9
$DIMFRAC
 70
0
  9
$DIMLDRBLK
  1

  9
$DIMLUNIT
 70
2
  9
$DIMLWD
 70
-2
  9
$DIMLWE
 70
-2
  9
$DIMTMOVE
 70
0
  9
$DIMFXL
 40
1.0
  9
$DIMFXLON
 70
0
  9
$DIMJOGANG
 40
0.785398163397
  9
$DIMTFILL
 70
0
  9
$DIMTFILLCLR
 70
0
  9
$DIMARCSYM
 70
0
  9
$DIMLTYPE
  6

  9
$DIMLTEX1
  6

  9
$DIMLTEX2
  6

  9
$DIMTXTDIRECTION
 70
0
  9
$LUNITS
 70
2
  9
$LUPREC
 70
4
  9
$SKETCHINC
 40
1.0
  9
$FILLETRAD
 40
10.0
  9
$AUNITS
 70
0
  9
$AUPREC
 70
2
  9
$MENU
  1
.
  9
$ELEVATION
 40
0.0
  9
$PELEVATION
 40
0.0
  9
$THICKNESS
 40
0.0
  9
$LIMCHECK
 70
0
  9
$CHAMFERA
 40
0.0
  9
$CHAMFERB
 40
0.0
  9
$CHAMFERC
 40
0.0
  9
$CHAMFERD
 40
0.0
  9
$SKPOLY
 70
0
  9
$TDCREATE
 40
2461197.4326388887
  9
$TDUCREATE
 40
2458532.153996898
  9
$TDUPDATE
 40
2461197.4326388887
  9
$TDUUPDATE
 40
2458532.1544311
  9
$TDINDWG
 40
0.0
  9
$TDUSRTIMER
 40
0.0
  9
$USRTIMER
 70
1
  9
$ANGBASE
 50
0.0
  9
$ANGDIR
 70
0
  9
$PDMODE
 70
0
  9
$PDSIZE
 40
0.0
  9
$PLINEWID
 40
0.0
  9
$SPLFRAME
 70
0
  9
$SPLINETYPE
 70
6
  9
$SPLINESEGS
 70
8
  9
$HANDSEED
  5
1D4
  9
$SURFTAB1
 70
6
  9
$SURFTAB2
 70
6
  9
$SURFTYPE
 70
6
  9
$SURFU
 70
6
  9
$SURFV
 70
6
  9
$UCSBASE
  2

  9
$UCSNAME
  2

  9
$UCSORG
 10
0.0
 20
0.0
 30
0.0
  9
$UCSXDIR
 10
1.0
 20
0.0
 30
0.0
  9
$UCSYDIR
 10
0.0
 20
1.0
 30
0.0
  9
$UCSORTHOREF
  2

  9
$UCSORTHOVIEW
 70
0
  9
$UCSORGTOP
 10
0.0
 20
0.0
 30
0.0
  9
$UCSORGBOTTOM
 10
0.0
 20
0.0
 30
0.0
  9
$UCSORGLEFT
 10
0.0
 20
0.0
 30
0.0
  9
$UCSORGRIGHT
 10
0.0
 20
0.0
 30
0.0
  9
$UCSORGFRONT
 10
0.0
 20
0.0
 30
0.0
  9
$UCSORGBACK
 10
0.0
 20
0.0
 30
0.0
  9
$PUCSBASE
  2

  9
$PUCSNAME
  2

  9
$PUCSORG
 10
0.0
 20
0.0
 30
0.0
  9
$PUCSXDIR
 10
1.0
 20
0.0
 30
0.0
  9
$PUCSYDIR
 10
0.0
 20
1.0
 30
0.0
  9
$PUCSORTHOREF
  2

  9
$PUCSORTHOVIEW
 70
0
  9
$PUCSORGTOP
 10
0.0
 20
0.0
 30
0.0
  9
$PUCSORGBOTTOM
 10
0.0
 20
0.0
 30
0.0
  9
$PUCSORGLEFT
 10
0.0
 20
0.0
 30
0.0
  9
$PUCSORGRIGHT
 10
0.0
 20
0.0
 30
0.0
  9
$PUCSORGFRONT
 10
0.0
 20
0.0
 30
0.0
  9
$PUCSORGBACK
 10
0.0
 20
0.0
 30
0.0
  9
$USERI1
 70
0
  9
$USERI2
 70
0
  9
$USERI3
 70
0
  9
$USERI4
 70
0
  9
$USERI5
 70
0
  9
$USERR1
 40
0.0
  9
$USERR2
 40
0.0
  9
$USERR3
 40
0.0
  9
$USERR4
 40
0.0
  9
$USERR5
 40
0.0
  9
$WORLDVIEW
 70
1
  9
$SHADEDGE
 70
3
  9
$SHADEDIF
 70
70
  9
$TILEMODE
 70
1
  9
$MAXACTVP
 70
64
  9
$PINSBASE
 10
0.0
 20
0.0
 30
0.0
  9
$PLIMCHECK
 70
0
  9
$PEXTMIN
 10
1e+20
 20
1e+20
 30
1e+20
  9
$PEXTMAX
 10
-1e+20
 20
-1e+20
 30
-1e+20
  9
$PLIMMIN
 10
0.0
 20
0.0
  9
$PLIMMAX
 10
420.0
 20
297.0
  9
$UNITMODE
 70
0
  9
$VISRETAIN
 70
1
  9
$PLINEGEN
 70
0
  9
$PSLTSCALE
 70
1
  9
$TREEDEPTH
 70
3020
  9
$CMLSTYLE
  2
Standard
  9
$CMLJUST
 70
0
  9
$CMLSCALE
 40
20.0
  9
$PROXYGRAPHICS
 70
1
  9
$MEASUREMENT
 70
1
  9
$CELWEIGHT
370
-1
  9
$ENDCAPS
280
0
  9
$JOINSTYLE
280
0
  9
$LWDISPLAY
290
0
  9
$INSUNITS
 70
6
  9
$HYPERLINKBASE
  1

  9
$STYLESHEET
  1

  9
$XEDIT
290
1
  9
$CEPSNTYPE
380
0
  9
$PSTYLEMODE
290
1
  9
$FINGERPRINTGUID
  2
{E5D0B97D-8DD6-4B73-B6EB-E503E13498A3}
  9
$VERSIONGUID
  2
{CCD6ABD1-D20A-487B-BD18-EB799E1C7910}
  9
$EXTNAMES
290
1
  9
$PSVPSCALE
 40
0.0
  9
$OLESTARTUP
290
0
  9
$SORTENTS
280
127
  9
$INDEXCTL
280
0
  9
$HIDETEXT
280
1
  9
$XCLIPFRAME
280
1
  9
$HALOGAP
280
0
  9
$OBSCOLOR
 70
257
  9
$OBSLTYPE
280
0
  9
$INTERSECTIONDISPLAY
280
0
  9
$INTERSECTIONCOLOR
 70
257
  9
$DIMASSOC
280
2
  9
$PROJECTNAME
  1

  9
$CAMERADISPLAY
290
0
  9
$LENSLENGTH
 40
50.0
  9
$CAMERAHEIGHT
 40
0.0
  9
$STEPSPERSEC
 40
24.0
  9
$STEPSIZE
 40
100.0
  9
$3DDWFPREC
 40
2.0
  9
$PSOLWIDTH
 40
0.005
  9
$PSOLHEIGHT
 40
0.08
  9
$LOFTANG1
 40
1.570796326795
  9
$LOFTANG2
 40
1.570796326795
  9
$LOFTMAG1
 40
0.0
  9
$LOFTMAG2
 40
0.0
  9
$LOFTPARAM
 70
7
  9
$LOFTNORMALS
280
1
  9
$LATITUDE
 40
37.795
  9
$LONGITUDE
 40
-122.394
  9
$NORTHDIRECTION
 40
0.0
  9
$TIMEZONE
 70
-8000
  9
$LIGHTGLYPHDISPLAY
280
1
  9
$TILEMODELIGHTSYNCH
280
1
  9
$CMATERIAL
347
20
  9
$SOLIDHIST
280
0
  9
$SHOWHIST
280
1
  9
$DWFFRAME
280
2
  9
$DGNFRAME
280
2
  9
$REALWORLDSCALE
290
1
  9
$INTERFERECOLOR
 62
256
  9
$CSHADOW
280
0
  9
$SHADOWPLANELOCATION
 40
0.0
  0
ENDSEC
  0
SECTION
  2
CLASSES
  0
CLASS
  1
ACDBDICTIONARYWDFLT
  2
AcDbDictionaryWithDefault
  3
ObjectDBX Classes
 90
0
 91
0
280
0
281
0
  0
CLASS
  1
SUN
  2
AcDbSun
  3
SCENEOE
 90
1153
 91
0
280
0
281
0
  0
CLASS
  1
VISUALSTYLE
  2
AcDbVisualStyle
  3
ObjectDBX Classes
 90
4095
 91
0
280
0
281
0
  0
CLASS
  1
MATERIAL
  2
AcDbMaterial
  3
ObjectDBX Classes
 90
1153
 91
0
280
0
281
0
  0
CLASS
  1
SCALE
  2
AcDbScale
  3
ObjectDBX Classes
 90
1153
 91
0
280
0
281
0
  0
CLASS
  1
TABLESTYLE
  2
AcDbTableStyle
  3
ObjectDBX Classes
 90
4095
 91
0
280
0
281
0
  0
CLASS
  1
MLEADERSTYLE
  2
AcDbMLeaderStyle
  3
ACDB_MLEADERSTYLE_CLASS
 90
4095
 91
0
280
0
281
0
  0
CLASS
  1
DICTIONARYVAR
  2
AcDbDictionaryVar
  3
ObjectDBX Classes
 90
0
 91
0
280
0
281
0
  0
CLASS
  1
CELLSTYLEMAP
  2
AcDbCellStyleMap
  3
ObjectDBX Classes
 90
1152
 91
0
280
0
281
0
  0
CLASS
  1
MENTALRAYRENDERSETTINGS
  2
AcDbMentalRayRenderSettings
  3
SCENEOE
 90
1024
 91
0
280
0
281
0
  0
CLASS
  1
ACDBDETAILVIEWSTYLE
  2
AcDbDetailViewStyle
  3
ObjectDBX Classes
 90
1025
 91
0
280
0
281
0
  0
CLASS
  1
ACDBSECTIONVIEWSTYLE
  2
AcDbSectionViewStyle
  3
ObjectDBX Classes
 90
1025
 91
0
280
0
281
0
  0
CLASS
  1
RASTERVARIABLES
  2
AcDbRasterVariables
  3
ISM
 90
0
 91
0
280
0
281
0
  0
CLASS
  1
ACDBPLACEHOLDER
  2
AcDbPlaceHolder
  3
ObjectDBX Classes
 90
0
 91
0
280
0
281
0
  0
CLASS
  1
LAYOUT
  2
AcDbLayout
  3
ObjectDBX Classes
 90
0
 91
0
280
0
281
0
  0
ENDSEC
  0
SECTION
  2
TABLES
  0
TABLE
  2
VPORT
  5
8
330
0
100
AcDbSymbolTable
 70
1
  0
VPORT
  5
23
330
8
100
AcDbSymbolTableRecord
100
AcDbViewportTableRecord
  2
*Active
 70
0
 10
0.0
 20
0.0
 11
1.0
 21
1.0
 12
0.0
 22
0.0
 13
0.0
 23
0.0
 14
0.5
 24
0.5
 15
0.5
 25
0.5
 16
0.0
 26
0.0
 36
1.0
 17
0.0
 27
0.0
 37
0.0
 40
1000.0
 41
1.34
 42
50.0
 43
0.0
 44
0.0
 50
0.0
 51
0.0
 71
0
 72
1000
 73
1
 74
3
 75
0
 76
0
 77
0
 78
0
281
0
 65
0
146
0.0
  0
ENDTAB
  0
TABLE
  2
LTYPE
  5
2
330
0
100
AcDbSymbolTable
 70
3
  0
LTYPE
  5
24
330
2
100
AcDbSymbolTableRecord
100
AcDbLinetypeTableRecord
  2
ByBlock
 70
0
  3

 72
65
 73
0
 40
0.0
  0
LTYPE
  5
25
330
2
100
AcDbSymbolTableRecord
100
AcDbLinetypeTableRecord
  2
ByLayer
 70
0
  3

 72
65
 73
0
 40
0.0
  0
LTYPE
  5
26
330
2
100
AcDbSymbolTableRecord
100
AcDbLinetypeTableRecord
  2
Continuous
 70
0
  3

 72
65
 73
0
 40
0.0
  0
ENDTAB
  0
TABLE
  2
LAYER
  5
1
330
0
100
AcDbSymbolTable
 70
8
  0
LAYER
  5
27
330
1
100
AcDbSymbolTableRecord
100
AcDbLayerTableRecord
  2
0
 70
0
 62
7
  6
Continuous
370
-3
390
13
347
21
  0
LAYER
  5
28
330
1
100
AcDbSymbolTableRecord
100
AcDbLayerTableRecord
  2
Defpoints
 70
0
 62
7
  6
Continuous
290
0
370
-3
390
13
347
21
  0
LAYER
  5
2F
330
1
100
AcDbSymbolTableRecord
100
AcDbLayerTableRecord
  2
A-WALL
 70
0
 62
7
  6
Continuous
370
50
390
13
347
21
  0
LAYER
  5
30
330
1
100
AcDbSymbolTableRecord
100
AcDbLayerTableRecord
  2
A-DOOR
 70
0
 62
3
  6
Continuous
370
35
390
13
347
21
  0
LAYER
  5
31
330
1
100
AcDbSymbolTableRecord
100
AcDbLayerTableRecord
  2
A-WINDOW
 70
0
 62
4
  6
Continuous
370
25
390
13
347
21
  0
LAYER
  5
32
330
1
100
AcDbSymbolTableRecord
100
AcDbLayerTableRecord
  2
A-TEXT
 70
0
 62
2
  6
Continuous
370
-3
390
13
347
21
  0
LAYER
  5
33
330
1
100
AcDbSymbolTableRecord
100
AcDbLayerTableRecord
  2
A-GRID
 70
0
 62
8
  6
Continuous
370
13
390
13
347
21
  0
LAYER
  5
34
330
1
100
AcDbSymbolTableRecord
100
AcDbLayerTableRecord
  2
A-ROOM
 70
0
 62
6
  6
Continuous
370
13
390
13
347
21
  0
ENDTAB
  0
TABLE
  2
STYLE
  5
5
330
0
100
AcDbSymbolTable
 70
1
  0
STYLE
  5
29
330
5
100
AcDbSymbolTableRecord
100
AcDbTextStyleTableRecord
  2
Standard
 70
0
 40
0.0
 41
1.0
 50
0.0
 71
0
 42
2.5
  3
txt
  4

  0
ENDTAB
  0
TABLE
  2
VIEW
  5
7
330
0
100
AcDbSymbolTable
 70
0
  0
ENDTAB
  0
TABLE
  2
UCS
  5
6
330
0
100
AcDbSymbolTable
 70
0
  0
ENDTAB
  0
TABLE
  2
APPID
  5
3
330
0
100
AcDbSymbolTable
 70
3
  0
APPID
  5
2A
330
3
100
AcDbSymbolTableRecord
100
AcDbRegAppTableRecord
  2
ACAD
 70
0
  0
APPID
  5
1D1
330
3
100
AcDbSymbolTableRecord
100
AcDbRegAppTableRecord
  2
HATCHBACKGROUNDCOLOR
 70
0
  0
APPID
  5
1D2
330
3
100
AcDbSymbolTableRecord
100
AcDbRegAppTableRecord
  2
EZDXF
 70
0
  0
ENDTAB
  0
TABLE
  2
DIMSTYLE
  5
4
330
0
100
AcDbSymbolTable
 70
1
100
AcDbDimStyleTable
  0
DIMSTYLE
105
2B
330
4
100
AcDbSymbolTableRecord
100
AcDbDimStyleTableRecord
  2
Standard
 70
0
 40
1.0
 41
2.5
 42
0.625
 43
3.75
 44
1.25
 45
0.0
 46
0.0
 47
0.0
 48
0.0
 49
2.5
140
2.5
141
2.5
142
0.0
143
0.03937007874
144
1.0
145
0.0
146
1.0
147
0.625
148
0.0
 69
0
 70
0
 71
0
 72
0
 73
0
 74
0
 75
0
 76
0
 77
1
 78
8
 79
3
170
0
171
3
172
1
173
0
174
0
175
0
176
0
177
0
178
0
179
2
271
2
272
2
273
2
274
3
275
0
276
0
277
2
278
44
279
0
280
0
281
0
282
0
283
0
284
8
285
0
286
0
288
0
289
3
290
0
371
-2
372
-2
  0
ENDTAB
  0
TABLE
  2
BLOCK_RECORD
  5
9
330
0
100
AcDbSymbolTable
 70
2
  0
BLOCK_RECORD
  5
17
330
9
100
AcDbSymbolTableRecord
100
AcDbBlockTableRecord
  2
*Model_Space
340
1A
 70
0
280
1
281
0
  0
BLOCK_RECORD
  5
1B
330
9
100
AcDbSymbolTableRecord
100
AcDbBlockTableRecord
  2
*Paper_Space
340
1E
 70
0
280
1
281
0
  0
ENDTAB
  0
ENDSEC
  0
SECTION
  2
BLOCKS
  0
BLOCK
  5
18
330
17
100
AcDbEntity
  8
0
100
AcDbBlockBegin
  2
*Model_Space
 70
0
 10
0.0
 20
0.0
 30
0.0
  3
*Model_Space
  1

  0
ENDBLK
  5
19
330
17
100
AcDbEntity
  8
0
100
AcDbBlockEnd
  0
BLOCK
  5
1C
330
1B
100
AcDbEntity
  8
0
100
AcDbBlockBegin
  2
*Paper_Space
 70
0
 10
0.0
 20
0.0
 30
0.0
  3
*Paper_Space
  1

  0
ENDBLK
  5
1D
330
1B
100
AcDbEntity
  8
0
100
AcDbBlockEnd
  0
ENDSEC
  0
SECTION
  2
ENTITIES
  0
LINE
  5
35
330
17
100
AcDbEntity
  8
A-WALL
100
AcDbLine
 10
0.5749999999999993
 20
16.324999237060545
 30
0.0
 11
0.5749999999999993
 21
15.244999237060547
 31
0.0
  0
LINE
  5
36
330
17
100
AcDbEntity
  8
A-WALL
100
AcDbLine
 10
0.5949999999999989
 20
15.164999237060549
 30
0.0
 11
0.5949999999999989
 21
13.844999237060549
 31
0.0
  0
LINE
  5
37
330
17
100
AcDbEntity
  8
A-WALL
100
AcDbLine
 10
1.8150000000000013
 20
12.844999237060549
 30
0.0
 11
1.8150000000000013
 21
10.62499923706055
 31
0.0
  0
LINE
  5
38
330
17
100
AcDbEntity
  8
A-WALL
100
AcDbLine
 10
2.835000000000001
 20
13.064999237060547
 30
0.0
 11
2.835000000000001
 21
10.58499923706055
 31
0.0
  0
LINE
  5
39
330
17
100
AcDbEntity
  8
A-WALL
100
AcDbLine
 10
4.655000000000001
 20
7.984999237060549
 30
0.0
 11
4.655000000000001
 21
8.844999237060549
 31
0.0
  0
LINE
  5
3A
330
17
100
AcDbEntity
  8
A-WALL
100
AcDbLine
 10
-15.665
 20
-0.15500076293945142
 30
0.0
 11
-15.665
 21
3.244999237060547
 31
0.0
  0
LINE
  5
3B
330
17
100
AcDbEntity
  8
A-WALL
100
AcDbLine
 10
-15.705
 20
4.224999237060548
 30
0.0
 11
-15.705
 21
3.244999237060547
 31
0.0
  0
LINE
  5
3C
330
17
100
AcDbEntity
  8
A-WALL
100
AcDbLine
 10
-16.645
 20
2.8849992370605477
 30
0.0
 11
-16.005
 21
2.8849992370605477
 31
0.0
  0
LINE
  5
3D
330
17
100
AcDbEntity
  8
A-WALL
100
AcDbLine
 10
-16.865000000000002
 20
2.1049992370605466
 30
0.0
 11
-15.905000000000001
 21
2.1049992370605466
 31
0.0
  0
LINE
  5
3E
330
17
100
AcDbEntity
  8
A-WALL
100
AcDbLine
 10
-17.445
 20
7.844999237060549
 30
0.0
 11
-17.445
 21
4.464999237060546
 31
0.0
  0
LINE
  5
3F
330
17
100
AcDbEntity
  8
A-WALL
100
AcDbLine
 10
-17.445
 20
9.94499923706055
 30
0.0
 11
-17.445
 21
8.824999237060549
 31
0.0
  0
LINE
  5
40
330
17
100
AcDbEntity
  8
A-WALL
100
AcDbLine
 10
-18.145
 20
8.524999237060548
 30
0.0
 11
-17.605
 21
8.524999237060548
 31
0.0
  0
LINE
  5
41
330
17
100
AcDbEntity
  8
A-WALL
100
AcDbLine
 10
-22.465
 20
8.364999237060548
 30
0.0
 11
-22.465
 21
8.824999237060549
 31
0.0
  0
LINE
  5
42
330
17
100
AcDbEntity
  8
A-WALL
100
AcDbLine
 10
-22.145
 20
8.584999237060547
 30
0.0
 11
-22.825
 21
8.584999237060547
 31
0.0
  0
LINE
  5
43
330
17
100
AcDbEntity
  8
A-WALL
100
AcDbLine
 10
-17.445
 20
11.164999237060549
 30
0.0
 11
-17.445
 21
13.604999237060547
 31
0.0
  0
LINE
  5
44
330
17
100
AcDbEntity
  8
A-WALL
100
AcDbLine
 10
-17.245
 20
16.16499923706055
 30
0.0
 11
-11.885
 21
16.16499923706055
 31
0.0
  0
LINE
  5
45
330
17
100
AcDbEntity
  8
A-WALL
100
AcDbLine
 10
-11.605
 20
15.784999237060546
 30
0.0
 11
-11.084999999999999
 21
15.784999237060546
 31
0.0
  0
LINE
  5
46
330
17
100
AcDbEntity
  8
A-WALL
100
AcDbLine
 10
-11.525
 20
13.324999237060545
 30
0.0
 11
-15.805
 21
13.324999237060545
 31
0.0
  0
LINE
  5
47
330
17
100
AcDbEntity
  8
A-WALL
100
AcDbLine
 10
-10.865
 20
12.044999237060544
 30
0.0
 11
-10.185
 21
12.044999237060544
 31
0.0
  0
LINE
  5
48
330
17
100
AcDbEntity
  8
A-WALL
100
AcDbLine
 10
-11.305
 20
10.284999237060546
 30
0.0
 11
-15.025
 21
10.284999237060546
 31
0.0
  0
LINE
  5
49
330
17
100
AcDbEntity
  8
A-WALL
100
AcDbLine
 10
-15.385
 20
8.844999237060549
 30
0.0
 11
-15.385
 21
9.824999237060545
 31
0.0
  0
LINE
  5
4A
330
17
100
AcDbEntity
  8
A-WALL
100
AcDbLine
 10
-11.885
 20
7.744999237060547
 30
0.0
 11
-15.225
 21
7.744999237060547
 31
0.0
  0
LINE
  5
4B
330
17
100
AcDbEntity
  8
A-WALL
100
AcDbLine
 10
-15.385
 20
7.844999237060549
 30
0.0
 11
-15.385
 21
7.4449992370605464
 31
0.0
  0
LINE
  5
4C
330
17
100
AcDbEntity
  8
A-WALL
100
AcDbLine
 10
-15.625
 20
7.464999237060546
 30
0.0
 11
-11.885
 21
7.464999237060546
 31
0.0
  0
LINE
  5
4D
330
17
100
AcDbEntity
  8
A-WALL
100
AcDbLine
 10
0.3949999999999996
 20
-0.9950007629394513
 30
0.0
 11
1.8350000000000009
 21
-0.9950007629394513
 31
0.0
  0
LINE
  5
4E
330
17
100
AcDbEntity
  8
A-WALL
100
AcDbLine
 10
-15.445
 20
-0.45500076293945213
 30
0.0
 11
-13.825
 21
-0.45500076293945213
 31
0.0
  0
LINE
  5
4F
330
17
100
AcDbEntity
  8
A-WALL
100
AcDbLine
 10
-14.285
 20
-0.3950007629394534
 30
0.0
 11
-14.285
 21
-1.035000762939454
 31
0.0
  0
LINE
  5
50
330
17
100
AcDbEntity
  8
A-WALL
100
AcDbLine
 10
0.7750000000000021
 20
-1.5150007629394544
 30
0.0
 11
0.7750000000000021
 21
-1.0550007629394536
 31
0.0
  0
LINE
  5
51
330
17
100
AcDbEntity
  8
A-WALL
100
AcDbLine
 10
-7.965
 20
-2.8950007629394534
 30
0.0
 11
-7.425000000000001
 21
-2.8950007629394534
 31
0.0
  0
LINE
  5
52
330
17
100
AcDbEntity
  8
A-WALL
100
AcDbLine
 10
-7.904999999999999
 20
-2.8950007629394534
 30
0.0
 11
-9.705
 21
-2.8950007629394534
 31
0.0
  0
LINE
  5
53
330
17
100
AcDbEntity
  8
A-WALL
100
AcDbLine
 10
-9.905
 20
-2.8150007629394516
 30
0.0
 11
-10.705
 21
-2.8150007629394516
 31
0.0
  0
LINE
  5
54
330
17
100
AcDbEntity
  8
A-WALL
100
AcDbLine
 10
0.6950000000000003
 20
-5.735000762939453
 30
0.0
 11
0.6950000000000003
 21
-3.375000762939454
 31
0.0
  0
LINE
  5
55
330
17
100
AcDbEntity
  8
A-WALL
100
AcDbLine
 10
-11.445
 20
-3.5550007629394536
 30
0.0
 11
-11.045
 21
-3.5550007629394536
 31
0.0
  0
LINE
  5
56
330
17
100
AcDbEntity
  8
A-WALL
100
AcDbLine
 10
1.495000000000001
 20
-3.455000762939452
 30
0.0
 11
1.495000000000001
 21
-4.975000762939452
 31
0.0
  0
LINE
  5
57
330
17
100
AcDbEntity
  8
A-WALL
100
AcDbLine
 10
-11.185
 20
-4.675000762939451
 30
0.0
 11
-11.605
 21
-4.675000762939451
 31
0.0
  0
LINE
  5
58
330
17
100
AcDbEntity
  8
A-WALL
100
AcDbLine
 10
1.5749999999999993
 20
-4.415000762939453
 30
0.0
 11
1.5749999999999993
 21
-5.735000762939453
 31
0.0
  0
LINE
  5
59
330
17
100
AcDbEntity
  8
A-WALL
100
AcDbLine
 10
-16.545
 20
-2.2350007629394533
 30
0.0
 11
-16.545
 21
-2.7750007629394524
 31
0.0
  0
LINE
  5
5A
330
17
100
AcDbEntity
  8
A-WALL
100
AcDbLine
 10
-15.965
 20
-1.8950007629394534
 30
0.0
 11
-16.725
 21
-1.8950007629394534
 31
0.0
  0
LINE
  5
5B
330
17
100
AcDbEntity
  8
A-WALL
100
AcDbLine
 10
-16.085
 20
-1.8550007629394543
 30
0.0
 11
-15.605
 21
-1.8550007629394543
 31
0.0
  0
LINE
  5
5C
330
17
100
AcDbEntity
  8
A-WALL
100
AcDbLine
 10
-16.905
 20
-0.175000762939451
 30
0.0
 11
-16.905
 21
-1.675000762939451
 31
0.0
  0
LINE
  5
5D
330
17
100
AcDbEntity
  8
A-WALL
100
AcDbLine
 10
-23.465
 20
-4.895000762939453
 30
0.0
 11
-23.465
 21
-4.395000762939453
 31
0.0
  0
LINE
  5
5E
330
17
100
AcDbEntity
  8
A-WALL
100
AcDbLine
 10
-21.805
 20
-5.5550007629394536
 30
0.0
 11
-21.805
 21
-6.135000762939452
 31
0.0
  0
LINE
  5
5F
330
17
100
AcDbEntity
  8
A-WALL
100
AcDbLine
 10
-22.125
 20
-6.355000762939454
 30
0.0
 11
-23.265
 21
-6.355000762939454
 31
0.0
  0
LINE
  5
60
330
17
100
AcDbEntity
  8
A-WALL
100
AcDbLine
 10
-12.105
 20
-6.675000762939453
 30
0.0
 11
-14.705
 21
-6.675000762939453
 31
0.0
  0
LINE
  5
61
330
17
100
AcDbEntity
  8
A-WALL
100
AcDbLine
 10
-7.044999999999998
 20
-6.815000762939453
 30
0.0
 11
-12.385
 21
-6.815000762939453
 31
0.0
  0
LINE
  5
62
330
17
100
AcDbEntity
  8
A-WALL
100
AcDbLine
 10
-22.925
 20
-6.815000762939453
 30
0.0
 11
-21.485
 21
-6.815000762939453
 31
0.0
  0
LINE
  5
63
330
17
100
AcDbEntity
  8
A-WALL
100
AcDbLine
 10
-18.365000000000002
 20
-7.635000762939454
 30
0.0
 11
-18.365000000000002
 21
-8.655000762939453
 31
0.0
  0
LINE
  5
64
330
17
100
AcDbEntity
  8
A-WALL
100
AcDbLine
 10
-8.865
 20
-9.195000762939452
 30
0.0
 11
-8.865
 21
-7.015000762939453
 31
0.0
  0
LINE
  5
65
330
17
100
AcDbEntity
  8
A-WALL
100
AcDbLine
 10
0.495000000000001
 20
-6.695000762939452
 30
0.0
 11
0.495000000000001
 21
-9.155000762939453
 31
0.0
  0
LINE
  5
66
330
17
100
AcDbEntity
  8
A-WALL
100
AcDbLine
 10
-12.825
 20
-7.195000762939452
 30
0.0
 11
-12.825
 21
-9.455000762939452
 31
0.0
  0
LINE
  5
67
330
17
100
AcDbEntity
  8
A-WALL
100
AcDbLine
 10
-13.945
 20
-7.015000762939453
 30
0.0
 11
-13.945
 21
-9.095000762939453
 31
0.0
  0
LINE
  5
68
330
17
100
AcDbEntity
  8
A-WALL
100
AcDbLine
 10
-9.985
 20
-7.335000762939453
 30
0.0
 11
-9.985
 21
-9.275000762939452
 31
0.0
  0
LINE
  5
69
330
17
100
AcDbEntity
  8
A-WALL
100
AcDbLine
 10
-10.865
 20
-9.275000762939452
 30
0.0
 11
-10.865
 21
-7.035000762939452
 31
0.0
  0
LINE
  5
6A
330
17
100
AcDbEntity
  8
A-WALL
100
AcDbLine
 10
-11.545
 20
-9.175000762939453
 30
0.0
 11
-11.545
 21
-7.435000762939453
 31
0.0
  0
LINE
  5
6B
330
17
100
AcDbEntity
  8
A-WALL
100
AcDbLine
 10
-23.145
 20
-8.515000762939453
 30
0.0
 11
-23.025
 21
-8.955000762939452
 31
0.0
  0
LINE
  5
6C
330
17
100
AcDbEntity
  8
A-WALL
100
AcDbLine
 10
-22.705
 20
-9.055000762939454
 30
0.0
 11
-22.705
 21
-8.235000762939453
 31
0.0
  0
LINE
  5
6D
330
17
100
AcDbEntity
  8
A-WALL
100
AcDbLine
 10
-20.285
 20
-9.675000762939453
 30
0.0
 11
-22.865
 21
-9.675000762939453
 31
0.0
  0
LINE
  5
6E
330
17
100
AcDbEntity
  8
A-WALL
100
AcDbLine
 10
-22.645
 20
-7.235000762939453
 30
0.0
 11
-22.645
 21
-7.695000762939452
 31
0.0
  0
LINE
  5
6F
330
17
100
AcDbEntity
  8
A-WALL
100
AcDbLine
 10
1.9149999999999991
 20
-10.175000762939453
 30
0.0
 11
2.6750000000000007
 21
-10.175000762939453
 31
0.0
  0
LINE
  5
70
330
17
100
AcDbEntity
  8
A-WALL
100
AcDbLine
 10
9.454999999999998
 20
-6.295000762939452
 30
0.0
 11
0.27500000000000213
 21
-6.295000762939452
 31
0.0
  0
LINE
  5
71
330
17
100
AcDbEntity
  8
A-WALL
100
AcDbLine
 10
2.5549999999999997
 20
-5.195000762939454
 30
0.0
 11
2.5549999999999997
 21
-5.815000762939452
 31
0.0
  0
LINE
  5
72
330
17
100
AcDbEntity
  8
A-WALL
100
AcDbLine
 10
2.594999999999999
 20
-5.415000762939453
 30
0.0
 11
2.594999999999999
 21
-3.375000762939454
 31
0.0
  0
LINE
  5
73
330
17
100
AcDbEntity
  8
A-WALL
100
AcDbLine
 10
1.375
 20
-2.9750007629394517
 30
0.0
 11
1.375
 21
-2.455000762939452
 31
0.0
  0
LINE
  5
74
330
17
100
AcDbEntity
  8
A-WALL
100
AcDbLine
 10
0.754999999999999
 20
-2.1550007629394514
 30
0.0
 11
0.3150000000000013
 21
-2.1550007629394514
 31
0.0
  0
LINE
  5
75
330
17
100
AcDbEntity
  8
A-WALL
100
AcDbLine
 10
3.275000000000002
 20
-0.9550007629394521
 30
0.0
 11
4.275000000000002
 21
-0.9550007629394521
 31
0.0
  0
LINE
  5
76
330
17
100
AcDbEntity
  8
A-WALL
100
AcDbLine
 10
4.795000000000002
 20
6.544999237060548
 30
0.0
 11
4.795000000000002
 21
9.524999237060548
 31
0.0
  0
LINE
  5
77
330
17
100
AcDbEntity
  8
A-WALL
100
AcDbLine
 10
4.295000000000002
 20
10.26499923706055
 30
0.0
 11
3.115000000000002
 21
10.26499923706055
 31
0.0
  0
LINE
  5
78
330
17
100
AcDbEntity
  8
A-WALL
100
AcDbLine
 10
2.835000000000001
 20
10.30499923706055
 30
0.0
 11
0.2950000000000017
 21
10.30499923706055
 31
0.0
  0
LINE
  5
79
330
17
100
AcDbEntity
  8
A-WALL
100
AcDbLine
 10
0.8550000000000004
 20
10.62499923706055
 30
0.0
 11
0.8550000000000004
 21
12.344999237060549
 31
0.0
  0
LINE
  5
7A
330
17
100
AcDbEntity
  8
A-WALL
100
AcDbLine
 10
3.6950000000000003
 20
10.58499923706055
 30
0.0
 11
3.6950000000000003
 21
13.064999237060547
 31
0.0
  0
LINE
  5
7B
330
17
100
AcDbEntity
  8
A-WALL
100
AcDbLine
 10
0.995000000000001
 20
16.30499923706055
 30
0.0
 11
0.995000000000001
 21
14.064999237060547
 31
0.0
  0
LINE
  5
7C
330
17
100
AcDbEntity
  8
A-WALL
100
AcDbLine
 10
0.15500000000000114
 20
16.424999237060547
 30
0.0
 11
4.395
 21
16.424999237060547
 31
0.0
  0
LINE
  5
7D
330
17
100
AcDbEntity
  8
A-WALL
100
AcDbLine
 10
4.935000000000002
 20
-9.455000762939452
 30
0.0
 11
4.935000000000002
 21
-6.495000762939451
 31
0.0
  0
LINE
  5
7E
330
17
100
AcDbEntity
  8
A-WALL
100
AcDbLine
 10
0.2950000000000017
 20
-9.535000762939452
 30
0.0
 11
7.175000000000001
 21
-9.535000762939452
 31
0.0
  0
LINE
  5
7F
330
17
100
AcDbEntity
  8
A-WALL
100
AcDbLine
 10
2.455000000000002
 20
-10.095000762939453
 30
0.0
 11
1.3949999999999996
 21
-10.095000762939453
 31
0.0
  0
LINE
  5
80
330
17
100
AcDbEntity
  8
A-WALL
100
AcDbLine
 10
-6.725000000000001
 20
-9.635000762939454
 30
0.0
 11
-6.725000000000001
 21
-10.275000762939452
 31
0.0
  0
LINE
  5
81
330
17
100
AcDbEntity
  8
A-WALL
100
AcDbLine
 10
-7.504999999999999
 20
-9.755000762939453
 30
0.0
 11
-10.285
 21
-9.755000762939453
 31
0.0
  0
LINE
  5
82
330
17
100
AcDbEntity
  8
A-WALL
100
AcDbLine
 10
-10.545
 20
-9.695000762939452
 30
0.0
 11
-14.885
 21
-9.695000762939452
 31
0.0
  0
LINE
  5
83
330
17
100
AcDbEntity
  8
A-WALL
100
AcDbLine
 10
-14.605
 20
-8.895000762939453
 30
0.0
 11
-14.605
 21
-9.355000762939452
 31
0.0
  0
LINE
  5
84
330
17
100
AcDbEntity
  8
A-WALL
100
AcDbLine
 10
-19.785
 20
-21.575000762939453
 30
0.0
 11
-21.465
 21
-21.575000762939453
 31
0.0
  0
LINE
  5
85
330
17
100
AcDbEntity
  8
A-WALL
100
AcDbLine
 10
-19.564999999999998
 20
-19.455000762939452
 30
0.0
 11
-19.564999999999998
 21
-20.775000762939452
 31
0.0
  0
LINE
  5
86
330
17
100
AcDbEntity
  8
A-WALL
100
AcDbLine
 10
-16.365000000000002
 20
-15.095000762939453
 30
0.0
 11
-14.845
 21
-15.095000762939453
 31
0.0
  0
LINE
  5
87
330
17
100
AcDbEntity
  8
A-WALL
100
AcDbLine
 10
-11.225
 20
-15.035000762939454
 30
0.0
 11
-13.565
 21
-15.035000762939454
 31
0.0
  0
LINE
  5
88
330
17
100
AcDbEntity
  8
A-WALL
100
AcDbLine
 10
-13.465
 20
-15.395000762939453
 30
0.0
 11
-13.465
 21
-16.195000762939454
 31
0.0
  0
LINE
  5
89
330
17
100
AcDbEntity
  8
A-WALL
100
AcDbLine
 10
-13.825
 20
-17.095000762939453
 30
0.0
 11
-11.245
 21
-17.095000762939453
 31
0.0
  0
LINE
  5
8A
330
17
100
AcDbEntity
  8
A-WALL
100
AcDbLine
 10
-12.145
 20
-18.15500076293945
 30
0.0
 11
-12.145
 21
-18.795000762939452
 31
0.0
  0
LINE
  5
8B
330
17
100
AcDbEntity
  8
A-WALL
100
AcDbLine
 10
-14.924999999999999
 20
-19.135000762939452
 30
0.0
 11
-10.025
 21
-19.135000762939452
 31
0.0
  0
LINE
  5
8C
330
17
100
AcDbEntity
  8
A-WALL
100
AcDbLine
 10
-13.465
 20
-18.075000762939453
 30
0.0
 11
-13.465
 21
-18.855000762939454
 31
0.0
  0
LINE
  5
8D
330
17
100
AcDbEntity
  8
A-WALL
100
AcDbLine
 10
-15.765
 20
3.704999237060548
 30
0.0
 11
-17.005
 21
3.704999237060548
 31
0.0
  0
LINE
  5
8E
330
17
100
AcDbEntity
  8
A-WALL
100
AcDbLine
 10
-17.105
 20
-0.13500076293945185
 30
0.0
 11
-17.105
 21
4.4449992370605464
 31
0.0
  0
LINE
  5
8F
330
17
100
AcDbEntity
  8
A-WALL
100
AcDbLine
 10
-17.105
 20
1.9249992370605469
 30
0.0
 11
-17.105
 21
1.1249992370605462
 31
0.0
  0
LINE
  5
90
330
17
100
AcDbEntity
  8
A-WALL
100
AcDbLine
 10
-17.384999999999998
 20
7.524999237060548
 30
0.0
 11
-17.384999999999998
 21
8.124999237060546
 31
0.0
  0
LINE
  5
91
330
17
100
AcDbEntity
  8
A-WALL
100
AcDbLine
 10
-17.384999999999998
 20
9.044999237060548
 30
0.0
 11
-17.384999999999998
 21
9.48499923706055
 31
0.0
  0
LINE
  5
92
330
17
100
AcDbEntity
  8
A-WALL
100
AcDbLine
 10
-17.125
 20
9.784999237060546
 30
0.0
 11
-17.205
 21
10.204999237060548
 31
0.0
  0
LINE
  5
93
330
17
100
AcDbEntity
  8
A-WALL
100
AcDbLine
 10
-18.185
 20
8.744999237060547
 30
0.0
 11
-18.185
 21
8.264999237060547
 31
0.0
  0
LINE
  5
94
330
17
100
AcDbEntity
  8
A-WALL
100
AcDbLine
 10
-17.685
 20
4.484999237060549
 30
0.0
 11
-21.025
 21
4.484999237060549
 31
0.0
  0
LINE
  5
95
330
17
100
AcDbEntity
  8
A-WALL
100
AcDbLine
 10
-21.205
 20
4.524999237060548
 30
0.0
 11
-22.765
 21
4.524999237060548
 31
0.0
  0
LINE
  5
96
330
17
100
AcDbEntity
  8
A-WALL
100
AcDbLine
 10
-22.785
 20
4.524999237060548
 30
0.0
 11
-22.785
 21
8.044999237060548
 31
0.0
  0
LINE
  5
97
330
17
100
AcDbEntity
  8
A-WALL
100
AcDbLine
 10
-22.825
 20
8.824999237060549
 30
0.0
 11
-22.825
 21
9.404999237060547
 31
0.0
  0
LINE
  5
98
330
17
100
AcDbEntity
  8
A-WALL
100
AcDbLine
 10
-22.825
 20
11.44499923706055
 30
0.0
 11
-22.825
 21
9.744999237060547
 31
0.0
  0
LINE
  5
99
330
17
100
AcDbEntity
  8
A-WALL
100
AcDbLine
 10
-22.925
 20
11.62499923706055
 30
0.0
 11
-22.925
 21
12.344999237060549
 31
0.0
  0
LINE
  5
9A
330
17
100
AcDbEntity
  8
A-WALL
100
AcDbLine
 10
-22.825
 20
12.58499923706055
 30
0.0
 11
-17.745
 21
12.58499923706055
 31
0.0
  0
LINE
  5
9B
330
17
100
AcDbEntity
  8
A-WALL
100
AcDbLine
 10
-17.265
 20
13.76499923706055
 30
0.0
 11
-17.705
 21
13.76499923706055
 31
0.0
  0
LINE
  5
9C
330
17
100
AcDbEntity
  8
A-WALL
100
AcDbLine
 10
-17.845
 20
13.604999237060547
 30
0.0
 11
-22.485
 21
13.604999237060547
 31
0.0
  0
LINE
  5
9D
330
17
100
AcDbEntity
  8
A-WALL
100
AcDbLine
 10
-22.485
 20
13.58499923706055
 30
0.0
 11
-22.925
 21
13.58499923706055
 31
0.0
  0
LINE
  5
9E
330
17
100
AcDbEntity
  8
A-WALL
100
AcDbLine
 10
-23.185
 20
13.62499923706055
 30
0.0
 11
-23.185
 21
15.48499923706055
 31
0.0
  0
LINE
  5
9F
330
17
100
AcDbEntity
  8
A-WALL
100
AcDbLine
 10
-23.265
 20
15.524999237060548
 30
0.0
 11
-23.265
 21
16.064999237060547
 31
0.0
  0
LINE
  5
A0
330
17
100
AcDbEntity
  8
A-WALL
100
AcDbLine
 10
-22.985
 20
16.34499923706055
 30
0.0
 11
-18.205
 21
16.34499923706055
 31
0.0
  0
LINE
  5
A1
330
17
100
AcDbEntity
  8
A-WALL
100
AcDbLine
 10
-17.705
 20
16.22499923706055
 30
0.0
 11
-17.265
 21
16.22499923706055
 31
0.0
  0
LINE
  5
A2
330
17
100
AcDbEntity
  8
A-WALL
100
AcDbLine
 10
-11.705
 20
15.104999237060547
 30
0.0
 11
-11.705
 21
14.664999237060549
 31
0.0
  0
LINE
  5
A3
330
17
100
AcDbEntity
  8
A-WALL
100
AcDbLine
 10
-11.705
 20
13.864999237060545
 30
0.0
 11
-10.785
 21
13.864999237060545
 31
0.0
  0
LINE
  5
A4
330
17
100
AcDbEntity
  8
A-WALL
100
AcDbLine
 10
-10.785
 20
13.824999237060545
 30
0.0
 11
-11.504999999999999
 21
13.824999237060545
 31
0.0
  0
LINE
  5
A5
330
17
100
AcDbEntity
  8
A-WALL
100
AcDbLine
 10
-10.725
 20
13.12499923706055
 30
0.0
 11
-9.225
 21
13.12499923706055
 31
0.0
  0
LINE
  5
A6
330
17
100
AcDbEntity
  8
A-WALL
100
AcDbLine
 10
-9.285
 20
12.94499923706055
 30
0.0
 11
-9.285
 21
12.224999237060551
 31
0.0
  0
LINE
  5
A7
330
17
100
AcDbEntity
  8
A-WALL
100
AcDbLine
 10
-9.285
 20
12.224999237060551
 30
0.0
 11
-10.084999999999999
 21
12.224999237060551
 31
0.0
  0
LINE
  5
A8
330
17
100
AcDbEntity
  8
A-WALL
100
AcDbLine
 10
-10.865
 20
12.204999237060548
 30
0.0
 11
-10.865
 21
11.76499923706055
 31
0.0
  0
LINE
  5
A9
330
17
100
AcDbEntity
  8
A-WALL
100
AcDbLine
 10
-11.885
 20
9.824999237060545
 30
0.0
 11
-11.885
 21
8.884999237060548
 31
0.0
  0
LINE
  5
AA
330
17
100
AcDbEntity
  8
A-WALL
100
AcDbLine
 10
-11.885
 20
8.864999237060548
 30
0.0
 11
-11.485
 21
8.864999237060548
 31
0.0
  0
LINE
  5
AB
330
17
100
AcDbEntity
  8
A-WALL
100
AcDbLine
 10
-11.504999999999999
 20
8.864999237060548
 30
0.0
 11
-11.504999999999999
 21
8.384999237060548
 31
0.0
  0
LINE
  5
AC
330
17
100
AcDbEntity
  8
A-WALL
100
AcDbLine
 10
-11.885
 20
8.044999237060548
 30
0.0
 11
-11.885
 21
7.464999237060546
 31
0.0
  0
LINE
  5
AD
330
17
100
AcDbEntity
  8
A-WALL
100
AcDbLine
 10
-11.885
 20
7.124999237060546
 30
0.0
 11
-11.885
 21
6.4449992370605464
 31
0.0
  0
LINE
  5
AE
330
17
100
AcDbEntity
  8
A-WALL
100
AcDbLine
 10
-11.405
 20
6.424999237060547
 30
0.0
 11
-11.405
 21
5.664999237060549
 31
0.0
  0
LINE
  5
AF
330
17
100
AcDbEntity
  8
A-WALL
100
AcDbLine
 10
-11.424999999999999
 20
5.424999237060547
 30
0.0
 11
-11.825
 21
5.424999237060547
 31
0.0
  0
LINE
  5
B0
330
17
100
AcDbEntity
  8
A-WALL
100
AcDbLine
 10
-11.825
 20
5.404999237060547
 30
0.0
 11
-11.825
 21
4.464999237060546
 31
0.0
  0
LINE
  5
B1
330
17
100
AcDbEntity
  8
A-WALL
100
AcDbLine
 10
-11.825
 20
4.464999237060546
 30
0.0
 11
-15.584999999999999
 21
4.464999237060546
 31
0.0
  0
LINE
  5
B2
330
17
100
AcDbEntity
  8
A-WALL
100
AcDbLine
 10
-11.625
 20
-0.23500076293945327
 30
0.0
 11
-11.625
 21
-0.675000762939451
 31
0.0
  0
LINE
  5
B3
330
17
100
AcDbEntity
  8
A-WALL
100
AcDbLine
 10
-15.345
 20
-0.9750007629394517
 30
0.0
 11
-15.345
 21
-0.3950007629394534
 31
0.0
  0
LINE
  5
B4
330
17
100
AcDbEntity
  8
A-WALL
100
AcDbLine
 10
0.5350000000000001
 20
-1.1550007629394514
 30
0.0
 11
0.5350000000000001
 21
-1.6350007629394518
 31
0.0
  0
LINE
  5
B5
330
17
100
AcDbEntity
  8
A-WALL
100
AcDbLine
 10
-10.584999999999999
 20
-1.8350007629394511
 30
0.0
 11
-9.825
 21
-1.8350007629394511
 31
0.0
  0
LINE
  5
B6
330
17
100
AcDbEntity
  8
A-WALL
100
AcDbLine
 10
-21.345
 20
-2.635000762939452
 30
0.0
 11
-21.525
 21
-2.2350007629394533
 31
0.0
  0
LINE
  5
B7
330
17
100
AcDbEntity
  8
A-WALL
100
AcDbLine
 10
-22.425
 20
-1.7350007629394533
 30
0.0
 11
-22.325
 21
-2.2750007629394524
 31
0.0
  0
LINE
  5
B8
330
17
100
AcDbEntity
  8
A-WALL
100
AcDbLine
 10
-11.924999999999999
 20
-2.035000762939454
 30
0.0
 11
-11.525
 21
-1.9350007629394526
 31
0.0
  0
LINE
  5
B9
330
17
100
AcDbEntity
  8
A-WALL
100
AcDbLine
 10
-11.205
 20
-1.9350007629394526
 30
0.0
 11
-10.625
 21
-1.9350007629394526
 31
0.0
  0
LINE
  5
BA
330
17
100
AcDbEntity
  8
A-WALL
100
AcDbLine
 10
-11.225
 20
-2.0950007629394527
 30
0.0
 11
-11.225
 21
-2.635000762939452
 31
0.0
  0
LINE
  5
BB
330
17
100
AcDbEntity
  8
A-WALL
100
AcDbLine
 10
-7.904999999999999
 20
-3.1550007629394514
 30
0.0
 11
-7.904999999999999
 21
-2.5550007629394536
 31
0.0
  0
LINE
  5
BC
330
17
100
AcDbEntity
  8
A-WALL
100
AcDbLine
 10
-8.485
 20
-1.9350007629394526
 30
0.0
 11
-9.765
 21
-1.9350007629394526
 31
0.0
  0
LINE
  5
BD
330
17
100
AcDbEntity
  8
A-WALL
100
AcDbLine
 10
-7.384999999999998
 20
-2.575000762939453
 30
0.0
 11
-7.384999999999998
 21
-3.2350007629394533
 31
0.0
  0
LINE
  5
BE
330
17
100
AcDbEntity
  8
A-WALL
100
AcDbLine
 10
-11.125
 20
-3.9350007629394526
 30
0.0
 11
-11.605
 21
-4.0550007629394536
 31
0.0
  0
LINE
  5
BF
330
17
100
AcDbEntity
  8
A-WALL
100
AcDbLine
 10
-17.005
 20
-3.9350007629394526
 30
0.0
 11
-17.005
 21
-3.135000762939452
 31
0.0
  0
LINE
  5
C0
330
17
100
AcDbEntity
  8
A-WALL
100
AcDbLine
 10
-15.584999999999999
 20
-1.2350007629394533
 30
0.0
 11
-15.584999999999999
 21
-1.675000762939451
 31
0.0
  0
LINE
  5
C1
330
17
100
AcDbEntity
  8
A-WALL
100
AcDbLine
 10
-15.785
 20
-2.7350007629394533
 30
0.0
 11
-15.785
 21
-3.175000762939451
 31
0.0
  0
LINE
  5
C2
330
17
100
AcDbEntity
  8
A-WALL
100
AcDbLine
 10
-23.485
 20
-3.9950007629394513
 30
0.0
 11
-23.625
 21
-4.575000762939453
 31
0.0
  0
LINE
  5
C3
330
17
100
AcDbEntity
  8
A-WALL
100
AcDbLine
 10
-23.325
 20
-3.575000762939453
 30
0.0
 11
-22.185
 21
-3.575000762939453
 31
0.0
  0
LINE
  5
C4
330
17
100
AcDbEntity
  8
A-WALL
100
AcDbLine
 10
-22.265
 20
-3.9950007629394513
 30
0.0
 11
-22.265
 21
-5.415000762939453
 31
0.0
  0
LINE
  5
C5
330
17
100
AcDbEntity
  8
A-WALL
100
AcDbLine
 10
-13.025
 20
-5.5550007629394536
 30
0.0
 11
-12.405
 21
-5.435000762939453
 31
0.0
  0
LINE
  5
C6
330
17
100
AcDbEntity
  8
A-WALL
100
AcDbLine
 10
-11.125
 20
-5.375000762939454
 30
0.0
 11
-11.125
 21
-6.635000762939454
 31
0.0
  0
LINE
  5
C7
330
17
100
AcDbEntity
  8
A-WALL
100
AcDbLine
 10
-11.605
 20
-5.715000762939454
 30
0.0
 11
-12.405
 21
-5.715000762939454
 31
0.0
  0
LINE
  5
C8
330
17
100
AcDbEntity
  8
A-WALL
100
AcDbLine
 10
-18.165
 20
-7.115000762939452
 30
0.0
 11
-19.525
 21
-6.875000762939452
 31
0.0
  0
LINE
  5
C9
330
17
100
AcDbEntity
  8
A-WALL
100
AcDbLine
 10
-13.665
 20
-9.075000762939453
 30
0.0
 11
-13.665
 21
-8.275000762939452
 31
0.0
  0
LINE
  5
CA
330
17
100
AcDbEntity
  8
A-WALL
100
AcDbLine
 10
-8.105
 20
-8.875000762939452
 30
0.0
 11
-8.105
 21
-9.275000762939452
 31
0.0
  0
LINE
  5
CB
330
17
100
AcDbEntity
  8
A-WALL
100
AcDbLine
 10
-7.984999999999999
 20
-8.535000762939452
 30
0.0
 11
-8.125
 21
-8.955000762939452
 31
0.0
  0
LINE
  5
CC
330
17
100
AcDbEntity
  8
A-WALL
100
AcDbLine
 10
-6.645
 20
-7.095000762939453
 30
0.0
 11
-7.085000000000001
 21
-7.095000762939453
 31
0.0
  0
LINE
  5
CD
330
17
100
AcDbEntity
  8
A-WALL
100
AcDbLine
 10
-7.145
 20
-7.015000762939453
 30
0.0
 11
-7.865
 21
-7.015000762939453
 31
0.0
  0
LINE
  5
CE
330
17
100
AcDbEntity
  8
A-WALL
100
AcDbLine
 10
-8.545
 20
-7.015000762939453
 30
0.0
 11
-8.965
 21
-7.015000762939453
 31
0.0
  0
LINE
  5
CF
330
17
100
AcDbEntity
  8
A-WALL
100
AcDbLine
 10
-18.225
 20
-9.215000762939454
 30
0.0
 11
-18.225
 21
-8.755000762939453
 31
0.0
  0
LINE
  5
D0
330
17
100
AcDbEntity
  8
A-WALL
100
AcDbLine
 10
-23.365
 20
-9.575000762939453
 30
0.0
 11
-23.105
 21
-9.235000762939453
 31
0.0
  0
LINE
  5
D1
330
17
100
AcDbEntity
  8
A-WALL
100
AcDbLine
 10
-22.485
 20
-7.295000762939452
 30
0.0
 11
-22.925
 21
-7.295000762939452
 31
0.0
  0
LINE
  5
D2
330
17
100
AcDbEntity
  8
A-WALL
100
AcDbLine
 10
-22.925
 20
-7.175000762939453
 30
0.0
 11
-23.585
 21
-7.175000762939453
 31
0.0
  0
LINE
  5
D3
330
17
100
AcDbEntity
  8
A-WALL
100
AcDbLine
 10
-23.485
 20
-7.9750007629394535
 30
0.0
 11
-23.485
 21
-7.175000762939453
 31
0.0
  0
LINE
  5
D4
330
17
100
AcDbEntity
  8
A-WALL
100
AcDbLine
 10
-21.345
 20
-6.815000762939453
 30
0.0
 11
-21.345
 21
-6.295000762939452
 31
0.0
  0
LINE
  5
D5
330
17
100
AcDbEntity
  8
A-WALL
100
AcDbLine
 10
-20.965
 20
-6.8550007629394525
 30
0.0
 11
-19.685
 21
-6.8550007629394525
 31
0.0
  0
LINE
  5
D6
330
17
100
AcDbEntity
  8
A-WALL
100
AcDbLine
 10
-20.405
 20
-6.815000762939453
 30
0.0
 11
-20.525
 21
-6.335000762939451
 31
0.0
  0
LINE
  5
D7
330
17
100
AcDbEntity
  8
A-WALL
100
AcDbLine
 10
-20.685
 20
-7.135000762939454
 30
0.0
 11
-20.265
 21
-7.275000762939452
 31
0.0
  0
LINE
  5
D8
330
17
100
AcDbEntity
  8
A-WALL
100
AcDbLine
 10
-22.865
 20
-9.635000762939454
 30
0.0
 11
-23.505
 21
-9.635000762939454
 31
0.0
  0
LINE
  5
D9
330
17
100
AcDbEntity
  8
A-WALL
100
AcDbLine
 10
1.9149999999999991
 20
-5.775000762939452
 30
0.0
 11
2.8550000000000004
 21
-5.775000762939452
 31
0.0
  0
LINE
  5
DA
330
17
100
AcDbEntity
  8
A-WALL
100
AcDbLine
 10
1.8150000000000013
 20
-0.8150007629394516
 30
0.0
 11
2.3150000000000013
 21
-0.8150007629394516
 31
0.0
  0
LINE
  5
DB
330
17
100
AcDbEntity
  8
A-WALL
100
AcDbLine
 10
4.375
 20
6.544999237060548
 30
0.0
 11
5.074999999999999
 21
6.544999237060548
 31
0.0
  0
LINE
  5
DC
330
17
100
AcDbEntity
  8
A-WALL
100
AcDbLine
 10
0.1750000000000007
 20
10.604999237060547
 30
0.0
 11
0.6750000000000007
 21
10.604999237060547
 31
0.0
  0
LINE
  5
DD
330
17
100
AcDbEntity
  8
A-WALL
100
AcDbLine
 10
0.5949999999999989
 20
11.324999237060545
 30
0.0
 11
0.5949999999999989
 21
11.724999237060551
 31
0.0
  0
LINE
  5
DE
330
17
100
AcDbEntity
  8
A-WALL
100
AcDbLine
 10
0.5949999999999989
 20
12.26499923706055
 30
0.0
 11
0.5949999999999989
 21
12.724999237060551
 31
0.0
  0
LINE
  5
DF
330
17
100
AcDbEntity
  8
A-WALL
100
AcDbLine
 10
1.6950000000000003
 20
10.58499923706055
 30
0.0
 11
1.6950000000000003
 21
11.064999237060547
 31
0.0
  0
LINE
  5
E0
330
17
100
AcDbEntity
  8
A-WALL
100
AcDbLine
 10
3.875
 20
13.064999237060547
 30
0.0
 11
2.6350000000000016
 21
13.064999237060547
 31
0.0
  0
LINE
  5
E1
330
17
100
AcDbEntity
  8
A-WALL
100
AcDbLine
 10
1.495000000000001
 20
15.48499923706055
 30
0.0
 11
1.495000000000001
 21
16.244999237060547
 31
0.0
  0
LINE
  5
E2
330
17
100
AcDbEntity
  8
A-WALL
100
AcDbLine
 10
0.8949999999999996
 20
16.30499923706055
 30
0.0
 11
0.1750000000000007
 21
16.30499923706055
 31
0.0
  0
LINE
  5
E3
330
17
100
AcDbEntity
  8
A-WALL
100
AcDbLine
 10
4.535
 20
16.30499923706055
 30
0.0
 11
5.355
 21
16.30499923706055
 31
0.0
  0
LINE
  5
E4
330
17
100
AcDbEntity
  8
A-WALL
100
AcDbLine
 10
5.375
 20
16.504999237060545
 30
0.0
 11
10.055
 21
16.504999237060545
 31
0.0
  0
LINE
  5
E5
330
17
100
AcDbEntity
  8
A-WALL
100
AcDbLine
 10
10.075000000000003
 20
16.76499923706055
 30
0.0
 11
11.274999999999999
 21
16.76499923706055
 31
0.0
  0
LINE
  5
E6
330
17
100
AcDbEntity
  8
A-WALL
100
AcDbLine
 10
11.835
 20
16.66499923706055
 30
0.0
 11
12.795000000000002
 21
16.66499923706055
 31
0.0
  0
LINE
  5
E7
330
17
100
AcDbEntity
  8
A-WALL
100
AcDbLine
 10
13.094999999999999
 20
16.564999237060547
 30
0.0
 11
15.895000000000003
 21
16.564999237060547
 31
0.0
  0
LINE
  5
E8
330
17
100
AcDbEntity
  8
A-WALL
100
AcDbLine
 10
16.115000000000002
 20
16.424999237060547
 30
0.0
 11
20.375
 21
16.424999237060547
 31
0.0
  0
LINE
  5
E9
330
17
100
AcDbEntity
  8
A-WALL
100
AcDbLine
 10
20.395000000000003
 20
16.424999237060547
 30
0.0
 11
20.395000000000003
 21
15.644999237060546
 31
0.0
  0
LINE
  5
EA
330
17
100
AcDbEntity
  8
A-WALL
100
AcDbLine
 10
20.515
 20
15.62499923706055
 30
0.0
 11
20.515
 21
14.964999237060546
 31
0.0
  0
LINE
  5
EB
330
17
100
AcDbEntity
  8
A-WALL
100
AcDbLine
 10
20.375
 20
14.94499923706055
 30
0.0
 11
20.375
 21
1.964999237060546
 31
0.0
  0
LINE
  5
EC
330
17
100
AcDbEntity
  8
A-WALL
100
AcDbLine
 10
20.295
 20
1.9449992370605464
 30
0.0
 11
20.295
 21
-9.535000762939452
 31
0.0
  0
LINE
  5
ED
330
17
100
AcDbEntity
  8
A-WALL
100
AcDbLine
 10
20.275
 20
-9.535000762939452
 30
0.0
 11
15.735
 21
-9.535000762939452
 31
0.0
  0
LINE
  5
EE
330
17
100
AcDbEntity
  8
A-WALL
100
AcDbLine
 10
15.435000000000002
 20
-9.715000762939454
 30
0.0
 11
7.475000000000001
 21
-9.715000762939454
 31
0.0
  0
LINE
  5
EF
330
17
100
AcDbEntity
  8
A-WALL
100
AcDbLine
 10
9.035000000000004
 20
-9.695000762939452
 30
0.0
 11
9.515
 21
-9.695000762939452
 31
0.0
  0
LINE
  5
F0
330
17
100
AcDbEntity
  8
A-WALL
100
AcDbLine
 10
9.715000000000003
 20
-9.455000762939452
 30
0.0
 11
5.215
 21
-9.455000762939452
 31
0.0
  0
LINE
  5
F1
330
17
100
AcDbEntity
  8
A-WALL
100
AcDbLine
 10
5.175000000000001
 20
-6.475000762939452
 30
0.0
 11
9.435000000000002
 21
-6.475000762939452
 31
0.0
  0
LINE
  5
F2
330
17
100
AcDbEntity
  8
A-WALL
100
AcDbLine
 10
3.495000000000001
 20
-6.675000762939453
 30
0.0
 11
4.515000000000001
 21
-6.675000762939453
 31
0.0
  0
LINE
  5
F3
330
17
100
AcDbEntity
  8
A-WALL
100
AcDbLine
 10
4.395
 20
-7.235000762939453
 30
0.0
 11
4.395
 21
-8.055000762939454
 31
0.0
  0
LINE
  5
F4
330
17
100
AcDbEntity
  8
A-WALL
100
AcDbLine
 10
4.395
 20
-8.055000762939454
 30
0.0
 11
4.395
 21
-8.555000762939454
 31
0.0
  0
LINE
  5
F5
330
17
100
AcDbEntity
  8
A-WALL
100
AcDbLine
 10
4.414999999999999
 20
-8.595000762939453
 30
0.0
 11
4.414999999999999
 21
-9.155000762939453
 31
0.0
  0
LINE
  5
F6
330
17
100
AcDbEntity
  8
A-WALL
100
AcDbLine
 10
4.715
 20
-9.175000762939453
 30
0.0
 11
3.6950000000000003
 21
-9.175000762939453
 31
0.0
  0
LINE
  5
F7
330
17
100
AcDbEntity
  8
A-WALL
100
AcDbLine
 10
4.115000000000002
 20
-10.275000762939452
 30
0.0
 11
3.275000000000002
 21
-10.275000762939452
 31
0.0
  0
LINE
  5
F8
330
17
100
AcDbEntity
  8
A-WALL
100
AcDbLine
 10
3.3150000000000013
 20
-9.915000762939453
 30
0.0
 11
2.6950000000000003
 21
-9.915000762939453
 31
0.0
  0
LINE
  5
F9
330
17
100
AcDbEntity
  8
A-WALL
100
AcDbLine
 10
1.2950000000000017
 20
-10.035000762939452
 30
0.0
 11
0.875
 21
-10.035000762939452
 31
0.0
  0
LINE
  5
FA
330
17
100
AcDbEntity
  8
A-WALL
100
AcDbLine
 10
-6.984999999999999
 20
-10.275000762939452
 30
0.0
 11
-7.484999999999999
 21
-10.275000762939452
 31
0.0
  0
LINE
  5
FB
330
17
100
AcDbEntity
  8
A-WALL
100
AcDbLine
 10
-14.924999999999999
 20
-9.175000762939453
 30
0.0
 11
-14.785
 21
-8.515000762939453
 31
0.0
  0
LINE
  5
FC
330
17
100
AcDbEntity
  8
A-WALL
100
AcDbLine
 10
-14.785
 20
-7.035000762939452
 30
0.0
 11
-14.785
 21
-8.735000762939453
 31
0.0
  0
LINE
  5
FD
330
17
100
AcDbEntity
  8
A-WALL
100
AcDbLine
 10
-9.584999999999999
 20
-8.635000762939454
 30
0.0
 11
-9.584999999999999
 21
-9.435000762939453
 31
0.0
  0
LINE
  5
FE
330
17
100
AcDbEntity
  8
A-WALL
100
AcDbLine
 10
-7.425000000000001
 20
-8.875000762939452
 30
0.0
 11
-7.425000000000001
 21
-9.435000762939453
 31
0.0
  0
LINE
  5
FF
330
17
100
AcDbEntity
  8
A-WALL
100
AcDbLine
 10
-7.425000000000001
 20
-9.315000762939453
 30
0.0
 11
-7.024999999999999
 21
-9.635000762939454
 31
0.0
  0
LINE
  5
100
330
17
100
AcDbEntity
  8
A-WALL
100
AcDbLine
 10
-21.785
 20
-18.955000762939452
 30
0.0
 11
-21.785
 21
-16.575000762939453
 31
0.0
  0
LINE
  5
101
330
17
100
AcDbEntity
  8
A-WALL
100
AcDbLine
 10
-21.725
 20
-16.135000762939452
 30
0.0
 11
-21.725
 21
-12.535000762939452
 31
0.0
  0
LINE
  5
102
330
17
100
AcDbEntity
  8
A-WALL
100
AcDbLine
 10
-21.625
 20
-12.495000762939453
 30
0.0
 11
-18.025
 21
-12.495000762939453
 31
0.0
  0
LINE
  5
103
330
17
100
AcDbEntity
  8
A-WALL
100
AcDbLine
 10
-17.945
 20
-18.895000762939453
 30
0.0
 11
-17.945
 21
-12.535000762939452
 31
0.0
  0
LINE
  5
104
330
17
100
AcDbEntity
  8
A-WALL
100
AcDbLine
 10
-17.884999999999998
 20
-18.935000762939453
 30
0.0
 11
-21.765
 21
-18.935000762939453
 31
0.0
  0
LINE
  5
105
330
17
100
AcDbEntity
  8
A-WALL
100
AcDbLine
 10
-10.025
 20
-22.575000762939453
 30
0.0
 11
-11.025
 21
-22.575000762939453
 31
0.0
  0
LINE
  5
106
330
17
100
AcDbEntity
  8
A-WALL
100
AcDbLine
 10
-11.045
 20
-22.47500076293945
 30
0.0
 11
-11.584999999999999
 21
-22.47500076293945
 31
0.0
  0
LINE
  5
107
330
17
100
AcDbEntity
  8
A-WALL
100
AcDbLine
 10
-11.805
 20
-22.215000762939454
 30
0.0
 11
-14.225
 21
-22.215000762939454
 31
0.0
  0
LINE
  5
108
330
17
100
AcDbEntity
  8
A-WALL
100
AcDbLine
 10
-14.584999999999999
 20
-22.055000762939454
 30
0.0
 11
-15.225
 21
-22.055000762939454
 31
0.0
  0
LINE
  5
109
330
17
100
AcDbEntity
  8
A-WALL
100
AcDbLine
 10
-15.245
 20
-21.97500076293945
 30
0.0
 11
-16.285
 21
-21.97500076293945
 31
0.0
  0
LINE
  5
10A
330
17
100
AcDbEntity
  8
A-WALL
100
AcDbLine
 10
-16.305
 20
-21.955000762939452
 30
0.0
 11
-16.305
 21
-21.135000762939452
 31
0.0
  0
LINE
  5
10B
330
17
100
AcDbEntity
  8
A-WALL
100
AcDbLine
 10
-16.305
 20
-21.135000762939452
 30
0.0
 11
-16.845
 21
-21.135000762939452
 31
0.0
  0
LINE
  5
10C
330
17
100
AcDbEntity
  8
A-WALL
100
AcDbLine
 10
-17.025
 20
-21.295000762939452
 30
0.0
 11
-17.025
 21
-21.895000762939453
 31
0.0
  0
LINE
  5
10D
330
17
100
AcDbEntity
  8
A-WALL
100
AcDbLine
 10
-17.025
 20
-21.81500076293945
 30
0.0
 11
-19.765
 21
-21.81500076293945
 31
0.0
  0
LINE
  5
10E
330
17
100
AcDbEntity
  8
A-WALL
100
AcDbLine
 10
-22.825
 20
-20.47500076293945
 30
0.0
 11
-22.825
 21
-19.395000762939453
 31
0.0
  0
LINE
  5
10F
330
17
100
AcDbEntity
  8
A-WALL
100
AcDbLine
 10
-22.825
 20
-19.455000762939452
 30
0.0
 11
-17.125
 21
-19.455000762939452
 31
0.0
  0
LINE
  5
110
330
17
100
AcDbEntity
  8
A-WALL
100
AcDbLine
 10
-17.105
 20
-19.455000762939452
 30
0.0
 11
-17.105
 21
-19.855000762939454
 31
0.0
  0
LINE
  5
111
330
17
100
AcDbEntity
  8
A-WALL
100
AcDbLine
 10
-16.845
 20
-19.955000762939452
 30
0.0
 11
-16.305
 21
-19.955000762939452
 31
0.0
  0
LINE
  5
112
330
17
100
AcDbEntity
  8
A-WALL
100
AcDbLine
 10
-16.305
 20
-19.955000762939452
 30
0.0
 11
-16.305
 21
-19.395000762939453
 31
0.0
  0
LINE
  5
113
330
17
100
AcDbEntity
  8
A-WALL
100
AcDbLine
 10
-16.005
 20
-19.31500076293945
 30
0.0
 11
-16.005
 21
-18.875000762939454
 31
0.0
  0
LINE
  5
114
330
17
100
AcDbEntity
  8
A-WALL
100
AcDbLine
 10
-16.305
 20
-18.83500076293945
 30
0.0
 11
-16.305
 21
-15.455000762939452
 31
0.0
  0
LINE
  5
115
330
17
100
AcDbEntity
  8
A-WALL
100
AcDbLine
 10
-14.985
 20
-15.235000762939453
 30
0.0
 11
-14.985
 21
-14.735000762939453
 31
0.0
  0
LINE
  5
116
330
17
100
AcDbEntity
  8
A-WALL
100
AcDbLine
 10
-16.285
 20
-14.735000762939453
 30
0.0
 11
-16.285
 21
-10.835000762939453
 31
0.0
  0
LINE
  5
117
330
17
100
AcDbEntity
  8
A-WALL
100
AcDbLine
 10
-15.945
 20
-10.695000762939452
 30
0.0
 11
-11.285
 21
-10.695000762939452
 31
0.0
  0
LINE
  5
118
330
17
100
AcDbEntity
  8
A-WALL
100
AcDbLine
 10
-11.225
 20
-10.775000762939452
 30
0.0
 11
-11.225
 21
-14.675000762939453
 31
0.0
  0
LINE
  5
119
330
17
100
AcDbEntity
  8
A-WALL
100
AcDbLine
 10
-13.084999999999999
 20
-15.375000762939454
 30
0.0
 11
-12.325
 21
-15.375000762939454
 31
0.0
  0
LINE
  5
11A
330
17
100
AcDbEntity
  8
A-WALL
100
AcDbLine
 10
-12.305
 20
-15.395000762939453
 30
0.0
 11
-12.305
 21
-15.955000762939452
 31
0.0
  0
LINE
  5
11B
330
17
100
AcDbEntity
  8
A-WALL
100
AcDbLine
 10
-12.125
 20
-15.555000762939454
 30
0.0
 11
-11.225
 21
-15.555000762939454
 31
0.0
  0
LINE
  5
11C
330
17
100
AcDbEntity
  8
A-WALL
100
AcDbLine
 10
-11.225
 20
-15.555000762939454
 30
0.0
 11
-11.225
 21
-16.795000762939452
 31
0.0
  0
LINE
  5
11D
330
17
100
AcDbEntity
  8
A-WALL
100
AcDbLine
 10
-12.285
 20
-17.055000762939454
 30
0.0
 11
-13.084999999999999
 21
-17.055000762939454
 31
0.0
  0
LINE
  5
11E
330
17
100
AcDbEntity
  8
A-WALL
100
AcDbLine
 10
-11.225
 20
-17.235000762939453
 30
0.0
 11
-11.225
 21
-18.715000762939454
 31
0.0
  0
LINE
  5
11F
330
17
100
AcDbEntity
  8
A-WALL
100
AcDbLine
 10
-11.225
 20
-18.715000762939454
 30
0.0
 11
-12.084999999999999
 21
-18.715000762939454
 31
0.0
  0
LINE
  5
120
330
17
100
AcDbEntity
  8
A-WALL
100
AcDbLine
 10
-10.025
 20
-19.395000762939453
 30
0.0
 11
-10.025
 21
-20.97500076293945
 31
0.0
  0
LINE
  5
121
330
17
100
AcDbEntity
  8
A-WALL
100
AcDbLine
 10
-9.584999999999999
 20
-21.775000762939452
 30
0.0
 11
-9.584999999999999
 21
-22.295000762939452
 31
0.0
  0
LINE
  5
122
330
17
100
AcDbEntity
  8
A-DOOR
100
AcDbLine
 10
4.655
 20
7.985
 30
0.0
 11
4.655
 21
8.885
 31
0.0
  0
ARC
  5
123
330
17
100
AcDbEntity
  8
A-DOOR
100
AcDbCircle
 10
4.655
 20
7.985
 30
0.0
 40
0.9
100
AcDbArc
 50
90.0
 51
180.0
  0
LINE
  5
124
330
17
100
AcDbEntity
  8
A-DOOR
100
AcDbLine
 10
-15.665
 20
-0.155
 30
0.0
 11
-15.665
 21
3.2449999999999988
 31
0.0
  0
ARC
  5
125
330
17
100
AcDbEntity
  8
A-DOOR
100
AcDbCircle
 10
-15.665
 20
-0.155
 30
0.0
 40
3.4
100
AcDbArc
 50
90.0
 51
180.0
  0
LINE
  5
126
330
17
100
AcDbEntity
  8
A-DOOR
100
AcDbLine
 10
-15.705
 20
4.225
 30
0.0
 11
-15.705
 21
3.224999999999999
 31
0.0
  0
ARC
  5
127
330
17
100
AcDbEntity
  8
A-DOOR
100
AcDbCircle
 10
-15.705
 20
4.225
 30
0.0
 40
1.0
100
AcDbArc
 50
-90.0
 51
0.0
  0
LINE
  5
128
330
17
100
AcDbEntity
  8
A-DOOR
100
AcDbLine
 10
-16.865
 20
2.105
 30
0.0
 11
-15.864999999999998
 21
2.105
 31
0.0
  0
ARC
  5
129
330
17
100
AcDbEntity
  8
A-DOOR
100
AcDbCircle
 10
-16.865
 20
2.105
 30
0.0
 40
1.0
100
AcDbArc
 50
0.0
 51
90.0
  0
LINE
  5
12A
330
17
100
AcDbEntity
  8
A-DOOR
100
AcDbLine
 10
-17.445
 20
6.745
 30
0.0
 11
-17.445
 21
4.4449999999999985
 31
0.0
  0
ARC
  5
12B
330
17
100
AcDbEntity
  8
A-DOOR
100
AcDbCircle
 10
-17.445
 20
6.745
 30
0.0
 40
2.3
100
AcDbArc
 50
-90.0
 51
0.0
  0
LINE
  5
12C
330
17
100
AcDbEntity
  8
A-DOOR
100
AcDbLine
 10
-17.445
 20
9.945
 30
0.0
 11
-17.445
 21
8.795
 31
0.0
  0
ARC
  5
12D
330
17
100
AcDbEntity
  8
A-DOOR
100
AcDbCircle
 10
-17.445
 20
9.945
 30
0.0
 40
1.15
100
AcDbArc
 50
-90.0
 51
0.0
  0
LINE
  5
12E
330
17
100
AcDbEntity
  8
A-DOOR
100
AcDbLine
 10
-17.445
 20
11.415
 30
0.0
 11
-17.445
 21
13.614999999999998
 31
0.0
  0
ARC
  5
12F
330
17
100
AcDbEntity
  8
A-DOOR
100
AcDbCircle
 10
-17.445
 20
11.415
 30
0.0
 40
2.2
100
AcDbArc
 50
90.0
 51
180.0
  0
LINE
  5
130
330
17
100
AcDbEntity
  8
A-DOOR
100
AcDbLine
 10
-11.525
 20
13.325
 30
0.0
 11
-15.825
 21
13.325
 31
0.0
  0
ARC
  5
131
330
17
100
AcDbEntity
  8
A-DOOR
100
AcDbCircle
 10
-11.525
 20
13.325
 30
0.0
 40
4.3
100
AcDbArc
 50
180.0
 51
270.0
  0
LINE
  5
132
330
17
100
AcDbEntity
  8
A-DOOR
100
AcDbLine
 10
-15.445
 20
-0.455
 30
0.0
 11
-13.795
 21
-0.455
 31
0.0
  0
ARC
  5
133
330
17
100
AcDbEntity
  8
A-DOOR
100
AcDbCircle
 10
-15.445
 20
-0.455
 30
0.0
 40
1.65
100
AcDbArc
 50
0.0
 51
90.0
  0
LINE
  5
134
330
17
100
AcDbEntity
  8
A-DOOR
100
AcDbLine
 10
-7.905
 20
-2.895
 30
0.0
 11
-9.755
 21
-2.895
 31
0.0
  0
ARC
  5
135
330
17
100
AcDbEntity
  8
A-DOOR
100
AcDbCircle
 10
-7.905
 20
-2.895
 30
0.0
 40
1.85
100
AcDbArc
 50
180.0
 51
270.0
  0
LINE
  5
136
330
17
100
AcDbEntity
  8
A-DOOR
100
AcDbLine
 10
-9.905
 20
-2.815
 30
0.0
 11
-10.755
 21
-2.815
 31
0.0
  0
ARC
  5
137
330
17
100
AcDbEntity
  8
A-DOOR
100
AcDbCircle
 10
-9.905
 20
-2.815
 30
0.0
 40
0.85
100
AcDbArc
 50
180.0
 51
270.0
  0
LINE
  5
138
330
17
100
AcDbEntity
  8
A-DOOR
100
AcDbLine
 10
-15.965
 20
-1.895
 30
0.0
 11
-16.765
 21
-1.895
 31
0.0
  0
ARC
  5
139
330
17
100
AcDbEntity
  8
A-DOOR
100
AcDbCircle
 10
-15.965
 20
-1.895
 30
0.0
 40
0.8
100
AcDbArc
 50
180.0
 51
270.0
  0
LINE
  5
13A
330
17
100
AcDbEntity
  8
A-DOOR
100
AcDbLine
 10
-16.905
 20
-0.175
 30
0.0
 11
-16.905
 21
-1.675
 31
0.0
  0
ARC
  5
13B
330
17
100
AcDbEntity
  8
A-DOOR
100
AcDbCircle
 10
-16.905
 20
-0.175
 30
0.0
 40
1.5
100
AcDbArc
 50
-90.0
 51
0.0
  0
LINE
  5
13C
330
17
100
AcDbEntity
  8
A-DOOR
100
AcDbLine
 10
-22.125
 20
-6.355
 30
0.0
 11
-23.275000000000002
 21
-6.355
 31
0.0
  0
ARC
  5
13D
330
17
100
AcDbEntity
  8
A-DOOR
100
AcDbCircle
 10
-22.125
 20
-6.355
 30
0.0
 40
1.15
100
AcDbArc
 50
180.0
 51
270.0
  0
LINE
  5
13E
330
17
100
AcDbEntity
  8
A-DOOR
100
AcDbLine
 10
-12.105
 20
-6.675
 30
0.0
 11
-14.705
 21
-6.675
 31
0.0
  0
ARC
  5
13F
330
17
100
AcDbEntity
  8
A-DOOR
100
AcDbCircle
 10
-12.105
 20
-6.675
 30
0.0
 40
2.6
100
AcDbArc
 50
180.0
 51
270.0
  0
LINE
  5
140
330
17
100
AcDbEntity
  8
A-DOOR
100
AcDbLine
 10
-9.745
 20
-6.815
 30
0.0
 11
-12.395
 21
-6.815
 31
0.0
  0
ARC
  5
141
330
17
100
AcDbEntity
  8
A-DOOR
100
AcDbCircle
 10
-9.745
 20
-6.815
 30
0.0
 40
2.65
100
AcDbArc
 50
180.0
 51
270.0
  0
LINE
  5
142
330
17
100
AcDbEntity
  8
A-DOOR
100
AcDbLine
 10
-22.925
 20
-6.815
 30
0.0
 11
-21.474999999999998
 21
-6.815
 31
0.0
  0
ARC
  5
143
330
17
100
AcDbEntity
  8
A-DOOR
100
AcDbCircle
 10
-22.925
 20
-6.815
 30
0.0
 40
1.45
100
AcDbArc
 50
0.0
 51
90.0
  0
LINE
  5
144
330
17
100
AcDbEntity
  8
A-DOOR
100
AcDbLine
 10
-18.365
 20
-7.635
 30
0.0
 11
-18.365
 21
-8.684999999999999
 31
0.0
  0
ARC
  5
145
330
17
100
AcDbEntity
  8
A-DOOR
100
AcDbCircle
 10
-18.365
 20
-7.635
 30
0.0
 40
1.05
100
AcDbArc
 50
-90.0
 51
0.0
  0
LINE
  5
146
330
17
100
AcDbEntity
  8
A-DOOR
100
AcDbLine
 10
-12.825
 20
-7.195
 30
0.0
 11
-12.825
 21
-9.495000000000001
 31
0.0
  0
ARC
  5
147
330
17
100
AcDbEntity
  8
A-DOOR
100
AcDbCircle
 10
-12.825
 20
-7.195
 30
0.0
 40
2.3
100
AcDbArc
 50
-90.0
 51
0.0
  0
LINE
  5
148
330
17
100
AcDbEntity
  8
A-DOOR
100
AcDbLine
 10
-13.945
 20
-7.015
 30
0.0
 11
-13.945
 21
-9.115
 31
0.0
  0
ARC
  5
149
330
17
100
AcDbEntity
  8
A-DOOR
100
AcDbCircle
 10
-13.945
 20
-7.015
 30
0.0
 40
2.1
100
AcDbArc
 50
-90.0
 51
0.0
  0
LINE
  5
14A
330
17
100
AcDbEntity
  8
A-DOOR
100
AcDbLine
 10
-10.865
 20
-9.275
 30
0.0
 11
-10.865
 21
-7.025
 31
0.0
  0
ARC
  5
14B
330
17
100
AcDbEntity
  8
A-DOOR
100
AcDbCircle
 10
-10.865
 20
-9.275
 30
0.0
 40
2.25
100
AcDbArc
 50
90.0
 51
180.0
  0
LINE
  5
14C
330
17
100
AcDbEntity
  8
A-DOOR
100
AcDbLine
 10
-11.545
 20
-9.175
 30
0.0
 11
-11.545
 21
-7.425000000000001
 31
0.0
  0
ARC
  5
14D
330
17
100
AcDbEntity
  8
A-DOOR
100
AcDbCircle
 10
-11.545
 20
-9.175
 30
0.0
 40
1.75
100
AcDbArc
 50
90.0
 51
180.0
  0
LINE
  5
14E
330
17
100
AcDbEntity
  8
A-DOOR
100
AcDbLine
 10
-22.705
 20
-9.055
 30
0.0
 11
-22.705
 21
-8.205
 31
0.0
  0
ARC
  5
14F
330
17
100
AcDbEntity
  8
A-DOOR
100
AcDbCircle
 10
-22.705
 20
-9.055
 30
0.0
 40
0.85
100
AcDbArc
 50
90.0
 51
180.0
  0
LINE
  5
150
330
17
100
AcDbEntity
  8
A-DOOR
100
AcDbLine
 10
-20.285
 20
-9.675
 30
0.0
 11
-22.884999999999998
 21
-9.675
 31
0.0
  0
ARC
  5
151
330
17
100
AcDbEntity
  8
A-DOOR
100
AcDbCircle
 10
-20.285
 20
-9.675
 30
0.0
 40
2.6
100
AcDbArc
 50
180.0
 51
270.0
  0
LINE
  5
152
330
17
100
AcDbEntity
  8
A-DOOR
100
AcDbLine
 10
5.155
 20
-6.295
 30
0.0
 11
0.3550000000000022
 21
-6.295
 31
0.0
  0
ARC
  5
153
330
17
100
AcDbEntity
  8
A-DOOR
100
AcDbCircle
 10
5.155
 20
-6.295
 30
0.0
 40
4.8
100
AcDbArc
 50
180.0
 51
270.0
  0
LINE
  5
154
330
17
100
AcDbEntity
  8
A-DOOR
100
AcDbLine
 10
4.795
 20
7.595
 30
0.0
 11
4.795
 21
9.545
 31
0.0
  0
ARC
  5
155
330
17
100
AcDbEntity
  8
A-DOOR
100
AcDbCircle
 10
4.795
 20
7.595
 30
0.0
 40
1.95
100
AcDbArc
 50
90.0
 51
180.0
  0
LINE
  5
156
330
17
100
AcDbEntity
  8
A-DOOR
100
AcDbLine
 10
2.705
 20
16.425
 30
0.0
 11
4.404999999999999
 21
16.425
 31
0.0
  0
ARC
  5
157
330
17
100
AcDbEntity
  8
A-DOOR
100
AcDbCircle
 10
2.705
 20
16.425
 30
0.0
 40
1.7
100
AcDbArc
 50
0.0
 51
90.0
  0
LINE
  5
158
330
17
100
AcDbEntity
  8
A-DOOR
100
AcDbLine
 10
4.935
 20
-9.455
 30
0.0
 11
4.935
 21
-6.454999999999999
 31
0.0
  0
ARC
  5
159
330
17
100
AcDbEntity
  8
A-DOOR
100
AcDbCircle
 10
4.935
 20
-9.455
 30
0.0
 40
3.0
100
AcDbArc
 50
90.0
 51
180.0
  0
LINE
  5
15A
330
17
100
AcDbEntity
  8
A-DOOR
100
AcDbLine
 10
4.245
 20
-9.535
 30
0.0
 11
5.195
 21
-9.535
 31
0.0
  0
ARC
  5
15B
330
17
100
AcDbEntity
  8
A-DOOR
100
AcDbCircle
 10
4.245
 20
-9.535
 30
0.0
 40
0.95
100
AcDbArc
 50
0.0
 51
90.0
  0
LINE
  5
15C
330
17
100
AcDbEntity
  8
A-DOOR
100
AcDbLine
 10
-8.655
 20
-9.755
 30
0.0
 11
-10.305
 21
-9.755
 31
0.0
  0
ARC
  5
15D
330
17
100
AcDbEntity
  8
A-DOOR
100
AcDbCircle
 10
-8.655
 20
-9.755
 30
0.0
 40
1.65
100
AcDbArc
 50
180.0
 51
270.0
  0
LINE
  5
15E
330
17
100
AcDbEntity
  8
A-DOOR
100
AcDbLine
 10
-10.545
 20
-9.695
 30
0.0
 11
-14.895
 21
-9.695
 31
0.0
  0
ARC
  5
15F
330
17
100
AcDbEntity
  8
A-DOOR
100
AcDbCircle
 10
-10.545
 20
-9.695
 30
0.0
 40
4.35
100
AcDbArc
 50
180.0
 51
270.0
  0
LINE
  5
160
330
17
100
AcDbEntity
  8
A-DOOR
100
AcDbLine
 10
-16.365
 20
-15.095
 30
0.0
 11
-15.014999999999997
 21
-15.095
 31
0.0
  0
ARC
  5
161
330
17
100
AcDbEntity
  8
A-DOOR
100
AcDbCircle
 10
-16.365
 20
-15.095
 30
0.0
 40
1.35
100
AcDbArc
 50
0.0
 51
90.0
  0
LINE
  5
162
330
17
100
AcDbEntity
  8
A-DOOR
100
AcDbLine
 10
-11.225
 20
-15.035
 30
0.0
 11
-13.025
 21
-15.035
 31
0.0
  0
ARC
  5
163
330
17
100
AcDbEntity
  8
A-DOOR
100
AcDbCircle
 10
-11.225
 20
-15.035
 30
0.0
 40
1.8
100
AcDbArc
 50
180.0
 51
270.0
  0
LINE
  5
164
330
17
100
AcDbEntity
  8
A-DOOR
100
AcDbLine
 10
-14.775
 20
-19.135
 30
0.0
 11
-13.825000000000001
 21
-19.135
 31
0.0
  0
ARC
  5
165
330
17
100
AcDbEntity
  8
A-DOOR
100
AcDbCircle
 10
-14.775
 20
-19.135
 30
0.0
 40
0.95
100
AcDbArc
 50
0.0
 51
90.0
  0
LINE
  5
166
330
17
100
AcDbEntity
  8
A-DOOR
100
AcDbLine
 10
-11.525
 20
-19.135
 30
0.0
 11
-10.025
 21
-19.135
 31
0.0
  0
ARC
  5
167
330
17
100
AcDbEntity
  8
A-DOOR
100
AcDbCircle
 10
-11.525
 20
-19.135
 30
0.0
 40
1.5
100
AcDbArc
 50
0.0
 51
90.0
  0
LINE
  5
168
330
17
100
AcDbEntity
  8
A-DOOR
100
AcDbLine
 10
-15.765
 20
3.705
 30
0.0
 11
-17.015
 21
3.705
 31
0.0
  0
ARC
  5
169
330
17
100
AcDbEntity
  8
A-DOOR
100
AcDbCircle
 10
-15.765
 20
3.705
 30
0.0
 40
1.25
100
AcDbArc
 50
180.0
 51
270.0
  0
LINE
  5
16A
330
17
100
AcDbEntity
  8
A-DOOR
100
AcDbLine
 10
-17.105
 20
-0.135
 30
0.0
 11
-17.105
 21
4.464999999999998
 31
0.0
  0
ARC
  5
16B
330
17
100
AcDbEntity
  8
A-DOOR
100
AcDbCircle
 10
-17.105
 20
-0.135
 30
0.0
 40
4.6
100
AcDbArc
 50
90.0
 51
180.0
  0
LINE
  5
16C
330
17
100
AcDbEntity
  8
A-DOOR
100
AcDbLine
 10
-17.105
 20
1.925
 30
0.0
 11
-17.105
 21
1.0749999999999993
 31
0.0
  0
ARC
  5
16D
330
17
100
AcDbEntity
  8
A-DOOR
100
AcDbCircle
 10
-17.105
 20
1.925
 30
0.0
 40
0.85
100
AcDbArc
 50
-90.0
 51
0.0
  0
LINE
  5
16E
330
17
100
AcDbEntity
  8
A-DOOR
100
AcDbLine
 10
-10.585
 20
-1.835
 30
0.0
 11
-9.785
 21
-1.835
 31
0.0
  0
ARC
  5
16F
330
17
100
AcDbEntity
  8
A-DOOR
100
AcDbCircle
 10
-10.585
 20
-1.835
 30
0.0
 40
0.8
100
AcDbArc
 50
0.0
 51
90.0
  0
LINE
  5
170
330
17
100
AcDbEntity
  8
A-DOOR
100
AcDbLine
 10
-8.485
 20
-1.935
 30
0.0
 11
-9.785
 21
-1.935
 31
0.0
  0
ARC
  5
171
330
17
100
AcDbEntity
  8
A-DOOR
100
AcDbCircle
 10
-8.485
 20
-1.935
 30
0.0
 40
1.3
100
AcDbArc
 50
180.0
 51
270.0
  0
LINE
  5
172
330
17
100
AcDbEntity
  8
A-DOOR
100
AcDbLine
 10
-7.385
 20
-2.575
 30
0.0
 11
-7.385
 21
-3.2750000000000004
 31
0.0
  0
ARC
  5
173
330
17
100
AcDbEntity
  8
A-DOOR
100
AcDbCircle
 10
-7.385
 20
-2.575
 30
0.0
 40
0.7
100
AcDbArc
 50
-90.0
 51
0.0
  0
LINE
  5
174
330
17
100
AcDbEntity
  8
A-DOOR
100
AcDbLine
 10
-17.005
 20
-3.935
 30
0.0
 11
-17.005
 21
-3.084999999999999
 31
0.0
  0
ARC
  5
175
330
17
100
AcDbEntity
  8
A-DOOR
100
AcDbCircle
 10
-17.005
 20
-3.935
 30
0.0
 40
0.85
100
AcDbArc
 50
90.0
 51
180.0
  0
LINE
  5
176
330
17
100
AcDbEntity
  8
A-DOOR
100
AcDbLine
 10
-23.325
 20
-3.575
 30
0.0
 11
-22.174999999999997
 21
-3.575
 31
0.0
  0
ARC
  5
177
330
17
100
AcDbEntity
  8
A-DOOR
100
AcDbCircle
 10
-23.325
 20
-3.575
 30
0.0
 40
1.15
100
AcDbArc
 50
0.0
 51
90.0
  0
LINE
  5
178
330
17
100
AcDbEntity
  8
A-DOOR
100
AcDbLine
 10
-22.265
 20
-3.995
 30
0.0
 11
-22.265
 21
-5.445000000000002
 31
0.0
  0
ARC
  5
179
330
17
100
AcDbEntity
  8
A-DOOR
100
AcDbCircle
 10
-22.265
 20
-3.995
 30
0.0
 40
1.45
100
AcDbArc
 50
-90.0
 51
0.0
  0
LINE
  5
17A
330
17
100
AcDbEntity
  8
A-DOOR
100
AcDbLine
 10
-11.125
 20
-5.375
 30
0.0
 11
-11.125
 21
-6.675
 31
0.0
  0
ARC
  5
17B
330
17
100
AcDbEntity
  8
A-DOOR
100
AcDbCircle
 10
-11.125
 20
-5.375
 30
0.0
 40
1.3
100
AcDbArc
 50
-90.0
 51
0.0
  0
LINE
  5
17C
330
17
100
AcDbEntity
  8
A-DOOR
100
AcDbLine
 10
-11.605
 20
-5.715
 30
0.0
 11
-12.405
 21
-5.715
 31
0.0
  0
ARC
  5
17D
330
17
100
AcDbEntity
  8
A-DOOR
100
AcDbCircle
 10
-11.605
 20
-5.715
 30
0.0
 40
0.8
100
AcDbArc
 50
180.0
 51
270.0
  0
LINE
  5
17E
330
17
100
AcDbEntity
  8
A-DOOR
100
AcDbLine
 10
-18.165
 20
-7.115
 30
0.0
 11
-19.54371107892831
 21
-6.871698044895004
 31
0.0
  0
ARC
  5
17F
330
17
100
AcDbEntity
  8
A-DOOR
100
AcDbCircle
 10
-18.165
 20
-7.115
 30
0.0
 40
1.4
100
AcDbArc
 50
169.99202019855866
 51
259.99202019855863
  0
LINE
  5
180
330
17
100
AcDbEntity
  8
A-DOOR
100
AcDbLine
 10
-13.665
 20
-9.075
 30
0.0
 11
-13.665
 21
-8.224999999999998
 31
0.0
  0
ARC
  5
181
330
17
100
AcDbEntity
  8
A-DOOR
100
AcDbCircle
 10
-13.665
 20
-9.075
 30
0.0
 40
0.85
100
AcDbArc
 50
90.0
 51
180.0
  0
LINE
  5
182
330
17
100
AcDbEntity
  8
A-DOOR
100
AcDbLine
 10
-22.925
 20
-7.175
 30
0.0
 11
-23.625
 21
-7.175
 31
0.0
  0
ARC
  5
183
330
17
100
AcDbEntity
  8
A-DOOR
100
AcDbCircle
 10
-22.925
 20
-7.175
 30
0.0
 40
0.7
100
AcDbArc
 50
180.0
 51
270.0
  0
LINE
  5
184
330
17
100
AcDbEntity
  8
A-DOOR
100
AcDbLine
 10
-23.485
 20
-7.975
 30
0.0
 11
-23.485
 21
-7.124999999999999
 31
0.0
  0
ARC
  5
185
330
17
100
AcDbEntity
  8
A-DOOR
100
AcDbCircle
 10
-23.485
 20
-7.975
 30
0.0
 40
0.85
100
AcDbArc
 50
90.0
 51
180.0
  0
LINE
  5
186
330
17
100
AcDbEntity
  8
A-DOOR
100
AcDbLine
 10
-20.965
 20
-6.855
 30
0.0
 11
-19.665
 21
-6.855
 31
0.0
  0
ARC
  5
187
330
17
100
AcDbEntity
  8
A-DOOR
100
AcDbCircle
 10
-20.965
 20
-6.855
 30
0.0
 40
1.3
100
AcDbArc
 50
0.0
 51
90.0
  0
LINE
  5
188
330
17
100
AcDbEntity
  8
A-DOOR
100
AcDbLine
 10
4.535
 20
16.305
 30
0.0
 11
5.385000000000001
 21
16.305
 31
0.0
  0
ARC
  5
189
330
17
100
AcDbEntity
  8
A-DOOR
100
AcDbCircle
 10
4.535
 20
16.305
 30
0.0
 40
0.85
100
AcDbArc
 50
0.0
 51
90.0
  0
LINE
  5
18A
330
17
100
AcDbEntity
  8
A-DOOR
100
AcDbLine
 10
7.225
 20
16.505
 30
0.0
 11
8.525
 21
16.505
 31
0.0
  0
ARC
  5
18B
330
17
100
AcDbEntity
  8
A-DOOR
100
AcDbCircle
 10
7.225
 20
16.505
 30
0.0
 40
1.3
100
AcDbArc
 50
0.0
 51
90.0
  0
LINE
  5
18C
330
17
100
AcDbEntity
  8
A-DOOR
100
AcDbLine
 10
18.725
 20
-9.535
 30
0.0
 11
18.025000000000002
 21
-9.535
 31
0.0
  0
ARC
  5
18D
330
17
100
AcDbEntity
  8
A-DOOR
100
AcDbCircle
 10
18.725
 20
-9.535
 30
0.0
 40
0.7
100
AcDbArc
 50
180.0
 51
270.0
  0
LINE
  5
18E
330
17
100
AcDbEntity
  8
A-DOOR
100
AcDbLine
 10
16.575
 20
-9.535
 30
0.0
 11
15.725
 21
-9.535
 31
0.0
  0
ARC
  5
18F
330
17
100
AcDbEntity
  8
A-DOOR
100
AcDbCircle
 10
16.575
 20
-9.535
 30
0.0
 40
0.85
100
AcDbArc
 50
180.0
 51
270.0
  0
LINE
  5
190
330
17
100
AcDbEntity
  8
A-DOOR
100
AcDbLine
 10
9.635
 20
-9.715
 30
0.0
 11
7.434999999999999
 21
-9.715
 31
0.0
  0
ARC
  5
191
330
17
100
AcDbEntity
  8
A-DOOR
100
AcDbCircle
 10
9.635
 20
-9.715
 30
0.0
 40
2.2
100
AcDbArc
 50
180.0
 51
270.0
  0
LINE
  5
192
330
17
100
AcDbEntity
  8
A-DOOR
100
AcDbLine
 10
8.315
 20
-9.455
 30
0.0
 11
5.164999999999997
 21
-9.455
 31
0.0
  0
ARC
  5
193
330
17
100
AcDbEntity
  8
A-DOOR
100
AcDbCircle
 10
8.315
 20
-9.455
 30
0.0
 40
3.15
100
AcDbArc
 50
180.0
 51
270.0
  0
LINE
  5
194
330
17
100
AcDbEntity
  8
A-DOOR
100
AcDbLine
 10
7.125
 20
-6.475
 30
0.0
 11
8.075000000000001
 21
-6.475
 31
0.0
  0
ARC
  5
195
330
17
100
AcDbEntity
  8
A-DOOR
100
AcDbCircle
 10
7.125
 20
-6.475
 30
0.0
 40
0.95
100
AcDbArc
 50
0.0
 51
90.0
  0
LINE
  5
196
330
17
100
AcDbEntity
  8
A-DOOR
100
AcDbLine
 10
3.495
 20
-6.675
 30
0.0
 11
4.545
 21
-6.675
 31
0.0
  0
ARC
  5
197
330
17
100
AcDbEntity
  8
A-DOOR
100
AcDbCircle
 10
3.495
 20
-6.675
 30
0.0
 40
1.05
100
AcDbArc
 50
0.0
 51
90.0
  0
LINE
  5
198
330
17
100
AcDbEntity
  8
A-DOOR
100
AcDbLine
 10
4.395
 20
-7.235
 30
0.0
 11
4.395
 21
-8.085
 31
0.0
  0
ARC
  5
199
330
17
100
AcDbEntity
  8
A-DOOR
100
AcDbCircle
 10
4.395
 20
-7.235
 30
0.0
 40
0.85
100
AcDbArc
 50
-90.0
 51
0.0
  0
LINE
  5
19A
330
17
100
AcDbEntity
  8
A-DOOR
100
AcDbLine
 10
4.715
 20
-9.175
 30
0.0
 11
3.665
 21
-9.175
 31
0.0
  0
ARC
  5
19B
330
17
100
AcDbEntity
  8
A-DOOR
100
AcDbCircle
 10
4.715
 20
-9.175
 30
0.0
 40
1.05
100
AcDbArc
 50
180.0
 51
270.0
  0
LINE
  5
19C
330
17
100
AcDbEntity
  8
A-DOOR
100
AcDbLine
 10
-14.925
 20
-9.175
 30
0.0
 11
-14.77975025937454
 21
-8.490251222765675
 31
0.0
  0
ARC
  5
19D
330
17
100
AcDbEntity
  8
A-DOOR
100
AcDbCircle
 10
-14.925
 20
-9.175
 30
0.0
 40
0.7
100
AcDbArc
 50
78.02386755579674
 51
168.02386755579676
  0
LINE
  5
19E
330
17
100
AcDbEntity
  8
A-DOOR
100
AcDbLine
 10
-14.785
 20
-7.035
 30
0.0
 11
-14.785
 21
-8.785000000000002
 31
0.0
  0
ARC
  5
19F
330
17
100
AcDbEntity
  8
A-DOOR
100
AcDbCircle
 10
-14.785
 20
-7.035
 30
0.0
 40
1.75
100
AcDbArc
 50
-90.0
 51
0.0
  0
LINE
  5
1A0
330
17
100
AcDbEntity
  8
A-DOOR
100
AcDbLine
 10
-10.025
 20
-22.575
 30
0.0
 11
-11.025
 21
-22.575
 31
0.0
  0
ARC
  5
1A1
330
17
100
AcDbEntity
  8
A-DOOR
100
AcDbCircle
 10
-10.025
 20
-22.575
 30
0.0
 40
1.0
100
AcDbArc
 50
180.0
 51
270.0
  0
LINE
  5
1A2
330
17
100
AcDbEntity
  8
A-DOOR
100
AcDbLine
 10
-16.305
 20
-18.185
 30
0.0
 11
-16.305
 21
-17.485
 31
0.0
  0
ARC
  5
1A3
330
17
100
AcDbEntity
  8
A-DOOR
100
AcDbCircle
 10
-16.305
 20
-18.185
 30
0.0
 40
0.7
100
AcDbArc
 50
90.0
 51
180.0
  0
LINE
  5
1A4
330
17
100
AcDbEntity
  8
A-DOOR
100
AcDbLine
 10
-16.305
 20
-16.635
 30
0.0
 11
-16.305
 21
-15.935000000000002
 31
0.0
  0
ARC
  5
1A5
330
17
100
AcDbEntity
  8
A-DOOR
100
AcDbCircle
 10
-16.305
 20
-16.635
 30
0.0
 40
0.7
100
AcDbArc
 50
90.0
 51
180.0
  0
LINE
  5
1A6
330
17
100
AcDbEntity
  8
A-DOOR
100
AcDbLine
 10
-16.285
 20
-13.485
 30
0.0
 11
-16.285
 21
-11.235
 31
0.0
  0
ARC
  5
1A7
330
17
100
AcDbEntity
  8
A-DOOR
100
AcDbCircle
 10
-16.285
 20
-13.485
 30
0.0
 40
2.25
100
AcDbArc
 50
90.0
 51
180.0
  0
LINE
  5
1A8
330
17
100
AcDbEntity
  8
A-WINDOW
100
AcDbLine
 10
5.245
 20
-9.585
 30
0.0
 11
7.194999999999999
 21
-9.585
 31
0.0
  0
LINE
  5
1A9
330
17
100
AcDbEntity
  8
A-WINDOW
100
AcDbLine
 10
5.245
 20
-9.485
 30
0.0
 11
7.194999999999999
 21
-9.485
 31
0.0
  0
LINE
  5
1AA
330
17
100
AcDbEntity
  8
A-WINDOW
100
AcDbLine
 10
20.325
 20
11.245
 30
0.0
 11
20.325
 21
10.345
 31
0.0
  0
LINE
  5
1AB
330
17
100
AcDbEntity
  8
A-WINDOW
100
AcDbLine
 10
20.425
 20
11.245
 30
0.0
 11
20.425
 21
10.345
 31
0.0
  0
LINE
  5
1AC
330
17
100
AcDbEntity
  8
A-WINDOW
100
AcDbLine
 10
20.325
 20
9.695
 30
0.0
 11
20.325
 21
5.844999999999999
 31
0.0
  0
LINE
  5
1AD
330
17
100
AcDbEntity
  8
A-WINDOW
100
AcDbLine
 10
20.425
 20
9.695
 30
0.0
 11
20.425
 21
5.844999999999999
 31
0.0
  0
LINE
  5
1AE
330
17
100
AcDbEntity
  8
A-WINDOW
100
AcDbLine
 10
20.245
 20
1.645
 30
0.0
 11
20.245
 21
0.09500000000000008
 31
0.0
  0
LINE
  5
1AF
330
17
100
AcDbEntity
  8
A-WINDOW
100
AcDbLine
 10
20.345000000000002
 20
1.645
 30
0.0
 11
20.345000000000002
 21
0.09500000000000008
 31
0.0
  0
LINE
  5
1B0
330
17
100
AcDbEntity
  8
A-WINDOW
100
AcDbLine
 10
20.245
 20
-0.705
 30
0.0
 11
20.245
 21
-1.2049999999999998
 31
0.0
  0
LINE
  5
1B1
330
17
100
AcDbEntity
  8
A-WINDOW
100
AcDbLine
 10
20.345000000000002
 20
-0.705
 30
0.0
 11
20.345000000000002
 21
-1.2049999999999998
 31
0.0
  0
LINE
  5
1B2
330
17
100
AcDbEntity
  8
A-WINDOW
100
AcDbLine
 10
20.245
 20
-7.105
 30
0.0
 11
20.245
 21
-8.155
 31
0.0
  0
LINE
  5
1B3
330
17
100
AcDbEntity
  8
A-WINDOW
100
AcDbLine
 10
20.345000000000002
 20
-7.105
 30
0.0
 11
20.345000000000002
 21
-8.155
 31
0.0
  0
LWPOLYLINE
  5
1B4
330
17
100
AcDbEntity
  8
A-ROOM
100
AcDbPolyline
 90
4
 70
1
 10
-22.585
 20
4.705
 10
-17.665
 20
4.705
 10
-17.665
 20
12.345
 10
-22.585
 20
12.345
  0
TEXT
  5
1B5
330
17
100
AcDbEntity
  8
A-TEXT
100
AcDbText
 10
-20.1516
 20
8.5506
 30
0.0
 40
0.25
  1
R1  35.0 m²
 72
1
 11
-20.1516
 21
8.5506
 31
0.0
100
AcDbText
 73
2
  0
LWPOLYLINE
  5
1B6
330
17
100
AcDbEntity
  8
A-ROOM
100
AcDbPolyline
 90
4
 70
1
 10
-22.945
 20
13.545
 10
-11.925
 20
13.545
 10
-11.925
 20
16.105
 10
-22.945
 20
16.105
  0
TEXT
  5
1B7
330
17
100
AcDbEntity
  8
A-TEXT
100
AcDbText
 10
-17.4579
 20
14.8812
 30
0.0
 40
0.25
  1
R2  24.6 m²
 72
1
 11
-17.4579
 21
14.8812
 31
0.0
100
AcDbText
 73
2
  0
LWPOLYLINE
  5
1B8
330
17
100
AcDbEntity
  8
A-ROOM
100
AcDbPolyline
 90
4
 70
1
 10
-21.545
 20
-18.715
 10
-18.165
 20
-18.715
 10
-18.165
 20
-12.735
 10
-21.545
 20
-12.735
  0
TEXT
  5
1B9
330
17
100
AcDbEntity
  8
A-TEXT
100
AcDbText
 10
-19.8454
 20
-15.7271
 30
0.0
 40
0.25
  1
R3  20.0 m²
 72
1
 11
-19.8454
 21
-15.7271
 31
0.0
100
AcDbText
 73
2
  0
LWPOLYLINE
  5
1BA
330
17
100
AcDbEntity
  8
A-ROOM
100
AcDbPolyline
 90
4
 70
1
 10
-16.045
 20
-14.875
 10
-11.445
 20
-14.875
 10
-11.445
 20
-10.935
 10
-16.045
 20
-10.935
  0
TEXT
  5
1BB
330
17
100
AcDbEntity
  8
A-TEXT
100
AcDbText
 10
-13.7417
 20
-12.8437
 30
0.0
 40
0.25
  1
R4  17.6 m²
 72
1
 11
-13.7417
 21
-12.8437
 31
0.0
100
AcDbText
 73
2
  0
LWPOLYLINE
  5
1BC
330
17
100
AcDbEntity
  8
A-ROOM
100
AcDbPolyline
 90
4
 70
1
 10
-16.065
 20
-22.355
 10
-9.805
 20
-22.355
 10
-9.805
 20
-19.375
 10
-16.065
 20
-19.375
  0
TEXT
  5
1BD
330
17
100
AcDbEntity
  8
A-TEXT
100
AcDbText
 10
-12.8717
 20
-20.7051
 30
0.0
 40
0.25
  1
R5  14.7 m²
 72
1
 11
-12.8717
 21
-20.7051
 31
0.0
100
AcDbText
 73
2
  0
LWPOLYLINE
  5
1BE
330
17
100
AcDbEntity
  8
A-ROOM
100
AcDbPolyline
 90
4
 70
1
 10
0.735
 20
-9.315
 10
4.175
 20
-9.315
 10
4.175
 20
-6.535
 10
0.735
 20
-6.535
  0
TEXT
  5
1BF
330
17
100
AcDbEntity
  8
A-TEXT
100
AcDbText
 10
2.3308
 20
-7.9282
 30
0.0
 40
0.25
  1
R6  8.7 m²
 72
1
 11
2.3308
 21
-7.9282
 31
0.0
100
AcDbText
 73
2
  0
LWPOLYLINE
  5
1C0
330
17
100
AcDbEntity
  8
A-ROOM
100
AcDbPolyline
 90
4
 70
1
 10
-16.065
 20
-18.915
 10
-13.685
 20
-18.915
 10
-13.685
 20
-15.275
 10
-16.065
 20
-15.275
  0
TEXT
  5
1C1
330
17
100
AcDbEntity
  8
A-TEXT
100
AcDbText
 10
-14.8888
 20
-17.1194
 30
0.0
 40
0.25
  1
R7  7.8 m²
 72
1
 11
-14.8888
 21
-17.1194
 31
0.0
100
AcDbText
 73
2
  0
LWPOLYLINE
  5
1C2
330
17
100
AcDbEntity
  8
A-ROOM
100
AcDbPolyline
 90
4
 70
1
 10
-15.145
 20
7.965
 10
-12.105
 20
7.965
 10
-12.105
 20
10.045
 10
-15.145
 20
10.045
  0
TEXT
  5
1C3
330
17
100
AcDbEntity
  8
A-TEXT
100
AcDbText
 10
-13.6721
 20
9.0192
 30
0.0
 40
0.25
  1
R8  6.2 m²
 72
1
 11
-13.6721
 21
9.0192
 31
0.0
100
AcDbText
 73
2
  0
LWPOLYLINE
  5
1C4
330
17
100
AcDbEntity
  8
A-ROOM
100
AcDbPolyline
 90
4
 70
1
 10
-19.325
 20
-21.595
 10
-17.285
 20
-21.595
 10
-17.285
 20
-19.695
 10
-19.325
 20
-19.695
  0
TEXT
  5
1C5
330
17
100
AcDbEntity
  8
A-TEXT
100
AcDbText
 10
-18.3656
 20
-20.6221
 30
0.0
 40
0.25
  1
R9  3.6 m²
 72
1
 11
-18.3656
 21
-20.6221
 31
0.0
100
AcDbText
 73
2
  0
LWPOLYLINE
  5
1C6
330
17
100
AcDbEntity
  8
A-ROOM
100
AcDbPolyline
 90
4
 70
1
 10
-16.865
 20
-1.635
 10
-15.805
 20
-1.635
 10
-15.805
 20
1.865
 10
-16.865
 20
1.865
  0
TEXT
  5
1C7
330
17
100
AcDbEntity
  8
A-TEXT
100
AcDbText
 10
-16.3276
 20
0.213
 30
0.0
 40
0.25
  1
R10  3.0 m²
 72
1
 11
-16.3276
 21
0.213
 31
0.0
100
AcDbText
 73
2
  0
LWPOLYLINE
  5
1C8
330
17
100
AcDbEntity
  8
A-ROOM
100
AcDbPolyline
 90
4
 70
1
 10
-24.105
 20
-6.215
 10
-22.485
 20
-6.215
 10
-22.485
 20
-3.815
 10
-24.105
 20
-3.815
  0
TEXT
  5
1C9
330
17
100
AcDbEntity
  8
A-TEXT
100
AcDbText
 10
-23.1178
 20
-5.1913
 30
0.0
 40
0.25
  1
R11  2.4 m²
 72
1
 11
-23.1178
 21
-5.1913
 31
0.0
100
AcDbText
 73
2
  0
LWPOLYLINE
  5
1CA
330
17
100
AcDbEntity
  8
A-ROOM
100
AcDbPolyline
 90
4
 70
1
 10
-12.585
 20
-9.475
 10
-11.765
 20
-9.475
 10
-11.765
 20
-7.055
 10
-12.585
 20
-7.055
  0
TEXT
  5
1CB
330
17
100
AcDbEntity
  8
A-TEXT
100
AcDbText
 10
-12.185
 20
-8.255
 30
0.0
 40
0.25
  1
R12  2.0 m²
 72
1
 11
-12.185
 21
-8.255
 31
0.0
100
AcDbText
 73
2
  0
LWPOLYLINE
  5
1CC
330
17
100
AcDbEntity
  8
A-ROOM
100
AcDbPolyline
 90
4
 70
1
 10
-13.225
 20
-18.715
 10
-12.365
 20
-18.715
 10
-12.365
 20
-17.335
 10
-13.225
 20
-17.335
  0
TEXT
  5
1CD
330
17
100
AcDbEntity
  8
A-TEXT
100
AcDbText
 10
-12.8214
 20
-17.9789
 30
0.0
 40
0.25
  1
R13  1.1 m²
 72
1
 11
-12.8214
 21
-17.9789
 31
0.0
100
AcDbText
 73
2
  0
LWPOLYLINE
  5
1CE
330
17
100
AcDbEntity
  8
A-ROOM
100
AcDbPolyline
 90
4
 70
1
 10
-24.105
 20
-9.415
 10
-23.325
 20
-9.415
 10
-23.325
 20
-7.415
 10
-24.105
 20
-7.415
  0
TEXT
  5
1CF
330
17
100
AcDbEntity
  8
A-TEXT
100
AcDbText
 10
-23.8187
 20
-8.5529
 30
0.0
 40
0.25
  1
R14  1.1 m²
 72
1
 11
-23.8187
 21
-8.5529
 31
0.0
100
AcDbText
 73
2
  0
TEXT
  5
1D0
330
17
100
AcDbEntity
  8
A-TEXT
100
AcDbText
 10
-23.625
 20
-24.575000762939453
 30
0.0
 40
0.4
  1
Floor 0  —  237 walls  ·  67 doors  ·  6 windows
 11
-23.625
 21
-24.575000762939453
 31
0.0
100
AcDbText
  0
ENDSEC
  0
SECTION
  2
OBJECTS
  0
DICTIONARY
  5
A
330
0
100
AcDbDictionary
281
1
  3
ACAD_COLOR
350
B
  3
ACAD_GROUP
350
C
  3
ACAD_LAYOUT
350
D
  3
ACAD_MATERIAL
350
E
  3
ACAD_MLEADERSTYLE
350
F
  3
ACAD_MLINESTYLE
350
10
  3
ACAD_PLOTSETTINGS
350
11
  3
ACAD_PLOTSTYLENAME
350
12
  3
ACAD_SCALELIST
350
14
  3
ACAD_TABLESTYLE
350
15
  3
ACAD_VISUALSTYLE
350
16
  3
EZDXF_META
350
2D
  0
DICTIONARY
  5
B
330
A
100
AcDbDictionary
281
1
  0
DICTIONARY
  5
C
330
A
100
AcDbDictionary
281
1
  0
DICTIONARY
  5
D
330
A
100
AcDbDictionary
281
1
  3
Model
350
1A
  3
Layout1
350
1E
  0
DICTIONARY
  5
E
330
A
100
AcDbDictionary
281
1
  3
ByBlock
350
1F
  3
ByLayer
350
20
  3
Global
350
21
  0
DICTIONARY
  5
F
330
A
100
AcDbDictionary
281
1
  3
Standard
350
2C
  0
DICTIONARY
  5
10
330
A
100
AcDbDictionary
281
1
  3
Standard
350
22
  0
DICTIONARY
  5
11
330
A
100
AcDbDictionary
281
1
  0
ACDBDICTIONARYWDFLT
  5
12
330
A
100
AcDbDictionary
281
1
  3
Normal
350
13
100
AcDbDictionaryWithDefault
340
13
  0
ACDBPLACEHOLDER
  5
13
330
12
  0
DICTIONARY
  5
14
330
A
100
AcDbDictionary
281
1
  0
DICTIONARY
  5
15
330
A
100
AcDbDictionary
281
1
  0
DICTIONARY
  5
16
330
A
100
AcDbDictionary
281
1
  0
LAYOUT
  5
1A
330
D
100
AcDbPlotSettings
  1

  4
A3
  6

 40
7.5
 41
20.0
 42
7.5
 43
20.0
 44
420.0
 45
297.0
 46
0.0
 47
0.0
 48
0.0
 49
0.0
140
0.0
141
0.0
142
1.0
143
1.0
 70
1024
 72
1
 73
0
 74
5
  7

 75
16
 76
0
 77
2
 78
300
147
1.0
148
0.0
149
0.0
100
AcDbLayout
  1
Model
 70
1
 71
0
 10
0.0
 20
0.0
 11
420.0
 21
297.0
 12
0.0
 22
0.0
 32
0.0
 14
1e+20
 24
1e+20
 34
1e+20
 15
-1e+20
 25
-1e+20
 35
-1e+20
146
0.0
 13
0.0
 23
0.0
 33
0.0
 16
1.0
 26
0.0
 36
0.0
 17
0.0
 27
1.0
 37
0.0
 76
1
330
17
  0
LAYOUT
  5
1E
330
D
100
AcDbPlotSettings
  1

  4
A3
  6

 40
7.5
 41
20.0
 42
7.5
 43
20.0
 44
420.0
 45
297.0
 46
0.0
 47
0.0
 48
0.0
 49
0.0
140
0.0
141
0.0
142
1.0
143
1.0
 70
0
 72
1
 73
0
 74
5
  7

 75
16
 76
0
 77
2
 78
300
147
1.0
148
0.0
149
0.0
100
AcDbLayout
  1
Layout1
 70
1
 71
1
 10
0.0
 20
0.0
 11
420.0
 21
297.0
 12
0.0
 22
0.0
 32
0.0
 14
1e+20
 24
1e+20
 34
1e+20
 15
-1e+20
 25
-1e+20
 35
-1e+20
146
0.0
 13
0.0
 23
0.0
 33
0.0
 16
1.0
 26
0.0
 36
0.0
 17
0.0
 27
1.0
 37
0.0
 76
1
330
1B
  0
MATERIAL
  5
1F
102
{ACAD_REACTORS
330
E
102
}
330
E
100
AcDbMaterial
  1
ByBlock
  2

 70
0
 40
1.0
 71
1
 41
1.0
 91
-1023410177
 42
1.0
 72
1
  3

 73
1
 74
1
 75
1
 44
0.5
 73
0
 45
1.0
 46
1.0
 77
1
  4

 78
1
 79
1
170
1
 48
1.0
171
1
  6

172
1
173
1
174
1
140
1.0
141
1.0
175
1
  7

176
1
177
1
178
1
143
1.0
179
1
  8

270
1
271
1
272
1
145
1.0
146
1.0
273
1
  9

274
1
275
1
276
1
 42
1.0
 72
1
  3

 73
1
 74
1
 75
1
 94
63
  0
MATERIAL
  5
20
102
{ACAD_REACTORS
330
E
102
}
330
E
100
AcDbMaterial
  1
ByLayer
  2

 70
0
 40
1.0
 71
1
 41
1.0
 91
-1023410177
 42
1.0
 72
1
  3

 73
1
 74
1
 75
1
 44
0.5
 73
0
 45
1.0
 46
1.0
 77
1
  4

 78
1
 79
1
170
1
 48
1.0
171
1
  6

172
1
173
1
174
1
140
1.0
141
1.0
175
1
  7

176
1
177
1
178
1
143
1.0
179
1
  8

270
1
271
1
272
1
145
1.0
146
1.0
273
1
  9

274
1
275
1
276
1
 42
1.0
 72
1
  3

 73
1
 74
1
 75
1
 94
63
  0
MATERIAL
  5
21
102
{ACAD_REACTORS
330
E
102
}
330
E
100
AcDbMaterial
  1
Global
  2

 70
0
 40
1.0
 71
1
 41
1.0
 91
-1023410177
 42
1.0
 72
1
  3

 73
1
 74
1
 75
1
 44
0.5
 73
0
 45
1.0
 46
1.0
 77
1
  4

 78
1
 79
1
170
1
 48
1.0
171
1
  6

172
1
173
1
174
1
140
1.0
141
1.0
175
1
  7

176
1
177
1
178
1
143
1.0
179
1
  8

270
1
271
1
272
1
145
1.0
146
1.0
273
1
  9

274
1
275
1
276
1
 42
1.0
 72
1
  3

 73
1
 74
1
 75
1
 94
63
  0
MLINESTYLE
  5
22
102
{ACAD_REACTORS
330
10
102
}
330
10
100
AcDbMlineStyle
  2
Standard
 70
0
  3

 62
256
 51
90.0
 52
90.0
 71
2
 49
0.5
 62
256
  6
BYLAYER
 49
-0.5
 62
256
  6
BYLAYER
  0
MLEADERSTYLE
  5
2C
102
{ACAD_REACTORS
330
F
102
}
330
F
100
AcDbMLeaderStyle
179
2
170
2
171
1
172
0
 90
2
 40
0.0
 41
0.0
173
1
 91
-1056964608
 92
-2
290
1
 42
2.0
291
1
 43
8.0
  3
Standard
 44
4.0
300

342
29
174
1
175
1
176
0
178
1
 93
-1056964608
 45
4.0
292
0
297
0
 46
4.0
 94
-1056964608
 47
1.0
 49
1.0
140
1.0
294
1
141
0.0
177
0
142
1.0
295
0
296
0
143
3.75
271
0
272
9
273
9
  0
DICTIONARY
  5
2D
330
A
100
AcDbDictionary
280
1
281
1
  3
CREATED_BY_EZDXF
350
2E
  3
WRITTEN_BY_EZDXF
350
1D3
  0
DICTIONARYVAR
  5
2E
330
2D
100
DictionaryVariables
280
0
  1
1.4.3 @ 2026-06-05T08:23:00.843539+00:00
  0
DICTIONARYVAR
  5
1D3
330
2D
100
DictionaryVariables
280
0
  1
1.4.3 @ 2026-06-05T08:23:00.877382+00:00
  0
ENDSEC
  0
EOF
