  0
SECTION
  2
HEADER
  9
$ACADVER
  1
AC1024
  9
$ACADMAINTVER
 70
6
  9
$DWGCODEPAGE
  3
ANSI_1252
  9
$LASTSAVEDBY
  1
ezdxf
  9
$INSBASE
 10
0.0
 20
0.0
 30
0.0
  9
$EXTMIN
 10
1e+20
 20
1e+20
 30
1e+20
  9
$EXTMAX
 10
-1e+20
 20
-1e+20
 30
-1e+20
  9
$LIMMIN
 10
0.0
 20
0.0
  9
$LIMMAX
 10
420.0
 20
297.0
  9
$ORTHOMODE
 70
0
  9
$REGENMODE
 70
1
  9
$FILLMODE
 70
1
  9
$QTEXTMODE
 70
0
  9
$MIRRTEXT
 70
1
  9
$LTSCALE
 40
1.0
  9
$ATTMODE
 70
1
  9
$TEXTSIZE
 40
2.5
  9
$TRACEWID
 40
1.0
  9
$TEXTSTYLE
  7
Standard
  9
$CLAYER
  8
0
  9
$CELTYPE
  6
ByLayer
  9
$CECOLOR
 62
256
  9
$CELTSCALE
 40
1.0
  9
$DISPSILH
 70
0
  9
$DIMSCALE
 40
1.0
  9
$DIMASZ
 40
2.5
  9
$DIMEXO
 40
0.625
  9
$DIMDLI
 40
3.75
  9
$DIMRND
 40
0.0
  9
$DIMDLE
 40
0.0
  9
$DIMEXE
 40
1.25
  9
$DIMTP
 40
0.0
  9
$DIMTM
 40
0.0
  9
$DIMTXT
 40
2.5
  9
$DIMCEN
 40
2.5
  9
$DIMTSZ
 40
0.0
  9
$DIMTOL
 70
0
  9
$DIMLIM
 70
0
  9
$DIMTIH
 70
0
  9
$DIMTOH
 70
0
  9
$DIMSE1
 70
0
  9
$DIMSE2
 70
0
  9
$DIMTAD
 70
1
  9
$DIMZIN
 70
8
  9
$DIMBLK
  1

  9
$DIMASO
 70
1
  9
$DIMSHO
 70
1
  9
$DIMPOST
  1

  9
$DIMAPOST
  1

  9
$DIMALT
 70
0
  9
$DIMALTD
 70
3
  9
$DIMALTF
 40
0.03937007874
  9
$DIMLFAC
 40
1.0
  9
$DIMTOFL
 70
1
  9
$DIMTVP
 40
0.0
  9
$DIMTIX
 70
0
  9
$DIMSOXD
 70
0
  9
$DIMSAH
 70
0
  9
$DIMBLK1
  1

  9
$DIMBLK2
  1

  9
$DIMSTYLE
  2
ISO-25
  9
$DIMCLRD
 70
0
  9
$DIMCLRE
 70
0
  9
$DIMCLRT
 70
0
  9
$DIMTFAC
 40
1.0
  9
$DIMGAP
 40
0.625
  9
$DIMJUST
 70
0
  9
$DIMSD1
 70
0
  9
$DIMSD2
 70
0
  9
$DIMTOLJ
 70
0
  9
$DIMTZIN
 70
8
  9
$DIMALTZ
 70
0
  9
$DIMALTTZ
 70
0
  9
$DIMUPT
 70
0
  9
$DIMDEC
 70
2
  9
$DIMTDEC
 70
2
  9
$DIMALTU
 70
2
  9
$DIMALTTD
 70
3
  9
$DIMTXSTY
  7
Standard
  9
$DIMAUNIT
 70
0
  9
$DIMADEC
 70
0
  9
$DIMALTRND
 40
0.0
  9
$DIMAZIN
 70
0
  9
$DIMDSEP
 70
44
  9
$DIMATFIT
 70
3
  9
$DIMFRAC
 70
0
  9
$DIMLDRBLK
  1

  9
$DIMLUNIT
 70
2
  9
$DIMLWD
 70
-2
  9
$DIMLWE
 70
-2
  9
$DIMTMOVE
 70
0
  9
$DIMFXL
 40
1.0
  9
$DIMFXLON
 70
0
  9
$DIMJOGANG
 40
0.785398163397
  9
$DIMTFILL
 70
0
  9
$DIMTFILLCLR
 70
0
  9
$DIMARCSYM
 70
0
  9
$DIMLTYPE
  6

  9
$DIMLTEX1
  6

  9
$DIMLTEX2
  6

  9
$DIMTXTDIRECTION
 70
0
  9
$LUNITS
 70
2
  9
$LUPREC
 70
4
  9
$SKETCHINC
 40
1.0
  9
$FILLETRAD
 40
10.0
  9
$AUNITS
 70
0
  9
$AUPREC
 70
2
  9
$MENU
  1
.
  9
$ELEVATION
 40
0.0
  9
$PELEVATION
 40
0.0
  9
$THICKNESS
 40
0.0
  9
$LIMCHECK
 70
0
  9
$CHAMFERA
 40
0.0
  9
$CHAMFERB
 40
0.0
  9
$CHAMFERC
 40
0.0
  9
$CHAMFERD
 40
0.0
  9
$SKPOLY
 70
0
  9
$TDCREATE
 40
2461131.6113078706
  9
$TDUCREATE
 40
2458532.153996898
  9
$TDUPDATE
 40
2461131.6113078706
  9
$TDUUPDATE
 40
2458532.1544311
  9
$TDINDWG
 40
0.0
  9
$TDUSRTIMER
 40
0.0
  9
$USRTIMER
 70
1
  9
$ANGBASE
 50
0.0
  9
$ANGDIR
 70
0
  9
$PDMODE
 70
0
  9
$PDSIZE
 40
0.0
  9
$PLINEWID
 40
0.0
  9
$SPLFRAME
 70
0
  9
$SPLINETYPE
 70
6
  9
$SPLINESEGS
 70
8
  9
$HANDSEED
  5
1AD
  9
$SURFTAB1
 70
6
  9
$SURFTAB2
 70
6
  9
$SURFTYPE
 70
6
  9
$SURFU
 70
6
  9
$SURFV
 70
6
  9
$UCSBASE
  2

  9
$UCSNAME
  2

  9
$UCSORG
 10
0.0
 20
0.0
 30
0.0
  9
$UCSXDIR
 10
1.0
 20
0.0
 30
0.0
  9
$UCSYDIR
 10
0.0
 20
1.0
 30
0.0
  9
$UCSORTHOREF
  2

  9
$UCSORTHOVIEW
 70
0
  9
$UCSORGTOP
 10
0.0
 20
0.0
 30
0.0
  9
$UCSORGBOTTOM
 10
0.0
 20
0.0
 30
0.0
  9
$UCSORGLEFT
 10
0.0
 20
0.0
 30
0.0
  9
$UCSORGRIGHT
 10
0.0
 20
0.0
 30
0.0
  9
$UCSORGFRONT
 10
0.0
 20
0.0
 30
0.0
  9
$UCSORGBACK
 10
0.0
 20
0.0
 30
0.0
  9
$PUCSBASE
  2

  9
$PUCSNAME
  2

  9
$PUCSORG
 10
0.0
 20
0.0
 30
0.0
  9
$PUCSXDIR
 10
1.0
 20
0.0
 30
0.0
  9
$PUCSYDIR
 10
0.0
 20
1.0
 30
0.0
  9
$PUCSORTHOREF
  2

  9
$PUCSORTHOVIEW
 70
0
  9
$PUCSORGTOP
 10
0.0
 20
0.0
 30
0.0
  9
$PUCSORGBOTTOM
 10
0.0
 20
0.0
 30
0.0
  9
$PUCSORGLEFT
 10
0.0
 20
0.0
 30
0.0
  9
$PUCSORGRIGHT
 10
0.0
 20
0.0
 30
0.0
  9
$PUCSORGFRONT
 10
0.0
 20
0.0
 30
0.0
  9
$PUCSORGBACK
 10
0.0
 20
0.0
 30
0.0
  9
$USERI1
 70
0
  9
$USERI2
 70
0
  9
$USERI3
 70
0
  9
$USERI4
 70
0
  9
$USERI5
 70
0
  9
$USERR1
 40
0.0
  9
$USERR2
 40
0.0
  9
$USERR3
 40
0.0
  9
$USERR4
 40
0.0
  9
$USERR5
 40
0.0
  9
$WORLDVIEW
 70
1
  9
$SHADEDGE
 70
3
  9
$SHADEDIF
 70
70
  9
$TILEMODE
 70
1
  9
$MAXACTVP
 70
64
  9
$PINSBASE
 10
0.0
 20
0.0
 30
0.0
  9
$PLIMCHECK
 70
0
  9
$PEXTMIN
 10
1e+20
 20
1e+20
 30
1e+20
  9
$PEXTMAX
 10
-1e+20
 20
-1e+20
 30
-1e+20
  9
$PLIMMIN
 10
0.0
 20
0.0
  9
$PLIMMAX
 10
420.0
 20
297.0
  9
$UNITMODE
 70
0
  9
$VISRETAIN
 70
1
  9
$PLINEGEN
 70
0
  9
$PSLTSCALE
 70
1
  9
$TREEDEPTH
 70
3020
  9
$CMLSTYLE
  2
Standard
  9
$CMLJUST
 70
0
  9
$CMLSCALE
 40
20.0
  9
$PROXYGRAPHICS
 70
1
  9
$MEASUREMENT
 70
1
  9
$CELWEIGHT
370
-1
  9
$ENDCAPS
280
0
  9
$JOINSTYLE
280
0
  9
$LWDISPLAY
290
0
  9
$INSUNITS
 70
6
  9
$HYPERLINKBASE
  1

  9
$STYLESHEET
  1

  9
$XEDIT
290
1
  9
$CEPSNTYPE
380
0
  9
$PSTYLEMODE
290
1
  9
$FINGERPRINTGUID
  2
{8F21025E-F5F0-4BBC-9098-A4078E1229A4}
  9
$VERSIONGUID
  2
{E455FFD3-4385-4911-A609-C5FA799FE472}
  9
$EXTNAMES
290
1
  9
$PSVPSCALE
 40
0.0
  9
$OLESTARTUP
290
0
  9
$SORTENTS
280
127
  9
$INDEXCTL
280
0
  9
$HIDETEXT
280
1
  9
$XCLIPFRAME
280
1
  9
$HALOGAP
280
0
  9
$OBSCOLOR
 70
257
  9
$OBSLTYPE
280
0
  9
$INTERSECTIONDISPLAY
280
0
  9
$INTERSECTIONCOLOR
 70
257
  9
$DIMASSOC
280
2
  9
$PROJECTNAME
  1

  9
$CAMERADISPLAY
290
0
  9
$LENSLENGTH
 40
50.0
  9
$CAMERAHEIGHT
 40
0.0
  9
$STEPSPERSEC
 40
24.0
  9
$STEPSIZE
 40
100.0
  9
$3DDWFPREC
 40
2.0
  9
$PSOLWIDTH
 40
0.005
  9
$PSOLHEIGHT
 40
0.08
  9
$LOFTANG1
 40
1.570796326795
  9
$LOFTANG2
 40
1.570796326795
  9
$LOFTMAG1
 40
0.0
  9
$LOFTMAG2
 40
0.0
  9
$LOFTPARAM
 70
7
  9
$LOFTNORMALS
280
1
  9
$LATITUDE
 40
37.795
  9
$LONGITUDE
 40
-122.394
  9
$NORTHDIRECTION
 40
0.0
  9
$TIMEZONE
 70
-8000
  9
$LIGHTGLYPHDISPLAY
280
1
  9
$TILEMODELIGHTSYNCH
280
1
  9
$CMATERIAL
347
20
  9
$SOLIDHIST
280
0
  9
$SHOWHIST
280
1
  9
$DWFFRAME
280
2
  9
$DGNFRAME
280
2
  9
$REALWORLDSCALE
290
1
  9
$INTERFERECOLOR
 62
256
  9
$CSHADOW
280
0
  9
$SHADOWPLANELOCATION
 40
0.0
  0
ENDSEC
  0
SECTION
  2
CLASSES
  0
CLASS
  1
ACDBDICTIONARYWDFLT
  2
AcDbDictionaryWithDefault
  3
ObjectDBX Classes
 90
0
 91
0
280
0
281
0
  0
CLASS
  1
SUN
  2
AcDbSun
  3
SCENEOE
 90
1153
 91
0
280
0
281
0
  0
CLASS
  1
VISUALSTYLE
  2
AcDbVisualStyle
  3
ObjectDBX Classes
 90
4095
 91
0
280
0
281
0
  0
CLASS
  1
MATERIAL
  2
AcDbMaterial
  3
ObjectDBX Classes
 90
1153
 91
0
280
0
281
0
  0
CLASS
  1
SCALE
  2
AcDbScale
  3
ObjectDBX Classes
 90
1153
 91
0
280
0
281
0
  0
CLASS
  1
TABLESTYLE
  2
AcDbTableStyle
  3
ObjectDBX Classes
 90
4095
 91
0
280
0
281
0
  0
CLASS
  1
MLEADERSTYLE
  2
AcDbMLeaderStyle
  3
ACDB_MLEADERSTYLE_CLASS
 90
4095
 91
0
280
0
281
0
  0
CLASS
  1
DICTIONARYVAR
  2
AcDbDictionaryVar
  3
ObjectDBX Classes
 90
0
 91
0
280
0
281
0
  0
CLASS
  1
CELLSTYLEMAP
  2
AcDbCellStyleMap
  3
ObjectDBX Classes
 90
1152
 91
0
280
0
281
0
  0
CLASS
  1
MENTALRAYRENDERSETTINGS
  2
AcDbMentalRayRenderSettings
  3
SCENEOE
 90
1024
 91
0
280
0
281
0
  0
CLASS
  1
ACDBDETAILVIEWSTYLE
  2
AcDbDetailViewStyle
  3
ObjectDBX Classes
 90
1025
 91
0
280
0
281
0
  0
CLASS
  1
ACDBSECTIONVIEWSTYLE
  2
AcDbSectionViewStyle
  3
ObjectDBX Classes
 90
1025
 91
0
280
0
281
0
  0
CLASS
  1
RASTERVARIABLES
  2
AcDbRasterVariables
  3
ISM
 90
0
 91
0
280
0
281
0
  0
CLASS
  1
LAYOUT
  2
AcDbLayout
  3
ObjectDBX Classes
 90
0
 91
0
280
0
281
0
  0
CLASS
  1
ACDBPLACEHOLDER
  2
AcDbPlaceHolder
  3
ObjectDBX Classes
 90
0
 91
0
280
0
281
0
  0
ENDSEC
  0
SECTION
  2
TABLES
  0
TABLE
  2
VPORT
  5
8
330
0
100
AcDbSymbolTable
 70
1
  0
VPORT
  5
23
330
8
100
AcDbSymbolTableRecord
100
AcDbViewportTableRecord
  2
*Active
 70
0
 10
0.0
 20
0.0
 11
1.0
 21
1.0
 12
0.0
 22
0.0
 13
0.0
 23
0.0
 14
0.5
 24
0.5
 15
0.5
 25
0.5
 16
0.0
 26
0.0
 36
1.0
 17
0.0
 27
0.0
 37
0.0
 40
1000.0
 41
1.34
 42
50.0
 43
0.0
 44
0.0
 50
0.0
 51
0.0
 71
0
 72
1000
 73
1
 74
3
 75
0
 76
0
 77
0
 78
0
281
0
 65
0
146
0.0
  0
ENDTAB
  0
TABLE
  2
LTYPE
  5
2
330
0
100
AcDbSymbolTable
 70
3
  0
LTYPE
  5
24
330
2
100
AcDbSymbolTableRecord
100
AcDbLinetypeTableRecord
  2
ByBlock
 70
0
  3

 72
65
 73
0
 40
0.0
  0
LTYPE
  5
25
330
2
100
AcDbSymbolTableRecord
100
AcDbLinetypeTableRecord
  2
ByLayer
 70
0
  3

 72
65
 73
0
 40
0.0
  0
LTYPE
  5
26
330
2
100
AcDbSymbolTableRecord
100
AcDbLinetypeTableRecord
  2
Continuous
 70
0
  3

 72
65
 73
0
 40
0.0
  0
ENDTAB
  0
TABLE
  2
LAYER
  5
1
330
0
100
AcDbSymbolTable
 70
7
  0
LAYER
  5
27
330
1
100
AcDbSymbolTableRecord
100
AcDbLayerTableRecord
  2
0
 70
0
 62
7
  6
Continuous
370
-3
390
13
347
21
  0
LAYER
  5
28
330
1
100
AcDbSymbolTableRecord
100
AcDbLayerTableRecord
  2
Defpoints
 70
0
 62
7
  6
Continuous
290
0
370
-3
390
13
347
21
  0
LAYER
  5
2F
330
1
100
AcDbSymbolTableRecord
100
AcDbLayerTableRecord
  2
A-WALL
 70
0
 62
7
  6
Continuous
370
50
390
13
347
21
  0
LAYER
  5
30
330
1
100
AcDbSymbolTableRecord
100
AcDbLayerTableRecord
  2
A-DOOR
 70
0
 62
3
  6
Continuous
370
35
390
13
347
21
  0
LAYER
  5
31
330
1
100
AcDbSymbolTableRecord
100
AcDbLayerTableRecord
  2
A-WINDOW
 70
0
 62
4
  6
Continuous
370
25
390
13
347
21
  0
LAYER
  5
32
330
1
100
AcDbSymbolTableRecord
100
AcDbLayerTableRecord
  2
A-TEXT
 70
0
 62
2
  6
Continuous
370
-3
390
13
347
21
  0
LAYER
  5
33
330
1
100
AcDbSymbolTableRecord
100
AcDbLayerTableRecord
  2
A-GRID
 70
0
 62
8
  6
Continuous
370
13
390
13
347
21
  0
ENDTAB
  0
TABLE
  2
STYLE
  5
5
330
0
100
AcDbSymbolTable
 70
1
  0
STYLE
  5
29
330
5
100
AcDbSymbolTableRecord
100
AcDbTextStyleTableRecord
  2
Standard
 70
0
 40
0.0
 41
1.0
 50
0.0
 71
0
 42
2.5
  3
txt
  4

  0
ENDTAB
  0
TABLE
  2
VIEW
  5
7
330
0
100
AcDbSymbolTable
 70
0
  0
ENDTAB
  0
TABLE
  2
UCS
  5
6
330
0
100
AcDbSymbolTable
 70
0
  0
ENDTAB
  0
TABLE
  2
APPID
  5
3
330
0
100
AcDbSymbolTable
 70
3
  0
APPID
  5
2A
330
3
100
AcDbSymbolTableRecord
100
AcDbRegAppTableRecord
  2
ACAD
 70
0
  0
APPID
  5
1AA
330
3
100
AcDbSymbolTableRecord
100
AcDbRegAppTableRecord
  2
HATCHBACKGROUNDCOLOR
 70
0
  0
APPID
  5
1AB
330
3
100
AcDbSymbolTableRecord
100
AcDbRegAppTableRecord
  2
EZDXF
 70
0
  0
ENDTAB
  0
TABLE
  2
DIMSTYLE
  5
4
330
0
100
AcDbSymbolTable
 70
1
100
AcDbDimStyleTable
  0
DIMSTYLE
105
2B
330
4
100
AcDbSymbolTableRecord
100
AcDbDimStyleTableRecord
  2
Standard
 70
0
 40
1.0
 41
2.5
 42
0.625
 43
3.75
 44
1.25
 45
0.0
 46
0.0
 47
0.0
 48
0.0
 49
2.5
140
2.5
141
2.5
142
0.0
143
0.03937007874
144
1.0
145
0.0
146
1.0
147
0.625
148
0.0
 69
0
 70
0
 71
0
 72
0
 73
0
 74
0
 75
0
 76
0
 77
1
 78
8
 79
3
170
0
171
3
172
1
173
0
174
0
175
0
176
0
177
0
178
0
179
2
271
2
272
2
273
2
274
3
275
0
276
0
277
2
278
44
279
0
280
0
281
0
282
0
283
0
284
8
285
0
286
0
288
0
289
3
290
0
371
-2
372
-2
  0
ENDTAB
  0
TABLE
  2
BLOCK_RECORD
  5
9
330
0
100
AcDbSymbolTable
 70
2
  0
BLOCK_RECORD
  5
17
330
9
100
AcDbSymbolTableRecord
100
AcDbBlockTableRecord
  2
*Model_Space
340
1A
 70
0
280
1
281
0
  0
BLOCK_RECORD
  5
1B
330
9
100
AcDbSymbolTableRecord
100
AcDbBlockTableRecord
  2
*Paper_Space
340
1E
 70
0
280
1
281
0
  0
ENDTAB
  0
ENDSEC
  0
SECTION
  2
BLOCKS
  0
BLOCK
  5
18
330
17
100
AcDbEntity
  8
0
100
AcDbBlockBegin
  2
*Model_Space
 70
0
 10
0.0
 20
0.0
 30
0.0
  3
*Model_Space
  1

  0
ENDBLK
  5
19
330
17
100
AcDbEntity
  8
0
100
AcDbBlockEnd
  0
BLOCK
  5
1C
330
1B
100
AcDbEntity
  8
0
100
AcDbBlockBegin
  2
*Paper_Space
 70
0
 10
0.0
 20
0.0
 30
0.0
  3
*Paper_Space
  1

  0
ENDBLK
  5
1D
330
1B
100
AcDbEntity
  8
0
100
AcDbBlockEnd
  0
ENDSEC
  0
SECTION
  2
ENTITIES
  0
LINE
  5
34
330
17
100
AcDbEntity
  8
A-WALL
100
AcDbLine
 10
-16.537329864501952
 20
18.3837875366211
 30
0.0
 11
-12.287329864501952
 21
18.3837875366211
 31
0.0
  0
LINE
  5
35
330
17
100
AcDbEntity
  8
A-WALL
100
AcDbLine
 10
-28.937329864501955
 20
0.6837875366210966
 30
0.0
 11
-28.937329864501955
 21
3.333787536621095
 31
0.0
  0
LINE
  5
36
330
17
100
AcDbEntity
  8
A-WALL
100
AcDbLine
 10
18.912670135498047
 20
-7.616212463378904
 30
0.0
 11
26.61267013549805
 21
-7.616212463378904
 31
0.0
  0
LINE
  5
37
330
17
100
AcDbEntity
  8
A-WALL
100
AcDbLine
 10
-4.687329864501951
 20
5.033787536621098
 30
0.0
 11
-4.687329864501951
 21
11.8837875366211
 31
0.0
  0
LINE
  5
38
330
17
100
AcDbEntity
  8
A-WALL
100
AcDbLine
 10
26.662670135498047
 20
-2.5162124633789062
 30
0.0
 11
26.662670135498047
 21
4.183787536621097
 31
0.0
  0
LINE
  5
39
330
17
100
AcDbEntity
  8
A-WALL
100
AcDbLine
 10
17.61267013549805
 20
18.483787536621094
 30
0.0
 11
26.96267013549805
 21
18.483787536621094
 31
0.0
  0
LINE
  5
3A
330
17
100
AcDbEntity
  8
A-WALL
100
AcDbLine
 10
26.76267013549805
 20
13.8837875366211
 30
0.0
 11
26.76267013549805
 21
16.433787536621097
 31
0.0
  0
LINE
  5
3B
330
17
100
AcDbEntity
  8
A-WALL
100
AcDbLine
 10
-28.837329864501953
 20
-2.0162124633789062
 30
0.0
 11
-28.837329864501953
 21
0.13378753662109233
 31
0.0
  0
LINE
  5
3C
330
17
100
AcDbEntity
  8
A-WALL
100
AcDbLine
 10
-9.737329864501952
 20
-20.316212463378903
 30
0.0
 11
-4.287329864501949
 21
-20.316212463378903
 31
0.0
  0
LINE
  5
3D
330
17
100
AcDbEntity
  8
A-WALL
100
AcDbLine
 10
-10.737329864501952
 20
0.08378753662109517
 30
0.0
 11
-10.737329864501952
 21
2.6337875366210923
 31
0.0
  0
LINE
  5
3E
330
17
100
AcDbEntity
  8
A-WALL
100
AcDbLine
 10
-16.38732986450195
 20
-19.616212463378908
 30
0.0
 11
-10.587329864501953
 21
-19.616212463378908
 31
0.0
  0
LINE
  5
3F
330
17
100
AcDbEntity
  8
A-WALL
100
AcDbLine
 10
12.912670135498047
 20
-0.21621246337890554
 30
0.0
 11
16.51267013549805
 21
-0.21621246337890554
 31
0.0
  0
LINE
  5
40
330
17
100
AcDbEntity
  8
A-WALL
100
AcDbLine
 10
-17.13732986450195
 20
-12.816212463378903
 30
0.0
 11
-17.13732986450195
 21
-7.566212463378903
 31
0.0
  0
LINE
  5
41
330
17
100
AcDbEntity
  8
A-WALL
100
AcDbLine
 10
-13.987329864501952
 20
-4.816212463378903
 30
0.0
 11
-10.587329864501953
 21
-4.816212463378903
 31
0.0
  0
LINE
  5
42
330
17
100
AcDbEntity
  8
A-WALL
100
AcDbLine
 10
-4.837329864501953
 20
18.6337875366211
 30
0.0
 11
5.86267013549805
 21
18.6337875366211
 31
0.0
  0
LINE
  5
43
330
17
100
AcDbEntity
  8
A-WALL
100
AcDbLine
 10
-4.837329864501953
 20
0.03378753662109801
 30
0.0
 11
-1.6373298645019503
 21
0.6337875366210923
 31
0.0
  0
LINE
  5
44
330
17
100
AcDbEntity
  8
A-WALL
100
AcDbLine
 10
-10.037329864501952
 20
-17.466212463378906
 30
0.0
 11
-10.037329864501952
 21
-16.416212463378905
 31
0.0
  0
LINE
  5
45
330
17
100
AcDbEntity
  8
A-WALL
100
AcDbLine
 10
-1.0373298645019489
 20
-21.216212463378906
 30
0.0
 11
3.5126701354980483
 21
-21.216212463378906
 31
0.0
  0
LINE
  5
46
330
17
100
AcDbEntity
  8
A-WALL
100
AcDbLine
 10
15.36267013549805
 20
0.03378753662109801
 30
0.0
 11
15.36267013549805
 21
-4.516212463378906
 31
0.0
  0
LINE
  5
47
330
17
100
AcDbEntity
  8
A-WALL
100
AcDbLine
 10
8.912670135498047
 20
-7.666212463378905
 30
0.0
 11
11.962670135498051
 21
-7.666212463378905
 31
0.0
  0
LINE
  5
48
330
17
100
AcDbEntity
  8
A-WALL
100
AcDbLine
 10
15.262670135498048
 20
0.9837875366210938
 30
0.0
 11
15.662670135498047
 21
3.033787536621098
 31
0.0
  0
LINE
  5
49
330
17
100
AcDbEntity
  8
A-WALL
100
AcDbLine
 10
-10.13732986450195
 20
-14.666212463378905
 30
0.0
 11
-10.13732986450195
 21
-8.666212463378905
 31
0.0
  0
LINE
  5
4A
330
17
100
AcDbEntity
  8
A-WALL
100
AcDbLine
 10
-10.837329864501953
 20
3.583787536621095
 30
0.0
 11
-10.837329864501953
 21
11.933787536621097
 31
0.0
  0
LINE
  5
4B
330
17
100
AcDbEntity
  8
A-WALL
100
AcDbLine
 10
26.162670135498047
 20
1.3337875366210952
 30
0.0
 11
26.61267013549805
 21
2.2337875366210938
 31
0.0
  0
LINE
  5
4C
330
17
100
AcDbEntity
  8
A-WALL
100
AcDbLine
 10
-9.337329864501953
 20
4.133787536621092
 30
0.0
 11
-9.337329864501953
 21
6.233787536621094
 31
0.0
  0
LINE
  5
4D
330
17
100
AcDbEntity
  8
A-WALL
100
AcDbLine
 10
-8.63732986450195
 20
-17.316212463378903
 30
0.0
 11
-8.63732986450195
 21
-11.966212463378906
 31
0.0
  0
LINE
  5
4E
330
17
100
AcDbEntity
  8
A-WALL
100
AcDbLine
 10
-6.487329864501952
 20
0.03378753662109801
 30
0.0
 11
-5.437329864501951
 21
0.283787536621098
 31
0.0
  0
LINE
  5
4F
330
17
100
AcDbEntity
  8
A-WALL
100
AcDbLine
 10
8.912670135498047
 20
15.483787536621094
 30
0.0
 11
15.712670135498051
 21
15.483787536621094
 31
0.0
  0
LINE
  5
50
330
17
100
AcDbEntity
  8
A-WALL
100
AcDbLine
 10
-28.437329864501955
 20
-23.516212463378906
 30
0.0
 11
-28.437329864501955
 21
-19.516212463378906
 31
0.0
  0
LINE
  5
51
330
17
100
AcDbEntity
  8
A-WALL
100
AcDbLine
 10
-15.88732986450195
 20
15.6337875366211
 30
0.0
 11
-11.587329864501953
 21
15.6337875366211
 31
0.0
  0
LINE
  5
52
330
17
100
AcDbEntity
  8
A-WALL
100
AcDbLine
 10
-8.587329864501953
 20
-7.516212463378906
 30
0.0
 11
-7.38732986450195
 21
-7.516212463378906
 31
0.0
  0
LINE
  5
53
330
17
100
AcDbEntity
  8
A-WALL
100
AcDbLine
 10
-0.18732986450195455
 20
-5.116212463378904
 30
0.0
 11
-0.18732986450195455
 21
0.6837875366210966
 31
0.0
  0
LINE
  5
54
330
17
100
AcDbEntity
  8
A-WALL
100
AcDbLine
 10
-16.537329864501952
 20
0.1837875366210966
 30
0.0
 11
-15.587329864501953
 21
0.1837875366210966
 31
0.0
  0
LINE
  5
55
330
17
100
AcDbEntity
  8
A-WALL
100
AcDbLine
 10
-6.037329864501952
 20
-4.816212463378903
 30
0.0
 11
-1.1373298645019503
 21
-4.816212463378903
 31
0.0
  0
LINE
  5
56
330
17
100
AcDbEntity
  8
A-WALL
100
AcDbLine
 10
17.21267013549805
 20
-7.816212463378903
 30
0.0
 11
18.86267013549805
 21
-7.516212463378906
 31
0.0
  0
LINE
  5
57
330
17
100
AcDbEntity
  8
A-WALL
100
AcDbLine
 10
-4.837329864501953
 20
0.6837875366210966
 30
0.0
 11
-4.837329864501953
 21
4.483787536621094
 31
0.0
  0
LINE
  5
58
330
17
100
AcDbEntity
  8
A-WALL
100
AcDbLine
 10
10.212670135498051
 20
-0.11621246337890412
 30
0.0
 11
13.062670135498053
 21
-0.11621246337890412
 31
0.0
  0
LINE
  5
59
330
17
100
AcDbEntity
  8
A-WALL
100
AcDbLine
 10
7.412670135498047
 20
19.283787536621098
 30
0.0
 11
13.762670135498048
 21
19.283787536621098
 31
0.0
  0
LINE
  5
5A
330
17
100
AcDbEntity
  8
A-WALL
100
AcDbLine
 10
-28.437329864501955
 20
-16.316212463378903
 30
0.0
 11
-28.437329864501955
 21
-10.766212463378906
 31
0.0
  0
LINE
  5
5B
330
17
100
AcDbEntity
  8
A-WALL
100
AcDbLine
 10
-9.587329864501953
 20
-4.9662124633789055
 30
0.0
 11
-7.037329864501952
 21
-4.9662124633789055
 31
0.0
  0
LINE
  5
5C
330
17
100
AcDbEntity
  8
A-WALL
100
AcDbLine
 10
23.21267013549805
 20
-4.7162124633789055
 30
0.0
 11
26.36267013549805
 21
-4.7162124633789055
 31
0.0
  0
LINE
  5
5D
330
17
100
AcDbEntity
  8
A-WALL
100
AcDbLine
 10
-15.237329864501952
 20
-19.716212463378906
 30
0.0
 11
-11.487329864501952
 21
-19.716212463378906
 31
0.0
  0
LINE
  5
5E
330
17
100
AcDbEntity
  8
A-WALL
100
AcDbLine
 10
-2.4373298645019545
 20
0.6337875366210923
 30
0.0
 11
-0.2373298645019517
 21
0.6337875366210923
 31
0.0
  0
LINE
  5
5F
330
17
100
AcDbEntity
  8
A-WALL
100
AcDbLine
 10
15.512670135498048
 20
8.033787536621098
 30
0.0
 11
15.512670135498048
 21
6.483787536621094
 31
0.0
  0
LINE
  5
60
330
17
100
AcDbEntity
  8
A-WALL
100
AcDbLine
 10
8.562670135498053
 20
12.183787536621097
 30
0.0
 11
10.162670135498047
 21
12.183787536621097
 31
0.0
  0
LINE
  5
61
330
17
100
AcDbEntity
  8
A-WALL
100
AcDbLine
 10
11.562670135498053
 20
2.6337875366210923
 30
0.0
 11
11.562670135498053
 21
8.483787536621094
 31
0.0
  0
LINE
  5
62
330
17
100
AcDbEntity
  8
A-WALL
100
AcDbLine
 10
-28.73732986450195
 20
-9.866212463378904
 30
0.0
 11
-28.73732986450195
 21
-7.666212463378905
 31
0.0
  0
LINE
  5
63
330
17
100
AcDbEntity
  8
A-WALL
100
AcDbLine
 10
0.8126701354980455
 20
-31.066212463378907
 30
0.0
 11
2.6126701354980497
 21
-31.066212463378907
 31
0.0
  0
LINE
  5
64
330
17
100
AcDbEntity
  8
A-WALL
100
AcDbLine
 10
-16.837329864501953
 20
-5.016212463378906
 30
0.0
 11
-15.687329864501951
 21
-5.016212463378906
 31
0.0
  0
LINE
  5
65
330
17
100
AcDbEntity
  8
A-WALL
100
AcDbLine
 10
-25.63732986450195
 20
-18.016212463378906
 30
0.0
 11
-24.73732986450195
 21
-18.016212463378906
 31
0.0
  0
LINE
  5
66
330
17
100
AcDbEntity
  8
A-WALL
100
AcDbLine
 10
-1.2373298645019517
 20
-16.016212463378906
 30
0.0
 11
-1.2373298645019517
 21
-15.016212463378906
 31
0.0
  0
LINE
  5
67
330
17
100
AcDbEntity
  8
A-WALL
100
AcDbLine
 10
-8.437329864501951
 20
-17.416212463378905
 30
0.0
 11
-6.937329864501951
 21
-17.416212463378905
 31
0.0
  0
LINE
  5
68
330
17
100
AcDbEntity
  8
A-WALL
100
AcDbLine
 10
-10.787329864501952
 20
15.583787536621095
 30
0.0
 11
-10.787329864501952
 21
13.3837875366211
 31
0.0
  0
LINE
  5
69
330
17
100
AcDbEntity
  8
A-WALL
100
AcDbLine
 10
2.8126701354980526
 20
-21.516212463378906
 30
0.0
 11
7.962670135498051
 21
-21.516212463378906
 31
0.0
  0
LINE
  5
6A
330
17
100
AcDbEntity
  8
A-WALL
100
AcDbLine
 10
26.662670135498047
 20
-6.816212463378903
 30
0.0
 11
26.662670135498047
 21
-3.916212463378905
 31
0.0
  0
LINE
  5
6B
330
17
100
AcDbEntity
  8
A-WALL
100
AcDbLine
 10
15.162670135498047
 20
-3.416212463378905
 30
0.0
 11
15.162670135498047
 21
-0.6162124633789041
 31
0.0
  0
LINE
  5
6C
330
17
100
AcDbEntity
  8
A-WALL
100
AcDbLine
 10
-7.987329864501952
 20
18.483787536621094
 30
0.0
 11
-5.487329864501952
 21
18.483787536621094
 31
0.0
  0
LINE
  5
6D
330
17
100
AcDbEntity
  8
A-WALL
100
AcDbLine
 10
-6.13732986450195
 20
-20.516212463378906
 30
0.0
 11
-3.837329864501953
 21
-20.516212463378906
 31
0.0
  0
LINE
  5
6E
330
17
100
AcDbEntity
  8
A-WALL
100
AcDbLine
 10
-17.287329864501952
 20
-4.116212463378904
 30
0.0
 11
-17.287329864501952
 21
-5.166212463378905
 31
0.0
  0
LINE
  5
6F
330
17
100
AcDbEntity
  8
A-WALL
100
AcDbLine
 10
11.262670135498048
 20
0.9837875366210938
 30
0.0
 11
15.162670135498047
 21
0.9837875366210938
 31
0.0
  0
LINE
  5
70
330
17
100
AcDbEntity
  8
A-WALL
100
AcDbLine
 10
22.61267013549805
 20
0.7337875366210938
 30
0.0
 11
24.61267013549805
 21
0.7337875366210938
 31
0.0
  0
LINE
  5
71
330
17
100
AcDbEntity
  8
A-WALL
100
AcDbLine
 10
11.36267013549805
 20
1.4837875366210938
 30
0.0
 11
11.36267013549805
 21
9.583787536621095
 31
0.0
  0
LINE
  5
72
330
17
100
AcDbEntity
  8
A-WALL
100
AcDbLine
 10
-10.537329864501952
 20
0.1837875366210966
 30
0.0
 11
-6.687329864501951
 21
0.1837875366210966
 31
0.0
  0
LINE
  5
73
330
17
100
AcDbEntity
  8
A-WALL
100
AcDbLine
 10
15.36267013549805
 20
12.683787536621097
 30
0.0
 11
15.36267013549805
 21
15.183787536621097
 31
0.0
  0
LINE
  5
74
330
17
100
AcDbEntity
  8
A-WALL
100
AcDbLine
 10
-6.13732986450195
 20
-30.716212463378906
 30
0.0
 11
-3.1373298645019503
 21
-30.716212463378906
 31
0.0
  0
LINE
  5
75
330
17
100
AcDbEntity
  8
A-WALL
100
AcDbLine
 10
-9.237329864501952
 20
0.4337875366210966
 30
0.0
 11
-9.237329864501952
 21
3.4837875366210938
 31
0.0
  0
LINE
  5
76
330
17
100
AcDbEntity
  8
A-WALL
100
AcDbLine
 10
-9.087329864501953
 20
15.683787536621097
 30
0.0
 11
-4.837329864501953
 21
15.683787536621097
 31
0.0
  0
LINE
  5
77
330
17
100
AcDbEntity
  8
A-WALL
100
AcDbLine
 10
-16.537329864501952
 20
-17.416212463378905
 30
0.0
 11
-11.787329864501952
 21
-17.416212463378905
 31
0.0
  0
LINE
  5
78
330
17
100
AcDbEntity
  8
A-WALL
100
AcDbLine
 10
9.61267013549805
 20
-4.316212463378903
 30
0.0
 11
13.912670135498047
 21
-4.316212463378903
 31
0.0
  0
LINE
  5
79
330
17
100
AcDbEntity
  8
A-WALL
100
AcDbLine
 10
-8.88732986450195
 20
1.783787536621098
 30
0.0
 11
-5.937329864501951
 21
1.783787536621098
 31
0.0
  0
LINE
  5
7A
330
17
100
AcDbEntity
  8
A-WALL
100
AcDbLine
 10
-5.337329864501953
 20
-3.3162124633789034
 30
0.0
 11
-2.1873298645019545
 21
-3.3162124633789034
 31
0.0
  0
LINE
  5
7B
330
17
100
AcDbEntity
  8
A-WALL
100
AcDbLine
 10
21.71267013549805
 20
-4.066212463378903
 30
0.0
 11
22.96267013549805
 21
-3.7662124633789062
 31
0.0
  0
LINE
  5
7C
330
17
100
AcDbEntity
  8
A-WALL
100
AcDbLine
 10
-9.237329864501952
 20
6.833787536621095
 30
0.0
 11
-9.237329864501952
 21
8.983787536621094
 31
0.0
  0
LINE
  5
7D
330
17
100
AcDbEntity
  8
A-WALL
100
AcDbLine
 10
-3.1873298645019545
 20
-21.316212463378903
 30
0.0
 11
-3.1873298645019545
 21
-19.166212463378905
 31
0.0
  0
LINE
  5
7E
330
17
100
AcDbEntity
  8
A-WALL
100
AcDbLine
 10
-8.63732986450195
 20
14.983787536621094
 30
0.0
 11
-3.6873298645019545
 21
14.983787536621094
 31
0.0
  0
LINE
  5
7F
330
17
100
AcDbEntity
  8
A-WALL
100
AcDbLine
 10
25.662670135498047
 20
0.1837875366210966
 30
0.0
 11
26.61267013549805
 21
0.1837875366210966
 31
0.0
  0
LINE
  5
80
330
17
100
AcDbEntity
  8
A-WALL
100
AcDbLine
 10
-4.737329864501952
 20
-3.2662124633789062
 30
0.0
 11
-4.737329864501952
 21
-1.1162124633789041
 31
0.0
  0
LINE
  5
81
330
17
100
AcDbEntity
  8
A-WALL
100
AcDbLine
 10
-17.18732986450195
 20
-17.366212463378908
 30
0.0
 11
-17.18732986450195
 21
-15.066212463378907
 31
0.0
  0
LINE
  5
82
330
17
100
AcDbEntity
  8
A-WALL
100
AcDbLine
 10
-1.2373298645019517
 20
-11.116212463378904
 30
0.0
 11
-1.2373298645019517
 21
-8.016212463378906
 31
0.0
  0
LINE
  5
83
330
17
100
AcDbEntity
  8
A-WALL
100
AcDbLine
 10
-11.537329864501952
 20
-0.01621246337890625
 30
0.0
 11
-10.737329864501952
 21
-0.01621246337890625
 31
0.0
  0
LINE
  5
84
330
17
100
AcDbEntity
  8
A-WALL
100
AcDbLine
 10
21.812670135498053
 20
2.3837875366210923
 30
0.0
 11
23.412670135498047
 21
2.3837875366210923
 31
0.0
  0
LINE
  5
85
330
17
100
AcDbEntity
  8
A-WALL
100
AcDbLine
 10
-17.18732986450195
 20
-1.5662124633789034
 30
0.0
 11
-17.18732986450195
 21
0.03378753662109801
 31
0.0
  0
LINE
  5
86
330
17
100
AcDbEntity
  8
A-WALL
100
AcDbLine
 10
21.51267013549805
 20
1.0837875366210952
 30
0.0
 11
25.26267013549805
 21
1.0837875366210952
 31
0.0
  0
LINE
  5
87
330
17
100
AcDbEntity
  8
A-WALL
100
AcDbLine
 10
11.912670135498047
 20
2.8837875366210923
 30
0.0
 11
13.912670135498047
 21
2.8837875366210923
 31
0.0
  0
LINE
  5
88
330
17
100
AcDbEntity
  8
A-WALL
100
AcDbLine
 10
6.762670135498048
 20
-21.716212463378906
 30
0.0
 11
10.312670135498053
 21
-21.716212463378906
 31
0.0
  0
LINE
  5
89
330
17
100
AcDbEntity
  8
A-WALL
100
AcDbLine
 10
22.11267013549805
 20
1.6837875366210966
 30
0.0
 11
23.01267013549805
 21
1.8837875366210923
 31
0.0
  0
LINE
  5
8A
330
17
100
AcDbEntity
  8
A-WALL
100
AcDbLine
 10
-7.187329864501951
 20
0.533787536621098
 30
0.0
 11
-5.88732986450195
 21
0.8337875366210952
 31
0.0
  0
LINE
  5
8B
330
17
100
AcDbEntity
  8
A-WALL
100
AcDbLine
 10
12.312670135498053
 20
-22.566212463378903
 30
0.0
 11
13.462670135498051
 21
-21.116212463378908
 31
0.0
  0
LINE
  5
8C
330
17
100
AcDbEntity
  8
A-WALL
100
AcDbLine
 10
12.86267013549805
 20
1.0837875366210952
 30
0.0
 11
14.412670135498047
 21
1.0837875366210952
 31
0.0
  0
LINE
  5
8D
330
17
100
AcDbEntity
  8
A-WALL
100
AcDbLine
 10
2.7626701354980483
 20
-29.716212463378906
 30
0.0
 11
4.762670135498048
 21
-29.716212463378906
 31
0.0
  0
LINE
  5
8E
330
17
100
AcDbEntity
  8
A-WALL
100
AcDbLine
 10
-17.087329864501953
 20
-16.416212463378905
 30
0.0
 11
-17.087329864501953
 21
-10.966212463378906
 31
0.0
  0
LINE
  5
8F
330
17
100
AcDbEntity
  8
A-WALL
100
AcDbLine
 10
22.912670135498047
 20
11.1337875366211
 30
0.0
 11
25.71267013549805
 21
11.1337875366211
 31
0.0
  0
LINE
  5
90
330
17
100
AcDbEntity
  8
A-WALL
100
AcDbLine
 10
-17.23732986450195
 20
5.233787536621094
 30
0.0
 11
-17.23732986450195
 21
6.783787536621098
 31
0.0
  0
LINE
  5
91
330
17
100
AcDbEntity
  8
A-WALL
100
AcDbLine
 10
22.062670135498053
 20
12.1337875366211
 30
0.0
 11
23.062670135498053
 21
12.1337875366211
 31
0.0
  0
LINE
  5
92
330
17
100
AcDbEntity
  8
A-WALL
100
AcDbLine
 10
25.71267013549805
 20
8.933787536621097
 30
0.0
 11
26.86267013549805
 21
9.183787536621097
 31
0.0
  0
LINE
  5
93
330
17
100
AcDbEntity
  8
A-WALL
100
AcDbLine
 10
-7.337329864501953
 20
0.8837875366210923
 30
0.0
 11
-6.38732986450195
 21
0.8837875366210923
 31
0.0
  0
LINE
  5
94
330
17
100
AcDbEntity
  8
A-WALL
100
AcDbLine
 10
23.412670135498047
 20
2.1837875366210966
 30
0.0
 11
25.812670135498053
 21
2.1837875366210966
 31
0.0
  0
LINE
  5
95
330
17
100
AcDbEntity
  8
A-WALL
100
AcDbLine
 10
-2.4873298645019517
 20
14.283787536621098
 30
0.0
 11
-2.4873298645019517
 21
15.233787536621094
 31
0.0
  0
LINE
  5
96
330
17
100
AcDbEntity
  8
A-WALL
100
AcDbLine
 10
-1.9373298645019545
 20
22.3837875366211
 30
0.0
 11
-1.9373298645019545
 21
26.933787536621097
 31
0.0
  0
LINE
  5
97
330
17
100
AcDbEntity
  8
A-WALL
100
AcDbLine
 10
15.86267013549805
 20
18.433787536621097
 30
0.0
 11
17.562670135498053
 21
18.733787536621094
 31
0.0
  0
LINE
  5
98
330
17
100
AcDbEntity
  8
A-WALL
100
AcDbLine
 10
-7.88732986450195
 20
-4.916212463378905
 30
0.0
 11
-6.837329864501953
 21
-4.916212463378905
 31
0.0
  0
LINE
  5
99
330
17
100
AcDbEntity
  8
A-WALL
100
AcDbLine
 10
-8.38732986450195
 20
12.483787536621094
 30
0.0
 11
-6.587329864501953
 21
12.483787536621094
 31
0.0
  0
LINE
  5
9A
330
17
100
AcDbEntity
  8
A-WALL
100
AcDbLine
 10
-3.9373298645019545
 20
-1.2162124633789055
 30
0.0
 11
-1.1373298645019503
 21
-1.2162124633789055
 31
0.0
  0
LINE
  5
9B
330
17
100
AcDbEntity
  8
A-WALL
100
AcDbLine
 10
14.512670135498048
 20
-4.766212463378906
 30
0.0
 11
15.162670135498047
 21
-3.7662124633789062
 31
0.0
  0
LINE
  5
9C
330
17
100
AcDbEntity
  8
A-WALL
100
AcDbLine
 10
8.012670135498048
 20
-4.116212463378904
 30
0.0
 11
14.61267013549805
 21
-4.116212463378904
 31
0.0
  0
LINE
  5
9D
330
17
100
AcDbEntity
  8
A-WALL
100
AcDbLine
 10
21.71267013549805
 20
3.6337875366210923
 30
0.0
 11
22.812670135498053
 21
4.783787536621098
 31
0.0
  0
LINE
  5
9E
330
17
100
AcDbEntity
  8
A-WALL
100
AcDbLine
 10
-31.187329864501955
 20
-10.316212463378903
 30
0.0
 11
-28.687329864501955
 21
-10.316212463378903
 31
0.0
  0
LINE
  5
9F
330
17
100
AcDbEntity
  8
A-WALL
100
AcDbLine
 10
26.76267013549805
 20
-7.666212463378905
 30
0.0
 11
26.76267013549805
 21
-5.4662124633789055
 31
0.0
  0
LINE
  5
A0
330
17
100
AcDbEntity
  8
A-WALL
100
AcDbLine
 10
11.812670135498053
 20
18.583787536621095
 30
0.0
 11
15.912670135498047
 21
18.583787536621095
 31
0.0
  0
LINE
  5
A1
330
17
100
AcDbEntity
  8
A-WALL
100
AcDbLine
 10
10.262670135498048
 20
-31.216212463378906
 30
0.0
 11
11.712670135498051
 21
-31.216212463378906
 31
0.0
  0
LINE
  5
A2
330
17
100
AcDbEntity
  8
A-WALL
100
AcDbLine
 10
-3.787329864501949
 20
-20.466212463378906
 30
0.0
 11
-3.787329864501949
 21
-18.066212463378903
 31
0.0
  0
LINE
  5
A3
330
17
100
AcDbEntity
  8
A-WALL
100
AcDbLine
 10
-9.287329864501952
 20
-0.16621246337890483
 30
0.0
 11
-7.13732986450195
 21
-0.16621246337890483
 31
0.0
  0
LINE
  5
A4
330
17
100
AcDbEntity
  8
A-WALL
100
AcDbLine
 10
-10.537329864501952
 20
15.1337875366211
 30
0.0
 11
-7.437329864501951
 21
15.1337875366211
 31
0.0
  0
LINE
  5
A5
330
17
100
AcDbEntity
  8
A-WALL
100
AcDbLine
 10
-3.1873298645019545
 20
-8.066212463378903
 30
0.0
 11
-1.2873298645019489
 21
-8.066212463378903
 31
0.0
  0
LINE
  5
A6
330
17
100
AcDbEntity
  8
A-WALL
100
AcDbLine
 10
-8.187329864501951
 20
-19.116212463378908
 30
0.0
 11
-4.737329864501952
 21
-19.116212463378908
 31
0.0
  0
LINE
  5
A7
330
17
100
AcDbEntity
  8
A-WALL
100
AcDbLine
 10
-4.437329864501951
 20
13.783787536621098
 30
0.0
 11
-3.3873298645019503
 21
13.783787536621098
 31
0.0
  0
LINE
  5
A8
330
17
100
AcDbEntity
  8
A-WALL
100
AcDbLine
 10
-34.13732986450195
 20
-10.716212463378906
 30
0.0
 11
-32.38732986450195
 21
-10.716212463378906
 31
0.0
  0
LINE
  5
A9
330
17
100
AcDbEntity
  8
A-WALL
100
AcDbLine
 10
-10.88732986450195
 20
12.6337875366211
 30
0.0
 11
-10.88732986450195
 21
14.3837875366211
 31
0.0
  0
LINE
  5
AA
330
17
100
AcDbEntity
  8
A-WALL
100
AcDbLine
 10
-4.837329864501953
 20
18.083787536621095
 30
0.0
 11
-4.437329864501951
 21
19.783787536621098
 31
0.0
  0
LINE
  5
AB
330
17
100
AcDbEntity
  8
A-WALL
100
AcDbLine
 10
12.012670135498048
 20
4.383787536621092
 30
0.0
 11
14.11267013549805
 21
4.383787536621092
 31
0.0
  0
LINE
  5
AC
330
17
100
AcDbEntity
  8
A-WALL
100
AcDbLine
 10
23.812670135498053
 20
15.3837875366211
 30
0.0
 11
25.26267013549805
 21
15.3837875366211
 31
0.0
  0
LINE
  5
AD
330
17
100
AcDbEntity
  8
A-WALL
100
AcDbLine
 10
7.012670135498048
 20
-31.216212463378906
 30
0.0
 11
8.11267013549805
 21
-31.216212463378906
 31
0.0
  0
LINE
  5
AE
330
17
100
AcDbEntity
  8
A-WALL
100
AcDbLine
 10
-17.337329864501953
 20
9.983787536621094
 30
0.0
 11
-17.337329864501953
 21
13.333787536621095
 31
0.0
  0
LINE
  5
AF
330
17
100
AcDbEntity
  8
A-WALL
100
AcDbLine
 10
9.11267013549805
 20
18.683787536621097
 30
0.0
 11
10.212670135498051
 21
18.683787536621097
 31
0.0
  0
LINE
  5
B0
330
17
100
AcDbEntity
  8
A-WALL
100
AcDbLine
 10
15.562670135498053
 20
9.533787536621098
 30
0.0
 11
15.562670135498053
 21
11.283787536621098
 31
0.0
  0
LINE
  5
B1
330
17
100
AcDbEntity
  8
A-WALL
100
AcDbLine
 10
18.61267013549805
 20
18.433787536621097
 30
0.0
 11
21.51267013549805
 21
18.433787536621097
 31
0.0
  0
LINE
  5
B2
330
17
100
AcDbEntity
  8
A-WALL
100
AcDbLine
 10
23.412670135498047
 20
10.933787536621097
 30
0.0
 11
23.912670135498047
 21
11.833787536621095
 31
0.0
  0
LINE
  5
B3
330
17
100
AcDbEntity
  8
A-WALL
100
AcDbLine
 10
13.162670135498047
 20
5.883787536621092
 30
0.0
 11
14.212670135498051
 21
5.883787536621092
 31
0.0
  0
LINE
  5
B4
330
17
100
AcDbEntity
  8
A-WALL
100
AcDbLine
 10
22.062670135498053
 20
14.783787536621098
 30
0.0
 11
23.21267013549805
 21
15.3837875366211
 31
0.0
  0
LINE
  5
B5
330
17
100
AcDbEntity
  8
A-WALL
100
AcDbLine
 10
-8.187329864501951
 20
-18.616212463378908
 30
0.0
 11
-6.487329864501952
 21
-18.616212463378908
 31
0.0
  0
LINE
  5
B6
330
17
100
AcDbEntity
  8
A-WALL
100
AcDbLine
 10
-2.337329864501953
 20
-5.016212463378906
 30
0.0
 11
-1.4373298645019545
 21
-5.016212463378906
 31
0.0
  0
LINE
  5
B7
330
17
100
AcDbEntity
  8
A-WALL
100
AcDbLine
 10
13.462670135498051
 20
10.283787536621098
 30
0.0
 11
14.412670135498047
 21
9.333787536621095
 31
0.0
  0
LINE
  5
B8
330
17
100
AcDbEntity
  8
A-WALL
100
AcDbLine
 10
-4.63732986450195
 20
15.083787536621095
 30
0.0
 11
-4.63732986450195
 21
13.3837875366211
 31
0.0
  0
LINE
  5
B9
330
17
100
AcDbEntity
  8
A-WALL
100
AcDbLine
 10
15.86267013549805
 20
-3.366212463378904
 30
0.0
 11
15.86267013549805
 21
-0.8662124633789041
 31
0.0
  0
LINE
  5
BA
330
17
100
AcDbEntity
  8
A-WALL
100
AcDbLine
 10
-16.48732986450195
 20
-17.516212463378906
 30
0.0
 11
-16.48732986450195
 21
-18.866212463378908
 31
0.0
  0
LINE
  5
BB
330
17
100
AcDbEntity
  8
A-WALL
100
AcDbLine
 10
-4.737329864501952
 20
19.733787536621094
 30
0.0
 11
-4.737329864501952
 21
21.933787536621097
 31
0.0
  0
LINE
  5
BC
330
17
100
AcDbEntity
  8
A-WALL
100
AcDbLine
 10
14.812670135498053
 20
2.083787536621095
 30
0.0
 11
15.212670135498051
 21
1.0837875366210952
 31
0.0
  0
LINE
  5
BD
330
17
100
AcDbEntity
  8
A-WALL
100
AcDbLine
 10
23.51267013549805
 20
5.433787536621097
 30
0.0
 11
24.71267013549805
 21
6.633787536621099
 31
0.0
  0
LINE
  5
BE
330
17
100
AcDbEntity
  8
A-WALL
100
AcDbLine
 10
14.062670135498053
 20
10.733787536621094
 30
0.0
 11
15.61267013549805
 21
11.283787536621098
 31
0.0
  0
LINE
  5
BF
330
17
100
AcDbEntity
  8
A-WALL
100
AcDbLine
 10
-17.287329864501952
 20
-7.766212463378906
 30
0.0
 11
-15.437329864501951
 21
-7.766212463378906
 31
0.0
  0
LINE
  5
C0
330
17
100
AcDbEntity
  8
A-WALL
100
AcDbLine
 10
22.26267013549805
 20
12.783787536621098
 30
0.0
 11
23.562670135498053
 21
12.783787536621098
 31
0.0
  0
LINE
  5
C1
330
17
100
AcDbEntity
  8
A-WALL
100
AcDbLine
 10
13.262670135498048
 20
-22.766212463378906
 30
0.0
 11
14.062670135498053
 21
-21.366212463378908
 31
0.0
  0
LINE
  5
C2
330
17
100
AcDbEntity
  8
A-WALL
100
AcDbLine
 10
22.36267013549805
 20
-3.0162124633789062
 30
0.0
 11
25.46267013549805
 21
-3.0162124633789062
 31
0.0
  0
LINE
  5
C3
330
17
100
AcDbEntity
  8
A-WALL
100
AcDbLine
 10
-16.537329864501952
 20
-0.6162124633789041
 30
0.0
 11
-15.437329864501951
 21
-0.6162124633789041
 31
0.0
  0
LINE
  5
C4
330
17
100
AcDbEntity
  8
A-WALL
100
AcDbLine
 10
7.462670135498051
 20
19.583787536621095
 30
0.0
 11
7.462670135498051
 21
21.8837875366211
 31
0.0
  0
LINE
  5
C5
330
17
100
AcDbEntity
  8
A-WALL
100
AcDbLine
 10
23.71267013549805
 20
-3.3162124633789034
 30
0.0
 11
24.96267013549805
 21
-3.0162124633789062
 31
0.0
  0
LINE
  5
C6
330
17
100
AcDbEntity
  8
A-WALL
100
AcDbLine
 10
12.962670135498051
 20
5.433787536621097
 30
0.0
 11
14.61267013549805
 21
5.833787536621095
 31
0.0
  0
LINE
  5
C7
330
17
100
AcDbEntity
  8
A-WALL
100
AcDbLine
 10
24.01267013549805
 20
8.183787536621097
 30
0.0
 11
24.912670135498047
 21
8.3837875366211
 31
0.0
  0
LINE
  5
C8
330
17
100
AcDbEntity
  8
A-WALL
100
AcDbLine
 10
22.71267013549805
 20
5.183787536621097
 30
0.0
 11
22.96267013549805
 21
5.983787536621094
 31
0.0
  0
LINE
  5
C9
330
17
100
AcDbEntity
  8
A-WALL
100
AcDbLine
 10
-9.037329864501952
 20
-0.26621246337890625
 30
0.0
 11
-7.537329864501952
 21
-0.26621246337890625
 31
0.0
  0
LINE
  5
CA
330
17
100
AcDbEntity
  8
A-WALL
100
AcDbLine
 10
-19.23732986450195
 20
1.9337875366210966
 30
0.0
 11
-18.287329864501952
 21
2.1337875366210923
 31
0.0
  0
LINE
  5
CB
330
17
100
AcDbEntity
  8
A-WALL
100
AcDbLine
 10
10.662670135498047
 20
-0.41621246337890483
 30
0.0
 11
12.062670135498053
 21
-0.41621246337890483
 31
0.0
  0
LINE
  5
CC
330
17
100
AcDbEntity
  8
A-WALL
100
AcDbLine
 10
11.562670135498053
 20
8.083787536621095
 30
0.0
 11
12.61267013549805
 21
8.433787536621097
 31
0.0
  0
LINE
  5
CD
330
17
100
AcDbEntity
  8
A-WALL
100
AcDbLine
 10
-5.437329864501951
 20
15.083787536621095
 30
0.0
 11
-2.9873298645019517
 21
15.083787536621095
 31
0.0
  0
LINE
  5
CE
330
17
100
AcDbEntity
  8
A-WALL
100
AcDbLine
 10
-1.4873298645019517
 20
4.083787536621095
 30
0.0
 11
-0.5873298645019531
 21
4.083787536621095
 31
0.0
  0
LINE
  5
CF
330
17
100
AcDbEntity
  8
A-WALL
100
AcDbLine
 10
22.76267013549805
 20
-3.666212463378905
 30
0.0
 11
22.76267013549805
 21
-4.666212463378905
 31
0.0
  0
LINE
  5
D0
330
17
100
AcDbEntity
  8
A-WALL
100
AcDbLine
 10
23.01267013549805
 20
5.883787536621092
 30
0.0
 11
23.812670135498053
 21
6.033787536621098
 31
0.0
  0
LINE
  5
D1
330
17
100
AcDbEntity
  8
A-WALL
100
AcDbLine
 10
-1.3373298645019531
 20
-11.766212463378906
 30
0.0
 11
-1.3373298645019531
 21
-9.266212463378906
 31
0.0
  0
LINE
  5
D2
330
17
100
AcDbEntity
  8
A-WALL
100
AcDbLine
 10
25.812670135498053
 20
8.1337875366211
 30
0.0
 11
26.162670135498047
 21
9.733787536621094
 31
0.0
  0
LINE
  5
D3
330
17
100
AcDbEntity
  8
A-WALL
100
AcDbLine
 10
13.312670135498053
 20
9.583787536621095
 30
0.0
 11
14.36267013549805
 21
9.583787536621095
 31
0.0
  0
LINE
  5
D4
330
17
100
AcDbEntity
  8
A-WALL
100
AcDbLine
 10
-13.037329864501952
 20
-1.9162124633789048
 30
0.0
 11
-11.437329864501951
 21
-1.2162124633789055
 31
0.0
  0
LINE
  5
D5
330
17
100
AcDbEntity
  8
A-WALL
100
AcDbLine
 10
10.86267013549805
 20
18.533787536621098
 30
0.0
 11
13.11267013549805
 21
18.533787536621098
 31
0.0
  0
LINE
  5
D6
330
17
100
AcDbEntity
  8
A-WALL
100
AcDbLine
 10
24.46267013549805
 20
9.933787536621097
 30
0.0
 11
24.71267013549805
 21
10.783787536621098
 31
0.0
  0
LINE
  5
D7
330
17
100
AcDbEntity
  8
A-WALL
100
AcDbLine
 10
-16.787329864501952
 20
-4.116212463378904
 30
0.0
 11
-16.787329864501952
 21
-2.0162124633789062
 31
0.0
  0
LINE
  5
D8
330
17
100
AcDbEntity
  8
A-WALL
100
AcDbLine
 10
-8.537329864501952
 20
-9.016212463378906
 30
0.0
 11
-8.537329864501952
 21
-9.966212463378906
 31
0.0
  0
LINE
  5
D9
330
17
100
AcDbEntity
  8
A-WALL
100
AcDbLine
 10
-7.587329864501953
 20
13.483787536621094
 30
0.0
 11
-6.587329864501953
 21
13.483787536621094
 31
0.0
  0
LINE
  5
DA
330
17
100
AcDbEntity
  8
A-WALL
100
AcDbLine
 10
24.76267013549805
 20
8.233787536621094
 30
0.0
 11
25.412670135498047
 21
9.033787536621098
 31
0.0
  0
LINE
  5
DB
330
17
100
AcDbEntity
  8
A-WALL
100
AcDbLine
 10
23.162670135498047
 20
7.483787536621094
 30
0.0
 11
23.412670135498047
 21
8.3837875366211
 31
0.0
  0
LINE
  5
DC
330
17
100
AcDbEntity
  8
A-WALL
100
AcDbLine
 10
-12.38732986450195
 20
-7.816212463378903
 30
0.0
 11
-11.537329864501952
 21
-7.616212463378904
 31
0.0
  0
LINE
  5
DD
330
17
100
AcDbEntity
  8
A-WALL
100
AcDbLine
 10
15.062670135498053
 20
2.783787536621098
 30
0.0
 11
16.062670135498053
 21
2.783787536621098
 31
0.0
  0
LINE
  5
DE
330
17
100
AcDbEntity
  8
A-WALL
100
AcDbLine
 10
-29.73732986450195
 20
-19.416212463378905
 30
0.0
 11
-28.437329864501955
 21
-19.416212463378905
 31
0.0
  0
LINE
  5
DF
330
17
100
AcDbEntity
  8
A-WALL
100
AcDbLine
 10
-1.0373298645019489
 20
-1.1162124633789041
 30
0.0
 11
-1.0373298645019489
 21
0.03378753662109801
 31
0.0
  0
LINE
  5
E0
330
17
100
AcDbEntity
  8
A-WALL
100
AcDbLine
 10
7.312670135498053
 20
23.933787536621097
 30
0.0
 11
7.562670135498053
 21
23.1337875366211
 31
0.0
  0
LINE
  5
E1
330
17
100
AcDbEntity
  8
A-WALL
100
AcDbLine
 10
22.51267013549805
 20
16.033787536621098
 30
0.0
 11
22.96267013549805
 21
17.483787536621094
 31
0.0
  0
LINE
  5
E2
330
17
100
AcDbEntity
  8
A-WALL
100
AcDbLine
 10
15.712670135498051
 20
0.533787536621098
 30
0.0
 11
16.812670135498053
 21
0.533787536621098
 31
0.0
  0
LINE
  5
E3
330
17
100
AcDbEntity
  8
A-WALL
100
AcDbLine
 10
-29.387329864501954
 20
-17.466212463378906
 30
0.0
 11
-28.537329864501952
 21
-17.466212463378906
 31
0.0
  0
LINE
  5
E4
330
17
100
AcDbEntity
  8
A-WALL
100
AcDbLine
 10
15.062670135498053
 20
6.783787536621098
 30
0.0
 11
15.062670135498053
 21
8.433787536621097
 31
0.0
  0
LINE
  5
E5
330
17
100
AcDbEntity
  8
A-WALL
100
AcDbLine
 10
12.512670135498048
 20
6.783787536621098
 30
0.0
 11
13.512670135498048
 21
7.033787536621098
 31
0.0
  0
LINE
  5
E6
330
17
100
AcDbEntity
  8
A-WALL
100
AcDbLine
 10
16.11267013549805
 20
-3.2162124633789055
 30
0.0
 11
17.162670135498047
 21
-3.2162124633789055
 31
0.0
  0
LINE
  5
E7
330
17
100
AcDbEntity
  8
A-WALL
100
AcDbLine
 10
11.662670135498047
 20
11.333787536621095
 30
0.0
 11
11.662670135498047
 21
10.233787536621094
 31
0.0
  0
LINE
  5
E8
330
17
100
AcDbEntity
  8
A-WALL
100
AcDbLine
 10
22.412670135498047
 20
5.433787536621097
 30
0.0
 11
22.61267013549805
 21
6.433787536621097
 31
0.0
  0
LINE
  5
E9
330
17
100
AcDbEntity
  8
A-WALL
100
AcDbLine
 10
4.162670135498047
 20
-21.616212463378908
 30
0.0
 11
5.162670135498047
 21
-21.616212463378908
 31
0.0
  0
LINE
  5
EA
330
17
100
AcDbEntity
  8
A-WALL
100
AcDbLine
 10
-7.987329864501952
 20
13.683787536621097
 30
0.0
 11
-7.087329864501953
 21
13.683787536621097
 31
0.0
  0
LINE
  5
EB
330
17
100
AcDbEntity
  8
A-WALL
100
AcDbLine
 10
-2.1873298645019545
 20
-18.816212463378903
 30
0.0
 11
-1.0873298645019531
 21
-20.166212463378905
 31
0.0
  0
LINE
  5
EC
330
17
100
AcDbEntity
  8
A-WALL
100
AcDbLine
 10
14.462670135498051
 20
5.733787536621094
 30
0.0
 11
15.512670135498048
 21
4.683787536621097
 31
0.0
  0
LINE
  5
ED
330
17
100
AcDbEntity
  8
A-WALL
100
AcDbLine
 10
-2.287329864501949
 20
0.08378753662109517
 30
0.0
 11
-1.4373298645019545
 21
0.08378753662109517
 31
0.0
  0
LINE
  5
EE
330
17
100
AcDbEntity
  8
A-WALL
100
AcDbLine
 10
16.96267013549805
 20
-3.616212463378904
 30
0.0
 11
16.96267013549805
 21
-2.8162124633789034
 31
0.0
  0
LINE
  5
EF
330
17
100
AcDbEntity
  8
A-WALL
100
AcDbLine
 10
11.762670135498048
 20
15.483787536621094
 30
0.0
 11
12.662670135498047
 21
15.483787536621094
 31
0.0
  0
LINE
  5
F0
330
17
100
AcDbEntity
  8
A-WALL
100
AcDbLine
 10
23.36267013549805
 20
8.933787536621097
 30
0.0
 11
24.062670135498053
 21
9.783787536621098
 31
0.0
  0
LINE
  5
F1
330
17
100
AcDbEntity
  8
A-WALL
100
AcDbLine
 10
16.76267013549805
 20
-2.7162124633789055
 30
0.0
 11
17.26267013549805
 21
-1.0162124633789062
 31
0.0
  0
LINE
  5
F2
330
17
100
AcDbEntity
  8
A-WALL
100
AcDbLine
 10
8.36267013549805
 20
-7.616212463378904
 30
0.0
 11
9.712670135498051
 21
-7.616212463378904
 31
0.0
  0
LINE
  5
F3
330
17
100
AcDbEntity
  8
A-WALL
100
AcDbLine
 10
-15.287329864501952
 20
-8.516212463378906
 30
0.0
 11
-14.237329864501952
 21
-8.516212463378906
 31
0.0
  0
LINE
  5
F4
330
17
100
AcDbEntity
  8
A-WALL
100
AcDbLine
 10
26.51267013549805
 20
11.783787536621098
 30
0.0
 11
26.912670135498047
 21
12.833787536621095
 31
0.0
  0
LINE
  5
F5
330
17
100
AcDbEntity
  8
A-WALL
100
AcDbLine
 10
25.86267013549805
 20
-3.7662124633789062
 30
0.0
 11
25.86267013549805
 21
-4.766212463378906
 31
0.0
  0
LINE
  5
F6
330
17
100
AcDbEntity
  8
A-WALL
100
AcDbLine
 10
-12.737329864501952
 20
-2.0162124633789062
 30
0.0
 11
-11.287329864501952
 21
-1.6662124633789048
 31
0.0
  0
LINE
  5
F7
330
17
100
AcDbEntity
  8
A-WALL
100
AcDbLine
 10
12.512670135498048
 20
6.833787536621095
 30
0.0
 11
14.662670135498047
 21
6.833787536621095
 31
0.0
  0
LINE
  5
F8
330
17
100
AcDbEntity
  8
A-WALL
100
AcDbLine
 10
-16.587329864501953
 20
-4.316212463378903
 30
0.0
 11
-15.13732986450195
 21
-4.316212463378903
 31
0.0
  0
LINE
  5
F9
330
17
100
AcDbEntity
  8
A-WALL
100
AcDbLine
 10
13.662670135498047
 20
8.433787536621097
 30
0.0
 11
15.062670135498053
 21
8.433787536621097
 31
0.0
  0
LINE
  5
FA
330
17
100
AcDbEntity
  8
A-WALL
100
AcDbLine
 10
24.36267013549805
 20
9.983787536621094
 30
0.0
 11
24.912670135498047
 21
10.833787536621095
 31
0.0
  0
LINE
  5
FB
330
17
100
AcDbEntity
  8
A-WALL
100
AcDbLine
 10
15.062670135498053
 20
7.883787536621099
 30
0.0
 11
15.062670135498053
 21
6.783787536621098
 31
0.0
  0
LINE
  5
FC
330
17
100
AcDbEntity
  8
A-WALL
100
AcDbLine
 10
3.662670135498047
 20
20.083787536621095
 30
0.0
 11
4.912670135498047
 21
18.833787536621095
 31
0.0
  0
LINE
  5
FD
330
17
100
AcDbEntity
  8
A-WALL
100
AcDbLine
 10
22.61267013549805
 20
12.083787536621095
 30
0.0
 11
22.61267013549805
 21
11.183787536621097
 31
0.0
  0
LINE
  5
FE
330
17
100
AcDbEntity
  8
A-WALL
100
AcDbLine
 10
-2.2373298645019517
 20
-19.716212463378906
 30
0.0
 11
-1.6373298645019503
 21
-18.716212463378906
 31
0.0
  0
LINE
  5
FF
330
17
100
AcDbEntity
  8
A-WALL
100
AcDbLine
 10
-4.987329864501952
 20
-18.916212463378905
 30
0.0
 11
-4.987329864501952
 21
-17.916212463378905
 31
0.0
  0
LINE
  5
100
330
17
100
AcDbEntity
  8
A-WALL
100
AcDbLine
 10
22.062670135498053
 20
12.533787536621098
 30
0.0
 11
22.062670135498053
 21
11.583787536621095
 31
0.0
  0
LINE
  5
101
330
17
100
AcDbEntity
  8
A-WALL
100
AcDbLine
 10
26.61267013549805
 20
0.03378753662109801
 30
0.0
 11
26.61267013549805
 21
-0.8162124633789034
 31
0.0
  0
LINE
  5
102
330
17
100
AcDbEntity
  8
A-WALL
100
AcDbLine
 10
15.262670135498048
 20
10.933787536621097
 30
0.0
 11
15.262670135498048
 21
9.8837875366211
 31
0.0
  0
LINE
  5
103
330
17
100
AcDbEntity
  8
A-WALL
100
AcDbLine
 10
11.912670135498047
 20
7.783787536621098
 30
0.0
 11
11.912670135498047
 21
6.983787536621094
 31
0.0
  0
LINE
  5
104
330
17
100
AcDbEntity
  8
A-WALL
100
AcDbLine
 10
21.76267013549805
 20
14.183787536621097
 30
0.0
 11
22.61267013549805
 21
14.583787536621095
 31
0.0
  0
LINE
  5
105
330
17
100
AcDbEntity
  8
A-WALL
100
AcDbLine
 10
-9.38732986450195
 20
-8.666212463378905
 30
0.0
 11
-8.587329864501953
 21
-8.216212463378906
 31
0.0
  0
LINE
  5
106
330
17
100
AcDbEntity
  8
A-WALL
100
AcDbLine
 10
-4.937329864501951
 20
-19.216212463378906
 30
0.0
 11
-4.937329864501951
 21
-18.416212463378905
 31
0.0
  0
LINE
  5
107
330
17
100
AcDbEntity
  8
A-WALL
100
AcDbLine
 10
-4.037329864501949
 20
12.683787536621097
 30
0.0
 11
-4.037329864501949
 21
13.833787536621095
 31
0.0
  0
LINE
  5
108
330
17
100
AcDbEntity
  8
A-WALL
100
AcDbLine
 10
23.162670135498047
 20
15.983787536621094
 30
0.0
 11
23.162670135498047
 21
16.783787536621098
 31
0.0
  0
LINE
  5
109
330
17
100
AcDbEntity
  8
A-WALL
100
AcDbLine
 10
-8.38732986450195
 20
-29.116212463378908
 30
0.0
 11
-6.737329864501952
 21
-29.116212463378908
 31
0.0
  0
LINE
  5
10A
330
17
100
AcDbEntity
  8
A-WALL
100
AcDbLine
 10
-5.587329864501953
 20
-19.216212463378906
 30
0.0
 11
-4.687329864501951
 21
-19.216212463378906
 31
0.0
  0
LINE
  5
10B
330
17
100
AcDbEntity
  8
A-WALL
100
AcDbLine
 10
15.762670135498048
 20
-1.1162124633789041
 30
0.0
 11
16.562670135498053
 21
-1.1162124633789041
 31
0.0
  0
LINE
  5
10C
330
17
100
AcDbEntity
  8
A-WALL
100
AcDbLine
 10
16.01267013549805
 20
2.8837875366210923
 30
0.0
 11
16.01267013549805
 21
1.6837875366210966
 31
0.0
  0
LINE
  5
10D
330
17
100
AcDbEntity
  8
A-WALL
100
AcDbLine
 10
-16.98732986450195
 20
17.033787536621098
 30
0.0
 11
-16.98732986450195
 21
18.033787536621098
 31
0.0
  0
LINE
  5
10E
330
17
100
AcDbEntity
  8
A-WALL
100
AcDbLine
 10
-6.337329864501953
 20
13.433787536621097
 30
0.0
 11
-5.337329864501953
 21
13.683787536621097
 31
0.0
  0
LINE
  5
10F
330
17
100
AcDbEntity
  8
A-WALL
100
AcDbLine
 10
-1.0873298645019531
 20
-3.3162124633789034
 30
0.0
 11
-1.0873298645019531
 21
-4.666212463378905
 31
0.0
  0
LINE
  5
110
330
17
100
AcDbEntity
  8
A-WALL
100
AcDbLine
 10
22.86267013549805
 20
11.183787536621097
 30
0.0
 11
24.26267013549805
 21
11.783787536621098
 31
0.0
  0
LINE
  5
111
330
17
100
AcDbEntity
  8
A-WALL
100
AcDbLine
 10
-16.23732986450195
 20
-4.516212463378906
 30
0.0
 11
-15.187329864501951
 21
-4.2162124633789055
 31
0.0
  0
LINE
  5
112
330
17
100
AcDbEntity
  8
A-WALL
100
AcDbLine
 10
-4.63732986450195
 20
22.083787536621095
 30
0.0
 11
-2.1373298645019503
 21
22.083787536621095
 31
0.0
  0
LINE
  5
113
330
17
100
AcDbEntity
  8
A-WALL
100
AcDbLine
 10
22.01267013549805
 20
12.333787536621095
 30
0.0
 11
22.96267013549805
 21
13.333787536621095
 31
0.0
  0
LINE
  5
114
330
17
100
AcDbEntity
  8
A-WALL
100
AcDbLine
 10
-3.037329864501949
 20
-4.266212463378906
 30
0.0
 11
-3.037329864501949
 21
-3.416212463378905
 31
0.0
  0
LINE
  5
115
330
17
100
AcDbEntity
  8
A-WALL
100
AcDbLine
 10
-10.787329864501952
 20
-1.2662124633789062
 30
0.0
 11
-10.787329864501952
 21
-2.416212463378905
 31
0.0
  0
LINE
  5
116
330
17
100
AcDbEntity
  8
A-WALL
100
AcDbLine
 10
-2.1873298645019545
 20
6.783787536621098
 30
0.0
 11
-1.1873298645019545
 21
6.383787536621099
 31
0.0
  0
LINE
  5
117
330
17
100
AcDbEntity
  8
A-WALL
100
AcDbLine
 10
22.562670135498053
 20
13.683787536621097
 30
0.0
 11
22.562670135498053
 21
14.933787536621097
 31
0.0
  0
LINE
  5
118
330
17
100
AcDbEntity
  8
A-WALL
100
AcDbLine
 10
26.76267013549805
 20
-1.9162124633789048
 30
0.0
 11
26.76267013549805
 21
-2.8162124633789034
 31
0.0
  0
LINE
  5
119
330
17
100
AcDbEntity
  8
A-WALL
100
AcDbLine
 10
-5.38732986450195
 20
12.533787536621098
 30
0.0
 11
-4.487329864501952
 21
12.533787536621098
 31
0.0
  0
LINE
  5
11A
330
17
100
AcDbEntity
  8
A-WALL
100
AcDbLine
 10
-4.537329864501952
 20
14.283787536621098
 30
0.0
 11
-2.8873298645019503
 21
14.283787536621098
 31
0.0
  0
LINE
  5
11B
330
17
100
AcDbEntity
  8
A-WALL
100
AcDbLine
 10
23.01267013549805
 20
9.3837875366211
 30
0.0
 11
24.01267013549805
 21
10.333787536621095
 31
0.0
  0
LINE
  5
11C
330
17
100
AcDbEntity
  8
A-WALL
100
AcDbLine
 10
21.562670135498053
 20
1.1837875366210966
 30
0.0
 11
21.86267013549805
 21
2.1337875366210923
 31
0.0
  0
LINE
  5
11D
330
17
100
AcDbEntity
  8
A-WALL
100
AcDbLine
 10
-1.7873298645019489
 20
-18.716212463378906
 30
0.0
 11
-0.2373298645019517
 21
-18.716212463378906
 31
0.0
  0
LINE
  5
11E
330
17
100
AcDbEntity
  8
A-WALL
100
AcDbLine
 10
26.662670135498047
 20
11.583787536621095
 30
0.0
 11
26.662670135498047
 21
8.6337875366211
 31
0.0
  0
LINE
  5
11F
330
17
100
AcDbEntity
  8
A-WALL
100
AcDbLine
 10
25.01267013549805
 20
9.833787536621095
 30
0.0
 11
25.412670135498047
 21
10.783787536621098
 31
0.0
  0
LINE
  5
120
330
17
100
AcDbEntity
  8
A-WALL
100
AcDbLine
 10
-3.037329864501949
 20
-20.616212463378908
 30
0.0
 11
-1.8373298645019531
 21
-20.616212463378908
 31
0.0
  0
LINE
  5
121
330
17
100
AcDbEntity
  8
A-WALL
100
AcDbLine
 10
22.312670135498053
 20
-2.8162124633789034
 30
0.0
 11
22.312670135498053
 21
-4.266212463378906
 31
0.0
  0
LINE
  5
122
330
17
100
AcDbEntity
  8
A-WALL
100
AcDbLine
 10
-6.087329864501953
 20
-30.716212463378906
 30
0.0
 11
-6.087329864501953
 21
-29.266212463378906
 31
0.0
  0
LINE
  5
123
330
17
100
AcDbEntity
  8
A-WALL
100
AcDbLine
 10
-5.487329864501952
 20
4.383787536621092
 30
0.0
 11
-4.687329864501951
 21
4.633787536621092
 31
0.0
  0
LINE
  5
124
330
17
100
AcDbEntity
  8
A-WALL
100
AcDbLine
 10
14.562670135498053
 20
1.7337875366210938
 30
0.0
 11
14.562670135498053
 21
2.6337875366210923
 31
0.0
  0
LINE
  5
125
330
17
100
AcDbEntity
  8
A-WALL
100
AcDbLine
 10
10.662670135498047
 20
-10.766212463378906
 30
0.0
 11
10.662670135498047
 21
-11.666212463378905
 31
0.0
  0
LINE
  5
126
330
17
100
AcDbEntity
  8
A-WALL
100
AcDbLine
 10
25.562670135498053
 20
-4.666212463378905
 30
0.0
 11
26.36267013549805
 21
-4.916212463378905
 31
0.0
  0
LINE
  5
127
330
17
100
AcDbEntity
  8
A-WALL
100
AcDbLine
 10
14.512670135498048
 20
6.783787536621098
 30
0.0
 11
15.312670135498053
 21
6.783787536621098
 31
0.0
  0
LINE
  5
128
330
17
100
AcDbEntity
  8
A-WALL
100
AcDbLine
 10
16.162670135498047
 20
2.6837875366210966
 30
0.0
 11
16.162670135498047
 21
1.8337875366210952
 31
0.0
  0
LINE
  5
129
330
17
100
AcDbEntity
  8
A-WALL
100
AcDbLine
 10
15.562670135498053
 20
-21.316212463378903
 30
0.0
 11
15.562670135498053
 21
-22.116212463378908
 31
0.0
  0
LINE
  5
12A
330
17
100
AcDbEntity
  8
A-WALL
100
AcDbLine
 10
-5.937329864501951
 20
-18.516212463378906
 30
0.0
 11
-4.987329864501952
 21
-17.666212463378905
 31
0.0
  0
LINE
  5
12B
330
17
100
AcDbEntity
  8
A-WALL
100
AcDbLine
 10
9.662670135498047
 20
11.033787536621098
 30
0.0
 11
10.512670135498048
 21
11.033787536621098
 31
0.0
  0
LINE
  5
12C
330
17
100
AcDbEntity
  8
A-WALL
100
AcDbLine
 10
-11.237329864501952
 20
-7.616212463378904
 30
0.0
 11
-10.087329864501953
 21
-7.616212463378904
 31
0.0
  0
LINE
  5
12D
330
17
100
AcDbEntity
  8
A-WALL
100
AcDbLine
 10
-0.43732986450195455
 20
19.683787536621097
 30
0.0
 11
0.8126701354980455
 21
19.683787536621097
 31
0.0
  0
LINE
  5
12E
330
17
100
AcDbEntity
  8
A-WALL
100
AcDbLine
 10
-10.837329864501953
 20
18.483787536621094
 30
0.0
 11
-9.687329864501951
 21
18.483787536621094
 31
0.0
  0
LINE
  5
12F
330
17
100
AcDbEntity
  8
A-WALL
100
AcDbLine
 10
-7.587329864501953
 20
-29.066212463378907
 30
0.0
 11
-6.187329864501951
 21
-29.066212463378907
 31
0.0
  0
LINE
  5
130
330
17
100
AcDbEntity
  8
A-WALL
100
AcDbLine
 10
-6.63732986450195
 20
-18.516212463378906
 30
0.0
 11
-5.787329864501952
 21
-17.616212463378908
 31
0.0
  0
LINE
  5
131
330
17
100
AcDbEntity
  8
A-WALL
100
AcDbLine
 10
-1.9373298645019545
 20
5.633787536621092
 30
0.0
 11
-0.8873298645019503
 21
5.433787536621097
 31
0.0
  0
LINE
  5
132
330
17
100
AcDbEntity
  8
A-WALL
100
AcDbLine
 10
-6.537329864501952
 20
-18.466212463378906
 30
0.0
 11
-5.237329864501952
 21
-17.616212463378908
 31
0.0
  0
LINE
  5
133
330
17
100
AcDbEntity
  8
A-WALL
100
AcDbLine
 10
14.412670135498047
 20
9.683787536621097
 30
0.0
 11
15.212670135498051
 21
10.033787536621098
 31
0.0
  0
LINE
  5
134
330
17
100
AcDbEntity
  8
A-WALL
100
AcDbLine
 10
15.462670135498051
 20
5.633787536621092
 30
0.0
 11
15.462670135498051
 21
4.783787536621098
 31
0.0
  0
LINE
  5
135
330
17
100
AcDbEntity
  8
A-WALL
100
AcDbLine
 10
-4.88732986450195
 20
-19.016212463378906
 30
0.0
 11
-4.037329864501949
 21
-19.216212463378906
 31
0.0
  0
LINE
  5
136
330
17
100
AcDbEntity
  8
A-WALL
100
AcDbLine
 10
-0.43732986450195455
 20
19.3837875366211
 30
0.0
 11
0.3626701354980497
 21
18.583787536621095
 31
0.0
  0
LINE
  5
137
330
17
100
AcDbEntity
  8
A-DOOR
100
AcDbLine
 10
-28.9373
 20
0.6838
 30
0.0
 11
-28.9373
 21
1.9837999999999993
 31
0.0
  0
ARC
  5
138
330
17
100
AcDbEntity
  8
A-DOOR
100
AcDbCircle
 10
-28.9373
 20
0.6838
 30
0.0
 40
1.3
100
AcDbArc
 50
90.0
 51
180.0
  0
LINE
  5
139
330
17
100
AcDbEntity
  8
A-DOOR
100
AcDbLine
 10
-11.6873
 20
-19.6162
 30
0.0
 11
-10.5873
 21
-19.6162
 31
0.0
  0
ARC
  5
13A
330
17
100
AcDbEntity
  8
A-DOOR
100
AcDbCircle
 10
-11.6873
 20
-19.6162
 30
0.0
 40
1.1
100
AcDbArc
 50
0.0
 51
90.0
  0
LINE
  5
13B
330
17
100
AcDbEntity
  8
A-DOOR
100
AcDbLine
 10
-13.7873
 20
-4.8162
 30
0.0
 11
-12.6873
 21
-4.8162
 31
0.0
  0
ARC
  5
13C
330
17
100
AcDbEntity
  8
A-DOOR
100
AcDbCircle
 10
-13.7873
 20
-4.8162
 30
0.0
 40
1.1
100
AcDbArc
 50
0.0
 51
90.0
  0
LINE
  5
13D
330
17
100
AcDbEntity
  8
A-DOOR
100
AcDbLine
 10
-2.0873
 20
0.6338
 30
0.0
 11
-1.237299999999999
 21
0.6338
 31
0.0
  0
ARC
  5
13E
330
17
100
AcDbEntity
  8
A-DOOR
100
AcDbCircle
 10
-2.0873
 20
0.6338
 30
0.0
 40
0.85
100
AcDbArc
 50
0.0
 51
90.0
  0
LINE
  5
13F
330
17
100
AcDbEntity
  8
A-DOOR
100
AcDbLine
 10
-25.4873
 20
-18.0162
 30
0.0
 11
-24.7373
 21
-18.0162
 31
0.0
  0
ARC
  5
140
330
17
100
AcDbEntity
  8
A-DOOR
100
AcDbCircle
 10
-25.4873
 20
-18.0162
 30
0.0
 40
0.75
100
AcDbArc
 50
0.0
 51
90.0
  0
LINE
  5
141
330
17
100
AcDbEntity
  8
A-DOOR
100
AcDbLine
 10
-5.5873
 20
-30.7162
 30
0.0
 11
-4.7873
 21
-30.7162
 31
0.0
  0
ARC
  5
142
330
17
100
AcDbEntity
  8
A-DOOR
100
AcDbCircle
 10
-5.5873
 20
-30.7162
 30
0.0
 40
0.8
100
AcDbArc
 50
0.0
 51
90.0
  0
LINE
  5
143
330
17
100
AcDbEntity
  8
A-DOOR
100
AcDbLine
 10
-4.2373
 20
-30.7162
 30
0.0
 11
-3.1873000000000005
 21
-30.7162
 31
0.0
  0
ARC
  5
144
330
17
100
AcDbEntity
  8
A-DOOR
100
AcDbCircle
 10
-4.2373
 20
-30.7162
 30
0.0
 40
1.05
100
AcDbArc
 50
0.0
 51
90.0
  0
LINE
  5
145
330
17
100
AcDbEntity
  8
A-DOOR
100
AcDbLine
 10
-4.7373
 20
-2.4662
 30
0.0
 11
-4.7373
 21
-1.6661999999999992
 31
0.0
  0
ARC
  5
146
330
17
100
AcDbEntity
  8
A-DOOR
100
AcDbCircle
 10
-4.7373
 20
-2.4662
 30
0.0
 40
0.8
100
AcDbArc
 50
90.0
 51
180.0
  0
LINE
  5
147
330
17
100
AcDbEntity
  8
A-DOOR
100
AcDbLine
 10
-17.1873
 20
-15.8662
 30
0.0
 11
-17.1873
 21
-15.0162
 31
0.0
  0
ARC
  5
148
330
17
100
AcDbEntity
  8
A-DOOR
100
AcDbCircle
 10
-17.1873
 20
-15.8662
 30
0.0
 40
0.85
100
AcDbArc
 50
90.0
 51
180.0
  0
LINE
  5
149
330
17
100
AcDbEntity
  8
A-DOOR
100
AcDbLine
 10
-17.1873
 20
-0.9662
 30
0.0
 11
-17.1873
 21
-0.21619999999999928
 31
0.0
  0
ARC
  5
14A
330
17
100
AcDbEntity
  8
A-DOOR
100
AcDbCircle
 10
-17.1873
 20
-0.9662
 30
0.0
 40
0.75
100
AcDbArc
 50
90.0
 51
180.0
  0
LINE
  5
14B
330
17
100
AcDbEntity
  8
A-DOOR
100
AcDbLine
 10
-17.0873
 20
-15.8662
 30
0.0
 11
-17.0873
 21
-14.566199999999998
 31
0.0
  0
ARC
  5
14C
330
17
100
AcDbEntity
  8
A-DOOR
100
AcDbCircle
 10
-17.0873
 20
-15.8662
 30
0.0
 40
1.3
100
AcDbArc
 50
90.0
 51
180.0
  0
LINE
  5
14D
330
17
100
AcDbEntity
  8
A-DOOR
100
AcDbLine
 10
-17.0873
 20
-14.1662
 30
0.0
 11
-17.0873
 21
-13.4162
 31
0.0
  0
ARC
  5
14E
330
17
100
AcDbEntity
  8
A-DOOR
100
AcDbCircle
 10
-17.0873
 20
-14.1662
 30
0.0
 40
0.75
100
AcDbArc
 50
90.0
 51
180.0
  0
LINE
  5
14F
330
17
100
AcDbEntity
  8
A-DOOR
100
AcDbLine
 10
-17.2373
 20
5.3838
 30
0.0
 11
-17.2373
 21
6.283800000000002
 31
0.0
  0
ARC
  5
150
330
17
100
AcDbEntity
  8
A-DOOR
100
AcDbCircle
 10
-17.2373
 20
5.3838
 30
0.0
 40
0.9
100
AcDbArc
 50
90.0
 51
180.0
  0
LINE
  5
151
330
17
100
AcDbEntity
  8
A-DOOR
100
AcDbLine
 10
-1.9373
 20
26.0838
 30
0.0
 11
-1.9373
 21
26.933799999999998
 31
0.0
  0
ARC
  5
152
330
17
100
AcDbEntity
  8
A-DOOR
100
AcDbCircle
 10
-1.9373
 20
26.0838
 30
0.0
 40
0.85
100
AcDbArc
 50
90.0
 51
180.0
  0
LINE
  5
153
330
17
100
AcDbEntity
  8
A-DOOR
100
AcDbLine
 10
-31.1873
 20
-10.3162
 30
0.0
 11
-28.6873
 21
-10.3162
 31
0.0
  0
ARC
  5
154
330
17
100
AcDbEntity
  8
A-DOOR
100
AcDbCircle
 10
-31.1873
 20
-10.3162
 30
0.0
 40
2.5
100
AcDbArc
 50
0.0
 51
90.0
  0
LINE
  5
155
330
17
100
AcDbEntity
  8
A-DOOR
100
AcDbLine
 10
-8.4373
 20
15.1338
 30
0.0
 11
-7.7373
 21
15.1338
 31
0.0
  0
ARC
  5
156
330
17
100
AcDbEntity
  8
A-DOOR
100
AcDbCircle
 10
-8.4373
 20
15.1338
 30
0.0
 40
0.7
100
AcDbArc
 50
0.0
 51
90.0
  0
LINE
  5
157
330
17
100
AcDbEntity
  8
A-DOOR
100
AcDbLine
 10
-34.1373
 20
-10.7162
 30
0.0
 11
-32.3873
 21
-10.7162
 31
0.0
  0
ARC
  5
158
330
17
100
AcDbEntity
  8
A-DOOR
100
AcDbCircle
 10
-34.1373
 20
-10.7162
 30
0.0
 40
1.75
100
AcDbArc
 50
0.0
 51
90.0
  0
LINE
  5
159
330
17
100
AcDbEntity
  8
A-DOOR
100
AcDbLine
 10
7.1627
 20
-31.2162
 30
0.0
 11
8.0127
 21
-31.2162
 31
0.0
  0
ARC
  5
15A
330
17
100
AcDbEntity
  8
A-DOOR
100
AcDbCircle
 10
7.1627
 20
-31.2162
 30
0.0
 40
0.85
100
AcDbArc
 50
0.0
 51
90.0
  0
LINE
  5
15B
330
17
100
AcDbEntity
  8
A-DOOR
100
AcDbLine
 10
-17.3373
 20
11.8838
 30
0.0
 11
-17.3373
 21
13.233800000000002
 31
0.0
  0
ARC
  5
15C
330
17
100
AcDbEntity
  8
A-DOOR
100
AcDbCircle
 10
-17.3373
 20
11.8838
 30
0.0
 40
1.35
100
AcDbArc
 50
90.0
 51
180.0
  0
LINE
  5
15D
330
17
100
AcDbEntity
  8
A-DOOR
100
AcDbLine
 10
-9.0373
 20
-0.2662
 30
0.0
 11
-7.5373
 21
-0.2662
 31
0.0
  0
ARC
  5
15E
330
17
100
AcDbEntity
  8
A-DOOR
100
AcDbCircle
 10
-9.0373
 20
-0.2662
 30
0.0
 40
1.5
100
AcDbArc
 50
0.0
 51
90.0
  0
LINE
  5
15F
330
17
100
AcDbEntity
  8
A-DOOR
100
AcDbLine
 10
-8.3373
 20
-29.1162
 30
0.0
 11
-7.087300000000002
 21
-29.1162
 31
0.0
  0
ARC
  5
160
330
17
100
AcDbEntity
  8
A-DOOR
100
AcDbCircle
 10
-8.3373
 20
-29.1162
 30
0.0
 40
1.25
100
AcDbArc
 50
0.0
 51
90.0
  0
LINE
  5
161
330
17
100
AcDbEntity
  8
A-DOOR
100
AcDbLine
 10
10.6627
 20
-10.7662
 30
0.0
 11
10.6627
 21
-11.666199999999998
 31
0.0
  0
ARC
  5
162
330
17
100
AcDbEntity
  8
A-DOOR
100
AcDbCircle
 10
10.6627
 20
-10.7662
 30
0.0
 40
0.9
100
AcDbArc
 50
-90.0
 51
0.0
  0
LINE
  5
163
330
17
100
AcDbEntity
  8
A-DOOR
100
AcDbLine
 10
-11.1873
 20
-7.6162
 30
0.0
 11
-10.137300000000002
 21
-7.6162
 31
0.0
  0
ARC
  5
164
330
17
100
AcDbEntity
  8
A-DOOR
100
AcDbCircle
 10
-11.1873
 20
-7.6162
 30
0.0
 40
1.05
100
AcDbArc
 50
0.0
 51
90.0
  0
LINE
  5
165
330
17
100
AcDbEntity
  8
A-WINDOW
100
AcDbLine
 10
-17.0873
 20
-11.9162
 30
0.0
 11
-17.0873
 21
-11.316199999999998
 31
0.0
  0
LINE
  5
166
330
17
100
AcDbEntity
  8
A-WINDOW
100
AcDbLine
 10
-17.1873
 20
-11.9162
 30
0.0
 11
-17.1873
 21
-11.316199999999998
 31
0.0
  0
LINE
  5
167
330
17
100
AcDbEntity
  8
A-WINDOW
100
AcDbLine
 10
-10.087299999999999
 20
-10.2162
 30
0.0
 11
-10.087299999999999
 21
-9.6162
 31
0.0
  0
LINE
  5
168
330
17
100
AcDbEntity
  8
A-WINDOW
100
AcDbLine
 10
-10.1873
 20
-10.2162
 30
0.0
 11
-10.1873
 21
-9.6162
 31
0.0
  0
LINE
  5
169
330
17
100
AcDbEntity
  8
A-WINDOW
100
AcDbLine
 10
8.9127
 20
15.4338
 30
0.0
 11
9.6627
 21
15.4338
 31
0.0
  0
LINE
  5
16A
330
17
100
AcDbEntity
  8
A-WINDOW
100
AcDbLine
 10
8.9127
 20
15.533800000000001
 30
0.0
 11
9.6627
 21
15.533800000000001
 31
0.0
  0
LINE
  5
16B
330
17
100
AcDbEntity
  8
A-WINDOW
100
AcDbLine
 10
10.2127
 20
-0.16620000000000001
 30
0.0
 11
11.062700000000001
 21
-0.16620000000000001
 31
0.0
  0
LINE
  5
16C
330
17
100
AcDbEntity
  8
A-WINDOW
100
AcDbLine
 10
10.2127
 20
-0.06619999999999998
 30
0.0
 11
11.062700000000001
 21
-0.06619999999999998
 31
0.0
  0
LINE
  5
16D
330
17
100
AcDbEntity
  8
A-WINDOW
100
AcDbLine
 10
-7.4873
 20
-5.0161999999999995
 30
0.0
 11
-6.9873
 21
-5.0161999999999995
 31
0.0
  0
LINE
  5
16E
330
17
100
AcDbEntity
  8
A-WINDOW
100
AcDbLine
 10
-7.4873
 20
-4.9162
 30
0.0
 11
-6.9873
 21
-4.9162
 31
0.0
  0
LINE
  5
16F
330
17
100
AcDbEntity
  8
A-WINDOW
100
AcDbLine
 10
-12.6373
 20
-17.4662
 30
0.0
 11
-12.1373
 21
-17.4662
 31
0.0
  0
LINE
  5
170
330
17
100
AcDbEntity
  8
A-WINDOW
100
AcDbLine
 10
-12.6373
 20
-17.3662
 30
0.0
 11
-12.1373
 21
-17.3662
 31
0.0
  0
LINE
  5
171
330
17
100
AcDbEntity
  8
A-WINDOW
100
AcDbLine
 10
25.6627
 20
0.13379999999999984
 30
0.0
 11
26.6627
 21
0.13379999999999984
 31
0.0
  0
LINE
  5
172
330
17
100
AcDbEntity
  8
A-WINDOW
100
AcDbLine
 10
25.6627
 20
0.23380000000000015
 30
0.0
 11
26.6627
 21
0.23380000000000015
 31
0.0
  0
LINE
  5
173
330
17
100
AcDbEntity
  8
A-WINDOW
100
AcDbLine
 10
12.3127
 20
2.8338
 30
0.0
 11
12.8127
 21
2.8338
 31
0.0
  0
LINE
  5
174
330
17
100
AcDbEntity
  8
A-WINDOW
100
AcDbLine
 10
12.3127
 20
2.9337999999999997
 30
0.0
 11
12.8127
 21
2.9337999999999997
 31
0.0
  0
LINE
  5
175
330
17
100
AcDbEntity
  8
A-WINDOW
100
AcDbLine
 10
-17.0373
 20
-11.9162
 30
0.0
 11
-17.0373
 21
-11.316199999999998
 31
0.0
  0
LINE
  5
176
330
17
100
AcDbEntity
  8
A-WINDOW
100
AcDbLine
 10
-17.1373
 20
-11.9162
 30
0.0
 11
-17.1373
 21
-11.316199999999998
 31
0.0
  0
LINE
  5
177
330
17
100
AcDbEntity
  8
A-WINDOW
100
AcDbLine
 10
25.723278035517037
 20
8.884942161611013
 30
0.0
 11
26.651564211062965
 21
9.086743504120998
 31
0.0
  0
LINE
  5
178
330
17
100
AcDbEntity
  8
A-WINDOW
100
AcDbLine
 10
25.702035788937035
 20
8.982656495879004
 30
0.0
 11
26.630321964482963
 21
9.184457838388989
 31
0.0
  0
LINE
  5
179
330
17
100
AcDbEntity
  8
A-WINDOW
100
AcDbLine
 10
-7.487299999999999
 20
-4.9662
 30
0.0
 11
-6.9373000000000005
 21
-4.9662
 31
0.0
  0
LINE
  5
17A
330
17
100
AcDbEntity
  8
A-WINDOW
100
AcDbLine
 10
-7.487299999999999
 20
-4.8662
 30
0.0
 11
-6.9373000000000005
 21
-4.8662
 31
0.0
  0
LINE
  5
17B
330
17
100
AcDbEntity
  8
A-WINDOW
100
AcDbLine
 10
8.0127
 20
-4.1662
 30
0.0
 11
9.0127
 21
-4.1662
 31
0.0
  0
LINE
  5
17C
330
17
100
AcDbEntity
  8
A-WINDOW
100
AcDbLine
 10
8.0127
 20
-4.0662
 30
0.0
 11
9.0127
 21
-4.0662
 31
0.0
  0
LINE
  5
17D
330
17
100
AcDbEntity
  8
A-WINDOW
100
AcDbLine
 10
21.748759482216915
 20
3.599231909010931
 30
0.0
 11
22.854703933643332
 21
4.755446562774918
 31
0.0
  0
LINE
  5
17E
330
17
100
AcDbEntity
  8
A-WINDOW
100
AcDbLine
 10
21.676496066356666
 20
3.6683534372250817
 30
0.0
 11
22.782440517783083
 21
4.824568090989069
 31
0.0
  0
LINE
  5
17F
330
17
100
AcDbEntity
  8
A-WINDOW
100
AcDbLine
 10
-9.287300000000002
 20
-0.21620000000000006
 30
0.0
 11
-7.087299999999999
 21
-0.21620000000000006
 31
0.0
  0
LINE
  5
180
330
17
100
AcDbEntity
  8
A-WINDOW
100
AcDbLine
 10
-9.287300000000002
 20
-0.11619999999999993
 30
0.0
 11
-7.087299999999999
 21
-0.11619999999999993
 31
0.0
  0
LINE
  5
181
330
17
100
AcDbEntity
  8
A-WINDOW
100
AcDbLine
 10
23.548029149726002
 20
5.398420293441752
 30
0.0
 11
24.75007970655825
 21
6.6004708502739975
 31
0.0
  0
LINE
  5
182
330
17
100
AcDbEntity
  8
A-WINDOW
100
AcDbLine
 10
23.477320293441753
 20
5.469129149726002
 30
0.0
 11
24.679370850274
 21
6.671179706558248
 31
0.0
  0
LINE
  5
183
330
17
100
AcDbEntity
  8
A-WINDOW
100
AcDbLine
 10
-16.537300000000002
 20
-0.6662
 30
0.0
 11
-15.3873
 21
-0.6662
 31
0.0
  0
LINE
  5
184
330
17
100
AcDbEntity
  8
A-WINDOW
100
AcDbLine
 10
-16.537300000000002
 20
-0.5661999999999999
 30
0.0
 11
-15.3873
 21
-0.5661999999999999
 31
0.0
  0
LINE
  5
185
330
17
100
AcDbEntity
  8
A-WINDOW
100
AcDbLine
 10
24.02358004338395
 20
8.13495618221258
 30
0.0
 11
24.950911930585683
 21
8.34102993492408
 31
0.0
  0
LINE
  5
186
330
17
100
AcDbEntity
  8
A-WINDOW
100
AcDbLine
 10
24.00188806941432
 20
8.232570065075919
 30
0.0
 11
24.929219956616052
 21
8.438643817787419
 31
0.0
  0
LINE
  5
187
330
17
100
AcDbEntity
  8
A-WINDOW
100
AcDbLine
 10
22.76036158434741
 20
5.168855977093774
 30
0.0
 11
23.013881030780244
 21
5.980118205678835
 31
0.0
  0
LINE
  5
188
330
17
100
AcDbEntity
  8
A-WINDOW
100
AcDbLine
 10
22.66491896921976
 20
5.198681794321166
 30
0.0
 11
22.91843841565259
 21
6.009944022906227
 31
0.0
  0
LINE
  5
189
330
17
100
AcDbEntity
  8
A-WINDOW
100
AcDbLine
 10
-1.4872999999999994
 20
4.0338
 30
0.0
 11
-0.5873000000000008
 21
4.0338
 31
0.0
  0
LINE
  5
18A
330
17
100
AcDbEntity
  8
A-WINDOW
100
AcDbLine
 10
-1.4872999999999994
 20
4.1338
 30
0.0
 11
-0.5873000000000008
 21
4.1338
 31
0.0
  0
LINE
  5
18B
330
17
100
AcDbEntity
  8
A-WINDOW
100
AcDbLine
 10
23.02187315395011
 20
5.834627337510748
 30
0.0
 11
23.85735662857845
 21
5.991280489003566
 31
0.0
  0
LINE
  5
18C
330
17
100
AcDbEntity
  8
A-WINDOW
100
AcDbLine
 10
23.003443371421547
 20
5.9329195109964346
 30
0.0
 11
23.838926846049887
 21
6.089572662489253
 31
0.0
  0
LINE
  5
18D
330
17
100
AcDbEntity
  8
A-WINDOW
100
AcDbLine
 10
25.86154243497375
 20
8.123055721089269
 30
0.0
 11
26.214149590914637
 21
9.734974148247648
 31
0.0
  0
LINE
  5
18E
330
17
100
AcDbEntity
  8
A-WINDOW
100
AcDbLine
 10
25.763850409085364
 20
8.144425851752352
 30
0.0
 11
26.116457565026252
 21
9.756344278910731
 31
0.0
  0
LINE
  5
18F
330
17
100
AcDbEntity
  8
A-WINDOW
100
AcDbLine
 10
24.51059322799097
 20
9.919676072234763
 30
0.0
 11
24.764543566591424
 21
10.783107223476298
 31
0.0
  0
LINE
  5
190
330
17
100
AcDbEntity
  8
A-WINDOW
100
AcDbLine
 10
24.414656433408577
 20
9.947892776523704
 30
0.0
 11
24.66860677200903
 21
10.811323927765239
 31
0.0
  0
LINE
  5
191
330
17
100
AcDbEntity
  8
A-WINDOW
100
AcDbLine
 10
24.801451261156384
 20
8.20222056655025
 30
0.0
 11
25.463558362436938
 21
9.017121614280173
 31
0.0
  0
LINE
  5
192
330
17
100
AcDbEntity
  8
A-WINDOW
100
AcDbLine
 10
24.72384163756306
 20
8.265278385719826
 30
0.0
 11
25.385948738843613
 21
9.080179433449748
 31
0.0
  0
LINE
  5
193
330
17
100
AcDbEntity
  8
A-WINDOW
100
AcDbLine
 10
23.21084699710952
 20
7.470458355636438
 30
0.0
 11
23.465102430146665
 21
8.385777914570177
 31
0.0
  0
LINE
  5
194
330
17
100
AcDbEntity
  8
A-WINDOW
100
AcDbLine
 10
23.114497569853334
 20
7.497222085429822
 30
0.0
 11
23.36875300289048
 21
8.41254164436356
 31
0.0
  0
LINE
  5
195
330
17
100
AcDbEntity
  8
A-WINDOW
100
AcDbLine
 10
22.46166785644244
 20
5.423987330849186
 30
0.0
 11
22.667590586389487
 21
6.4536009805844285
 31
0.0
  0
LINE
  5
196
330
17
100
AcDbEntity
  8
A-WINDOW
100
AcDbLine
 10
22.36360941361051
 20
5.443599019415571
 30
0.0
 11
22.56953214355756
 21
6.473212669150814
 31
0.0
  0
LINE
  5
197
330
17
100
AcDbEntity
  8
A-WINDOW
100
AcDbLine
 10
23.40125421850876
 20
8.901939297066567
 30
0.0
 11
24.132341313232224
 21
9.789687912087912
 31
0.0
  0
LINE
  5
198
330
17
100
AcDbEntity
  8
A-WINDOW
100
AcDbLine
 10
23.324058686767778
 20
8.965512087912087
 30
0.0
 11
24.05514578149124
 21
9.853260702933431
 31
0.0
  0
LINE
  5
199
330
17
100
AcDbEntity
  8
A-WINDOW
100
AcDbLine
 10
8.362699999999998
 20
-7.6662
 30
0.0
 11
9.0127
 21
-7.6662
 31
0.0
  0
LINE
  5
19A
330
17
100
AcDbEntity
  8
A-WINDOW
100
AcDbLine
 10
8.362699999999998
 20
-7.5662
 30
0.0
 11
9.0127
 21
-7.5662
 31
0.0
  0
LINE
  5
19B
330
17
100
AcDbEntity
  8
A-WINDOW
100
AcDbLine
 10
24.40466610035559
 20
9.956652548399841
 30
0.0
 11
24.975092809166334
 21
10.838221098380089
 31
0.0
  0
LINE
  5
19C
330
17
100
AcDbEntity
  8
A-WINDOW
100
AcDbLine
 10
24.320707190833666
 20
10.01097890161991
 30
0.0
 11
24.89113389964441
 21
10.892547451600159
 31
0.0
  0
LINE
  5
19D
330
17
100
AcDbEntity
  8
A-WINDOW
100
AcDbLine
 10
-2.20594791086351
 20
6.737345868152275
 30
0.0
 11
-1.1845922934076136
 21
6.328803621169918
 31
0.0
  0
LINE
  5
19E
330
17
100
AcDbEntity
  8
A-WINDOW
100
AcDbLine
 10
-2.1688077065923865
 20
6.830196378830083
 30
0.0
 11
-1.14745208913649
 21
6.421654131847726
 31
0.0
  0
LINE
  5
19F
330
17
100
AcDbEntity
  8
A-WINDOW
100
AcDbLine
 10
23.04713395200464
 20
9.347521112158343
 30
0.0
 11
24.06214156456173
 21
10.311778344087578
 31
0.0
  0
LINE
  5
1A0
330
17
100
AcDbEntity
  8
A-WINDOW
100
AcDbLine
 10
22.978258435438267
 20
9.420021655912421
 30
0.0
 11
23.99326604799536
 21
10.384278887841656
 31
0.0
  0
LINE
  5
1A1
330
17
100
AcDbEntity
  8
A-WINDOW
100
AcDbLine
 10
25.058755452076056
 20
9.814350097012028
 30
0.0
 11
25.466205975941016
 21
10.78204509119131
 31
0.0
  0
LINE
  5
1A2
330
17
100
AcDbEntity
  8
A-WINDOW
100
AcDbLine
 10
24.966594024058985
 20
9.85315490880869
 30
0.0
 11
25.374044547923944
 21
10.820849902987973
 31
0.0
  0
LINE
  5
1A3
330
17
100
AcDbEntity
  8
A-WINDOW
100
AcDbLine
 10
25.690937938439514
 20
-4.758630947267955
 30
0.0
 11
26.359036244333094
 21
-4.9674116678596985
 31
0.0
  0
LINE
  5
1A4
330
17
100
AcDbEntity
  8
A-WINDOW
100
AcDbLine
 10
25.720763755666905
 20
-4.663188332140301
 30
0.0
 11
26.388862061560484
 21
-4.8719690527320445
 31
0.0
  0
LINE
  5
1A5
330
17
100
AcDbEntity
  8
A-WINDOW
100
AcDbLine
 10
9.6627
 20
10.983799999999999
 30
0.0
 11
10.562700000000001
 21
10.983799999999999
 31
0.0
  0
LINE
  5
1A6
330
17
100
AcDbEntity
  8
A-WINDOW
100
AcDbLine
 10
9.6627
 20
11.0838
 30
0.0
 11
10.562700000000001
 21
11.0838
 31
0.0
  0
LINE
  5
1A7
330
17
100
AcDbEntity
  8
A-WINDOW
100
AcDbLine
 10
-1.9466304612218188
 20
5.584693619608942
 30
0.0
 11
-0.8660803629899871
 21
5.378874553279074
 31
0.0
  0
LINE
  5
1A8
330
17
100
AcDbEntity
  8
A-WINDOW
100
AcDbLine
 10
-1.927919637010013
 20
5.682925446720926
 30
0.0
 11
-0.8473695387781812
 21
5.477106380391058
 31
0.0
  0
TEXT
  5
1A9
330
17
100
AcDbEntity
  8
A-TEXT
100
AcDbText
 10
-36.33732986450195
 20
-34.016212463378906
 30
0.0
 40
0.4
  1
Floor 1  —  259 walls  ·  23 doors  ·  34 windows
 11
-36.33732986450195
 21
-34.016212463378906
 31
0.0
100
AcDbText
  0
ENDSEC
  0
SECTION
  2
OBJECTS
  0
DICTIONARY
  5
A
330
0
100
AcDbDictionary
281
1
  3
ACAD_COLOR
350
B
  3
ACAD_GROUP
350
C
  3
ACAD_LAYOUT
350
D
  3
ACAD_MATERIAL
350
E
  3
ACAD_MLEADERSTYLE
350
F
  3
ACAD_MLINESTYLE
350
10
  3
ACAD_PLOTSETTINGS
350
11
  3
ACAD_PLOTSTYLENAME
350
12
  3
ACAD_SCALELIST
350
14
  3
ACAD_TABLESTYLE
350
15
  3
ACAD_VISUALSTYLE
350
16
  3
EZDXF_META
350
2D
  0
DICTIONARY
  5
B
330
A
100
AcDbDictionary
281
1
  0
DICTIONARY
  5
C
330
A
100
AcDbDictionary
281
1
  0
DICTIONARY
  5
D
330
A
100
AcDbDictionary
281
1
  3
Model
350
1A
  3
Layout1
350
1E
  0
DICTIONARY
  5
E
330
A
100
AcDbDictionary
281
1
  3
ByBlock
350
1F
  3
ByLayer
350
20
  3
Global
350
21
  0
DICTIONARY
  5
F
330
A
100
AcDbDictionary
281
1
  3
Standard
350
2C
  0
DICTIONARY
  5
10
330
A
100
AcDbDictionary
281
1
  3
Standard
350
22
  0
DICTIONARY
  5
11
330
A
100
AcDbDictionary
281
1
  0
ACDBDICTIONARYWDFLT
  5
12
330
A
100
AcDbDictionary
281
1
  3
Normal
350
13
100
AcDbDictionaryWithDefault
340
13
  0
ACDBPLACEHOLDER
  5
13
330
12
  0
DICTIONARY
  5
14
330
A
100
AcDbDictionary
281
1
  0
DICTIONARY
  5
15
330
A
100
AcDbDictionary
281
1
  0
DICTIONARY
  5
16
330
A
100
AcDbDictionary
281
1
  0
LAYOUT
  5
1A
330
D
100
AcDbPlotSettings
  1

  4
A3
  6

 40
7.5
 41
20.0
 42
7.5
 43
20.0
 44
420.0
 45
297.0
 46
0.0
 47
0.0
 48
0.0
 49
0.0
140
0.0
141
0.0
142
1.0
143
1.0
 70
1024
 72
1
 73
0
 74
5
  7

 75
16
 76
0
 77
2
 78
300
147
1.0
148
0.0
149
0.0
100
AcDbLayout
  1
Model
 70
1
 71
0
 10
0.0
 20
0.0
 11
420.0
 21
297.0
 12
0.0
 22
0.0
 32
0.0
 14
1e+20
 24
1e+20
 34
1e+20
 15
-1e+20
 25
-1e+20
 35
-1e+20
146
0.0
 13
0.0
 23
0.0
 33
0.0
 16
1.0
 26
0.0
 36
0.0
 17
0.0
 27
1.0
 37
0.0
 76
1
330
17
  0
LAYOUT
  5
1E
330
D
100
AcDbPlotSettings
  1

  4
A3
  6

 40
7.5
 41
20.0
 42
7.5
 43
20.0
 44
420.0
 45
297.0
 46
0.0
 47
0.0
 48
0.0
 49
0.0
140
0.0
141
0.0
142
1.0
143
1.0
 70
0
 72
1
 73
0
 74
5
  7

 75
16
 76
0
 77
2
 78
300
147
1.0
148
0.0
149
0.0
100
AcDbLayout
  1
Layout1
 70
1
 71
1
 10
0.0
 20
0.0
 11
420.0
 21
297.0
 12
0.0
 22
0.0
 32
0.0
 14
1e+20
 24
1e+20
 34
1e+20
 15
-1e+20
 25
-1e+20
 35
-1e+20
146
0.0
 13
0.0
 23
0.0
 33
0.0
 16
1.0
 26
0.0
 36
0.0
 17
0.0
 27
1.0
 37
0.0
 76
1
330
1B
  0
MATERIAL
  5
1F
102
{ACAD_REACTORS
330
E
102
}
330
E
100
AcDbMaterial
  1
ByBlock
  2

 70
0
 40
1.0
 71
1
 41
1.0
 91
-1023410177
 42
1.0
 72
1
  3

 73
1
 74
1
 75
1
 44
0.5
 73
0
 45
1.0
 46
1.0
 77
1
  4

 78
1
 79
1
170
1
 48
1.0
171
1
  6

172
1
173
1
174
1
140
1.0
141
1.0
175
1
  7

176
1
177
1
178
1
143
1.0
179
1
  8

270
1
271
1
272
1
145
1.0
146
1.0
273
1
  9

274
1
275
1
276
1
 42
1.0
 72
1
  3

 73
1
 74
1
 75
1
 94
63
  0
MATERIAL
  5
20
102
{ACAD_REACTORS
330
E
102
}
330
E
100
AcDbMaterial
  1
ByLayer
  2

 70
0
 40
1.0
 71
1
 41
1.0
 91
-1023410177
 42
1.0
 72
1
  3

 73
1
 74
1
 75
1
 44
0.5
 73
0
 45
1.0
 46
1.0
 77
1
  4

 78
1
 79
1
170
1
 48
1.0
171
1
  6

172
1
173
1
174
1
140
1.0
141
1.0
175
1
  7

176
1
177
1
178
1
143
1.0
179
1
  8

270
1
271
1
272
1
145
1.0
146
1.0
273
1
  9

274
1
275
1
276
1
 42
1.0
 72
1
  3

 73
1
 74
1
 75
1
 94
63
  0
MATERIAL
  5
21
102
{ACAD_REACTORS
330
E
102
}
330
E
100
AcDbMaterial
  1
Global
  2

 70
0
 40
1.0
 71
1
 41
1.0
 91
-1023410177
 42
1.0
 72
1
  3

 73
1
 74
1
 75
1
 44
0.5
 73
0
 45
1.0
 46
1.0
 77
1
  4

 78
1
 79
1
170
1
 48
1.0
171
1
  6

172
1
173
1
174
1
140
1.0
141
1.0
175
1
  7

176
1
177
1
178
1
143
1.0
179
1
  8

270
1
271
1
272
1
145
1.0
146
1.0
273
1
  9

274
1
275
1
276
1
 42
1.0
 72
1
  3

 73
1
 74
1
 75
1
 94
63
  0
MLINESTYLE
  5
22
102
{ACAD_REACTORS
330
10
102
}
330
10
100
AcDbMlineStyle
  2
Standard
 70
0
  3

 62
256
 51
90.0
 52
90.0
 71
2
 49
0.5
 62
256
  6
BYLAYER
 49
-0.5
 62
256
  6
BYLAYER
  0
MLEADERSTYLE
  5
2C
102
{ACAD_REACTORS
330
F
102
}
330
F
100
AcDbMLeaderStyle
179
2
170
2
171
1
172
0
 90
2
 40
0.0
 41
0.0
173
1
 91
-1056964608
 92
-2
290
1
 42
2.0
291
1
 43
8.0
  3
Standard
 44
4.0
300

342
29
174
1
175
1
176
0
178
1
 93
-1056964608
 45
4.0
292
0
297
0
 46
4.0
 94
-1056964608
 47
1.0
 49
1.0
140
1.0
294
1
141
0.0
177
0
142
1.0
295
0
296
0
143
3.75
271
0
272
9
273
9
  0
DICTIONARY
  5
2D
330
A
100
AcDbDictionary
280
1
281
1
  3
CREATED_BY_EZDXF
350
2E
  3
WRITTEN_BY_EZDXF
350
1AC
  0
DICTIONARYVAR
  5
2E
330
2D
100
DictionaryVariables
280
0
  1
1.4.3 @ 2026-03-31T12:40:17.847430+00:00
  0
DICTIONARYVAR
  5
1AC
330
2D
100
DictionaryVariables
280
0
  1
1.4.3 @ 2026-03-31T12:40:17.850712+00:00
  0
ENDSEC
  0
EOF
