  0
SECTION
  2
HEADER
  9
$ACADVER
  1
AC1024
  9
$ACADMAINTVER
 70
6
  9
$DWGCODEPAGE
  3
ANSI_1252
  9
$LASTSAVEDBY
  1
ezdxf
  9
$INSBASE
 10
0.0
 20
0.0
 30
0.0
  9
$EXTMIN
 10
1e+20
 20
1e+20
 30
1e+20
  9
$EXTMAX
 10
-1e+20
 20
-1e+20
 30
-1e+20
  9
$LIMMIN
 10
0.0
 20
0.0
  9
$LIMMAX
 10
420.0
 20
297.0
  9
$ORTHOMODE
 70
0
  9
$REGENMODE
 70
1
  9
$FILLMODE
 70
1
  9
$QTEXTMODE
 70
0
  9
$MIRRTEXT
 70
1
  9
$LTSCALE
 40
1.0
  9
$ATTMODE
 70
1
  9
$TEXTSIZE
 40
2.5
  9
$TRACEWID
 40
1.0
  9
$TEXTSTYLE
  7
Standard
  9
$CLAYER
  8
0
  9
$CELTYPE
  6
ByLayer
  9
$CECOLOR
 62
256
  9
$CELTSCALE
 40
1.0
  9
$DISPSILH
 70
0
  9
$DIMSCALE
 40
1.0
  9
$DIMASZ
 40
2.5
  9
$DIMEXO
 40
0.625
  9
$DIMDLI
 40
3.75
  9
$DIMRND
 40
0.0
  9
$DIMDLE
 40
0.0
  9
$DIMEXE
 40
1.25
  9
$DIMTP
 40
0.0
  9
$DIMTM
 40
0.0
  9
$DIMTXT
 40
2.5
  9
$DIMCEN
 40
2.5
  9
$DIMTSZ
 40
0.0
  9
$DIMTOL
 70
0
  9
$DIMLIM
 70
0
  9
$DIMTIH
 70
0
  9
$DIMTOH
 70
0
  9
$DIMSE1
 70
0
  9
$DIMSE2
 70
0
  9
$DIMTAD
 70
1
  9
$DIMZIN
 70
8
  9
$DIMBLK
  1

  9
$DIMASO
 70
1
  9
$DIMSHO
 70
1
  9
$DIMPOST
  1

  9
$DIMAPOST
  1

  9
$DIMALT
 70
0
  9
$DIMALTD
 70
3
  9
$DIMALTF
 40
0.03937007874
  9
$DIMLFAC
 40
1.0
  9
$DIMTOFL
 70
1
  9
$DIMTVP
 40
0.0
  9
$DIMTIX
 70
0
  9
$DIMSOXD
 70
0
  9
$DIMSAH
 70
0
  9
$DIMBLK1
  1

  9
$DIMBLK2
  1

  9
$DIMSTYLE
  2
ISO-25
  9
$DIMCLRD
 70
0
  9
$DIMCLRE
 70
0
  9
$DIMCLRT
 70
0
  9
$DIMTFAC
 40
1.0
  9
$DIMGAP
 40
0.625
  9
$DIMJUST
 70
0
  9
$DIMSD1
 70
0
  9
$DIMSD2
 70
0
  9
$DIMTOLJ
 70
0
  9
$DIMTZIN
 70
8
  9
$DIMALTZ
 70
0
  9
$DIMALTTZ
 70
0
  9
$DIMUPT
 70
0
  9
$DIMDEC
 70
2
  9
$DIMTDEC
 70
2
  9
$DIMALTU
 70
2
  9
$DIMALTTD
 70
3
  9
$DIMTXSTY
  7
Standard
  9
$DIMAUNIT
 70
0
  9
$DIMADEC
 70
0
  9
$DIMALTRND
 40
0.0
  9
$DIMAZIN
 70
0
  9
$DIMDSEP
 70
44
  9
$DIMATFIT
 70
3
  9
$DIMFRAC
 70
0
  9
$DIMLDRBLK
  1

  9
$DIMLUNIT
 70
2
  9
$DIMLWD
 70
-2
  9
$DIMLWE
 70
-2
  9
$DIMTMOVE
 70
0
  9
$DIMFXL
 40
1.0
  9
$DIMFXLON
 70
0
  9
$DIMJOGANG
 40
0.785398163397
  9
$DIMTFILL
 70
0
  9
$DIMTFILLCLR
 70
0
  9
$DIMARCSYM
 70
0
  9
$DIMLTYPE
  6

  9
$DIMLTEX1
  6

  9
$DIMLTEX2
  6

  9
$DIMTXTDIRECTION
 70
0
  9
$LUNITS
 70
2
  9
$LUPREC
 70
4
  9
$SKETCHINC
 40
1.0
  9
$FILLETRAD
 40
10.0
  9
$AUNITS
 70
0
  9
$AUPREC
 70
2
  9
$MENU
  1
.
  9
$ELEVATION
 40
0.0
  9
$PELEVATION
 40
0.0
  9
$THICKNESS
 40
0.0
  9
$LIMCHECK
 70
0
  9
$CHAMFERA
 40
0.0
  9
$CHAMFERB
 40
0.0
  9
$CHAMFERC
 40
0.0
  9
$CHAMFERD
 40
0.0
  9
$SKPOLY
 70
0
  9
$TDCREATE
 40
2461141.6329282406
  9
$TDUCREATE
 40
2458532.153996898
  9
$TDUPDATE
 40
2461141.6329282406
  9
$TDUUPDATE
 40
2458532.1544311
  9
$TDINDWG
 40
0.0
  9
$TDUSRTIMER
 40
0.0
  9
$USRTIMER
 70
1
  9
$ANGBASE
 50
0.0
  9
$ANGDIR
 70
0
  9
$PDMODE
 70
0
  9
$PDSIZE
 40
0.0
  9
$PLINEWID
 40
0.0
  9
$SPLFRAME
 70
0
  9
$SPLINETYPE
 70
6
  9
$SPLINESEGS
 70
8
  9
$HANDSEED
  5
230
  9
$SURFTAB1
 70
6
  9
$SURFTAB2
 70
6
  9
$SURFTYPE
 70
6
  9
$SURFU
 70
6
  9
$SURFV
 70
6
  9
$UCSBASE
  2

  9
$UCSNAME
  2

  9
$UCSORG
 10
0.0
 20
0.0
 30
0.0
  9
$UCSXDIR
 10
1.0
 20
0.0
 30
0.0
  9
$UCSYDIR
 10
0.0
 20
1.0
 30
0.0
  9
$UCSORTHOREF
  2

  9
$UCSORTHOVIEW
 70
0
  9
$UCSORGTOP
 10
0.0
 20
0.0
 30
0.0
  9
$UCSORGBOTTOM
 10
0.0
 20
0.0
 30
0.0
  9
$UCSORGLEFT
 10
0.0
 20
0.0
 30
0.0
  9
$UCSORGRIGHT
 10
0.0
 20
0.0
 30
0.0
  9
$UCSORGFRONT
 10
0.0
 20
0.0
 30
0.0
  9
$UCSORGBACK
 10
0.0
 20
0.0
 30
0.0
  9
$PUCSBASE
  2

  9
$PUCSNAME
  2

  9
$PUCSORG
 10
0.0
 20
0.0
 30
0.0
  9
$PUCSXDIR
 10
1.0
 20
0.0
 30
0.0
  9
$PUCSYDIR
 10
0.0
 20
1.0
 30
0.0
  9
$PUCSORTHOREF
  2

  9
$PUCSORTHOVIEW
 70
0
  9
$PUCSORGTOP
 10
0.0
 20
0.0
 30
0.0
  9
$PUCSORGBOTTOM
 10
0.0
 20
0.0
 30
0.0
  9
$PUCSORGLEFT
 10
0.0
 20
0.0
 30
0.0
  9
$PUCSORGRIGHT
 10
0.0
 20
0.0
 30
0.0
  9
$PUCSORGFRONT
 10
0.0
 20
0.0
 30
0.0
  9
$PUCSORGBACK
 10
0.0
 20
0.0
 30
0.0
  9
$USERI1
 70
0
  9
$USERI2
 70
0
  9
$USERI3
 70
0
  9
$USERI4
 70
0
  9
$USERI5
 70
0
  9
$USERR1
 40
0.0
  9
$USERR2
 40
0.0
  9
$USERR3
 40
0.0
  9
$USERR4
 40
0.0
  9
$USERR5
 40
0.0
  9
$WORLDVIEW
 70
1
  9
$SHADEDGE
 70
3
  9
$SHADEDIF
 70
70
  9
$TILEMODE
 70
1
  9
$MAXACTVP
 70
64
  9
$PINSBASE
 10
0.0
 20
0.0
 30
0.0
  9
$PLIMCHECK
 70
0
  9
$PEXTMIN
 10
1e+20
 20
1e+20
 30
1e+20
  9
$PEXTMAX
 10
-1e+20
 20
-1e+20
 30
-1e+20
  9
$PLIMMIN
 10
0.0
 20
0.0
  9
$PLIMMAX
 10
420.0
 20
297.0
  9
$UNITMODE
 70
0
  9
$VISRETAIN
 70
1
  9
$PLINEGEN
 70
0
  9
$PSLTSCALE
 70
1
  9
$TREEDEPTH
 70
3020
  9
$CMLSTYLE
  2
Standard
  9
$CMLJUST
 70
0
  9
$CMLSCALE
 40
20.0
  9
$PROXYGRAPHICS
 70
1
  9
$MEASUREMENT
 70
1
  9
$CELWEIGHT
370
-1
  9
$ENDCAPS
280
0
  9
$JOINSTYLE
280
0
  9
$LWDISPLAY
290
0
  9
$INSUNITS
 70
6
  9
$HYPERLINKBASE
  1

  9
$STYLESHEET
  1

  9
$XEDIT
290
1
  9
$CEPSNTYPE
380
0
  9
$PSTYLEMODE
290
1
  9
$FINGERPRINTGUID
  2
{19E1C358-7D83-46D0-9DC6-71F32EC74D6F}
  9
$VERSIONGUID
  2
{E1755500-89AD-4584-ADA5-9CA9FCE5E61E}
  9
$EXTNAMES
290
1
  9
$PSVPSCALE
 40
0.0
  9
$OLESTARTUP
290
0
  9
$SORTENTS
280
127
  9
$INDEXCTL
280
0
  9
$HIDETEXT
280
1
  9
$XCLIPFRAME
280
1
  9
$HALOGAP
280
0
  9
$OBSCOLOR
 70
257
  9
$OBSLTYPE
280
0
  9
$INTERSECTIONDISPLAY
280
0
  9
$INTERSECTIONCOLOR
 70
257
  9
$DIMASSOC
280
2
  9
$PROJECTNAME
  1

  9
$CAMERADISPLAY
290
0
  9
$LENSLENGTH
 40
50.0
  9
$CAMERAHEIGHT
 40
0.0
  9
$STEPSPERSEC
 40
24.0
  9
$STEPSIZE
 40
100.0
  9
$3DDWFPREC
 40
2.0
  9
$PSOLWIDTH
 40
0.005
  9
$PSOLHEIGHT
 40
0.08
  9
$LOFTANG1
 40
1.570796326795
  9
$LOFTANG2
 40
1.570796326795
  9
$LOFTMAG1
 40
0.0
  9
$LOFTMAG2
 40
0.0
  9
$LOFTPARAM
 70
7
  9
$LOFTNORMALS
280
1
  9
$LATITUDE
 40
37.795
  9
$LONGITUDE
 40
-122.394
  9
$NORTHDIRECTION
 40
0.0
  9
$TIMEZONE
 70
-8000
  9
$LIGHTGLYPHDISPLAY
280
1
  9
$TILEMODELIGHTSYNCH
280
1
  9
$CMATERIAL
347
20
  9
$SOLIDHIST
280
0
  9
$SHOWHIST
280
1
  9
$DWFFRAME
280
2
  9
$DGNFRAME
280
2
  9
$REALWORLDSCALE
290
1
  9
$INTERFERECOLOR
 62
256
  9
$CSHADOW
280
0
  9
$SHADOWPLANELOCATION
 40
0.0
  0
ENDSEC
  0
SECTION
  2
CLASSES
  0
CLASS
  1
ACDBDICTIONARYWDFLT
  2
AcDbDictionaryWithDefault
  3
ObjectDBX Classes
 90
0
 91
0
280
0
281
0
  0
CLASS
  1
SUN
  2
AcDbSun
  3
SCENEOE
 90
1153
 91
0
280
0
281
0
  0
CLASS
  1
VISUALSTYLE
  2
AcDbVisualStyle
  3
ObjectDBX Classes
 90
4095
 91
0
280
0
281
0
  0
CLASS
  1
MATERIAL
  2
AcDbMaterial
  3
ObjectDBX Classes
 90
1153
 91
0
280
0
281
0
  0
CLASS
  1
SCALE
  2
AcDbScale
  3
ObjectDBX Classes
 90
1153
 91
0
280
0
281
0
  0
CLASS
  1
TABLESTYLE
  2
AcDbTableStyle
  3
ObjectDBX Classes
 90
4095
 91
0
280
0
281
0
  0
CLASS
  1
MLEADERSTYLE
  2
AcDbMLeaderStyle
  3
ACDB_MLEADERSTYLE_CLASS
 90
4095
 91
0
280
0
281
0
  0
CLASS
  1
DICTIONARYVAR
  2
AcDbDictionaryVar
  3
ObjectDBX Classes
 90
0
 91
0
280
0
281
0
  0
CLASS
  1
CELLSTYLEMAP
  2
AcDbCellStyleMap
  3
ObjectDBX Classes
 90
1152
 91
0
280
0
281
0
  0
CLASS
  1
MENTALRAYRENDERSETTINGS
  2
AcDbMentalRayRenderSettings
  3
SCENEOE
 90
1024
 91
0
280
0
281
0
  0
CLASS
  1
ACDBDETAILVIEWSTYLE
  2
AcDbDetailViewStyle
  3
ObjectDBX Classes
 90
1025
 91
0
280
0
281
0
  0
CLASS
  1
ACDBSECTIONVIEWSTYLE
  2
AcDbSectionViewStyle
  3
ObjectDBX Classes
 90
1025
 91
0
280
0
281
0
  0
CLASS
  1
RASTERVARIABLES
  2
AcDbRasterVariables
  3
ISM
 90
0
 91
0
280
0
281
0
  0
CLASS
  1
ACDBPLACEHOLDER
  2
AcDbPlaceHolder
  3
ObjectDBX Classes
 90
0
 91
0
280
0
281
0
  0
CLASS
  1
LAYOUT
  2
AcDbLayout
  3
ObjectDBX Classes
 90
0
 91
0
280
0
281
0
  0
ENDSEC
  0
SECTION
  2
TABLES
  0
TABLE
  2
VPORT
  5
8
330
0
100
AcDbSymbolTable
 70
1
  0
VPORT
  5
23
330
8
100
AcDbSymbolTableRecord
100
AcDbViewportTableRecord
  2
*Active
 70
0
 10
0.0
 20
0.0
 11
1.0
 21
1.0
 12
0.0
 22
0.0
 13
0.0
 23
0.0
 14
0.5
 24
0.5
 15
0.5
 25
0.5
 16
0.0
 26
0.0
 36
1.0
 17
0.0
 27
0.0
 37
0.0
 40
1000.0
 41
1.34
 42
50.0
 43
0.0
 44
0.0
 50
0.0
 51
0.0
 71
0
 72
1000
 73
1
 74
3
 75
0
 76
0
 77
0
 78
0
281
0
 65
0
146
0.0
  0
ENDTAB
  0
TABLE
  2
LTYPE
  5
2
330
0
100
AcDbSymbolTable
 70
3
  0
LTYPE
  5
24
330
2
100
AcDbSymbolTableRecord
100
AcDbLinetypeTableRecord
  2
ByBlock
 70
0
  3

 72
65
 73
0
 40
0.0
  0
LTYPE
  5
25
330
2
100
AcDbSymbolTableRecord
100
AcDbLinetypeTableRecord
  2
ByLayer
 70
0
  3

 72
65
 73
0
 40
0.0
  0
LTYPE
  5
26
330
2
100
AcDbSymbolTableRecord
100
AcDbLinetypeTableRecord
  2
Continuous
 70
0
  3

 72
65
 73
0
 40
0.0
  0
ENDTAB
  0
TABLE
  2
LAYER
  5
1
330
0
100
AcDbSymbolTable
 70
8
  0
LAYER
  5
27
330
1
100
AcDbSymbolTableRecord
100
AcDbLayerTableRecord
  2
0
 70
0
 62
7
  6
Continuous
370
-3
390
13
347
21
  0
LAYER
  5
28
330
1
100
AcDbSymbolTableRecord
100
AcDbLayerTableRecord
  2
Defpoints
 70
0
 62
7
  6
Continuous
290
0
370
-3
390
13
347
21
  0
LAYER
  5
2F
330
1
100
AcDbSymbolTableRecord
100
AcDbLayerTableRecord
  2
A-WALL
 70
0
 62
7
  6
Continuous
370
50
390
13
347
21
  0
LAYER
  5
30
330
1
100
AcDbSymbolTableRecord
100
AcDbLayerTableRecord
  2
A-DOOR
 70
0
 62
3
  6
Continuous
370
35
390
13
347
21
  0
LAYER
  5
31
330
1
100
AcDbSymbolTableRecord
100
AcDbLayerTableRecord
  2
A-WINDOW
 70
0
 62
4
  6
Continuous
370
25
390
13
347
21
  0
LAYER
  5
32
330
1
100
AcDbSymbolTableRecord
100
AcDbLayerTableRecord
  2
A-TEXT
 70
0
 62
2
  6
Continuous
370
-3
390
13
347
21
  0
LAYER
  5
33
330
1
100
AcDbSymbolTableRecord
100
AcDbLayerTableRecord
  2
A-GRID
 70
0
 62
8
  6
Continuous
370
13
390
13
347
21
  0
LAYER
  5
34
330
1
100
AcDbSymbolTableRecord
100
AcDbLayerTableRecord
  2
A-ROOM
 70
0
 62
6
  6
Continuous
370
13
390
13
347
21
  0
ENDTAB
  0
TABLE
  2
STYLE
  5
5
330
0
100
AcDbSymbolTable
 70
1
  0
STYLE
  5
29
330
5
100
AcDbSymbolTableRecord
100
AcDbTextStyleTableRecord
  2
Standard
 70
0
 40
0.0
 41
1.0
 50
0.0
 71
0
 42
2.5
  3
txt
  4

  0
ENDTAB
  0
TABLE
  2
VIEW
  5
7
330
0
100
AcDbSymbolTable
 70
0
  0
ENDTAB
  0
TABLE
  2
UCS
  5
6
330
0
100
AcDbSymbolTable
 70
0
  0
ENDTAB
  0
TABLE
  2
APPID
  5
3
330
0
100
AcDbSymbolTable
 70
3
  0
APPID
  5
2A
330
3
100
AcDbSymbolTableRecord
100
AcDbRegAppTableRecord
  2
ACAD
 70
0
  0
APPID
  5
22D
330
3
100
AcDbSymbolTableRecord
100
AcDbRegAppTableRecord
  2
HATCHBACKGROUNDCOLOR
 70
0
  0
APPID
  5
22E
330
3
100
AcDbSymbolTableRecord
100
AcDbRegAppTableRecord
  2
EZDXF
 70
0
  0
ENDTAB
  0
TABLE
  2
DIMSTYLE
  5
4
330
0
100
AcDbSymbolTable
 70
1
100
AcDbDimStyleTable
  0
DIMSTYLE
105
2B
330
4
100
AcDbSymbolTableRecord
100
AcDbDimStyleTableRecord
  2
Standard
 70
0
 40
1.0
 41
2.5
 42
0.625
 43
3.75
 44
1.25
 45
0.0
 46
0.0
 47
0.0
 48
0.0
 49
2.5
140
2.5
141
2.5
142
0.0
143
0.03937007874
144
1.0
145
0.0
146
1.0
147
0.625
148
0.0
 69
0
 70
0
 71
0
 72
0
 73
0
 74
0
 75
0
 76
0
 77
1
 78
8
 79
3
170
0
171
3
172
1
173
0
174
0
175
0
176
0
177
0
178
0
179
2
271
2
272
2
273
2
274
3
275
0
276
0
277
2
278
44
279
0
280
0
281
0
282
0
283
0
284
8
285
0
286
0
288
0
289
3
290
0
371
-2
372
-2
  0
ENDTAB
  0
TABLE
  2
BLOCK_RECORD
  5
9
330
0
100
AcDbSymbolTable
 70
2
  0
BLOCK_RECORD
  5
17
330
9
100
AcDbSymbolTableRecord
100
AcDbBlockTableRecord
  2
*Model_Space
340
1A
 70
0
280
1
281
0
  0
BLOCK_RECORD
  5
1B
330
9
100
AcDbSymbolTableRecord
100
AcDbBlockTableRecord
  2
*Paper_Space
340
1E
 70
0
280
1
281
0
  0
ENDTAB
  0
ENDSEC
  0
SECTION
  2
BLOCKS
  0
BLOCK
  5
18
330
17
100
AcDbEntity
  8
0
100
AcDbBlockBegin
  2
*Model_Space
 70
0
 10
0.0
 20
0.0
 30
0.0
  3
*Model_Space
  1

  0
ENDBLK
  5
19
330
17
100
AcDbEntity
  8
0
100
AcDbBlockEnd
  0
BLOCK
  5
1C
330
1B
100
AcDbEntity
  8
0
100
AcDbBlockBegin
  2
*Paper_Space
 70
0
 10
0.0
 20
0.0
 30
0.0
  3
*Paper_Space
  1

  0
ENDBLK
  5
1D
330
1B
100
AcDbEntity
  8
0
100
AcDbBlockEnd
  0
ENDSEC
  0
SECTION
  2
ENTITIES
  0
LINE
  5
35
330
17
100
AcDbEntity
  8
A-WALL
100
AcDbLine
 10
7.375
 20
31.66499923706055
 30
0.0
 11
8.075000000000003
 21
31.66499923706055
 31
0.0
  0
LINE
  5
36
330
17
100
AcDbEntity
  8
A-WALL
100
AcDbLine
 10
-0.384999999999998
 20
31.884999237060548
 30
0.0
 11
-0.384999999999998
 21
33.26499923706055
 31
0.0
  0
LINE
  5
37
330
17
100
AcDbEntity
  8
A-WALL
100
AcDbLine
 10
1.0549999999999997
 20
30.12499923706055
 30
0.0
 11
1.0549999999999997
 21
30.644999237060546
 31
0.0
  0
LINE
  5
38
330
17
100
AcDbEntity
  8
A-WALL
100
AcDbLine
 10
1.1750000000000043
 20
31.44499923706055
 30
0.0
 11
1.1750000000000043
 21
30.86499923706055
 31
0.0
  0
LINE
  5
39
330
17
100
AcDbEntity
  8
A-WALL
100
AcDbLine
 10
10.954999999999998
 20
23.504999237060545
 30
0.0
 11
10.954999999999998
 21
24.04499923706055
 31
0.0
  0
LINE
  5
3A
330
17
100
AcDbEntity
  8
A-WALL
100
AcDbLine
 10
13.575000000000003
 20
23.26499923706055
 30
0.0
 11
13.575000000000003
 21
19.34499923706055
 31
0.0
  0
LINE
  5
3B
330
17
100
AcDbEntity
  8
A-WALL
100
AcDbLine
 10
13.814999999999998
 20
20.84499923706055
 30
0.0
 11
13.814999999999998
 21
20.384999237060548
 31
0.0
  0
LINE
  5
3C
330
17
100
AcDbEntity
  8
A-WALL
100
AcDbLine
 10
13.675000000000004
 20
19.364999237060545
 30
0.0
 11
7.475000000000001
 21
19.364999237060545
 31
0.0
  0
LINE
  5
3D
330
17
100
AcDbEntity
  8
A-WALL
100
AcDbLine
 10
23.035000000000004
 20
17.364999237060545
 30
0.0
 11
23.035000000000004
 21
16.84499923706055
 31
0.0
  0
LINE
  5
3E
330
17
100
AcDbEntity
  8
A-WALL
100
AcDbLine
 10
22.215000000000003
 20
15.544999237060544
 30
0.0
 11
22.775
 21
15.684999237060545
 31
0.0
  0
LINE
  5
3F
330
17
100
AcDbEntity
  8
A-WALL
100
AcDbLine
 10
-2.384999999999998
 20
15.004999237060545
 30
0.0
 11
-2.384999999999998
 21
15.40499923706055
 31
0.0
  0
LINE
  5
40
330
17
100
AcDbEntity
  8
A-WALL
100
AcDbLine
 10
22.735
 20
13.184999237060545
 30
0.0
 11
23.455
 21
13.184999237060545
 31
0.0
  0
LINE
  5
41
330
17
100
AcDbEntity
  8
A-WALL
100
AcDbLine
 10
23.695
 20
13.204999237060548
 30
0.0
 11
25.055
 21
13.204999237060548
 31
0.0
  0
LINE
  5
42
330
17
100
AcDbEntity
  8
A-WALL
100
AcDbLine
 10
23.835
 20
15.324999237060545
 30
0.0
 11
25.475
 21
15.324999237060545
 31
0.0
  0
LINE
  5
43
330
17
100
AcDbEntity
  8
A-WALL
100
AcDbLine
 10
26.015
 20
15.244999237060547
 30
0.0
 11
26.495000000000005
 21
15.244999237060547
 31
0.0
  0
LINE
  5
44
330
17
100
AcDbEntity
  8
A-WALL
100
AcDbLine
 10
26.474999999999994
 20
1.3849992370605477
 30
0.0
 11
26.474999999999994
 21
11.80499923706055
 31
0.0
  0
LINE
  5
45
330
17
100
AcDbEntity
  8
A-WALL
100
AcDbLine
 10
15.475000000000001
 20
6.724999237060551
 30
0.0
 11
13.814999999999998
 21
6.724999237060551
 31
0.0
  0
LINE
  5
46
330
17
100
AcDbEntity
  8
A-WALL
100
AcDbLine
 10
-17.265
 20
7.12499923706055
 30
0.0
 11
-17.265
 21
7.724999237060551
 31
0.0
  0
LINE
  5
47
330
17
100
AcDbEntity
  8
A-WALL
100
AcDbLine
 10
-17.305
 20
8.844999237060549
 30
0.0
 11
-17.305
 21
12.884999237060548
 31
0.0
  0
LINE
  5
48
330
17
100
AcDbEntity
  8
A-WALL
100
AcDbLine
 10
-18.845
 20
2.0249992370605483
 30
0.0
 11
-18.305
 21
2.0249992370605483
 31
0.0
  0
LINE
  5
49
330
17
100
AcDbEntity
  8
A-WALL
100
AcDbLine
 10
11.535000000000004
 20
12.144999237060546
 30
0.0
 11
11.535000000000004
 21
2.1449992370605457
 31
0.0
  0
LINE
  5
4A
330
17
100
AcDbEntity
  8
A-WALL
100
AcDbLine
 10
10.274999999999999
 20
12.144999237060546
 30
0.0
 11
15.675000000000004
 21
12.144999237060546
 31
0.0
  0
LINE
  5
4B
330
17
100
AcDbEntity
  8
A-WALL
100
AcDbLine
 10
15.395000000000003
 20
12.48499923706055
 30
0.0
 11
15.395000000000003
 21
15.244999237060547
 31
0.0
  0
LINE
  5
4C
330
17
100
AcDbEntity
  8
A-WALL
100
AcDbLine
 10
12.915
 20
15.40499923706055
 30
0.0
 11
15.715000000000003
 21
15.40499923706055
 31
0.0
  0
LINE
  5
4D
330
17
100
AcDbEntity
  8
A-WALL
100
AcDbLine
 10
12.475000000000001
 20
15.40499923706055
 30
0.0
 11
10.895000000000003
 21
15.40499923706055
 31
0.0
  0
LINE
  5
4E
330
17
100
AcDbEntity
  8
A-WALL
100
AcDbLine
 10
15.615000000000002
 20
1.1049992370605466
 30
0.0
 11
11.575000000000003
 21
1.1049992370605466
 31
0.0
  0
LINE
  5
4F
330
17
100
AcDbEntity
  8
A-WALL
100
AcDbLine
 10
26.415000000000006
 20
0.94499923706055
 30
0.0
 11
26.415000000000006
 21
2.404999237060551
 31
0.0
  0
LINE
  5
50
330
17
100
AcDbEntity
  8
A-WALL
100
AcDbLine
 10
-13.524999999999999
 20
0.204999237060548
 30
0.0
 11
-11.285
 21
0.204999237060548
 31
0.0
  0
LINE
  5
51
330
17
100
AcDbEntity
  8
A-WALL
100
AcDbLine
 10
6.835000000000001
 20
-0.43500076293945256
 30
0.0
 11
6.835000000000001
 21
0.16499923706054886
 31
0.0
  0
LINE
  5
52
330
17
100
AcDbEntity
  8
A-WALL
100
AcDbLine
 10
22.215000000000003
 20
-2.575000762939453
 30
0.0
 11
23.255000000000003
 21
-2.575000762939453
 31
0.0
  0
LINE
  5
53
330
17
100
AcDbEntity
  8
A-WALL
100
AcDbLine
 10
15.415
 20
-4.355000762939454
 30
0.0
 11
13.115000000000002
 21
-4.355000762939454
 31
0.0
  0
LINE
  5
54
330
17
100
AcDbEntity
  8
A-WALL
100
AcDbLine
 10
15.274999999999999
 20
-4.0550007629394536
 30
0.0
 11
15.274999999999999
 21
-0.45500076293945213
 31
0.0
  0
LINE
  5
55
330
17
100
AcDbEntity
  8
A-WALL
100
AcDbLine
 10
13.115000000000002
 20
-0.23500076293945327
 30
0.0
 11
15.375
 21
-0.23500076293945327
 31
0.0
  0
LINE
  5
56
330
17
100
AcDbEntity
  8
A-WALL
100
AcDbLine
 10
-16.965
 20
0.10499923706054659
 30
0.0
 11
-16.965
 21
-0.9550007629394521
 31
0.0
  0
LINE
  5
57
330
17
100
AcDbEntity
  8
A-WALL
100
AcDbLine
 10
-16.525
 20
0.4249992370605469
 30
0.0
 11
-14.745000000000001
 21
0.4249992370605469
 31
0.0
  0
LINE
  5
58
330
17
100
AcDbEntity
  8
A-WALL
100
AcDbLine
 10
-11.044999999999998
 20
2.6249992370605497
 30
0.0
 11
-11.044999999999998
 21
0.06499923706054744
 31
0.0
  0
LINE
  5
59
330
17
100
AcDbEntity
  8
A-WALL
100
AcDbLine
 10
-16.685
 20
18.244999237060547
 30
0.0
 11
-11.425
 21
18.244999237060547
 31
0.0
  0
LINE
  5
5A
330
17
100
AcDbEntity
  8
A-WALL
100
AcDbLine
 10
-4.564999999999998
 20
19.62499923706055
 30
0.0
 11
-4.564999999999998
 21
21.54499923706055
 31
0.0
  0
LINE
  5
5B
330
17
100
AcDbEntity
  8
A-WALL
100
AcDbLine
 10
-4.664999999999999
 20
22.104999237060547
 30
0.0
 11
-4.664999999999999
 21
20.44499923706055
 31
0.0
  0
LINE
  5
5C
330
17
100
AcDbEntity
  8
A-WALL
100
AcDbLine
 10
-4.744999999999997
 20
22.08499923706055
 30
0.0
 11
-2.144999999999996
 21
22.08499923706055
 31
0.0
  0
LINE
  5
5D
330
17
100
AcDbEntity
  8
A-WALL
100
AcDbLine
 10
-4.284999999999997
 20
3.244999237060547
 30
0.0
 11
-4.284999999999997
 21
0.6449992370605457
 31
0.0
  0
LINE
  5
5E
330
17
100
AcDbEntity
  8
A-WALL
100
AcDbLine
 10
-14.805
 20
-4.615000762939452
 30
0.0
 11
-12.625
 21
-4.615000762939452
 31
0.0
  0
LINE
  5
5F
330
17
100
AcDbEntity
  8
A-WALL
100
AcDbLine
 10
-11.344999999999999
 20
-1.8350007629394511
 30
0.0
 11
-12.645
 21
-1.8350007629394511
 31
0.0
  0
LINE
  5
60
330
17
100
AcDbEntity
  8
A-WALL
100
AcDbLine
 10
-14.905000000000001
 20
-2.135000762939452
 30
0.0
 11
-14.905000000000001
 21
-3.675000762939451
 31
0.0
  0
LINE
  5
61
330
17
100
AcDbEntity
  8
A-WALL
100
AcDbLine
 10
17.295
 20
-7.675000762939451
 30
0.0
 11
26.595
 21
-7.675000762939451
 31
0.0
  0
LINE
  5
62
330
17
100
AcDbEntity
  8
A-WALL
100
AcDbLine
 10
22.275
 20
-8.075000762939453
 30
0.0
 11
21.435000000000002
 21
-8.075000762939453
 31
0.0
  0
LINE
  5
63
330
17
100
AcDbEntity
  8
A-WALL
100
AcDbLine
 10
21.235
 20
-7.715000762939454
 30
0.0
 11
17.095
 21
-7.715000762939454
 31
0.0
  0
LINE
  5
64
330
17
100
AcDbEntity
  8
A-WALL
100
AcDbLine
 10
13.215000000000003
 20
-7.675000762939451
 30
0.0
 11
15.175000000000004
 21
-7.675000762939451
 31
0.0
  0
LINE
  5
65
330
17
100
AcDbEntity
  8
A-WALL
100
AcDbLine
 10
13.855000000000004
 20
-7.635000762939452
 30
0.0
 11
11.215000000000003
 21
-7.635000762939452
 31
0.0
  0
LINE
  5
66
330
17
100
AcDbEntity
  8
A-WALL
100
AcDbLine
 10
26.695000000000007
 20
-0.37500076293945384
 30
0.0
 11
26.695000000000007
 21
-7.5550007629394536
 31
0.0
  0
LINE
  5
67
330
17
100
AcDbEntity
  8
A-WALL
100
AcDbLine
 10
26.775000000000006
 20
7.44499923706055
 30
0.0
 11
26.775000000000006
 21
17.40499923706055
 31
0.0
  0
LINE
  5
68
330
17
100
AcDbEntity
  8
A-WALL
100
AcDbLine
 10
26.655
 20
18.564999237060547
 30
0.0
 11
14.175000000000004
 21
18.564999237060547
 31
0.0
  0
LINE
  5
69
330
17
100
AcDbEntity
  8
A-WALL
100
AcDbLine
 10
13.155000000000001
 20
18.564999237060547
 30
0.0
 11
11.475000000000001
 21
18.564999237060547
 31
0.0
  0
LINE
  5
6A
330
17
100
AcDbEntity
  8
A-WALL
100
AcDbLine
 10
15.295000000000002
 20
21.784999237060546
 30
0.0
 11
15.295000000000002
 21
22.22499923706055
 31
0.0
  0
LINE
  5
6B
330
17
100
AcDbEntity
  8
A-WALL
100
AcDbLine
 10
14.895000000000003
 20
-12.995000762939451
 30
0.0
 11
15.634999999999998
 21
-12.995000762939451
 31
0.0
  0
LINE
  5
6C
330
17
100
AcDbEntity
  8
A-WALL
100
AcDbLine
 10
-16.985
 20
-11.935000762939453
 30
0.0
 11
-16.985
 21
-13.555000762939454
 31
0.0
  0
LINE
  5
6D
330
17
100
AcDbEntity
  8
A-WALL
100
AcDbLine
 10
-28.665
 20
-10.475000762939452
 30
0.0
 11
-37.645
 21
-10.475000762939452
 31
0.0
  0
LINE
  5
6E
330
17
100
AcDbEntity
  8
A-WALL
100
AcDbLine
 10
-28.705
 20
-3.695000762939454
 30
0.0
 11
-28.705
 21
-10.155000762939451
 31
0.0
  0
LINE
  5
6F
330
17
100
AcDbEntity
  8
A-WALL
100
AcDbLine
 10
18.515
 20
-18.075000762939453
 30
0.0
 11
18.515
 21
-17.47500076293945
 31
0.0
  0
LINE
  5
70
330
17
100
AcDbEntity
  8
A-WALL
100
AcDbLine
 10
18.835
 20
-17.415000762939453
 30
0.0
 11
19.615000000000002
 21
-17.415000762939453
 31
0.0
  0
LINE
  5
71
330
17
100
AcDbEntity
  8
A-WALL
100
AcDbLine
 10
17.155
 20
-12.235000762939453
 30
0.0
 11
17.735
 21
-12.235000762939453
 31
0.0
  0
LINE
  5
72
330
17
100
AcDbEntity
  8
A-WALL
100
AcDbLine
 10
17.955
 20
-10.415000762939453
 30
0.0
 11
18.435000000000002
 21
-10.415000762939453
 31
0.0
  0
LINE
  5
73
330
17
100
AcDbEntity
  8
A-WALL
100
AcDbLine
 10
16.615000000000002
 20
-17.315000762939455
 30
0.0
 11
16.134999999999998
 21
-17.315000762939455
 31
0.0
  0
LINE
  5
74
330
17
100
AcDbEntity
  8
A-WALL
100
AcDbLine
 10
-3.8049999999999997
 20
-20.535000762939454
 30
0.0
 11
-5.204999999999998
 21
-20.535000762939454
 31
0.0
  0
LINE
  5
75
330
17
100
AcDbEntity
  8
A-WALL
100
AcDbLine
 10
-9.704999999999998
 20
-20.855000762939454
 30
0.0
 11
-9.704999999999998
 21
-20.175000762939455
 31
0.0
  0
LINE
  5
76
330
17
100
AcDbEntity
  8
A-WALL
100
AcDbLine
 10
-16.905
 20
-18.635000762939455
 30
0.0
 11
-16.905
 21
-17.51500076293945
 31
0.0
  0
LINE
  5
77
330
17
100
AcDbEntity
  8
A-WALL
100
AcDbLine
 10
-10.064999999999998
 20
-7.595000762939453
 30
0.0
 11
-5.925000000000001
 21
-7.595000762939453
 31
0.0
  0
LINE
  5
78
330
17
100
AcDbEntity
  8
A-WALL
100
AcDbLine
 10
-10.305
 20
-7.955000762939452
 30
0.0
 11
-11.785
 21
-7.955000762939452
 31
0.0
  0
LINE
  5
79
330
17
100
AcDbEntity
  8
A-WALL
100
AcDbLine
 10
-11.985
 20
-8.235000762939453
 30
0.0
 11
-11.985
 21
-7.675000762939451
 31
0.0
  0
LINE
  5
7A
330
17
100
AcDbEntity
  8
A-WALL
100
AcDbLine
 10
-12.224999999999998
 20
-7.995000762939451
 30
0.0
 11
-13.224999999999998
 21
-7.995000762939451
 31
0.0
  0
LINE
  5
7B
330
17
100
AcDbEntity
  8
A-WALL
100
AcDbLine
 10
-14.165
 20
-8.475000762939452
 30
0.0
 11
-14.925
 21
-8.475000762939452
 31
0.0
  0
LINE
  5
7C
330
17
100
AcDbEntity
  8
A-WALL
100
AcDbLine
 10
-15.645
 20
-8.535000762939454
 30
0.0
 11
-15.645
 21
-7.775000762939452
 31
0.0
  0
LINE
  5
7D
330
17
100
AcDbEntity
  8
A-WALL
100
AcDbLine
 10
-5.545000000000002
 20
-7.735000762939453
 30
0.0
 11
-4.325000000000003
 21
-7.735000762939453
 31
0.0
  0
LINE
  5
7E
330
17
100
AcDbEntity
  8
A-WALL
100
AcDbLine
 10
-10.024999999999999
 20
-21.355000762939454
 30
0.0
 11
-10.024999999999999
 21
-22.295000762939452
 31
0.0
  0
LINE
  5
7F
330
17
100
AcDbEntity
  8
A-WALL
100
AcDbLine
 10
20.115000000000002
 20
-21.955000762939452
 30
0.0
 11
20.655
 21
-21.955000762939452
 31
0.0
  0
LINE
  5
80
330
17
100
AcDbEntity
  8
A-WALL
100
AcDbLine
 10
-28.424999999999997
 20
-19.47500076293945
 30
0.0
 11
-28.424999999999997
 21
-23.33500076293945
 31
0.0
  0
LINE
  5
81
330
17
100
AcDbEntity
  8
A-WALL
100
AcDbLine
 10
11.155000000000001
 20
-24.33500076293945
 30
0.0
 11
11.155000000000001
 21
-24.97500076293945
 31
0.0
  0
LINE
  5
82
330
17
100
AcDbEntity
  8
A-WALL
100
AcDbLine
 10
12.314999999999998
 20
-23.255000762939453
 30
0.0
 11
12.755000000000003
 21
-23.255000762939453
 31
0.0
  0
LINE
  5
83
330
17
100
AcDbEntity
  8
A-WALL
100
AcDbLine
 10
15.575000000000003
 20
-23.895000762939453
 30
0.0
 11
15.575000000000003
 21
-23.47500076293945
 31
0.0
  0
LINE
  5
84
330
17
100
AcDbEntity
  8
A-WALL
100
AcDbLine
 10
11.454999999999998
 20
-24.935000762939453
 30
0.0
 11
11.875
 21
-25.395000762939453
 31
0.0
  0
LINE
  5
85
330
17
100
AcDbEntity
  8
A-WALL
100
AcDbLine
 10
11.755000000000003
 20
-26.135000762939452
 30
0.0
 11
11.755000000000003
 21
-25.615000762939452
 31
0.0
  0
LINE
  5
86
330
17
100
AcDbEntity
  8
A-WALL
100
AcDbLine
 10
6.234999999999999
 20
-29.855000762939454
 30
0.0
 11
2.7749999999999986
 21
-29.855000762939454
 31
0.0
  0
LINE
  5
87
330
17
100
AcDbEntity
  8
A-WALL
100
AcDbLine
 10
15.855000000000004
 20
-30.195000762939454
 30
0.0
 11
14.495000000000005
 21
-30.195000762939454
 31
0.0
  0
LINE
  5
88
330
17
100
AcDbEntity
  8
A-WALL
100
AcDbLine
 10
2.655000000000001
 20
-31.275000762939452
 30
0.0
 11
0.07500000000000284
 21
-31.275000762939452
 31
0.0
  0
LINE
  5
89
330
17
100
AcDbEntity
  8
A-WALL
100
AcDbLine
 10
-1.3049999999999997
 20
-30.635000762939452
 30
0.0
 11
-1.9649999999999963
 21
-30.635000762939452
 31
0.0
  0
LINE
  5
8A
330
17
100
AcDbEntity
  8
A-WALL
100
AcDbLine
 10
-2.2250000000000014
 20
-30.795000762939452
 30
0.0
 11
-6.105
 21
-30.795000762939452
 31
0.0
  0
LINE
  5
8B
330
17
100
AcDbEntity
  8
A-WALL
100
AcDbLine
 10
-7.585000000000001
 20
-29.15500076293945
 30
0.0
 11
-9.884999999999998
 21
-29.15500076293945
 31
0.0
  0
LINE
  5
8C
330
17
100
AcDbEntity
  8
A-WALL
100
AcDbLine
 10
6.555
 20
-31.31500076293945
 30
0.0
 11
11.594999999999999
 21
-31.31500076293945
 31
0.0
  0
LINE
  5
8D
330
17
100
AcDbEntity
  8
A-WALL
100
AcDbLine
 10
5.855000000000004
 20
33.48499923706055
 30
0.0
 11
5.855000000000004
 21
34.224999237060544
 31
0.0
  0
LINE
  5
8E
330
17
100
AcDbEntity
  8
A-WALL
100
AcDbLine
 10
5.914999999999999
 20
33.96499923706055
 30
0.0
 11
5.914999999999999
 21
33.56499923706055
 31
0.0
  0
LINE
  5
8F
330
17
100
AcDbEntity
  8
A-WALL
100
AcDbLine
 10
-0.40500000000000114
 20
31.44499923706055
 30
0.0
 11
-0.40500000000000114
 21
31.884999237060548
 31
0.0
  0
LINE
  5
90
330
17
100
AcDbEntity
  8
A-WALL
100
AcDbLine
 10
1.9149999999999991
 20
30.76499923706055
 30
0.0
 11
1.7150000000000034
 21
31.12499923706055
 31
0.0
  0
LINE
  5
91
330
17
100
AcDbEntity
  8
A-WALL
100
AcDbLine
 10
10.274999999999999
 20
24.864999237060545
 30
0.0
 11
10.375
 21
24.464999237060546
 31
0.0
  0
LINE
  5
92
330
17
100
AcDbEntity
  8
A-WALL
100
AcDbLine
 10
11.115000000000002
 20
21.824999237060545
 30
0.0
 11
11.115000000000002
 21
21.324999237060545
 31
0.0
  0
LINE
  5
93
330
17
100
AcDbEntity
  8
A-WALL
100
AcDbLine
 10
7.314999999999998
 20
20.564999237060547
 30
0.0
 11
7.314999999999998
 21
19.464999237060546
 31
0.0
  0
LINE
  5
94
330
17
100
AcDbEntity
  8
A-WALL
100
AcDbLine
 10
7.414999999999999
 20
20.564999237060547
 30
0.0
 11
7.314999999999998
 21
20.02499923706055
 31
0.0
  0
LINE
  5
95
330
17
100
AcDbEntity
  8
A-WALL
100
AcDbLine
 10
11.735
 20
19.44499923706055
 30
0.0
 11
12.355000000000004
 21
19.44499923706055
 31
0.0
  0
LINE
  5
96
330
17
100
AcDbEntity
  8
A-WALL
100
AcDbLine
 10
4.175000000000004
 20
19.16499923706055
 30
0.0
 11
3.895000000000003
 21
19.464999237060546
 31
0.0
  0
LINE
  5
97
330
17
100
AcDbEntity
  8
A-WALL
100
AcDbLine
 10
0.7349999999999994
 20
19.744999237060547
 30
0.0
 11
0.7349999999999994
 21
19.12499923706055
 31
0.0
  0
LINE
  5
98
330
17
100
AcDbEntity
  8
A-WALL
100
AcDbLine
 10
-0.26500000000000057
 20
19.08499923706055
 30
0.0
 11
-0.26500000000000057
 21
19.54499923706055
 31
0.0
  0
LINE
  5
99
330
17
100
AcDbEntity
  8
A-WALL
100
AcDbLine
 10
25.275
 20
16.324999237060545
 30
0.0
 11
24.795
 21
16.324999237060545
 31
0.0
  0
LINE
  5
9A
330
17
100
AcDbEntity
  8
A-WALL
100
AcDbLine
 10
24.535000000000004
 20
16.424999237060547
 30
0.0
 11
25.175000000000004
 21
16.62499923706055
 31
0.0
  0
LINE
  5
9B
330
17
100
AcDbEntity
  8
A-WALL
100
AcDbLine
 10
22.455
 20
16.824999237060545
 30
0.0
 11
22.455
 21
17.424999237060547
 31
0.0
  0
LINE
  5
9C
330
17
100
AcDbEntity
  8
A-WALL
100
AcDbLine
 10
23.495000000000005
 20
17.244999237060547
 30
0.0
 11
23.495000000000005
 21
16.744999237060547
 31
0.0
  0
LINE
  5
9D
330
17
100
AcDbEntity
  8
A-WALL
100
AcDbLine
 10
22.215000000000003
 20
11.424999237060547
 30
0.0
 11
22.075000000000003
 21
11.824999237060545
 31
0.0
  0
LINE
  5
9E
330
17
100
AcDbEntity
  8
A-WALL
100
AcDbLine
 10
22.095
 20
11.824999237060545
 30
0.0
 11
22.095
 21
12.464999237060546
 31
0.0
  0
LINE
  5
9F
330
17
100
AcDbEntity
  8
A-WALL
100
AcDbLine
 10
24.915
 20
13.62499923706055
 30
0.0
 11
24.335
 21
13.62499923706055
 31
0.0
  0
LINE
  5
A0
330
17
100
AcDbEntity
  8
A-WALL
100
AcDbLine
 10
22.895000000000003
 20
13.644999237060546
 30
0.0
 11
22.475
 21
13.644999237060546
 31
0.0
  0
LINE
  5
A1
330
17
100
AcDbEntity
  8
A-WALL
100
AcDbLine
 10
22.134999999999998
 20
14.76499923706055
 30
0.0
 11
22.134999999999998
 21
13.864999237060545
 31
0.0
  0
LINE
  5
A2
330
17
100
AcDbEntity
  8
A-WALL
100
AcDbLine
 10
22.875
 20
15.364999237060545
 30
0.0
 11
23.595
 21
15.364999237060545
 31
0.0
  0
LINE
  5
A3
330
17
100
AcDbEntity
  8
A-WALL
100
AcDbLine
 10
25.695
 20
14.62499923706055
 30
0.0
 11
25.695
 21
14.184999237060545
 31
0.0
  0
LINE
  5
A4
330
17
100
AcDbEntity
  8
A-WALL
100
AcDbLine
 10
26.375
 20
14.524999237060548
 30
0.0
 11
26.375
 21
12.324999237060545
 31
0.0
  0
LINE
  5
A5
330
17
100
AcDbEntity
  8
A-WALL
100
AcDbLine
 10
26.115000000000002
 20
11.204999237060548
 30
0.0
 11
23.634999999999998
 21
11.204999237060548
 31
0.0
  0
LINE
  5
A6
330
17
100
AcDbEntity
  8
A-WALL
100
AcDbLine
 10
23.495000000000005
 20
11.224999237060551
 30
0.0
 11
22.515
 21
11.224999237060551
 31
0.0
  0
LINE
  5
A7
330
17
100
AcDbEntity
  8
A-WALL
100
AcDbLine
 10
11.915
 20
7.064999237060547
 30
0.0
 11
11.915
 21
7.844999237060549
 31
0.0
  0
LINE
  5
A8
330
17
100
AcDbEntity
  8
A-WALL
100
AcDbLine
 10
12.175000000000004
 20
8.324999237060545
 30
0.0
 11
13.255000000000003
 21
8.324999237060545
 31
0.0
  0
LINE
  5
A9
330
17
100
AcDbEntity
  8
A-WALL
100
AcDbLine
 10
13.535000000000004
 20
8.424999237060547
 30
0.0
 11
15.375
 21
8.424999237060547
 31
0.0
  0
LINE
  5
AA
330
17
100
AcDbEntity
  8
A-WALL
100
AcDbLine
 10
15.695
 20
8.164999237060549
 30
0.0
 11
15.695
 21
7.224999237060551
 31
0.0
  0
LINE
  5
AB
330
17
100
AcDbEntity
  8
A-WALL
100
AcDbLine
 10
12.215000000000003
 20
6.76499923706055
 30
0.0
 11
11.915
 21
7.064999237060547
 31
0.0
  0
LINE
  5
AC
330
17
100
AcDbEntity
  8
A-WALL
100
AcDbLine
 10
-17.224999999999998
 20
6.76499923706055
 30
0.0
 11
-17.224999999999998
 21
5.12499923706055
 31
0.0
  0
LINE
  5
AD
330
17
100
AcDbEntity
  8
A-WALL
100
AcDbLine
 10
-17.384999999999998
 20
11.564999237060547
 30
0.0
 11
-17.384999999999998
 21
12.164999237060549
 31
0.0
  0
LINE
  5
AE
330
17
100
AcDbEntity
  8
A-WALL
100
AcDbLine
 10
-17.384999999999998
 20
12.864999237060545
 30
0.0
 11
-17.384999999999998
 21
13.524999237060548
 31
0.0
  0
LINE
  5
AF
330
17
100
AcDbEntity
  8
A-WALL
100
AcDbLine
 10
-17.224999999999998
 20
7.404999237060551
 30
0.0
 11
-17.224999999999998
 21
6.76499923706055
 31
0.0
  0
LINE
  5
B0
330
17
100
AcDbEntity
  8
A-WALL
100
AcDbLine
 10
15.115000000000002
 20
4.144999237060546
 30
0.0
 11
14.395000000000003
 21
4.144999237060546
 31
0.0
  0
LINE
  5
B1
330
17
100
AcDbEntity
  8
A-WALL
100
AcDbLine
 10
14.155000000000001
 20
4.284999237060546
 30
0.0
 11
12.175000000000004
 21
4.284999237060546
 31
0.0
  0
LINE
  5
B2
330
17
100
AcDbEntity
  8
A-WALL
100
AcDbLine
 10
11.995000000000005
 20
4.62499923706055
 30
0.0
 11
11.995000000000005
 21
5.464999237060546
 31
0.0
  0
LINE
  5
B3
330
17
100
AcDbEntity
  8
A-WALL
100
AcDbLine
 10
12.215000000000003
 20
5.964999237060546
 30
0.0
 11
13.175000000000004
 21
5.964999237060546
 31
0.0
  0
LINE
  5
B4
330
17
100
AcDbEntity
  8
A-WALL
100
AcDbLine
 10
13.295000000000002
 20
5.844999237060549
 30
0.0
 11
14.295000000000002
 21
5.844999237060549
 31
0.0
  0
LINE
  5
B5
330
17
100
AcDbEntity
  8
A-WALL
100
AcDbLine
 10
14.495000000000005
 20
5.744999237060547
 30
0.0
 11
15.274999999999999
 21
5.744999237060547
 31
0.0
  0
LINE
  5
B6
330
17
100
AcDbEntity
  8
A-WALL
100
AcDbLine
 10
15.475000000000001
 20
5.424999237060547
 30
0.0
 11
15.475000000000001
 21
4.664999237060549
 31
0.0
  0
LINE
  5
B7
330
17
100
AcDbEntity
  8
A-WALL
100
AcDbLine
 10
-25.285
 20
2.44499923706055
 30
0.0
 11
-24.884999999999998
 21
2.44499923706055
 31
0.0
  0
LINE
  5
B8
330
17
100
AcDbEntity
  8
A-WALL
100
AcDbLine
 10
-17.224999999999998
 20
2.5249992370605483
 30
0.0
 11
-17.224999999999998
 21
1.6249992370605497
 31
0.0
  0
LINE
  5
B9
330
17
100
AcDbEntity
  8
A-WALL
100
AcDbLine
 10
11.415
 20
1.0649992370605474
 30
0.0
 11
11.415
 21
1.9249992370605469
 31
0.0
  0
LINE
  5
BA
330
17
100
AcDbEntity
  8
A-WALL
100
AcDbLine
 10
11.615000000000002
 20
12.30499923706055
 30
0.0
 11
13.954999999999998
 21
12.30499923706055
 31
0.0
  0
LINE
  5
BB
330
17
100
AcDbEntity
  8
A-WALL
100
AcDbLine
 10
13.995000000000005
 20
12.284999237060546
 30
0.0
 11
14.575000000000003
 21
12.284999237060546
 31
0.0
  0
LINE
  5
BC
330
17
100
AcDbEntity
  8
A-WALL
100
AcDbLine
 10
11.774999999999999
 20
11.544999237060544
 30
0.0
 11
12.875
 21
11.544999237060544
 31
0.0
  0
LINE
  5
BD
330
17
100
AcDbEntity
  8
A-WALL
100
AcDbLine
 10
13.915
 20
11.284999237060546
 30
0.0
 11
15.615000000000002
 21
11.284999237060546
 31
0.0
  0
LINE
  5
BE
330
17
100
AcDbEntity
  8
A-WALL
100
AcDbLine
 10
15.814999999999998
 20
10.924999237060547
 30
0.0
 11
15.814999999999998
 21
10.224999237060551
 31
0.0
  0
LINE
  5
BF
330
17
100
AcDbEntity
  8
A-WALL
100
AcDbLine
 10
15.814999999999998
 20
10.224999237060551
 30
0.0
 11
15.675000000000004
 21
9.62499923706055
 31
0.0
  0
LINE
  5
C0
330
17
100
AcDbEntity
  8
A-WALL
100
AcDbLine
 10
15.475000000000001
 20
9.644999237060546
 30
0.0
 11
11.875
 21
9.644999237060546
 31
0.0
  0
LINE
  5
C1
330
17
100
AcDbEntity
  8
A-WALL
100
AcDbLine
 10
11.615000000000002
 20
9.94499923706055
 30
0.0
 11
11.615000000000002
 21
9.144999237060546
 31
0.0
  0
LINE
  5
C2
330
17
100
AcDbEntity
  8
A-WALL
100
AcDbLine
 10
11.594999999999999
 20
3.164999237060549
 30
0.0
 11
11.594999999999999
 21
8.80499923706055
 31
0.0
  0
LINE
  5
C3
330
17
100
AcDbEntity
  8
A-WALL
100
AcDbLine
 10
12.335
 20
3.004999237060545
 30
0.0
 11
13.195
 21
3.004999237060545
 31
0.0
  0
LINE
  5
C4
330
17
100
AcDbEntity
  8
A-WALL
100
AcDbLine
 10
13.295000000000002
 20
3.0249992370605483
 30
0.0
 11
15.475000000000001
 21
3.0249992370605483
 31
0.0
  0
LINE
  5
C5
330
17
100
AcDbEntity
  8
A-WALL
100
AcDbLine
 10
15.495000000000005
 20
2.94499923706055
 30
0.0
 11
15.915
 21
2.94499923706055
 31
0.0
  0
LINE
  5
C6
330
17
100
AcDbEntity
  8
A-WALL
100
AcDbLine
 10
16.075000000000003
 20
2.724999237060551
 30
0.0
 11
16.075000000000003
 21
1.5649992370605474
 31
0.0
  0
LINE
  5
C7
330
17
100
AcDbEntity
  8
A-WALL
100
AcDbLine
 10
21.515
 20
1.204999237060548
 30
0.0
 11
21.515
 21
2.0649992370605474
 31
0.0
  0
LINE
  5
C8
330
17
100
AcDbEntity
  8
A-WALL
100
AcDbLine
 10
21.915
 20
2.5449992370605443
 30
0.0
 11
24.195
 21
2.5449992370605443
 31
0.0
  0
LINE
  5
C9
330
17
100
AcDbEntity
  8
A-WALL
100
AcDbLine
 10
24.215000000000003
 20
2.6449992370605457
 30
0.0
 11
25.615000000000002
 21
2.6449992370605457
 31
0.0
  0
LINE
  5
CA
330
17
100
AcDbEntity
  8
A-WALL
100
AcDbLine
 10
25.615000000000002
 20
2.6449992370605457
 30
0.0
 11
26.075000000000003
 21
2.6449992370605457
 31
0.0
  0
LINE
  5
CB
330
17
100
AcDbEntity
  8
A-WALL
100
AcDbLine
 10
26.075000000000003
 20
0.8449992370605486
 30
0.0
 11
25.235
 21
0.8449992370605486
 31
0.0
  0
LINE
  5
CC
330
17
100
AcDbEntity
  8
A-WALL
100
AcDbLine
 10
25.075000000000003
 20
0.8049992370605494
 30
0.0
 11
24.335
 21
0.8049992370605494
 31
0.0
  0
LINE
  5
CD
330
17
100
AcDbEntity
  8
A-WALL
100
AcDbLine
 10
24.315000000000005
 20
0.724999237060544
 30
0.0
 11
22.015
 21
0.724999237060544
 31
0.0
  0
LINE
  5
CE
330
17
100
AcDbEntity
  8
A-WALL
100
AcDbLine
 10
10.975000000000001
 20
-4.275000762939452
 30
0.0
 11
12.875
 21
-4.275000762939452
 31
0.0
  0
LINE
  5
CF
330
17
100
AcDbEntity
  8
A-WALL
100
AcDbLine
 10
13.015
 20
-0.33500076293945114
 30
0.0
 11
13.415
 21
-0.25500076293945284
 31
0.0
  0
LINE
  5
D0
330
17
100
AcDbEntity
  8
A-WALL
100
AcDbLine
 10
15.615000000000002
 20
0.204999237060548
 30
0.0
 11
15.975000000000001
 21
0.5249992370605483
 31
0.0
  0
LINE
  5
D1
330
17
100
AcDbEntity
  8
A-WALL
100
AcDbLine
 10
15.975000000000001
 20
0.5249992370605483
 30
0.0
 11
16.775
 21
0.5249992370605483
 31
0.0
  0
LINE
  5
D2
330
17
100
AcDbEntity
  8
A-WALL
100
AcDbLine
 10
17.175000000000004
 20
0.024999237060548296
 30
0.0
 11
17.175000000000004
 21
-0.7150007629394537
 31
0.0
  0
LINE
  5
D3
330
17
100
AcDbEntity
  8
A-WALL
100
AcDbLine
 10
17.175000000000004
 20
-0.9550007629394521
 30
0.0
 11
17.175000000000004
 21
-3.135000762939452
 31
0.0
  0
LINE
  5
D4
330
17
100
AcDbEntity
  8
A-WALL
100
AcDbLine
 10
16.915
 20
-3.2750007629394524
 30
0.0
 11
16.235
 21
-3.2750007629394524
 31
0.0
  0
LINE
  5
D5
330
17
100
AcDbEntity
  8
A-WALL
100
AcDbLine
 10
16.155
 20
-3.255000762939453
 30
0.0
 11
15.715000000000003
 21
-3.255000762939453
 31
0.0
  0
LINE
  5
D6
330
17
100
AcDbEntity
  8
A-WALL
100
AcDbLine
 10
15.535000000000004
 20
-2.135000762939452
 30
0.0
 11
15.535000000000004
 21
-3.035000762939454
 31
0.0
  0
LINE
  5
D7
330
17
100
AcDbEntity
  8
A-WALL
100
AcDbLine
 10
6.615000000000002
 20
-4.535000762939454
 30
0.0
 11
6.615000000000002
 21
-3.875000762939454
 31
0.0
  0
LINE
  5
D8
330
17
100
AcDbEntity
  8
A-WALL
100
AcDbLine
 10
-13.884999999999998
 20
-4.5550007629394536
 30
0.0
 11
-14.285
 21
-4.5550007629394536
 31
0.0
  0
LINE
  5
D9
330
17
100
AcDbEntity
  8
A-WALL
100
AcDbLine
 10
21.814999999999998
 20
-4.135000762939452
 30
0.0
 11
21.814999999999998
 21
-3.2750007629394524
 31
0.0
  0
LINE
  5
DA
330
17
100
AcDbEntity
  8
A-WALL
100
AcDbLine
 10
23.495000000000005
 20
-2.875000762939454
 30
0.0
 11
23.975
 21
-2.875000762939454
 31
0.0
  0
LINE
  5
DB
330
17
100
AcDbEntity
  8
A-WALL
100
AcDbLine
 10
23.995000000000005
 20
-2.955000762939452
 30
0.0
 11
25.675000000000004
 21
-2.955000762939452
 31
0.0
  0
LINE
  5
DC
330
17
100
AcDbEntity
  8
A-WALL
100
AcDbLine
 10
25.895000000000003
 20
-3.2350007629394533
 30
0.0
 11
25.895000000000003
 21
-4.375000762939454
 31
0.0
  0
LINE
  5
DD
330
17
100
AcDbEntity
  8
A-WALL
100
AcDbLine
 10
25.615000000000002
 20
-4.635000762939452
 30
0.0
 11
22.115000000000002
 21
-4.635000762939452
 31
0.0
  0
LINE
  5
DE
330
17
100
AcDbEntity
  8
A-WALL
100
AcDbLine
 10
-17.265
 20
-4.075000762939453
 30
0.0
 11
-17.265
 21
-5.015000762939451
 31
0.0
  0
LINE
  5
DF
330
17
100
AcDbEntity
  8
A-WALL
100
AcDbLine
 10
-16.945
 20
-3.7350007629394533
 30
0.0
 11
-16.945
 21
-3.1550007629394514
 31
0.0
  0
LINE
  5
E0
330
17
100
AcDbEntity
  8
A-WALL
100
AcDbLine
 10
-16.905
 20
-3.0550007629394536
 30
0.0
 11
-16.905
 21
-1.5950007629394527
 31
0.0
  0
LINE
  5
E1
330
17
100
AcDbEntity
  8
A-WALL
100
AcDbLine
 10
-17.205
 20
0.7649992370605503
 30
0.0
 11
-17.205
 21
0.14499923706054574
 31
0.0
  0
LINE
  5
E2
330
17
100
AcDbEntity
  8
A-WALL
100
AcDbLine
 10
-14.465
 20
0.32499923706054545
 30
0.0
 11
-13.805
 21
0.32499923706054545
 31
0.0
  0
LINE
  5
E3
330
17
100
AcDbEntity
  8
A-WALL
100
AcDbLine
 10
-10.945
 20
3.44499923706055
 30
0.0
 11
-10.945
 21
2.7649992370605503
 31
0.0
  0
LINE
  5
E4
330
17
100
AcDbEntity
  8
A-WALL
100
AcDbLine
 10
-10.785
 20
3.6449992370605457
 30
0.0
 11
-10.785
 21
9.40499923706055
 31
0.0
  0
LINE
  5
E5
330
17
100
AcDbEntity
  8
A-WALL
100
AcDbLine
 10
-10.985
 20
9.424999237060547
 30
0.0
 11
-10.985
 21
10.26499923706055
 31
0.0
  0
LINE
  5
E6
330
17
100
AcDbEntity
  8
A-WALL
100
AcDbLine
 10
-10.785
 20
10.284999237060546
 30
0.0
 11
-10.785
 21
10.844999237060549
 31
0.0
  0
LINE
  5
E7
330
17
100
AcDbEntity
  8
A-WALL
100
AcDbLine
 10
-10.805
 20
12.044999237060544
 30
0.0
 11
-10.805
 21
15.604999237060547
 31
0.0
  0
LINE
  5
E8
330
17
100
AcDbEntity
  8
A-WALL
100
AcDbLine
 10
-10.945
 20
15.76499923706055
 30
0.0
 11
-11.405000000000001
 21
15.76499923706055
 31
0.0
  0
LINE
  5
E9
330
17
100
AcDbEntity
  8
A-WALL
100
AcDbLine
 10
-11.425
 20
15.644999237060546
 30
0.0
 11
-16.925
 21
15.644999237060546
 31
0.0
  0
LINE
  5
EA
330
17
100
AcDbEntity
  8
A-WALL
100
AcDbLine
 10
-16.945
 20
16.26499923706055
 30
0.0
 11
-16.945
 21
17.004999237060545
 31
0.0
  0
LINE
  5
EB
330
17
100
AcDbEntity
  8
A-WALL
100
AcDbLine
 10
-17.005
 20
17.02499923706055
 30
0.0
 11
-17.005
 21
17.964999237060546
 31
0.0
  0
LINE
  5
EC
330
17
100
AcDbEntity
  8
A-WALL
100
AcDbLine
 10
-11.405000000000001
 20
18.26499923706055
 30
0.0
 11
-11.004999999999999
 21
18.26499923706055
 31
0.0
  0
LINE
  5
ED
330
17
100
AcDbEntity
  8
A-WALL
100
AcDbLine
 10
-10.985
 20
18.44499923706055
 30
0.0
 11
-6.044999999999998
 21
18.44499923706055
 31
0.0
  0
LINE
  5
EE
330
17
100
AcDbEntity
  8
A-WALL
100
AcDbLine
 10
-5.265000000000001
 20
18.12499923706055
 30
0.0
 11
-4.844999999999999
 21
18.12499923706055
 31
0.0
  0
LINE
  5
EF
330
17
100
AcDbEntity
  8
A-WALL
100
AcDbLine
 10
-4.784999999999997
 20
15.884999237060548
 30
0.0
 11
-4.784999999999997
 21
19.02499923706055
 31
0.0
  0
LINE
  5
F0
330
17
100
AcDbEntity
  8
A-WALL
100
AcDbLine
 10
-4.844999999999999
 20
19.04499923706055
 30
0.0
 11
-4.424999999999997
 21
19.04499923706055
 31
0.0
  0
LINE
  5
F1
330
17
100
AcDbEntity
  8
A-WALL
100
AcDbLine
 10
-2.144999999999996
 20
22.08499923706055
 30
0.0
 11
-1.8249999999999957
 21
22.364999237060545
 31
0.0
  0
LINE
  5
F2
330
17
100
AcDbEntity
  8
A-WALL
100
AcDbLine
 10
-1.865000000000002
 20
27.02499923706055
 30
0.0
 11
-1.865000000000002
 21
22.34499923706055
 31
0.0
  0
LINE
  5
F3
330
17
100
AcDbEntity
  8
A-WALL
100
AcDbLine
 10
-2.125
 20
23.784999237060546
 30
0.0
 11
-2.125
 21
24.504999237060545
 31
0.0
  0
LINE
  5
F4
330
17
100
AcDbEntity
  8
A-WALL
100
AcDbLine
 10
-4.405000000000001
 20
20.44499923706055
 30
0.0
 11
-4.405000000000001
 21
19.784999237060546
 31
0.0
  0
LINE
  5
F5
330
17
100
AcDbEntity
  8
A-WALL
100
AcDbLine
 10
-4.664999999999999
 20
15.844999237060549
 30
0.0
 11
-3.924999999999997
 21
15.844999237060549
 31
0.0
  0
LINE
  5
F6
330
17
100
AcDbEntity
  8
A-WALL
100
AcDbLine
 10
-3.7650000000000006
 20
15.664999237060549
 30
0.0
 11
-2.5249999999999986
 21
15.664999237060549
 31
0.0
  0
LINE
  5
F7
330
17
100
AcDbEntity
  8
A-WALL
100
AcDbLine
 10
-2.4849999999999994
 20
15.144999237060546
 30
0.0
 11
-2.4849999999999994
 21
13.76499923706055
 31
0.0
  0
LINE
  5
F8
330
17
100
AcDbEntity
  8
A-WALL
100
AcDbLine
 10
-2.4849999999999994
 20
13.76499923706055
 30
0.0
 11
-3.884999999999998
 21
13.76499923706055
 31
0.0
  0
LINE
  5
F9
330
17
100
AcDbEntity
  8
A-WALL
100
AcDbLine
 10
-3.924999999999997
 20
13.644999237060546
 30
0.0
 11
-3.924999999999997
 21
11.864999237060545
 31
0.0
  0
LINE
  5
FA
330
17
100
AcDbEntity
  8
A-WALL
100
AcDbLine
 10
-3.924999999999997
 20
11.864999237060545
 30
0.0
 11
-4.564999999999998
 21
11.864999237060545
 31
0.0
  0
LINE
  5
FB
330
17
100
AcDbEntity
  8
A-WALL
100
AcDbLine
 10
-4.704999999999998
 20
11.604999237060547
 30
0.0
 11
-4.704999999999998
 21
4.784999237060546
 31
0.0
  0
LINE
  5
FC
330
17
100
AcDbEntity
  8
A-WALL
100
AcDbLine
 10
-4.484999999999999
 20
4.524999237060548
 30
0.0
 11
-4.484999999999999
 21
3.2649992370605503
 31
0.0
  0
LINE
  5
FD
330
17
100
AcDbEntity
  8
A-WALL
100
AcDbLine
 10
-4.585000000000001
 20
0.6449992370605457
 30
0.0
 11
-4.104999999999997
 21
0.6449992370605457
 31
0.0
  0
LINE
  5
FE
330
17
100
AcDbEntity
  8
A-WALL
100
AcDbLine
 10
-3.905000000000001
 20
0.6449992370605457
 30
0.0
 11
-0.2049999999999983
 21
0.6449992370605457
 31
0.0
  0
LINE
  5
FF
330
17
100
AcDbEntity
  8
A-WALL
100
AcDbLine
 10
-0.2049999999999983
 20
0.204999237060548
 30
0.0
 11
-0.2049999999999983
 21
-4.655000762939451
 31
0.0
  0
LINE
  5
100
330
17
100
AcDbEntity
  8
A-WALL
100
AcDbLine
 10
-0.2049999999999983
 20
-5.075000762939453
 30
0.0
 11
-0.7049999999999983
 21
-5.075000762939453
 31
0.0
  0
LINE
  5
101
330
17
100
AcDbEntity
  8
A-WALL
100
AcDbLine
 10
-0.7449999999999974
 20
-4.995000762939451
 30
0.0
 11
-6.024999999999999
 21
-4.995000762939451
 31
0.0
  0
LINE
  5
102
330
17
100
AcDbEntity
  8
A-WALL
100
AcDbLine
 10
-6.105
 20
-4.955000762939452
 30
0.0
 11
-9.184999999999999
 21
-4.955000762939452
 31
0.0
  0
LINE
  5
103
330
17
100
AcDbEntity
  8
A-WALL
100
AcDbLine
 10
-9.184999999999999
 20
-4.955000762939452
 30
0.0
 11
-9.585
 21
-4.955000762939452
 31
0.0
  0
LINE
  5
104
330
17
100
AcDbEntity
  8
A-WALL
100
AcDbLine
 10
-9.645
 20
-4.775000762939452
 30
0.0
 11
-10.605
 21
-4.775000762939452
 31
0.0
  0
LINE
  5
105
330
17
100
AcDbEntity
  8
A-WALL
100
AcDbLine
 10
-12.704999999999998
 20
-4.855000762939454
 30
0.0
 11
-13.105
 21
-4.855000762939454
 31
0.0
  0
LINE
  5
106
330
17
100
AcDbEntity
  8
A-WALL
100
AcDbLine
 10
-13.105
 20
-4.835000762939451
 30
0.0
 11
-14.724999999999998
 21
-4.835000762939451
 31
0.0
  0
LINE
  5
107
330
17
100
AcDbEntity
  8
A-WALL
100
AcDbLine
 10
-11.305
 20
-4.355000762939454
 30
0.0
 11
-11.305
 21
-1.9950007629394513
 31
0.0
  0
LINE
  5
108
330
17
100
AcDbEntity
  8
A-WALL
100
AcDbLine
 10
-12.884999999999998
 20
-1.9750007629394517
 30
0.0
 11
-13.384999999999998
 21
-1.7350007629394533
 31
0.0
  0
LINE
  5
109
330
17
100
AcDbEntity
  8
A-WALL
100
AcDbLine
 10
-13.785
 20
-1.035000762939454
 30
0.0
 11
-13.585
 21
-1.415000762939453
 31
0.0
  0
LINE
  5
10A
330
17
100
AcDbEntity
  8
A-WALL
100
AcDbLine
 10
-13.585
 20
-1.415000762939453
 30
0.0
 11
-13.265
 21
-1.7350007629394533
 31
0.0
  0
LINE
  5
10B
330
17
100
AcDbEntity
  8
A-WALL
100
AcDbLine
 10
-13.265
 20
-1.7350007629394533
 30
0.0
 11
-12.785
 21
-1.8750007629394538
 31
0.0
  0
LINE
  5
10C
330
17
100
AcDbEntity
  8
A-WALL
100
AcDbLine
 10
-11.344999999999999
 20
-1.6350007629394518
 30
0.0
 11
-11.344999999999999
 21
-0.45500076293945213
 31
0.0
  0
LINE
  5
10D
330
17
100
AcDbEntity
  8
A-WALL
100
AcDbLine
 10
-13.585
 20
-0.05500076293945
 30
0.0
 11
-13.585
 21
-0.7150007629394537
 31
0.0
  0
LINE
  5
10E
330
17
100
AcDbEntity
  8
A-WALL
100
AcDbLine
 10
-13.864999999999998
 20
-0.675000762939451
 30
0.0
 11
-13.864999999999998
 21
0.024999237060548296
 31
0.0
  0
LINE
  5
10F
330
17
100
AcDbEntity
  8
A-WALL
100
AcDbLine
 10
-16.505
 20
-1.3350007629394511
 30
0.0
 11
-15.344999999999999
 21
-1.3350007629394511
 31
0.0
  0
LINE
  5
110
330
17
100
AcDbEntity
  8
A-WALL
100
AcDbLine
 10
-15.085
 20
-1.5950007629394527
 30
0.0
 11
-15.085
 21
-2.1150007629394523
 31
0.0
  0
LINE
  5
111
330
17
100
AcDbEntity
  8
A-WALL
100
AcDbLine
 10
-15.184999999999999
 20
-4.935000762939453
 30
0.0
 11
-16.265
 21
-4.935000762939453
 31
0.0
  0
LINE
  5
112
330
17
100
AcDbEntity
  8
A-WALL
100
AcDbLine
 10
-16.625
 20
-5.175000762939451
 30
0.0
 11
-17.285
 21
-5.175000762939451
 31
0.0
  0
LINE
  5
113
330
17
100
AcDbEntity
  8
A-WALL
100
AcDbLine
 10
17.095
 20
-7.715000762939454
 30
0.0
 11
15.235
 21
-7.715000762939454
 31
0.0
  0
LINE
  5
114
330
17
100
AcDbEntity
  8
A-WALL
100
AcDbLine
 10
26.674999999999997
 20
-0.3550007629394507
 30
0.0
 11
26.674999999999997
 21
0.8049992370605494
 31
0.0
  0
LINE
  5
115
330
17
100
AcDbEntity
  8
A-WALL
100
AcDbLine
 10
15.375
 20
18.76499923706055
 30
0.0
 11
16.555
 21
18.76499923706055
 31
0.0
  0
LINE
  5
116
330
17
100
AcDbEntity
  8
A-WALL
100
AcDbLine
 10
16.555
 20
18.744999237060547
 30
0.0
 11
17.195
 21
18.744999237060547
 31
0.0
  0
LINE
  5
117
330
17
100
AcDbEntity
  8
A-WALL
100
AcDbLine
 10
17.895000000000003
 20
18.98499923706055
 30
0.0
 11
17.895000000000003
 21
19.424999237060547
 31
0.0
  0
LINE
  5
118
330
17
100
AcDbEntity
  8
A-WALL
100
AcDbLine
 10
14.415
 20
20.66499923706055
 30
0.0
 11
13.975000000000001
 21
20.76499923706055
 31
0.0
  0
LINE
  5
119
330
17
100
AcDbEntity
  8
A-WALL
100
AcDbLine
 10
14.695
 20
21.324999237060545
 30
0.0
 11
14.814999999999998
 21
21.76499923706055
 31
0.0
  0
LINE
  5
11A
330
17
100
AcDbEntity
  8
A-WALL
100
AcDbLine
 10
16.675000000000004
 20
21.84499923706055
 30
0.0
 11
16.314999999999998
 21
22.22499923706055
 31
0.0
  0
LINE
  5
11B
330
17
100
AcDbEntity
  8
A-WALL
100
AcDbLine
 10
17.814999999999998
 20
20.964999237060546
 30
0.0
 11
18.215000000000003
 21
20.824999237060545
 31
0.0
  0
LINE
  5
11C
330
17
100
AcDbEntity
  8
A-WALL
100
AcDbLine
 10
18.215000000000003
 20
20.824999237060545
 30
0.0
 11
18.375
 21
20.44499923706055
 31
0.0
  0
LINE
  5
11D
330
17
100
AcDbEntity
  8
A-WALL
100
AcDbLine
 10
17.735
 20
18.604999237060547
 30
0.0
 11
25.895000000000003
 21
18.604999237060547
 31
0.0
  0
LINE
  5
11E
330
17
100
AcDbEntity
  8
A-WALL
100
AcDbLine
 10
26.894999999999996
 20
7.424999237060547
 30
0.0
 11
26.894999999999996
 21
5.384999237060548
 31
0.0
  0
LINE
  5
11F
330
17
100
AcDbEntity
  8
A-WALL
100
AcDbLine
 10
26.875
 20
4.484999237060549
 30
0.0
 11
26.875
 21
3.6249992370605497
 31
0.0
  0
LINE
  5
120
330
17
100
AcDbEntity
  8
A-WALL
100
AcDbLine
 10
26.814999999999998
 20
3.3449992370605486
 30
0.0
 11
26.814999999999998
 21
-5.415000762939453
 31
0.0
  0
LINE
  5
121
330
17
100
AcDbEntity
  8
A-WALL
100
AcDbLine
 10
26.795
 20
-5.595000762939453
 30
0.0
 11
26.795
 21
-6.095000762939453
 31
0.0
  0
LINE
  5
122
330
17
100
AcDbEntity
  8
A-WALL
100
AcDbLine
 10
-17.065
 20
-10.655000762939451
 30
0.0
 11
-17.065
 21
-11.135000762939452
 31
0.0
  0
LINE
  5
123
330
17
100
AcDbEntity
  8
A-WALL
100
AcDbLine
 10
-16.724999999999998
 20
-11.955000762939452
 30
0.0
 11
-17.125
 21
-11.955000762939452
 31
0.0
  0
LINE
  5
124
330
17
100
AcDbEntity
  8
A-WALL
100
AcDbLine
 10
-17.065
 20
-13.035000762939454
 30
0.0
 11
-17.065
 21
-13.935000762939453
 31
0.0
  0
LINE
  5
125
330
17
100
AcDbEntity
  8
A-WALL
100
AcDbLine
 10
-17.025
 20
-14.555000762939454
 30
0.0
 11
-17.025
 21
-14.975000762939452
 31
0.0
  0
LINE
  5
126
330
17
100
AcDbEntity
  8
A-WALL
100
AcDbLine
 10
-28.525
 20
-13.835000762939451
 30
0.0
 11
-28.525
 21
-16.275000762939452
 31
0.0
  0
LINE
  5
127
330
17
100
AcDbEntity
  8
A-WALL
100
AcDbLine
 10
-28.884999999999998
 20
-15.555000762939454
 30
0.0
 11
-28.884999999999998
 21
-14.875000762939454
 31
0.0
  0
LINE
  5
128
330
17
100
AcDbEntity
  8
A-WALL
100
AcDbLine
 10
-28.865000000000002
 20
-14.775000762939452
 30
0.0
 11
-28.525
 21
-14.535000762939454
 31
0.0
  0
LINE
  5
129
330
17
100
AcDbEntity
  8
A-WALL
100
AcDbLine
 10
-28.445
 20
-10.275000762939452
 30
0.0
 11
-28.445
 21
-13.675000762939451
 31
0.0
  0
LINE
  5
12A
330
17
100
AcDbEntity
  8
A-WALL
100
AcDbLine
 10
-28.525
 20
-12.555000762939454
 30
0.0
 11
-29.005
 21
-12.555000762939454
 31
0.0
  0
LINE
  5
12B
330
17
100
AcDbEntity
  8
A-WALL
100
AcDbLine
 10
-29.105
 20
-11.775000762939452
 30
0.0
 11
-28.564999999999998
 21
-11.535000762939454
 31
0.0
  0
LINE
  5
12C
330
17
100
AcDbEntity
  8
A-WALL
100
AcDbLine
 10
-28.965
 20
-3.675000762939451
 30
0.0
 11
-29.465
 21
-3.675000762939451
 31
0.0
  0
LINE
  5
12D
330
17
100
AcDbEntity
  8
A-WALL
100
AcDbLine
 10
-29.505
 20
-3.6550007629394514
 30
0.0
 11
-29.064999999999998
 21
-3.6550007629394514
 31
0.0
  0
LINE
  5
12E
330
17
100
AcDbEntity
  8
A-WALL
100
AcDbLine
 10
-28.725
 20
-3.175000762939451
 30
0.0
 11
-28.725
 21
-3.635000762939452
 31
0.0
  0
LINE
  5
12F
330
17
100
AcDbEntity
  8
A-WALL
100
AcDbLine
 10
-28.865000000000002
 20
-0.45500076293945213
 30
0.0
 11
-28.865000000000002
 21
-3.035000762939454
 31
0.0
  0
LINE
  5
130
330
17
100
AcDbEntity
  8
A-WALL
100
AcDbLine
 10
-28.905
 20
0.12499923706054972
 30
0.0
 11
-28.905
 21
2.8449992370605486
 31
0.0
  0
LINE
  5
131
330
17
100
AcDbEntity
  8
A-WALL
100
AcDbLine
 10
-28.825
 20
3.3049992370605494
 30
0.0
 11
-28.825
 21
2.8849992370605477
 31
0.0
  0
LINE
  5
132
330
17
100
AcDbEntity
  8
A-WALL
100
AcDbLine
 10
-28.485
 20
-17.47500076293945
 30
0.0
 11
-28.485
 21
-18.235000762939453
 31
0.0
  0
LINE
  5
133
330
17
100
AcDbEntity
  8
A-WALL
100
AcDbLine
 10
-28.445
 20
-17.455000762939452
 30
0.0
 11
-29.365000000000002
 21
-17.455000762939452
 31
0.0
  0
LINE
  5
134
330
17
100
AcDbEntity
  8
A-WALL
100
AcDbLine
 10
-29.325
 20
-17.37500076293945
 30
0.0
 11
-29.325
 21
-16.895000762939453
 31
0.0
  0
LINE
  5
135
330
17
100
AcDbEntity
  8
A-WALL
100
AcDbLine
 10
19.134999999999998
 20
-17.435000762939453
 30
0.0
 11
18.695
 21
-17.555000762939454
 31
0.0
  0
LINE
  5
136
330
17
100
AcDbEntity
  8
A-WALL
100
AcDbLine
 10
-18.685
 20
-19.455000762939452
 30
0.0
 11
-17.825
 21
-19.455000762939452
 31
0.0
  0
LINE
  5
137
330
17
100
AcDbEntity
  8
A-WALL
100
AcDbLine
 10
15.015
 20
-19.33500076293945
 30
0.0
 11
15.015
 21
-18.895000762939453
 31
0.0
  0
LINE
  5
138
330
17
100
AcDbEntity
  8
A-WALL
100
AcDbLine
 10
15.015
 20
-18.895000762939453
 30
0.0
 11
14.515
 21
-18.775000762939452
 31
0.0
  0
LINE
  5
139
330
17
100
AcDbEntity
  8
A-WALL
100
AcDbLine
 10
14.235
 20
-17.315000762939455
 30
0.0
 11
14.695
 21
-17.315000762939455
 31
0.0
  0
LINE
  5
13A
330
17
100
AcDbEntity
  8
A-WALL
100
AcDbLine
 10
14.115000000000002
 20
-16.275000762939452
 30
0.0
 11
13.634999999999998
 21
-16.275000762939452
 31
0.0
  0
LINE
  5
13B
330
17
100
AcDbEntity
  8
A-WALL
100
AcDbLine
 10
13.175000000000004
 20
-16.575000762939453
 30
0.0
 11
12.735
 21
-16.575000762939453
 31
0.0
  0
LINE
  5
13C
330
17
100
AcDbEntity
  8
A-WALL
100
AcDbLine
 10
14.195
 20
-13.435000762939453
 30
0.0
 11
14.895000000000003
 21
-13.435000762939453
 31
0.0
  0
LINE
  5
13D
330
17
100
AcDbEntity
  8
A-WALL
100
AcDbLine
 10
17.775
 20
-12.635000762939452
 30
0.0
 11
17.575000000000003
 21
-12.255000762939453
 31
0.0
  0
LINE
  5
13E
330
17
100
AcDbEntity
  8
A-WALL
100
AcDbLine
 10
17.575000000000003
 20
-12.255000762939453
 30
0.0
 11
17.215000000000003
 21
-12.075000762939453
 31
0.0
  0
LINE
  5
13F
330
17
100
AcDbEntity
  8
A-WALL
100
AcDbLine
 10
17.375
 20
-11.575000762939453
 30
0.0
 11
17.895000000000003
 21
-11.575000762939453
 31
0.0
  0
LINE
  5
140
330
17
100
AcDbEntity
  8
A-WALL
100
AcDbLine
 10
18.915
 20
-8.735000762939453
 30
0.0
 11
19.455
 21
-8.735000762939453
 31
0.0
  0
LINE
  5
141
330
17
100
AcDbEntity
  8
A-WALL
100
AcDbLine
 10
19.455
 20
-8.735000762939453
 30
0.0
 11
19.715000000000003
 21
-8.275000762939452
 31
0.0
  0
LINE
  5
142
330
17
100
AcDbEntity
  8
A-WALL
100
AcDbLine
 10
21.075000000000003
 20
-9.455000762939452
 30
0.0
 11
21.475
 21
-9.675000762939451
 31
0.0
  0
LINE
  5
143
330
17
100
AcDbEntity
  8
A-WALL
100
AcDbLine
 10
21.595
 20
-9.795000762939452
 30
0.0
 11
22.015
 21
-9.795000762939452
 31
0.0
  0
LINE
  5
144
330
17
100
AcDbEntity
  8
A-WALL
100
AcDbLine
 10
22.175000000000004
 20
-10.115000762939452
 30
0.0
 11
21.595
 21
-10.115000762939452
 31
0.0
  0
LINE
  5
145
330
17
100
AcDbEntity
  8
A-WALL
100
AcDbLine
 10
21.455
 20
-10.115000762939452
 30
0.0
 11
20.795
 21
-10.115000762939452
 31
0.0
  0
LINE
  5
146
330
17
100
AcDbEntity
  8
A-WALL
100
AcDbLine
 10
20.795
 20
-10.335000762939451
 30
0.0
 11
21.275
 21
-10.435000762939453
 31
0.0
  0
LINE
  5
147
330
17
100
AcDbEntity
  8
A-WALL
100
AcDbLine
 10
19.715000000000003
 20
-12.795000762939452
 30
0.0
 11
19.814999999999998
 21
-13.235000762939453
 31
0.0
  0
LINE
  5
148
330
17
100
AcDbEntity
  8
A-WALL
100
AcDbLine
 10
17.095
 20
-14.875000762939454
 30
0.0
 11
17.095
 21
-15.315000762939452
 31
0.0
  0
LINE
  5
149
330
17
100
AcDbEntity
  8
A-WALL
100
AcDbLine
 10
15.235
 20
-19.315000762939455
 30
0.0
 11
15.715000000000003
 21
-19.315000762939455
 31
0.0
  0
LINE
  5
14A
330
17
100
AcDbEntity
  8
A-WALL
100
AcDbLine
 10
15.515
 20
-19.535000762939454
 30
0.0
 11
15.015
 21
-19.33500076293945
 31
0.0
  0
LINE
  5
14B
330
17
100
AcDbEntity
  8
A-WALL
100
AcDbLine
 10
-17.224999999999998
 20
-19.15500076293945
 30
0.0
 11
-17.224999999999998
 21
-19.65500076293945
 31
0.0
  0
LINE
  5
14C
330
17
100
AcDbEntity
  8
A-WALL
100
AcDbLine
 10
-24.325
 20
-20.775000762939452
 30
0.0
 11
-24.325
 21
-19.735000762939453
 31
0.0
  0
LINE
  5
14D
330
17
100
AcDbEntity
  8
A-WALL
100
AcDbLine
 10
-24.924999999999997
 20
-19.715000762939454
 30
0.0
 11
-25.585
 21
-19.715000762939454
 31
0.0
  0
LINE
  5
14E
330
17
100
AcDbEntity
  8
A-WALL
100
AcDbLine
 10
15.395000000000003
 20
-20.65500076293945
 30
0.0
 11
15.715000000000003
 21
-20.37500076293945
 31
0.0
  0
LINE
  5
14F
330
17
100
AcDbEntity
  8
A-WALL
100
AcDbLine
 10
16.175000000000004
 20
-20.51500076293945
 30
0.0
 11
15.634999999999998
 21
-20.51500076293945
 31
0.0
  0
LINE
  5
150
330
17
100
AcDbEntity
  8
A-WALL
100
AcDbLine
 10
-3.2650000000000006
 20
-19.055000762939454
 30
0.0
 11
-3.2650000000000006
 21
-21.37500076293945
 31
0.0
  0
LINE
  5
151
330
17
100
AcDbEntity
  8
A-WALL
100
AcDbLine
 10
-6.445
 20
-20.315000762939455
 30
0.0
 11
-8.465
 21
-20.315000762939455
 31
0.0
  0
LINE
  5
152
330
17
100
AcDbEntity
  8
A-WALL
100
AcDbLine
 10
-8.605
 20
-20.575000762939453
 30
0.0
 11
-9.204999999999998
 21
-20.435000762939453
 31
0.0
  0
LINE
  5
153
330
17
100
AcDbEntity
  8
A-WALL
100
AcDbLine
 10
-9.204999999999998
 20
-20.455000762939452
 30
0.0
 11
-9.605
 21
-20.455000762939452
 31
0.0
  0
LINE
  5
154
330
17
100
AcDbEntity
  8
A-WALL
100
AcDbLine
 10
-9.684999999999999
 20
-20.15500076293945
 30
0.0
 11
-10.085
 21
-20.075000762939453
 31
0.0
  0
LINE
  5
155
330
17
100
AcDbEntity
  8
A-WALL
100
AcDbLine
 10
-10.105
 20
-19.87500076293945
 30
0.0
 11
-10.564999999999998
 21
-19.87500076293945
 31
0.0
  0
LINE
  5
156
330
17
100
AcDbEntity
  8
A-WALL
100
AcDbLine
 10
-10.585
 20
-19.955000762939452
 30
0.0
 11
-11.524999999999999
 21
-19.955000762939452
 31
0.0
  0
LINE
  5
157
330
17
100
AcDbEntity
  8
A-WALL
100
AcDbLine
 10
-11.544999999999998
 20
-19.65500076293945
 30
0.0
 11
-16.185
 21
-19.65500076293945
 31
0.0
  0
LINE
  5
158
330
17
100
AcDbEntity
  8
A-WALL
100
AcDbLine
 10
-16.325
 20
-19.37500076293945
 30
0.0
 11
-16.325
 21
-18.895000762939453
 31
0.0
  0
LINE
  5
159
330
17
100
AcDbEntity
  8
A-WALL
100
AcDbLine
 10
-17.165
 20
-17.395000762939453
 30
0.0
 11
-10.085
 21
-17.395000762939453
 31
0.0
  0
LINE
  5
15A
330
17
100
AcDbEntity
  8
A-WALL
100
AcDbLine
 10
-17.105
 20
-15.875000762939454
 30
0.0
 11
-17.105
 21
-16.47500076293945
 31
0.0
  0
LINE
  5
15B
330
17
100
AcDbEntity
  8
A-WALL
100
AcDbLine
 10
-10.085
 20
-17.415000762939453
 30
0.0
 11
-10.085
 21
-16.735000762939453
 31
0.0
  0
LINE
  5
15C
330
17
100
AcDbEntity
  8
A-WALL
100
AcDbLine
 10
-10.224999999999998
 20
-15.835000762939451
 30
0.0
 11
-10.224999999999998
 21
-15.055000762939454
 31
0.0
  0
LINE
  5
15D
330
17
100
AcDbEntity
  8
A-WALL
100
AcDbLine
 10
-10.085
 20
-15.035000762939454
 30
0.0
 11
-10.085
 21
-13.135000762939452
 31
0.0
  0
LINE
  5
15E
330
17
100
AcDbEntity
  8
A-WALL
100
AcDbLine
 10
-10.285
 20
-12.275000762939452
 30
0.0
 11
-10.285
 21
-11.755000762939453
 31
0.0
  0
LINE
  5
15F
330
17
100
AcDbEntity
  8
A-WALL
100
AcDbLine
 10
-10.085
 20
-11.455000762939452
 30
0.0
 11
-10.085
 21
-8.635000762939452
 31
0.0
  0
LINE
  5
160
330
17
100
AcDbEntity
  8
A-WALL
100
AcDbLine
 10
-13.184999999999999
 20
-7.735000762939453
 30
0.0
 11
-13.184999999999999
 21
-8.735000762939453
 31
0.0
  0
LINE
  5
161
330
17
100
AcDbEntity
  8
A-WALL
100
AcDbLine
 10
-15.485
 20
-7.815000762939452
 30
0.0
 11
-16.585
 21
-7.815000762939452
 31
0.0
  0
LINE
  5
162
330
17
100
AcDbEntity
  8
A-WALL
100
AcDbLine
 10
-16.605
 20
-7.635000762939452
 30
0.0
 11
-17.325
 21
-7.635000762939452
 31
0.0
  0
LINE
  5
163
330
17
100
AcDbEntity
  8
A-WALL
100
AcDbLine
 10
-17.224999999999998
 20
-8.275000762939452
 30
0.0
 11
-17.224999999999998
 21
-7.635000762939452
 31
0.0
  0
LINE
  5
164
330
17
100
AcDbEntity
  8
A-WALL
100
AcDbLine
 10
-17.105
 20
-9.575000762939453
 30
0.0
 11
-17.105
 21
-8.495000762939451
 31
0.0
  0
LINE
  5
165
330
17
100
AcDbEntity
  8
A-WALL
100
AcDbLine
 10
-13.224999999999998
 20
-8.335000762939451
 30
0.0
 11
-13.224999999999998
 21
-7.735000762939453
 31
0.0
  0
LINE
  5
166
330
17
100
AcDbEntity
  8
A-WALL
100
AcDbLine
 10
-3.9649999999999963
 20
-8.055000762939454
 30
0.0
 11
-1.9050000000000011
 21
-8.055000762939454
 31
0.0
  0
LINE
  5
167
330
17
100
AcDbEntity
  8
A-WALL
100
AcDbLine
 10
-1.2049999999999983
 20
-8.035000762939454
 30
0.0
 11
-1.2049999999999983
 21
-9.055000762939454
 31
0.0
  0
LINE
  5
168
330
17
100
AcDbEntity
  8
A-WALL
100
AcDbLine
 10
-1.0249999999999986
 20
-9.235000762939453
 30
0.0
 11
-1.0249999999999986
 21
-10.475000762939452
 31
0.0
  0
LINE
  5
169
330
17
100
AcDbEntity
  8
A-WALL
100
AcDbLine
 10
-1.2049999999999983
 20
-10.555000762939454
 30
0.0
 11
-1.2049999999999983
 21
-11.015000762939454
 31
0.0
  0
LINE
  5
16A
330
17
100
AcDbEntity
  8
A-WALL
100
AcDbLine
 10
-1.0850000000000009
 20
-11.035000762939454
 30
0.0
 11
-1.0850000000000009
 21
-12.475000762939452
 31
0.0
  0
LINE
  5
16B
330
17
100
AcDbEntity
  8
A-WALL
100
AcDbLine
 10
-1.0850000000000009
 20
-12.975000762939452
 30
0.0
 11
-1.0850000000000009
 21
-14.375000762939454
 31
0.0
  0
LINE
  5
16C
330
17
100
AcDbEntity
  8
A-WALL
100
AcDbLine
 10
-1.2250000000000014
 20
-14.455000762939452
 30
0.0
 11
-1.2250000000000014
 21
-15.975000762939452
 31
0.0
  0
LINE
  5
16D
330
17
100
AcDbEntity
  8
A-WALL
100
AcDbLine
 10
-2.0249999999999986
 20
-15.995000762939451
 30
0.0
 11
-3.2049999999999983
 21
-15.995000762939451
 31
0.0
  0
LINE
  5
16E
330
17
100
AcDbEntity
  8
A-WALL
100
AcDbLine
 10
-3.2049999999999983
 20
-15.995000762939451
 30
0.0
 11
-3.2049999999999983
 21
-18.715000762939454
 31
0.0
  0
LINE
  5
16F
330
17
100
AcDbEntity
  8
A-WALL
100
AcDbLine
 10
9.875
 20
-22.795000762939452
 30
0.0
 11
10.314999999999998
 21
-22.69500076293945
 31
0.0
  0
LINE
  5
170
330
17
100
AcDbEntity
  8
A-WALL
100
AcDbLine
 10
-28.505
 20
-19.455000762939452
 30
0.0
 11
-29.365000000000002
 21
-19.455000762939452
 31
0.0
  0
LINE
  5
171
330
17
100
AcDbEntity
  8
A-WALL
100
AcDbLine
 10
11.795000000000002
 20
-23.075000762939453
 30
0.0
 11
11.795000000000002
 21
-23.65500076293945
 31
0.0
  0
LINE
  5
172
330
17
100
AcDbEntity
  8
A-WALL
100
AcDbLine
 10
12.495000000000005
 20
-22.97500076293945
 30
0.0
 11
12.495000000000005
 21
-22.555000762939454
 31
0.0
  0
LINE
  5
173
330
17
100
AcDbEntity
  8
A-WALL
100
AcDbLine
 10
12.814999999999998
 20
-22.19500076293945
 30
0.0
 11
13.175000000000004
 21
-22.01500076293945
 31
0.0
  0
LINE
  5
174
330
17
100
AcDbEntity
  8
A-WALL
100
AcDbLine
 10
14.975000000000001
 20
-21.395000762939453
 30
0.0
 11
15.954999999999998
 21
-21.395000762939453
 31
0.0
  0
LINE
  5
175
330
17
100
AcDbEntity
  8
A-WALL
100
AcDbLine
 10
15.975000000000001
 20
-21.315000762939455
 30
0.0
 11
16.555
 21
-21.315000762939455
 31
0.0
  0
LINE
  5
176
330
17
100
AcDbEntity
  8
A-WALL
100
AcDbLine
 10
17.875
 20
-20.47500076293945
 30
0.0
 11
18.375
 21
-20.47500076293945
 31
0.0
  0
LINE
  5
177
330
17
100
AcDbEntity
  8
A-WALL
100
AcDbLine
 10
17.375
 20
-22.555000762939454
 30
0.0
 11
17.275
 21
-22.15500076293945
 31
0.0
  0
LINE
  5
178
330
17
100
AcDbEntity
  8
A-WALL
100
AcDbLine
 10
15.814999999999998
 20
-23.075000762939453
 30
0.0
 11
16.115000000000002
 21
-23.455000762939452
 31
0.0
  0
LINE
  5
179
330
17
100
AcDbEntity
  8
A-WALL
100
AcDbLine
 10
13.675000000000004
 20
-23.69500076293945
 30
0.0
 11
13.035000000000004
 21
-23.69500076293945
 31
0.0
  0
LINE
  5
17A
330
17
100
AcDbEntity
  8
A-WALL
100
AcDbLine
 10
13.015
 20
-23.875000762939454
 30
0.0
 11
13.375
 21
-24.395000762939453
 31
0.0
  0
LINE
  5
17B
330
17
100
AcDbEntity
  8
A-WALL
100
AcDbLine
 10
9.195
 20
-24.555000762939454
 30
0.0
 11
9.695
 21
-24.555000762939454
 31
0.0
  0
LINE
  5
17C
330
17
100
AcDbEntity
  8
A-WALL
100
AcDbLine
 10
12.895000000000003
 20
-26.755000762939453
 30
0.0
 11
12.895000000000003
 21
-26.215000762939454
 31
0.0
  0
LINE
  5
17D
330
17
100
AcDbEntity
  8
A-WALL
100
AcDbLine
 10
11.295000000000002
 20
-27.47500076293945
 30
0.0
 11
11.295000000000002
 21
-27.055000762939454
 31
0.0
  0
LINE
  5
17E
330
17
100
AcDbEntity
  8
A-WALL
100
AcDbLine
 10
10.575000000000003
 20
-25.915000762939453
 30
0.0
 11
10.835
 21
-26.235000762939453
 31
0.0
  0
LINE
  5
17F
330
17
100
AcDbEntity
  8
A-WALL
100
AcDbLine
 10
11.814999999999998
 20
-25.915000762939453
 30
0.0
 11
12.115000000000002
 21
-26.195000762939454
 31
0.0
  0
LINE
  5
180
330
17
100
AcDbEntity
  8
A-WALL
100
AcDbLine
 10
6.215000000000003
 20
-29.695000762939454
 30
0.0
 11
6.215000000000003
 21
-29.295000762939452
 31
0.0
  0
LINE
  5
181
330
17
100
AcDbEntity
  8
A-WALL
100
AcDbLine
 10
6.215000000000003
 20
-29.295000762939452
 30
0.0
 11
6.314999999999998
 21
-29.855000762939454
 31
0.0
  0
LINE
  5
182
330
17
100
AcDbEntity
  8
A-WALL
100
AcDbLine
 10
16.675000000000004
 20
-30.135000762939452
 30
0.0
 11
16.215000000000003
 21
-30.275000762939452
 31
0.0
  0
LINE
  5
183
330
17
100
AcDbEntity
  8
A-WALL
100
AcDbLine
 10
15.774999999999999
 20
-30.715000762939454
 30
0.0
 11
15.195
 21
-30.135000762939452
 31
0.0
  0
LINE
  5
184
330
17
100
AcDbEntity
  8
A-WALL
100
AcDbLine
 10
0.9750000000000014
 20
-31.055000762939454
 30
0.0
 11
0.7150000000000034
 21
-31.47500076293945
 31
0.0
  0
LINE
  5
185
330
17
100
AcDbEntity
  8
A-WALL
100
AcDbLine
 10
-0.08500000000000085
 20
-31.455000762939452
 30
0.0
 11
-0.24499999999999744
 21
-31.055000762939454
 31
0.0
  0
LINE
  5
186
330
17
100
AcDbEntity
  8
A-WALL
100
AcDbLine
 10
-2.884999999999998
 20
-30.915000762939453
 30
0.0
 11
-3.7849999999999966
 21
-30.915000762939453
 31
0.0
  0
LINE
  5
187
330
17
100
AcDbEntity
  8
A-WALL
100
AcDbLine
 10
-6.085000000000001
 20
-29.275000762939452
 30
0.0
 11
-6.085000000000001
 21
-30.715000762939454
 31
0.0
  0
LINE
  5
188
330
17
100
AcDbEntity
  8
A-WALL
100
AcDbLine
 10
-6.085000000000001
 20
-29.135000762939452
 30
0.0
 11
-7.504999999999999
 21
-29.135000762939452
 31
0.0
  0
LINE
  5
189
330
17
100
AcDbEntity
  8
A-WALL
100
AcDbLine
 10
-2.3049999999999997
 20
-30.795000762939452
 30
0.0
 11
-1.9050000000000011
 21
-30.715000762939454
 31
0.0
  0
LINE
  5
18A
330
17
100
AcDbEntity
  8
A-WALL
100
AcDbLine
 10
2.6950000000000003
 20
-30.075000762939453
 30
0.0
 11
2.6950000000000003
 21
-30.955000762939452
 31
0.0
  0
LINE
  5
18B
330
17
100
AcDbEntity
  8
A-WALL
100
AcDbLine
 10
9.515
 20
-31.075000762939453
 30
0.0
 11
10.035000000000004
 21
-31.275000762939452
 31
0.0
  0
LINE
  5
18C
330
17
100
AcDbEntity
  8
A-WALL
100
AcDbLine
 10
10.435000000000002
 20
-31.255000762939453
 30
0.0
 11
10.995000000000005
 21
-31.255000762939453
 31
0.0
  0
LINE
  5
18D
330
17
100
AcDbEntity
  8
A-WALL
100
AcDbLine
 10
13.895000000000003
 20
-30.075000762939453
 30
0.0
 11
13.895000000000003
 21
-31.395000762939453
 31
0.0
  0
LINE
  5
18E
330
17
100
AcDbEntity
  8
A-DOOR
100
AcDbLine
 10
-0.385
 20
31.885
 30
0.0
 11
-0.385
 21
33.285000000000004
 31
0.0
  0
ARC
  5
18F
330
17
100
AcDbEntity
  8
A-DOOR
100
AcDbCircle
 10
-0.385
 20
31.885
 30
0.0
 40
1.4
100
AcDbArc
 50
90.0
 51
180.0
  0
LINE
  5
190
330
17
100
AcDbEntity
  8
A-DOOR
100
AcDbLine
 10
23.695
 20
13.205
 30
0.0
 11
25.095
 21
13.205
 31
0.0
  0
ARC
  5
191
330
17
100
AcDbEntity
  8
A-DOOR
100
AcDbCircle
 10
23.695
 20
13.205
 30
0.0
 40
1.4
100
AcDbArc
 50
0.0
 51
90.0
  0
LINE
  5
192
330
17
100
AcDbEntity
  8
A-DOOR
100
AcDbLine
 10
-17.305
 20
9.045
 30
0.0
 11
-17.305
 21
9.945
 31
0.0
  0
ARC
  5
193
330
17
100
AcDbEntity
  8
A-DOOR
100
AcDbCircle
 10
-17.305
 20
9.045
 30
0.0
 40
0.9
100
AcDbArc
 50
90.0
 51
180.0
  0
LINE
  5
194
330
17
100
AcDbEntity
  8
A-DOOR
100
AcDbLine
 10
-11.045
 20
2.625
 30
0.0
 11
-11.045
 21
0.22499999999999787
 31
0.0
  0
ARC
  5
195
330
17
100
AcDbEntity
  8
A-DOOR
100
AcDbCircle
 10
-11.045
 20
2.625
 30
0.0
 40
2.4
100
AcDbArc
 50
-90.0
 51
0.0
  0
LINE
  5
196
330
17
100
AcDbEntity
  8
A-DOOR
100
AcDbLine
 10
-16.535
 20
18.245
 30
0.0
 11
-14.685
 21
18.245
 31
0.0
  0
ARC
  5
197
330
17
100
AcDbEntity
  8
A-DOOR
100
AcDbCircle
 10
-16.535
 20
18.245
 30
0.0
 40
1.85
100
AcDbArc
 50
0.0
 51
90.0
  0
LINE
  5
198
330
17
100
AcDbEntity
  8
A-DOOR
100
AcDbLine
 10
-4.565
 20
20.025
 30
0.0
 11
-4.565
 21
20.724999999999998
 31
0.0
  0
ARC
  5
199
330
17
100
AcDbEntity
  8
A-DOOR
100
AcDbCircle
 10
-4.565
 20
20.025
 30
0.0
 40
0.7
100
AcDbArc
 50
90.0
 51
180.0
  0
LINE
  5
19A
330
17
100
AcDbEntity
  8
A-DOOR
100
AcDbLine
 10
-4.285
 20
3.245
 30
0.0
 11
-4.285
 21
0.5949999999999989
 31
0.0
  0
ARC
  5
19B
330
17
100
AcDbEntity
  8
A-DOOR
100
AcDbCircle
 10
-4.285
 20
3.245
 30
0.0
 40
2.65
100
AcDbArc
 50
-90.0
 51
0.0
  0
LINE
  5
19C
330
17
100
AcDbEntity
  8
A-DOOR
100
AcDbLine
 10
-14.905
 20
-2.135
 30
0.0
 11
-14.905
 21
-3.6849999999999987
 31
0.0
  0
ARC
  5
19D
330
17
100
AcDbEntity
  8
A-DOOR
100
AcDbCircle
 10
-14.905
 20
-2.135
 30
0.0
 40
1.55
100
AcDbArc
 50
-90.0
 51
0.0
  0
LINE
  5
19E
330
17
100
AcDbEntity
  8
A-DOOR
100
AcDbLine
 10
22.275
 20
-8.075
 30
0.0
 11
21.425
 21
-8.075
 31
0.0
  0
ARC
  5
19F
330
17
100
AcDbEntity
  8
A-DOOR
100
AcDbCircle
 10
22.275
 20
-8.075
 30
0.0
 40
0.85
100
AcDbArc
 50
180.0
 51
270.0
  0
LINE
  5
1A0
330
17
100
AcDbEntity
  8
A-DOOR
100
AcDbLine
 10
-16.985
 20
-11.985
 30
0.0
 11
-16.985
 21
-12.985
 31
0.0
  0
ARC
  5
1A1
330
17
100
AcDbEntity
  8
A-DOOR
100
AcDbCircle
 10
-16.985
 20
-11.985
 30
0.0
 40
1.0
100
AcDbArc
 50
-90.0
 51
0.0
  0
LINE
  5
1A2
330
17
100
AcDbEntity
  8
A-DOOR
100
AcDbLine
 10
-30.165
 20
-10.475
 30
0.0
 11
-32.765
 21
-10.475
 31
0.0
  0
ARC
  5
1A3
330
17
100
AcDbEntity
  8
A-DOOR
100
AcDbCircle
 10
-30.165
 20
-10.475
 30
0.0
 40
2.6
100
AcDbArc
 50
180.0
 51
270.0
  0
LINE
  5
1A4
330
17
100
AcDbEntity
  8
A-DOOR
100
AcDbLine
 10
-33.415
 20
-10.475
 30
0.0
 11
-37.665
 21
-10.475
 31
0.0
  0
ARC
  5
1A5
330
17
100
AcDbEntity
  8
A-DOOR
100
AcDbCircle
 10
-33.415
 20
-10.475
 30
0.0
 40
4.25
100
AcDbArc
 50
180.0
 51
270.0
  0
LINE
  5
1A6
330
17
100
AcDbEntity
  8
A-DOOR
100
AcDbLine
 10
-28.705
 20
-3.995
 30
0.0
 11
-28.705
 21
-5.645
 31
0.0
  0
ARC
  5
1A7
330
17
100
AcDbEntity
  8
A-DOOR
100
AcDbCircle
 10
-28.705
 20
-3.995
 30
0.0
 40
1.65
100
AcDbArc
 50
-90.0
 51
0.0
  0
LINE
  5
1A8
330
17
100
AcDbEntity
  8
A-DOOR
100
AcDbLine
 10
-28.705
 20
-6.995
 30
0.0
 11
-28.705
 21
-8.195
 31
0.0
  0
ARC
  5
1A9
330
17
100
AcDbEntity
  8
A-DOOR
100
AcDbCircle
 10
-28.705
 20
-6.995
 30
0.0
 40
1.2
100
AcDbArc
 50
-90.0
 51
0.0
  0
LINE
  5
1AA
330
17
100
AcDbEntity
  8
A-DOOR
100
AcDbLine
 10
-16.905
 20
-18.635
 30
0.0
 11
-16.905
 21
-17.484999999999996
 31
0.0
  0
ARC
  5
1AB
330
17
100
AcDbEntity
  8
A-DOOR
100
AcDbCircle
 10
-16.905
 20
-18.635
 30
0.0
 40
1.15
100
AcDbArc
 50
90.0
 51
180.0
  0
LINE
  5
1AC
330
17
100
AcDbEntity
  8
A-DOOR
100
AcDbLine
 10
-9.815
 20
-7.595
 30
0.0
 11
-8.715
 21
-7.595
 31
0.0
  0
ARC
  5
1AD
330
17
100
AcDbEntity
  8
A-DOOR
100
AcDbCircle
 10
-9.815
 20
-7.595
 30
0.0
 40
1.1
100
AcDbArc
 50
0.0
 51
90.0
  0
LINE
  5
1AE
330
17
100
AcDbEntity
  8
A-DOOR
100
AcDbLine
 10
-8.615
 20
-7.595
 30
0.0
 11
-7.715000000000001
 21
-7.595
 31
0.0
  0
ARC
  5
1AF
330
17
100
AcDbEntity
  8
A-DOOR
100
AcDbCircle
 10
-8.615
 20
-7.595
 30
0.0
 40
0.9
100
AcDbArc
 50
0.0
 51
90.0
  0
LINE
  5
1B0
330
17
100
AcDbEntity
  8
A-DOOR
100
AcDbLine
 10
-7.615
 20
-7.595
 30
0.0
 11
-6.615000000000001
 21
-7.595
 31
0.0
  0
ARC
  5
1B1
330
17
100
AcDbEntity
  8
A-DOOR
100
AcDbCircle
 10
-7.615
 20
-7.595
 30
0.0
 40
1.0
100
AcDbArc
 50
0.0
 51
90.0
  0
LINE
  5
1B2
330
17
100
AcDbEntity
  8
A-DOOR
100
AcDbLine
 10
-10.305
 20
-7.955
 30
0.0
 11
-11.705
 21
-7.955
 31
0.0
  0
ARC
  5
1B3
330
17
100
AcDbEntity
  8
A-DOOR
100
AcDbCircle
 10
-10.305
 20
-7.955
 30
0.0
 40
1.4
100
AcDbArc
 50
180.0
 51
270.0
  0
LINE
  5
1B4
330
17
100
AcDbEntity
  8
A-DOOR
100
AcDbLine
 10
4.885
 20
-29.855
 30
0.0
 11
4.135
 21
-29.855
 31
0.0
  0
ARC
  5
1B5
330
17
100
AcDbEntity
  8
A-DOOR
100
AcDbCircle
 10
4.885
 20
-29.855
 30
0.0
 40
0.75
100
AcDbArc
 50
180.0
 51
270.0
  0
LINE
  5
1B6
330
17
100
AcDbEntity
  8
A-DOOR
100
AcDbLine
 10
2.655
 20
-31.275
 30
0.0
 11
0.955000000000001
 21
-31.275
 31
0.0
  0
ARC
  5
1B7
330
17
100
AcDbEntity
  8
A-DOOR
100
AcDbCircle
 10
2.655
 20
-31.275
 30
0.0
 40
1.7
100
AcDbArc
 50
180.0
 51
270.0
  0
LINE
  5
1B8
330
17
100
AcDbEntity
  8
A-DOOR
100
AcDbLine
 10
-3.975
 20
-30.795
 30
0.0
 11
-4.825
 21
-30.795
 31
0.0
  0
ARC
  5
1B9
330
17
100
AcDbEntity
  8
A-DOOR
100
AcDbCircle
 10
-3.975
 20
-30.795
 30
0.0
 40
0.85
100
AcDbArc
 50
180.0
 51
270.0
  0
LINE
  5
1BA
330
17
100
AcDbEntity
  8
A-DOOR
100
AcDbLine
 10
-8.285
 20
-29.155
 30
0.0
 11
-9.884999999999998
 21
-29.155
 31
0.0
  0
ARC
  5
1BB
330
17
100
AcDbEntity
  8
A-DOOR
100
AcDbCircle
 10
-8.285
 20
-29.155
 30
0.0
 40
1.6
100
AcDbArc
 50
180.0
 51
270.0
  0
LINE
  5
1BC
330
17
100
AcDbEntity
  8
A-DOOR
100
AcDbLine
 10
6.555
 20
-31.315
 30
0.0
 11
7.255
 21
-31.315
 31
0.0
  0
ARC
  5
1BD
330
17
100
AcDbEntity
  8
A-DOOR
100
AcDbCircle
 10
6.555
 20
-31.315
 30
0.0
 40
0.7
100
AcDbArc
 50
0.0
 51
90.0
  0
LINE
  5
1BE
330
17
100
AcDbEntity
  8
A-DOOR
100
AcDbLine
 10
-10.785
 20
6.795
 30
0.0
 11
-10.785
 21
7.545000000000001
 31
0.0
  0
ARC
  5
1BF
330
17
100
AcDbEntity
  8
A-DOOR
100
AcDbCircle
 10
-10.785
 20
6.795
 30
0.0
 40
0.75
100
AcDbArc
 50
90.0
 51
180.0
  0
LINE
  5
1C0
330
17
100
AcDbEntity
  8
A-DOOR
100
AcDbLine
 10
-10.805
 20
12.845
 30
0.0
 11
-10.805
 21
15.095000000000002
 31
0.0
  0
ARC
  5
1C1
330
17
100
AcDbEntity
  8
A-DOOR
100
AcDbCircle
 10
-10.805
 20
12.845
 30
0.0
 40
2.25
100
AcDbArc
 50
90.0
 51
180.0
  0
LINE
  5
1C2
330
17
100
AcDbEntity
  8
A-DOOR
100
AcDbLine
 10
-10.885
 20
18.445
 30
0.0
 11
-9.334999999999999
 21
18.445
 31
0.0
  0
ARC
  5
1C3
330
17
100
AcDbEntity
  8
A-DOOR
100
AcDbCircle
 10
-10.885
 20
18.445
 30
0.0
 40
1.55
100
AcDbArc
 50
0.0
 51
90.0
  0
LINE
  5
1C4
330
17
100
AcDbEntity
  8
A-DOOR
100
AcDbLine
 10
-8.235
 20
18.445
 30
0.0
 11
-6.034999999999998
 21
18.445
 31
0.0
  0
ARC
  5
1C5
330
17
100
AcDbEntity
  8
A-DOOR
100
AcDbCircle
 10
-8.235
 20
18.445
 30
0.0
 40
2.2
100
AcDbArc
 50
0.0
 51
90.0
  0
LINE
  5
1C6
330
17
100
AcDbEntity
  8
A-DOOR
100
AcDbLine
 10
-4.785
 20
15.885
 30
0.0
 11
-4.785
 21
18.085
 31
0.0
  0
ARC
  5
1C7
330
17
100
AcDbEntity
  8
A-DOOR
100
AcDbCircle
 10
-4.785
 20
15.885
 30
0.0
 40
2.2
100
AcDbArc
 50
90.0
 51
180.0
  0
LINE
  5
1C8
330
17
100
AcDbEntity
  8
A-DOOR
100
AcDbLine
 10
-2.125
 20
23.785
 30
0.0
 11
-2.125
 21
24.535
 31
0.0
  0
ARC
  5
1C9
330
17
100
AcDbEntity
  8
A-DOOR
100
AcDbCircle
 10
-2.125
 20
23.785
 30
0.0
 40
0.75
100
AcDbArc
 50
90.0
 51
180.0
  0
LINE
  5
1CA
330
17
100
AcDbEntity
  8
A-DOOR
100
AcDbLine
 10
-2.985
 20
13.765
 30
0.0
 11
-3.884999999999999
 21
13.765
 31
0.0
  0
ARC
  5
1CB
330
17
100
AcDbEntity
  8
A-DOOR
100
AcDbCircle
 10
-2.985
 20
13.765
 30
0.0
 40
0.9
100
AcDbArc
 50
180.0
 51
270.0
  0
LINE
  5
1CC
330
17
100
AcDbEntity
  8
A-DOOR
100
AcDbLine
 10
-4.705
 20
9.805
 30
0.0
 11
-4.705
 21
7.805
 31
0.0
  0
ARC
  5
1CD
330
17
100
AcDbEntity
  8
A-DOOR
100
AcDbCircle
 10
-4.705
 20
9.805
 30
0.0
 40
2.0
100
AcDbArc
 50
-90.0
 51
0.0
  0
LINE
  5
1CE
330
17
100
AcDbEntity
  8
A-DOOR
100
AcDbLine
 10
-2.105
 20
0.645
 30
0.0
 11
-1.2549999999999994
 21
0.645
 31
0.0
  0
ARC
  5
1CF
330
17
100
AcDbEntity
  8
A-DOOR
100
AcDbCircle
 10
-2.105
 20
0.645
 30
0.0
 40
0.85
100
AcDbArc
 50
0.0
 51
90.0
  0
LINE
  5
1D0
330
17
100
AcDbEntity
  8
A-DOOR
100
AcDbLine
 10
-0.205
 20
0.205
 30
0.0
 11
-0.205
 21
-2.0949999999999993
 31
0.0
  0
ARC
  5
1D1
330
17
100
AcDbEntity
  8
A-DOOR
100
AcDbCircle
 10
-0.205
 20
0.205
 30
0.0
 40
2.3
100
AcDbArc
 50
-90.0
 51
0.0
  0
LINE
  5
1D2
330
17
100
AcDbEntity
  8
A-DOOR
100
AcDbLine
 10
-0.205
 20
-2.295
 30
0.0
 11
-0.205
 21
-4.694999999999999
 31
0.0
  0
ARC
  5
1D3
330
17
100
AcDbEntity
  8
A-DOOR
100
AcDbCircle
 10
-0.205
 20
-2.295
 30
0.0
 40
2.4
100
AcDbArc
 50
-90.0
 51
0.0
  0
LINE
  5
1D4
330
17
100
AcDbEntity
  8
A-DOOR
100
AcDbLine
 10
-0.745
 20
-4.995
 30
0.0
 11
-3.1950000000000007
 21
-4.995
 31
0.0
  0
ARC
  5
1D5
330
17
100
AcDbEntity
  8
A-DOOR
100
AcDbCircle
 10
-0.745
 20
-4.995
 30
0.0
 40
2.45
100
AcDbArc
 50
180.0
 51
270.0
  0
LINE
  5
1D6
330
17
100
AcDbEntity
  8
A-DOOR
100
AcDbLine
 10
-9.745
 20
-4.775
 30
0.0
 11
-10.545
 21
-4.775
 31
0.0
  0
ARC
  5
1D7
330
17
100
AcDbEntity
  8
A-DOOR
100
AcDbCircle
 10
-9.745
 20
-4.775
 30
0.0
 40
0.8
100
AcDbArc
 50
180.0
 51
270.0
  0
LINE
  5
1D8
330
17
100
AcDbEntity
  8
A-DOOR
100
AcDbLine
 10
-15.335
 20
-4.935
 30
0.0
 11
-16.185000000000002
 21
-4.935
 31
0.0
  0
ARC
  5
1D9
330
17
100
AcDbEntity
  8
A-DOOR
100
AcDbCircle
 10
-15.335
 20
-4.935
 30
0.0
 40
0.85
100
AcDbArc
 50
180.0
 51
270.0
  0
LINE
  5
1DA
330
17
100
AcDbEntity
  8
A-DOOR
100
AcDbLine
 10
-28.865
 20
-1.055
 30
0.0
 11
-28.865
 21
-2.405000000000001
 31
0.0
  0
ARC
  5
1DB
330
17
100
AcDbEntity
  8
A-DOOR
100
AcDbCircle
 10
-28.865
 20
-1.055
 30
0.0
 40
1.35
100
AcDbArc
 50
-90.0
 51
0.0
  0
LINE
  5
1DC
330
17
100
AcDbEntity
  8
A-DOOR
100
AcDbLine
 10
-28.905
 20
0.275
 30
0.0
 11
-28.905
 21
1.8749999999999996
 31
0.0
  0
ARC
  5
1DD
330
17
100
AcDbEntity
  8
A-DOOR
100
AcDbCircle
 10
-28.905
 20
0.275
 30
0.0
 40
1.6
100
AcDbArc
 50
90.0
 51
180.0
  0
LINE
  5
1DE
330
17
100
AcDbEntity
  8
A-DOOR
100
AcDbLine
 10
-28.595
 20
-17.455
 30
0.0
 11
-29.395
 21
-17.455
 31
0.0
  0
ARC
  5
1DF
330
17
100
AcDbEntity
  8
A-DOOR
100
AcDbCircle
 10
-28.595
 20
-17.455
 30
0.0
 40
0.8
100
AcDbArc
 50
180.0
 51
270.0
  0
LINE
  5
1E0
330
17
100
AcDbEntity
  8
A-DOOR
100
AcDbLine
 10
-10.865
 20
-17.395
 30
0.0
 11
-10.065000000000001
 21
-17.395
 31
0.0
  0
ARC
  5
1E1
330
17
100
AcDbEntity
  8
A-DOOR
100
AcDbCircle
 10
-10.865
 20
-17.395
 30
0.0
 40
0.8
100
AcDbArc
 50
0.0
 51
90.0
  0
LINE
  5
1E2
330
17
100
AcDbEntity
  8
A-DOOR
100
AcDbLine
 10
-10.085
 20
-10.255
 30
0.0
 11
-10.085
 21
-8.705
 31
0.0
  0
ARC
  5
1E3
330
17
100
AcDbEntity
  8
A-DOOR
100
AcDbCircle
 10
-10.085
 20
-10.255
 30
0.0
 40
1.55
100
AcDbArc
 50
90.0
 51
180.0
  0
LINE
  5
1E4
330
17
100
AcDbEntity
  8
A-DOOR
100
AcDbLine
 10
-1.205
 20
-8.085
 30
0.0
 11
-1.205
 21
-9.085
 31
0.0
  0
ARC
  5
1E5
330
17
100
AcDbEntity
  8
A-DOOR
100
AcDbCircle
 10
-1.205
 20
-8.085
 30
0.0
 40
1.0
100
AcDbArc
 50
-90.0
 51
0.0
  0
LINE
  5
1E6
330
17
100
AcDbEntity
  8
A-DOOR
100
AcDbLine
 10
-1.225
 20
-14.505
 30
0.0
 11
-1.225
 21
-15.955
 31
0.0
  0
ARC
  5
1E7
330
17
100
AcDbEntity
  8
A-DOOR
100
AcDbCircle
 10
-1.225
 20
-14.505
 30
0.0
 40
1.45
100
AcDbArc
 50
-90.0
 51
0.0
  0
LINE
  5
1E8
330
17
100
AcDbEntity
  8
A-DOOR
100
AcDbLine
 10
-3.205
 20
-15.995
 30
0.0
 11
-3.205
 21
-17.445
 31
0.0
  0
ARC
  5
1E9
330
17
100
AcDbEntity
  8
A-DOOR
100
AcDbCircle
 10
-3.205
 20
-15.995
 30
0.0
 40
1.45
100
AcDbArc
 50
-90.0
 51
0.0
  0
LINE
  5
1EA
330
17
100
AcDbEntity
  8
A-DOOR
100
AcDbLine
 10
-28.555
 20
-19.455
 30
0.0
 11
-29.255000000000003
 21
-19.455
 31
0.0
  0
ARC
  5
1EB
330
17
100
AcDbEntity
  8
A-DOOR
100
AcDbCircle
 10
-28.555
 20
-19.455
 30
0.0
 40
0.7
100
AcDbArc
 50
180.0
 51
270.0
  0
LINE
  5
1EC
330
17
100
AcDbEntity
  8
A-DOOR
100
AcDbLine
 10
-6.185
 20
-29.135
 30
0.0
 11
-7.384999999999998
 21
-29.135
 31
0.0
  0
ARC
  5
1ED
330
17
100
AcDbEntity
  8
A-DOOR
100
AcDbCircle
 10
-6.185
 20
-29.135
 30
0.0
 40
1.2
100
AcDbArc
 50
180.0
 51
270.0
  0
LINE
  5
1EE
330
17
100
AcDbEntity
  8
A-DOOR
100
AcDbLine
 10
2.695
 20
-30.075
 30
0.0
 11
2.695
 21
-30.974999999999998
 31
0.0
  0
ARC
  5
1EF
330
17
100
AcDbEntity
  8
A-DOOR
100
AcDbCircle
 10
2.695
 20
-30.075
 30
0.0
 40
0.9
100
AcDbArc
 50
-90.0
 51
0.0
  0
LINE
  5
1F0
330
17
100
AcDbEntity
  8
A-DOOR
100
AcDbLine
 10
13.895
 20
-30.075
 30
0.0
 11
13.895
 21
-31.425
 31
0.0
  0
ARC
  5
1F1
330
17
100
AcDbEntity
  8
A-DOOR
100
AcDbCircle
 10
13.895
 20
-30.075
 30
0.0
 40
1.35
100
AcDbArc
 50
-90.0
 51
0.0
  0
LINE
  5
1F2
330
17
100
AcDbEntity
  8
A-WINDOW
100
AcDbLine
 10
22.227067221067227
 20
15.49652487872488
 30
0.0
 11
22.8091878031878
 21
15.642055024255026
 31
0.0
  0
LINE
  5
1F3
330
17
100
AcDbEntity
  8
A-WINDOW
100
AcDbLine
 10
22.2028121968122
 20
15.593544975744976
 30
0.0
 11
22.784932778932774
 21
15.739075121275121
 31
0.0
  0
LINE
  5
1F4
330
17
100
AcDbEntity
  8
A-WINDOW
100
AcDbLine
 10
26.525000000000002
 20
9.985000000000001
 30
0.0
 11
26.525000000000002
 21
11.385
 31
0.0
  0
LINE
  5
1F5
330
17
100
AcDbEntity
  8
A-WINDOW
100
AcDbLine
 10
26.425
 20
9.985000000000001
 30
0.0
 11
26.425
 21
11.385
 31
0.0
  0
LINE
  5
1F6
330
17
100
AcDbEntity
  8
A-WINDOW
100
AcDbLine
 10
-12.274999999999999
 20
-7.945
 30
0.0
 11
-13.125
 21
-7.945
 31
0.0
  0
LINE
  5
1F7
330
17
100
AcDbEntity
  8
A-WINDOW
100
AcDbLine
 10
-12.274999999999999
 20
-8.045
 30
0.0
 11
-13.125
 21
-8.045
 31
0.0
  0
LINE
  5
1F8
330
17
100
AcDbEntity
  8
A-WINDOW
100
AcDbLine
 10
-8.985
 20
18.395
 30
0.0
 11
-8.285
 21
18.395
 31
0.0
  0
LINE
  5
1F9
330
17
100
AcDbEntity
  8
A-WINDOW
100
AcDbLine
 10
-8.985
 20
18.495
 30
0.0
 11
-8.285
 21
18.495
 31
0.0
  0
LINE
  5
1FA
330
17
100
AcDbEntity
  8
A-WINDOW
100
AcDbLine
 10
-3.765000000000001
 20
15.614999999999998
 30
0.0
 11
-2.564999999999999
 21
15.614999999999998
 31
0.0
  0
LINE
  5
1FB
330
17
100
AcDbEntity
  8
A-WINDOW
100
AcDbLine
 10
-3.765000000000001
 20
15.715
 30
0.0
 11
-2.564999999999999
 21
15.715
 31
0.0
  0
LINE
  5
1FC
330
17
100
AcDbEntity
  8
A-WINDOW
100
AcDbLine
 10
-4.755
 20
6.905
 30
0.0
 11
-4.755
 21
5.055000000000001
 31
0.0
  0
LINE
  5
1FD
330
17
100
AcDbEntity
  8
A-WINDOW
100
AcDbLine
 10
-4.655
 20
6.905
 30
0.0
 11
-4.655
 21
5.055000000000001
 31
0.0
  0
LINE
  5
1FE
330
17
100
AcDbEntity
  8
A-WINDOW
100
AcDbLine
 10
-4.535
 20
4.475
 30
0.0
 11
-4.535
 21
3.475000000000001
 31
0.0
  0
LINE
  5
1FF
330
17
100
AcDbEntity
  8
A-WINDOW
100
AcDbLine
 10
-4.4350000000000005
 20
4.475
 30
0.0
 11
-4.4350000000000005
 21
3.475000000000001
 31
0.0
  0
LINE
  5
200
330
17
100
AcDbEntity
  8
A-WINDOW
100
AcDbLine
 10
-3.2050000000000005
 20
0.595
 30
0.0
 11
-2.2049999999999996
 21
0.595
 31
0.0
  0
LINE
  5
201
330
17
100
AcDbEntity
  8
A-WINDOW
100
AcDbLine
 10
-3.2050000000000005
 20
0.6950000000000001
 30
0.0
 11
-2.2049999999999996
 21
0.6950000000000001
 31
0.0
  0
LINE
  5
202
330
17
100
AcDbEntity
  8
A-WINDOW
100
AcDbLine
 10
-6.105000000000001
 20
-4.905
 30
0.0
 11
-9.205
 21
-4.905
 31
0.0
  0
LINE
  5
203
330
17
100
AcDbEntity
  8
A-WINDOW
100
AcDbLine
 10
-6.105000000000001
 20
-5.005
 30
0.0
 11
-9.205
 21
-5.005
 31
0.0
  0
LINE
  5
204
330
17
100
AcDbEntity
  8
A-WINDOW
100
AcDbLine
 10
-11.254999999999999
 20
-3.9050000000000007
 30
0.0
 11
-11.254999999999999
 21
-2.404999999999999
 31
0.0
  0
LINE
  5
205
330
17
100
AcDbEntity
  8
A-WINDOW
100
AcDbLine
 10
-11.355
 20
-3.9050000000000007
 30
0.0
 11
-11.355
 21
-2.404999999999999
 31
0.0
  0
LINE
  5
206
330
17
100
AcDbEntity
  8
A-WINDOW
100
AcDbLine
 10
-13.115
 20
-17.445
 30
0.0
 11
-12.014999999999999
 21
-17.445
 31
0.0
  0
LINE
  5
207
330
17
100
AcDbEntity
  8
A-WINDOW
100
AcDbLine
 10
-13.115
 20
-17.345
 30
0.0
 11
-12.014999999999999
 21
-17.345
 31
0.0
  0
LWPOLYLINE
  5
208
330
17
100
AcDbEntity
  8
A-ROOM
100
AcDbPolyline
 90
4
 70
1
 10
-16.725
 20
-4.775
 10
-0.425
 20
-4.775
 10
-0.425
 20
18.205
 10
-16.725
 20
18.205
  0
TEXT
  5
209
330
17
100
AcDbEntity
  8
A-TEXT
100
AcDbText
 10
-7.4561
 20
6.3109
 30
0.0
 40
0.25
  1
R1  171.9 m²
 72
1
 11
-7.4561
 21
6.3109
 31
0.0
100
AcDbText
 73
2
  0
LWPOLYLINE
  5
20A
330
17
100
AcDbEntity
  8
A-ROOM
100
AcDbPolyline
 90
4
 70
1
 10
-16.665
 20
-20.315
 10
-1.305
 20
-20.315
 10
-1.305
 20
-7.835
 10
-16.665
 20
-7.835
  0
TEXT
  5
20B
330
17
100
AcDbEntity
  8
A-TEXT
100
AcDbText
 10
-6.7555
 20
-14.2327
 30
0.0
 40
0.25
  1
R2  104.5 m²
 72
1
 11
-6.7555
 21
-14.2327
 31
0.0
100
AcDbText
 73
2
  0
LWPOLYLINE
  5
20C
330
17
100
AcDbEntity
  8
A-ROOM
100
AcDbPolyline
 90
4
 70
1
 10
-16.865
 20
-17.175
 10
-10.305
 20
-17.175
 10
-10.305
 20
-8.055
 10
-16.865
 20
-8.055
  0
TEXT
  5
20D
330
17
100
AcDbEntity
  8
A-TEXT
100
AcDbText
 10
-13.5729
 20
-12.8254
 30
0.0
 40
0.25
  1
R3  55.3 m²
 72
1
 11
-13.5729
 21
-12.8254
 31
0.0
100
AcDbText
 73
2
  0
LWPOLYLINE
  5
20E
330
17
100
AcDbEntity
  8
A-ROOM
100
AcDbPolyline
 90
4
 70
1
 10
-16.725
 20
-4.475
 10
-11.525
 20
-4.475
 10
-11.525
 20
0.185
 10
-16.725
 20
0.185
  0
TEXT
  5
20F
330
17
100
AcDbEntity
  8
A-TEXT
100
AcDbText
 10
-13.876
 20
-2.3205
 30
0.0
 40
0.25
  1
R4  11.0 m²
 72
1
 11
-13.876
 21
-2.3205
 31
0.0
100
AcDbText
 73
2
  0
LWPOLYLINE
  5
210
330
17
100
AcDbEntity
  8
A-ROOM
100
AcDbPolyline
 90
4
 70
1
 10
14.055
 20
18.945
 10
18.075
 20
18.945
 10
18.075
 20
22.185
 10
14.055
 20
22.185
  0
TEXT
  5
211
330
17
100
AcDbEntity
  8
A-TEXT
100
AcDbText
 10
16.0796
 20
20.2105
 30
0.0
 40
0.25
  1
R5  8.1 m²
 72
1
 11
16.0796
 21
20.2105
 31
0.0
100
AcDbText
 73
2
  0
LWPOLYLINE
  5
212
330
17
100
AcDbEntity
  8
A-ROOM
100
AcDbPolyline
 90
4
 70
1
 10
23.655
 20
15.485
 10
26.555
 20
15.485
 10
26.555
 20
18.325
 10
23.655
 20
18.325
  0
TEXT
  5
213
330
17
100
AcDbEntity
  8
A-TEXT
100
AcDbText
 10
25.2168
 20
17.096
 30
0.0
 40
0.25
  1
R6  6.3 m²
 72
1
 11
25.2168
 21
17.096
 31
0.0
100
AcDbText
 73
2
  0
LWPOLYLINE
  5
214
330
17
100
AcDbEntity
  8
A-ROOM
100
AcDbPolyline
 90
4
 70
1
 10
21.755
 20
0.945
 10
26.195
 20
0.945
 10
26.195
 20
2.405
 10
21.755
 20
2.405
  0
TEXT
  5
215
330
17
100
AcDbEntity
  8
A-TEXT
100
AcDbText
 10
23.9538
 20
1.6789
 30
0.0
 40
0.25
  1
R7  5.9 m²
 72
1
 11
23.9538
 21
1.6789
 31
0.0
100
AcDbText
 73
2
  0
LWPOLYLINE
  5
216
330
17
100
AcDbEntity
  8
A-ROOM
100
AcDbPolyline
 90
4
 70
1
 10
11.775
 20
1.325
 10
15.855
 20
1.325
 10
15.855
 20
2.785
 10
11.775
 20
2.785
  0
TEXT
  5
217
330
17
100
AcDbEntity
  8
A-TEXT
100
AcDbText
 10
13.7954
 20
2.0512
 30
0.0
 40
0.25
  1
R8  5.8 m²
 72
1
 11
13.7954
 21
2.0512
 31
0.0
100
AcDbText
 73
2
  0
LWPOLYLINE
  5
218
330
17
100
AcDbEntity
  8
A-ROOM
100
AcDbPolyline
 90
4
 70
1
 10
22.335
 20
11.425
 10
26.155
 20
11.425
 10
26.155
 20
13.045
 10
22.335
 20
13.045
  0
TEXT
  5
219
330
17
100
AcDbEntity
  8
A-TEXT
100
AcDbText
 10
24.2668
 20
12.2137
 30
0.0
 40
0.25
  1
R9  5.8 m²
 72
1
 11
24.2668
 21
12.2137
 31
0.0
100
AcDbText
 73
2
  0
LWPOLYLINE
  5
21A
330
17
100
AcDbEntity
  8
A-ROOM
100
AcDbPolyline
 90
4
 70
1
 10
11.775
 20
9.865
 10
15.595
 20
9.865
 10
15.595
 20
11.305
 10
11.775
 20
11.305
  0
TEXT
  5
21B
330
17
100
AcDbEntity
  8
A-TEXT
100
AcDbText
 10
13.5931
 20
10.5287
 30
0.0
 40
0.25
  1
R10  4.8 m²
 72
1
 11
13.5931
 21
10.5287
 31
0.0
100
AcDbText
 73
2
  0
LWPOLYLINE
  5
21C
330
17
100
AcDbEntity
  8
A-ROOM
100
AcDbPolyline
 90
4
 70
1
 10
22.055
 20
-4.415
 10
25.675
 20
-4.415
 10
25.675
 20
-2.815
 10
22.055
 20
-2.815
  0
TEXT
  5
21D
330
17
100
AcDbEntity
  8
A-TEXT
100
AcDbText
 10
23.7563
 20
-3.7361
 30
0.0
 40
0.25
  1
R11  4.8 m²
 72
1
 11
23.7563
 21
-3.7361
 31
0.0
100
AcDbText
 73
2
  0
LWPOLYLINE
  5
21E
330
17
100
AcDbEntity
  8
A-ROOM
100
AcDbPolyline
 90
4
 70
1
 10
-16.725
 20
-4.715
 10
-15.125
 20
-4.715
 10
-15.125
 20
-1.575
 10
-16.725
 20
-1.575
  0
TEXT
  5
21F
330
17
100
AcDbEntity
  8
A-TEXT
100
AcDbText
 10
-15.9579
 20
-3.1635
 30
0.0
 40
0.25
  1
R12  4.6 m²
 72
1
 11
-15.9579
 21
-3.1635
 31
0.0
100
AcDbText
 73
2
  0
LWPOLYLINE
  5
220
330
17
100
AcDbEntity
  8
A-ROOM
100
AcDbPolyline
 90
4
 70
1
 10
12.155
 20
6.645
 10
15.475
 20
6.645
 10
15.475
 20
8.185
 10
12.155
 20
8.185
  0
TEXT
  5
221
330
17
100
AcDbEntity
  8
A-TEXT
100
AcDbText
 10
13.7988
 20
7.5173
 30
0.0
 40
0.25
  1
R13  4.1 m²
 72
1
 11
13.7988
 21
7.5173
 31
0.0
100
AcDbText
 73
2
  0
LWPOLYLINE
  5
222
330
17
100
AcDbEntity
  8
A-ROOM
100
AcDbPolyline
 90
4
 70
1
 10
15.515
 20
-3.035
 10
16.955
 20
-3.035
 10
16.955
 20
0.285
 10
15.515
 20
0.285
  0
TEXT
  5
223
330
17
100
AcDbEntity
  8
A-TEXT
100
AcDbText
 10
16.3275
 20
-1.4005
 30
0.0
 40
0.25
  1
R14  4.0 m²
 72
1
 11
16.3275
 21
-1.4005
 31
0.0
100
AcDbText
 73
2
  0
LWPOLYLINE
  5
224
330
17
100
AcDbEntity
  8
A-ROOM
100
AcDbPolyline
 90
4
 70
1
 10
22.375
 20
13.845
 10
25.475
 20
13.845
 10
25.475
 20
15.125
 10
22.375
 20
15.125
  0
TEXT
  5
225
330
17
100
AcDbEntity
  8
A-TEXT
100
AcDbText
 10
23.9092
 20
14.4844
 30
0.0
 40
0.25
  1
R15  3.9 m²
 72
1
 11
23.9092
 21
14.4844
 31
0.0
100
AcDbText
 73
2
  0
LWPOLYLINE
  5
226
330
17
100
AcDbEntity
  8
A-ROOM
100
AcDbPolyline
 90
4
 70
1
 10
12.235
 20
4.425
 10
15.255
 20
4.425
 10
15.255
 20
5.665
 10
12.235
 20
5.665
  0
TEXT
  5
227
330
17
100
AcDbEntity
  8
A-TEXT
100
AcDbText
 10
13.7051
 20
5.043
 30
0.0
 40
0.25
  1
R16  3.3 m²
 72
1
 11
13.7051
 21
5.043
 31
0.0
100
AcDbText
 73
2
  0
LWPOLYLINE
  5
228
330
17
100
AcDbEntity
  8
A-ROOM
100
AcDbPolyline
 90
4
 70
1
 10
11.855
 20
8.545
 10
15.375
 20
8.545
 10
15.375
 20
9.405
 10
11.855
 20
9.405
  0
TEXT
  5
229
330
17
100
AcDbEntity
  8
A-TEXT
100
AcDbText
 10
13.5536
 20
9.017
 30
0.0
 40
0.25
  1
R17  2.8 m²
 72
1
 11
13.5536
 21
9.017
 31
0.0
100
AcDbText
 73
2
  0
LWPOLYLINE
  5
22A
330
17
100
AcDbEntity
  8
A-ROOM
100
AcDbPolyline
 90
4
 70
1
 10
-13.345
 20
-1.615
 10
-11.565
 20
-1.615
 10
-11.565
 20
-0.035
 10
-13.345
 20
-0.035
  0
TEXT
  5
22B
330
17
100
AcDbEntity
  8
A-TEXT
100
AcDbText
 10
-12.4516
 20
-0.8027
 30
0.0
 40
0.25
  1
R18  2.8 m²
 72
1
 11
-12.4516
 21
-0.8027
 31
0.0
100
AcDbText
 73
2
  0
TEXT
  5
22C
330
17
100
AcDbEntity
  8
A-TEXT
100
AcDbText
 10
-37.625
 20
-34.07500076293945
 30
0.0
 40
0.4
  1
Floor 1  —  345 walls  ·  50 doors  ·  11 windows
 11
-37.625
 21
-34.07500076293945
 31
0.0
100
AcDbText
  0
ENDSEC
  0
SECTION
  2
OBJECTS
  0
DICTIONARY
  5
A
330
0
100
AcDbDictionary
281
1
  3
ACAD_COLOR
350
B
  3
ACAD_GROUP
350
C
  3
ACAD_LAYOUT
350
D
  3
ACAD_MATERIAL
350
E
  3
ACAD_MLEADERSTYLE
350
F
  3
ACAD_MLINESTYLE
350
10
  3
ACAD_PLOTSETTINGS
350
11
  3
ACAD_PLOTSTYLENAME
350
12
  3
ACAD_SCALELIST
350
14
  3
ACAD_TABLESTYLE
350
15
  3
ACAD_VISUALSTYLE
350
16
  3
EZDXF_META
350
2D
  0
DICTIONARY
  5
B
330
A
100
AcDbDictionary
281
1
  0
DICTIONARY
  5
C
330
A
100
AcDbDictionary
281
1
  0
DICTIONARY
  5
D
330
A
100
AcDbDictionary
281
1
  3
Model
350
1A
  3
Layout1
350
1E
  0
DICTIONARY
  5
E
330
A
100
AcDbDictionary
281
1
  3
ByBlock
350
1F
  3
ByLayer
350
20
  3
Global
350
21
  0
DICTIONARY
  5
F
330
A
100
AcDbDictionary
281
1
  3
Standard
350
2C
  0
DICTIONARY
  5
10
330
A
100
AcDbDictionary
281
1
  3
Standard
350
22
  0
DICTIONARY
  5
11
330
A
100
AcDbDictionary
281
1
  0
ACDBDICTIONARYWDFLT
  5
12
330
A
100
AcDbDictionary
281
1
  3
Normal
350
13
100
AcDbDictionaryWithDefault
340
13
  0
ACDBPLACEHOLDER
  5
13
330
12
  0
DICTIONARY
  5
14
330
A
100
AcDbDictionary
281
1
  0
DICTIONARY
  5
15
330
A
100
AcDbDictionary
281
1
  0
DICTIONARY
  5
16
330
A
100
AcDbDictionary
281
1
  0
LAYOUT
  5
1A
330
D
100
AcDbPlotSettings
  1

  4
A3
  6

 40
7.5
 41
20.0
 42
7.5
 43
20.0
 44
420.0
 45
297.0
 46
0.0
 47
0.0
 48
0.0
 49
0.0
140
0.0
141
0.0
142
1.0
143
1.0
 70
1024
 72
1
 73
0
 74
5
  7

 75
16
 76
0
 77
2
 78
300
147
1.0
148
0.0
149
0.0
100
AcDbLayout
  1
Model
 70
1
 71
0
 10
0.0
 20
0.0
 11
420.0
 21
297.0
 12
0.0
 22
0.0
 32
0.0
 14
1e+20
 24
1e+20
 34
1e+20
 15
-1e+20
 25
-1e+20
 35
-1e+20
146
0.0
 13
0.0
 23
0.0
 33
0.0
 16
1.0
 26
0.0
 36
0.0
 17
0.0
 27
1.0
 37
0.0
 76
1
330
17
  0
LAYOUT
  5
1E
330
D
100
AcDbPlotSettings
  1

  4
A3
  6

 40
7.5
 41
20.0
 42
7.5
 43
20.0
 44
420.0
 45
297.0
 46
0.0
 47
0.0
 48
0.0
 49
0.0
140
0.0
141
0.0
142
1.0
143
1.0
 70
0
 72
1
 73
0
 74
5
  7

 75
16
 76
0
 77
2
 78
300
147
1.0
148
0.0
149
0.0
100
AcDbLayout
  1
Layout1
 70
1
 71
1
 10
0.0
 20
0.0
 11
420.0
 21
297.0
 12
0.0
 22
0.0
 32
0.0
 14
1e+20
 24
1e+20
 34
1e+20
 15
-1e+20
 25
-1e+20
 35
-1e+20
146
0.0
 13
0.0
 23
0.0
 33
0.0
 16
1.0
 26
0.0
 36
0.0
 17
0.0
 27
1.0
 37
0.0
 76
1
330
1B
  0
MATERIAL
  5
1F
102
{ACAD_REACTORS
330
E
102
}
330
E
100
AcDbMaterial
  1
ByBlock
  2

 70
0
 40
1.0
 71
1
 41
1.0
 91
-1023410177
 42
1.0
 72
1
  3

 73
1
 74
1
 75
1
 44
0.5
 73
0
 45
1.0
 46
1.0
 77
1
  4

 78
1
 79
1
170
1
 48
1.0
171
1
  6

172
1
173
1
174
1
140
1.0
141
1.0
175
1
  7

176
1
177
1
178
1
143
1.0
179
1
  8

270
1
271
1
272
1
145
1.0
146
1.0
273
1
  9

274
1
275
1
276
1
 42
1.0
 72
1
  3

 73
1
 74
1
 75
1
 94
63
  0
MATERIAL
  5
20
102
{ACAD_REACTORS
330
E
102
}
330
E
100
AcDbMaterial
  1
ByLayer
  2

 70
0
 40
1.0
 71
1
 41
1.0
 91
-1023410177
 42
1.0
 72
1
  3

 73
1
 74
1
 75
1
 44
0.5
 73
0
 45
1.0
 46
1.0
 77
1
  4

 78
1
 79
1
170
1
 48
1.0
171
1
  6

172
1
173
1
174
1
140
1.0
141
1.0
175
1
  7

176
1
177
1
178
1
143
1.0
179
1
  8

270
1
271
1
272
1
145
1.0
146
1.0
273
1
  9

274
1
275
1
276
1
 42
1.0
 72
1
  3

 73
1
 74
1
 75
1
 94
63
  0
MATERIAL
  5
21
102
{ACAD_REACTORS
330
E
102
}
330
E
100
AcDbMaterial
  1
Global
  2

 70
0
 40
1.0
 71
1
 41
1.0
 91
-1023410177
 42
1.0
 72
1
  3

 73
1
 74
1
 75
1
 44
0.5
 73
0
 45
1.0
 46
1.0
 77
1
  4

 78
1
 79
1
170
1
 48
1.0
171
1
  6

172
1
173
1
174
1
140
1.0
141
1.0
175
1
  7

176
1
177
1
178
1
143
1.0
179
1
  8

270
1
271
1
272
1
145
1.0
146
1.0
273
1
  9

274
1
275
1
276
1
 42
1.0
 72
1
  3

 73
1
 74
1
 75
1
 94
63
  0
MLINESTYLE
  5
22
102
{ACAD_REACTORS
330
10
102
}
330
10
100
AcDbMlineStyle
  2
Standard
 70
0
  3

 62
256
 51
90.0
 52
90.0
 71
2
 49
0.5
 62
256
  6
BYLAYER
 49
-0.5
 62
256
  6
BYLAYER
  0
MLEADERSTYLE
  5
2C
102
{ACAD_REACTORS
330
F
102
}
330
F
100
AcDbMLeaderStyle
179
2
170
2
171
1
172
0
 90
2
 40
0.0
 41
0.0
173
1
 91
-1056964608
 92
-2
290
1
 42
2.0
291
1
 43
8.0
  3
Standard
 44
4.0
300

342
29
174
1
175
1
176
0
178
1
 93
-1056964608
 45
4.0
292
0
297
0
 46
4.0
 94
-1056964608
 47
1.0
 49
1.0
140
1.0
294
1
141
0.0
177
0
142
1.0
295
0
296
0
143
3.75
271
0
272
9
273
9
  0
DICTIONARY
  5
2D
330
A
100
AcDbDictionary
280
1
281
1
  3
CREATED_BY_EZDXF
350
2E
  3
WRITTEN_BY_EZDXF
350
22F
  0
DICTIONARYVAR
  5
2E
330
2D
100
DictionaryVariables
280
0
  1
1.4.3 @ 2026-04-10T13:11:25.047836+00:00
  0
DICTIONARYVAR
  5
22F
330
2D
100
DictionaryVariables
280
0
  1
1.4.3 @ 2026-04-10T13:11:25.053932+00:00
  0
ENDSEC
  0
EOF
