  0
SECTION
  2
HEADER
  9
$ACADVER
  1
AC1024
  9
$ACADMAINTVER
 70
6
  9
$DWGCODEPAGE
  3
ANSI_1252
  9
$LASTSAVEDBY
  1
ezdxf
  9
$INSBASE
 10
0.0
 20
0.0
 30
0.0
  9
$EXTMIN
 10
1e+20
 20
1e+20
 30
1e+20
  9
$EXTMAX
 10
-1e+20
 20
-1e+20
 30
-1e+20
  9
$LIMMIN
 10
0.0
 20
0.0
  9
$LIMMAX
 10
420.0
 20
297.0
  9
$ORTHOMODE
 70
0
  9
$REGENMODE
 70
1
  9
$FILLMODE
 70
1
  9
$QTEXTMODE
 70
0
  9
$MIRRTEXT
 70
1
  9
$LTSCALE
 40
1.0
  9
$ATTMODE
 70
1
  9
$TEXTSIZE
 40
2.5
  9
$TRACEWID
 40
1.0
  9
$TEXTSTYLE
  7
Standard
  9
$CLAYER
  8
0
  9
$CELTYPE
  6
ByLayer
  9
$CECOLOR
 62
256
  9
$CELTSCALE
 40
1.0
  9
$DISPSILH
 70
0
  9
$DIMSCALE
 40
1.0
  9
$DIMASZ
 40
2.5
  9
$DIMEXO
 40
0.625
  9
$DIMDLI
 40
3.75
  9
$DIMRND
 40
0.0
  9
$DIMDLE
 40
0.0
  9
$DIMEXE
 40
1.25
  9
$DIMTP
 40
0.0
  9
$DIMTM
 40
0.0
  9
$DIMTXT
 40
2.5
  9
$DIMCEN
 40
2.5
  9
$DIMTSZ
 40
0.0
  9
$DIMTOL
 70
0
  9
$DIMLIM
 70
0
  9
$DIMTIH
 70
0
  9
$DIMTOH
 70
0
  9
$DIMSE1
 70
0
  9
$DIMSE2
 70
0
  9
$DIMTAD
 70
1
  9
$DIMZIN
 70
8
  9
$DIMBLK
  1

  9
$DIMASO
 70
1
  9
$DIMSHO
 70
1
  9
$DIMPOST
  1

  9
$DIMAPOST
  1

  9
$DIMALT
 70
0
  9
$DIMALTD
 70
3
  9
$DIMALTF
 40
0.03937007874
  9
$DIMLFAC
 40
1.0
  9
$DIMTOFL
 70
1
  9
$DIMTVP
 40
0.0
  9
$DIMTIX
 70
0
  9
$DIMSOXD
 70
0
  9
$DIMSAH
 70
0
  9
$DIMBLK1
  1

  9
$DIMBLK2
  1

  9
$DIMSTYLE
  2
ISO-25
  9
$DIMCLRD
 70
0
  9
$DIMCLRE
 70
0
  9
$DIMCLRT
 70
0
  9
$DIMTFAC
 40
1.0
  9
$DIMGAP
 40
0.625
  9
$DIMJUST
 70
0
  9
$DIMSD1
 70
0
  9
$DIMSD2
 70
0
  9
$DIMTOLJ
 70
0
  9
$DIMTZIN
 70
8
  9
$DIMALTZ
 70
0
  9
$DIMALTTZ
 70
0
  9
$DIMUPT
 70
0
  9
$DIMDEC
 70
2
  9
$DIMTDEC
 70
2
  9
$DIMALTU
 70
2
  9
$DIMALTTD
 70
3
  9
$DIMTXSTY
  7
Standard
  9
$DIMAUNIT
 70
0
  9
$DIMADEC
 70
0
  9
$DIMALTRND
 40
0.0
  9
$DIMAZIN
 70
0
  9
$DIMDSEP
 70
44
  9
$DIMATFIT
 70
3
  9
$DIMFRAC
 70
0
  9
$DIMLDRBLK
  1

  9
$DIMLUNIT
 70
2
  9
$DIMLWD
 70
-2
  9
$DIMLWE
 70
-2
  9
$DIMTMOVE
 70
0
  9
$DIMFXL
 40
1.0
  9
$DIMFXLON
 70
0
  9
$DIMJOGANG
 40
0.785398163397
  9
$DIMTFILL
 70
0
  9
$DIMTFILLCLR
 70
0
  9
$DIMARCSYM
 70
0
  9
$DIMLTYPE
  6

  9
$DIMLTEX1
  6

  9
$DIMLTEX2
  6

  9
$DIMTXTDIRECTION
 70
0
  9
$LUNITS
 70
2
  9
$LUPREC
 70
4
  9
$SKETCHINC
 40
1.0
  9
$FILLETRAD
 40
10.0
  9
$AUNITS
 70
0
  9
$AUPREC
 70
2
  9
$MENU
  1
.
  9
$ELEVATION
 40
0.0
  9
$PELEVATION
 40
0.0
  9
$THICKNESS
 40
0.0
  9
$LIMCHECK
 70
0
  9
$CHAMFERA
 40
0.0
  9
$CHAMFERB
 40
0.0
  9
$CHAMFERC
 40
0.0
  9
$CHAMFERD
 40
0.0
  9
$SKPOLY
 70
0
  9
$TDCREATE
 40
2461144.5067708334
  9
$TDUCREATE
 40
2458532.153996898
  9
$TDUPDATE
 40
2461144.5067708334
  9
$TDUUPDATE
 40
2458532.1544311
  9
$TDINDWG
 40
0.0
  9
$TDUSRTIMER
 40
0.0
  9
$USRTIMER
 70
1
  9
$ANGBASE
 50
0.0
  9
$ANGDIR
 70
0
  9
$PDMODE
 70
0
  9
$PDSIZE
 40
0.0
  9
$PLINEWID
 40
0.0
  9
$SPLFRAME
 70
0
  9
$SPLINETYPE
 70
6
  9
$SPLINESEGS
 70
8
  9
$HANDSEED
  5
17D
  9
$SURFTAB1
 70
6
  9
$SURFTAB2
 70
6
  9
$SURFTYPE
 70
6
  9
$SURFU
 70
6
  9
$SURFV
 70
6
  9
$UCSBASE
  2

  9
$UCSNAME
  2

  9
$UCSORG
 10
0.0
 20
0.0
 30
0.0
  9
$UCSXDIR
 10
1.0
 20
0.0
 30
0.0
  9
$UCSYDIR
 10
0.0
 20
1.0
 30
0.0
  9
$UCSORTHOREF
  2

  9
$UCSORTHOVIEW
 70
0
  9
$UCSORGTOP
 10
0.0
 20
0.0
 30
0.0
  9
$UCSORGBOTTOM
 10
0.0
 20
0.0
 30
0.0
  9
$UCSORGLEFT
 10
0.0
 20
0.0
 30
0.0
  9
$UCSORGRIGHT
 10
0.0
 20
0.0
 30
0.0
  9
$UCSORGFRONT
 10
0.0
 20
0.0
 30
0.0
  9
$UCSORGBACK
 10
0.0
 20
0.0
 30
0.0
  9
$PUCSBASE
  2

  9
$PUCSNAME
  2

  9
$PUCSORG
 10
0.0
 20
0.0
 30
0.0
  9
$PUCSXDIR
 10
1.0
 20
0.0
 30
0.0
  9
$PUCSYDIR
 10
0.0
 20
1.0
 30
0.0
  9
$PUCSORTHOREF
  2

  9
$PUCSORTHOVIEW
 70
0
  9
$PUCSORGTOP
 10
0.0
 20
0.0
 30
0.0
  9
$PUCSORGBOTTOM
 10
0.0
 20
0.0
 30
0.0
  9
$PUCSORGLEFT
 10
0.0
 20
0.0
 30
0.0
  9
$PUCSORGRIGHT
 10
0.0
 20
0.0
 30
0.0
  9
$PUCSORGFRONT
 10
0.0
 20
0.0
 30
0.0
  9
$PUCSORGBACK
 10
0.0
 20
0.0
 30
0.0
  9
$USERI1
 70
0
  9
$USERI2
 70
0
  9
$USERI3
 70
0
  9
$USERI4
 70
0
  9
$USERI5
 70
0
  9
$USERR1
 40
0.0
  9
$USERR2
 40
0.0
  9
$USERR3
 40
0.0
  9
$USERR4
 40
0.0
  9
$USERR5
 40
0.0
  9
$WORLDVIEW
 70
1
  9
$SHADEDGE
 70
3
  9
$SHADEDIF
 70
70
  9
$TILEMODE
 70
1
  9
$MAXACTVP
 70
64
  9
$PINSBASE
 10
0.0
 20
0.0
 30
0.0
  9
$PLIMCHECK
 70
0
  9
$PEXTMIN
 10
1e+20
 20
1e+20
 30
1e+20
  9
$PEXTMAX
 10
-1e+20
 20
-1e+20
 30
-1e+20
  9
$PLIMMIN
 10
0.0
 20
0.0
  9
$PLIMMAX
 10
420.0
 20
297.0
  9
$UNITMODE
 70
0
  9
$VISRETAIN
 70
1
  9
$PLINEGEN
 70
0
  9
$PSLTSCALE
 70
1
  9
$TREEDEPTH
 70
3020
  9
$CMLSTYLE
  2
Standard
  9
$CMLJUST
 70
0
  9
$CMLSCALE
 40
20.0
  9
$PROXYGRAPHICS
 70
1
  9
$MEASUREMENT
 70
1
  9
$CELWEIGHT
370
-1
  9
$ENDCAPS
280
0
  9
$JOINSTYLE
280
0
  9
$LWDISPLAY
290
0
  9
$INSUNITS
 70
6
  9
$HYPERLINKBASE
  1

  9
$STYLESHEET
  1

  9
$XEDIT
290
1
  9
$CEPSNTYPE
380
0
  9
$PSTYLEMODE
290
1
  9
$FINGERPRINTGUID
  2
{8D3215FF-8D56-4318-891F-94BC4B8EA458}
  9
$VERSIONGUID
  2
{6B8CEF9D-386F-4625-88ED-337051D47CCD}
  9
$EXTNAMES
290
1
  9
$PSVPSCALE
 40
0.0
  9
$OLESTARTUP
290
0
  9
$SORTENTS
280
127
  9
$INDEXCTL
280
0
  9
$HIDETEXT
280
1
  9
$XCLIPFRAME
280
1
  9
$HALOGAP
280
0
  9
$OBSCOLOR
 70
257
  9
$OBSLTYPE
280
0
  9
$INTERSECTIONDISPLAY
280
0
  9
$INTERSECTIONCOLOR
 70
257
  9
$DIMASSOC
280
2
  9
$PROJECTNAME
  1

  9
$CAMERADISPLAY
290
0
  9
$LENSLENGTH
 40
50.0
  9
$CAMERAHEIGHT
 40
0.0
  9
$STEPSPERSEC
 40
24.0
  9
$STEPSIZE
 40
100.0
  9
$3DDWFPREC
 40
2.0
  9
$PSOLWIDTH
 40
0.005
  9
$PSOLHEIGHT
 40
0.08
  9
$LOFTANG1
 40
1.570796326795
  9
$LOFTANG2
 40
1.570796326795
  9
$LOFTMAG1
 40
0.0
  9
$LOFTMAG2
 40
0.0
  9
$LOFTPARAM
 70
7
  9
$LOFTNORMALS
280
1
  9
$LATITUDE
 40
37.795
  9
$LONGITUDE
 40
-122.394
  9
$NORTHDIRECTION
 40
0.0
  9
$TIMEZONE
 70
-8000
  9
$LIGHTGLYPHDISPLAY
280
1
  9
$TILEMODELIGHTSYNCH
280
1
  9
$CMATERIAL
347
20
  9
$SOLIDHIST
280
0
  9
$SHOWHIST
280
1
  9
$DWFFRAME
280
2
  9
$DGNFRAME
280
2
  9
$REALWORLDSCALE
290
1
  9
$INTERFERECOLOR
 62
256
  9
$CSHADOW
280
0
  9
$SHADOWPLANELOCATION
 40
0.0
  0
ENDSEC
  0
SECTION
  2
CLASSES
  0
CLASS
  1
ACDBDICTIONARYWDFLT
  2
AcDbDictionaryWithDefault
  3
ObjectDBX Classes
 90
0
 91
0
280
0
281
0
  0
CLASS
  1
SUN
  2
AcDbSun
  3
SCENEOE
 90
1153
 91
0
280
0
281
0
  0
CLASS
  1
VISUALSTYLE
  2
AcDbVisualStyle
  3
ObjectDBX Classes
 90
4095
 91
0
280
0
281
0
  0
CLASS
  1
MATERIAL
  2
AcDbMaterial
  3
ObjectDBX Classes
 90
1153
 91
0
280
0
281
0
  0
CLASS
  1
SCALE
  2
AcDbScale
  3
ObjectDBX Classes
 90
1153
 91
0
280
0
281
0
  0
CLASS
  1
TABLESTYLE
  2
AcDbTableStyle
  3
ObjectDBX Classes
 90
4095
 91
0
280
0
281
0
  0
CLASS
  1
MLEADERSTYLE
  2
AcDbMLeaderStyle
  3
ACDB_MLEADERSTYLE_CLASS
 90
4095
 91
0
280
0
281
0
  0
CLASS
  1
DICTIONARYVAR
  2
AcDbDictionaryVar
  3
ObjectDBX Classes
 90
0
 91
0
280
0
281
0
  0
CLASS
  1
CELLSTYLEMAP
  2
AcDbCellStyleMap
  3
ObjectDBX Classes
 90
1152
 91
0
280
0
281
0
  0
CLASS
  1
MENTALRAYRENDERSETTINGS
  2
AcDbMentalRayRenderSettings
  3
SCENEOE
 90
1024
 91
0
280
0
281
0
  0
CLASS
  1
ACDBDETAILVIEWSTYLE
  2
AcDbDetailViewStyle
  3
ObjectDBX Classes
 90
1025
 91
0
280
0
281
0
  0
CLASS
  1
ACDBSECTIONVIEWSTYLE
  2
AcDbSectionViewStyle
  3
ObjectDBX Classes
 90
1025
 91
0
280
0
281
0
  0
CLASS
  1
RASTERVARIABLES
  2
AcDbRasterVariables
  3
ISM
 90
0
 91
0
280
0
281
0
  0
CLASS
  1
LAYOUT
  2
AcDbLayout
  3
ObjectDBX Classes
 90
0
 91
0
280
0
281
0
  0
CLASS
  1
ACDBPLACEHOLDER
  2
AcDbPlaceHolder
  3
ObjectDBX Classes
 90
0
 91
0
280
0
281
0
  0
ENDSEC
  0
SECTION
  2
TABLES
  0
TABLE
  2
VPORT
  5
8
330
0
100
AcDbSymbolTable
 70
1
  0
VPORT
  5
23
330
8
100
AcDbSymbolTableRecord
100
AcDbViewportTableRecord
  2
*Active
 70
0
 10
0.0
 20
0.0
 11
1.0
 21
1.0
 12
0.0
 22
0.0
 13
0.0
 23
0.0
 14
0.5
 24
0.5
 15
0.5
 25
0.5
 16
0.0
 26
0.0
 36
1.0
 17
0.0
 27
0.0
 37
0.0
 40
1000.0
 41
1.34
 42
50.0
 43
0.0
 44
0.0
 50
0.0
 51
0.0
 71
0
 72
1000
 73
1
 74
3
 75
0
 76
0
 77
0
 78
0
281
0
 65
0
146
0.0
  0
ENDTAB
  0
TABLE
  2
LTYPE
  5
2
330
0
100
AcDbSymbolTable
 70
3
  0
LTYPE
  5
24
330
2
100
AcDbSymbolTableRecord
100
AcDbLinetypeTableRecord
  2
ByBlock
 70
0
  3

 72
65
 73
0
 40
0.0
  0
LTYPE
  5
25
330
2
100
AcDbSymbolTableRecord
100
AcDbLinetypeTableRecord
  2
ByLayer
 70
0
  3

 72
65
 73
0
 40
0.0
  0
LTYPE
  5
26
330
2
100
AcDbSymbolTableRecord
100
AcDbLinetypeTableRecord
  2
Continuous
 70
0
  3

 72
65
 73
0
 40
0.0
  0
ENDTAB
  0
TABLE
  2
LAYER
  5
1
330
0
100
AcDbSymbolTable
 70
8
  0
LAYER
  5
27
330
1
100
AcDbSymbolTableRecord
100
AcDbLayerTableRecord
  2
0
 70
0
 62
7
  6
Continuous
370
-3
390
13
347
21
  0
LAYER
  5
28
330
1
100
AcDbSymbolTableRecord
100
AcDbLayerTableRecord
  2
Defpoints
 70
0
 62
7
  6
Continuous
290
0
370
-3
390
13
347
21
  0
LAYER
  5
2F
330
1
100
AcDbSymbolTableRecord
100
AcDbLayerTableRecord
  2
A-WALL
 70
0
 62
7
  6
Continuous
370
50
390
13
347
21
  0
LAYER
  5
30
330
1
100
AcDbSymbolTableRecord
100
AcDbLayerTableRecord
  2
A-DOOR
 70
0
 62
3
  6
Continuous
370
35
390
13
347
21
  0
LAYER
  5
31
330
1
100
AcDbSymbolTableRecord
100
AcDbLayerTableRecord
  2
A-WINDOW
 70
0
 62
4
  6
Continuous
370
25
390
13
347
21
  0
LAYER
  5
32
330
1
100
AcDbSymbolTableRecord
100
AcDbLayerTableRecord
  2
A-TEXT
 70
0
 62
2
  6
Continuous
370
-3
390
13
347
21
  0
LAYER
  5
33
330
1
100
AcDbSymbolTableRecord
100
AcDbLayerTableRecord
  2
A-GRID
 70
0
 62
8
  6
Continuous
370
13
390
13
347
21
  0
LAYER
  5
34
330
1
100
AcDbSymbolTableRecord
100
AcDbLayerTableRecord
  2
A-ROOM
 70
0
 62
6
  6
Continuous
370
13
390
13
347
21
  0
ENDTAB
  0
TABLE
  2
STYLE
  5
5
330
0
100
AcDbSymbolTable
 70
1
  0
STYLE
  5
29
330
5
100
AcDbSymbolTableRecord
100
AcDbTextStyleTableRecord
  2
Standard
 70
0
 40
0.0
 41
1.0
 50
0.0
 71
0
 42
2.5
  3
txt
  4

  0
ENDTAB
  0
TABLE
  2
VIEW
  5
7
330
0
100
AcDbSymbolTable
 70
0
  0
ENDTAB
  0
TABLE
  2
UCS
  5
6
330
0
100
AcDbSymbolTable
 70
0
  0
ENDTAB
  0
TABLE
  2
APPID
  5
3
330
0
100
AcDbSymbolTable
 70
3
  0
APPID
  5
2A
330
3
100
AcDbSymbolTableRecord
100
AcDbRegAppTableRecord
  2
ACAD
 70
0
  0
APPID
  5
17A
330
3
100
AcDbSymbolTableRecord
100
AcDbRegAppTableRecord
  2
HATCHBACKGROUNDCOLOR
 70
0
  0
APPID
  5
17B
330
3
100
AcDbSymbolTableRecord
100
AcDbRegAppTableRecord
  2
EZDXF
 70
0
  0
ENDTAB
  0
TABLE
  2
DIMSTYLE
  5
4
330
0
100
AcDbSymbolTable
 70
1
100
AcDbDimStyleTable
  0
DIMSTYLE
105
2B
330
4
100
AcDbSymbolTableRecord
100
AcDbDimStyleTableRecord
  2
Standard
 70
0
 40
1.0
 41
2.5
 42
0.625
 43
3.75
 44
1.25
 45
0.0
 46
0.0
 47
0.0
 48
0.0
 49
2.5
140
2.5
141
2.5
142
0.0
143
0.03937007874
144
1.0
145
0.0
146
1.0
147
0.625
148
0.0
 69
0
 70
0
 71
0
 72
0
 73
0
 74
0
 75
0
 76
0
 77
1
 78
8
 79
3
170
0
171
3
172
1
173
0
174
0
175
0
176
0
177
0
178
0
179
2
271
2
272
2
273
2
274
3
275
0
276
0
277
2
278
44
279
0
280
0
281
0
282
0
283
0
284
8
285
0
286
0
288
0
289
3
290
0
371
-2
372
-2
  0
ENDTAB
  0
TABLE
  2
BLOCK_RECORD
  5
9
330
0
100
AcDbSymbolTable
 70
2
  0
BLOCK_RECORD
  5
17
330
9
100
AcDbSymbolTableRecord
100
AcDbBlockTableRecord
  2
*Model_Space
340
1A
 70
0
280
1
281
0
  0
BLOCK_RECORD
  5
1B
330
9
100
AcDbSymbolTableRecord
100
AcDbBlockTableRecord
  2
*Paper_Space
340
1E
 70
0
280
1
281
0
  0
ENDTAB
  0
ENDSEC
  0
SECTION
  2
BLOCKS
  0
BLOCK
  5
18
330
17
100
AcDbEntity
  8
0
100
AcDbBlockBegin
  2
*Model_Space
 70
0
 10
0.0
 20
0.0
 30
0.0
  3
*Model_Space
  1

  0
ENDBLK
  5
19
330
17
100
AcDbEntity
  8
0
100
AcDbBlockEnd
  0
BLOCK
  5
1C
330
1B
100
AcDbEntity
  8
0
100
AcDbBlockBegin
  2
*Paper_Space
 70
0
 10
0.0
 20
0.0
 30
0.0
  3
*Paper_Space
  1

  0
ENDBLK
  5
1D
330
1B
100
AcDbEntity
  8
0
100
AcDbBlockEnd
  0
ENDSEC
  0
SECTION
  2
ENTITIES
  0
LINE
  5
35
330
17
100
AcDbEntity
  8
A-WALL
100
AcDbLine
 10
18.84499923706055
 20
14.435000000000002
 30
0.0
 11
19.504999237060545
 21
14.435000000000002
 31
0.0
  0
LINE
  5
36
330
17
100
AcDbEntity
  8
A-WALL
100
AcDbLine
 10
16.884999237060548
 20
14.375
 30
0.0
 11
16.884999237060548
 21
15.215000000000003
 31
0.0
  0
LINE
  5
37
330
17
100
AcDbEntity
  8
A-WALL
100
AcDbLine
 10
17.66499923706055
 20
14.255000000000003
 30
0.0
 11
16.964999237060546
 21
14.255000000000003
 31
0.0
  0
LINE
  5
38
330
17
100
AcDbEntity
  8
A-WALL
100
AcDbLine
 10
16.924999237060547
 20
11.035000000000004
 30
0.0
 11
17.80499923706055
 21
11.035000000000004
 31
0.0
  0
LINE
  5
39
330
17
100
AcDbEntity
  8
A-WALL
100
AcDbLine
 10
19.22499923706055
 20
11.655000000000001
 30
0.0
 11
17.744999237060547
 21
11.655000000000001
 31
0.0
  0
LINE
  5
3A
330
17
100
AcDbEntity
  8
A-WALL
100
AcDbLine
 10
17.94499923706055
 20
13.335
 30
0.0
 11
20.504999237060545
 21
13.335
 31
0.0
  0
LINE
  5
3B
330
17
100
AcDbEntity
  8
A-WALL
100
AcDbLine
 10
20.364999237060545
 20
12.535000000000004
 30
0.0
 11
20.364999237060545
 21
11.994999999999997
 31
0.0
  0
LINE
  5
3C
330
17
100
AcDbEntity
  8
A-WALL
100
AcDbLine
 10
20.80499923706055
 20
10.375
 30
0.0
 11
20.80499923706055
 21
-9.565
 31
0.0
  0
LINE
  5
3D
330
17
100
AcDbEntity
  8
A-WALL
100
AcDbLine
 10
21.104999237060547
 20
15.975000000000001
 30
0.0
 11
21.104999237060547
 21
11.375
 31
0.0
  0
LINE
  5
3E
330
17
100
AcDbEntity
  8
A-WALL
100
AcDbLine
 10
6.004999237060549
 20
5.254999999999999
 30
0.0
 11
6.004999237060549
 21
0.5150000000000006
 31
0.0
  0
LINE
  5
3F
330
17
100
AcDbEntity
  8
A-WALL
100
AcDbLine
 10
-22.955000762939452
 20
9.594999999999999
 30
0.0
 11
-22.955000762939452
 21
4.715
 31
0.0
  0
LINE
  5
40
330
17
100
AcDbEntity
  8
A-WALL
100
AcDbLine
 10
-23.035000762939454
 20
9.115000000000002
 30
0.0
 11
-23.035000762939454
 21
11.515
 31
0.0
  0
LINE
  5
41
330
17
100
AcDbEntity
  8
A-WALL
100
AcDbLine
 10
5.864999237060548
 20
8.995000000000001
 30
0.0
 11
5.864999237060548
 21
10.055
 31
0.0
  0
LINE
  5
42
330
17
100
AcDbEntity
  8
A-WALL
100
AcDbLine
 10
5.844999237060549
 20
10.215000000000003
 30
0.0
 11
4.424999237060547
 21
10.215000000000003
 31
0.0
  0
LINE
  5
43
330
17
100
AcDbEntity
  8
A-WALL
100
AcDbLine
 10
5.864999237060548
 20
10.155000000000001
 30
0.0
 11
9.604999237060547
 21
10.155000000000001
 31
0.0
  0
LINE
  5
44
330
17
100
AcDbEntity
  8
A-WALL
100
AcDbLine
 10
9.76499923706055
 20
10.255000000000003
 30
0.0
 11
9.76499923706055
 21
13.235
 31
0.0
  0
LINE
  5
45
330
17
100
AcDbEntity
  8
A-WALL
100
AcDbLine
 10
7.104999237060547
 20
13.375
 30
0.0
 11
10.004999237060545
 21
13.375
 31
0.0
  0
LINE
  5
46
330
17
100
AcDbEntity
  8
A-WALL
100
AcDbLine
 10
-18.075000762939453
 20
-2.044999999999998
 30
0.0
 11
-18.935000762939453
 21
-2.044999999999998
 31
0.0
  0
LINE
  5
47
330
17
100
AcDbEntity
  8
A-WALL
100
AcDbLine
 10
1.1649992370605489
 20
-2.4849999999999994
 30
0.0
 11
1.1649992370605489
 21
-1.8249999999999993
 31
0.0
  0
LINE
  5
48
330
17
100
AcDbEntity
  8
A-WALL
100
AcDbLine
 10
16.464999237060546
 20
-4.704999999999998
 30
0.0
 11
17.104999237060547
 21
-4.704999999999998
 31
0.0
  0
LINE
  5
49
330
17
100
AcDbEntity
  8
A-WALL
100
AcDbLine
 10
7.124999237060546
 20
-6.184999999999999
 30
0.0
 11
9.48499923706055
 21
-6.184999999999999
 31
0.0
  0
LINE
  5
4A
330
17
100
AcDbEntity
  8
A-WALL
100
AcDbLine
 10
9.724999237060544
 20
-5.664999999999999
 30
0.0
 11
9.724999237060544
 21
-2.504999999999999
 31
0.0
  0
LINE
  5
4B
330
17
100
AcDbEntity
  8
A-WALL
100
AcDbLine
 10
7.264999237060547
 20
-2.1849999999999987
 30
0.0
 11
9.80499923706055
 21
-2.1849999999999987
 31
0.0
  0
LINE
  5
4C
330
17
100
AcDbEntity
  8
A-WALL
100
AcDbLine
 10
9.744999237060547
 20
-6.425000000000001
 30
0.0
 11
9.744999237060547
 21
-4.445
 31
0.0
  0
LINE
  5
4D
330
17
100
AcDbEntity
  8
A-WALL
100
AcDbLine
 10
1.1449992370605457
 20
-6.524999999999999
 30
0.0
 11
1.1449992370605457
 21
-5.925000000000001
 31
0.0
  0
LINE
  5
4E
330
17
100
AcDbEntity
  8
A-WALL
100
AcDbLine
 10
-22.615000762939452
 20
-1.9450000000000003
 30
0.0
 11
-22.615000762939452
 21
-3.004999999999999
 31
0.0
  0
LINE
  5
4F
330
17
100
AcDbEntity
  8
A-WALL
100
AcDbLine
 10
-22.895000762939453
 20
-3.3049999999999997
 30
0.0
 11
-22.275000762939452
 21
-3.3049999999999997
 31
0.0
  0
LINE
  5
50
330
17
100
AcDbEntity
  8
A-WALL
100
AcDbLine
 10
-22.575000762939453
 20
-1.2850000000000001
 30
0.0
 11
-22.575000762939453
 21
-1.8649999999999984
 31
0.0
  0
LINE
  5
51
330
17
100
AcDbEntity
  8
A-WALL
100
AcDbLine
 10
-22.275000762939452
 20
-1.8049999999999997
 30
0.0
 11
-20.535000762939454
 21
-1.8049999999999997
 31
0.0
  0
LINE
  5
52
330
17
100
AcDbEntity
  8
A-WALL
100
AcDbLine
 10
-20.095000762939453
 20
-1.5449999999999982
 30
0.0
 11
-17.075000762939453
 21
-1.5449999999999982
 31
0.0
  0
LINE
  5
53
330
17
100
AcDbEntity
  8
A-WALL
100
AcDbLine
 10
-16.715000762939454
 20
-1.7249999999999979
 30
0.0
 11
-16.715000762939454
 21
0.5949999999999989
 31
0.0
  0
LINE
  5
54
330
17
100
AcDbEntity
  8
A-WALL
100
AcDbLine
 10
-16.415000762939453
 20
-6.705
 30
0.0
 11
-18.255000762939453
 21
-6.705
 31
0.0
  0
LINE
  5
55
330
17
100
AcDbEntity
  8
A-WALL
100
AcDbLine
 10
-18.435000762939453
 20
-6.824999999999999
 30
0.0
 11
-19.65500076293945
 21
-6.824999999999999
 31
0.0
  0
LINE
  5
56
330
17
100
AcDbEntity
  8
A-WALL
100
AcDbLine
 10
-19.615000762939452
 20
-6.585000000000001
 30
0.0
 11
-20.415000762939453
 21
-6.585000000000001
 31
0.0
  0
LINE
  5
57
330
17
100
AcDbEntity
  8
A-WALL
100
AcDbLine
 10
-16.97500076293945
 20
-3.8649999999999984
 30
0.0
 11
-18.635000762939452
 21
-3.8649999999999984
 31
0.0
  0
LINE
  5
58
330
17
100
AcDbEntity
  8
A-WALL
100
AcDbLine
 10
-19.415000762939453
 20
-1.8449999999999989
 30
0.0
 11
-19.415000762939453
 21
-2.8249999999999993
 31
0.0
  0
LINE
  5
59
330
17
100
AcDbEntity
  8
A-WALL
100
AcDbLine
 10
-20.615000762939452
 20
-4.125
 30
0.0
 11
-20.615000762939452
 21
-5.745000000000001
 31
0.0
  0
LINE
  5
5A
330
17
100
AcDbEntity
  8
A-WALL
100
AcDbLine
 10
5.164999237060549
 20
-9.665
 30
0.0
 11
10.844999237060549
 21
-9.665
 31
0.0
  0
LINE
  5
5B
330
17
100
AcDbEntity
  8
A-WALL
100
AcDbLine
 10
10.884999237060548
 20
-9.725
 30
0.0
 11
20.924999237060547
 21
-9.725
 31
0.0
  0
LINE
  5
5C
330
17
100
AcDbEntity
  8
A-WALL
100
AcDbLine
 10
21.16499923706055
 20
11.895000000000003
 30
0.0
 11
21.16499923706055
 21
16.775
 31
0.0
  0
LINE
  5
5D
330
17
100
AcDbEntity
  8
A-WALL
100
AcDbLine
 10
21.064999237060547
 20
16.535000000000004
 30
0.0
 11
7.264999237060547
 21
16.535000000000004
 31
0.0
  0
LINE
  5
5E
330
17
100
AcDbEntity
  8
A-WALL
100
AcDbLine
 10
21.12499923706055
 20
0.7950000000000017
 30
0.0
 11
21.12499923706055
 21
-9.725
 31
0.0
  0
LINE
  5
5F
330
17
100
AcDbEntity
  8
A-WALL
100
AcDbLine
 10
-20.795000762939452
 20
-21.225
 30
0.0
 11
-22.055000762939454
 21
-21.225
 31
0.0
  0
LINE
  5
60
330
17
100
AcDbEntity
  8
A-WALL
100
AcDbLine
 10
-22.535000762939454
 20
-20.625
 30
0.0
 11
-22.535000762939454
 21
-19.865
 31
0.0
  0
LINE
  5
61
330
17
100
AcDbEntity
  8
A-WALL
100
AcDbLine
 10
-22.635000762939452
 20
-19.845
 30
0.0
 11
-22.635000762939452
 21
-18.525
 31
0.0
  0
LINE
  5
62
330
17
100
AcDbEntity
  8
A-WALL
100
AcDbLine
 10
-15.615000762939452
 20
-17.025
 30
0.0
 11
-15.615000762939452
 21
-15.125
 31
0.0
  0
LINE
  5
63
330
17
100
AcDbEntity
  8
A-WALL
100
AcDbLine
 10
-15.755000762939453
 20
-10.545
 30
0.0
 11
-15.755000762939453
 21
-9.645
 31
0.0
  0
LINE
  5
64
330
17
100
AcDbEntity
  8
A-WALL
100
AcDbLine
 10
-15.995000762939453
 20
-9.945
 30
0.0
 11
-17.47500076293945
 21
-9.945
 31
0.0
  0
LINE
  5
65
330
17
100
AcDbEntity
  8
A-WALL
100
AcDbLine
 10
-17.715000762939454
 20
-10.225
 30
0.0
 11
-17.715000762939454
 21
-9.725
 31
0.0
  0
LINE
  5
66
330
17
100
AcDbEntity
  8
A-WALL
100
AcDbLine
 10
-19.295000762939452
 20
-10.465
 30
0.0
 11
-20.375000762939454
 21
-10.465
 31
0.0
  0
LINE
  5
67
330
17
100
AcDbEntity
  8
A-WALL
100
AcDbLine
 10
-21.195000762939454
 20
-10.525
 30
0.0
 11
-21.195000762939454
 21
-9.825
 31
0.0
  0
LINE
  5
68
330
17
100
AcDbEntity
  8
A-WALL
100
AcDbLine
 10
-22.275000762939452
 20
-9.665
 30
0.0
 11
-22.955000762939452
 21
-9.665
 31
0.0
  0
LINE
  5
69
330
17
100
AcDbEntity
  8
A-WALL
100
AcDbLine
 10
-9.655000762939453
 20
-10.165
 30
0.0
 11
-6.875000762939454
 21
-10.165
 31
0.0
  0
LINE
  5
6A
330
17
100
AcDbEntity
  8
A-WALL
100
AcDbLine
 10
18.464999237060546
 20
14.295000000000002
 30
0.0
 11
18.464999237060546
 21
14.715000000000003
 31
0.0
  0
LINE
  5
6B
330
17
100
AcDbEntity
  8
A-WALL
100
AcDbLine
 10
19.94499923706055
 20
14.335
 30
0.0
 11
19.94499923706055
 21
14.774999999999999
 31
0.0
  0
LINE
  5
6C
330
17
100
AcDbEntity
  8
A-WALL
100
AcDbLine
 10
16.34499923706055
 20
9.715000000000003
 30
0.0
 11
16.34499923706055
 21
10.295000000000002
 31
0.0
  0
LINE
  5
6D
330
17
100
AcDbEntity
  8
A-WALL
100
AcDbLine
 10
18.12499923706055
 20
10.835
 30
0.0
 11
19.204999237060548
 21
10.835
 31
0.0
  0
LINE
  5
6E
330
17
100
AcDbEntity
  8
A-WALL
100
AcDbLine
 10
17.12499923706055
 20
11.575000000000003
 30
0.0
 11
16.62499923706055
 21
11.715000000000003
 31
0.0
  0
LINE
  5
6F
330
17
100
AcDbEntity
  8
A-WALL
100
AcDbLine
 10
16.424999237060547
 20
12.075000000000003
 30
0.0
 11
16.424999237060547
 21
12.915
 31
0.0
  0
LINE
  5
70
330
17
100
AcDbEntity
  8
A-WALL
100
AcDbLine
 10
16.964999237060546
 20
13.295000000000002
 30
0.0
 11
17.90499923706055
 21
13.295000000000002
 31
0.0
  0
LINE
  5
71
330
17
100
AcDbEntity
  8
A-WALL
100
AcDbLine
 10
19.924999237060547
 20
10.535000000000004
 30
0.0
 11
18.884999237060548
 21
10.535000000000004
 31
0.0
  0
LINE
  5
72
330
17
100
AcDbEntity
  8
A-WALL
100
AcDbLine
 10
19.62499923706055
 20
9.715000000000003
 30
0.0
 11
20.34499923706055
 21
9.515
 31
0.0
  0
LINE
  5
73
330
17
100
AcDbEntity
  8
A-WALL
100
AcDbLine
 10
20.66499923706055
 20
9.875
 30
0.0
 11
20.464999237060546
 21
9.275000000000002
 31
0.0
  0
LINE
  5
74
330
17
100
AcDbEntity
  8
A-WALL
100
AcDbLine
 10
20.22499923706055
 20
9.175
 30
0.0
 11
16.84499923706055
 21
9.175
 31
0.0
  0
LINE
  5
75
330
17
100
AcDbEntity
  8
A-WALL
100
AcDbLine
 10
6.824999237060549
 20
6.375
 30
0.0
 11
7.604999237060547
 21
6.375
 31
0.0
  0
LINE
  5
76
330
17
100
AcDbEntity
  8
A-WALL
100
AcDbLine
 10
7.884999237060548
 20
6.395
 30
0.0
 11
9.564999237060547
 21
6.395
 31
0.0
  0
LINE
  5
77
330
17
100
AcDbEntity
  8
A-WALL
100
AcDbLine
 10
10.024999237060548
 20
6.074999999999999
 30
0.0
 11
10.024999237060548
 21
5.015000000000001
 31
0.0
  0
LINE
  5
78
330
17
100
AcDbEntity
  8
A-WALL
100
AcDbLine
 10
9.704999237060548
 20
4.734999999999999
 30
0.0
 11
6.764999237060547
 21
4.734999999999999
 31
0.0
  0
LINE
  5
79
330
17
100
AcDbEntity
  8
A-WALL
100
AcDbLine
 10
-23.075000762939453
 20
8.275000000000002
 30
0.0
 11
-23.075000762939453
 21
8.875
 31
0.0
  0
LINE
  5
7A
330
17
100
AcDbEntity
  8
A-WALL
100
AcDbLine
 10
-22.915000762939453
 20
6.574999999999999
 30
0.0
 11
-22.915000762939453
 21
6.094999999999999
 31
0.0
  0
LINE
  5
7B
330
17
100
AcDbEntity
  8
A-WALL
100
AcDbLine
 10
9.564999237060547
 20
2.115000000000002
 30
0.0
 11
8.864999237060548
 21
2.115000000000002
 31
0.0
  0
LINE
  5
7C
330
17
100
AcDbEntity
  8
A-WALL
100
AcDbLine
 10
8.444999237060546
 20
2.254999999999999
 30
0.0
 11
6.464999237060546
 21
2.254999999999999
 31
0.0
  0
LINE
  5
7D
330
17
100
AcDbEntity
  8
A-WALL
100
AcDbLine
 10
6.324999237060549
 20
2.4750000000000014
 30
0.0
 11
6.324999237060549
 21
3.3150000000000013
 31
0.0
  0
LINE
  5
7E
330
17
100
AcDbEntity
  8
A-WALL
100
AcDbLine
 10
6.324999237060549
 20
3.3150000000000013
 30
0.0
 11
6.464999237060546
 21
3.875
 31
0.0
  0
LINE
  5
7F
330
17
100
AcDbEntity
  8
A-WALL
100
AcDbLine
 10
6.464999237060546
 20
3.9350000000000023
 30
0.0
 11
7.224999237060548
 21
3.9350000000000023
 31
0.0
  0
LINE
  5
80
330
17
100
AcDbEntity
  8
A-WALL
100
AcDbLine
 10
7.284999237060546
 20
3.875
 30
0.0
 11
8.064999237060547
 21
3.875
 31
0.0
  0
LINE
  5
81
330
17
100
AcDbEntity
  8
A-WALL
100
AcDbLine
 10
8.084999237060547
 20
3.7950000000000017
 30
0.0
 11
8.64499923706055
 21
3.7950000000000017
 31
0.0
  0
LINE
  5
82
330
17
100
AcDbEntity
  8
A-WALL
100
AcDbLine
 10
8.884999237060548
 20
3.6950000000000003
 30
0.0
 11
9.664999237060549
 21
3.6950000000000003
 31
0.0
  0
LINE
  5
83
330
17
100
AcDbEntity
  8
A-WALL
100
AcDbLine
 10
9.80499923706055
 20
3.275000000000002
 30
0.0
 11
9.80499923706055
 21
2.375
 31
0.0
  0
LINE
  5
84
330
17
100
AcDbEntity
  8
A-WALL
100
AcDbLine
 10
-22.915000762939453
 20
0.4750000000000014
 30
0.0
 11
-22.915000762939453
 21
-0.384999999999998
 31
0.0
  0
LINE
  5
85
330
17
100
AcDbEntity
  8
A-WALL
100
AcDbLine
 10
5.744999237060547
 20
-0.9849999999999994
 30
0.0
 11
5.744999237060547
 21
4.975000000000001
 31
0.0
  0
LINE
  5
86
330
17
100
AcDbEntity
  8
A-WALL
100
AcDbLine
 10
7.004999237060549
 20
13.415
 30
0.0
 11
4.964999237060546
 21
13.415
 31
0.0
  0
LINE
  5
87
330
17
100
AcDbEntity
  8
A-WALL
100
AcDbLine
 10
10.004999237060545
 20
13.475000000000001
 30
0.0
 11
10.004999237060545
 21
13.015
 31
0.0
  0
LINE
  5
88
330
17
100
AcDbEntity
  8
A-WALL
100
AcDbLine
 10
7.684999237060548
 20
9.315000000000001
 30
0.0
 11
8.524999237060548
 21
9.315000000000001
 31
0.0
  0
LINE
  5
89
330
17
100
AcDbEntity
  8
A-WALL
100
AcDbLine
 10
8.884999237060548
 20
9.195
 30
0.0
 11
10.024999237060548
 21
9.195
 31
0.0
  0
LINE
  5
8A
330
17
100
AcDbEntity
  8
A-WALL
100
AcDbLine
 10
10.144999237060546
 20
9.015
 30
0.0
 11
10.144999237060546
 21
8.475000000000001
 31
0.0
  0
LINE
  5
8B
330
17
100
AcDbEntity
  8
A-WALL
100
AcDbLine
 10
10.12499923706055
 20
8.475000000000001
 30
0.0
 11
10.12499923706055
 21
7.715
 31
0.0
  0
LINE
  5
8C
330
17
100
AcDbEntity
  8
A-WALL
100
AcDbLine
 10
9.924999237060547
 20
7.515000000000001
 30
0.0
 11
8.924999237060547
 21
7.515000000000001
 31
0.0
  0
LINE
  5
8D
330
17
100
AcDbEntity
  8
A-WALL
100
AcDbLine
 10
8.904999237060547
 20
7.594999999999999
 30
0.0
 11
7.684999237060548
 21
7.594999999999999
 31
0.0
  0
LINE
  5
8E
330
17
100
AcDbEntity
  8
A-WALL
100
AcDbLine
 10
7.4449992370605464
 20
7.655000000000001
 30
0.0
 11
6.364999237060548
 21
7.655000000000001
 31
0.0
  0
LINE
  5
8F
330
17
100
AcDbEntity
  8
A-WALL
100
AcDbLine
 10
6.004999237060549
 20
0.5150000000000006
 30
0.0
 11
6.264999237060547
 21
0.875
 31
0.0
  0
LINE
  5
90
330
17
100
AcDbEntity
  8
A-WALL
100
AcDbLine
 10
6.524999237060548
 20
1.0150000000000006
 30
0.0
 11
9.26499923706055
 21
1.0150000000000006
 31
0.0
  0
LINE
  5
91
330
17
100
AcDbEntity
  8
A-WALL
100
AcDbLine
 10
9.26499923706055
 20
0.9750000000000014
 30
0.0
 11
10.204999237060548
 21
0.9750000000000014
 31
0.0
  0
LINE
  5
92
330
17
100
AcDbEntity
  8
A-WALL
100
AcDbLine
 10
10.44499923706055
 20
0.41499999999999915
 30
0.0
 11
10.44499923706055
 21
-0.48499999999999943
 31
0.0
  0
LINE
  5
93
330
17
100
AcDbEntity
  8
A-WALL
100
AcDbLine
 10
9.844999237060549
 20
-1.0449999999999982
 30
0.0
 11
5.924999237060547
 21
-1.0449999999999982
 31
0.0
  0
LINE
  5
94
330
17
100
AcDbEntity
  8
A-WALL
100
AcDbLine
 10
15.824999237060545
 20
-0.7850000000000001
 30
0.0
 11
15.824999237060545
 21
-0.02499999999999858
 31
0.0
  0
LINE
  5
95
330
17
100
AcDbEntity
  8
A-WALL
100
AcDbLine
 10
15.824999237060545
 20
-0.02499999999999858
 30
0.0
 11
15.964999237060546
 21
0.375
 31
0.0
  0
LINE
  5
96
330
17
100
AcDbEntity
  8
A-WALL
100
AcDbLine
 10
16.12499923706055
 20
0.5350000000000001
 30
0.0
 11
17.104999237060547
 21
0.5350000000000001
 31
0.0
  0
LINE
  5
97
330
17
100
AcDbEntity
  8
A-WALL
100
AcDbLine
 10
17.52499923706055
 20
0.5949999999999989
 30
0.0
 11
20.16499923706055
 21
0.5949999999999989
 31
0.0
  0
LINE
  5
98
330
17
100
AcDbEntity
  8
A-WALL
100
AcDbLine
 10
20.564999237060547
 20
0.254999999999999
 30
0.0
 11
20.564999237060547
 21
-1.0249999999999986
 31
0.0
  0
LINE
  5
99
330
17
100
AcDbEntity
  8
A-WALL
100
AcDbLine
 10
20.324999237060545
 20
-1.2650000000000006
 30
0.0
 11
16.464999237060546
 21
-1.2650000000000006
 31
0.0
  0
LINE
  5
9A
330
17
100
AcDbEntity
  8
A-WALL
100
AcDbLine
 10
9.80499923706055
 20
-2.0249999999999986
 30
0.0
 11
10.164999237060549
 21
-1.5249999999999986
 31
0.0
  0
LINE
  5
9B
330
17
100
AcDbEntity
  8
A-WALL
100
AcDbLine
 10
10.464999237060546
 20
-1.4250000000000007
 30
0.0
 11
10.924999237060547
 21
-1.4250000000000007
 31
0.0
  0
LINE
  5
9C
330
17
100
AcDbEntity
  8
A-WALL
100
AcDbLine
 10
11.524999237060548
 20
-1.7249999999999979
 30
0.0
 11
11.524999237060548
 21
-5.024999999999999
 31
0.0
  0
LINE
  5
9D
330
17
100
AcDbEntity
  8
A-WALL
100
AcDbLine
 10
11.12499923706055
 20
-5.384999999999998
 30
0.0
 11
10.324999237060545
 21
-5.384999999999998
 31
0.0
  0
LINE
  5
9E
330
17
100
AcDbEntity
  8
A-WALL
100
AcDbLine
 10
9.704999237060548
 20
-6.524999999999999
 30
0.0
 11
7.464999237060546
 21
-6.524999999999999
 31
0.0
  0
LINE
  5
9F
330
17
100
AcDbEntity
  8
A-WALL
100
AcDbLine
 10
16.064999237060547
 20
-6.024999999999999
 30
0.0
 11
16.064999237060547
 21
-5.524999999999999
 31
0.0
  0
LINE
  5
A0
330
17
100
AcDbEntity
  8
A-WALL
100
AcDbLine
 10
17.84499923706055
 20
-4.984999999999999
 30
0.0
 11
20.02499923706055
 21
-4.984999999999999
 31
0.0
  0
LINE
  5
A1
330
17
100
AcDbEntity
  8
A-WALL
100
AcDbLine
 10
20.244999237060547
 20
-5.384999999999998
 30
0.0
 11
20.244999237060547
 21
-6.285
 31
0.0
  0
LINE
  5
A2
330
17
100
AcDbEntity
  8
A-WALL
100
AcDbLine
 10
19.924999237060547
 20
-6.725
 30
0.0
 11
17.564999237060547
 21
-6.725
 31
0.0
  0
LINE
  5
A3
330
17
100
AcDbEntity
  8
A-WALL
100
AcDbLine
 10
17.48499923706055
 20
-6.625
 30
0.0
 11
16.52499923706055
 21
-6.625
 31
0.0
  0
LINE
  5
A4
330
17
100
AcDbEntity
  8
A-WALL
100
AcDbLine
 10
16.26499923706055
 20
-6.484999999999999
 30
0.0
 11
16.12499923706055
 21
-6.044999999999998
 31
0.0
  0
LINE
  5
A5
330
17
100
AcDbEntity
  8
A-WALL
100
AcDbLine
 10
-22.955000762939452
 20
-7.0649999999999995
 30
0.0
 11
-22.955000762939452
 21
-6.504999999999999
 31
0.0
  0
LINE
  5
A6
330
17
100
AcDbEntity
  8
A-WALL
100
AcDbLine
 10
-22.575000762939453
 20
-5.085000000000001
 30
0.0
 11
-22.575000762939453
 21
-3.6449999999999996
 31
0.0
  0
LINE
  5
A7
330
17
100
AcDbEntity
  8
A-WALL
100
AcDbLine
 10
-16.97500076293945
 20
-1.9050000000000011
 30
0.0
 11
-16.47500076293945
 21
-1.9050000000000011
 31
0.0
  0
LINE
  5
A8
330
17
100
AcDbEntity
  8
A-WALL
100
AcDbLine
 10
-16.47500076293945
 20
1.5949999999999989
 30
0.0
 11
-16.47500076293945
 21
7.355
 31
0.0
  0
LINE
  5
A9
330
17
100
AcDbEntity
  8
A-WALL
100
AcDbLine
 10
-16.695000762939454
 20
7.414999999999999
 30
0.0
 11
-16.695000762939454
 21
8.175
 31
0.0
  0
LINE
  5
AA
330
17
100
AcDbEntity
  8
A-WALL
100
AcDbLine
 10
-16.47500076293945
 20
8.235
 30
0.0
 11
-16.47500076293945
 21
8.795000000000002
 31
0.0
  0
LINE
  5
AB
330
17
100
AcDbEntity
  8
A-WALL
100
AcDbLine
 10
-16.755000762939453
 20
8.935000000000002
 30
0.0
 11
-16.755000762939453
 21
9.395000000000003
 31
0.0
  0
LINE
  5
AC
330
17
100
AcDbEntity
  8
A-WALL
100
AcDbLine
 10
-16.47500076293945
 20
9.735
 30
0.0
 11
-16.47500076293945
 21
10.215000000000003
 31
0.0
  0
LINE
  5
AD
330
17
100
AcDbEntity
  8
A-WALL
100
AcDbLine
 10
-16.555000762939454
 20
10.575000000000003
 30
0.0
 11
-16.555000762939454
 21
13.075000000000003
 31
0.0
  0
LINE
  5
AE
330
17
100
AcDbEntity
  8
A-WALL
100
AcDbLine
 10
-16.51500076293945
 20
13.094999999999999
 30
0.0
 11
-16.51500076293945
 21
13.594999999999999
 31
0.0
  0
LINE
  5
AF
330
17
100
AcDbEntity
  8
A-WALL
100
AcDbLine
 10
-17.075000762939453
 20
13.615000000000002
 30
0.0
 11
-22.575000762939453
 21
13.615000000000002
 31
0.0
  0
LINE
  5
B0
330
17
100
AcDbEntity
  8
A-WALL
100
AcDbLine
 10
-22.635000762939452
 20
13.735
 30
0.0
 11
-22.635000762939452
 21
15.855000000000004
 31
0.0
  0
LINE
  5
B1
330
17
100
AcDbEntity
  8
A-WALL
100
AcDbLine
 10
-22.395000762939453
 20
16.295
 30
0.0
 11
-21.615000762939452
 21
16.295
 31
0.0
  0
LINE
  5
B2
330
17
100
AcDbEntity
  8
A-WALL
100
AcDbLine
 10
-21.575000762939453
 20
16.375
 30
0.0
 11
-17.135000762939452
 21
16.375
 31
0.0
  0
LINE
  5
B3
330
17
100
AcDbEntity
  8
A-WALL
100
AcDbLine
 10
-17.135000762939452
 20
16.215000000000003
 30
0.0
 11
-16.65500076293945
 21
16.215000000000003
 31
0.0
  0
LINE
  5
B4
330
17
100
AcDbEntity
  8
A-WALL
100
AcDbLine
 10
-16.575000762939453
 20
16.455
 30
0.0
 11
-11.235000762939453
 21
16.455
 31
0.0
  0
LINE
  5
B5
330
17
100
AcDbEntity
  8
A-WALL
100
AcDbLine
 10
-10.955000762939452
 20
16.115000000000002
 30
0.0
 11
-10.475000762939453
 21
16.115000000000002
 31
0.0
  0
LINE
  5
B6
330
17
100
AcDbEntity
  8
A-WALL
100
AcDbLine
 10
-10.455000762939452
 20
16.115000000000002
 30
0.0
 11
-10.455000762939452
 21
14.115000000000002
 31
0.0
  0
LINE
  5
B7
330
17
100
AcDbEntity
  8
A-WALL
100
AcDbLine
 10
-10.375000762939452
 20
13.814999999999998
 30
0.0
 11
-9.575000762939453
 21
13.814999999999998
 31
0.0
  0
LINE
  5
B8
330
17
100
AcDbEntity
  8
A-WALL
100
AcDbLine
 10
-9.415000762939453
 20
13.615000000000002
 30
0.0
 11
-8.295000762939452
 21
13.615000000000002
 31
0.0
  0
LINE
  5
B9
330
17
100
AcDbEntity
  8
A-WALL
100
AcDbLine
 10
-8.155000762939453
 20
11.795000000000002
 30
0.0
 11
-8.155000762939453
 21
13.615000000000002
 31
0.0
  0
LINE
  5
BA
330
17
100
AcDbEntity
  8
A-WALL
100
AcDbLine
 10
-8.255000762939453
 20
11.774999999999999
 30
0.0
 11
-9.415000762939453
 21
11.774999999999999
 31
0.0
  0
LINE
  5
BB
330
17
100
AcDbEntity
  8
A-WALL
100
AcDbLine
 10
-9.575000762939453
 20
11.695
 30
0.0
 11
-9.575000762939453
 21
9.875
 31
0.0
  0
LINE
  5
BC
330
17
100
AcDbEntity
  8
A-WALL
100
AcDbLine
 10
-9.635000762939454
 20
9.795000000000002
 30
0.0
 11
-10.215000762939454
 21
9.795000000000002
 31
0.0
  0
LINE
  5
BD
330
17
100
AcDbEntity
  8
A-WALL
100
AcDbLine
 10
-10.355000762939452
 20
2.6350000000000016
 30
0.0
 11
-10.355000762939452
 21
9.555
 31
0.0
  0
LINE
  5
BE
330
17
100
AcDbEntity
  8
A-WALL
100
AcDbLine
 10
-10.155000762939453
 20
2.5749999999999993
 30
0.0
 11
-10.155000762939453
 21
1.3150000000000013
 31
0.0
  0
LINE
  5
BF
330
17
100
AcDbEntity
  8
A-WALL
100
AcDbLine
 10
-10.275000762939452
 20
1.1950000000000003
 30
0.0
 11
-10.275000762939452
 21
-1.3649999999999984
 31
0.0
  0
LINE
  5
C0
330
17
100
AcDbEntity
  8
A-WALL
100
AcDbLine
 10
-10.155000762939453
 20
-1.4050000000000011
 30
0.0
 11
-5.835000762939451
 21
-1.4050000000000011
 31
0.0
  0
LINE
  5
C1
330
17
100
AcDbEntity
  8
A-WALL
100
AcDbLine
 10
-5.855000762939454
 20
-1.384999999999998
 30
0.0
 11
-5.855000762939454
 21
-7.125
 31
0.0
  0
LINE
  5
C2
330
17
100
AcDbEntity
  8
A-WALL
100
AcDbLine
 10
-5.875000762939454
 20
-7.125
 30
0.0
 11
-6.335000762939451
 21
-7.125
 31
0.0
  0
LINE
  5
C3
330
17
100
AcDbEntity
  8
A-WALL
100
AcDbLine
 10
-6.395000762939453
 20
-6.984999999999999
 30
0.0
 11
-15.275000762939452
 21
-6.984999999999999
 31
0.0
  0
LINE
  5
C4
330
17
100
AcDbEntity
  8
A-WALL
100
AcDbLine
 10
-15.295000762939452
 20
-6.824999999999999
 30
0.0
 11
-16.255000762939453
 21
-6.824999999999999
 31
0.0
  0
LINE
  5
C5
330
17
100
AcDbEntity
  8
A-WALL
100
AcDbLine
 10
-16.97500076293945
 20
-4.425000000000001
 30
0.0
 11
-16.97500076293945
 21
-6.425000000000001
 31
0.0
  0
LINE
  5
C6
330
17
100
AcDbEntity
  8
A-WALL
100
AcDbLine
 10
-19.235000762939453
 20
-3.6050000000000004
 30
0.0
 11
-19.47500076293945
 21
-3.125
 31
0.0
  0
LINE
  5
C7
330
17
100
AcDbEntity
  8
A-WALL
100
AcDbLine
 10
-17.235000762939453
 20
-1.7049999999999983
 30
0.0
 11
-17.65500076293945
 21
-1.625
 31
0.0
  0
LINE
  5
C8
330
17
100
AcDbEntity
  8
A-WALL
100
AcDbLine
 10
-21.375000762939454
 20
-1.884999999999998
 30
0.0
 11
-21.795000762939452
 21
-1.884999999999998
 31
0.0
  0
LINE
  5
C9
330
17
100
AcDbEntity
  8
A-WALL
100
AcDbLine
 10
-22.215000762939454
 20
-3.384999999999998
 30
0.0
 11
-21.075000762939453
 21
-3.384999999999998
 31
0.0
  0
LINE
  5
CA
330
17
100
AcDbEntity
  8
A-WALL
100
AcDbLine
 10
-20.775000762939452
 20
-3.384999999999998
 30
0.0
 11
-20.775000762939452
 21
-4.105
 31
0.0
  0
LINE
  5
CB
330
17
100
AcDbEntity
  8
A-WALL
100
AcDbLine
 10
-20.855000762939454
 20
-6.445
 30
0.0
 11
-20.855000762939454
 21
-6.865
 31
0.0
  0
LINE
  5
CC
330
17
100
AcDbEntity
  8
A-WALL
100
AcDbLine
 10
-20.855000762939454
 20
-6.984999999999999
 30
0.0
 11
-22.235000762939453
 21
-6.984999999999999
 31
0.0
  0
LINE
  5
CD
330
17
100
AcDbEntity
  8
A-WALL
100
AcDbLine
 10
-22.295000762939452
 20
-7.1850000000000005
 30
0.0
 11
-22.97500076293945
 21
-7.1850000000000005
 31
0.0
  0
LINE
  5
CE
330
17
100
AcDbEntity
  8
A-WALL
100
AcDbLine
 10
8.064999237060547
 20
16.715000000000003
 30
0.0
 11
8.604999237060547
 21
16.715000000000003
 31
0.0
  0
LINE
  5
CF
330
17
100
AcDbEntity
  8
A-WALL
100
AcDbLine
 10
8.884999237060548
 20
16.735
 30
0.0
 11
9.964999237060546
 21
16.735
 31
0.0
  0
LINE
  5
D0
330
17
100
AcDbEntity
  8
A-WALL
100
AcDbLine
 10
9.98499923706055
 20
16.715000000000003
 30
0.0
 11
11.48499923706055
 21
16.715000000000003
 31
0.0
  0
LINE
  5
D1
330
17
100
AcDbEntity
  8
A-WALL
100
AcDbLine
 10
12.08499923706055
 20
16.575000000000003
 30
0.0
 11
17.30499923706055
 21
16.575000000000003
 31
0.0
  0
LINE
  5
D2
330
17
100
AcDbEntity
  8
A-WALL
100
AcDbLine
 10
21.204999237060548
 20
9.235
 30
0.0
 11
21.204999237060548
 21
9.875
 31
0.0
  0
LINE
  5
D3
330
17
100
AcDbEntity
  8
A-WALL
100
AcDbLine
 10
21.204999237060548
 20
2.715
 30
0.0
 11
21.204999237060548
 21
9.195
 31
0.0
  0
LINE
  5
D4
330
17
100
AcDbEntity
  8
A-WALL
100
AcDbLine
 10
21.12499923706055
 20
-9.785
 30
0.0
 11
20.464999237060546
 21
-9.785
 31
0.0
  0
LINE
  5
D5
330
17
100
AcDbEntity
  8
A-WALL
100
AcDbLine
 10
16.564999237060547
 20
-9.905
 30
0.0
 11
13.524999237060548
 21
-9.905
 31
0.0
  0
LINE
  5
D6
330
17
100
AcDbEntity
  8
A-WALL
100
AcDbLine
 10
12.604999237060547
 20
-9.885
 30
0.0
 11
12.164999237060549
 21
-9.885
 31
0.0
  0
LINE
  5
D7
330
17
100
AcDbEntity
  8
A-WALL
100
AcDbLine
 10
-22.755000762939453
 20
-13.205
 30
0.0
 11
-22.755000762939453
 21
-12.645
 31
0.0
  0
LINE
  5
D8
330
17
100
AcDbEntity
  8
A-WALL
100
AcDbLine
 10
-22.795000762939452
 20
-16.005
 30
0.0
 11
-22.795000762939452
 21
-14.004999999999999
 31
0.0
  0
LINE
  5
D9
330
17
100
AcDbEntity
  8
A-WALL
100
AcDbLine
 10
-22.775000762939452
 20
-16.605
 30
0.0
 11
-22.775000762939452
 21
-17.025
 31
0.0
  0
LINE
  5
DA
330
17
100
AcDbEntity
  8
A-WALL
100
AcDbLine
 10
-22.895000762939453
 20
-20.985
 30
0.0
 11
-22.895000762939453
 21
-21.625
 31
0.0
  0
LINE
  5
DB
330
17
100
AcDbEntity
  8
A-WALL
100
AcDbLine
 10
-9.375000762939452
 20
-22.625
 30
0.0
 11
-10.535000762939452
 21
-22.625
 31
0.0
  0
LINE
  5
DC
330
17
100
AcDbEntity
  8
A-WALL
100
AcDbLine
 10
-10.555000762939454
 20
-22.545
 30
0.0
 11
-12.435000762939453
 21
-22.545
 31
0.0
  0
LINE
  5
DD
330
17
100
AcDbEntity
  8
A-WALL
100
AcDbLine
 10
-12.455000762939452
 20
-22.385
 30
0.0
 11
-14.155000762939453
 21
-22.385
 31
0.0
  0
LINE
  5
DE
330
17
100
AcDbEntity
  8
A-WALL
100
AcDbLine
 10
-14.695000762939452
 20
-22.505
 30
0.0
 11
-15.335000762939453
 21
-22.505
 31
0.0
  0
LINE
  5
DF
330
17
100
AcDbEntity
  8
A-WALL
100
AcDbLine
 10
-15.755000762939453
 20
-21.985
 30
0.0
 11
-17.47500076293945
 21
-21.985
 31
0.0
  0
LINE
  5
E0
330
17
100
AcDbEntity
  8
A-WALL
100
AcDbLine
 10
-17.535000762939454
 20
-21.845
 30
0.0
 11
-19.33500076293945
 21
-21.845
 31
0.0
  0
LINE
  5
E1
330
17
100
AcDbEntity
  8
A-WALL
100
AcDbLine
 10
-19.375000762939454
 20
-21.685
 30
0.0
 11
-19.855000762939454
 21
-21.685
 31
0.0
  0
LINE
  5
E2
330
17
100
AcDbEntity
  8
A-WALL
100
AcDbLine
 10
-19.875000762939454
 20
-21.625
 30
0.0
 11
-20.795000762939452
 21
-21.625
 31
0.0
  0
LINE
  5
E3
330
17
100
AcDbEntity
  8
A-WALL
100
AcDbLine
 10
-22.055000762939454
 20
-21.485
 30
0.0
 11
-22.055000762939454
 21
-20.925
 31
0.0
  0
LINE
  5
E4
330
17
100
AcDbEntity
  8
A-WALL
100
AcDbLine
 10
-22.775000762939452
 20
-19.465
 30
0.0
 11
-15.735000762939453
 21
-19.465
 31
0.0
  0
LINE
  5
E5
330
17
100
AcDbEntity
  8
A-WALL
100
AcDbLine
 10
-22.795000762939452
 20
-17.965
 30
0.0
 11
-22.795000762939452
 21
-18.465
 31
0.0
  0
LINE
  5
E6
330
17
100
AcDbEntity
  8
A-WALL
100
AcDbLine
 10
-15.735000762939453
 20
-17.884999999999998
 30
0.0
 11
-15.735000762939453
 21
-19.465
 31
0.0
  0
LINE
  5
E7
330
17
100
AcDbEntity
  8
A-WALL
100
AcDbLine
 10
-15.895000762939453
 20
-17.845
 30
0.0
 11
-15.895000762939453
 21
-17.105
 31
0.0
  0
LINE
  5
E8
330
17
100
AcDbEntity
  8
A-WALL
100
AcDbLine
 10
-15.755000762939453
 20
-14.825
 30
0.0
 11
-15.755000762939453
 21
-14.405
 31
0.0
  0
LINE
  5
E9
330
17
100
AcDbEntity
  8
A-WALL
100
AcDbLine
 10
-15.755000762939453
 20
-13.465
 30
0.0
 11
-15.755000762939453
 21
-10.685
 31
0.0
  0
LINE
  5
EA
330
17
100
AcDbEntity
  8
A-WALL
100
AcDbLine
 10
-17.97500076293945
 20
-9.725
 30
0.0
 11
-18.895000762939453
 21
-9.725
 31
0.0
  0
LINE
  5
EB
330
17
100
AcDbEntity
  8
A-WALL
100
AcDbLine
 10
-18.875000762939454
 20
-9.725
 30
0.0
 11
-18.875000762939454
 21
-10.725
 31
0.0
  0
LINE
  5
EC
330
17
100
AcDbEntity
  8
A-WALL
100
AcDbLine
 10
-20.395000762939453
 20
-10.605
 30
0.0
 11
-20.875000762939454
 21
-10.605
 31
0.0
  0
LINE
  5
ED
330
17
100
AcDbEntity
  8
A-WALL
100
AcDbLine
 10
-21.135000762939452
 20
-9.865
 30
0.0
 11
-22.275000762939452
 21
-9.865
 31
0.0
  0
LINE
  5
EE
330
17
100
AcDbEntity
  8
A-WALL
100
AcDbLine
 10
-22.895000762939453
 20
-10.385
 30
0.0
 11
-22.895000762939453
 21
-9.705
 31
0.0
  0
LINE
  5
EF
330
17
100
AcDbEntity
  8
A-WALL
100
AcDbLine
 10
-22.795000762939452
 20
-11.685
 30
0.0
 11
-22.795000762939452
 21
-10.504999999999999
 31
0.0
  0
LINE
  5
F0
330
17
100
AcDbEntity
  8
A-WALL
100
AcDbLine
 10
-22.075000762939453
 20
-9.745
 30
0.0
 11
-21.65500076293945
 21
-9.745
 31
0.0
  0
LINE
  5
F1
330
17
100
AcDbEntity
  8
A-WALL
100
AcDbLine
 10
-21.075000762939453
 20
-10.504999999999999
 30
0.0
 11
-20.65500076293945
 21
-10.504999999999999
 31
0.0
  0
LINE
  5
F2
330
17
100
AcDbEntity
  8
A-WALL
100
AcDbLine
 10
-15.755000762939453
 20
-9.545
 30
0.0
 11
-11.635000762939454
 21
-9.545
 31
0.0
  0
LINE
  5
F3
330
17
100
AcDbEntity
  8
A-WALL
100
AcDbLine
 10
-11.415000762939453
 20
-9.905
 30
0.0
 11
-9.895000762939453
 21
-9.905
 31
0.0
  0
LINE
  5
F4
330
17
100
AcDbEntity
  8
A-WALL
100
AcDbLine
 10
-14.335000762939453
 20
-9.605
 30
0.0
 11
-14.335000762939453
 21
-10.305
 31
0.0
  0
LINE
  5
F5
330
17
100
AcDbEntity
  8
A-WALL
100
AcDbLine
 10
-14.275000762939452
 20
-10.625
 30
0.0
 11
-14.275000762939452
 21
-11.605
 31
0.0
  0
LINE
  5
F6
330
17
100
AcDbEntity
  8
A-WALL
100
AcDbLine
 10
-13.855000762939452
 20
-12.504999999999999
 30
0.0
 11
-14.275000762939452
 21
-12.504999999999999
 31
0.0
  0
LINE
  5
F7
330
17
100
AcDbEntity
  8
A-WALL
100
AcDbLine
 10
-14.275000762939452
 20
-12.504999999999999
 30
0.0
 11
-14.275000762939452
 21
-13.205
 31
0.0
  0
LINE
  5
F8
330
17
100
AcDbEntity
  8
A-WALL
100
AcDbLine
 10
-14.275000762939452
 20
-19.345
 30
0.0
 11
-14.275000762939452
 21
-14.125
 31
0.0
  0
LINE
  5
F9
330
17
100
AcDbEntity
  8
A-WALL
100
AcDbLine
 10
-14.275000762939452
 20
-19.384999999999998
 30
0.0
 11
-9.375000762939452
 21
-19.384999999999998
 31
0.0
  0
LINE
  5
FA
330
17
100
AcDbEntity
  8
A-WALL
100
AcDbLine
 10
-8.875000762939452
 20
-19.525
 30
0.0
 11
-8.875000762939452
 21
-20.525
 31
0.0
  0
LINE
  5
FB
330
17
100
AcDbEntity
  8
A-WALL
100
AcDbLine
 10
-8.875000762939452
 20
-20.525
 30
0.0
 11
-9.315000762939453
 21
-20.525
 31
0.0
  0
LINE
  5
FC
330
17
100
AcDbEntity
  8
A-WALL
100
AcDbLine
 10
-8.935000762939453
 20
-21.345
 30
0.0
 11
-8.935000762939453
 21
-22.425
 31
0.0
  0
LINE
  5
FD
330
17
100
AcDbEntity
  8
A-DOOR
100
AcDbLine
 10
20.805
 20
8.025
 30
0.0
 11
20.805
 21
7.125000000000001
 31
0.0
  0
ARC
  5
FE
330
17
100
AcDbEntity
  8
A-DOOR
100
AcDbCircle
 10
20.805
 20
8.025
 30
0.0
 40
0.9
100
AcDbArc
 50
-90.0
 51
0.0
  0
LINE
  5
FF
330
17
100
AcDbEntity
  8
A-DOOR
100
AcDbLine
 10
20.805
 20
6.575
 30
0.0
 11
20.805
 21
5.125
 31
0.0
  0
ARC
  5
100
330
17
100
AcDbEntity
  8
A-DOOR
100
AcDbCircle
 10
20.805
 20
6.575
 30
0.0
 40
1.45
100
AcDbArc
 50
-90.0
 51
0.0
  0
LINE
  5
101
330
17
100
AcDbEntity
  8
A-DOOR
100
AcDbLine
 10
-22.955
 20
7.945
 30
0.0
 11
-22.955
 21
7.095000000000001
 31
0.0
  0
ARC
  5
102
330
17
100
AcDbEntity
  8
A-DOOR
100
AcDbCircle
 10
-22.955
 20
7.945
 30
0.0
 40
0.85
100
AcDbArc
 50
-90.0
 51
0.0
  0
LINE
  5
103
330
17
100
AcDbEntity
  8
A-DOOR
100
AcDbLine
 10
-22.955
 20
5.895
 30
0.0
 11
-22.955
 21
4.795
 31
0.0
  0
ARC
  5
104
330
17
100
AcDbEntity
  8
A-DOOR
100
AcDbCircle
 10
-22.955
 20
5.895
 30
0.0
 40
1.1
100
AcDbArc
 50
-90.0
 51
0.0
  0
LINE
  5
105
330
17
100
AcDbEntity
  8
A-DOOR
100
AcDbLine
 10
-20.615
 20
-4.125
 30
0.0
 11
-20.615
 21
-5.775
 31
0.0
  0
ARC
  5
106
330
17
100
AcDbEntity
  8
A-DOOR
100
AcDbCircle
 10
-20.615
 20
-4.125
 30
0.0
 40
1.65
100
AcDbArc
 50
-90.0
 51
0.0
  0
LINE
  5
107
330
17
100
AcDbEntity
  8
A-DOOR
100
AcDbLine
 10
-15.755
 20
-10.545
 30
0.0
 11
-15.755
 21
-9.594999999999999
 31
0.0
  0
ARC
  5
108
330
17
100
AcDbEntity
  8
A-DOOR
100
AcDbCircle
 10
-15.755
 20
-10.545
 30
0.0
 40
0.95
100
AcDbArc
 50
90.0
 51
180.0
  0
LINE
  5
109
330
17
100
AcDbEntity
  8
A-DOOR
100
AcDbLine
 10
-15.995
 20
-9.945
 30
0.0
 11
-17.394999999999996
 21
-9.945
 31
0.0
  0
ARC
  5
10A
330
17
100
AcDbEntity
  8
A-DOOR
100
AcDbCircle
 10
-15.995
 20
-9.945
 30
0.0
 40
1.4
100
AcDbArc
 50
180.0
 51
270.0
  0
LINE
  5
10B
330
17
100
AcDbEntity
  8
A-DOOR
100
AcDbLine
 10
-8.555
 20
-10.165
 30
0.0
 11
-6.855
 21
-10.165
 31
0.0
  0
ARC
  5
10C
330
17
100
AcDbEntity
  8
A-DOOR
100
AcDbCircle
 10
-8.555
 20
-10.165
 30
0.0
 40
1.7
100
AcDbArc
 50
0.0
 51
90.0
  0
LINE
  5
10D
330
17
100
AcDbEntity
  8
A-DOOR
100
AcDbLine
 10
-16.475
 20
1.595
 30
0.0
 11
-16.475
 21
5.495000000000001
 31
0.0
  0
ARC
  5
10E
330
17
100
AcDbEntity
  8
A-DOOR
100
AcDbCircle
 10
-16.475
 20
1.595
 30
0.0
 40
3.9
100
AcDbArc
 50
90.0
 51
180.0
  0
LINE
  5
10F
330
17
100
AcDbEntity
  8
A-DOOR
100
AcDbLine
 10
-21.025
 20
13.615
 30
0.0
 11
-21.825
 21
13.615
 31
0.0
  0
ARC
  5
110
330
17
100
AcDbEntity
  8
A-DOOR
100
AcDbCircle
 10
-21.025
 20
13.615
 30
0.0
 40
0.8
100
AcDbArc
 50
180.0
 51
270.0
  0
LINE
  5
111
330
17
100
AcDbEntity
  8
A-DOOR
100
AcDbLine
 10
-22.295
 20
16.295
 30
0.0
 11
-21.595000000000002
 21
16.295
 31
0.0
  0
ARC
  5
112
330
17
100
AcDbEntity
  8
A-DOOR
100
AcDbCircle
 10
-22.295
 20
16.295
 30
0.0
 40
0.7
100
AcDbArc
 50
0.0
 51
90.0
  0
LINE
  5
113
330
17
100
AcDbEntity
  8
A-DOOR
100
AcDbLine
 10
-15.275
 20
16.455
 30
0.0
 11
-12.675
 21
16.455
 31
0.0
  0
ARC
  5
114
330
17
100
AcDbEntity
  8
A-DOOR
100
AcDbCircle
 10
-15.275
 20
16.455
 30
0.0
 40
2.6
100
AcDbArc
 50
0.0
 51
90.0
  0
LINE
  5
115
330
17
100
AcDbEntity
  8
A-DOOR
100
AcDbLine
 10
-10.455
 20
16.065
 30
0.0
 11
-10.455
 21
14.115000000000002
 31
0.0
  0
ARC
  5
116
330
17
100
AcDbEntity
  8
A-DOOR
100
AcDbCircle
 10
-10.455
 20
16.065
 30
0.0
 40
1.95
100
AcDbArc
 50
-90.0
 51
0.0
  0
LINE
  5
117
330
17
100
AcDbEntity
  8
A-DOOR
100
AcDbLine
 10
-10.375
 20
13.815
 30
0.0
 11
-9.625000000000002
 21
13.815
 31
0.0
  0
ARC
  5
118
330
17
100
AcDbEntity
  8
A-DOOR
100
AcDbCircle
 10
-10.375
 20
13.815
 30
0.0
 40
0.75
100
AcDbArc
 50
0.0
 51
90.0
  0
LINE
  5
119
330
17
100
AcDbEntity
  8
A-DOOR
100
AcDbLine
 10
-9.415
 20
13.615
 30
0.0
 11
-8.264999999999999
 21
13.615
 31
0.0
  0
ARC
  5
11A
330
17
100
AcDbEntity
  8
A-DOOR
100
AcDbCircle
 10
-9.415
 20
13.615
 30
0.0
 40
1.15
100
AcDbArc
 50
0.0
 51
90.0
  0
LINE
  5
11B
330
17
100
AcDbEntity
  8
A-DOOR
100
AcDbLine
 10
-10.155
 20
2.475
 30
0.0
 11
-10.155
 21
1.3750000000000018
 31
0.0
  0
ARC
  5
11C
330
17
100
AcDbEntity
  8
A-DOOR
100
AcDbCircle
 10
-10.155
 20
2.475
 30
0.0
 40
1.1
100
AcDbArc
 50
-90.0
 51
0.0
  0
LINE
  5
11D
330
17
100
AcDbEntity
  8
A-DOOR
100
AcDbLine
 10
-7.805
 20
-1.405
 30
0.0
 11
-6.954999999999999
 21
-1.405
 31
0.0
  0
ARC
  5
11E
330
17
100
AcDbEntity
  8
A-DOOR
100
AcDbCircle
 10
-7.805
 20
-1.405
 30
0.0
 40
0.85
100
AcDbArc
 50
0.0
 51
90.0
  0
LINE
  5
11F
330
17
100
AcDbEntity
  8
A-DOOR
100
AcDbLine
 10
-6.855
 20
-1.405
 30
0.0
 11
-5.805
 21
-1.405
 31
0.0
  0
ARC
  5
120
330
17
100
AcDbEntity
  8
A-DOOR
100
AcDbCircle
 10
-6.855
 20
-1.405
 30
0.0
 40
1.05
100
AcDbArc
 50
0.0
 51
90.0
  0
LINE
  5
121
330
17
100
AcDbEntity
  8
A-DOOR
100
AcDbLine
 10
-10.195
 20
-6.985
 30
0.0
 11
-11.695
 21
-6.985
 31
0.0
  0
ARC
  5
122
330
17
100
AcDbEntity
  8
A-DOOR
100
AcDbCircle
 10
-10.195
 20
-6.985
 30
0.0
 40
1.5
100
AcDbArc
 50
180.0
 51
270.0
  0
LINE
  5
123
330
17
100
AcDbEntity
  8
A-DOOR
100
AcDbLine
 10
-15.395
 20
-6.825
 30
0.0
 11
-16.195
 21
-6.825
 31
0.0
  0
ARC
  5
124
330
17
100
AcDbEntity
  8
A-DOOR
100
AcDbCircle
 10
-15.395
 20
-6.825
 30
0.0
 40
0.8
100
AcDbArc
 50
180.0
 51
270.0
  0
LINE
  5
125
330
17
100
AcDbEntity
  8
A-DOOR
100
AcDbLine
 10
-16.975
 20
-4.475
 30
0.0
 11
-16.975
 21
-5.925
 31
0.0
  0
ARC
  5
126
330
17
100
AcDbEntity
  8
A-DOOR
100
AcDbCircle
 10
-16.975
 20
-4.475
 30
0.0
 40
1.45
100
AcDbArc
 50
-90.0
 51
0.0
  0
LINE
  5
127
330
17
100
AcDbEntity
  8
A-DOOR
100
AcDbLine
 10
-20.905
 20
-6.985
 30
0.0
 11
-22.155
 21
-6.985
 31
0.0
  0
ARC
  5
128
330
17
100
AcDbEntity
  8
A-DOOR
100
AcDbCircle
 10
-20.905
 20
-6.985
 30
0.0
 40
1.25
100
AcDbArc
 50
180.0
 51
270.0
  0
LINE
  5
129
330
17
100
AcDbEntity
  8
A-DOOR
100
AcDbLine
 10
-22.795
 20
-15.355
 30
0.0
 11
-22.795
 21
-14.155000000000001
 31
0.0
  0
ARC
  5
12A
330
17
100
AcDbEntity
  8
A-DOOR
100
AcDbCircle
 10
-22.795
 20
-15.355
 30
0.0
 40
1.2
100
AcDbArc
 50
90.0
 51
180.0
  0
LINE
  5
12B
330
17
100
AcDbEntity
  8
A-DOOR
100
AcDbLine
 10
-20.625
 20
-19.465
 30
0.0
 11
-18.725
 21
-19.465
 31
0.0
  0
ARC
  5
12C
330
17
100
AcDbEntity
  8
A-DOOR
100
AcDbCircle
 10
-20.625
 20
-19.465
 30
0.0
 40
1.9
100
AcDbArc
 50
0.0
 51
90.0
  0
LINE
  5
12D
330
17
100
AcDbEntity
  8
A-DOOR
100
AcDbLine
 10
-15.735
 20
-18.435
 30
0.0
 11
-15.735
 21
-19.485
 31
0.0
  0
ARC
  5
12E
330
17
100
AcDbEntity
  8
A-DOOR
100
AcDbCircle
 10
-15.735
 20
-18.435
 30
0.0
 40
1.05
100
AcDbArc
 50
-90.0
 51
0.0
  0
LINE
  5
12F
330
17
100
AcDbEntity
  8
A-DOOR
100
AcDbLine
 10
-15.755
 20
-13.465
 30
0.0
 11
-15.755
 21
-11.465
 31
0.0
  0
ARC
  5
130
330
17
100
AcDbEntity
  8
A-DOOR
100
AcDbCircle
 10
-15.755
 20
-13.465
 30
0.0
 40
2.0
100
AcDbArc
 50
90.0
 51
180.0
  0
LINE
  5
131
330
17
100
AcDbEntity
  8
A-DOOR
100
AcDbLine
 10
-15.505
 20
-9.545
 30
0.0
 11
-14.355
 21
-9.545
 31
0.0
  0
ARC
  5
132
330
17
100
AcDbEntity
  8
A-DOOR
100
AcDbCircle
 10
-15.505
 20
-9.545
 30
0.0
 40
1.15
100
AcDbArc
 50
0.0
 51
90.0
  0
LINE
  5
133
330
17
100
AcDbEntity
  8
A-DOOR
100
AcDbLine
 10
-13.705
 20
-9.545
 30
0.0
 11
-12.705
 21
-9.545
 31
0.0
  0
ARC
  5
134
330
17
100
AcDbEntity
  8
A-DOOR
100
AcDbCircle
 10
-13.705
 20
-9.545
 30
0.0
 40
1.0
100
AcDbArc
 50
0.0
 51
90.0
  0
LINE
  5
135
330
17
100
AcDbEntity
  8
A-DOOR
100
AcDbLine
 10
-12.555
 20
-9.545
 30
0.0
 11
-11.705
 21
-9.545
 31
0.0
  0
ARC
  5
136
330
17
100
AcDbEntity
  8
A-DOOR
100
AcDbCircle
 10
-12.555
 20
-9.545
 30
0.0
 40
0.85
100
AcDbArc
 50
0.0
 51
90.0
  0
LINE
  5
137
330
17
100
AcDbEntity
  8
A-DOOR
100
AcDbLine
 10
-11.265
 20
-9.905
 30
0.0
 11
-10.465
 21
-9.905
 31
0.0
  0
ARC
  5
138
330
17
100
AcDbEntity
  8
A-DOOR
100
AcDbCircle
 10
-11.265
 20
-9.905
 30
0.0
 40
0.8
100
AcDbArc
 50
0.0
 51
90.0
  0
LINE
  5
139
330
17
100
AcDbEntity
  8
A-DOOR
100
AcDbLine
 10
-14.275
 20
-12.505
 30
0.0
 11
-14.275
 21
-13.255000000000003
 31
0.0
  0
ARC
  5
13A
330
17
100
AcDbEntity
  8
A-DOOR
100
AcDbCircle
 10
-14.275
 20
-12.505
 30
0.0
 40
0.75
100
AcDbArc
 50
-90.0
 51
0.0
  0
LINE
  5
13B
330
17
100
AcDbEntity
  8
A-DOOR
100
AcDbLine
 10
-14.275
 20
-18.095
 30
0.0
 11
-14.275
 21
-14.094999999999999
 31
0.0
  0
ARC
  5
13C
330
17
100
AcDbEntity
  8
A-DOOR
100
AcDbCircle
 10
-14.275
 20
-18.095
 30
0.0
 40
4.0
100
AcDbArc
 50
90.0
 51
180.0
  0
LINE
  5
13D
330
17
100
AcDbEntity
  8
A-WINDOW
100
AcDbLine
 10
-16.665
 20
-1.7249999999999985
 30
0.0
 11
-16.665
 21
0.6249999999999984
 31
0.0
  0
LINE
  5
13E
330
17
100
AcDbEntity
  8
A-WINDOW
100
AcDbLine
 10
-16.765
 20
-1.7249999999999985
 30
0.0
 11
-16.765
 21
0.6249999999999984
 31
0.0
  0
LINE
  5
13F
330
17
100
AcDbEntity
  8
A-WINDOW
100
AcDbLine
 10
-16.965
 20
-6.655
 30
0.0
 11
-18.165000000000003
 21
-6.655
 31
0.0
  0
LINE
  5
140
330
17
100
AcDbEntity
  8
A-WINDOW
100
AcDbLine
 10
-16.965
 20
-6.755
 30
0.0
 11
-18.165000000000003
 21
-6.755
 31
0.0
  0
LINE
  5
141
330
17
100
AcDbEntity
  8
A-WINDOW
100
AcDbLine
 10
-22.485
 20
-20.625000000000004
 30
0.0
 11
-22.485
 21
-19.825
 31
0.0
  0
LINE
  5
142
330
17
100
AcDbEntity
  8
A-WINDOW
100
AcDbLine
 10
-22.585
 20
-20.625000000000004
 30
0.0
 11
-22.585
 21
-19.825
 31
0.0
  0
LINE
  5
143
330
17
100
AcDbEntity
  8
A-WINDOW
100
AcDbLine
 10
-11.924999999999999
 20
16.404999999999998
 30
0.0
 11
-11.225
 21
16.404999999999998
 31
0.0
  0
LINE
  5
144
330
17
100
AcDbEntity
  8
A-WINDOW
100
AcDbLine
 10
-11.924999999999999
 20
16.505
 30
0.0
 11
-11.225
 21
16.505
 31
0.0
  0
LINE
  5
145
330
17
100
AcDbEntity
  8
A-WINDOW
100
AcDbLine
 10
-8.305
 20
11.825000000000001
 30
0.0
 11
-9.105
 21
11.825000000000001
 31
0.0
  0
LINE
  5
146
330
17
100
AcDbEntity
  8
A-WINDOW
100
AcDbLine
 10
-8.305
 20
11.725
 30
0.0
 11
-9.105
 21
11.725
 31
0.0
  0
LINE
  5
147
330
17
100
AcDbEntity
  8
A-WINDOW
100
AcDbLine
 10
-9.635
 20
9.845
 30
0.0
 11
-10.235000000000001
 21
9.845
 31
0.0
  0
LINE
  5
148
330
17
100
AcDbEntity
  8
A-WINDOW
100
AcDbLine
 10
-9.635
 20
9.745
 30
0.0
 11
-10.235000000000001
 21
9.745
 31
0.0
  0
LINE
  5
149
330
17
100
AcDbEntity
  8
A-WINDOW
100
AcDbLine
 10
-10.305
 20
2.6350000000000002
 30
0.0
 11
-10.305
 21
4.484999999999999
 31
0.0
  0
LINE
  5
14A
330
17
100
AcDbEntity
  8
A-WINDOW
100
AcDbLine
 10
-10.405000000000001
 20
2.6350000000000002
 30
0.0
 11
-10.405000000000001
 21
4.484999999999999
 31
0.0
  0
LINE
  5
14B
330
17
100
AcDbEntity
  8
A-WINDOW
100
AcDbLine
 10
-10.305
 20
5.985
 30
0.0
 11
-10.305
 21
8.435
 31
0.0
  0
LINE
  5
14C
330
17
100
AcDbEntity
  8
A-WINDOW
100
AcDbLine
 10
-10.405000000000001
 20
5.985
 30
0.0
 11
-10.405000000000001
 21
8.435
 31
0.0
  0
LINE
  5
14D
330
17
100
AcDbEntity
  8
A-WINDOW
100
AcDbLine
 10
-10.325000000000001
 20
1.1449999999999996
 30
0.0
 11
-10.325000000000001
 21
-0.30499999999999955
 31
0.0
  0
LINE
  5
14E
330
17
100
AcDbEntity
  8
A-WINDOW
100
AcDbLine
 10
-10.225
 20
1.1449999999999996
 30
0.0
 11
-10.225
 21
-0.30499999999999955
 31
0.0
  0
LINE
  5
14F
330
17
100
AcDbEntity
  8
A-WINDOW
100
AcDbLine
 10
-10.325000000000001
 20
-0.8050000000000002
 30
0.0
 11
-10.325000000000001
 21
-1.4049999999999998
 31
0.0
  0
LINE
  5
150
330
17
100
AcDbEntity
  8
A-WINDOW
100
AcDbLine
 10
-10.225
 20
-0.8050000000000002
 30
0.0
 11
-10.225
 21
-1.4049999999999998
 31
0.0
  0
LINE
  5
151
330
17
100
AcDbEntity
  8
A-WINDOW
100
AcDbLine
 10
-5.905
 20
-4.385
 30
0.0
 11
-5.905
 21
-6.984999999999999
 31
0.0
  0
LINE
  5
152
330
17
100
AcDbEntity
  8
A-WINDOW
100
AcDbLine
 10
-5.805000000000001
 20
-4.385
 30
0.0
 11
-5.805000000000001
 21
-6.984999999999999
 31
0.0
  0
LINE
  5
153
330
17
100
AcDbEntity
  8
A-WINDOW
100
AcDbLine
 10
-12.895
 20
-6.9350000000000005
 30
0.0
 11
-15.195
 21
-6.9350000000000005
 31
0.0
  0
LINE
  5
154
330
17
100
AcDbEntity
  8
A-WINDOW
100
AcDbLine
 10
-12.895
 20
-7.035
 30
0.0
 11
-15.195
 21
-7.035
 31
0.0
  0
LWPOLYLINE
  5
155
330
17
100
AcDbEntity
  8
A-ROOM
100
AcDbPolyline
 90
4
 70
1
 10
-22.395
 20
-6.765
 10
-6.075
 20
-6.765
 10
-6.075
 20
16.215
 10
-22.395
 20
16.215
  0
TEXT
  5
156
330
17
100
AcDbEntity
  8
A-TEXT
100
AcDbText
 10
-13.2614
 20
4.2652
 30
0.0
 40
0.25
  1
R1  175.8 m²
 72
1
 11
-13.2614
 21
4.2652
 31
0.0
100
AcDbText
 73
2
  0
LWPOLYLINE
  5
157
330
17
100
AcDbEntity
  8
A-ROOM
100
AcDbPolyline
 90
4
 70
1
 10
-22.555
 20
-19.245
 10
-15.835
 20
-19.245
 10
-15.835
 20
-9.965
 10
-22.555
 20
-9.965
  0
TEXT
  5
158
330
17
100
AcDbEntity
  8
A-TEXT
100
AcDbText
 10
-19.2389
 20
-14.854
 30
0.0
 40
0.25
  1
R2  56.8 m²
 72
1
 11
-19.2389
 21
-14.854
 31
0.0
100
AcDbText
 73
2
  0
LWPOLYLINE
  5
159
330
17
100
AcDbEntity
  8
A-ROOM
100
AcDbPolyline
 90
4
 70
1
 10
-22.295
 20
-22.405
 10
-9.095
 20
-22.405
 10
-9.095
 20
-19.625
 10
-22.295
 20
-19.625
  0
TEXT
  5
15A
330
17
100
AcDbEntity
  8
A-TEXT
100
AcDbText
 10
-14.8413
 20
-20.7925
 30
0.0
 40
0.25
  1
R3  27.1 m²
 72
1
 11
-14.8413
 21
-20.7925
 31
0.0
100
AcDbText
 73
2
  0
LWPOLYLINE
  5
15B
330
17
100
AcDbEntity
  8
A-ROOM
100
AcDbPolyline
 90
4
 70
1
 10
-22.375
 20
-6.485
 10
-17.195
 20
-6.485
 10
-17.195
 20
-2.045
 10
-22.375
 20
-2.045
  0
TEXT
  5
15C
330
17
100
AcDbEntity
  8
A-TEXT
100
AcDbText
 10
-19.407
 20
-4.5046
 30
0.0
 40
0.25
  1
R4  10.8 m²
 72
1
 11
-19.407
 21
-4.5046
 31
0.0
100
AcDbText
 73
2
  0
LWPOLYLINE
  5
15D
330
17
100
AcDbEntity
  8
A-ROOM
100
AcDbPolyline
 90
4
 70
1
 10
-15.515
 20
-19.245
 10
-14.495
 20
-19.245
 10
-14.495
 20
-9.785
 10
-15.515
 20
-9.785
  0
TEXT
  5
15E
330
17
100
AcDbEntity
  8
A-TEXT
100
AcDbText
 10
-14.9994
 20
-14.5047
 30
0.0
 40
0.25
  1
R5  8.9 m²
 72
1
 11
-14.9994
 21
-14.5047
 31
0.0
100
AcDbText
 73
2
  0
LWPOLYLINE
  5
15F
330
17
100
AcDbEntity
  8
A-ROOM
100
AcDbPolyline
 90
4
 70
1
 10
17.045
 20
13.555
 10
20.885
 20
13.555
 10
20.885
 20
16.295
 10
17.045
 20
16.295
  0
TEXT
  5
160
330
17
100
AcDbEntity
  8
A-TEXT
100
AcDbText
 10
19.0982
 20
15.3456
 30
0.0
 40
0.25
  1
R6  6.6 m²
 72
1
 11
19.0982
 21
15.3456
 31
0.0
100
AcDbText
 73
2
  0
LWPOLYLINE
  5
161
330
17
100
AcDbEntity
  8
A-ROOM
100
AcDbPolyline
 90
4
 70
1
 10
5.985
 20
-0.825
 10
10.225
 20
-0.825
 10
10.225
 20
0.775
 10
5.985
 20
0.775
  0
TEXT
  5
162
330
17
100
AcDbEntity
  8
A-TEXT
100
AcDbText
 10
8.1643
 20
-0.0389
 30
0.0
 40
0.25
  1
R7  6.5 m²
 72
1
 11
8.1643
 21
-0.0389
 31
0.0
100
AcDbText
 73
2
  0
LWPOLYLINE
  5
163
330
17
100
AcDbEntity
  8
A-ROOM
100
AcDbPolyline
 90
4
 70
1
 10
16.065
 20
-1.045
 10
20.345
 20
-1.045
 10
20.345
 20
0.355
 10
16.065
 20
0.355
  0
TEXT
  5
164
330
17
100
AcDbEntity
  8
A-TEXT
100
AcDbText
 10
18.2257
 20
-0.3479
 30
0.0
 40
0.25
  1
R8  5.9 m²
 72
1
 11
18.2257
 21
-0.3479
 31
0.0
100
AcDbText
 73
2
  0
LWPOLYLINE
  5
165
330
17
100
AcDbEntity
  8
A-ROOM
100
AcDbPolyline
 90
4
 70
1
 10
6.005
 20
7.795
 10
9.905
 20
7.795
 10
9.905
 20
9.915
 10
6.005
 20
9.915
  0
TEXT
  5
166
330
17
100
AcDbEntity
  8
A-TEXT
100
AcDbText
 10
7.7449
 20
8.6013
 30
0.0
 40
0.25
  1
R9  5.4 m²
 72
1
 11
7.7449
 21
8.6013
 31
0.0
100
AcDbText
 73
2
  0
LWPOLYLINE
  5
167
330
17
100
AcDbEntity
  8
A-ROOM
100
AcDbPolyline
 90
4
 70
1
 10
16.305
 20
-6.505
 10
20.025
 20
-6.505
 10
20.025
 20
-4.945
 10
16.305
 20
-4.945
  0
TEXT
  5
168
330
17
100
AcDbEntity
  8
A-TEXT
100
AcDbText
 10
18.1339
 20
-5.7876
 30
0.0
 40
0.25
  1
R10  4.8 m²
 72
1
 11
18.1339
 21
-5.7876
 31
0.0
100
AcDbText
 73
2
  0
LWPOLYLINE
  5
169
330
17
100
AcDbEntity
  8
A-ROOM
100
AcDbPolyline
 90
4
 70
1
 10
-22.715
 20
-6.765
 10
-20.835
 20
-6.765
 10
-20.835
 20
-3.625
 10
-22.715
 20
-3.625
  0
TEXT
  5
16A
330
17
100
AcDbEntity
  8
A-TEXT
100
AcDbText
 10
-21.7275
 20
-5.2587
 30
0.0
 40
0.25
  1
R11  4.7 m²
 72
1
 11
-21.7275
 21
-5.2587
 31
0.0
100
AcDbText
 73
2
  0
LWPOLYLINE
  5
16B
330
17
100
AcDbEntity
  8
A-ROOM
100
AcDbPolyline
 90
4
 70
1
 10
9.965
 20
-5.165
 10
11.305
 20
-5.165
 10
11.305
 20
-1.665
 10
9.965
 20
-1.665
  0
TEXT
  5
16C
330
17
100
AcDbEntity
  8
A-TEXT
100
AcDbText
 10
10.6651
 20
-3.5174
 30
0.0
 40
0.25
  1
R12  4.3 m²
 72
1
 11
10.6651
 21
-3.5174
 31
0.0
100
AcDbText
 73
2
  0
LWPOLYLINE
  5
16D
330
17
100
AcDbEntity
  8
A-ROOM
100
AcDbPolyline
 90
4
 70
1
 10
6.245
 20
4.955
 10
9.805
 20
4.955
 10
9.805
 20
6.155
 10
6.245
 20
6.155
  0
TEXT
  5
16E
330
17
100
AcDbEntity
  8
A-TEXT
100
AcDbText
 10
8.0225
 20
5.5599
 30
0.0
 40
0.25
  1
R13  4.2 m²
 72
1
 11
8.0225
 21
5.5599
 31
0.0
100
AcDbText
 73
2
  0
LWPOLYLINE
  5
16F
330
17
100
AcDbEntity
  8
A-ROOM
100
AcDbPolyline
 90
4
 70
1
 10
16.665
 20
11.875
 10
20.145
 20
11.875
 10
20.145
 20
13.095
 10
16.665
 20
13.095
  0
TEXT
  5
170
330
17
100
AcDbEntity
  8
A-TEXT
100
AcDbText
 10
18.4122
 20
12.4861
 30
0.0
 40
0.25
  1
R14  4.2 m²
 72
1
 11
18.4122
 21
12.4861
 31
0.0
100
AcDbText
 73
2
  0
LWPOLYLINE
  5
171
330
17
100
AcDbEntity
  8
A-ROOM
100
AcDbPolyline
 90
4
 70
1
 10
6.565
 20
2.335
 10
9.585
 20
2.335
 10
9.585
 20
3.635
 10
6.565
 20
3.635
  0
TEXT
  5
172
330
17
100
AcDbEntity
  8
A-TEXT
100
AcDbText
 10
8.0435
 20
3.0036
 30
0.0
 40
0.25
  1
R15  3.3 m²
 72
1
 11
8.0435
 21
3.0036
 31
0.0
100
AcDbText
 73
2
  0
LWPOLYLINE
  5
173
330
17
100
AcDbEntity
  8
A-ROOM
100
AcDbPolyline
 90
4
 70
1
 10
16.585
 20
9.395
 10
18.985
 20
9.395
 10
18.985
 20
10.795
 10
16.585
 20
10.795
  0
TEXT
  5
174
330
17
100
AcDbEntity
  8
A-TEXT
100
AcDbText
 10
17.6641
 20
10.0175
 30
0.0
 40
0.25
  1
R16  2.9 m²
 72
1
 11
17.6641
 21
10.0175
 31
0.0
100
AcDbText
 73
2
  0
LWPOLYLINE
  5
175
330
17
100
AcDbEntity
  8
A-ROOM
100
AcDbPolyline
 90
4
 70
1
 10
6.545
 20
1.235
 10
9.725
 20
1.235
 10
9.725
 20
2.015
 10
6.545
 20
2.015
  0
TEXT
  5
176
330
17
100
AcDbEntity
  8
A-TEXT
100
AcDbText
 10
8.0606
 20
1.6098
 30
0.0
 40
0.25
  1
R17  2.2 m²
 72
1
 11
8.0606
 21
1.6098
 31
0.0
100
AcDbText
 73
2
  0
LWPOLYLINE
  5
177
330
17
100
AcDbEntity
  8
A-ROOM
100
AcDbPolyline
 90
4
 70
1
 10
-23.555
 20
-6.965
 10
-22.795
 20
-6.965
 10
-22.795
 20
-3.545
 10
-23.555
 20
-3.545
  0
TEXT
  5
178
330
17
100
AcDbEntity
  8
A-TEXT
100
AcDbText
 10
-23.2215
 20
-5.0259
 30
0.0
 40
0.25
  1
R18  2.2 m²
 72
1
 11
-23.2215
 21
-5.0259
 31
0.0
100
AcDbText
 73
2
  0
TEXT
  5
179
330
17
100
AcDbEntity
  8
A-TEXT
100
AcDbText
 10
-23.075000762939453
 20
-24.625
 30
0.0
 40
0.4
  1
Floor 1  —  200 walls  ·  32 doors  ·  12 windows
 11
-23.075000762939453
 21
-24.625
 31
0.0
100
AcDbText
  0
ENDSEC
  0
SECTION
  2
OBJECTS
  0
DICTIONARY
  5
A
330
0
100
AcDbDictionary
281
1
  3
ACAD_COLOR
350
B
  3
ACAD_GROUP
350
C
  3
ACAD_LAYOUT
350
D
  3
ACAD_MATERIAL
350
E
  3
ACAD_MLEADERSTYLE
350
F
  3
ACAD_MLINESTYLE
350
10
  3
ACAD_PLOTSETTINGS
350
11
  3
ACAD_PLOTSTYLENAME
350
12
  3
ACAD_SCALELIST
350
14
  3
ACAD_TABLESTYLE
350
15
  3
ACAD_VISUALSTYLE
350
16
  3
EZDXF_META
350
2D
  0
DICTIONARY
  5
B
330
A
100
AcDbDictionary
281
1
  0
DICTIONARY
  5
C
330
A
100
AcDbDictionary
281
1
  0
DICTIONARY
  5
D
330
A
100
AcDbDictionary
281
1
  3
Model
350
1A
  3
Layout1
350
1E
  0
DICTIONARY
  5
E
330
A
100
AcDbDictionary
281
1
  3
ByBlock
350
1F
  3
ByLayer
350
20
  3
Global
350
21
  0
DICTIONARY
  5
F
330
A
100
AcDbDictionary
281
1
  3
Standard
350
2C
  0
DICTIONARY
  5
10
330
A
100
AcDbDictionary
281
1
  3
Standard
350
22
  0
DICTIONARY
  5
11
330
A
100
AcDbDictionary
281
1
  0
ACDBDICTIONARYWDFLT
  5
12
330
A
100
AcDbDictionary
281
1
  3
Normal
350
13
100
AcDbDictionaryWithDefault
340
13
  0
ACDBPLACEHOLDER
  5
13
330
12
  0
DICTIONARY
  5
14
330
A
100
AcDbDictionary
281
1
  0
DICTIONARY
  5
15
330
A
100
AcDbDictionary
281
1
  0
DICTIONARY
  5
16
330
A
100
AcDbDictionary
281
1
  0
LAYOUT
  5
1A
330
D
100
AcDbPlotSettings
  1

  4
A3
  6

 40
7.5
 41
20.0
 42
7.5
 43
20.0
 44
420.0
 45
297.0
 46
0.0
 47
0.0
 48
0.0
 49
0.0
140
0.0
141
0.0
142
1.0
143
1.0
 70
1024
 72
1
 73
0
 74
5
  7

 75
16
 76
0
 77
2
 78
300
147
1.0
148
0.0
149
0.0
100
AcDbLayout
  1
Model
 70
1
 71
0
 10
0.0
 20
0.0
 11
420.0
 21
297.0
 12
0.0
 22
0.0
 32
0.0
 14
1e+20
 24
1e+20
 34
1e+20
 15
-1e+20
 25
-1e+20
 35
-1e+20
146
0.0
 13
0.0
 23
0.0
 33
0.0
 16
1.0
 26
0.0
 36
0.0
 17
0.0
 27
1.0
 37
0.0
 76
1
330
17
  0
LAYOUT
  5
1E
330
D
100
AcDbPlotSettings
  1

  4
A3
  6

 40
7.5
 41
20.0
 42
7.5
 43
20.0
 44
420.0
 45
297.0
 46
0.0
 47
0.0
 48
0.0
 49
0.0
140
0.0
141
0.0
142
1.0
143
1.0
 70
0
 72
1
 73
0
 74
5
  7

 75
16
 76
0
 77
2
 78
300
147
1.0
148
0.0
149
0.0
100
AcDbLayout
  1
Layout1
 70
1
 71
1
 10
0.0
 20
0.0
 11
420.0
 21
297.0
 12
0.0
 22
0.0
 32
0.0
 14
1e+20
 24
1e+20
 34
1e+20
 15
-1e+20
 25
-1e+20
 35
-1e+20
146
0.0
 13
0.0
 23
0.0
 33
0.0
 16
1.0
 26
0.0
 36
0.0
 17
0.0
 27
1.0
 37
0.0
 76
1
330
1B
  0
MATERIAL
  5
1F
102
{ACAD_REACTORS
330
E
102
}
330
E
100
AcDbMaterial
  1
ByBlock
  2

 70
0
 40
1.0
 71
1
 41
1.0
 91
-1023410177
 42
1.0
 72
1
  3

 73
1
 74
1
 75
1
 44
0.5
 73
0
 45
1.0
 46
1.0
 77
1
  4

 78
1
 79
1
170
1
 48
1.0
171
1
  6

172
1
173
1
174
1
140
1.0
141
1.0
175
1
  7

176
1
177
1
178
1
143
1.0
179
1
  8

270
1
271
1
272
1
145
1.0
146
1.0
273
1
  9

274
1
275
1
276
1
 42
1.0
 72
1
  3

 73
1
 74
1
 75
1
 94
63
  0
MATERIAL
  5
20
102
{ACAD_REACTORS
330
E
102
}
330
E
100
AcDbMaterial
  1
ByLayer
  2

 70
0
 40
1.0
 71
1
 41
1.0
 91
-1023410177
 42
1.0
 72
1
  3

 73
1
 74
1
 75
1
 44
0.5
 73
0
 45
1.0
 46
1.0
 77
1
  4

 78
1
 79
1
170
1
 48
1.0
171
1
  6

172
1
173
1
174
1
140
1.0
141
1.0
175
1
  7

176
1
177
1
178
1
143
1.0
179
1
  8

270
1
271
1
272
1
145
1.0
146
1.0
273
1
  9

274
1
275
1
276
1
 42
1.0
 72
1
  3

 73
1
 74
1
 75
1
 94
63
  0
MATERIAL
  5
21
102
{ACAD_REACTORS
330
E
102
}
330
E
100
AcDbMaterial
  1
Global
  2

 70
0
 40
1.0
 71
1
 41
1.0
 91
-1023410177
 42
1.0
 72
1
  3

 73
1
 74
1
 75
1
 44
0.5
 73
0
 45
1.0
 46
1.0
 77
1
  4

 78
1
 79
1
170
1
 48
1.0
171
1
  6

172
1
173
1
174
1
140
1.0
141
1.0
175
1
  7

176
1
177
1
178
1
143
1.0
179
1
  8

270
1
271
1
272
1
145
1.0
146
1.0
273
1
  9

274
1
275
1
276
1
 42
1.0
 72
1
  3

 73
1
 74
1
 75
1
 94
63
  0
MLINESTYLE
  5
22
102
{ACAD_REACTORS
330
10
102
}
330
10
100
AcDbMlineStyle
  2
Standard
 70
0
  3

 62
256
 51
90.0
 52
90.0
 71
2
 49
0.5
 62
256
  6
BYLAYER
 49
-0.5
 62
256
  6
BYLAYER
  0
MLEADERSTYLE
  5
2C
102
{ACAD_REACTORS
330
F
102
}
330
F
100
AcDbMLeaderStyle
179
2
170
2
171
1
172
0
 90
2
 40
0.0
 41
0.0
173
1
 91
-1056964608
 92
-2
290
1
 42
2.0
291
1
 43
8.0
  3
Standard
 44
4.0
300

342
29
174
1
175
1
176
0
178
1
 93
-1056964608
 45
4.0
292
0
297
0
 46
4.0
 94
-1056964608
 47
1.0
 49
1.0
140
1.0
294
1
141
0.0
177
0
142
1.0
295
0
296
0
143
3.75
271
0
272
9
273
9
  0
DICTIONARY
  5
2D
330
A
100
AcDbDictionary
280
1
281
1
  3
CREATED_BY_EZDXF
350
2E
  3
WRITTEN_BY_EZDXF
350
17C
  0
DICTIONARYVAR
  5
2E
330
2D
100
DictionaryVariables
280
0
  1
1.4.3 @ 2026-04-13T10:09:45.618911+00:00
  0
DICTIONARYVAR
  5
17C
330
2D
100
DictionaryVariables
280
0
  1
1.4.3 @ 2026-04-13T10:09:45.622628+00:00
  0
ENDSEC
  0
EOF
