  0
SECTION
  2
HEADER
  9
$ACADVER
  1
AC1024
  9
$ACADMAINTVER
 70
6
  9
$DWGCODEPAGE
  3
ANSI_1252
  9
$LASTSAVEDBY
  1
ezdxf
  9
$INSBASE
 10
0.0
 20
0.0
 30
0.0
  9
$EXTMIN
 10
1e+20
 20
1e+20
 30
1e+20
  9
$EXTMAX
 10
-1e+20
 20
-1e+20
 30
-1e+20
  9
$LIMMIN
 10
0.0
 20
0.0
  9
$LIMMAX
 10
420.0
 20
297.0
  9
$ORTHOMODE
 70
0
  9
$REGENMODE
 70
1
  9
$FILLMODE
 70
1
  9
$QTEXTMODE
 70
0
  9
$MIRRTEXT
 70
1
  9
$LTSCALE
 40
1.0
  9
$ATTMODE
 70
1
  9
$TEXTSIZE
 40
2.5
  9
$TRACEWID
 40
1.0
  9
$TEXTSTYLE
  7
Standard
  9
$CLAYER
  8
0
  9
$CELTYPE
  6
ByLayer
  9
$CECOLOR
 62
256
  9
$CELTSCALE
 40
1.0
  9
$DISPSILH
 70
0
  9
$DIMSCALE
 40
1.0
  9
$DIMASZ
 40
2.5
  9
$DIMEXO
 40
0.625
  9
$DIMDLI
 40
3.75
  9
$DIMRND
 40
0.0
  9
$DIMDLE
 40
0.0
  9
$DIMEXE
 40
1.25
  9
$DIMTP
 40
0.0
  9
$DIMTM
 40
0.0
  9
$DIMTXT
 40
2.5
  9
$DIMCEN
 40
2.5
  9
$DIMTSZ
 40
0.0
  9
$DIMTOL
 70
0
  9
$DIMLIM
 70
0
  9
$DIMTIH
 70
0
  9
$DIMTOH
 70
0
  9
$DIMSE1
 70
0
  9
$DIMSE2
 70
0
  9
$DIMTAD
 70
1
  9
$DIMZIN
 70
8
  9
$DIMBLK
  1

  9
$DIMASO
 70
1
  9
$DIMSHO
 70
1
  9
$DIMPOST
  1

  9
$DIMAPOST
  1

  9
$DIMALT
 70
0
  9
$DIMALTD
 70
3
  9
$DIMALTF
 40
0.03937007874
  9
$DIMLFAC
 40
1.0
  9
$DIMTOFL
 70
1
  9
$DIMTVP
 40
0.0
  9
$DIMTIX
 70
0
  9
$DIMSOXD
 70
0
  9
$DIMSAH
 70
0
  9
$DIMBLK1
  1

  9
$DIMBLK2
  1

  9
$DIMSTYLE
  2
ISO-25
  9
$DIMCLRD
 70
0
  9
$DIMCLRE
 70
0
  9
$DIMCLRT
 70
0
  9
$DIMTFAC
 40
1.0
  9
$DIMGAP
 40
0.625
  9
$DIMJUST
 70
0
  9
$DIMSD1
 70
0
  9
$DIMSD2
 70
0
  9
$DIMTOLJ
 70
0
  9
$DIMTZIN
 70
8
  9
$DIMALTZ
 70
0
  9
$DIMALTTZ
 70
0
  9
$DIMUPT
 70
0
  9
$DIMDEC
 70
2
  9
$DIMTDEC
 70
2
  9
$DIMALTU
 70
2
  9
$DIMALTTD
 70
3
  9
$DIMTXSTY
  7
Standard
  9
$DIMAUNIT
 70
0
  9
$DIMADEC
 70
0
  9
$DIMALTRND
 40
0.0
  9
$DIMAZIN
 70
0
  9
$DIMDSEP
 70
44
  9
$DIMATFIT
 70
3
  9
$DIMFRAC
 70
0
  9
$DIMLDRBLK
  1

  9
$DIMLUNIT
 70
2
  9
$DIMLWD
 70
-2
  9
$DIMLWE
 70
-2
  9
$DIMTMOVE
 70
0
  9
$DIMFXL
 40
1.0
  9
$DIMFXLON
 70
0
  9
$DIMJOGANG
 40
0.785398163397
  9
$DIMTFILL
 70
0
  9
$DIMTFILLCLR
 70
0
  9
$DIMARCSYM
 70
0
  9
$DIMLTYPE
  6

  9
$DIMLTEX1
  6

  9
$DIMLTEX2
  6

  9
$DIMTXTDIRECTION
 70
0
  9
$LUNITS
 70
2
  9
$LUPREC
 70
4
  9
$SKETCHINC
 40
1.0
  9
$FILLETRAD
 40
10.0
  9
$AUNITS
 70
0
  9
$AUPREC
 70
2
  9
$MENU
  1
.
  9
$ELEVATION
 40
0.0
  9
$PELEVATION
 40
0.0
  9
$THICKNESS
 40
0.0
  9
$LIMCHECK
 70
0
  9
$CHAMFERA
 40
0.0
  9
$CHAMFERB
 40
0.0
  9
$CHAMFERC
 40
0.0
  9
$CHAMFERD
 40
0.0
  9
$SKPOLY
 70
0
  9
$TDCREATE
 40
2461141.6327083334
  9
$TDUCREATE
 40
2458532.153996898
  9
$TDUPDATE
 40
2461141.6327083334
  9
$TDUUPDATE
 40
2458532.1544311
  9
$TDINDWG
 40
0.0
  9
$TDUSRTIMER
 40
0.0
  9
$USRTIMER
 70
1
  9
$ANGBASE
 50
0.0
  9
$ANGDIR
 70
0
  9
$PDMODE
 70
0
  9
$PDSIZE
 40
0.0
  9
$PLINEWID
 40
0.0
  9
$SPLFRAME
 70
0
  9
$SPLINETYPE
 70
6
  9
$SPLINESEGS
 70
8
  9
$HANDSEED
  5
2B1
  9
$SURFTAB1
 70
6
  9
$SURFTAB2
 70
6
  9
$SURFTYPE
 70
6
  9
$SURFU
 70
6
  9
$SURFV
 70
6
  9
$UCSBASE
  2

  9
$UCSNAME
  2

  9
$UCSORG
 10
0.0
 20
0.0
 30
0.0
  9
$UCSXDIR
 10
1.0
 20
0.0
 30
0.0
  9
$UCSYDIR
 10
0.0
 20
1.0
 30
0.0
  9
$UCSORTHOREF
  2

  9
$UCSORTHOVIEW
 70
0
  9
$UCSORGTOP
 10
0.0
 20
0.0
 30
0.0
  9
$UCSORGBOTTOM
 10
0.0
 20
0.0
 30
0.0
  9
$UCSORGLEFT
 10
0.0
 20
0.0
 30
0.0
  9
$UCSORGRIGHT
 10
0.0
 20
0.0
 30
0.0
  9
$UCSORGFRONT
 10
0.0
 20
0.0
 30
0.0
  9
$UCSORGBACK
 10
0.0
 20
0.0
 30
0.0
  9
$PUCSBASE
  2

  9
$PUCSNAME
  2

  9
$PUCSORG
 10
0.0
 20
0.0
 30
0.0
  9
$PUCSXDIR
 10
1.0
 20
0.0
 30
0.0
  9
$PUCSYDIR
 10
0.0
 20
1.0
 30
0.0
  9
$PUCSORTHOREF
  2

  9
$PUCSORTHOVIEW
 70
0
  9
$PUCSORGTOP
 10
0.0
 20
0.0
 30
0.0
  9
$PUCSORGBOTTOM
 10
0.0
 20
0.0
 30
0.0
  9
$PUCSORGLEFT
 10
0.0
 20
0.0
 30
0.0
  9
$PUCSORGRIGHT
 10
0.0
 20
0.0
 30
0.0
  9
$PUCSORGFRONT
 10
0.0
 20
0.0
 30
0.0
  9
$PUCSORGBACK
 10
0.0
 20
0.0
 30
0.0
  9
$USERI1
 70
0
  9
$USERI2
 70
0
  9
$USERI3
 70
0
  9
$USERI4
 70
0
  9
$USERI5
 70
0
  9
$USERR1
 40
0.0
  9
$USERR2
 40
0.0
  9
$USERR3
 40
0.0
  9
$USERR4
 40
0.0
  9
$USERR5
 40
0.0
  9
$WORLDVIEW
 70
1
  9
$SHADEDGE
 70
3
  9
$SHADEDIF
 70
70
  9
$TILEMODE
 70
1
  9
$MAXACTVP
 70
64
  9
$PINSBASE
 10
0.0
 20
0.0
 30
0.0
  9
$PLIMCHECK
 70
0
  9
$PEXTMIN
 10
1e+20
 20
1e+20
 30
1e+20
  9
$PEXTMAX
 10
-1e+20
 20
-1e+20
 30
-1e+20
  9
$PLIMMIN
 10
0.0
 20
0.0
  9
$PLIMMAX
 10
420.0
 20
297.0
  9
$UNITMODE
 70
0
  9
$VISRETAIN
 70
1
  9
$PLINEGEN
 70
0
  9
$PSLTSCALE
 70
1
  9
$TREEDEPTH
 70
3020
  9
$CMLSTYLE
  2
Standard
  9
$CMLJUST
 70
0
  9
$CMLSCALE
 40
20.0
  9
$PROXYGRAPHICS
 70
1
  9
$MEASUREMENT
 70
1
  9
$CELWEIGHT
370
-1
  9
$ENDCAPS
280
0
  9
$JOINSTYLE
280
0
  9
$LWDISPLAY
290
0
  9
$INSUNITS
 70
6
  9
$HYPERLINKBASE
  1

  9
$STYLESHEET
  1

  9
$XEDIT
290
1
  9
$CEPSNTYPE
380
0
  9
$PSTYLEMODE
290
1
  9
$FINGERPRINTGUID
  2
{EC9820A6-ADAA-40EA-A2FE-449111A5F278}
  9
$VERSIONGUID
  2
{D516BFB8-5F9E-433E-AB29-FB7D52AC8351}
  9
$EXTNAMES
290
1
  9
$PSVPSCALE
 40
0.0
  9
$OLESTARTUP
290
0
  9
$SORTENTS
280
127
  9
$INDEXCTL
280
0
  9
$HIDETEXT
280
1
  9
$XCLIPFRAME
280
1
  9
$HALOGAP
280
0
  9
$OBSCOLOR
 70
257
  9
$OBSLTYPE
280
0
  9
$INTERSECTIONDISPLAY
280
0
  9
$INTERSECTIONCOLOR
 70
257
  9
$DIMASSOC
280
2
  9
$PROJECTNAME
  1

  9
$CAMERADISPLAY
290
0
  9
$LENSLENGTH
 40
50.0
  9
$CAMERAHEIGHT
 40
0.0
  9
$STEPSPERSEC
 40
24.0
  9
$STEPSIZE
 40
100.0
  9
$3DDWFPREC
 40
2.0
  9
$PSOLWIDTH
 40
0.005
  9
$PSOLHEIGHT
 40
0.08
  9
$LOFTANG1
 40
1.570796326795
  9
$LOFTANG2
 40
1.570796326795
  9
$LOFTMAG1
 40
0.0
  9
$LOFTMAG2
 40
0.0
  9
$LOFTPARAM
 70
7
  9
$LOFTNORMALS
280
1
  9
$LATITUDE
 40
37.795
  9
$LONGITUDE
 40
-122.394
  9
$NORTHDIRECTION
 40
0.0
  9
$TIMEZONE
 70
-8000
  9
$LIGHTGLYPHDISPLAY
280
1
  9
$TILEMODELIGHTSYNCH
280
1
  9
$CMATERIAL
347
20
  9
$SOLIDHIST
280
0
  9
$SHOWHIST
280
1
  9
$DWFFRAME
280
2
  9
$DGNFRAME
280
2
  9
$REALWORLDSCALE
290
1
  9
$INTERFERECOLOR
 62
256
  9
$CSHADOW
280
0
  9
$SHADOWPLANELOCATION
 40
0.0
  0
ENDSEC
  0
SECTION
  2
CLASSES
  0
CLASS
  1
ACDBDICTIONARYWDFLT
  2
AcDbDictionaryWithDefault
  3
ObjectDBX Classes
 90
0
 91
0
280
0
281
0
  0
CLASS
  1
SUN
  2
AcDbSun
  3
SCENEOE
 90
1153
 91
0
280
0
281
0
  0
CLASS
  1
VISUALSTYLE
  2
AcDbVisualStyle
  3
ObjectDBX Classes
 90
4095
 91
0
280
0
281
0
  0
CLASS
  1
MATERIAL
  2
AcDbMaterial
  3
ObjectDBX Classes
 90
1153
 91
0
280
0
281
0
  0
CLASS
  1
SCALE
  2
AcDbScale
  3
ObjectDBX Classes
 90
1153
 91
0
280
0
281
0
  0
CLASS
  1
TABLESTYLE
  2
AcDbTableStyle
  3
ObjectDBX Classes
 90
4095
 91
0
280
0
281
0
  0
CLASS
  1
MLEADERSTYLE
  2
AcDbMLeaderStyle
  3
ACDB_MLEADERSTYLE_CLASS
 90
4095
 91
0
280
0
281
0
  0
CLASS
  1
DICTIONARYVAR
  2
AcDbDictionaryVar
  3
ObjectDBX Classes
 90
0
 91
0
280
0
281
0
  0
CLASS
  1
CELLSTYLEMAP
  2
AcDbCellStyleMap
  3
ObjectDBX Classes
 90
1152
 91
0
280
0
281
0
  0
CLASS
  1
MENTALRAYRENDERSETTINGS
  2
AcDbMentalRayRenderSettings
  3
SCENEOE
 90
1024
 91
0
280
0
281
0
  0
CLASS
  1
ACDBDETAILVIEWSTYLE
  2
AcDbDetailViewStyle
  3
ObjectDBX Classes
 90
1025
 91
0
280
0
281
0
  0
CLASS
  1
ACDBSECTIONVIEWSTYLE
  2
AcDbSectionViewStyle
  3
ObjectDBX Classes
 90
1025
 91
0
280
0
281
0
  0
CLASS
  1
RASTERVARIABLES
  2
AcDbRasterVariables
  3
ISM
 90
0
 91
0
280
0
281
0
  0
CLASS
  1
ACDBPLACEHOLDER
  2
AcDbPlaceHolder
  3
ObjectDBX Classes
 90
0
 91
0
280
0
281
0
  0
CLASS
  1
LAYOUT
  2
AcDbLayout
  3
ObjectDBX Classes
 90
0
 91
0
280
0
281
0
  0
ENDSEC
  0
SECTION
  2
TABLES
  0
TABLE
  2
VPORT
  5
8
330
0
100
AcDbSymbolTable
 70
1
  0
VPORT
  5
23
330
8
100
AcDbSymbolTableRecord
100
AcDbViewportTableRecord
  2
*Active
 70
0
 10
0.0
 20
0.0
 11
1.0
 21
1.0
 12
0.0
 22
0.0
 13
0.0
 23
0.0
 14
0.5
 24
0.5
 15
0.5
 25
0.5
 16
0.0
 26
0.0
 36
1.0
 17
0.0
 27
0.0
 37
0.0
 40
1000.0
 41
1.34
 42
50.0
 43
0.0
 44
0.0
 50
0.0
 51
0.0
 71
0
 72
1000
 73
1
 74
3
 75
0
 76
0
 77
0
 78
0
281
0
 65
0
146
0.0
  0
ENDTAB
  0
TABLE
  2
LTYPE
  5
2
330
0
100
AcDbSymbolTable
 70
3
  0
LTYPE
  5
24
330
2
100
AcDbSymbolTableRecord
100
AcDbLinetypeTableRecord
  2
ByBlock
 70
0
  3

 72
65
 73
0
 40
0.0
  0
LTYPE
  5
25
330
2
100
AcDbSymbolTableRecord
100
AcDbLinetypeTableRecord
  2
ByLayer
 70
0
  3

 72
65
 73
0
 40
0.0
  0
LTYPE
  5
26
330
2
100
AcDbSymbolTableRecord
100
AcDbLinetypeTableRecord
  2
Continuous
 70
0
  3

 72
65
 73
0
 40
0.0
  0
ENDTAB
  0
TABLE
  2
LAYER
  5
1
330
0
100
AcDbSymbolTable
 70
8
  0
LAYER
  5
27
330
1
100
AcDbSymbolTableRecord
100
AcDbLayerTableRecord
  2
0
 70
0
 62
7
  6
Continuous
370
-3
390
13
347
21
  0
LAYER
  5
28
330
1
100
AcDbSymbolTableRecord
100
AcDbLayerTableRecord
  2
Defpoints
 70
0
 62
7
  6
Continuous
290
0
370
-3
390
13
347
21
  0
LAYER
  5
2F
330
1
100
AcDbSymbolTableRecord
100
AcDbLayerTableRecord
  2
A-WALL
 70
0
 62
7
  6
Continuous
370
50
390
13
347
21
  0
LAYER
  5
30
330
1
100
AcDbSymbolTableRecord
100
AcDbLayerTableRecord
  2
A-DOOR
 70
0
 62
3
  6
Continuous
370
35
390
13
347
21
  0
LAYER
  5
31
330
1
100
AcDbSymbolTableRecord
100
AcDbLayerTableRecord
  2
A-WINDOW
 70
0
 62
4
  6
Continuous
370
25
390
13
347
21
  0
LAYER
  5
32
330
1
100
AcDbSymbolTableRecord
100
AcDbLayerTableRecord
  2
A-TEXT
 70
0
 62
2
  6
Continuous
370
-3
390
13
347
21
  0
LAYER
  5
33
330
1
100
AcDbSymbolTableRecord
100
AcDbLayerTableRecord
  2
A-GRID
 70
0
 62
8
  6
Continuous
370
13
390
13
347
21
  0
LAYER
  5
34
330
1
100
AcDbSymbolTableRecord
100
AcDbLayerTableRecord
  2
A-ROOM
 70
0
 62
6
  6
Continuous
370
13
390
13
347
21
  0
ENDTAB
  0
TABLE
  2
STYLE
  5
5
330
0
100
AcDbSymbolTable
 70
1
  0
STYLE
  5
29
330
5
100
AcDbSymbolTableRecord
100
AcDbTextStyleTableRecord
  2
Standard
 70
0
 40
0.0
 41
1.0
 50
0.0
 71
0
 42
2.5
  3
txt
  4

  0
ENDTAB
  0
TABLE
  2
VIEW
  5
7
330
0
100
AcDbSymbolTable
 70
0
  0
ENDTAB
  0
TABLE
  2
UCS
  5
6
330
0
100
AcDbSymbolTable
 70
0
  0
ENDTAB
  0
TABLE
  2
APPID
  5
3
330
0
100
AcDbSymbolTable
 70
3
  0
APPID
  5
2A
330
3
100
AcDbSymbolTableRecord
100
AcDbRegAppTableRecord
  2
ACAD
 70
0
  0
APPID
  5
2AE
330
3
100
AcDbSymbolTableRecord
100
AcDbRegAppTableRecord
  2
HATCHBACKGROUNDCOLOR
 70
0
  0
APPID
  5
2AF
330
3
100
AcDbSymbolTableRecord
100
AcDbRegAppTableRecord
  2
EZDXF
 70
0
  0
ENDTAB
  0
TABLE
  2
DIMSTYLE
  5
4
330
0
100
AcDbSymbolTable
 70
1
100
AcDbDimStyleTable
  0
DIMSTYLE
105
2B
330
4
100
AcDbSymbolTableRecord
100
AcDbDimStyleTableRecord
  2
Standard
 70
0
 40
1.0
 41
2.5
 42
0.625
 43
3.75
 44
1.25
 45
0.0
 46
0.0
 47
0.0
 48
0.0
 49
2.5
140
2.5
141
2.5
142
0.0
143
0.03937007874
144
1.0
145
0.0
146
1.0
147
0.625
148
0.0
 69
0
 70
0
 71
0
 72
0
 73
0
 74
0
 75
0
 76
0
 77
1
 78
8
 79
3
170
0
171
3
172
1
173
0
174
0
175
0
176
0
177
0
178
0
179
2
271
2
272
2
273
2
274
3
275
0
276
0
277
2
278
44
279
0
280
0
281
0
282
0
283
0
284
8
285
0
286
0
288
0
289
3
290
0
371
-2
372
-2
  0
ENDTAB
  0
TABLE
  2
BLOCK_RECORD
  5
9
330
0
100
AcDbSymbolTable
 70
2
  0
BLOCK_RECORD
  5
17
330
9
100
AcDbSymbolTableRecord
100
AcDbBlockTableRecord
  2
*Model_Space
340
1A
 70
0
280
1
281
0
  0
BLOCK_RECORD
  5
1B
330
9
100
AcDbSymbolTableRecord
100
AcDbBlockTableRecord
  2
*Paper_Space
340
1E
 70
0
280
1
281
0
  0
ENDTAB
  0
ENDSEC
  0
SECTION
  2
BLOCKS
  0
BLOCK
  5
18
330
17
100
AcDbEntity
  8
0
100
AcDbBlockBegin
  2
*Model_Space
 70
0
 10
0.0
 20
0.0
 30
0.0
  3
*Model_Space
  1

  0
ENDBLK
  5
19
330
17
100
AcDbEntity
  8
0
100
AcDbBlockEnd
  0
BLOCK
  5
1C
330
1B
100
AcDbEntity
  8
0
100
AcDbBlockBegin
  2
*Paper_Space
 70
0
 10
0.0
 20
0.0
 30
0.0
  3
*Paper_Space
  1

  0
ENDBLK
  5
1D
330
1B
100
AcDbEntity
  8
0
100
AcDbBlockEnd
  0
ENDSEC
  0
SECTION
  2
ENTITIES
  0
LINE
  5
35
330
17
100
AcDbEntity
  8
A-WALL
100
AcDbLine
 10
-1.2050011444091808
 20
24.77499923706055
 30
0.0
 11
-1.6450011444091786
 21
24.77499923706055
 31
0.0
  0
LINE
  5
36
330
17
100
AcDbEntity
  8
A-WALL
100
AcDbLine
 10
11.29499885559082
 20
15.51499923706055
 30
0.0
 11
11.29499885559082
 21
18.51499923706055
 31
0.0
  0
LINE
  5
37
330
17
100
AcDbEntity
  8
A-WALL
100
AcDbLine
 10
10.39499885559082
 20
18.074999237060545
 30
0.0
 11
10.39499885559082
 21
15.814999237060547
 31
0.0
  0
LINE
  5
38
330
17
100
AcDbEntity
  8
A-WALL
100
AcDbLine
 10
-20.685001144409178
 20
12.634999237060548
 30
0.0
 11
-20.685001144409178
 21
12.174999237060547
 31
0.0
  0
LINE
  5
39
330
17
100
AcDbEntity
  8
A-WALL
100
AcDbLine
 10
-21.14500114440918
 20
12.05499923706055
 30
0.0
 11
-21.92500114440918
 21
12.05499923706055
 31
0.0
  0
LINE
  5
3A
330
17
100
AcDbEntity
  8
A-WALL
100
AcDbLine
 10
-25.82500114440918
 20
12.23499923706055
 30
0.0
 11
-25.14500114440918
 21
12.23499923706055
 31
0.0
  0
LINE
  5
3B
330
17
100
AcDbEntity
  8
A-WALL
100
AcDbLine
 10
-20.40500114440918
 20
10.854999237060547
 30
0.0
 11
-20.40500114440918
 21
11.51499923706055
 31
0.0
  0
LINE
  5
3C
330
17
100
AcDbEntity
  8
A-WALL
100
AcDbLine
 10
-20.08500114440918
 20
11.214999237060546
 30
0.0
 11
-20.62500114440918
 21
11.314999237060547
 31
0.0
  0
LINE
  5
3D
330
17
100
AcDbEntity
  8
A-WALL
100
AcDbLine
 10
-23.42500114440918
 20
11.37499923706055
 30
0.0
 11
-24.185001144409178
 21
11.37499923706055
 31
0.0
  0
LINE
  5
3E
330
17
100
AcDbEntity
  8
A-WALL
100
AcDbLine
 10
-21.62500114440918
 20
11.494999237060547
 30
0.0
 11
-22.16500114440918
 21
11.494999237060547
 31
0.0
  0
LINE
  5
3F
330
17
100
AcDbEntity
  8
A-WALL
100
AcDbLine
 10
-20.76500114440918
 20
11.83499923706055
 30
0.0
 11
-20.76500114440918
 21
12.474999237060551
 31
0.0
  0
LINE
  5
40
330
17
100
AcDbEntity
  8
A-WALL
100
AcDbLine
 10
-22.005001144409178
 20
10.73499923706055
 30
0.0
 11
-22.56500114440918
 21
10.73499923706055
 31
0.0
  0
LINE
  5
41
330
17
100
AcDbEntity
  8
A-WALL
100
AcDbLine
 10
-24.70500114440918
 20
9.894999237060546
 30
0.0
 11
-24.30500114440918
 21
9.894999237060546
 31
0.0
  0
LINE
  5
42
330
17
100
AcDbEntity
  8
A-WALL
100
AcDbLine
 10
-20.485001144409182
 20
10.55499923706055
 30
0.0
 11
-20.485001144409182
 21
9.954999237060548
 31
0.0
  0
LINE
  5
43
330
17
100
AcDbEntity
  8
A-WALL
100
AcDbLine
 10
-23.26500114440918
 20
9.534999237060546
 30
0.0
 11
-22.80500114440918
 21
9.534999237060546
 31
0.0
  0
LINE
  5
44
330
17
100
AcDbEntity
  8
A-WALL
100
AcDbLine
 10
-26.28500114440918
 20
8.894999237060546
 30
0.0
 11
-26.28500114440918
 21
9.854999237060547
 31
0.0
  0
LINE
  5
45
330
17
100
AcDbEntity
  8
A-WALL
100
AcDbLine
 10
-17.44500114440918
 20
6.5749992370605455
 30
0.0
 11
-17.44500114440918
 21
9.87499923706055
 31
0.0
  0
LINE
  5
46
330
17
100
AcDbEntity
  8
A-WALL
100
AcDbLine
 10
-25.14500114440918
 20
9.19499923706055
 30
0.0
 11
-25.72500114440918
 21
9.19499923706055
 31
0.0
  0
LINE
  5
47
330
17
100
AcDbEntity
  8
A-WALL
100
AcDbLine
 10
-24.42500114440918
 20
8.51499923706055
 30
0.0
 11
-23.92500114440918
 21
8.51499923706055
 31
0.0
  0
LINE
  5
48
330
17
100
AcDbEntity
  8
A-WALL
100
AcDbLine
 10
-24.80500114440918
 20
6.974999237060544
 30
0.0
 11
-24.30500114440918
 21
6.974999237060544
 31
0.0
  0
LINE
  5
49
330
17
100
AcDbEntity
  8
A-WALL
100
AcDbLine
 10
-17.40500114440918
 20
13.214999237060546
 30
0.0
 11
-17.40500114440918
 21
8.19499923706055
 31
0.0
  0
LINE
  5
4A
330
17
100
AcDbEntity
  8
A-WALL
100
AcDbLine
 10
-24.82500114440918
 20
3.5949992370605486
 30
0.0
 11
-24.82500114440918
 21
2.0949992370605486
 31
0.0
  0
LINE
  5
4B
330
17
100
AcDbEntity
  8
A-WALL
100
AcDbLine
 10
-24.42500114440918
 20
2.494999237060547
 30
0.0
 11
-24.42500114440918
 21
2.0349992370605463
 31
0.0
  0
LINE
  5
4C
330
17
100
AcDbEntity
  8
A-WALL
100
AcDbLine
 10
-23.12500114440918
 20
1.0949992370605486
 30
0.0
 11
-22.24500114440918
 21
1.0949992370605486
 31
0.0
  0
LINE
  5
4D
330
17
100
AcDbEntity
  8
A-WALL
100
AcDbLine
 10
-26.48500114440918
 20
1.6349992370605477
 30
0.0
 11
-26.48500114440918
 21
0.5949992370605486
 31
0.0
  0
LINE
  5
4E
330
17
100
AcDbEntity
  8
A-WALL
100
AcDbLine
 10
-26.64500114440918
 20
1.0149992370605467
 30
0.0
 11
-26.64500114440918
 21
1.5949992370605486
 31
0.0
  0
LINE
  5
4F
330
17
100
AcDbEntity
  8
A-WALL
100
AcDbLine
 10
-25.82500114440918
 20
0.8149992370605474
 30
0.0
 11
-25.40500114440918
 21
0.8149992370605474
 31
0.0
  0
LINE
  5
50
330
17
100
AcDbEntity
  8
A-WALL
100
AcDbLine
 10
-23.80500114440918
 20
4.214999237060546
 30
0.0
 11
-23.30500114440918
 21
4.214999237060546
 31
0.0
  0
LINE
  5
51
330
17
100
AcDbEntity
  8
A-WALL
100
AcDbLine
 10
-22.32500114440918
 20
-0.16500076293945298
 30
0.0
 11
-21.74500114440918
 21
-0.16500076293945298
 31
0.0
  0
LINE
  5
52
330
17
100
AcDbEntity
  8
A-WALL
100
AcDbLine
 10
-17.58500114440918
 20
1.2749992370605483
 30
0.0
 11
-17.58500114440918
 21
-1.5650007629394516
 31
0.0
  0
LINE
  5
53
330
17
100
AcDbEntity
  8
A-WALL
100
AcDbLine
 10
-17.66500114440918
 20
-0.8250007629394531
 30
0.0
 11
-17.66500114440918
 21
-0.3450007629394527
 31
0.0
  0
LINE
  5
54
330
17
100
AcDbEntity
  8
A-WALL
100
AcDbLine
 10
-26.06500114440918
 20
-4.765000762939454
 30
0.0
 11
-25.26500114440918
 21
-4.765000762939454
 31
0.0
  0
LINE
  5
55
330
17
100
AcDbEntity
  8
A-WALL
100
AcDbLine
 10
-24.685001144409178
 20
-2.6450007629394534
 30
0.0
 11
-24.685001144409178
 21
-3.8050007629394536
 31
0.0
  0
LINE
  5
56
330
17
100
AcDbEntity
  8
A-WALL
100
AcDbLine
 10
-24.78500114440918
 20
-2.285000762939454
 30
0.0
 11
-24.78500114440918
 21
-0.8250007629394531
 31
0.0
  0
LINE
  5
57
330
17
100
AcDbEntity
  8
A-WALL
100
AcDbLine
 10
-22.64500114440918
 20
-2.1050007629394543
 30
0.0
 11
-23.10500114440918
 21
-2.1050007629394543
 31
0.0
  0
LINE
  5
58
330
17
100
AcDbEntity
  8
A-WALL
100
AcDbLine
 10
-22.505001144409178
 20
-1.8850007629394518
 30
0.0
 11
-21.46500114440918
 21
-1.8850007629394518
 31
0.0
  0
LINE
  5
59
330
17
100
AcDbEntity
  8
A-WALL
100
AcDbLine
 10
-21.34500114440918
 20
-1.6850007629394526
 30
0.0
 11
-20.76500114440918
 21
-1.6850007629394526
 31
0.0
  0
LINE
  5
5A
330
17
100
AcDbEntity
  8
A-WALL
100
AcDbLine
 10
-26.82500114440918
 20
-6.425000762939451
 30
0.0
 11
-26.82500114440918
 21
-4.645000762939453
 31
0.0
  0
LINE
  5
5B
330
17
100
AcDbEntity
  8
A-WALL
100
AcDbLine
 10
9.994998855590822
 20
-4.665000762939453
 30
0.0
 11
9.994998855590822
 21
-5.365000762939452
 31
0.0
  0
LINE
  5
5C
330
17
100
AcDbEntity
  8
A-WALL
100
AcDbLine
 10
10.39499885559082
 20
-5.085000762939451
 30
0.0
 11
10.39499885559082
 21
-7.165000762939453
 31
0.0
  0
LINE
  5
5D
330
17
100
AcDbEntity
  8
A-WALL
100
AcDbLine
 10
-18.685001144409178
 20
-4.905000762939451
 30
0.0
 11
-18.685001144409178
 21
-5.985000762939453
 31
0.0
  0
LINE
  5
5E
330
17
100
AcDbEntity
  8
A-WALL
100
AcDbLine
 10
-28.665001144409178
 20
-6.425000762939451
 30
0.0
 11
-28.665001144409178
 21
-4.025000762939452
 31
0.0
  0
LINE
  5
5F
330
17
100
AcDbEntity
  8
A-WALL
100
AcDbLine
 10
-19.16500114440918
 20
-6.205000762939452
 30
0.0
 11
-19.16500114440918
 21
-7.985000762939453
 31
0.0
  0
LINE
  5
60
330
17
100
AcDbEntity
  8
A-WALL
100
AcDbLine
 10
-17.12500114440918
 20
-6.185000762939453
 30
0.0
 11
-17.12500114440918
 21
-6.905000762939451
 31
0.0
  0
LINE
  5
61
330
17
100
AcDbEntity
  8
A-WALL
100
AcDbLine
 10
-14.385001144409179
 20
-7.3050007629394536
 30
0.0
 11
-13.98500114440918
 21
-7.225000762939452
 31
0.0
  0
LINE
  5
62
330
17
100
AcDbEntity
  8
A-WALL
100
AcDbLine
 10
-19.485001144409182
 20
-3.6050007629394543
 30
0.0
 11
-19.485001144409182
 21
-5.385000762939452
 31
0.0
  0
LINE
  5
63
330
17
100
AcDbEntity
  8
A-WALL
100
AcDbLine
 10
-18.485001144409182
 20
-8.365000762939452
 30
0.0
 11
-18.34500114440918
 21
-7.585000762939451
 31
0.0
  0
LINE
  5
64
330
17
100
AcDbEntity
  8
A-WALL
100
AcDbLine
 10
15.75499885559082
 20
-12.885000762939454
 30
0.0
 11
15.194998855590818
 21
-12.885000762939454
 31
0.0
  0
LINE
  5
65
330
17
100
AcDbEntity
  8
A-WALL
100
AcDbLine
 10
-17.725001144409177
 20
-13.745000762939453
 30
0.0
 11
-17.725001144409177
 21
-13.245000762939453
 31
0.0
  0
LINE
  5
66
330
17
100
AcDbEntity
  8
A-WALL
100
AcDbLine
 10
-26.04500114440918
 20
-14.225000762939453
 30
0.0
 11
-26.04500114440918
 21
-13.785000762939452
 31
0.0
  0
LINE
  5
67
330
17
100
AcDbEntity
  8
A-WALL
100
AcDbLine
 10
-26.10500114440918
 20
-15.525000762939452
 30
0.0
 11
-26.10500114440918
 21
-14.905000762939453
 31
0.0
  0
LINE
  5
68
330
17
100
AcDbEntity
  8
A-WALL
100
AcDbLine
 10
-24.64500114440918
 20
-12.145000762939453
 30
0.0
 11
-24.64500114440918
 21
-11.465000762939454
 31
0.0
  0
LINE
  5
69
330
17
100
AcDbEntity
  8
A-WALL
100
AcDbLine
 10
-24.685001144409178
 20
-8.645000762939453
 30
0.0
 11
-24.685001144409178
 21
-10.685000762939453
 31
0.0
  0
LINE
  5
6A
330
17
100
AcDbEntity
  8
A-WALL
100
AcDbLine
 10
-25.06500114440918
 20
-7.825000762939453
 30
0.0
 11
-25.06500114440918
 21
-8.565000762939452
 31
0.0
  0
LINE
  5
6B
330
17
100
AcDbEntity
  8
A-WALL
100
AcDbLine
 10
-25.90500114440918
 20
-7.405000762939451
 30
0.0
 11
-24.92500114440918
 21
-7.405000762939451
 31
0.0
  0
LINE
  5
6C
330
17
100
AcDbEntity
  8
A-WALL
100
AcDbLine
 10
-24.60500114440918
 20
-6.525000762939452
 30
0.0
 11
-24.60500114440918
 21
-8.405000762939451
 31
0.0
  0
LINE
  5
6D
330
17
100
AcDbEntity
  8
A-WALL
100
AcDbLine
 10
-21.505001144409178
 20
-5.925000762939451
 30
0.0
 11
-21.98500114440918
 21
-5.925000762939451
 31
0.0
  0
LINE
  5
6E
330
17
100
AcDbEntity
  8
A-WALL
100
AcDbLine
 10
-19.40500114440918
 20
-3.2250007629394517
 30
0.0
 11
-19.40500114440918
 21
1.574999237060549
 31
0.0
  0
LINE
  5
6F
330
17
100
AcDbEntity
  8
A-WALL
100
AcDbLine
 10
-19.42500114440918
 20
-1.2050007629394521
 30
0.0
 11
-19.42500114440918
 21
-0.6850007629394526
 31
0.0
  0
LINE
  5
70
330
17
100
AcDbEntity
  8
A-WALL
100
AcDbLine
 10
-19.58500114440918
 20
5.134999237060548
 30
0.0
 11
-19.58500114440918
 21
5.754999237060549
 31
0.0
  0
LINE
  5
71
330
17
100
AcDbEntity
  8
A-WALL
100
AcDbLine
 10
-23.005001144409178
 20
-8.145000762939453
 30
0.0
 11
-22.30500114440918
 21
-8.145000762939453
 31
0.0
  0
LINE
  5
72
330
17
100
AcDbEntity
  8
A-WALL
100
AcDbLine
 10
-28.36500114440918
 20
-13.845000762939453
 30
0.0
 11
-28.36500114440918
 21
-16.685000762939453
 31
0.0
  0
LINE
  5
73
330
17
100
AcDbEntity
  8
A-WALL
100
AcDbLine
 10
-28.28500114440918
 20
-13.165000762939453
 30
0.0
 11
-28.28500114440918
 21
-12.685000762939453
 31
0.0
  0
LINE
  5
74
330
17
100
AcDbEntity
  8
A-WALL
100
AcDbLine
 10
-28.36500114440918
 20
-16.345000762939453
 30
0.0
 11
-28.36500114440918
 21
-16.965000762939454
 31
0.0
  0
LINE
  5
75
330
17
100
AcDbEntity
  8
A-WALL
100
AcDbLine
 10
-15.56500114440918
 20
-11.245000762939453
 30
0.0
 11
-15.56500114440918
 21
-11.785000762939452
 31
0.0
  0
LINE
  5
76
330
17
100
AcDbEntity
  8
A-WALL
100
AcDbLine
 10
-15.52500114440918
 20
-11.005000762939453
 30
0.0
 11
-15.52500114440918
 21
-10.485000762939453
 31
0.0
  0
LINE
  5
77
330
17
100
AcDbEntity
  8
A-WALL
100
AcDbLine
 10
-17.505001144409178
 20
-16.505000762939453
 30
0.0
 11
-17.505001144409178
 21
-18.805000762939454
 31
0.0
  0
LINE
  5
78
330
17
100
AcDbEntity
  8
A-WALL
100
AcDbLine
 10
-23.64500114440918
 20
-16.90500076293945
 30
0.0
 11
-23.64500114440918
 21
-17.305000762939454
 31
0.0
  0
LINE
  5
79
330
17
100
AcDbEntity
  8
A-WALL
100
AcDbLine
 10
-25.165001144409178
 20
-18.205000762939452
 30
0.0
 11
-25.165001144409178
 21
-16.965000762939454
 31
0.0
  0
LINE
  5
7A
330
17
100
AcDbEntity
  8
A-WALL
100
AcDbLine
 10
-17.96500114440918
 20
-19.26500076293945
 30
0.0
 11
-17.96500114440918
 21
-18.685000762939453
 31
0.0
  0
LINE
  5
7B
330
17
100
AcDbEntity
  8
A-WALL
100
AcDbLine
 10
-25.40500114440918
 20
-18.72500076293945
 30
0.0
 11
-25.40500114440918
 21
-19.145000762939453
 31
0.0
  0
LINE
  5
7C
330
17
100
AcDbEntity
  8
A-WALL
100
AcDbLine
 10
-26.32500114440918
 20
-18.145000762939453
 30
0.0
 11
-26.32500114440918
 21
-19.165000762939453
 31
0.0
  0
LINE
  5
7D
330
17
100
AcDbEntity
  8
A-WALL
100
AcDbLine
 10
-26.34500114440918
 20
-12.625000762939452
 30
0.0
 11
-26.34500114440918
 21
-17.985000762939453
 31
0.0
  0
LINE
  5
7E
330
17
100
AcDbEntity
  8
A-WALL
100
AcDbLine
 10
-26.72500114440918
 20
-18.745000762939455
 30
0.0
 11
-26.72500114440918
 21
-19.325000762939453
 31
0.0
  0
LINE
  5
7F
330
17
100
AcDbEntity
  8
A-WALL
100
AcDbLine
 10
-26.665001144409178
 20
-18.825000762939453
 30
0.0
 11
-26.86500114440918
 21
-19.245000762939455
 31
0.0
  0
LINE
  5
80
330
17
100
AcDbEntity
  8
A-WALL
100
AcDbLine
 10
8.39499885559082
 20
-19.425000762939455
 30
0.0
 11
9.194998855590818
 21
-19.425000762939455
 31
0.0
  0
LINE
  5
81
330
17
100
AcDbEntity
  8
A-WALL
100
AcDbLine
 10
-19.08500114440918
 20
-13.645000762939453
 30
0.0
 11
-19.08500114440918
 21
-19.985000762939453
 31
0.0
  0
LINE
  5
82
330
17
100
AcDbEntity
  8
A-WALL
100
AcDbLine
 10
-28.22500114440918
 20
-19.40500076293945
 30
0.0
 11
-28.22500114440918
 21
-21.985000762939453
 31
0.0
  0
LINE
  5
83
330
17
100
AcDbEntity
  8
A-WALL
100
AcDbLine
 10
-28.38500114440918
 20
-18.785000762939454
 30
0.0
 11
-28.38500114440918
 21
-17.44500076293945
 31
0.0
  0
LINE
  5
84
330
17
100
AcDbEntity
  8
A-WALL
100
AcDbLine
 10
-18.24500114440918
 20
-22.385000762939452
 30
0.0
 11
-18.56500114440918
 21
-21.965000762939454
 31
0.0
  0
LINE
  5
85
330
17
100
AcDbEntity
  8
A-WALL
100
AcDbLine
 10
12.674998855590822
 20
-19.985000762939453
 30
0.0
 11
12.674998855590822
 21
-19.485000762939453
 31
0.0
  0
LINE
  5
86
330
17
100
AcDbEntity
  8
A-WALL
100
AcDbLine
 10
12.494998855590822
 20
-19.645000762939453
 30
0.0
 11
12.494998855590822
 21
-20.08500076293945
 31
0.0
  0
LINE
  5
87
330
17
100
AcDbEntity
  8
A-WALL
100
AcDbLine
 10
12.89499885559082
 20
-22.465000762939454
 30
0.0
 11
12.89499885559082
 21
-22.045000762939452
 31
0.0
  0
LINE
  5
88
330
17
100
AcDbEntity
  8
A-WALL
100
AcDbLine
 10
19.994998855590822
 20
-7.605000762939454
 30
0.0
 11
14.314998855590822
 21
-7.605000762939454
 31
0.0
  0
LINE
  5
89
330
17
100
AcDbEntity
  8
A-WALL
100
AcDbLine
 10
15.674998855590822
 20
-4.265000762939454
 30
0.0
 11
6.57499885559082
 21
-4.265000762939454
 31
0.0
  0
LINE
  5
8A
330
17
100
AcDbEntity
  8
A-WALL
100
AcDbLine
 10
6.594998855590823
 20
-4.565000762939452
 30
0.0
 11
9.21499885559082
 21
-4.565000762939452
 31
0.0
  0
LINE
  5
8B
330
17
100
AcDbEntity
  8
A-WALL
100
AcDbLine
 10
9.534998855590821
 20
-4.705000762939452
 30
0.0
 11
10.494998855590822
 21
-4.705000762939452
 31
0.0
  0
LINE
  5
8C
330
17
100
AcDbEntity
  8
A-WALL
100
AcDbLine
 10
9.07499885559082
 20
-4.725000762939452
 30
0.0
 11
9.07499885559082
 21
-7.205000762939452
 31
0.0
  0
LINE
  5
8D
330
17
100
AcDbEntity
  8
A-WALL
100
AcDbLine
 10
9.414998855590824
 20
-7.285000762939454
 30
0.0
 11
6.594998855590823
 21
-7.285000762939454
 31
0.0
  0
LINE
  5
8E
330
17
100
AcDbEntity
  8
A-WALL
100
AcDbLine
 10
8.29499885559082
 20
-9.585000762939451
 30
0.0
 11
9.21499885559082
 21
-9.585000762939451
 31
0.0
  0
LINE
  5
8F
330
17
100
AcDbEntity
  8
A-WALL
100
AcDbLine
 10
10.674998855590822
 20
-16.005000762939453
 30
0.0
 11
10.674998855590822
 21
-18.045000762939452
 31
0.0
  0
LINE
  5
90
330
17
100
AcDbEntity
  8
A-WALL
100
AcDbLine
 10
10.43499885559082
 20
-18.425000762939455
 30
0.0
 11
10.43499885559082
 21
-17.685000762939453
 31
0.0
  0
LINE
  5
91
330
17
100
AcDbEntity
  8
A-WALL
100
AcDbLine
 10
9.654998855590819
 20
-18.705000762939452
 30
0.0
 11
9.654998855590819
 21
-19.22500076293945
 31
0.0
  0
LINE
  5
92
330
17
100
AcDbEntity
  8
A-WALL
100
AcDbLine
 10
9.874998855590825
 20
-15.705000762939452
 30
0.0
 11
9.874998855590825
 21
-16.90500076293945
 31
0.0
  0
LINE
  5
93
330
17
100
AcDbEntity
  8
A-WALL
100
AcDbLine
 10
9.274998855590823
 20
-15.165000762939453
 30
0.0
 11
8.57499885559082
 21
-15.165000762939453
 31
0.0
  0
LINE
  5
94
330
17
100
AcDbEntity
  8
A-WALL
100
AcDbLine
 10
8.494998855590822
 20
-16.205000762939452
 30
0.0
 11
7.994998855590822
 21
-16.205000762939452
 31
0.0
  0
LINE
  5
95
330
17
100
AcDbEntity
  8
A-WALL
100
AcDbLine
 10
6.57499885559082
 20
-18.505000762939453
 30
0.0
 11
7.894998855590821
 21
-18.505000762939453
 31
0.0
  0
LINE
  5
96
330
17
100
AcDbEntity
  8
A-WALL
100
AcDbLine
 10
7.594998855590823
 20
-19.365000762939452
 30
0.0
 11
6.394998855590821
 21
-19.365000762939452
 31
0.0
  0
LINE
  5
97
330
17
100
AcDbEntity
  8
A-WALL
100
AcDbLine
 10
5.134998855590823
 20
-21.22500076293945
 30
0.0
 11
9.134998855590823
 21
-21.22500076293945
 31
0.0
  0
LINE
  5
98
330
17
100
AcDbEntity
  8
A-WALL
100
AcDbLine
 10
9.93499885559082
 20
-21.22500076293945
 30
0.0
 11
9.93499885559082
 21
-21.745000762939455
 31
0.0
  0
LINE
  5
99
330
17
100
AcDbEntity
  8
A-WALL
100
AcDbLine
 10
8.974998855590819
 20
-21.705000762939452
 30
0.0
 11
4.154998855590819
 21
-21.705000762939452
 31
0.0
  0
LINE
  5
9A
330
17
100
AcDbEntity
  8
A-WALL
100
AcDbLine
 10
-10.345001144409178
 20
-19.945000762939454
 30
0.0
 11
-10.345001144409178
 21
-19.145000762939453
 31
0.0
  0
LINE
  5
9B
330
17
100
AcDbEntity
  8
A-WALL
100
AcDbLine
 10
-14.52500114440918
 20
-19.185000762939453
 30
0.0
 11
-16.30500114440918
 21
-19.185000762939453
 31
0.0
  0
LINE
  5
9C
330
17
100
AcDbEntity
  8
A-WALL
100
AcDbLine
 10
-17.20500114440918
 20
-16.40500076293945
 30
0.0
 11
-17.20500114440918
 21
-8.485000762939453
 31
0.0
  0
LINE
  5
9D
330
17
100
AcDbEntity
  8
A-WALL
100
AcDbLine
 10
-17.20500114440918
 20
-20.76500076293945
 30
0.0
 11
-17.60500114440918
 21
-20.605000762939454
 31
0.0
  0
LINE
  5
9E
330
17
100
AcDbEntity
  8
A-WALL
100
AcDbLine
 10
-16.46500114440918
 20
-6.225000762939452
 30
0.0
 11
-16.46500114440918
 21
-5.3050007629394536
 31
0.0
  0
LINE
  5
9F
330
17
100
AcDbEntity
  8
A-WALL
100
AcDbLine
 10
-18.58500114440918
 20
-7.545000762939452
 30
0.0
 11
-18.12500114440918
 21
-7.085000762939451
 31
0.0
  0
LINE
  5
A0
330
17
100
AcDbEntity
  8
A-WALL
100
AcDbLine
 10
-18.92500114440918
 20
-7.905000762939451
 30
0.0
 11
-18.92500114440918
 21
-13.565000762939453
 31
0.0
  0
LINE
  5
A1
330
17
100
AcDbEntity
  8
A-WALL
100
AcDbLine
 10
-19.60500114440918
 20
-10.325000762939453
 30
0.0
 11
-19.60500114440918
 21
-13.325000762939453
 31
0.0
  0
LINE
  5
A2
330
17
100
AcDbEntity
  8
A-WALL
100
AcDbLine
 10
-19.64500114440918
 20
-8.725000762939452
 30
0.0
 11
-19.64500114440918
 21
-8.245000762939451
 31
0.0
  0
LINE
  5
A3
330
17
100
AcDbEntity
  8
A-WALL
100
AcDbLine
 10
-16.58500114440918
 20
-5.165000762939453
 30
0.0
 11
-15.125001144409179
 21
-5.165000762939453
 31
0.0
  0
LINE
  5
A4
330
17
100
AcDbEntity
  8
A-WALL
100
AcDbLine
 10
-15.725001144409179
 20
-7.705000762939452
 30
0.0
 11
-16.545001144409177
 21
-7.705000762939452
 31
0.0
  0
LINE
  5
A5
330
17
100
AcDbEntity
  8
A-WALL
100
AcDbLine
 10
-14.92500114440918
 20
-7.565000762939452
 30
0.0
 11
-15.705001144409179
 21
-7.565000762939452
 31
0.0
  0
LINE
  5
A6
330
17
100
AcDbEntity
  8
A-WALL
100
AcDbLine
 10
-9.845001144409178
 20
-17.965000762939454
 30
0.0
 11
-9.845001144409178
 21
-17.345000762939453
 31
0.0
  0
LINE
  5
A7
330
17
100
AcDbEntity
  8
A-WALL
100
AcDbLine
 10
-10.04500114440918
 20
-13.065000762939453
 30
0.0
 11
-8.54500114440918
 21
-13.065000762939453
 31
0.0
  0
LINE
  5
A8
330
17
100
AcDbEntity
  8
A-WALL
100
AcDbLine
 10
-10.125001144409179
 20
-12.725000762939453
 30
0.0
 11
-10.125001144409179
 21
-8.825000762939453
 31
0.0
  0
LINE
  5
A9
330
17
100
AcDbEntity
  8
A-WALL
100
AcDbLine
 10
-8.90500114440918
 20
-8.765000762939454
 30
0.0
 11
-6.24500114440918
 21
-8.765000762939454
 31
0.0
  0
LINE
  5
AA
330
17
100
AcDbEntity
  8
A-WALL
100
AcDbLine
 10
-5.0250011444091776
 20
-13.025000762939452
 30
0.0
 11
-7.40500114440918
 21
-13.025000762939452
 31
0.0
  0
LINE
  5
AB
330
17
100
AcDbEntity
  8
A-WALL
100
AcDbLine
 10
-7.165001144409178
 20
-13.385000762939454
 30
0.0
 11
-7.165001144409178
 21
-14.125000762939452
 31
0.0
  0
LINE
  5
AC
330
17
100
AcDbEntity
  8
A-WALL
100
AcDbLine
 10
-5.92500114440918
 20
-13.385000762939454
 30
0.0
 11
-5.92500114440918
 21
-13.925000762939453
 31
0.0
  0
LINE
  5
AD
330
17
100
AcDbEntity
  8
A-WALL
100
AcDbLine
 10
-7.505001144409178
 20
-15.125000762939452
 30
0.0
 11
-4.92500114440918
 21
-15.125000762939452
 31
0.0
  0
LINE
  5
AE
330
17
100
AcDbEntity
  8
A-WALL
100
AcDbLine
 10
-5.845001144409178
 20
-16.145000762939453
 30
0.0
 11
-5.845001144409178
 21
-16.825000762939453
 31
0.0
  0
LINE
  5
AF
330
17
100
AcDbEntity
  8
A-WALL
100
AcDbLine
 10
-8.305001144409179
 20
-17.245000762939455
 30
0.0
 11
-3.7250011444091804
 21
-17.245000762939455
 31
0.0
  0
LINE
  5
B0
330
17
100
AcDbEntity
  8
A-WALL
100
AcDbLine
 10
-7.125001144409179
 20
-16.045000762939452
 30
0.0
 11
-7.125001144409179
 21
-16.845000762939453
 31
0.0
  0
LINE
  5
B1
330
17
100
AcDbEntity
  8
A-WALL
100
AcDbLine
 10
-3.4450011444091793
 20
-19.305000762939454
 30
0.0
 11
-3.4450011444091793
 21
-17.025000762939452
 31
0.0
  0
LINE
  5
B2
330
17
100
AcDbEntity
  8
A-WALL
100
AcDbLine
 10
-7.625001144409179
 20
-5.025000762939452
 30
0.0
 11
-7.625001144409179
 21
-6.325000762939453
 31
0.0
  0
LINE
  5
B3
330
17
100
AcDbEntity
  8
A-WALL
100
AcDbLine
 10
-7.685001144409178
 20
-7.045000762939452
 30
0.0
 11
-7.685001144409178
 21
-7.485000762939453
 31
0.0
  0
LINE
  5
B4
330
17
100
AcDbEntity
  8
A-WALL
100
AcDbLine
 10
-6.56500114440918
 20
-6.325000762939453
 30
0.0
 11
-6.56500114440918
 21
-7.425000762939451
 31
0.0
  0
LINE
  5
B5
330
17
100
AcDbEntity
  8
A-WALL
100
AcDbLine
 10
-6.56500114440918
 20
-5.685000762939453
 30
0.0
 11
-6.56500114440918
 21
-5.005000762939453
 31
0.0
  0
LINE
  5
B6
330
17
100
AcDbEntity
  8
A-WALL
100
AcDbLine
 10
-0.26500114440917955
 20
-4.865000762939452
 30
0.0
 11
-0.26500114440917955
 21
0.5949992370605486
 31
0.0
  0
LINE
  5
B7
330
17
100
AcDbEntity
  8
A-WALL
100
AcDbLine
 10
-3.08500114440918
 20
2.4749992370605476
 30
0.0
 11
-3.08500114440918
 21
4.494999237060547
 31
0.0
  0
LINE
  5
B8
330
17
100
AcDbEntity
  8
A-WALL
100
AcDbLine
 10
-3.3050011444091787
 20
3.0349992370605463
 30
0.0
 11
-4.505001144409178
 21
3.0349992370605463
 31
0.0
  0
LINE
  5
B9
330
17
100
AcDbEntity
  8
A-WALL
100
AcDbLine
 10
-4.7650011444091795
 20
8.034999237060546
 30
0.0
 11
-4.7650011444091795
 21
3.1949992370605464
 31
0.0
  0
LINE
  5
BA
330
17
100
AcDbEntity
  8
A-WALL
100
AcDbLine
 10
-5.58500114440918
 20
6.19499923706055
 30
0.0
 11
-10.665001144409178
 21
6.19499923706055
 31
0.0
  0
LINE
  5
BB
330
17
100
AcDbEntity
  8
A-WALL
100
AcDbLine
 10
-9.345001144409178
 20
4.034999237060546
 30
0.0
 11
-9.345001144409178
 21
5.814999237060547
 31
0.0
  0
LINE
  5
BC
330
17
100
AcDbEntity
  8
A-WALL
100
AcDbLine
 10
-10.74500114440918
 20
4.854999237060547
 30
0.0
 11
-9.74500114440918
 21
4.854999237060547
 31
0.0
  0
LINE
  5
BD
330
17
100
AcDbEntity
  8
A-WALL
100
AcDbLine
 10
-10.76500114440918
 20
4.574999237060549
 30
0.0
 11
-9.94500114440918
 21
4.574999237060549
 31
0.0
  0
LINE
  5
BE
330
17
100
AcDbEntity
  8
A-WALL
100
AcDbLine
 10
-9.485001144409178
 20
5.974999237060548
 30
0.0
 11
-10.72500114440918
 21
5.974999237060548
 31
0.0
  0
LINE
  5
BF
330
17
100
AcDbEntity
  8
A-WALL
100
AcDbLine
 10
-11.145001144409179
 20
10.254999237060545
 30
0.0
 11
-11.145001144409179
 21
6.434999237060545
 31
0.0
  0
LINE
  5
C0
330
17
100
AcDbEntity
  8
A-WALL
100
AcDbLine
 10
-11.165001144409178
 20
11.954999237060548
 30
0.0
 11
-11.165001144409178
 21
10.814999237060547
 31
0.0
  0
LINE
  5
C1
330
17
100
AcDbEntity
  8
A-WALL
100
AcDbLine
 10
-11.88500114440918
 20
10.534999237060546
 30
0.0
 11
-11.325001144409178
 21
10.534999237060546
 31
0.0
  0
LINE
  5
C2
330
17
100
AcDbEntity
  8
A-WALL
100
AcDbLine
 10
-16.185001144409178
 20
7.314999237060547
 30
0.0
 11
-16.185001144409178
 21
10.314999237060547
 31
0.0
  0
LINE
  5
C3
330
17
100
AcDbEntity
  8
A-WALL
100
AcDbLine
 10
-15.84500114440918
 20
10.55499923706055
 30
0.0
 11
-16.52500114440918
 21
10.55499923706055
 31
0.0
  0
LINE
  5
C4
330
17
100
AcDbEntity
  8
A-WALL
100
AcDbLine
 10
-16.78500114440918
 20
14.414999237060549
 30
0.0
 11
-17.42500114440918
 21
14.414999237060549
 31
0.0
  0
LINE
  5
C5
330
17
100
AcDbEntity
  8
A-WALL
100
AcDbLine
 10
-11.145001144409179
 20
13.174999237060547
 30
0.0
 11
-11.145001144409179
 21
15.094999237060549
 31
0.0
  0
LINE
  5
C6
330
17
100
AcDbEntity
  8
A-WALL
100
AcDbLine
 10
-4.805001144409179
 20
18.494999237060547
 30
0.0
 11
10.454998855590823
 21
18.494999237060547
 31
0.0
  0
LINE
  5
C7
330
17
100
AcDbEntity
  8
A-WALL
100
AcDbLine
 10
10.274998855590823
 20
15.674999237060547
 30
0.0
 11
6.734998855590824
 21
15.674999237060547
 31
0.0
  0
LINE
  5
C8
330
17
100
AcDbEntity
  8
A-WALL
100
AcDbLine
 10
6.714998855590821
 20
15.414999237060549
 30
0.0
 11
15.854998855590821
 21
15.414999237060549
 31
0.0
  0
LINE
  5
C9
330
17
100
AcDbEntity
  8
A-WALL
100
AcDbLine
 10
-19.02500114440918
 20
-24.525000762939452
 30
0.0
 11
-19.02500114440918
 21
-23.325000762939453
 31
0.0
  0
LINE
  5
CA
330
17
100
AcDbEntity
  8
A-WALL
100
AcDbLine
 10
-25.32500114440918
 20
-23.505000762939453
 30
0.0
 11
-25.32500114440918
 21
-22.90500076293945
 31
0.0
  0
LINE
  5
CB
330
17
100
AcDbEntity
  8
A-WALL
100
AcDbLine
 10
-24.48500114440918
 20
-20.985000762939453
 30
0.0
 11
-24.48500114440918
 21
-20.485000762939453
 31
0.0
  0
LINE
  5
CC
330
17
100
AcDbEntity
  8
A-WALL
100
AcDbLine
 10
-17.485001144409182
 20
-24.72500076293945
 30
0.0
 11
-17.485001144409182
 21
-25.325000762939453
 31
0.0
  0
LINE
  5
CD
330
17
100
AcDbEntity
  8
A-WALL
100
AcDbLine
 10
-18.94500114440918
 20
-24.885000762939452
 30
0.0
 11
-18.94500114440918
 21
-25.325000762939453
 31
0.0
  0
LINE
  5
CE
330
17
100
AcDbEntity
  8
A-WALL
100
AcDbLine
 10
-2.1850011444091777
 20
23.674999237060547
 30
0.0
 11
-2.1850011444091777
 21
22.97499923706055
 31
0.0
  0
LINE
  5
CF
330
17
100
AcDbEntity
  8
A-WALL
100
AcDbLine
 10
-1.8050011444091787
 20
25.214999237060546
 30
0.0
 11
-1.8050011444091787
 21
23.714999237060546
 31
0.0
  0
LINE
  5
D0
330
17
100
AcDbEntity
  8
A-WALL
100
AcDbLine
 10
4.034998855590821
 20
20.114999237060545
 30
0.0
 11
4.57499885559082
 21
19.97499923706055
 31
0.0
  0
LINE
  5
D1
330
17
100
AcDbEntity
  8
A-WALL
100
AcDbLine
 10
-25.14500114440918
 20
12.314999237060547
 30
0.0
 11
-24.80500114440918
 21
12.714999237060546
 31
0.0
  0
LINE
  5
D2
330
17
100
AcDbEntity
  8
A-WALL
100
AcDbLine
 10
-22.40500114440918
 20
10.55499923706055
 30
0.0
 11
-22.90500114440918
 21
10.55499923706055
 31
0.0
  0
LINE
  5
D3
330
17
100
AcDbEntity
  8
A-WALL
100
AcDbLine
 10
-20.42500114440918
 20
10.774999237060548
 30
0.0
 11
-20.92500114440918
 21
10.914999237060549
 31
0.0
  0
LINE
  5
D4
330
17
100
AcDbEntity
  8
A-WALL
100
AcDbLine
 10
-20.60500114440918
 20
11.574999237060545
 30
0.0
 11
-20.60500114440918
 21
11.034999237060546
 31
0.0
  0
LINE
  5
D5
330
17
100
AcDbEntity
  8
A-WALL
100
AcDbLine
 10
-20.20500114440918
 20
9.814999237060547
 30
0.0
 11
-20.20500114440918
 21
9.37499923706055
 31
0.0
  0
LINE
  5
D6
330
17
100
AcDbEntity
  8
A-WALL
100
AcDbLine
 10
-21.32500114440918
 20
9.274999237060548
 30
0.0
 11
-20.88500114440918
 21
9.274999237060548
 31
0.0
  0
LINE
  5
D7
330
17
100
AcDbEntity
  8
A-WALL
100
AcDbLine
 10
-26.98500114440918
 20
10.974999237060551
 30
0.0
 11
-26.78500114440918
 21
10.594999237060549
 31
0.0
  0
LINE
  5
D8
330
17
100
AcDbEntity
  8
A-WALL
100
AcDbLine
 10
-26.685001144409178
 20
10.634999237060548
 30
0.0
 11
-26.685001144409178
 21
11.15499923706055
 31
0.0
  0
LINE
  5
D9
330
17
100
AcDbEntity
  8
A-WALL
100
AcDbLine
 10
-26.78500114440918
 20
11.214999237060546
 30
0.0
 11
-26.78500114440918
 21
11.714999237060546
 31
0.0
  0
LINE
  5
DA
330
17
100
AcDbEntity
  8
A-WALL
100
AcDbLine
 10
-18.545001144409177
 20
8.314999237060547
 30
0.0
 11
-18.12500114440918
 21
8.314999237060547
 31
0.0
  0
LINE
  5
DB
330
17
100
AcDbEntity
  8
A-WALL
100
AcDbLine
 10
-20.24500114440918
 20
7.594999237060549
 30
0.0
 11
-20.08500114440918
 21
8.214999237060546
 31
0.0
  0
LINE
  5
DC
330
17
100
AcDbEntity
  8
A-WALL
100
AcDbLine
 10
-23.40500114440918
 20
7.594999237060549
 30
0.0
 11
-23.74500114440918
 21
7.87499923706055
 31
0.0
  0
LINE
  5
DD
330
17
100
AcDbEntity
  8
A-WALL
100
AcDbLine
 10
-25.14500114440918
 20
6.774999237060548
 30
0.0
 11
-25.56500114440918
 21
6.774999237060548
 31
0.0
  0
LINE
  5
DE
330
17
100
AcDbEntity
  8
A-WALL
100
AcDbLine
 10
-17.30500114440918
 20
6.774999237060548
 30
0.0
 11
-17.30500114440918
 21
5.614999237060548
 31
0.0
  0
LINE
  5
DF
330
17
100
AcDbEntity
  8
A-WALL
100
AcDbLine
 10
-17.32500114440918
 20
7.134999237060548
 30
0.0
 11
-17.32500114440918
 21
7.954999237060548
 31
0.0
  0
LINE
  5
E0
330
17
100
AcDbEntity
  8
A-WALL
100
AcDbLine
 10
-17.42500114440918
 20
11.23499923706055
 30
0.0
 11
-17.42500114440918
 21
11.69499923706055
 31
0.0
  0
LINE
  5
E1
330
17
100
AcDbEntity
  8
A-WALL
100
AcDbLine
 10
-17.44500114440918
 20
11.774999237060548
 30
0.0
 11
-17.44500114440918
 21
12.65499923706055
 31
0.0
  0
LINE
  5
E2
330
17
100
AcDbEntity
  8
A-WALL
100
AcDbLine
 10
37.474998855590826
 20
5.414999237060549
 30
0.0
 11
37.37499885559082
 21
5.854999237060547
 31
0.0
  0
LINE
  5
E3
330
17
100
AcDbEntity
  8
A-WALL
100
AcDbLine
 10
36.37499885559082
 20
8.01499923706055
 30
0.0
 11
36.85499885559082
 21
8.01499923706055
 31
0.0
  0
LINE
  5
E4
330
17
100
AcDbEntity
  8
A-WALL
100
AcDbLine
 10
36.974998855590826
 20
8.214999237060546
 30
0.0
 11
36.87499885559082
 21
7.774999237060548
 31
0.0
  0
LINE
  5
E5
330
17
100
AcDbEntity
  8
A-WALL
100
AcDbLine
 10
-24.56500114440918
 20
5.734999237060549
 30
0.0
 11
-25.12500114440918
 21
5.734999237060549
 31
0.0
  0
LINE
  5
E6
330
17
100
AcDbEntity
  8
A-WALL
100
AcDbLine
 10
-28.80500114440918
 20
1.7749992370605483
 30
0.0
 11
-28.80500114440918
 21
4.074999237060549
 31
0.0
  0
LINE
  5
E7
330
17
100
AcDbEntity
  8
A-WALL
100
AcDbLine
 10
-28.92500114440918
 20
5.114999237060548
 30
0.0
 11
-28.92500114440918
 21
3.2749992370605483
 31
0.0
  0
LINE
  5
E8
330
17
100
AcDbEntity
  8
A-WALL
100
AcDbLine
 10
-21.30500114440918
 20
1.4949992370605472
 30
0.0
 11
-20.685001144409178
 21
1.4949992370605472
 31
0.0
  0
LINE
  5
E9
330
17
100
AcDbEntity
  8
A-WALL
100
AcDbLine
 10
-25.74500114440918
 20
0.9149992370605489
 30
0.0
 11
-26.06500114440918
 21
1.214999237060546
 31
0.0
  0
LINE
  5
EA
330
17
100
AcDbEntity
  8
A-WALL
100
AcDbLine
 10
-25.90500114440918
 20
1.0549992370605459
 30
0.0
 11
-25.46500114440918
 21
1.0549992370605459
 31
0.0
  0
LINE
  5
EB
330
17
100
AcDbEntity
  8
A-WALL
100
AcDbLine
 10
-24.685001144409178
 20
2.054999237060546
 30
0.0
 11
-24.92500114440918
 21
2.374999237060546
 31
0.0
  0
LINE
  5
EC
330
17
100
AcDbEntity
  8
A-WALL
100
AcDbLine
 10
-24.64500114440918
 20
4.674999237060547
 30
0.0
 11
-24.64500114440918
 21
4.034999237060546
 31
0.0
  0
LINE
  5
ED
330
17
100
AcDbEntity
  8
A-WALL
100
AcDbLine
 10
-22.62500114440918
 20
4.474999237060548
 30
0.0
 11
-22.46500114440918
 21
4.074999237060549
 31
0.0
  0
LINE
  5
EE
330
17
100
AcDbEntity
  8
A-WALL
100
AcDbLine
 10
-22.46500114440918
 20
4.034999237060546
 30
0.0
 11
-21.505001144409178
 21
4.034999237060546
 31
0.0
  0
LINE
  5
EF
330
17
100
AcDbEntity
  8
A-WALL
100
AcDbLine
 10
-22.40500114440918
 20
3.914999237060549
 30
0.0
 11
-22.90500114440918
 21
4.314999237060547
 31
0.0
  0
LINE
  5
F0
330
17
100
AcDbEntity
  8
A-WALL
100
AcDbLine
 10
-24.74500114440918
 20
1.1149992370605482
 30
0.0
 11
-25.185001144409178
 21
0.8949992370605457
 31
0.0
  0
LINE
  5
F1
330
17
100
AcDbEntity
  8
A-WALL
100
AcDbLine
 10
-22.40500114440918
 20
-0.5050007629394528
 30
0.0
 11
-23.10500114440918
 21
-0.5050007629394528
 31
0.0
  0
LINE
  5
F2
330
17
100
AcDbEntity
  8
A-WALL
100
AcDbLine
 10
-20.82500114440918
 20
-1.3050007629394536
 30
0.0
 11
-20.06500114440918
 21
-1.3050007629394536
 31
0.0
  0
LINE
  5
F3
330
17
100
AcDbEntity
  8
A-WALL
100
AcDbLine
 10
-17.80500114440918
 20
-1.2050007629394521
 30
0.0
 11
-17.80500114440918
 21
-1.6850007629394526
 31
0.0
  0
LINE
  5
F4
330
17
100
AcDbEntity
  8
A-WALL
100
AcDbLine
 10
-20.98500114440918
 20
-3.3450007629394527
 30
0.0
 11
-21.96500114440918
 21
-3.3450007629394527
 31
0.0
  0
LINE
  5
F5
330
17
100
AcDbEntity
  8
A-WALL
100
AcDbLine
 10
-20.90500114440918
 20
-3.1050007629394543
 30
0.0
 11
-20.505001144409178
 21
-3.1050007629394543
 31
0.0
  0
LINE
  5
F6
330
17
100
AcDbEntity
  8
A-WALL
100
AcDbLine
 10
-18.725001144409177
 20
-4.525000762939452
 30
0.0
 11
-18.725001144409177
 21
-4.025000762939452
 31
0.0
  0
LINE
  5
F7
330
17
100
AcDbEntity
  8
A-WALL
100
AcDbLine
 10
-24.82500114440918
 20
-4.505000762939453
 30
0.0
 11
-24.92500114440918
 21
-4.085000762939451
 31
0.0
  0
LINE
  5
F8
330
17
100
AcDbEntity
  8
A-WALL
100
AcDbLine
 10
-25.06500114440918
 20
-4.025000762939452
 30
0.0
 11
-25.48500114440918
 21
-4.125000762939454
 31
0.0
  0
LINE
  5
F9
330
17
100
AcDbEntity
  8
A-WALL
100
AcDbLine
 10
-25.52500114440918
 20
-1.1850007629394526
 30
0.0
 11
-25.52500114440918
 21
-2.4850007629394533
 31
0.0
  0
LINE
  5
FA
330
17
100
AcDbEntity
  8
A-WALL
100
AcDbLine
 10
-23.505001144409178
 20
-0.545000762939452
 30
0.0
 11
-24.12500114440918
 21
-0.545000762939452
 31
0.0
  0
LINE
  5
FB
330
17
100
AcDbEntity
  8
A-WALL
100
AcDbLine
 10
-24.48500114440918
 20
-2.4050007629394514
 30
0.0
 11
-23.90500114440918
 21
-2.4050007629394514
 31
0.0
  0
LINE
  5
FC
330
17
100
AcDbEntity
  8
A-WALL
100
AcDbLine
 10
-23.48500114440918
 20
-4.405000762939451
 30
0.0
 11
-23.06500114440918
 21
-4.405000762939451
 31
0.0
  0
LINE
  5
FD
330
17
100
AcDbEntity
  8
A-WALL
100
AcDbLine
 10
-23.30500114440918
 20
-4.705000762939452
 30
0.0
 11
-24.06500114440918
 21
-4.705000762939452
 31
0.0
  0
LINE
  5
FE
330
17
100
AcDbEntity
  8
A-WALL
100
AcDbLine
 10
-24.30500114440918
 20
-4.665000762939453
 30
0.0
 11
-24.80500114440918
 21
-4.665000762939453
 31
0.0
  0
LINE
  5
FF
330
17
100
AcDbEntity
  8
A-WALL
100
AcDbLine
 10
-27.14500114440918
 20
-6.205000762939452
 30
0.0
 11
-27.56500114440918
 21
-6.205000762939452
 31
0.0
  0
LINE
  5
100
330
17
100
AcDbEntity
  8
A-WALL
100
AcDbLine
 10
-27.665001144409178
 20
-6.085000762939451
 30
0.0
 11
-27.14500114440918
 21
-6.225000762939452
 31
0.0
  0
LINE
  5
101
330
17
100
AcDbEntity
  8
A-WALL
100
AcDbLine
 10
-28.68500114440918
 20
-4.025000762939452
 30
0.0
 11
-28.68500114440918
 21
-4.765000762939454
 31
0.0
  0
LINE
  5
102
330
17
100
AcDbEntity
  8
A-WALL
100
AcDbLine
 10
-26.40500114440918
 20
-4.645000762939453
 30
0.0
 11
-26.40500114440918
 21
-5.265000762939454
 31
0.0
  0
LINE
  5
103
330
17
100
AcDbEntity
  8
A-WALL
100
AcDbLine
 10
-26.28500114440918
 20
-5.8050007629394536
 30
0.0
 11
-26.28500114440918
 21
-5.285000762939454
 31
0.0
  0
LINE
  5
104
330
17
100
AcDbEntity
  8
A-WALL
100
AcDbLine
 10
-17.40500114440918
 20
-6.465000762939454
 30
0.0
 11
-17.40500114440918
 21
-6.885000762939452
 31
0.0
  0
LINE
  5
105
330
17
100
AcDbEntity
  8
A-WALL
100
AcDbLine
 10
-14.00500114440918
 20
-6.8050007629394536
 30
0.0
 11
-14.00500114440918
 21
-6.405000762939451
 31
0.0
  0
LINE
  5
106
330
17
100
AcDbEntity
  8
A-WALL
100
AcDbLine
 10
-20.08500114440918
 20
-6.3050007629394536
 30
0.0
 11
-20.24500114440918
 21
-7.185000762939453
 31
0.0
  0
LINE
  5
107
330
17
100
AcDbEntity
  8
A-WALL
100
AcDbLine
 10
-18.32500114440918
 20
-9.225000762939452
 30
0.0
 11
-18.32500114440918
 21
-8.805000762939454
 31
0.0
  0
LINE
  5
108
330
17
100
AcDbEntity
  8
A-WALL
100
AcDbLine
 10
-18.30500114440918
 20
-8.805000762939454
 30
0.0
 11
-18.30500114440918
 21
-9.225000762939452
 31
0.0
  0
LINE
  5
109
330
17
100
AcDbEntity
  8
A-WALL
100
AcDbLine
 10
-17.84500114440918
 20
-11.685000762939453
 30
0.0
 11
-17.84500114440918
 21
-10.445000762939452
 31
0.0
  0
LINE
  5
10A
330
17
100
AcDbEntity
  8
A-WALL
100
AcDbLine
 10
-3.8850011444091805
 20
-11.405000762939453
 30
0.0
 11
-4.42500114440918
 21
-11.405000762939453
 31
0.0
  0
LINE
  5
10B
330
17
100
AcDbEntity
  8
A-WALL
100
AcDbLine
 10
15.734998855590824
 20
-12.225000762939453
 30
0.0
 11
16.61499885559082
 21
-11.825000762939453
 31
0.0
  0
LINE
  5
10C
330
17
100
AcDbEntity
  8
A-WALL
100
AcDbLine
 10
-21.58500114440918
 20
-12.685000762939453
 30
0.0
 11
-21.92500114440918
 21
-12.985000762939453
 31
0.0
  0
LINE
  5
10D
330
17
100
AcDbEntity
  8
A-WALL
100
AcDbLine
 10
-3.8850011444091805
 20
-13.265000762939453
 30
0.0
 11
-3.4850011444091784
 21
-13.265000762939453
 31
0.0
  0
LINE
  5
10E
330
17
100
AcDbEntity
  8
A-WALL
100
AcDbLine
 10
16.57499885559082
 20
-13.225000762939453
 30
0.0
 11
16.194998855590818
 21
-13.425000762939453
 31
0.0
  0
LINE
  5
10F
330
17
100
AcDbEntity
  8
A-WALL
100
AcDbLine
 10
-21.32500114440918
 20
-14.085000762939453
 30
0.0
 11
-20.74500114440918
 21
-13.885000762939454
 31
0.0
  0
LINE
  5
110
330
17
100
AcDbEntity
  8
A-WALL
100
AcDbLine
 10
-20.92500114440918
 20
-13.925000762939453
 30
0.0
 11
-21.24500114440918
 21
-14.185000762939453
 31
0.0
  0
LINE
  5
111
330
17
100
AcDbEntity
  8
A-WALL
100
AcDbLine
 10
-27.14500114440918
 20
-14.385000762939454
 30
0.0
 11
-27.14500114440918
 21
-14.985000762939453
 31
0.0
  0
LINE
  5
112
330
17
100
AcDbEntity
  8
A-WALL
100
AcDbLine
 10
-22.40500114440918
 20
-15.005000762939453
 30
0.0
 11
-22.30500114440918
 21
-14.485000762939453
 31
0.0
  0
LINE
  5
113
330
17
100
AcDbEntity
  8
A-WALL
100
AcDbLine
 10
-22.32500114440918
 20
-14.485000762939453
 30
0.0
 11
-22.32500114440918
 21
-14.905000762939453
 31
0.0
  0
LINE
  5
114
330
17
100
AcDbEntity
  8
A-WALL
100
AcDbLine
 10
-24.78500114440918
 20
-13.885000762939454
 30
0.0
 11
-24.78500114440918
 21
-14.505000762939453
 31
0.0
  0
LINE
  5
115
330
17
100
AcDbEntity
  8
A-WALL
100
AcDbLine
 10
-24.60500114440918
 20
-13.065000762939453
 30
0.0
 11
-24.60500114440918
 21
-12.625000762939452
 31
0.0
  0
LINE
  5
116
330
17
100
AcDbEntity
  8
A-WALL
100
AcDbLine
 10
-24.52500114440918
 20
-12.565000762939453
 30
0.0
 11
-24.52500114440918
 21
-11.925000762939453
 31
0.0
  0
LINE
  5
117
330
17
100
AcDbEntity
  8
A-WALL
100
AcDbLine
 10
-24.88500114440918
 20
-9.985000762939453
 30
0.0
 11
-25.40500114440918
 21
-10.125000762939452
 31
0.0
  0
LINE
  5
118
330
17
100
AcDbEntity
  8
A-WALL
100
AcDbLine
 10
-25.32500114440918
 20
-8.845000762939453
 30
0.0
 11
-25.32500114440918
 21
-9.365000762939452
 31
0.0
  0
LINE
  5
119
330
17
100
AcDbEntity
  8
A-WALL
100
AcDbLine
 10
-26.20500114440918
 20
-5.865000762939452
 30
0.0
 11
-25.14500114440918
 21
-5.865000762939452
 31
0.0
  0
LINE
  5
11A
330
17
100
AcDbEntity
  8
A-WALL
100
AcDbLine
 10
-19.505001144409178
 20
2.414999237060549
 30
0.0
 11
-20.08500114440918
 21
2.414999237060549
 31
0.0
  0
LINE
  5
11B
330
17
100
AcDbEntity
  8
A-WALL
100
AcDbLine
 10
-20.24500114440918
 20
5.614999237060548
 30
0.0
 11
-20.92500114440918
 21
5.814999237060547
 31
0.0
  0
LINE
  5
11C
330
17
100
AcDbEntity
  8
A-WALL
100
AcDbLine
 10
-19.56500114440918
 20
7.214999237060546
 30
0.0
 11
-19.56500114440918
 21
5.794999237060548
 31
0.0
  0
LINE
  5
11D
330
17
100
AcDbEntity
  8
A-WALL
100
AcDbLine
 10
-19.44500114440918
 20
4.974999237060548
 30
0.0
 11
-19.44500114440918
 21
4.1949992370605464
 31
0.0
  0
LINE
  5
11E
330
17
100
AcDbEntity
  8
A-WALL
100
AcDbLine
 10
-19.42500114440918
 20
2.1949992370605464
 30
0.0
 11
-19.42500114440918
 21
3.8949992370605457
 31
0.0
  0
LINE
  5
11F
330
17
100
AcDbEntity
  8
A-WALL
100
AcDbLine
 10
-23.30500114440918
 20
-8.505000762939453
 30
0.0
 11
-23.74500114440918
 21
-8.505000762939453
 31
0.0
  0
LINE
  5
120
330
17
100
AcDbEntity
  8
A-WALL
100
AcDbLine
 10
-28.32500114440918
 20
-13.805000762939454
 30
0.0
 11
-28.32500114440918
 21
-13.165000762939453
 31
0.0
  0
LINE
  5
121
330
17
100
AcDbEntity
  8
A-WALL
100
AcDbLine
 10
-15.48500114440918
 20
-11.925000762939453
 30
0.0
 11
-15.48500114440918
 21
-16.72500076293945
 31
0.0
  0
LINE
  5
122
330
17
100
AcDbEntity
  8
A-WALL
100
AcDbLine
 10
-15.42500114440918
 20
-10.505000762939453
 30
0.0
 11
-11.625001144409179
 21
-10.505000762939453
 31
0.0
  0
LINE
  5
123
330
17
100
AcDbEntity
  8
A-WALL
100
AcDbLine
 10
-11.625001144409179
 20
-10.525000762939452
 30
0.0
 11
-11.625001144409179
 21
-12.585000762939453
 31
0.0
  0
LINE
  5
124
330
17
100
AcDbEntity
  8
A-WALL
100
AcDbLine
 10
-11.54500114440918
 20
-16.22500076293945
 30
0.0
 11
-11.54500114440918
 21
-12.785000762939452
 31
0.0
  0
LINE
  5
125
330
17
100
AcDbEntity
  8
A-WALL
100
AcDbLine
 10
-11.525001144409178
 20
-16.44500076293945
 30
0.0
 11
-11.525001144409178
 21
-16.90500076293945
 31
0.0
  0
LINE
  5
126
330
17
100
AcDbEntity
  8
A-WALL
100
AcDbLine
 10
-11.525001144409178
 20
-16.925000762939455
 30
0.0
 11
-15.48500114440918
 21
-16.925000762939455
 31
0.0
  0
LINE
  5
127
330
17
100
AcDbEntity
  8
A-WALL
100
AcDbLine
 10
8.374998855590825
 20
-17.065000762939455
 30
0.0
 11
7.874998855590825
 21
-17.065000762939455
 31
0.0
  0
LINE
  5
128
330
17
100
AcDbEntity
  8
A-WALL
100
AcDbLine
 10
15.71499885559082
 20
-17.025000762939452
 30
0.0
 11
15.29499885559082
 21
-17.025000762939452
 31
0.0
  0
LINE
  5
129
330
17
100
AcDbEntity
  8
A-WALL
100
AcDbLine
 10
-21.98500114440918
 20
-16.90500076293945
 30
0.0
 11
-22.12500114440918
 21
-17.645000762939453
 31
0.0
  0
LINE
  5
12A
330
17
100
AcDbEntity
  8
A-WALL
100
AcDbLine
 10
-20.505001144409178
 20
-18.505000762939453
 30
0.0
 11
-19.88500114440918
 21
-18.505000762939453
 31
0.0
  0
LINE
  5
12B
330
17
100
AcDbEntity
  8
A-WALL
100
AcDbLine
 10
-20.74500114440918
 20
-17.22500076293945
 30
0.0
 11
-20.24500114440918
 21
-17.08500076293945
 31
0.0
  0
LINE
  5
12C
330
17
100
AcDbEntity
  8
A-WALL
100
AcDbLine
 10
-26.30500114440918
 20
-11.725000762939453
 30
0.0
 11
-26.30500114440918
 21
-12.185000762939453
 31
0.0
  0
LINE
  5
12D
330
17
100
AcDbEntity
  8
A-WALL
100
AcDbLine
 10
-20.12500114440918
 20
-19.625000762939454
 30
0.0
 11
-20.24500114440918
 21
-20.205000762939452
 31
0.0
  0
LINE
  5
12E
330
17
100
AcDbEntity
  8
A-WALL
100
AcDbLine
 10
9.494998855590822
 20
-20.205000762939452
 30
0.0
 11
9.494998855590822
 21
-20.805000762939454
 31
0.0
  0
LINE
  5
12F
330
17
100
AcDbEntity
  8
A-WALL
100
AcDbLine
 10
-25.70500114440918
 20
-20.625000762939454
 30
0.0
 11
-25.82500114440918
 21
-21.145000762939453
 31
0.0
  0
LINE
  5
130
330
17
100
AcDbEntity
  8
A-WALL
100
AcDbLine
 10
-19.40500114440918
 20
-20.72500076293945
 30
0.0
 11
-19.28500114440918
 21
-20.305000762939454
 31
0.0
  0
LINE
  5
131
330
17
100
AcDbEntity
  8
A-WALL
100
AcDbLine
 10
-28.32500114440918
 20
-18.22500076293945
 30
0.0
 11
-27.90500114440918
 21
-18.22500076293945
 31
0.0
  0
LINE
  5
132
330
17
100
AcDbEntity
  8
A-WALL
100
AcDbLine
 10
-27.72500114440918
 20
-20.445000762939454
 30
0.0
 11
-27.30500114440918
 21
-20.445000762939454
 31
0.0
  0
LINE
  5
133
330
17
100
AcDbEntity
  8
A-WALL
100
AcDbLine
 10
-27.505001144409178
 20
-20.465000762939454
 30
0.0
 11
-27.92500114440918
 21
-20.465000762939454
 31
0.0
  0
LINE
  5
134
330
17
100
AcDbEntity
  8
A-WALL
100
AcDbLine
 10
11.334998855590818
 20
-21.72500076293945
 30
0.0
 11
11.334998855590818
 21
-22.465000762939454
 31
0.0
  0
LINE
  5
135
330
17
100
AcDbEntity
  8
A-WALL
100
AcDbLine
 10
11.21499885559082
 20
-21.625000762939454
 30
0.0
 11
11.79499885559082
 21
-21.625000762939454
 31
0.0
  0
LINE
  5
136
330
17
100
AcDbEntity
  8
A-WALL
100
AcDbLine
 10
12.034998855590821
 20
-21.525000762939452
 30
0.0
 11
12.034998855590821
 21
-20.58500076293945
 31
0.0
  0
LINE
  5
137
330
17
100
AcDbEntity
  8
A-WALL
100
AcDbLine
 10
13.274998855590823
 20
-19.40500076293945
 30
0.0
 11
13.274998855590823
 21
-18.90500076293945
 31
0.0
  0
LINE
  5
138
330
17
100
AcDbEntity
  8
A-WALL
100
AcDbLine
 10
26.57499885559082
 20
-7.525000762939452
 30
0.0
 11
22.03499885559082
 21
-7.525000762939452
 31
0.0
  0
LINE
  5
139
330
17
100
AcDbEntity
  8
A-WALL
100
AcDbLine
 10
21.85499885559082
 20
-7.725000762939452
 30
0.0
 11
21.094998855590823
 21
-7.725000762939452
 31
0.0
  0
LINE
  5
13A
330
17
100
AcDbEntity
  8
A-WALL
100
AcDbLine
 10
11.474998855590819
 20
-7.425000762939451
 30
0.0
 11
11.474998855590819
 21
-4.425000762939451
 31
0.0
  0
LINE
  5
13B
330
17
100
AcDbEntity
  8
A-WALL
100
AcDbLine
 10
11.474998855590819
 20
-4.465000762939454
 30
0.0
 11
12.354998855590821
 21
-4.465000762939454
 31
0.0
  0
LINE
  5
13C
330
17
100
AcDbEntity
  8
A-WALL
100
AcDbLine
 10
8.274998855590823
 20
-4.705000762939452
 30
0.0
 11
8.274998855590823
 21
-7.185000762939453
 31
0.0
  0
LINE
  5
13D
330
17
100
AcDbEntity
  8
A-WALL
100
AcDbLine
 10
9.034998855590821
 20
-7.185000762939453
 30
0.0
 11
10.674998855590822
 21
-7.185000762939453
 31
0.0
  0
LINE
  5
13E
330
17
100
AcDbEntity
  8
A-WALL
100
AcDbLine
 10
6.594998855590823
 20
-7.645000762939453
 30
0.0
 11
13.374998855590825
 21
-7.645000762939453
 31
0.0
  0
LINE
  5
13F
330
17
100
AcDbEntity
  8
A-WALL
100
AcDbLine
 10
10.414998855590824
 20
-8.385000762939452
 30
0.0
 11
9.93499885559082
 21
-8.385000762939452
 31
0.0
  0
LINE
  5
140
330
17
100
AcDbEntity
  8
A-WALL
100
AcDbLine
 10
9.914998855590824
 20
-8.505000762939453
 30
0.0
 11
9.494998855590822
 21
-8.505000762939453
 31
0.0
  0
LINE
  5
141
330
17
100
AcDbEntity
  8
A-WALL
100
AcDbLine
 10
8.954998855590823
 20
-8.545000762939452
 30
0.0
 11
8.29499885559082
 21
-8.545000762939452
 31
0.0
  0
LINE
  5
142
330
17
100
AcDbEntity
  8
A-WALL
100
AcDbLine
 10
6.994998855590822
 20
-8.625000762939454
 30
0.0
 11
6.994998855590822
 21
-9.165000762939453
 31
0.0
  0
LINE
  5
143
330
17
100
AcDbEntity
  8
A-WALL
100
AcDbLine
 10
9.21499885559082
 20
-9.425000762939455
 30
0.0
 11
8.674998855590822
 21
-9.425000762939455
 31
0.0
  0
LINE
  5
144
330
17
100
AcDbEntity
  8
A-WALL
100
AcDbLine
 10
10.094998855590823
 20
-9.685000762939453
 30
0.0
 11
10.474998855590819
 21
-9.325000762939453
 31
0.0
  0
LINE
  5
145
330
17
100
AcDbEntity
  8
A-WALL
100
AcDbLine
 10
10.474998855590819
 20
-9.325000762939453
 30
0.0
 11
10.474998855590819
 21
-10.805000762939454
 31
0.0
  0
LINE
  5
146
330
17
100
AcDbEntity
  8
A-WALL
100
AcDbLine
 10
10.634998855590823
 20
-12.505000762939453
 30
0.0
 11
10.634998855590823
 21
-11.845000762939453
 31
0.0
  0
LINE
  5
147
330
17
100
AcDbEntity
  8
A-WALL
100
AcDbLine
 10
10.674998855590822
 20
-12.705000762939452
 30
0.0
 11
10.674998855590822
 21
-13.165000762939453
 31
0.0
  0
LINE
  5
148
330
17
100
AcDbEntity
  8
A-WALL
100
AcDbLine
 10
10.79499885559082
 20
-15.285000762939452
 30
0.0
 11
10.79499885559082
 21
-13.785000762939452
 31
0.0
  0
LINE
  5
149
330
17
100
AcDbEntity
  8
A-WALL
100
AcDbLine
 10
10.57499885559082
 20
-15.705000762939452
 30
0.0
 11
10.674998855590822
 21
-16.12500076293945
 31
0.0
  0
LINE
  5
14A
330
17
100
AcDbEntity
  8
A-WALL
100
AcDbLine
 10
10.594998855590823
 20
-19.785000762939454
 30
0.0
 11
10.594998855590823
 21
-20.205000762939452
 31
0.0
  0
LINE
  5
14B
330
17
100
AcDbEntity
  8
A-WALL
100
AcDbLine
 10
10.11499885559082
 20
-19.125000762939454
 30
0.0
 11
9.974998855590819
 21
-18.705000762939452
 31
0.0
  0
LINE
  5
14C
330
17
100
AcDbEntity
  8
A-WALL
100
AcDbLine
 10
9.61499885559082
 20
-16.705000762939452
 30
0.0
 11
9.61499885559082
 21
-17.645000762939453
 31
0.0
  0
LINE
  5
14D
330
17
100
AcDbEntity
  8
A-WALL
100
AcDbLine
 10
9.75499885559082
 20
-15.685000762939453
 30
0.0
 11
9.75499885559082
 21
-15.145000762939453
 31
0.0
  0
LINE
  5
14E
330
17
100
AcDbEntity
  8
A-WALL
100
AcDbLine
 10
8.61499885559082
 20
-16.665000762939453
 30
0.0
 11
9.174998855590822
 21
-16.665000762939453
 31
0.0
  0
LINE
  5
14F
330
17
100
AcDbEntity
  8
A-WALL
100
AcDbLine
 10
8.554998855590824
 20
-16.825000762939453
 30
0.0
 11
8.07499885559082
 21
-16.825000762939453
 31
0.0
  0
LINE
  5
150
330
17
100
AcDbEntity
  8
A-WALL
100
AcDbLine
 10
7.494998855590822
 20
-19.325000762939453
 30
0.0
 11
6.814998855590822
 21
-19.08500076293945
 31
0.0
  0
LINE
  5
151
330
17
100
AcDbEntity
  8
A-WALL
100
AcDbLine
 10
6.494998855590822
 20
-18.825000762939453
 30
0.0
 11
6.814998855590822
 21
-19.08500076293945
 31
0.0
  0
LINE
  5
152
330
17
100
AcDbEntity
  8
A-WALL
100
AcDbLine
 10
11.07499885559082
 20
-21.985000762939453
 30
0.0
 11
10.474998855590819
 21
-21.985000762939453
 31
0.0
  0
LINE
  5
153
330
17
100
AcDbEntity
  8
A-WALL
100
AcDbLine
 10
10.814998855590822
 20
-22.465000762939454
 30
0.0
 11
10.21499885559082
 21
-22.325000762939453
 31
0.0
  0
LINE
  5
154
330
17
100
AcDbEntity
  8
A-WALL
100
AcDbLine
 10
4.134998855590823
 20
-21.505000762939453
 30
0.0
 11
2.9749988555908224
 21
-21.505000762939453
 31
0.0
  0
LINE
  5
155
330
17
100
AcDbEntity
  8
A-WALL
100
AcDbLine
 10
2.9549988555908193
 20
-21.385000762939452
 30
0.0
 11
2.5149988555908216
 21
-21.385000762939452
 31
0.0
  0
LINE
  5
156
330
17
100
AcDbEntity
  8
A-WALL
100
AcDbLine
 10
2.494998855590822
 20
-21.305000762939454
 30
0.0
 11
1.6149988555908195
 21
-21.305000762939454
 31
0.0
  0
LINE
  5
157
330
17
100
AcDbEntity
  8
A-WALL
100
AcDbLine
 10
1.5949988555908199
 20
-21.08500076293945
 30
0.0
 11
-1.0250011444091776
 21
-21.08500076293945
 31
0.0
  0
LINE
  5
158
330
17
100
AcDbEntity
  8
A-WALL
100
AcDbLine
 10
-1.1050011444091794
 20
-20.705000762939452
 30
0.0
 11
-2.8850011444091805
 21
-20.705000762939452
 31
0.0
  0
LINE
  5
159
330
17
100
AcDbEntity
  8
A-WALL
100
AcDbLine
 10
-4.045001144409181
 20
-20.505000762939453
 30
0.0
 11
-5.325001144409178
 21
-20.505000762939453
 31
0.0
  0
LINE
  5
15A
330
17
100
AcDbEntity
  8
A-WALL
100
AcDbLine
 10
-5.40500114440918
 20
-20.305000762939454
 30
0.0
 11
-5.985001144409178
 21
-20.305000762939454
 31
0.0
  0
LINE
  5
15B
330
17
100
AcDbEntity
  8
A-WALL
100
AcDbLine
 10
-6.005001144409178
 20
-20.08500076293945
 30
0.0
 11
-9.985001144409178
 21
-20.08500076293945
 31
0.0
  0
LINE
  5
15C
330
17
100
AcDbEntity
  8
A-WALL
100
AcDbLine
 10
-9.985001144409178
 20
-19.105000762939454
 30
0.0
 11
-10.40500114440918
 21
-19.105000762939454
 31
0.0
  0
LINE
  5
15D
330
17
100
AcDbEntity
  8
A-WALL
100
AcDbLine
 10
-11.10500114440918
 20
-19.825000762939453
 30
0.0
 11
-12.22500114440918
 21
-19.825000762939453
 31
0.0
  0
LINE
  5
15E
330
17
100
AcDbEntity
  8
A-WALL
100
AcDbLine
 10
-12.24500114440918
 20
-19.665000762939453
 30
0.0
 11
-14.52500114440918
 21
-19.665000762939453
 31
0.0
  0
LINE
  5
15F
330
17
100
AcDbEntity
  8
A-WALL
100
AcDbLine
 10
-16.32500114440918
 20
-19.385000762939452
 30
0.0
 11
-16.32500114440918
 21
-18.845000762939453
 31
0.0
  0
LINE
  5
160
330
17
100
AcDbEntity
  8
A-WALL
100
AcDbLine
 10
-16.685001144409178
 20
-18.805000762939454
 30
0.0
 11
-17.24500114440918
 21
-19.125000762939454
 31
0.0
  0
LINE
  5
161
330
17
100
AcDbEntity
  8
A-WALL
100
AcDbLine
 10
-17.24500114440918
 20
-7.645000762939453
 30
0.0
 11
-17.24500114440918
 21
-8.285000762939454
 31
0.0
  0
LINE
  5
162
330
17
100
AcDbEntity
  8
A-WALL
100
AcDbLine
 10
-17.10500114440918
 20
-5.245000762939451
 30
0.0
 11
-16.08500114440918
 21
-5.245000762939451
 31
0.0
  0
LINE
  5
163
330
17
100
AcDbEntity
  8
A-WALL
100
AcDbLine
 10
-17.28500114440918
 20
-5.125000762939454
 30
0.0
 11
-17.28500114440918
 21
-3.7250007629394517
 31
0.0
  0
LINE
  5
164
330
17
100
AcDbEntity
  8
A-WALL
100
AcDbLine
 10
-18.74500114440918
 20
-8.305000762939454
 30
0.0
 11
-19.26500114440918
 21
-8.305000762939454
 31
0.0
  0
LINE
  5
165
330
17
100
AcDbEntity
  8
A-WALL
100
AcDbLine
 10
-19.26500114440918
 20
-15.145000762939453
 30
0.0
 11
-19.26500114440918
 21
-15.725000762939453
 31
0.0
  0
LINE
  5
166
330
17
100
AcDbEntity
  8
A-WALL
100
AcDbLine
 10
-19.56500114440918
 20
-10.285000762939452
 30
0.0
 11
-19.56500114440918
 21
-9.345000762939453
 31
0.0
  0
LINE
  5
167
330
17
100
AcDbEntity
  8
A-WALL
100
AcDbLine
 10
-18.045001144409177
 20
-6.665000762939453
 30
0.0
 11
-17.92500114440918
 21
-6.225000762939452
 31
0.0
  0
LINE
  5
168
330
17
100
AcDbEntity
  8
A-WALL
100
AcDbLine
 10
-16.78500114440918
 20
-1.545000762939452
 30
0.0
 11
-15.885001144409179
 21
-1.545000762939452
 31
0.0
  0
LINE
  5
169
330
17
100
AcDbEntity
  8
A-WALL
100
AcDbLine
 10
-15.90500114440918
 20
-1.5850007629394511
 30
0.0
 11
-15.90500114440918
 21
-3.4050007629394514
 31
0.0
  0
LINE
  5
16A
330
17
100
AcDbEntity
  8
A-WALL
100
AcDbLine
 10
-15.82500114440918
 20
-3.5250007629394524
 30
0.0
 11
-15.82500114440918
 21
-4.125000762939454
 31
0.0
  0
LINE
  5
16B
330
17
100
AcDbEntity
  8
A-WALL
100
AcDbLine
 10
-15.82500114440918
 20
-4.145000762939453
 30
0.0
 11
-16.78500114440918
 21
-4.145000762939453
 31
0.0
  0
LINE
  5
16C
330
17
100
AcDbEntity
  8
A-WALL
100
AcDbLine
 10
-17.24500114440918
 20
-5.145000762939453
 30
0.0
 11
-16.60500114440918
 21
-5.145000762939453
 31
0.0
  0
LINE
  5
16D
330
17
100
AcDbEntity
  8
A-WALL
100
AcDbLine
 10
-15.06500114440918
 20
-4.885000762939452
 30
0.0
 11
-14.625001144409179
 21
-4.885000762939452
 31
0.0
  0
LINE
  5
16E
330
17
100
AcDbEntity
  8
A-WALL
100
AcDbLine
 10
-16.16500114440918
 20
-6.685000762939453
 30
0.0
 11
-16.16500114440918
 21
-7.185000762939453
 31
0.0
  0
LINE
  5
16F
330
17
100
AcDbEntity
  8
A-WALL
100
AcDbLine
 10
-16.78500114440918
 20
-6.505000762939453
 30
0.0
 11
-16.685001144409178
 21
-6.985000762939453
 31
0.0
  0
LINE
  5
170
330
17
100
AcDbEntity
  8
A-WALL
100
AcDbLine
 10
-15.56500114440918
 20
-7.505000762939453
 30
0.0
 11
-14.84500114440918
 21
-7.505000762939453
 31
0.0
  0
LINE
  5
171
330
17
100
AcDbEntity
  8
A-WALL
100
AcDbLine
 10
-14.52500114440918
 20
-7.585000762939451
 30
0.0
 11
-14.92500114440918
 21
-7.725000762939452
 31
0.0
  0
LINE
  5
172
330
17
100
AcDbEntity
  8
A-WALL
100
AcDbLine
 10
-16.74500114440918
 20
-18.58500076293945
 30
0.0
 11
-16.74500114440918
 21
-17.805000762939454
 31
0.0
  0
LINE
  5
173
330
17
100
AcDbEntity
  8
A-WALL
100
AcDbLine
 10
-16.505001144409178
 20
-17.425000762939455
 30
0.0
 11
-10.825001144409178
 21
-17.425000762939455
 31
0.0
  0
LINE
  5
174
330
17
100
AcDbEntity
  8
A-WALL
100
AcDbLine
 10
-10.505001144409178
 20
-17.945000762939454
 30
0.0
 11
-10.005001144409178
 21
-17.945000762939454
 31
0.0
  0
LINE
  5
175
330
17
100
AcDbEntity
  8
A-WALL
100
AcDbLine
 10
-10.005001144409178
 20
-16.825000762939453
 30
0.0
 11
-10.005001144409178
 21
-13.425000762939453
 31
0.0
  0
LINE
  5
176
330
17
100
AcDbEntity
  8
A-WALL
100
AcDbLine
 10
-8.70500114440918
 20
-13.225000762939453
 30
0.0
 11
-8.70500114440918
 21
-12.725000762939453
 31
0.0
  0
LINE
  5
177
330
17
100
AcDbEntity
  8
A-WALL
100
AcDbLine
 10
-6.22500114440918
 20
-8.605000762939454
 30
0.0
 11
-4.985001144409178
 21
-8.605000762939454
 31
0.0
  0
LINE
  5
178
330
17
100
AcDbEntity
  8
A-WALL
100
AcDbLine
 10
-4.90500114440918
 20
-8.805000762939454
 30
0.0
 11
-4.90500114440918
 21
-12.625000762939452
 31
0.0
  0
LINE
  5
179
330
17
100
AcDbEntity
  8
A-WALL
100
AcDbLine
 10
-7.40500114440918
 20
-12.685000762939453
 30
0.0
 11
-7.40500114440918
 21
-13.225000762939453
 31
0.0
  0
LINE
  5
17A
330
17
100
AcDbEntity
  8
A-WALL
100
AcDbLine
 10
-5.825001144409178
 20
-13.525000762939452
 30
0.0
 11
-4.92500114440918
 21
-13.525000762939452
 31
0.0
  0
LINE
  5
17B
330
17
100
AcDbEntity
  8
A-WALL
100
AcDbLine
 10
-4.92500114440918
 20
-13.525000762939452
 30
0.0
 11
-4.92500114440918
 21
-14.825000762939453
 31
0.0
  0
LINE
  5
17C
330
17
100
AcDbEntity
  8
A-WALL
100
AcDbLine
 10
-5.105001144409179
 20
-14.985000762939453
 30
0.0
 11
-5.985001144409178
 21
-14.985000762939453
 31
0.0
  0
LINE
  5
17D
330
17
100
AcDbEntity
  8
A-WALL
100
AcDbLine
 10
-4.92500114440918
 20
-15.225000762939453
 30
0.0
 11
-4.92500114440918
 21
-16.705000762939452
 31
0.0
  0
LINE
  5
17E
330
17
100
AcDbEntity
  8
A-WALL
100
AcDbLine
 10
-4.92500114440918
 20
-16.705000762939452
 30
0.0
 11
-5.625001144409179
 21
-16.705000762939452
 31
0.0
  0
LINE
  5
17F
330
17
100
AcDbEntity
  8
A-WALL
100
AcDbLine
 10
-8.485001144409178
 20
-16.805000762939454
 30
0.0
 11
-8.485001144409178
 21
-17.325000762939453
 31
0.0
  0
LINE
  5
180
330
17
100
AcDbEntity
  8
A-WALL
100
AcDbLine
 10
-3.1850011444091777
 20
-17.045000762939452
 30
0.0
 11
-2.1850011444091777
 21
-17.045000762939452
 31
0.0
  0
LINE
  5
181
330
17
100
AcDbEntity
  8
A-WALL
100
AcDbLine
 10
-1.9850011444091784
 20
-17.005000762939453
 30
0.0
 11
-1.9850011444091784
 21
-15.985000762939453
 31
0.0
  0
LINE
  5
182
330
17
100
AcDbEntity
  8
A-WALL
100
AcDbLine
 10
-1.9850011444091784
 20
-15.985000762939453
 30
0.0
 11
-1.2250011444091804
 21
-15.985000762939453
 31
0.0
  0
LINE
  5
183
330
17
100
AcDbEntity
  8
A-WALL
100
AcDbLine
 10
-1.2050011444091808
 20
-15.985000762939453
 30
0.0
 11
-1.2050011444091808
 21
-8.045000762939452
 31
0.0
  0
LINE
  5
184
330
17
100
AcDbEntity
  8
A-WALL
100
AcDbLine
 10
-1.1850011444091777
 20
-8.025000762939452
 30
0.0
 11
-3.9850011444091784
 21
-8.025000762939452
 31
0.0
  0
LINE
  5
185
330
17
100
AcDbEntity
  8
A-WALL
100
AcDbLine
 10
-4.285001144409179
 20
-7.905000762939451
 30
0.0
 11
-5.72500114440918
 21
-7.905000762939451
 31
0.0
  0
LINE
  5
186
330
17
100
AcDbEntity
  8
A-WALL
100
AcDbLine
 10
-6.005001144409178
 20
-7.445000762939454
 30
0.0
 11
-7.92500114440918
 21
-7.445000762939454
 31
0.0
  0
LINE
  5
187
330
17
100
AcDbEntity
  8
A-WALL
100
AcDbLine
 10
-6.325001144409178
 20
-5.485000762939453
 30
0.0
 11
-6.22500114440918
 21
-5.005000762939453
 31
0.0
  0
LINE
  5
188
330
17
100
AcDbEntity
  8
A-WALL
100
AcDbLine
 10
-7.8850011444091805
 20
-4.985000762939453
 30
0.0
 11
-0.6850011444091777
 21
-4.985000762939453
 31
0.0
  0
LINE
  5
189
330
17
100
AcDbEntity
  8
A-WALL
100
AcDbLine
 10
-0.1850011444091777
 20
0.6149992370605482
 30
0.0
 11
-2.8850011444091805
 21
0.6149992370605482
 31
0.0
  0
LINE
  5
18A
330
17
100
AcDbEntity
  8
A-WALL
100
AcDbLine
 10
-2.90500114440918
 20
0.6149992370605482
 30
0.0
 11
-2.90500114440918
 21
2.074999237060549
 31
0.0
  0
LINE
  5
18B
330
17
100
AcDbEntity
  8
A-WALL
100
AcDbLine
 10
-2.9250011444091797
 20
2.0949992370605486
 30
0.0
 11
-2.4450011444091793
 21
2.0949992370605486
 31
0.0
  0
LINE
  5
18C
330
17
100
AcDbEntity
  8
A-WALL
100
AcDbLine
 10
-5.5250011444091776
 20
7.394999237060546
 30
0.0
 11
-5.5250011444091776
 21
6.51499923706055
 31
0.0
  0
LINE
  5
18D
330
17
100
AcDbEntity
  8
A-WALL
100
AcDbLine
 10
-9.325001144409178
 20
4.414999237060549
 30
0.0
 11
-9.825001144409178
 21
4.414999237060549
 31
0.0
  0
LINE
  5
18E
330
17
100
AcDbEntity
  8
A-WALL
100
AcDbLine
 10
-9.345001144409178
 20
4.874999237060546
 30
0.0
 11
-9.805001144409179
 21
4.774999237060548
 31
0.0
  0
LINE
  5
18F
330
17
100
AcDbEntity
  8
A-WALL
100
AcDbLine
 10
-10.72500114440918
 20
4.014999237060547
 30
0.0
 11
-10.72500114440918
 21
6.454999237060548
 31
0.0
  0
LINE
  5
190
330
17
100
AcDbEntity
  8
A-WALL
100
AcDbLine
 10
-10.685001144409178
 20
3.914999237060549
 30
0.0
 11
-10.025001144409178
 21
3.914999237060549
 31
0.0
  0
LINE
  5
191
330
17
100
AcDbEntity
  8
A-WALL
100
AcDbLine
 10
-11.08500114440918
 20
9.51499923706055
 30
0.0
 11
-11.08500114440918
 21
10.094999237060549
 31
0.0
  0
LINE
  5
192
330
17
100
AcDbEntity
  8
A-WALL
100
AcDbLine
 10
-11.88500114440918
 20
10.73499923706055
 30
0.0
 11
-11.88500114440918
 21
10.314999237060547
 31
0.0
  0
LINE
  5
193
330
17
100
AcDbEntity
  8
A-WALL
100
AcDbLine
 10
-11.40500114440918
 20
6.494999237060547
 30
0.0
 11
-16.42500114440918
 21
6.494999237060547
 31
0.0
  0
LINE
  5
194
330
17
100
AcDbEntity
  8
A-WALL
100
AcDbLine
 10
-16.42500114440918
 20
6.51499923706055
 30
0.0
 11
-16.42500114440918
 21
7.274999237060548
 31
0.0
  0
LINE
  5
195
330
17
100
AcDbEntity
  8
A-WALL
100
AcDbLine
 10
-16.52500114440918
 20
10.814999237060547
 30
0.0
 11
-16.52500114440918
 21
11.594999237060549
 31
0.0
  0
LINE
  5
196
330
17
100
AcDbEntity
  8
A-WALL
100
AcDbLine
 10
-16.505001144409178
 20
11.994999237060547
 30
0.0
 11
-16.505001144409178
 21
13.55499923706055
 31
0.0
  0
LINE
  5
197
330
17
100
AcDbEntity
  8
A-WALL
100
AcDbLine
 10
-16.505001144409178
 20
14.574999237060545
 30
0.0
 11
-11.40500114440918
 21
14.574999237060545
 31
0.0
  0
LINE
  5
198
330
17
100
AcDbEntity
  8
A-WALL
100
AcDbLine
 10
-10.94500114440918
 20
15.794999237060544
 30
0.0
 11
-11.40500114440918
 21
15.794999237060544
 31
0.0
  0
LINE
  5
199
330
17
100
AcDbEntity
  8
A-WALL
100
AcDbLine
 10
-11.42500114440918
 20
15.634999237060548
 30
0.0
 11
-16.90500114440918
 21
15.634999237060548
 31
0.0
  0
LINE
  5
19A
330
17
100
AcDbEntity
  8
A-WALL
100
AcDbLine
 10
-16.92500114440918
 20
15.614999237060545
 30
0.0
 11
-16.92500114440918
 21
18.074999237060545
 31
0.0
  0
LINE
  5
19B
330
17
100
AcDbEntity
  8
A-WALL
100
AcDbLine
 10
-16.685001144409178
 20
18.394999237060546
 30
0.0
 11
-11.42500114440918
 21
18.394999237060546
 31
0.0
  0
LINE
  5
19C
330
17
100
AcDbEntity
  8
A-WALL
100
AcDbLine
 10
-11.40500114440918
 20
18.214999237060546
 30
0.0
 11
-10.94500114440918
 21
18.214999237060546
 31
0.0
  0
LINE
  5
19D
330
17
100
AcDbEntity
  8
A-WALL
100
AcDbLine
 10
-10.92500114440918
 20
18.454999237060548
 30
0.0
 11
-5.5250011444091776
 21
18.454999237060548
 31
0.0
  0
LINE
  5
19E
330
17
100
AcDbEntity
  8
A-WALL
100
AcDbLine
 10
-5.2650011444091795
 20
18.114999237060545
 30
0.0
 11
-4.845001144409178
 21
18.114999237060545
 31
0.0
  0
LINE
  5
19F
330
17
100
AcDbEntity
  8
A-WALL
100
AcDbLine
 10
-4.785001144409179
 20
18.19499923706055
 30
0.0
 11
-4.785001144409179
 21
18.674999237060547
 31
0.0
  0
LINE
  5
1A0
330
17
100
AcDbEntity
  8
A-WALL
100
AcDbLine
 10
10.534998855590821
 20
18.314999237060547
 30
0.0
 11
11.174998855590822
 21
18.314999237060547
 31
0.0
  0
LINE
  5
1A1
330
17
100
AcDbEntity
  8
A-WALL
100
AcDbLine
 10
11.094998855590823
 20
17.714999237060546
 30
0.0
 11
11.094998855590823
 21
18.294999237060544
 31
0.0
  0
LINE
  5
1A2
330
17
100
AcDbEntity
  8
A-WALL
100
AcDbLine
 10
11.314998855590822
 20
16.37499923706055
 30
0.0
 11
11.174998855590822
 21
15.814999237060547
 31
0.0
  0
LINE
  5
1A3
330
17
100
AcDbEntity
  8
A-WALL
100
AcDbLine
 10
11.674998855590822
 20
18.494999237060547
 30
0.0
 11
16.39499885559082
 21
18.494999237060547
 31
0.0
  0
LINE
  5
1A4
330
17
100
AcDbEntity
  8
A-WALL
100
AcDbLine
 10
16.414998855590824
 20
18.714999237060546
 30
0.0
 11
18.17499885559082
 21
18.714999237060546
 31
0.0
  0
LINE
  5
1A5
330
17
100
AcDbEntity
  8
A-WALL
100
AcDbLine
 10
18.594998855590823
 20
18.65499923706055
 30
0.0
 11
19.11499885559082
 21
18.65499923706055
 31
0.0
  0
LINE
  5
1A6
330
17
100
AcDbEntity
  8
A-WALL
100
AcDbLine
 10
19.43499885559082
 20
18.59499923706055
 30
0.0
 11
22.374998855590825
 21
18.59499923706055
 31
0.0
  0
LINE
  5
1A7
330
17
100
AcDbEntity
  8
A-WALL
100
AcDbLine
 10
22.43499885559082
 20
18.41499923706055
 30
0.0
 11
26.71499885559082
 21
18.41499923706055
 31
0.0
  0
LINE
  5
1A8
330
17
100
AcDbEntity
  8
A-WALL
100
AcDbLine
 10
26.71499885559082
 20
18.41499923706055
 30
0.0
 11
26.71499885559082
 21
17.634999237060548
 31
0.0
  0
LINE
  5
1A9
330
17
100
AcDbEntity
  8
A-WALL
100
AcDbLine
 10
26.814998855590822
 20
17.614999237060545
 30
0.0
 11
26.814998855590822
 21
17.114999237060545
 31
0.0
  0
LINE
  5
1AA
330
17
100
AcDbEntity
  8
A-WALL
100
AcDbLine
 10
26.694998855590825
 20
16.954999237060548
 30
0.0
 11
26.694998855590825
 21
2.414999237060549
 31
0.0
  0
LINE
  5
1AB
330
17
100
AcDbEntity
  8
A-WALL
100
AcDbLine
 10
26.594998855590823
 20
2.2549992370605487
 30
0.0
 11
26.594998855590823
 21
-7.525000762939452
 31
0.0
  0
LINE
  5
1AC
330
17
100
AcDbEntity
  8
A-WALL
100
AcDbLine
 10
-19.16500114440918
 20
-21.645000762939453
 30
0.0
 11
-19.16500114440918
 21
-22.545000762939452
 31
0.0
  0
LINE
  5
1AD
330
17
100
AcDbEntity
  8
A-WALL
100
AcDbLine
 10
-17.90500114440918
 20
-22.985000762939453
 30
0.0
 11
-18.32500114440918
 21
-22.985000762939453
 31
0.0
  0
LINE
  5
1AE
330
17
100
AcDbEntity
  8
A-WALL
100
AcDbLine
 10
-19.24500114440918
 20
-22.72500076293945
 30
0.0
 11
-19.24500114440918
 21
-23.305000762939454
 31
0.0
  0
LINE
  5
1AF
330
17
100
AcDbEntity
  8
A-WALL
100
AcDbLine
 10
-21.92500114440918
 20
-23.785000762939454
 30
0.0
 11
-21.82500114440918
 21
-23.325000762939453
 31
0.0
  0
LINE
  5
1B0
330
17
100
AcDbEntity
  8
A-WALL
100
AcDbLine
 10
-24.32500114440918
 20
-19.945000762939454
 30
0.0
 11
-24.185001144409178
 21
-19.485000762939453
 31
0.0
  0
LINE
  5
1B1
330
17
100
AcDbEntity
  8
A-WALL
100
AcDbLine
 10
-24.16500114440918
 20
-18.705000762939452
 30
0.0
 11
-24.16500114440918
 21
-19.545000762939452
 31
0.0
  0
LINE
  5
1B2
330
17
100
AcDbEntity
  8
A-WALL
100
AcDbLine
 10
-24.20500114440918
 20
-19.885000762939452
 30
0.0
 11
-24.20500114440918
 21
-20.485000762939453
 31
0.0
  0
LINE
  5
1B3
330
17
100
AcDbEntity
  8
A-WALL
100
AcDbLine
 10
-24.24500114440918
 20
-21.125000762939454
 30
0.0
 11
-24.24500114440918
 21
-21.58500076293945
 31
0.0
  0
LINE
  5
1B4
330
17
100
AcDbEntity
  8
A-WALL
100
AcDbLine
 10
-24.185001144409178
 20
-22.825000762939453
 30
0.0
 11
-24.185001144409178
 21
-22.025000762939452
 31
0.0
  0
LINE
  5
1B5
330
17
100
AcDbEntity
  8
A-WALL
100
AcDbLine
 10
-18.60500114440918
 20
-24.805000762939454
 30
0.0
 11
-18.60500114440918
 21
-24.385000762939452
 31
0.0
  0
LINE
  5
1B6
330
17
100
AcDbEntity
  8
A-WALL
100
AcDbLine
 10
-21.72500114440918
 20
-24.965000762939454
 30
0.0
 11
-21.72500114440918
 21
-24.525000762939452
 31
0.0
  0
LINE
  5
1B7
330
17
100
AcDbEntity
  8
A-WALL
100
AcDbLine
 10
-20.24500114440918
 20
-24.645000762939453
 30
0.0
 11
-20.24500114440918
 21
-25.125000762939454
 31
0.0
  0
LINE
  5
1B8
330
17
100
AcDbEntity
  8
A-WALL
100
AcDbLine
 10
-23.98500114440918
 20
-24.705000762939452
 30
0.0
 11
-23.98500114440918
 21
-25.145000762939453
 31
0.0
  0
LINE
  5
1B9
330
17
100
AcDbEntity
  8
A-WALL
100
AcDbLine
 10
-23.64500114440918
 20
-24.805000762939454
 30
0.0
 11
-23.64500114440918
 21
-24.305000762939454
 31
0.0
  0
LINE
  5
1BA
330
17
100
AcDbEntity
  8
A-WALL
100
AcDbLine
 10
-22.40500114440918
 20
-24.645000762939453
 30
0.0
 11
-22.40500114440918
 21
-25.205000762939452
 31
0.0
  0
LINE
  5
1BB
330
17
100
AcDbEntity
  8
A-WALL
100
AcDbLine
 10
-21.48500114440918
 20
-25.205000762939452
 30
0.0
 11
-21.92500114440918
 21
-25.205000762939452
 31
0.0
  0
LINE
  5
1BC
330
17
100
AcDbEntity
  8
A-WALL
100
AcDbLine
 10
-24.92500114440918
 20
-25.085000762939455
 30
0.0
 11
-24.32500114440918
 21
-25.085000762939455
 31
0.0
  0
LINE
  5
1BD
330
17
100
AcDbEntity
  8
A-DOOR
100
AcDbLine
 10
11.295
 20
15.515
 30
0.0
 11
11.295
 21
18.515
 31
0.0
  0
ARC
  5
1BE
330
17
100
AcDbEntity
  8
A-DOOR
100
AcDbCircle
 10
11.295
 20
15.515
 30
0.0
 40
3.0
100
AcDbArc
 50
90.0
 51
180.0
  0
LINE
  5
1BF
330
17
100
AcDbEntity
  8
A-DOOR
100
AcDbLine
 10
10.395
 20
18.075
 30
0.0
 11
10.395
 21
15.775000000000002
 31
0.0
  0
ARC
  5
1C0
330
17
100
AcDbEntity
  8
A-DOOR
100
AcDbCircle
 10
10.395
 20
18.075
 30
0.0
 40
2.3
100
AcDbArc
 50
-90.0
 51
0.0
  0
LINE
  5
1C1
330
17
100
AcDbEntity
  8
A-DOOR
100
AcDbLine
 10
-17.585
 20
0.325
 30
0.0
 11
-17.585
 21
-1.575
 31
0.0
  0
ARC
  5
1C2
330
17
100
AcDbEntity
  8
A-DOOR
100
AcDbCircle
 10
-17.585
 20
0.325
 30
0.0
 40
1.9
100
AcDbArc
 50
-90.0
 51
0.0
  0
LINE
  5
1C3
330
17
100
AcDbEntity
  8
A-DOOR
100
AcDbLine
 10
-26.825
 20
-6.425
 30
0.0
 11
-26.825
 21
-4.625000000000002
 31
0.0
  0
ARC
  5
1C4
330
17
100
AcDbEntity
  8
A-DOOR
100
AcDbCircle
 10
-26.825
 20
-6.425
 30
0.0
 40
1.8
100
AcDbArc
 50
90.0
 51
180.0
  0
LINE
  5
1C5
330
17
100
AcDbEntity
  8
A-DOOR
100
AcDbLine
 10
9.995
 20
-4.665
 30
0.0
 11
9.995
 21
-5.364999999999999
 31
0.0
  0
ARC
  5
1C6
330
17
100
AcDbEntity
  8
A-DOOR
100
AcDbCircle
 10
9.995
 20
-4.665
 30
0.0
 40
0.7
100
AcDbArc
 50
-90.0
 51
0.0
  0
LINE
  5
1C7
330
17
100
AcDbEntity
  8
A-DOOR
100
AcDbLine
 10
10.395
 20
-5.085
 30
0.0
 11
10.395
 21
-7.185000000000002
 31
0.0
  0
ARC
  5
1C8
330
17
100
AcDbEntity
  8
A-DOOR
100
AcDbCircle
 10
10.395
 20
-5.085
 30
0.0
 40
2.1
100
AcDbArc
 50
-90.0
 51
0.0
  0
LINE
  5
1C9
330
17
100
AcDbEntity
  8
A-DOOR
100
AcDbLine
 10
-18.685
 20
-4.905
 30
0.0
 11
-18.685
 21
-6.005000000000003
 31
0.0
  0
ARC
  5
1CA
330
17
100
AcDbEntity
  8
A-DOOR
100
AcDbCircle
 10
-18.685
 20
-4.905
 30
0.0
 40
1.1
100
AcDbArc
 50
-90.0
 51
0.0
  0
LINE
  5
1CB
330
17
100
AcDbEntity
  8
A-DOOR
100
AcDbLine
 10
-28.665
 20
-6.425
 30
0.0
 11
-28.665
 21
-4.025000000000001
 31
0.0
  0
ARC
  5
1CC
330
17
100
AcDbEntity
  8
A-DOOR
100
AcDbCircle
 10
-28.665
 20
-6.425
 30
0.0
 40
2.4
100
AcDbArc
 50
90.0
 51
180.0
  0
LINE
  5
1CD
330
17
100
AcDbEntity
  8
A-DOOR
100
AcDbLine
 10
-19.165
 20
-6.205
 30
0.0
 11
-19.165
 21
-8.005
 31
0.0
  0
ARC
  5
1CE
330
17
100
AcDbEntity
  8
A-DOOR
100
AcDbCircle
 10
-19.165
 20
-6.205
 30
0.0
 40
1.8
100
AcDbArc
 50
-90.0
 51
0.0
  0
LINE
  5
1CF
330
17
100
AcDbEntity
  8
A-DOOR
100
AcDbLine
 10
-17.125
 20
-6.185
 30
0.0
 11
-17.125
 21
-6.934999999999999
 31
0.0
  0
ARC
  5
1D0
330
17
100
AcDbEntity
  8
A-DOOR
100
AcDbCircle
 10
-17.125
 20
-6.185
 30
0.0
 40
0.75
100
AcDbArc
 50
-90.0
 51
0.0
  0
LINE
  5
1D1
330
17
100
AcDbEntity
  8
A-DOOR
100
AcDbLine
 10
-19.485
 20
-4.305
 30
0.0
 11
-19.485
 21
-5.4049999999999985
 31
0.0
  0
ARC
  5
1D2
330
17
100
AcDbEntity
  8
A-DOOR
100
AcDbCircle
 10
-19.485
 20
-4.305
 30
0.0
 40
1.1
100
AcDbArc
 50
-90.0
 51
0.0
  0
LINE
  5
1D3
330
17
100
AcDbEntity
  8
A-DOOR
100
AcDbLine
 10
-18.485
 20
-8.365
 30
0.0
 11
-18.34367507886435
 21
-7.577618296529968
 31
0.0
  0
ARC
  5
1D4
330
17
100
AcDbEntity
  8
A-DOOR
100
AcDbCircle
 10
-18.485
 20
-8.365
 30
0.0
 40
0.8
100
AcDbArc
 50
79.82448915695677
 51
169.82448915695676
  0
LINE
  5
1D5
330
17
100
AcDbEntity
  8
A-DOOR
100
AcDbLine
 10
-24.645
 20
-12.145
 30
0.0
 11
-24.645
 21
-11.445
 31
0.0
  0
ARC
  5
1D6
330
17
100
AcDbEntity
  8
A-DOOR
100
AcDbCircle
 10
-24.645
 20
-12.145
 30
0.0
 40
0.7
100
AcDbArc
 50
90.0
 51
180.0
  0
LINE
  5
1D7
330
17
100
AcDbEntity
  8
A-DOOR
100
AcDbLine
 10
-24.685
 20
-8.645
 30
0.0
 11
-24.685
 21
-10.694999999999999
 31
0.0
  0
ARC
  5
1D8
330
17
100
AcDbEntity
  8
A-DOOR
100
AcDbCircle
 10
-24.685
 20
-8.645
 30
0.0
 40
2.05
100
AcDbArc
 50
-90.0
 51
0.0
  0
LINE
  5
1D9
330
17
100
AcDbEntity
  8
A-DOOR
100
AcDbLine
 10
-25.065
 20
-7.825
 30
0.0
 11
-25.065
 21
-8.575
 31
0.0
  0
ARC
  5
1DA
330
17
100
AcDbEntity
  8
A-DOOR
100
AcDbCircle
 10
-25.065
 20
-7.825
 30
0.0
 40
0.75
100
AcDbArc
 50
-90.0
 51
0.0
  0
LINE
  5
1DB
330
17
100
AcDbEntity
  8
A-DOOR
100
AcDbLine
 10
-25.905
 20
-7.405
 30
0.0
 11
-24.905
 21
-7.405
 31
0.0
  0
ARC
  5
1DC
330
17
100
AcDbEntity
  8
A-DOOR
100
AcDbCircle
 10
-25.905
 20
-7.405
 30
0.0
 40
1.0
100
AcDbArc
 50
0.0
 51
90.0
  0
LINE
  5
1DD
330
17
100
AcDbEntity
  8
A-DOOR
100
AcDbLine
 10
-24.605
 20
-6.575
 30
0.0
 11
-24.605
 21
-8.424999999999999
 31
0.0
  0
ARC
  5
1DE
330
17
100
AcDbEntity
  8
A-DOOR
100
AcDbCircle
 10
-24.605
 20
-6.575
 30
0.0
 40
1.85
100
AcDbArc
 50
-90.0
 51
0.0
  0
LINE
  5
1DF
330
17
100
AcDbEntity
  8
A-DOOR
100
AcDbLine
 10
-23.005
 20
-8.145
 30
0.0
 11
-22.305
 21
-8.145
 31
0.0
  0
ARC
  5
1E0
330
17
100
AcDbEntity
  8
A-DOOR
100
AcDbCircle
 10
-23.005
 20
-8.145
 30
0.0
 40
0.7
100
AcDbArc
 50
0.0
 51
90.0
  0
LINE
  5
1E1
330
17
100
AcDbEntity
  8
A-DOOR
100
AcDbLine
 10
-28.365
 20
-13.845
 30
0.0
 11
-28.365
 21
-16.695
 31
0.0
  0
ARC
  5
1E2
330
17
100
AcDbEntity
  8
A-DOOR
100
AcDbCircle
 10
-28.365
 20
-13.845
 30
0.0
 40
2.85
100
AcDbArc
 50
-90.0
 51
0.0
  0
LINE
  5
1E3
330
17
100
AcDbEntity
  8
A-DOOR
100
AcDbLine
 10
-17.505
 20
-16.505
 30
0.0
 11
-17.505
 21
-18.855
 31
0.0
  0
ARC
  5
1E4
330
17
100
AcDbEntity
  8
A-DOOR
100
AcDbCircle
 10
-17.505
 20
-16.505
 30
0.0
 40
2.35
100
AcDbArc
 50
-90.0
 51
0.0
  0
LINE
  5
1E5
330
17
100
AcDbEntity
  8
A-DOOR
100
AcDbLine
 10
-25.165
 20
-18.205
 30
0.0
 11
-25.165
 21
-16.955
 31
0.0
  0
ARC
  5
1E6
330
17
100
AcDbEntity
  8
A-DOOR
100
AcDbCircle
 10
-25.165
 20
-18.205
 30
0.0
 40
1.25
100
AcDbArc
 50
90.0
 51
180.0
  0
LINE
  5
1E7
330
17
100
AcDbEntity
  8
A-DOOR
100
AcDbLine
 10
-26.325
 20
-18.145
 30
0.0
 11
-26.325
 21
-19.195
 31
0.0
  0
ARC
  5
1E8
330
17
100
AcDbEntity
  8
A-DOOR
100
AcDbCircle
 10
-26.325
 20
-18.145
 30
0.0
 40
1.05
100
AcDbArc
 50
-90.0
 51
0.0
  0
LINE
  5
1E9
330
17
100
AcDbEntity
  8
A-DOOR
100
AcDbLine
 10
-26.345
 20
-12.625
 30
0.0
 11
-26.345
 21
-18.025000000000002
 31
0.0
  0
ARC
  5
1EA
330
17
100
AcDbEntity
  8
A-DOOR
100
AcDbCircle
 10
-26.345
 20
-12.625
 30
0.0
 40
5.4
100
AcDbArc
 50
-90.0
 51
0.0
  0
LINE
  5
1EB
330
17
100
AcDbEntity
  8
A-DOOR
100
AcDbLine
 10
-19.085
 20
-13.645
 30
0.0
 11
-19.085
 21
-15.895
 31
0.0
  0
ARC
  5
1EC
330
17
100
AcDbEntity
  8
A-DOOR
100
AcDbCircle
 10
-19.085
 20
-13.645
 30
0.0
 40
2.25
100
AcDbArc
 50
-90.0
 51
0.0
  0
LINE
  5
1ED
330
17
100
AcDbEntity
  8
A-DOOR
100
AcDbLine
 10
-28.225
 20
-19.405
 30
0.0
 11
-28.225
 21
-22.005000000000003
 31
0.0
  0
ARC
  5
1EE
330
17
100
AcDbEntity
  8
A-DOOR
100
AcDbCircle
 10
-28.225
 20
-19.405
 30
0.0
 40
2.6
100
AcDbArc
 50
-90.0
 51
0.0
  0
LINE
  5
1EF
330
17
100
AcDbEntity
  8
A-DOOR
100
AcDbLine
 10
-28.385
 20
-18.785
 30
0.0
 11
-28.385
 21
-17.434999999999995
 31
0.0
  0
ARC
  5
1F0
330
17
100
AcDbEntity
  8
A-DOOR
100
AcDbCircle
 10
-28.385
 20
-18.785
 30
0.0
 40
1.35
100
AcDbArc
 50
90.0
 51
180.0
  0
LINE
  5
1F1
330
17
100
AcDbEntity
  8
A-DOOR
100
AcDbLine
 10
15.595
 20
-7.605
 30
0.0
 11
14.295
 21
-7.605
 31
0.0
  0
ARC
  5
1F2
330
17
100
AcDbEntity
  8
A-DOOR
100
AcDbCircle
 10
15.595
 20
-7.605
 30
0.0
 40
1.3
100
AcDbArc
 50
180.0
 51
270.0
  0
LINE
  5
1F3
330
17
100
AcDbEntity
  8
A-DOOR
100
AcDbLine
 10
9.525
 20
-4.265
 30
0.0
 11
7.925
 21
-4.265
 31
0.0
  0
ARC
  5
1F4
330
17
100
AcDbEntity
  8
A-DOOR
100
AcDbCircle
 10
9.525
 20
-4.265
 30
0.0
 40
1.6
100
AcDbArc
 50
180.0
 51
270.0
  0
LINE
  5
1F5
330
17
100
AcDbEntity
  8
A-DOOR
100
AcDbLine
 10
7.945
 20
-4.565
 30
0.0
 11
9.245
 21
-4.565
 31
0.0
  0
ARC
  5
1F6
330
17
100
AcDbEntity
  8
A-DOOR
100
AcDbCircle
 10
7.945
 20
-4.565
 30
0.0
 40
1.3
100
AcDbArc
 50
0.0
 51
90.0
  0
LINE
  5
1F7
330
17
100
AcDbEntity
  8
A-DOOR
100
AcDbLine
 10
9.535
 20
-4.705
 30
0.0
 11
10.535
 21
-4.705
 31
0.0
  0
ARC
  5
1F8
330
17
100
AcDbEntity
  8
A-DOOR
100
AcDbCircle
 10
9.535
 20
-4.705
 30
0.0
 40
1.0
100
AcDbArc
 50
0.0
 51
90.0
  0
LINE
  5
1F9
330
17
100
AcDbEntity
  8
A-DOOR
100
AcDbLine
 10
9.075
 20
-4.725
 30
0.0
 11
9.075
 21
-7.225
 31
0.0
  0
ARC
  5
1FA
330
17
100
AcDbEntity
  8
A-DOOR
100
AcDbCircle
 10
9.075
 20
-4.725
 30
0.0
 40
2.5
100
AcDbArc
 50
-90.0
 51
0.0
  0
LINE
  5
1FB
330
17
100
AcDbEntity
  8
A-DOOR
100
AcDbLine
 10
9.415
 20
-7.285
 30
0.0
 11
7.914999999999999
 21
-7.285
 31
0.0
  0
ARC
  5
1FC
330
17
100
AcDbEntity
  8
A-DOOR
100
AcDbCircle
 10
9.415
 20
-7.285
 30
0.0
 40
1.5
100
AcDbArc
 50
180.0
 51
270.0
  0
LINE
  5
1FD
330
17
100
AcDbEntity
  8
A-DOOR
100
AcDbLine
 10
10.675
 20
-16.405
 30
0.0
 11
10.675
 21
-17.405
 31
0.0
  0
ARC
  5
1FE
330
17
100
AcDbEntity
  8
A-DOOR
100
AcDbCircle
 10
10.675
 20
-16.405
 30
0.0
 40
1.0
100
AcDbArc
 50
-90.0
 51
0.0
  0
LINE
  5
1FF
330
17
100
AcDbEntity
  8
A-DOOR
100
AcDbLine
 10
10.435
 20
-18.425
 30
0.0
 11
10.435
 21
-17.674999999999997
 31
0.0
  0
ARC
  5
200
330
17
100
AcDbEntity
  8
A-DOOR
100
AcDbCircle
 10
10.435
 20
-18.425
 30
0.0
 40
0.75
100
AcDbArc
 50
90.0
 51
180.0
  0
LINE
  5
201
330
17
100
AcDbEntity
  8
A-DOOR
100
AcDbLine
 10
-17.205
 20
-16.405
 30
0.0
 11
-17.205
 21
-8.455000000000002
 31
0.0
  0
ARC
  5
202
330
17
100
AcDbEntity
  8
A-DOOR
100
AcDbCircle
 10
-17.205
 20
-16.405
 30
0.0
 40
7.95
100
AcDbArc
 50
90.0
 51
180.0
  0
LINE
  5
203
330
17
100
AcDbEntity
  8
A-DOOR
100
AcDbLine
 10
-16.465
 20
-6.225
 30
0.0
 11
-16.465
 21
-5.275000000000001
 31
0.0
  0
ARC
  5
204
330
17
100
AcDbEntity
  8
A-DOOR
100
AcDbCircle
 10
-16.465
 20
-6.225
 30
0.0
 40
0.95
100
AcDbArc
 50
90.0
 51
180.0
  0
LINE
  5
205
330
17
100
AcDbEntity
  8
A-DOOR
100
AcDbLine
 10
-18.585
 20
-7.545
 30
0.0
 11
-18.08999615680246
 21
-7.049996156802459
 31
0.0
  0
ARC
  5
206
330
17
100
AcDbEntity
  8
A-DOOR
100
AcDbCircle
 10
-18.585
 20
-7.545
 30
0.0
 40
0.7
100
AcDbArc
 50
45.0
 51
135.0
  0
LINE
  5
207
330
17
100
AcDbEntity
  8
A-DOOR
100
AcDbLine
 10
-18.925
 20
-7.905
 30
0.0
 11
-18.925
 21
-13.605
 31
0.0
  0
ARC
  5
208
330
17
100
AcDbEntity
  8
A-DOOR
100
AcDbCircle
 10
-18.925
 20
-7.905
 30
0.0
 40
5.7
100
AcDbArc
 50
-90.0
 51
0.0
  0
LINE
  5
209
330
17
100
AcDbEntity
  8
A-DOOR
100
AcDbLine
 10
-19.605
 20
-10.325
 30
0.0
 11
-19.605
 21
-13.325
 31
0.0
  0
ARC
  5
20A
330
17
100
AcDbEntity
  8
A-DOOR
100
AcDbCircle
 10
-19.605
 20
-10.325
 30
0.0
 40
3.0
100
AcDbArc
 50
-90.0
 51
0.0
  0
LINE
  5
20B
330
17
100
AcDbEntity
  8
A-DOOR
100
AcDbLine
 10
-16.585
 20
-5.165
 30
0.0
 11
-15.085
 21
-5.165
 31
0.0
  0
ARC
  5
20C
330
17
100
AcDbEntity
  8
A-DOOR
100
AcDbCircle
 10
-16.585
 20
-5.165
 30
0.0
 40
1.5
100
AcDbArc
 50
0.0
 51
90.0
  0
LINE
  5
20D
330
17
100
AcDbEntity
  8
A-DOOR
100
AcDbLine
 10
-15.725
 20
-7.705
 30
0.0
 11
-16.575
 21
-7.705
 31
0.0
  0
ARC
  5
20E
330
17
100
AcDbEntity
  8
A-DOOR
100
AcDbCircle
 10
-15.725
 20
-7.705
 30
0.0
 40
0.85
100
AcDbArc
 50
180.0
 51
270.0
  0
LINE
  5
20F
330
17
100
AcDbEntity
  8
A-DOOR
100
AcDbLine
 10
-14.925
 20
-7.565
 30
0.0
 11
-15.725
 21
-7.565
 31
0.0
  0
ARC
  5
210
330
17
100
AcDbEntity
  8
A-DOOR
100
AcDbCircle
 10
-14.925
 20
-7.565
 30
0.0
 40
0.8
100
AcDbArc
 50
180.0
 51
270.0
  0
LINE
  5
211
330
17
100
AcDbEntity
  8
A-DOOR
100
AcDbLine
 10
-10.045
 20
-13.065
 30
0.0
 11
-8.695
 21
-13.065
 31
0.0
  0
ARC
  5
212
330
17
100
AcDbEntity
  8
A-DOOR
100
AcDbCircle
 10
-10.045
 20
-13.065
 30
0.0
 40
1.35
100
AcDbArc
 50
0.0
 51
90.0
  0
LINE
  5
213
330
17
100
AcDbEntity
  8
A-DOOR
100
AcDbLine
 10
-5.025
 20
-13.025
 30
0.0
 11
-6.725000000000002
 21
-13.025
 31
0.0
  0
ARC
  5
214
330
17
100
AcDbEntity
  8
A-DOOR
100
AcDbCircle
 10
-5.025
 20
-13.025
 30
0.0
 40
1.7
100
AcDbArc
 50
180.0
 51
270.0
  0
LINE
  5
215
330
17
100
AcDbEntity
  8
A-DOOR
100
AcDbLine
 10
-3.445
 20
-19.305
 30
0.0
 11
-3.445
 21
-17.005
 31
0.0
  0
ARC
  5
216
330
17
100
AcDbEntity
  8
A-DOOR
100
AcDbCircle
 10
-3.445
 20
-19.305
 30
0.0
 40
2.3
100
AcDbArc
 50
90.0
 51
180.0
  0
LINE
  5
217
330
17
100
AcDbEntity
  8
A-DOOR
100
AcDbLine
 10
-7.625
 20
-5.025
 30
0.0
 11
-7.625
 21
-6.375000000000001
 31
0.0
  0
ARC
  5
218
330
17
100
AcDbEntity
  8
A-DOOR
100
AcDbCircle
 10
-7.625
 20
-5.025
 30
0.0
 40
1.35
100
AcDbArc
 50
-90.0
 51
0.0
  0
LINE
  5
219
330
17
100
AcDbEntity
  8
A-DOOR
100
AcDbLine
 10
-6.565
 20
-6.325
 30
0.0
 11
-6.565
 21
-7.424999999999998
 31
0.0
  0
ARC
  5
21A
330
17
100
AcDbEntity
  8
A-DOOR
100
AcDbCircle
 10
-6.565
 20
-6.325
 30
0.0
 40
1.1
100
AcDbArc
 50
-90.0
 51
0.0
  0
LINE
  5
21B
330
17
100
AcDbEntity
  8
A-DOOR
100
AcDbLine
 10
-6.565
 20
-5.685
 30
0.0
 11
-6.565
 21
-4.985
 31
0.0
  0
ARC
  5
21C
330
17
100
AcDbEntity
  8
A-DOOR
100
AcDbCircle
 10
-6.565
 20
-5.685
 30
0.0
 40
0.7
100
AcDbArc
 50
90.0
 51
180.0
  0
LINE
  5
21D
330
17
100
AcDbEntity
  8
A-DOOR
100
AcDbLine
 10
-3.305
 20
3.035
 30
0.0
 11
-4.504999999999999
 21
3.035
 31
0.0
  0
ARC
  5
21E
330
17
100
AcDbEntity
  8
A-DOOR
100
AcDbCircle
 10
-3.305
 20
3.035
 30
0.0
 40
1.2
100
AcDbArc
 50
180.0
 51
270.0
  0
LINE
  5
21F
330
17
100
AcDbEntity
  8
A-DOOR
100
AcDbLine
 10
-4.765
 20
7.435
 30
0.0
 11
-4.765
 21
3.1849999999999996
 31
0.0
  0
ARC
  5
220
330
17
100
AcDbEntity
  8
A-DOOR
100
AcDbCircle
 10
-4.765
 20
7.435
 30
0.0
 40
4.25
100
AcDbArc
 50
-90.0
 51
0.0
  0
LINE
  5
221
330
17
100
AcDbEntity
  8
A-DOOR
100
AcDbLine
 10
-5.585
 20
6.195
 30
0.0
 11
-10.684999999999999
 21
6.195
 31
0.0
  0
ARC
  5
222
330
17
100
AcDbEntity
  8
A-DOOR
100
AcDbCircle
 10
-5.585
 20
6.195
 30
0.0
 40
5.1
100
AcDbArc
 50
180.0
 51
270.0
  0
LINE
  5
223
330
17
100
AcDbEntity
  8
A-DOOR
100
AcDbLine
 10
-9.345
 20
4.035
 30
0.0
 11
-9.345
 21
5.835000000000001
 31
0.0
  0
ARC
  5
224
330
17
100
AcDbEntity
  8
A-DOOR
100
AcDbCircle
 10
-9.345
 20
4.035
 30
0.0
 40
1.8
100
AcDbArc
 50
90.0
 51
180.0
  0
LINE
  5
225
330
17
100
AcDbEntity
  8
A-DOOR
100
AcDbLine
 10
-10.745
 20
4.855
 30
0.0
 11
-9.745
 21
4.855
 31
0.0
  0
ARC
  5
226
330
17
100
AcDbEntity
  8
A-DOOR
100
AcDbCircle
 10
-10.745
 20
4.855
 30
0.0
 40
1.0
100
AcDbArc
 50
0.0
 51
90.0
  0
LINE
  5
227
330
17
100
AcDbEntity
  8
A-DOOR
100
AcDbLine
 10
-10.765
 20
4.575
 30
0.0
 11
-9.915000000000001
 21
4.575
 31
0.0
  0
ARC
  5
228
330
17
100
AcDbEntity
  8
A-DOOR
100
AcDbCircle
 10
-10.765
 20
4.575
 30
0.0
 40
0.85
100
AcDbArc
 50
0.0
 51
90.0
  0
LINE
  5
229
330
17
100
AcDbEntity
  8
A-DOOR
100
AcDbLine
 10
-9.485
 20
5.975
 30
0.0
 11
-10.735000000000001
 21
5.975
 31
0.0
  0
ARC
  5
22A
330
17
100
AcDbEntity
  8
A-DOOR
100
AcDbCircle
 10
-9.485
 20
5.975
 30
0.0
 40
1.25
100
AcDbArc
 50
180.0
 51
270.0
  0
LINE
  5
22B
330
17
100
AcDbEntity
  8
A-DOOR
100
AcDbLine
 10
-11.145
 20
8.355
 30
0.0
 11
-11.145
 21
6.405
 31
0.0
  0
ARC
  5
22C
330
17
100
AcDbEntity
  8
A-DOOR
100
AcDbCircle
 10
-11.145
 20
8.355
 30
0.0
 40
1.95
100
AcDbArc
 50
-90.0
 51
0.0
  0
LINE
  5
22D
330
17
100
AcDbEntity
  8
A-DOOR
100
AcDbLine
 10
-11.165
 20
11.955
 30
0.0
 11
-11.165
 21
10.805
 31
0.0
  0
ARC
  5
22E
330
17
100
AcDbEntity
  8
A-DOOR
100
AcDbCircle
 10
-11.165
 20
11.955
 30
0.0
 40
1.15
100
AcDbArc
 50
-90.0
 51
0.0
  0
LINE
  5
22F
330
17
100
AcDbEntity
  8
A-DOOR
100
AcDbLine
 10
-11.145
 20
13.425
 30
0.0
 11
-11.145
 21
15.125000000000002
 31
0.0
  0
ARC
  5
230
330
17
100
AcDbEntity
  8
A-DOOR
100
AcDbCircle
 10
-11.145
 20
13.425
 30
0.0
 40
1.7
100
AcDbArc
 50
90.0
 51
180.0
  0
LINE
  5
231
330
17
100
AcDbEntity
  8
A-DOOR
100
AcDbLine
 10
8.895
 20
18.495
 30
0.0
 11
10.495000000000001
 21
18.495
 31
0.0
  0
ARC
  5
232
330
17
100
AcDbEntity
  8
A-DOOR
100
AcDbCircle
 10
8.895
 20
18.495
 30
0.0
 40
1.6
100
AcDbArc
 50
0.0
 51
90.0
  0
LINE
  5
233
330
17
100
AcDbEntity
  8
A-DOOR
100
AcDbLine
 10
10.275
 20
15.675
 30
0.0
 11
8.875
 21
15.675
 31
0.0
  0
ARC
  5
234
330
17
100
AcDbEntity
  8
A-DOOR
100
AcDbCircle
 10
10.275
 20
15.675
 30
0.0
 40
1.4
100
AcDbArc
 50
180.0
 51
270.0
  0
LINE
  5
235
330
17
100
AcDbEntity
  8
A-DOOR
100
AcDbLine
 10
-28.925
 20
5.115
 30
0.0
 11
-28.925
 21
3.9650000000000007
 31
0.0
  0
ARC
  5
236
330
17
100
AcDbEntity
  8
A-DOOR
100
AcDbCircle
 10
-28.925
 20
5.115
 30
0.0
 40
1.15
100
AcDbArc
 50
-90.0
 51
0.0
  0
LINE
  5
237
330
17
100
AcDbEntity
  8
A-DOOR
100
AcDbLine
 10
-28.685
 20
-4.025
 30
0.0
 11
-28.685
 21
-4.775000000000002
 31
0.0
  0
ARC
  5
238
330
17
100
AcDbEntity
  8
A-DOOR
100
AcDbCircle
 10
-28.685
 20
-4.025
 30
0.0
 40
0.75
100
AcDbArc
 50
-90.0
 51
0.0
  0
LINE
  5
239
330
17
100
AcDbEntity
  8
A-DOOR
100
AcDbLine
 10
-20.085
 20
-6.305
 30
0.0
 11
-20.246001788908767
 21
-7.19050983899821
 31
0.0
  0
ARC
  5
23A
330
17
100
AcDbEntity
  8
A-DOOR
100
AcDbCircle
 10
-20.085
 20
-6.305
 30
0.0
 40
0.9
100
AcDbArc
 50
-100.30484646876606
 51
-10.304846468766058
  0
LINE
  5
23B
330
17
100
AcDbEntity
  8
A-DOOR
100
AcDbLine
 10
-17.845
 20
-11.685
 30
0.0
 11
-17.845
 21
-10.435
 31
0.0
  0
ARC
  5
23C
330
17
100
AcDbEntity
  8
A-DOOR
100
AcDbCircle
 10
-17.845
 20
-11.685
 30
0.0
 40
1.25
100
AcDbArc
 50
90.0
 51
180.0
  0
LINE
  5
23D
330
17
100
AcDbEntity
  8
A-DOOR
100
AcDbLine
 10
15.735
 20
-12.225
 30
0.0
 11
16.645407614318223
 21
-11.811178357128076
 31
0.0
  0
ARC
  5
23E
330
17
100
AcDbEntity
  8
A-DOOR
100
AcDbCircle
 10
15.735
 20
-12.225
 30
0.0
 40
1.0
100
AcDbArc
 50
24.443954780416668
 51
114.44395478041668
  0
LINE
  5
23F
330
17
100
AcDbEntity
  8
A-DOOR
100
AcDbLine
 10
12.035
 20
-21.475
 30
0.0
 11
12.035
 21
-20.575
 31
0.0
  0
ARC
  5
240
330
17
100
AcDbEntity
  8
A-DOOR
100
AcDbCircle
 10
12.035
 20
-21.475
 30
0.0
 40
0.9
100
AcDbArc
 50
90.0
 51
180.0
  0
LINE
  5
241
330
17
100
AcDbEntity
  8
A-DOOR
100
AcDbLine
 10
26.075
 20
-7.525
 30
0.0
 11
24.075
 21
-7.525
 31
0.0
  0
ARC
  5
242
330
17
100
AcDbEntity
  8
A-DOOR
100
AcDbCircle
 10
26.075
 20
-7.525
 30
0.0
 40
2.0
100
AcDbArc
 50
180.0
 51
270.0
  0
LINE
  5
243
330
17
100
AcDbEntity
  8
A-DOOR
100
AcDbLine
 10
22.875
 20
-7.525
 30
0.0
 11
22.025
 21
-7.525
 31
0.0
  0
ARC
  5
244
330
17
100
AcDbEntity
  8
A-DOOR
100
AcDbCircle
 10
22.875
 20
-7.525
 30
0.0
 40
0.85
100
AcDbArc
 50
180.0
 51
270.0
  0
LINE
  5
245
330
17
100
AcDbEntity
  8
A-DOOR
100
AcDbLine
 10
8.275
 20
-4.705
 30
0.0
 11
8.275
 21
-7.205
 31
0.0
  0
ARC
  5
246
330
17
100
AcDbEntity
  8
A-DOOR
100
AcDbCircle
 10
8.275
 20
-4.705
 30
0.0
 40
2.5
100
AcDbArc
 50
-90.0
 51
0.0
  0
LINE
  5
247
330
17
100
AcDbEntity
  8
A-DOOR
100
AcDbLine
 10
9.035
 20
-7.185
 30
0.0
 11
10.685
 21
-7.185
 31
0.0
  0
ARC
  5
248
330
17
100
AcDbEntity
  8
A-DOOR
100
AcDbCircle
 10
9.035
 20
-7.185
 30
0.0
 40
1.65
100
AcDbArc
 50
0.0
 51
90.0
  0
LINE
  5
249
330
17
100
AcDbEntity
  8
A-DOOR
100
AcDbLine
 10
10.545
 20
-7.645
 30
0.0
 11
13.395
 21
-7.645
 31
0.0
  0
ARC
  5
24A
330
17
100
AcDbEntity
  8
A-DOOR
100
AcDbCircle
 10
10.545
 20
-7.645
 30
0.0
 40
2.85
100
AcDbArc
 50
0.0
 51
90.0
  0
LINE
  5
24B
330
17
100
AcDbEntity
  8
A-DOOR
100
AcDbLine
 10
10.795
 20
-15.285
 30
0.0
 11
10.795
 21
-13.785
 31
0.0
  0
ARC
  5
24C
330
17
100
AcDbEntity
  8
A-DOOR
100
AcDbCircle
 10
10.795
 20
-15.285
 30
0.0
 40
1.5
100
AcDbArc
 50
90.0
 51
180.0
  0
LINE
  5
24D
330
17
100
AcDbEntity
  8
A-DOOR
100
AcDbLine
 10
1.345
 20
-21.085
 30
0.0
 11
-1.0549999999999977
 21
-21.085
 31
0.0
  0
ARC
  5
24E
330
17
100
AcDbEntity
  8
A-DOOR
100
AcDbCircle
 10
1.345
 20
-21.085
 30
0.0
 40
2.4
100
AcDbArc
 50
180.0
 51
270.0
  0
LINE
  5
24F
330
17
100
AcDbEntity
  8
A-DOOR
100
AcDbLine
 10
-1.155
 20
-20.705
 30
0.0
 11
-2.905000000000001
 21
-20.705
 31
0.0
  0
ARC
  5
250
330
17
100
AcDbEntity
  8
A-DOOR
100
AcDbCircle
 10
-1.155
 20
-20.705
 30
0.0
 40
1.75
100
AcDbArc
 50
180.0
 51
270.0
  0
LINE
  5
251
330
17
100
AcDbEntity
  8
A-DOOR
100
AcDbLine
 10
-4.045
 20
-20.505
 30
0.0
 11
-5.294999999999997
 21
-20.505
 31
0.0
  0
ARC
  5
252
330
17
100
AcDbEntity
  8
A-DOOR
100
AcDbCircle
 10
-4.045
 20
-20.505
 30
0.0
 40
1.25
100
AcDbArc
 50
180.0
 51
270.0
  0
LINE
  5
253
330
17
100
AcDbEntity
  8
A-DOOR
100
AcDbLine
 10
-17.105
 20
-5.245
 30
0.0
 11
-16.055
 21
-5.245
 31
0.0
  0
ARC
  5
254
330
17
100
AcDbEntity
  8
A-DOOR
100
AcDbCircle
 10
-17.105
 20
-5.245
 30
0.0
 40
1.05
100
AcDbArc
 50
0.0
 51
90.0
  0
LINE
  5
255
330
17
100
AcDbEntity
  8
A-DOOR
100
AcDbLine
 10
-17.285
 20
-5.125
 30
0.0
 11
-17.285
 21
-3.674999999999998
 31
0.0
  0
ARC
  5
256
330
17
100
AcDbEntity
  8
A-DOOR
100
AcDbCircle
 10
-17.285
 20
-5.125
 30
0.0
 40
1.45
100
AcDbArc
 50
90.0
 51
180.0
  0
LINE
  5
257
330
17
100
AcDbEntity
  8
A-DOOR
100
AcDbLine
 10
-19.565
 20
-10.285
 30
0.0
 11
-19.565
 21
-9.335
 31
0.0
  0
ARC
  5
258
330
17
100
AcDbEntity
  8
A-DOOR
100
AcDbCircle
 10
-19.565
 20
-10.285
 30
0.0
 40
0.95
100
AcDbArc
 50
90.0
 51
180.0
  0
LINE
  5
259
330
17
100
AcDbEntity
  8
A-DOOR
100
AcDbLine
 10
-16.785
 20
-1.545
 30
0.0
 11
-15.834999999999999
 21
-1.545
 31
0.0
  0
ARC
  5
25A
330
17
100
AcDbEntity
  8
A-DOOR
100
AcDbCircle
 10
-16.785
 20
-1.545
 30
0.0
 40
0.95
100
AcDbArc
 50
0.0
 51
90.0
  0
LINE
  5
25B
330
17
100
AcDbEntity
  8
A-DOOR
100
AcDbLine
 10
-15.905
 20
-1.585
 30
0.0
 11
-15.905
 21
-3.4350000000000005
 31
0.0
  0
ARC
  5
25C
330
17
100
AcDbEntity
  8
A-DOOR
100
AcDbCircle
 10
-15.905
 20
-1.585
 30
0.0
 40
1.85
100
AcDbArc
 50
-90.0
 51
0.0
  0
LINE
  5
25D
330
17
100
AcDbEntity
  8
A-DOOR
100
AcDbLine
 10
-15.825
 20
-4.145
 30
0.0
 11
-16.825
 21
-4.145
 31
0.0
  0
ARC
  5
25E
330
17
100
AcDbEntity
  8
A-DOOR
100
AcDbCircle
 10
-15.825
 20
-4.145
 30
0.0
 40
1.0
100
AcDbArc
 50
180.0
 51
270.0
  0
LINE
  5
25F
330
17
100
AcDbEntity
  8
A-DOOR
100
AcDbLine
 10
-15.565
 20
-7.505
 30
0.0
 11
-14.815
 21
-7.505
 31
0.0
  0
ARC
  5
260
330
17
100
AcDbEntity
  8
A-DOOR
100
AcDbCircle
 10
-15.565
 20
-7.505
 30
0.0
 40
0.75
100
AcDbArc
 50
0.0
 51
90.0
  0
LINE
  5
261
330
17
100
AcDbEntity
  8
A-DOOR
100
AcDbLine
 10
-10.005
 20
-16.175
 30
0.0
 11
-10.005
 21
-14.725000000000001
 31
0.0
  0
ARC
  5
262
330
17
100
AcDbEntity
  8
A-DOOR
100
AcDbCircle
 10
-10.005
 20
-16.175
 30
0.0
 40
1.45
100
AcDbArc
 50
90.0
 51
180.0
  0
LINE
  5
263
330
17
100
AcDbEntity
  8
A-DOOR
100
AcDbLine
 10
-4.905
 20
-9.005
 30
0.0
 11
-4.905
 21
-10.355
 31
0.0
  0
ARC
  5
264
330
17
100
AcDbEntity
  8
A-DOOR
100
AcDbCircle
 10
-4.905
 20
-9.005
 30
0.0
 40
1.35
100
AcDbArc
 50
-90.0
 51
0.0
  0
LINE
  5
265
330
17
100
AcDbEntity
  8
A-DOOR
100
AcDbLine
 10
-3.185
 20
-17.045
 30
0.0
 11
-2.185
 21
-17.045
 31
0.0
  0
ARC
  5
266
330
17
100
AcDbEntity
  8
A-DOOR
100
AcDbCircle
 10
-3.185
 20
-17.045
 30
0.0
 40
1.0
100
AcDbArc
 50
0.0
 51
90.0
  0
LINE
  5
267
330
17
100
AcDbEntity
  8
A-DOOR
100
AcDbLine
 10
-1.985
 20
-17.005
 30
0.0
 11
-1.985
 21
-15.955
 31
0.0
  0
ARC
  5
268
330
17
100
AcDbEntity
  8
A-DOOR
100
AcDbCircle
 10
-1.985
 20
-17.005
 30
0.0
 40
1.05
100
AcDbArc
 50
90.0
 51
180.0
  0
LINE
  5
269
330
17
100
AcDbEntity
  8
A-DOOR
100
AcDbLine
 10
-1.985
 20
-15.985
 30
0.0
 11
-1.1850000000000023
 21
-15.985
 31
0.0
  0
ARC
  5
26A
330
17
100
AcDbEntity
  8
A-DOOR
100
AcDbCircle
 10
-1.985
 20
-15.985
 30
0.0
 40
0.8
100
AcDbArc
 50
0.0
 51
90.0
  0
LINE
  5
26B
330
17
100
AcDbEntity
  8
A-DOOR
100
AcDbLine
 10
-1.205
 20
-15.985
 30
0.0
 11
-1.205
 21
-12.784999999999998
 31
0.0
  0
ARC
  5
26C
330
17
100
AcDbEntity
  8
A-DOOR
100
AcDbCircle
 10
-1.205
 20
-15.985
 30
0.0
 40
3.2
100
AcDbArc
 50
90.0
 51
180.0
  0
LINE
  5
26D
330
17
100
AcDbEntity
  8
A-DOOR
100
AcDbLine
 10
-2.285
 20
-8.025
 30
0.0
 11
-4.035
 21
-8.025
 31
0.0
  0
ARC
  5
26E
330
17
100
AcDbEntity
  8
A-DOOR
100
AcDbCircle
 10
-2.285
 20
-8.025
 30
0.0
 40
1.75
100
AcDbArc
 50
180.0
 51
270.0
  0
LINE
  5
26F
330
17
100
AcDbEntity
  8
A-DOOR
100
AcDbLine
 10
-4.285
 20
-7.905
 30
0.0
 11
-5.735000000000001
 21
-7.905
 31
0.0
  0
ARC
  5
270
330
17
100
AcDbEntity
  8
A-DOOR
100
AcDbCircle
 10
-4.285
 20
-7.905
 30
0.0
 40
1.45
100
AcDbArc
 50
180.0
 51
270.0
  0
LINE
  5
271
330
17
100
AcDbEntity
  8
A-DOOR
100
AcDbLine
 10
-6.005
 20
-7.445
 30
0.0
 11
-7.955000000000002
 21
-7.445
 31
0.0
  0
ARC
  5
272
330
17
100
AcDbEntity
  8
A-DOOR
100
AcDbCircle
 10
-6.005
 20
-7.445
 30
0.0
 40
1.95
100
AcDbArc
 50
180.0
 51
270.0
  0
LINE
  5
273
330
17
100
AcDbEntity
  8
A-DOOR
100
AcDbLine
 10
-7.885
 20
-4.985
 30
0.0
 11
-3.7349999999999977
 21
-4.985
 31
0.0
  0
ARC
  5
274
330
17
100
AcDbEntity
  8
A-DOOR
100
AcDbCircle
 10
-7.885
 20
-4.985
 30
0.0
 40
4.15
100
AcDbArc
 50
0.0
 51
90.0
  0
LINE
  5
275
330
17
100
AcDbEntity
  8
A-DOOR
100
AcDbLine
 10
-2.905
 20
0.615
 30
0.0
 11
-2.905
 21
2.115000000000001
 31
0.0
  0
ARC
  5
276
330
17
100
AcDbEntity
  8
A-DOOR
100
AcDbCircle
 10
-2.905
 20
0.615
 30
0.0
 40
1.5
100
AcDbArc
 50
90.0
 51
180.0
  0
LINE
  5
277
330
17
100
AcDbEntity
  8
A-DOOR
100
AcDbLine
 10
-10.725
 20
4.015
 30
0.0
 11
-10.725
 21
6.465000000000001
 31
0.0
  0
ARC
  5
278
330
17
100
AcDbEntity
  8
A-DOOR
100
AcDbCircle
 10
-10.725
 20
4.015
 30
0.0
 40
2.45
100
AcDbArc
 50
90.0
 51
180.0
  0
LINE
  5
279
330
17
100
AcDbEntity
  8
A-DOOR
100
AcDbLine
 10
-10.685
 20
3.915
 30
0.0
 11
-9.985000000000001
 21
3.915
 31
0.0
  0
ARC
  5
27A
330
17
100
AcDbEntity
  8
A-DOOR
100
AcDbCircle
 10
-10.685
 20
3.915
 30
0.0
 40
0.7
100
AcDbArc
 50
0.0
 51
90.0
  0
LINE
  5
27B
330
17
100
AcDbEntity
  8
A-DOOR
100
AcDbLine
 10
13.625
 20
18.495
 30
0.0
 11
15.924999999999999
 21
18.495
 31
0.0
  0
ARC
  5
27C
330
17
100
AcDbEntity
  8
A-DOOR
100
AcDbCircle
 10
13.625
 20
18.495
 30
0.0
 40
2.3
100
AcDbArc
 50
0.0
 51
90.0
  0
LINE
  5
27D
330
17
100
AcDbEntity
  8
A-DOOR
100
AcDbLine
 10
-24.165
 20
-18.705
 30
0.0
 11
-24.165
 21
-19.555
 31
0.0
  0
ARC
  5
27E
330
17
100
AcDbEntity
  8
A-DOOR
100
AcDbCircle
 10
-24.165
 20
-18.705
 30
0.0
 40
0.85
100
AcDbArc
 50
-90.0
 51
0.0
  0
LINE
  5
27F
330
17
100
AcDbEntity
  8
A-WINDOW
100
AcDbLine
 10
11.525
 20
-5.675
 30
0.0
 11
11.525
 21
-4.5249999999999995
 31
0.0
  0
LINE
  5
280
330
17
100
AcDbEntity
  8
A-WINDOW
100
AcDbLine
 10
11.424999999999999
 20
-5.675
 30
0.0
 11
11.424999999999999
 21
-4.5249999999999995
 31
0.0
  0
LINE
  5
281
330
17
100
AcDbEntity
  8
A-WINDOW
100
AcDbLine
 10
22.435000000000002
 20
18.365
 30
0.0
 11
23.235
 21
18.365
 31
0.0
  0
LINE
  5
282
330
17
100
AcDbEntity
  8
A-WINDOW
100
AcDbLine
 10
22.435000000000002
 20
18.465
 30
0.0
 11
23.235
 21
18.465
 31
0.0
  0
LINE
  5
283
330
17
100
AcDbEntity
  8
A-WINDOW
100
AcDbLine
 10
23.285
 20
18.365
 30
0.0
 11
23.985000000000003
 21
18.365
 31
0.0
  0
LINE
  5
284
330
17
100
AcDbEntity
  8
A-WINDOW
100
AcDbLine
 10
23.285
 20
18.465
 30
0.0
 11
23.985000000000003
 21
18.465
 31
0.0
  0
LINE
  5
285
330
17
100
AcDbEntity
  8
A-WINDOW
100
AcDbLine
 10
24.635
 20
18.365
 30
0.0
 11
25.185
 21
18.365
 31
0.0
  0
LINE
  5
286
330
17
100
AcDbEntity
  8
A-WINDOW
100
AcDbLine
 10
24.635
 20
18.465
 30
0.0
 11
25.185
 21
18.465
 31
0.0
  0
LINE
  5
287
330
17
100
AcDbEntity
  8
A-WINDOW
100
AcDbLine
 10
26.645
 20
12.155
 30
0.0
 11
26.645
 21
5.404999999999999
 31
0.0
  0
LINE
  5
288
330
17
100
AcDbEntity
  8
A-WINDOW
100
AcDbLine
 10
26.745
 20
12.155
 30
0.0
 11
26.745
 21
5.404999999999999
 31
0.0
  0
LINE
  5
289
330
17
100
AcDbEntity
  8
A-WINDOW
100
AcDbLine
 10
26.544999999999998
 20
1.3050000000000002
 30
0.0
 11
26.544999999999998
 21
0.20499999999999985
 31
0.0
  0
LINE
  5
28A
330
17
100
AcDbEntity
  8
A-WINDOW
100
AcDbLine
 10
26.645
 20
1.3050000000000002
 30
0.0
 11
26.645
 21
0.20499999999999985
 31
0.0
  0
LWPOLYLINE
  5
28B
330
17
100
AcDbEntity
  8
A-ROOM
100
AcDbPolyline
 90
4
 70
1
 10
-16.285
 20
6.715
 10
-11.365
 20
6.715
 10
-11.365
 20
14.335
 10
-16.285
 20
14.335
  0
TEXT
  5
28C
330
17
100
AcDbEntity
  8
A-TEXT
100
AcDbText
 10
-13.8036
 20
10.6001
 30
0.0
 40
0.25
  1
R1  34.2 m²
 72
1
 11
-13.8036
 21
10.6001
 31
0.0
100
AcDbText
 73
2
  0
LWPOLYLINE
  5
28D
330
17
100
AcDbEntity
  8
A-ROOM
100
AcDbPolyline
 90
4
 70
1
 10
-4.685
 20
-16.885
 10
-1.425
 20
-16.885
 10
-1.425
 20
-8.265
 10
-4.685
 20
-8.265
  0
TEXT
  5
28E
330
17
100
AcDbEntity
  8
A-TEXT
100
AcDbText
 10
-3.0306
 20
-12.3133
 30
0.0
 40
0.25
  1
R2  24.2 m²
 72
1
 11
-3.0306
 21
-12.3133
 31
0.0
100
AcDbText
 73
2
  0
LWPOLYLINE
  5
28F
330
17
100
AcDbEntity
  8
A-ROOM
100
AcDbPolyline
 90
4
 70
1
 10
-10.105
 20
-20.285
 10
-3.645
 20
-20.285
 10
-3.645
 20
-13.305
 10
-10.105
 20
-13.305
  0
TEXT
  5
290
330
17
100
AcDbEntity
  8
A-TEXT
100
AcDbText
 10
-7.2942
 20
-17.5002
 30
0.0
 40
0.25
  1
R3  22.7 m²
 72
1
 11
-7.2942
 21
-17.5002
 31
0.0
100
AcDbText
 73
2
  0
LWPOLYLINE
  5
291
330
17
100
AcDbEntity
  8
A-ROOM
100
AcDbPolyline
 90
4
 70
1
 10
-15.285
 20
-16.705
 10
-11.765
 20
-16.705
 10
-11.765
 20
-10.745
 10
-15.285
 20
-10.745
  0
TEXT
  5
292
330
17
100
AcDbEntity
  8
A-TEXT
100
AcDbText
 10
-13.5332
 20
-13.728
 30
0.0
 40
0.25
  1
R4  20.6 m²
 72
1
 11
-13.5332
 21
-13.728
 31
0.0
100
AcDbText
 73
2
  0
LWPOLYLINE
  5
293
330
17
100
AcDbEntity
  8
A-ROOM
100
AcDbPolyline
 90
4
 70
1
 10
-9.885
 20
-12.845
 10
-5.125
 20
-12.845
 10
-5.125
 20
-8.905
 10
-9.885
 20
-8.905
  0
TEXT
  5
294
330
17
100
AcDbEntity
  8
A-TEXT
100
AcDbText
 10
-7.4971
 20
-10.8353
 30
0.0
 40
0.25
  1
R5  17.6 m²
 72
1
 11
-7.4971
 21
-10.8353
 31
0.0
100
AcDbText
 73
2
  0
LWPOLYLINE
  5
295
330
17
100
AcDbEntity
  8
A-ROOM
100
AcDbPolyline
 90
4
 70
1
 10
-16.505
 20
-19.605
 10
-10.545
 20
-19.605
 10
-10.545
 20
-17.665
 10
-16.505
 20
-17.665
  0
TEXT
  5
296
330
17
100
AcDbEntity
  8
A-TEXT
100
AcDbText
 10
-13.3472
 20
-18.4605
 30
0.0
 40
0.25
  1
R6  8.5 m²
 72
1
 11
-13.3472
 21
-18.4605
 31
0.0
100
AcDbText
 73
2
  0
LWPOLYLINE
  5
297
330
17
100
AcDbEntity
  8
A-ROOM
100
AcDbPolyline
 90
4
 70
1
 10
-26.445
 20
9.415
 10
-20.705
 20
9.415
 10
-20.705
 20
11.995
 10
-26.445
 20
11.995
  0
TEXT
  5
298
330
17
100
AcDbEntity
  8
A-TEXT
100
AcDbText
 10
-24.1161
 20
10.5347
 30
0.0
 40
0.25
  1
R7  6.8 m²
 72
1
 11
-24.1161
 21
10.5347
 31
0.0
100
AcDbText
 73
2
  0
LWPOLYLINE
  5
299
330
17
100
AcDbEntity
  8
A-ROOM
100
AcDbPolyline
 90
4
 70
1
 10
-16.685
 20
14.795
 10
-11.365
 20
14.795
 10
-11.365
 20
15.395
 10
-16.685
 20
15.395
  0
TEXT
  5
29A
330
17
100
AcDbEntity
  8
A-TEXT
100
AcDbText
 10
-14.035
 20
15.105
 30
0.0
 40
0.25
  1
R8  3.2 m²
 72
1
 11
-14.035
 21
15.105
 31
0.0
100
AcDbText
 73
2
  0
LWPOLYLINE
  5
29B
330
17
100
AcDbEntity
  8
A-ROOM
100
AcDbPolyline
 90
4
 70
1
 10
-17.165
 20
7.835
 10
-16.405
 20
7.835
 10
-16.405
 20
10.215
 10
-17.165
 20
10.215
  0
TEXT
  5
29C
330
17
100
AcDbEntity
  8
A-TEXT
100
AcDbText
 10
-16.7895
 20
9.0579
 30
0.0
 40
0.25
  1
R9  1.7 m²
 72
1
 11
-16.7895
 21
9.0579
 31
0.0
100
AcDbText
 73
2
  0
LWPOLYLINE
  5
29D
330
17
100
AcDbEntity
  8
A-ROOM
100
AcDbPolyline
 90
4
 70
1
 10
-28.005
 20
-20.225
 10
-26.965
 20
-20.225
 10
-26.965
 20
-18.465
 10
-28.005
 20
-18.465
  0
TEXT
  5
29E
330
17
100
AcDbEntity
  8
A-TEXT
100
AcDbText
 10
-27.557
 20
-19.2637
 30
0.0
 40
0.25
  1
R10  1.5 m²
 72
1
 11
-27.557
 21
-19.2637
 31
0.0
100
AcDbText
 73
2
  0
LWPOLYLINE
  5
29F
330
17
100
AcDbEntity
  8
A-ROOM
100
AcDbPolyline
 90
4
 70
1
 10
-18.125
 20
-9.785
 10
-17.425
 20
-9.785
 10
-17.425
 20
-7.445
 10
-18.125
 20
-7.445
  0
TEXT
  5
2A0
330
17
100
AcDbEntity
  8
A-TEXT
100
AcDbText
 10
-17.7767
 20
-8.609
 30
0.0
 40
0.25
  1
R11  1.5 m²
 72
1
 11
-17.7767
 21
-8.609
 31
0.0
100
AcDbText
 73
2
  0
LWPOLYLINE
  5
2A1
330
17
100
AcDbEntity
  8
A-ROOM
100
AcDbPolyline
 90
4
 70
1
 10
-6.885
 20
-17.025
 10
-6.065
 20
-17.025
 10
-6.065
 20
-15.365
 10
-6.885
 20
-15.365
  0
TEXT
  5
2A2
330
17
100
AcDbEntity
  8
A-TEXT
100
AcDbText
 10
-6.5103
 20
-16.1363
 30
0.0
 40
0.25
  1
R12  1.3 m²
 72
1
 11
-6.5103
 21
-16.1363
 31
0.0
100
AcDbText
 73
2
  0
LWPOLYLINE
  5
2A3
330
17
100
AcDbEntity
  8
A-ROOM
100
AcDbPolyline
 90
4
 70
1
 10
10.635
 20
-6.965
 10
11.255
 20
-6.965
 10
11.255
 20
-4.945
 10
10.635
 20
-4.945
  0
TEXT
  5
2A4
330
17
100
AcDbEntity
  8
A-TEXT
100
AcDbText
 10
10.935
 20
-5.945
 30
0.0
 40
0.25
  1
R13  1.3 m²
 72
1
 11
10.935
 21
-5.945
 31
0.0
100
AcDbText
 73
2
  0
LWPOLYLINE
  5
2A5
330
17
100
AcDbEntity
  8
A-ROOM
100
AcDbPolyline
 90
4
 70
1
 10
-7.385
 20
-7.225
 10
-6.785
 20
-7.225
 10
-6.785
 20
-5.225
 10
-7.385
 20
-5.225
  0
TEXT
  5
2A6
330
17
100
AcDbEntity
  8
A-TEXT
100
AcDbText
 10
-7.095
 20
-6.215
 30
0.0
 40
0.25
  1
R14  1.2 m²
 72
1
 11
-7.095
 21
-6.215
 31
0.0
100
AcDbText
 73
2
  0
LWPOLYLINE
  5
2A7
330
17
100
AcDbEntity
  8
A-ROOM
100
AcDbPolyline
 90
4
 70
1
 10
9.315
 20
-6.965
 10
10.175
 20
-6.965
 10
10.175
 20
-5.905
 10
9.315
 20
-5.905
  0
TEXT
  5
2A8
330
17
100
AcDbEntity
  8
A-TEXT
100
AcDbText
 10
9.7217
 20
-6.4478
 30
0.0
 40
0.25
  1
R15  0.9 m²
 72
1
 11
9.7217
 21
-6.4478
 31
0.0
100
AcDbText
 73
2
  0
LWPOLYLINE
  5
2A9
330
17
100
AcDbEntity
  8
A-ROOM
100
AcDbPolyline
 90
4
 70
1
 10
-6.925
 20
-14.785
 10
-6.145
 20
-14.785
 10
-6.145
 20
-13.665
 10
-6.925
 20
-13.665
  0
TEXT
  5
2AA
330
17
100
AcDbEntity
  8
A-TEXT
100
AcDbText
 10
-6.5537
 20
-14.2248
 30
0.0
 40
0.25
  1
R16  0.8 m²
 72
1
 11
-6.5537
 21
-14.2248
 31
0.0
100
AcDbText
 73
2
  0
LWPOLYLINE
  5
2AB
330
17
100
AcDbEntity
  8
A-ROOM
100
AcDbPolyline
 90
4
 70
1
 10
-26.045
 20
-5.645
 10
-24.725
 20
-5.645
 10
-24.725
 20
-5.005
 10
-26.045
 20
-5.005
  0
TEXT
  5
2AC
330
17
100
AcDbEntity
  8
A-TEXT
100
AcDbText
 10
-25.4099
 20
-5.3217
 30
0.0
 40
0.25
  1
R17  0.8 m²
 72
1
 11
-25.4099
 21
-5.3217
 31
0.0
100
AcDbText
 73
2
  0
TEXT
  5
2AD
330
17
100
AcDbEntity
  8
A-TEXT
100
AcDbText
 10
-28.92500114440918
 20
-27.825000762939453
 30
0.0
 40
0.4
  1
Floor 0  —  392 walls  ·  97 doors  ·  6 windows
 11
-28.92500114440918
 21
-27.825000762939453
 31
0.0
100
AcDbText
  0
ENDSEC
  0
SECTION
  2
OBJECTS
  0
DICTIONARY
  5
A
330
0
100
AcDbDictionary
281
1
  3
ACAD_COLOR
350
B
  3
ACAD_GROUP
350
C
  3
ACAD_LAYOUT
350
D
  3
ACAD_MATERIAL
350
E
  3
ACAD_MLEADERSTYLE
350
F
  3
ACAD_MLINESTYLE
350
10
  3
ACAD_PLOTSETTINGS
350
11
  3
ACAD_PLOTSTYLENAME
350
12
  3
ACAD_SCALELIST
350
14
  3
ACAD_TABLESTYLE
350
15
  3
ACAD_VISUALSTYLE
350
16
  3
EZDXF_META
350
2D
  0
DICTIONARY
  5
B
330
A
100
AcDbDictionary
281
1
  0
DICTIONARY
  5
C
330
A
100
AcDbDictionary
281
1
  0
DICTIONARY
  5
D
330
A
100
AcDbDictionary
281
1
  3
Model
350
1A
  3
Layout1
350
1E
  0
DICTIONARY
  5
E
330
A
100
AcDbDictionary
281
1
  3
ByBlock
350
1F
  3
ByLayer
350
20
  3
Global
350
21
  0
DICTIONARY
  5
F
330
A
100
AcDbDictionary
281
1
  3
Standard
350
2C
  0
DICTIONARY
  5
10
330
A
100
AcDbDictionary
281
1
  3
Standard
350
22
  0
DICTIONARY
  5
11
330
A
100
AcDbDictionary
281
1
  0
ACDBDICTIONARYWDFLT
  5
12
330
A
100
AcDbDictionary
281
1
  3
Normal
350
13
100
AcDbDictionaryWithDefault
340
13
  0
ACDBPLACEHOLDER
  5
13
330
12
  0
DICTIONARY
  5
14
330
A
100
AcDbDictionary
281
1
  0
DICTIONARY
  5
15
330
A
100
AcDbDictionary
281
1
  0
DICTIONARY
  5
16
330
A
100
AcDbDictionary
281
1
  0
LAYOUT
  5
1A
330
D
100
AcDbPlotSettings
  1

  4
A3
  6

 40
7.5
 41
20.0
 42
7.5
 43
20.0
 44
420.0
 45
297.0
 46
0.0
 47
0.0
 48
0.0
 49
0.0
140
0.0
141
0.0
142
1.0
143
1.0
 70
1024
 72
1
 73
0
 74
5
  7

 75
16
 76
0
 77
2
 78
300
147
1.0
148
0.0
149
0.0
100
AcDbLayout
  1
Model
 70
1
 71
0
 10
0.0
 20
0.0
 11
420.0
 21
297.0
 12
0.0
 22
0.0
 32
0.0
 14
1e+20
 24
1e+20
 34
1e+20
 15
-1e+20
 25
-1e+20
 35
-1e+20
146
0.0
 13
0.0
 23
0.0
 33
0.0
 16
1.0
 26
0.0
 36
0.0
 17
0.0
 27
1.0
 37
0.0
 76
1
330
17
  0
LAYOUT
  5
1E
330
D
100
AcDbPlotSettings
  1

  4
A3
  6

 40
7.5
 41
20.0
 42
7.5
 43
20.0
 44
420.0
 45
297.0
 46
0.0
 47
0.0
 48
0.0
 49
0.0
140
0.0
141
0.0
142
1.0
143
1.0
 70
0
 72
1
 73
0
 74
5
  7

 75
16
 76
0
 77
2
 78
300
147
1.0
148
0.0
149
0.0
100
AcDbLayout
  1
Layout1
 70
1
 71
1
 10
0.0
 20
0.0
 11
420.0
 21
297.0
 12
0.0
 22
0.0
 32
0.0
 14
1e+20
 24
1e+20
 34
1e+20
 15
-1e+20
 25
-1e+20
 35
-1e+20
146
0.0
 13
0.0
 23
0.0
 33
0.0
 16
1.0
 26
0.0
 36
0.0
 17
0.0
 27
1.0
 37
0.0
 76
1
330
1B
  0
MATERIAL
  5
1F
102
{ACAD_REACTORS
330
E
102
}
330
E
100
AcDbMaterial
  1
ByBlock
  2

 70
0
 40
1.0
 71
1
 41
1.0
 91
-1023410177
 42
1.0
 72
1
  3

 73
1
 74
1
 75
1
 44
0.5
 73
0
 45
1.0
 46
1.0
 77
1
  4

 78
1
 79
1
170
1
 48
1.0
171
1
  6

172
1
173
1
174
1
140
1.0
141
1.0
175
1
  7

176
1
177
1
178
1
143
1.0
179
1
  8

270
1
271
1
272
1
145
1.0
146
1.0
273
1
  9

274
1
275
1
276
1
 42
1.0
 72
1
  3

 73
1
 74
1
 75
1
 94
63
  0
MATERIAL
  5
20
102
{ACAD_REACTORS
330
E
102
}
330
E
100
AcDbMaterial
  1
ByLayer
  2

 70
0
 40
1.0
 71
1
 41
1.0
 91
-1023410177
 42
1.0
 72
1
  3

 73
1
 74
1
 75
1
 44
0.5
 73
0
 45
1.0
 46
1.0
 77
1
  4

 78
1
 79
1
170
1
 48
1.0
171
1
  6

172
1
173
1
174
1
140
1.0
141
1.0
175
1
  7

176
1
177
1
178
1
143
1.0
179
1
  8

270
1
271
1
272
1
145
1.0
146
1.0
273
1
  9

274
1
275
1
276
1
 42
1.0
 72
1
  3

 73
1
 74
1
 75
1
 94
63
  0
MATERIAL
  5
21
102
{ACAD_REACTORS
330
E
102
}
330
E
100
AcDbMaterial
  1
Global
  2

 70
0
 40
1.0
 71
1
 41
1.0
 91
-1023410177
 42
1.0
 72
1
  3

 73
1
 74
1
 75
1
 44
0.5
 73
0
 45
1.0
 46
1.0
 77
1
  4

 78
1
 79
1
170
1
 48
1.0
171
1
  6

172
1
173
1
174
1
140
1.0
141
1.0
175
1
  7

176
1
177
1
178
1
143
1.0
179
1
  8

270
1
271
1
272
1
145
1.0
146
1.0
273
1
  9

274
1
275
1
276
1
 42
1.0
 72
1
  3

 73
1
 74
1
 75
1
 94
63
  0
MLINESTYLE
  5
22
102
{ACAD_REACTORS
330
10
102
}
330
10
100
AcDbMlineStyle
  2
Standard
 70
0
  3

 62
256
 51
90.0
 52
90.0
 71
2
 49
0.5
 62
256
  6
BYLAYER
 49
-0.5
 62
256
  6
BYLAYER
  0
MLEADERSTYLE
  5
2C
102
{ACAD_REACTORS
330
F
102
}
330
F
100
AcDbMLeaderStyle
179
2
170
2
171
1
172
0
 90
2
 40
0.0
 41
0.0
173
1
 91
-1056964608
 92
-2
290
1
 42
2.0
291
1
 43
8.0
  3
Standard
 44
4.0
300

342
29
174
1
175
1
176
0
178
1
 93
-1056964608
 45
4.0
292
0
297
0
 46
4.0
 94
-1056964608
 47
1.0
 49
1.0
140
1.0
294
1
141
0.0
177
0
142
1.0
295
0
296
0
143
3.75
271
0
272
9
273
9
  0
DICTIONARY
  5
2D
330
A
100
AcDbDictionary
280
1
281
1
  3
CREATED_BY_EZDXF
350
2E
  3
WRITTEN_BY_EZDXF
350
2B0
  0
DICTIONARYVAR
  5
2E
330
2D
100
DictionaryVariables
280
0
  1
1.4.3 @ 2026-04-10T13:11:06.607227+00:00
  0
DICTIONARYVAR
  5
2B0
330
2D
100
DictionaryVariables
280
0
  1
1.4.3 @ 2026-04-10T13:11:06.614914+00:00
  0
ENDSEC
  0
EOF
