  0
SECTION
  2
HEADER
  9
$ACADVER
  1
AC1024
  9
$ACADMAINTVER
 70
6
  9
$DWGCODEPAGE
  3
ANSI_1252
  9
$LASTSAVEDBY
  1
ezdxf
  9
$INSBASE
 10
0.0
 20
0.0
 30
0.0
  9
$EXTMIN
 10
1e+20
 20
1e+20
 30
1e+20
  9
$EXTMAX
 10
-1e+20
 20
-1e+20
 30
-1e+20
  9
$LIMMIN
 10
0.0
 20
0.0
  9
$LIMMAX
 10
420.0
 20
297.0
  9
$ORTHOMODE
 70
0
  9
$REGENMODE
 70
1
  9
$FILLMODE
 70
1
  9
$QTEXTMODE
 70
0
  9
$MIRRTEXT
 70
1
  9
$LTSCALE
 40
1.0
  9
$ATTMODE
 70
1
  9
$TEXTSIZE
 40
2.5
  9
$TRACEWID
 40
1.0
  9
$TEXTSTYLE
  7
Standard
  9
$CLAYER
  8
0
  9
$CELTYPE
  6
ByLayer
  9
$CECOLOR
 62
256
  9
$CELTSCALE
 40
1.0
  9
$DISPSILH
 70
0
  9
$DIMSCALE
 40
1.0
  9
$DIMASZ
 40
2.5
  9
$DIMEXO
 40
0.625
  9
$DIMDLI
 40
3.75
  9
$DIMRND
 40
0.0
  9
$DIMDLE
 40
0.0
  9
$DIMEXE
 40
1.25
  9
$DIMTP
 40
0.0
  9
$DIMTM
 40
0.0
  9
$DIMTXT
 40
2.5
  9
$DIMCEN
 40
2.5
  9
$DIMTSZ
 40
0.0
  9
$DIMTOL
 70
0
  9
$DIMLIM
 70
0
  9
$DIMTIH
 70
0
  9
$DIMTOH
 70
0
  9
$DIMSE1
 70
0
  9
$DIMSE2
 70
0
  9
$DIMTAD
 70
1
  9
$DIMZIN
 70
8
  9
$DIMBLK
  1

  9
$DIMASO
 70
1
  9
$DIMSHO
 70
1
  9
$DIMPOST
  1

  9
$DIMAPOST
  1

  9
$DIMALT
 70
0
  9
$DIMALTD
 70
3
  9
$DIMALTF
 40
0.03937007874
  9
$DIMLFAC
 40
1.0
  9
$DIMTOFL
 70
1
  9
$DIMTVP
 40
0.0
  9
$DIMTIX
 70
0
  9
$DIMSOXD
 70
0
  9
$DIMSAH
 70
0
  9
$DIMBLK1
  1

  9
$DIMBLK2
  1

  9
$DIMSTYLE
  2
ISO-25
  9
$DIMCLRD
 70
0
  9
$DIMCLRE
 70
0
  9
$DIMCLRT
 70
0
  9
$DIMTFAC
 40
1.0
  9
$DIMGAP
 40
0.625
  9
$DIMJUST
 70
0
  9
$DIMSD1
 70
0
  9
$DIMSD2
 70
0
  9
$DIMTOLJ
 70
0
  9
$DIMTZIN
 70
8
  9
$DIMALTZ
 70
0
  9
$DIMALTTZ
 70
0
  9
$DIMUPT
 70
0
  9
$DIMDEC
 70
2
  9
$DIMTDEC
 70
2
  9
$DIMALTU
 70
2
  9
$DIMALTTD
 70
3
  9
$DIMTXSTY
  7
Standard
  9
$DIMAUNIT
 70
0
  9
$DIMADEC
 70
0
  9
$DIMALTRND
 40
0.0
  9
$DIMAZIN
 70
0
  9
$DIMDSEP
 70
44
  9
$DIMATFIT
 70
3
  9
$DIMFRAC
 70
0
  9
$DIMLDRBLK
  1

  9
$DIMLUNIT
 70
2
  9
$DIMLWD
 70
-2
  9
$DIMLWE
 70
-2
  9
$DIMTMOVE
 70
0
  9
$DIMFXL
 40
1.0
  9
$DIMFXLON
 70
0
  9
$DIMJOGANG
 40
0.785398163397
  9
$DIMTFILL
 70
0
  9
$DIMTFILLCLR
 70
0
  9
$DIMARCSYM
 70
0
  9
$DIMLTYPE
  6

  9
$DIMLTEX1
  6

  9
$DIMLTEX2
  6

  9
$DIMTXTDIRECTION
 70
0
  9
$LUNITS
 70
2
  9
$LUPREC
 70
4
  9
$SKETCHINC
 40
1.0
  9
$FILLETRAD
 40
10.0
  9
$AUNITS
 70
0
  9
$AUPREC
 70
2
  9
$MENU
  1
.
  9
$ELEVATION
 40
0.0
  9
$PELEVATION
 40
0.0
  9
$THICKNESS
 40
0.0
  9
$LIMCHECK
 70
0
  9
$CHAMFERA
 40
0.0
  9
$CHAMFERB
 40
0.0
  9
$CHAMFERC
 40
0.0
  9
$CHAMFERD
 40
0.0
  9
$SKPOLY
 70
0
  9
$TDCREATE
 40
2461139.4291319447
  9
$TDUCREATE
 40
2458532.153996898
  9
$TDUPDATE
 40
2461139.4291319447
  9
$TDUUPDATE
 40
2458532.1544311
  9
$TDINDWG
 40
0.0
  9
$TDUSRTIMER
 40
0.0
  9
$USRTIMER
 70
1
  9
$ANGBASE
 50
0.0
  9
$ANGDIR
 70
0
  9
$PDMODE
 70
0
  9
$PDSIZE
 40
0.0
  9
$PLINEWID
 40
0.0
  9
$SPLFRAME
 70
0
  9
$SPLINETYPE
 70
6
  9
$SPLINESEGS
 70
8
  9
$HANDSEED
  5
103
  9
$SURFTAB1
 70
6
  9
$SURFTAB2
 70
6
  9
$SURFTYPE
 70
6
  9
$SURFU
 70
6
  9
$SURFV
 70
6
  9
$UCSBASE
  2

  9
$UCSNAME
  2

  9
$UCSORG
 10
0.0
 20
0.0
 30
0.0
  9
$UCSXDIR
 10
1.0
 20
0.0
 30
0.0
  9
$UCSYDIR
 10
0.0
 20
1.0
 30
0.0
  9
$UCSORTHOREF
  2

  9
$UCSORTHOVIEW
 70
0
  9
$UCSORGTOP
 10
0.0
 20
0.0
 30
0.0
  9
$UCSORGBOTTOM
 10
0.0
 20
0.0
 30
0.0
  9
$UCSORGLEFT
 10
0.0
 20
0.0
 30
0.0
  9
$UCSORGRIGHT
 10
0.0
 20
0.0
 30
0.0
  9
$UCSORGFRONT
 10
0.0
 20
0.0
 30
0.0
  9
$UCSORGBACK
 10
0.0
 20
0.0
 30
0.0
  9
$PUCSBASE
  2

  9
$PUCSNAME
  2

  9
$PUCSORG
 10
0.0
 20
0.0
 30
0.0
  9
$PUCSXDIR
 10
1.0
 20
0.0
 30
0.0
  9
$PUCSYDIR
 10
0.0
 20
1.0
 30
0.0
  9
$PUCSORTHOREF
  2

  9
$PUCSORTHOVIEW
 70
0
  9
$PUCSORGTOP
 10
0.0
 20
0.0
 30
0.0
  9
$PUCSORGBOTTOM
 10
0.0
 20
0.0
 30
0.0
  9
$PUCSORGLEFT
 10
0.0
 20
0.0
 30
0.0
  9
$PUCSORGRIGHT
 10
0.0
 20
0.0
 30
0.0
  9
$PUCSORGFRONT
 10
0.0
 20
0.0
 30
0.0
  9
$PUCSORGBACK
 10
0.0
 20
0.0
 30
0.0
  9
$USERI1
 70
0
  9
$USERI2
 70
0
  9
$USERI3
 70
0
  9
$USERI4
 70
0
  9
$USERI5
 70
0
  9
$USERR1
 40
0.0
  9
$USERR2
 40
0.0
  9
$USERR3
 40
0.0
  9
$USERR4
 40
0.0
  9
$USERR5
 40
0.0
  9
$WORLDVIEW
 70
1
  9
$SHADEDGE
 70
3
  9
$SHADEDIF
 70
70
  9
$TILEMODE
 70
1
  9
$MAXACTVP
 70
64
  9
$PINSBASE
 10
0.0
 20
0.0
 30
0.0
  9
$PLIMCHECK
 70
0
  9
$PEXTMIN
 10
1e+20
 20
1e+20
 30
1e+20
  9
$PEXTMAX
 10
-1e+20
 20
-1e+20
 30
-1e+20
  9
$PLIMMIN
 10
0.0
 20
0.0
  9
$PLIMMAX
 10
420.0
 20
297.0
  9
$UNITMODE
 70
0
  9
$VISRETAIN
 70
1
  9
$PLINEGEN
 70
0
  9
$PSLTSCALE
 70
1
  9
$TREEDEPTH
 70
3020
  9
$CMLSTYLE
  2
Standard
  9
$CMLJUST
 70
0
  9
$CMLSCALE
 40
20.0
  9
$PROXYGRAPHICS
 70
1
  9
$MEASUREMENT
 70
1
  9
$CELWEIGHT
370
-1
  9
$ENDCAPS
280
0
  9
$JOINSTYLE
280
0
  9
$LWDISPLAY
290
0
  9
$INSUNITS
 70
6
  9
$HYPERLINKBASE
  1

  9
$STYLESHEET
  1

  9
$XEDIT
290
1
  9
$CEPSNTYPE
380
0
  9
$PSTYLEMODE
290
1
  9
$FINGERPRINTGUID
  2
{9FA791A4-9B2C-4FD7-9427-9A9B67D10B2A}
  9
$VERSIONGUID
  2
{64F9DB2C-BF80-42FF-B3F0-52A01C9362E6}
  9
$EXTNAMES
290
1
  9
$PSVPSCALE
 40
0.0
  9
$OLESTARTUP
290
0
  9
$SORTENTS
280
127
  9
$INDEXCTL
280
0
  9
$HIDETEXT
280
1
  9
$XCLIPFRAME
280
1
  9
$HALOGAP
280
0
  9
$OBSCOLOR
 70
257
  9
$OBSLTYPE
280
0
  9
$INTERSECTIONDISPLAY
280
0
  9
$INTERSECTIONCOLOR
 70
257
  9
$DIMASSOC
280
2
  9
$PROJECTNAME
  1

  9
$CAMERADISPLAY
290
0
  9
$LENSLENGTH
 40
50.0
  9
$CAMERAHEIGHT
 40
0.0
  9
$STEPSPERSEC
 40
24.0
  9
$STEPSIZE
 40
100.0
  9
$3DDWFPREC
 40
2.0
  9
$PSOLWIDTH
 40
0.005
  9
$PSOLHEIGHT
 40
0.08
  9
$LOFTANG1
 40
1.570796326795
  9
$LOFTANG2
 40
1.570796326795
  9
$LOFTMAG1
 40
0.0
  9
$LOFTMAG2
 40
0.0
  9
$LOFTPARAM
 70
7
  9
$LOFTNORMALS
280
1
  9
$LATITUDE
 40
37.795
  9
$LONGITUDE
 40
-122.394
  9
$NORTHDIRECTION
 40
0.0
  9
$TIMEZONE
 70
-8000
  9
$LIGHTGLYPHDISPLAY
280
1
  9
$TILEMODELIGHTSYNCH
280
1
  9
$CMATERIAL
347
20
  9
$SOLIDHIST
280
0
  9
$SHOWHIST
280
1
  9
$DWFFRAME
280
2
  9
$DGNFRAME
280
2
  9
$REALWORLDSCALE
290
1
  9
$INTERFERECOLOR
 62
256
  9
$CSHADOW
280
0
  9
$SHADOWPLANELOCATION
 40
0.0
  0
ENDSEC
  0
SECTION
  2
CLASSES
  0
CLASS
  1
ACDBDICTIONARYWDFLT
  2
AcDbDictionaryWithDefault
  3
ObjectDBX Classes
 90
0
 91
0
280
0
281
0
  0
CLASS
  1
SUN
  2
AcDbSun
  3
SCENEOE
 90
1153
 91
0
280
0
281
0
  0
CLASS
  1
VISUALSTYLE
  2
AcDbVisualStyle
  3
ObjectDBX Classes
 90
4095
 91
0
280
0
281
0
  0
CLASS
  1
MATERIAL
  2
AcDbMaterial
  3
ObjectDBX Classes
 90
1153
 91
0
280
0
281
0
  0
CLASS
  1
SCALE
  2
AcDbScale
  3
ObjectDBX Classes
 90
1153
 91
0
280
0
281
0
  0
CLASS
  1
TABLESTYLE
  2
AcDbTableStyle
  3
ObjectDBX Classes
 90
4095
 91
0
280
0
281
0
  0
CLASS
  1
MLEADERSTYLE
  2
AcDbMLeaderStyle
  3
ACDB_MLEADERSTYLE_CLASS
 90
4095
 91
0
280
0
281
0
  0
CLASS
  1
DICTIONARYVAR
  2
AcDbDictionaryVar
  3
ObjectDBX Classes
 90
0
 91
0
280
0
281
0
  0
CLASS
  1
CELLSTYLEMAP
  2
AcDbCellStyleMap
  3
ObjectDBX Classes
 90
1152
 91
0
280
0
281
0
  0
CLASS
  1
MENTALRAYRENDERSETTINGS
  2
AcDbMentalRayRenderSettings
  3
SCENEOE
 90
1024
 91
0
280
0
281
0
  0
CLASS
  1
ACDBDETAILVIEWSTYLE
  2
AcDbDetailViewStyle
  3
ObjectDBX Classes
 90
1025
 91
0
280
0
281
0
  0
CLASS
  1
ACDBSECTIONVIEWSTYLE
  2
AcDbSectionViewStyle
  3
ObjectDBX Classes
 90
1025
 91
0
280
0
281
0
  0
CLASS
  1
RASTERVARIABLES
  2
AcDbRasterVariables
  3
ISM
 90
0
 91
0
280
0
281
0
  0
CLASS
  1
ACDBPLACEHOLDER
  2
AcDbPlaceHolder
  3
ObjectDBX Classes
 90
0
 91
0
280
0
281
0
  0
CLASS
  1
LAYOUT
  2
AcDbLayout
  3
ObjectDBX Classes
 90
0
 91
0
280
0
281
0
  0
ENDSEC
  0
SECTION
  2
TABLES
  0
TABLE
  2
VPORT
  5
8
330
0
100
AcDbSymbolTable
 70
1
  0
VPORT
  5
23
330
8
100
AcDbSymbolTableRecord
100
AcDbViewportTableRecord
  2
*Active
 70
0
 10
0.0
 20
0.0
 11
1.0
 21
1.0
 12
0.0
 22
0.0
 13
0.0
 23
0.0
 14
0.5
 24
0.5
 15
0.5
 25
0.5
 16
0.0
 26
0.0
 36
1.0
 17
0.0
 27
0.0
 37
0.0
 40
1000.0
 41
1.34
 42
50.0
 43
0.0
 44
0.0
 50
0.0
 51
0.0
 71
0
 72
1000
 73
1
 74
3
 75
0
 76
0
 77
0
 78
0
281
0
 65
0
146
0.0
  0
ENDTAB
  0
TABLE
  2
LTYPE
  5
2
330
0
100
AcDbSymbolTable
 70
3
  0
LTYPE
  5
24
330
2
100
AcDbSymbolTableRecord
100
AcDbLinetypeTableRecord
  2
ByBlock
 70
0
  3

 72
65
 73
0
 40
0.0
  0
LTYPE
  5
25
330
2
100
AcDbSymbolTableRecord
100
AcDbLinetypeTableRecord
  2
ByLayer
 70
0
  3

 72
65
 73
0
 40
0.0
  0
LTYPE
  5
26
330
2
100
AcDbSymbolTableRecord
100
AcDbLinetypeTableRecord
  2
Continuous
 70
0
  3

 72
65
 73
0
 40
0.0
  0
ENDTAB
  0
TABLE
  2
LAYER
  5
1
330
0
100
AcDbSymbolTable
 70
7
  0
LAYER
  5
27
330
1
100
AcDbSymbolTableRecord
100
AcDbLayerTableRecord
  2
0
 70
0
 62
7
  6
Continuous
370
-3
390
13
347
21
  0
LAYER
  5
28
330
1
100
AcDbSymbolTableRecord
100
AcDbLayerTableRecord
  2
Defpoints
 70
0
 62
7
  6
Continuous
290
0
370
-3
390
13
347
21
  0
LAYER
  5
2F
330
1
100
AcDbSymbolTableRecord
100
AcDbLayerTableRecord
  2
A-WALL
 70
0
 62
7
  6
Continuous
370
50
390
13
347
21
  0
LAYER
  5
30
330
1
100
AcDbSymbolTableRecord
100
AcDbLayerTableRecord
  2
A-DOOR
 70
0
 62
3
  6
Continuous
370
35
390
13
347
21
  0
LAYER
  5
31
330
1
100
AcDbSymbolTableRecord
100
AcDbLayerTableRecord
  2
A-WINDOW
 70
0
 62
4
  6
Continuous
370
25
390
13
347
21
  0
LAYER
  5
32
330
1
100
AcDbSymbolTableRecord
100
AcDbLayerTableRecord
  2
A-TEXT
 70
0
 62
2
  6
Continuous
370
-3
390
13
347
21
  0
LAYER
  5
33
330
1
100
AcDbSymbolTableRecord
100
AcDbLayerTableRecord
  2
A-GRID
 70
0
 62
8
  6
Continuous
370
13
390
13
347
21
  0
ENDTAB
  0
TABLE
  2
STYLE
  5
5
330
0
100
AcDbSymbolTable
 70
1
  0
STYLE
  5
29
330
5
100
AcDbSymbolTableRecord
100
AcDbTextStyleTableRecord
  2
Standard
 70
0
 40
0.0
 41
1.0
 50
0.0
 71
0
 42
2.5
  3
txt
  4

  0
ENDTAB
  0
TABLE
  2
VIEW
  5
7
330
0
100
AcDbSymbolTable
 70
0
  0
ENDTAB
  0
TABLE
  2
UCS
  5
6
330
0
100
AcDbSymbolTable
 70
0
  0
ENDTAB
  0
TABLE
  2
APPID
  5
3
330
0
100
AcDbSymbolTable
 70
3
  0
APPID
  5
2A
330
3
100
AcDbSymbolTableRecord
100
AcDbRegAppTableRecord
  2
ACAD
 70
0
  0
APPID
  5
100
330
3
100
AcDbSymbolTableRecord
100
AcDbRegAppTableRecord
  2
HATCHBACKGROUNDCOLOR
 70
0
  0
APPID
  5
101
330
3
100
AcDbSymbolTableRecord
100
AcDbRegAppTableRecord
  2
EZDXF
 70
0
  0
ENDTAB
  0
TABLE
  2
DIMSTYLE
  5
4
330
0
100
AcDbSymbolTable
 70
1
100
AcDbDimStyleTable
  0
DIMSTYLE
105
2B
330
4
100
AcDbSymbolTableRecord
100
AcDbDimStyleTableRecord
  2
Standard
 70
0
 40
1.0
 41
2.5
 42
0.625
 43
3.75
 44
1.25
 45
0.0
 46
0.0
 47
0.0
 48
0.0
 49
2.5
140
2.5
141
2.5
142
0.0
143
0.03937007874
144
1.0
145
0.0
146
1.0
147
0.625
148
0.0
 69
0
 70
0
 71
0
 72
0
 73
0
 74
0
 75
0
 76
0
 77
1
 78
8
 79
3
170
0
171
3
172
1
173
0
174
0
175
0
176
0
177
0
178
0
179
2
271
2
272
2
273
2
274
3
275
0
276
0
277
2
278
44
279
0
280
0
281
0
282
0
283
0
284
8
285
0
286
0
288
0
289
3
290
0
371
-2
372
-2
  0
ENDTAB
  0
TABLE
  2
BLOCK_RECORD
  5
9
330
0
100
AcDbSymbolTable
 70
2
  0
BLOCK_RECORD
  5
17
330
9
100
AcDbSymbolTableRecord
100
AcDbBlockTableRecord
  2
*Model_Space
340
1A
 70
0
280
1
281
0
  0
BLOCK_RECORD
  5
1B
330
9
100
AcDbSymbolTableRecord
100
AcDbBlockTableRecord
  2
*Paper_Space
340
1E
 70
0
280
1
281
0
  0
ENDTAB
  0
ENDSEC
  0
SECTION
  2
BLOCKS
  0
BLOCK
  5
18
330
17
100
AcDbEntity
  8
0
100
AcDbBlockBegin
  2
*Model_Space
 70
0
 10
0.0
 20
0.0
 30
0.0
  3
*Model_Space
  1

  0
ENDBLK
  5
19
330
17
100
AcDbEntity
  8
0
100
AcDbBlockEnd
  0
BLOCK
  5
1C
330
1B
100
AcDbEntity
  8
0
100
AcDbBlockBegin
  2
*Paper_Space
 70
0
 10
0.0
 20
0.0
 30
0.0
  3
*Paper_Space
  1

  0
ENDBLK
  5
1D
330
1B
100
AcDbEntity
  8
0
100
AcDbBlockEnd
  0
ENDSEC
  0
SECTION
  2
ENTITIES
  0
LINE
  5
34
330
17
100
AcDbEntity
  8
A-WALL
100
AcDbLine
 10
25.27500038146973
 20
18.324999237060553
 30
0.0
 11
26.725000381469727
 21
18.324999237060553
 31
0.0
  0
LINE
  5
35
330
17
100
AcDbEntity
  8
A-WALL
100
AcDbLine
 10
26.575000381469728
 20
16.674999237060547
 30
0.0
 11
26.575000381469728
 21
-7.575000762939453
 31
0.0
  0
LINE
  5
36
330
17
100
AcDbEntity
  8
A-WALL
100
AcDbLine
 10
-3.6249996185302713
 20
18.37499923706055
 30
0.0
 11
7.225000381469727
 21
18.37499923706055
 31
0.0
  0
LINE
  5
37
330
17
100
AcDbEntity
  8
A-WALL
100
AcDbLine
 10
-10.924999618530272
 20
18.37499923706055
 30
0.0
 11
-6.074999618530271
 21
18.37499923706055
 31
0.0
  0
LINE
  5
38
330
17
100
AcDbEntity
  8
A-WALL
100
AcDbLine
 10
11.77500038146973
 20
15.524999237060548
 30
0.0
 11
15.92500038146973
 21
15.524999237060548
 31
0.0
  0
LINE
  5
39
330
17
100
AcDbEntity
  8
A-WALL
100
AcDbLine
 10
11.575000381469728
 20
18.47499923706055
 30
0.0
 11
15.27500038146973
 21
18.47499923706055
 31
0.0
  0
LINE
  5
3A
330
17
100
AcDbEntity
  8
A-WALL
100
AcDbLine
 10
-10.024999618530273
 20
-9.625000762939454
 30
0.0
 11
-10.024999618530273
 21
-19.925000762939455
 31
0.0
  0
LINE
  5
3B
330
17
100
AcDbEntity
  8
A-WALL
100
AcDbLine
 10
15.375000381469732
 20
15.274999237060548
 30
0.0
 11
7.575000381469728
 21
15.274999237060548
 31
0.0
  0
LINE
  5
3C
330
17
100
AcDbEntity
  8
A-WALL
100
AcDbLine
 10
6.625000381469725
 20
12.324999237060545
 30
0.0
 11
15.92500038146973
 21
12.324999237060545
 31
0.0
  0
LINE
  5
3D
330
17
100
AcDbEntity
  8
A-WALL
100
AcDbLine
 10
6.675000381469729
 20
12.024999237060548
 30
0.0
 11
8.17500038146973
 21
12.024999237060548
 31
0.0
  0
LINE
  5
3E
330
17
100
AcDbEntity
  8
A-WALL
100
AcDbLine
 10
11.625000381469732
 20
12.37499923706055
 30
0.0
 11
11.625000381469732
 21
1.2749992370605483
 31
0.0
  0
LINE
  5
3F
330
17
100
AcDbEntity
  8
A-WALL
100
AcDbLine
 10
-16.874999618530275
 20
15.574999237060553
 30
0.0
 11
-14.674999618530272
 21
15.574999237060553
 31
0.0
  0
LINE
  5
40
330
17
100
AcDbEntity
  8
A-WALL
100
AcDbLine
 10
9.225000381469727
 20
12.024999237060548
 30
0.0
 11
15.075000381469728
 21
12.024999237060548
 31
0.0
  0
LINE
  5
41
330
17
100
AcDbEntity
  8
A-WALL
100
AcDbLine
 10
11.475000381469727
 20
-7.475000762939452
 30
0.0
 11
26.475000381469727
 21
-7.475000762939452
 31
0.0
  0
LINE
  5
42
330
17
100
AcDbEntity
  8
A-WALL
100
AcDbLine
 10
-9.524999618530273
 20
15.674999237060547
 30
0.0
 11
-5.324999618530271
 21
15.674999237060547
 31
0.0
  0
LINE
  5
43
330
17
100
AcDbEntity
  8
A-WALL
100
AcDbLine
 10
6.825000381469728
 20
-0.425000762939451
 30
0.0
 11
15.475000381469727
 21
-0.425000762939451
 31
0.0
  0
LINE
  5
44
330
17
100
AcDbEntity
  8
A-WALL
100
AcDbLine
 10
6.525000381469731
 20
-4.025000762939452
 30
0.0
 11
15.825000381469728
 21
-4.025000762939452
 31
0.0
  0
LINE
  5
45
330
17
100
AcDbEntity
  8
A-WALL
100
AcDbLine
 10
-2.424999618530272
 20
10.474999237060551
 30
0.0
 11
-1.6249996185302713
 21
10.474999237060551
 31
0.0
  0
LINE
  5
46
330
17
100
AcDbEntity
  8
A-WALL
100
AcDbLine
 10
-13.274999618530273
 20
7.274999237060548
 30
0.0
 11
-16.024999618530273
 21
7.274999237060548
 31
0.0
  0
LINE
  5
47
330
17
100
AcDbEntity
  8
A-WALL
100
AcDbLine
 10
-6.474999618530273
 20
-8.625000762939454
 30
0.0
 11
-5.524999618530273
 21
-8.625000762939454
 31
0.0
  0
LINE
  5
48
330
17
100
AcDbEntity
  8
A-WALL
100
AcDbLine
 10
-16.524999618530273
 20
11.574999237060545
 30
0.0
 11
-14.774999618530273
 21
11.574999237060545
 31
0.0
  0
LINE
  5
49
330
17
100
AcDbEntity
  8
A-WALL
100
AcDbLine
 10
15.975000381469727
 20
-7.775000762939452
 30
0.0
 11
22.02500038146973
 21
-7.775000762939452
 31
0.0
  0
LINE
  5
4A
330
17
100
AcDbEntity
  8
A-WALL
100
AcDbLine
 10
11.67500038146973
 20
1.1749992370605469
 30
0.0
 11
15.825000381469728
 21
1.1749992370605469
 31
0.0
  0
LINE
  5
4B
330
17
100
AcDbEntity
  8
A-WALL
100
AcDbLine
 10
-9.374999618530271
 20
-12.725000762939452
 30
0.0
 11
-5.074999618530271
 21
-12.725000762939452
 31
0.0
  0
LINE
  5
4C
330
17
100
AcDbEntity
  8
A-WALL
100
AcDbLine
 10
-8.474999618530273
 20
12.424999237060547
 30
0.0
 11
-6.024999618530273
 21
12.424999237060547
 31
0.0
  0
LINE
  5
4D
330
17
100
AcDbEntity
  8
A-WALL
100
AcDbLine
 10
-6.724999618530273
 20
11.074999237060545
 30
0.0
 11
-5.574999618530271
 21
10.774999237060548
 31
0.0
  0
LINE
  5
4E
330
17
100
AcDbEntity
  8
A-WALL
100
AcDbLine
 10
10.325000381469728
 20
6.87499923706055
 30
0.0
 11
7.025000381469731
 21
6.87499923706055
 31
0.0
  0
LINE
  5
4F
330
17
100
AcDbEntity
  8
A-WALL
100
AcDbLine
 10
-5.524999618530273
 20
8.074999237060545
 30
0.0
 11
-4.674999618530272
 21
8.074999237060545
 31
0.0
  0
LINE
  5
50
330
17
100
AcDbEntity
  8
A-WALL
100
AcDbLine
 10
16.42500038146973
 20
18.72499923706055
 30
0.0
 11
18.17500038146973
 21
18.72499923706055
 31
0.0
  0
LINE
  5
51
330
17
100
AcDbEntity
  8
A-WALL
100
AcDbLine
 10
-7.374999618530271
 20
7.87499923706055
 30
0.0
 11
-6.024999618530273
 21
7.87499923706055
 31
0.0
  0
LINE
  5
52
330
17
100
AcDbEntity
  8
A-WALL
100
AcDbLine
 10
-10.924999618530272
 20
13.324999237060553
 30
0.0
 11
-10.924999618530272
 21
10.524999237060548
 31
0.0
  0
LINE
  5
53
330
17
100
AcDbEntity
  8
A-WALL
100
AcDbLine
 10
-0.7249996185302727
 20
11.824999237060545
 30
0.0
 11
-0.7249996185302727
 21
12.724999237060551
 31
0.0
  0
LINE
  5
54
330
17
100
AcDbEntity
  8
A-WALL
100
AcDbLine
 10
-9.57499961853027
 20
14.474999237060551
 30
0.0
 11
-9.57499961853027
 21
12.324999237060545
 31
0.0
  0
LINE
  5
55
330
17
100
AcDbEntity
  8
A-WALL
100
AcDbLine
 10
-5.274999618530273
 20
-15.575000762939453
 30
0.0
 11
-5.274999618530273
 21
-13.475000762939452
 31
0.0
  0
LINE
  5
56
330
17
100
AcDbEntity
  8
A-WALL
100
AcDbLine
 10
-12.074999618530274
 20
18.27499923706055
 30
0.0
 11
-16.07499961853027
 21
18.27499923706055
 31
0.0
  0
LINE
  5
57
330
17
100
AcDbEntity
  8
A-WALL
100
AcDbLine
 10
-17.474999618530273
 20
12.974999237060551
 30
0.0
 11
-17.474999618530273
 21
9.474999237060551
 31
0.0
  0
LINE
  5
58
330
17
100
AcDbEntity
  8
A-WALL
100
AcDbLine
 10
-16.474999618530273
 20
13.824999237060553
 30
0.0
 11
-11.374999618530271
 21
13.824999237060553
 31
0.0
  0
LINE
  5
59
330
17
100
AcDbEntity
  8
A-WALL
100
AcDbLine
 10
-8.774999618530273
 20
7.424999237060547
 30
0.0
 11
-5.374999618530271
 21
7.424999237060547
 31
0.0
  0
LINE
  5
5A
330
17
100
AcDbEntity
  8
A-WALL
100
AcDbLine
 10
-4.024999618530273
 20
15.774999237060548
 30
0.0
 11
-1.174999618530272
 21
15.774999237060548
 31
0.0
  0
LINE
  5
5B
330
17
100
AcDbEntity
  8
A-WALL
100
AcDbLine
 10
-14.374999618530273
 20
11.574999237060545
 30
0.0
 11
-12.024999618530273
 21
11.574999237060545
 31
0.0
  0
LINE
  5
5C
330
17
100
AcDbEntity
  8
A-WALL
100
AcDbLine
 10
-8.874999618530271
 20
-10.075000762939453
 30
0.0
 11
-8.874999618530271
 21
-11.325000762939453
 31
0.0
  0
LINE
  5
5D
330
17
100
AcDbEntity
  8
A-WALL
100
AcDbLine
 10
1.4250003814697294
 20
8.074999237060545
 30
0.0
 11
-1.6249996185302713
 21
8.074999237060545
 31
0.0
  0
LINE
  5
5E
330
17
100
AcDbEntity
  8
A-WALL
100
AcDbLine
 10
-16.57499961853027
 20
13.87499923706055
 30
0.0
 11
-16.57499961853027
 21
11.474999237060551
 31
0.0
  0
LINE
  5
5F
330
17
100
AcDbEntity
  8
A-WALL
100
AcDbLine
 10
-8.024999618530273
 20
-20.175000762939455
 30
0.0
 11
-8.024999618530273
 21
-19.325000762939453
 31
0.0
  0
LINE
  5
60
330
17
100
AcDbEntity
  8
A-WALL
100
AcDbLine
 10
11.67500038146973
 20
15.474999237060551
 30
0.0
 11
11.67500038146973
 21
18.47499923706055
 31
0.0
  0
LINE
  5
61
330
17
100
AcDbEntity
  8
A-WALL
100
AcDbLine
 10
-1.7249996185302727
 20
9.724999237060551
 30
0.0
 11
0.3750003814697287
 21
9.274999237060548
 31
0.0
  0
LINE
  5
62
330
17
100
AcDbEntity
  8
A-WALL
100
AcDbLine
 10
-4.824999618530271
 20
10.274999237060548
 30
0.0
 11
-9.224999618530273
 21
10.274999237060548
 31
0.0
  0
LINE
  5
63
330
17
100
AcDbEntity
  8
A-WALL
100
AcDbLine
 10
13.575000381469728
 20
11.924999237060547
 30
0.0
 11
14.475000381469727
 21
11.924999237060547
 31
0.0
  0
LINE
  5
64
330
17
100
AcDbEntity
  8
A-WALL
100
AcDbLine
 10
-4.924999618530272
 20
-9.125000762939454
 30
0.0
 11
-4.924999618530272
 21
-12.675000762939453
 31
0.0
  0
LINE
  5
65
330
17
100
AcDbEntity
  8
A-WALL
100
AcDbLine
 10
-16.57499961853027
 20
9.674999237060547
 30
0.0
 11
-14.074999618530272
 21
9.674999237060547
 31
0.0
  0
LINE
  5
66
330
17
100
AcDbEntity
  8
A-WALL
100
AcDbLine
 10
-12.874999618530271
 20
15.724999237060551
 30
0.0
 11
-10.874999618530271
 21
15.724999237060551
 31
0.0
  0
LINE
  5
67
330
17
100
AcDbEntity
  8
A-WALL
100
AcDbLine
 10
-1.174999618530272
 20
9.074999237060545
 30
0.0
 11
-0.3249996185302706
 21
9.074999237060545
 31
0.0
  0
LINE
  5
68
330
17
100
AcDbEntity
  8
A-WALL
100
AcDbLine
 10
-10.924999618530272
 20
8.174999237060547
 30
0.0
 11
-6.274999618530273
 21
8.174999237060547
 31
0.0
  0
LINE
  5
69
330
17
100
AcDbEntity
  8
A-WALL
100
AcDbLine
 10
-6.024999618530273
 20
13.174999237060547
 30
0.0
 11
-6.024999618530273
 21
14.174999237060547
 31
0.0
  0
LINE
  5
6A
330
17
100
AcDbEntity
  8
A-WALL
100
AcDbLine
 10
-1.2249996185302727
 20
12.924999237060547
 30
0.0
 11
-1.2249996185302727
 21
11.87499923706055
 31
0.0
  0
LINE
  5
6B
330
17
100
AcDbEntity
  8
A-WALL
100
AcDbLine
 10
-2.174999618530272
 20
2.7249992370605476
 30
0.0
 11
0.1250003814697287
 21
0.4249992370605469
 31
0.0
  0
LINE
  5
6C
330
17
100
AcDbEntity
  8
A-WALL
100
AcDbLine
 10
-10.874999618530271
 20
7.274999237060548
 30
0.0
 11
-9.874999618530271
 21
7.474999237060551
 31
0.0
  0
LINE
  5
6D
330
17
100
AcDbEntity
  8
A-WALL
100
AcDbLine
 10
-13.274999618530273
 20
13.024999237060548
 30
0.0
 11
-12.474999618530273
 21
12.824999237060553
 31
0.0
  0
LINE
  5
6E
330
17
100
AcDbEntity
  8
A-WALL
100
AcDbLine
 10
10.67500038146973
 20
6.87499923706055
 30
0.0
 11
11.725000381469727
 21
6.674999237060547
 31
0.0
  0
LINE
  5
6F
330
17
100
AcDbEntity
  8
A-WALL
100
AcDbLine
 10
7.825000381469728
 20
7.0749992370605455
 30
0.0
 11
10.225000381469727
 21
7.0749992370605455
 31
0.0
  0
LINE
  5
70
330
17
100
AcDbEntity
  8
A-WALL
100
AcDbLine
 10
-1.2249996185302727
 20
8.024999237060548
 30
0.0
 11
-1.2249996185302727
 21
9.524999237060548
 31
0.0
  0
LINE
  5
71
330
17
100
AcDbEntity
  8
A-WALL
100
AcDbLine
 10
-9.274999618530273
 20
9.774999237060548
 30
0.0
 11
-9.274999618530273
 21
8.12499923706055
 31
0.0
  0
LINE
  5
72
330
17
100
AcDbEntity
  8
A-WALL
100
AcDbLine
 10
-7.124999618530271
 20
12.574999237060553
 30
0.0
 11
-9.274999618530273
 21
12.574999237060553
 31
0.0
  0
LINE
  5
73
330
17
100
AcDbEntity
  8
A-WALL
100
AcDbLine
 10
11.27500038146973
 20
5.924999237060547
 30
0.0
 11
11.27500038146973
 21
8.12499923706055
 31
0.0
  0
LINE
  5
74
330
17
100
AcDbEntity
  8
A-WALL
100
AcDbLine
 10
-11.324999618530274
 20
9.62499923706055
 30
0.0
 11
-11.324999618530274
 21
8.324999237060545
 31
0.0
  0
LINE
  5
75
330
17
100
AcDbEntity
  8
A-WALL
100
AcDbLine
 10
-7.074999618530271
 20
-16.87500076293945
 30
0.0
 11
-7.074999618530271
 21
-15.975000762939452
 31
0.0
  0
LINE
  5
76
330
17
100
AcDbEntity
  8
A-WALL
100
AcDbLine
 10
-1.0249996185302734
 20
7.774999237060548
 30
0.0
 11
0.07500038146972798
 21
7.774999237060548
 31
0.0
  0
LINE
  5
77
330
17
100
AcDbEntity
  8
A-WALL
100
AcDbLine
 10
-1.6249996185302713
 20
13.62499923706055
 30
0.0
 11
-0.6249996185302713
 21
13.62499923706055
 31
0.0
  0
LINE
  5
78
330
17
100
AcDbEntity
  8
A-WALL
100
AcDbLine
 10
-16.524999618530273
 20
9.724999237060551
 30
0.0
 11
-16.524999618530273
 21
7.674999237060547
 31
0.0
  0
LINE
  5
79
330
17
100
AcDbEntity
  8
A-WALL
100
AcDbLine
 10
-6.024999618530273
 20
-15.925000762939453
 30
0.0
 11
-6.024999618530273
 21
-16.825000762939453
 31
0.0
  0
LINE
  5
7A
330
17
100
AcDbEntity
  8
A-WALL
100
AcDbLine
 10
-1.924999618530272
 20
2.3749992370605497
 30
0.0
 11
-1.924999618530272
 21
1.5249992370605483
 31
0.0
  0
LINE
  5
7B
330
17
100
AcDbEntity
  8
A-WALL
100
AcDbLine
 10
-9.924999618530272
 20
-17.425000762939455
 30
0.0
 11
-8.474999618530273
 21
-17.425000762939455
 31
0.0
  0
LINE
  5
7C
330
17
100
AcDbEntity
  8
A-WALL
100
AcDbLine
 10
-8.224999618530273
 20
-20.125000762939454
 30
0.0
 11
-7.174999618530272
 21
-20.125000762939454
 31
0.0
  0
LINE
  5
7D
330
17
100
AcDbEntity
  8
A-WALL
100
AcDbLine
 10
0.1250003814697287
 20
-5.975000762939452
 30
0.0
 11
0.1250003814697287
 21
-4.87500076293945
 31
0.0
  0
LINE
  5
7E
330
17
100
AcDbEntity
  8
A-WALL
100
AcDbLine
 10
-5.374999618530271
 20
-20.375000762939454
 30
0.0
 11
-5.374999618530271
 21
-19.22500076293945
 31
0.0
  0
LINE
  5
7F
330
17
100
AcDbEntity
  8
A-WALL
100
AcDbLine
 10
-0.1249996185302713
 20
12.974999237060551
 30
0.0
 11
-0.1249996185302713
 21
11.824999237060545
 31
0.0
  0
LINE
  5
80
330
17
100
AcDbEntity
  8
A-WALL
100
AcDbLine
 10
-10.874999618530271
 20
7.274999237060548
 30
0.0
 11
-9.874999618530271
 21
7.274999237060548
 31
0.0
  0
LINE
  5
81
330
17
100
AcDbEntity
  8
A-WALL
100
AcDbLine
 10
-7.374999618530271
 20
-15.925000762939453
 30
0.0
 11
-5.724999618530273
 21
-14.275000762939452
 31
0.0
  0
LINE
  5
82
330
17
100
AcDbEntity
  8
A-WALL
100
AcDbLine
 10
-0.9749996185302727
 20
9.524999237060548
 30
0.0
 11
-0.3749996185302713
 21
7.974999237060551
 31
0.0
  0
LINE
  5
83
330
17
100
AcDbEntity
  8
A-WALL
100
AcDbLine
 10
-5.124999618530271
 20
7.424999237060547
 30
0.0
 11
-5.124999618530271
 21
8.274999237060548
 31
0.0
  0
LINE
  5
84
330
17
100
AcDbEntity
  8
A-WALL
100
AcDbLine
 10
-3.0749996185302706
 20
10.324999237060545
 30
0.0
 11
-1.0249996185302734
 21
10.324999237060545
 31
0.0
  0
LINE
  5
85
330
17
100
AcDbEntity
  8
A-WALL
100
AcDbLine
 10
-4.724999618530273
 20
13.274999237060548
 30
0.0
 11
-4.724999618530273
 21
14.37499923706055
 31
0.0
  0
LINE
  5
86
330
17
100
AcDbEntity
  8
A-WALL
100
AcDbLine
 10
11.42500038146973
 20
-4.525000762939452
 30
0.0
 11
14.475000381469727
 21
-4.525000762939452
 31
0.0
  0
LINE
  5
87
330
17
100
AcDbEntity
  8
A-WALL
100
AcDbLine
 10
-4.224999618530273
 20
10.87499923706055
 30
0.0
 11
-9.024999618530273
 21
10.87499923706055
 31
0.0
  0
LINE
  5
88
330
17
100
AcDbEntity
  8
A-WALL
100
AcDbLine
 10
-2.1249996185302713
 20
4.574999237060549
 30
0.0
 11
-2.1249996185302713
 21
3.7249992370605476
 31
0.0
  0
LINE
  5
89
330
17
100
AcDbEntity
  8
A-WALL
100
AcDbLine
 10
-10.424999618530272
 20
7.12499923706055
 30
0.0
 11
-8.724999618530273
 21
7.424999237060547
 31
0.0
  0
LINE
  5
8A
330
17
100
AcDbEntity
  8
A-WALL
100
AcDbLine
 10
-13.524999618530273
 20
-15.075000762939453
 30
0.0
 11
-13.524999618530273
 21
-16.47500076293945
 31
0.0
  0
LINE
  5
8B
330
17
100
AcDbEntity
  8
A-WALL
100
AcDbLine
 10
22.42500038146973
 20
18.574999237060553
 30
0.0
 11
16.375000381469732
 21
18.574999237060553
 31
0.0
  0
LINE
  5
8C
330
17
100
AcDbEntity
  8
A-WALL
100
AcDbLine
 10
-10.724999618530273
 20
12.37499923706055
 30
0.0
 11
-10.724999618530273
 21
14.474999237060551
 31
0.0
  0
LINE
  5
8D
330
17
100
AcDbEntity
  8
A-WALL
100
AcDbLine
 10
-16.024999618530273
 20
9.674999237060547
 30
0.0
 11
-12.724999618530273
 21
9.674999237060547
 31
0.0
  0
LINE
  5
8E
330
17
100
AcDbEntity
  8
A-WALL
100
AcDbLine
 10
-15.624999618530273
 20
12.974999237060551
 30
0.0
 11
-14.574999618530272
 21
12.974999237060551
 31
0.0
  0
LINE
  5
8F
330
17
100
AcDbEntity
  8
A-WALL
100
AcDbLine
 10
-10.924999618530272
 20
7.424999237060547
 30
0.0
 11
-9.874999618530271
 21
7.424999237060547
 31
0.0
  0
LINE
  5
90
330
17
100
AcDbEntity
  8
A-WALL
100
AcDbLine
 10
-3.0749996185302706
 20
9.774999237060548
 30
0.0
 11
-1.9749996185302727
 21
9.524999237060548
 31
0.0
  0
LINE
  5
91
330
17
100
AcDbEntity
  8
A-WALL
100
AcDbLine
 10
7.225000381469727
 20
15.924999237060547
 30
0.0
 11
7.225000381469727
 21
18.174999237060547
 31
0.0
  0
LINE
  5
92
330
17
100
AcDbEntity
  8
A-WALL
100
AcDbLine
 10
7.475000381469727
 20
1.3749992370605497
 30
0.0
 11
10.27500038146973
 21
1.3749992370605497
 31
0.0
  0
LINE
  5
93
330
17
100
AcDbEntity
  8
A-WALL
100
AcDbLine
 10
-6.274999618530273
 20
-18.575000762939453
 30
0.0
 11
-5.424999618530272
 21
-18.575000762939453
 31
0.0
  0
LINE
  5
94
330
17
100
AcDbEntity
  8
A-WALL
100
AcDbLine
 10
10.42500038146973
 20
1.2749992370605483
 30
0.0
 11
11.325000381469728
 21
1.074999237060549
 31
0.0
  0
LINE
  5
95
330
17
100
AcDbEntity
  8
A-WALL
100
AcDbLine
 10
6.675000381469729
 20
5.674999237060547
 30
0.0
 11
6.675000381469729
 21
4.524999237060548
 31
0.0
  0
LINE
  5
96
330
17
100
AcDbEntity
  8
A-WALL
100
AcDbLine
 10
8.725000381469727
 20
8.474999237060551
 30
0.0
 11
9.77500038146973
 21
8.474999237060551
 31
0.0
  0
LINE
  5
97
330
17
100
AcDbEntity
  8
A-WALL
100
AcDbLine
 10
-8.32499961853027
 20
-19.275000762939452
 30
0.0
 11
-8.32499961853027
 21
-20.075000762939453
 31
0.0
  0
LINE
  5
98
330
17
100
AcDbEntity
  8
A-WALL
100
AcDbLine
 10
-9.274999618530273
 20
13.424999237060547
 30
0.0
 11
-7.224999618530273
 21
13.424999237060547
 31
0.0
  0
LINE
  5
99
330
17
100
AcDbEntity
  8
A-WALL
100
AcDbLine
 10
-10.074999618530274
 20
-13.475000762939452
 30
0.0
 11
-7.324999618530271
 21
-13.475000762939452
 31
0.0
  0
LINE
  5
9A
330
17
100
AcDbEntity
  8
A-WALL
100
AcDbLine
 10
-9.32499961853027
 20
12.324999237060545
 30
0.0
 11
-9.32499961853027
 21
11.074999237060545
 31
0.0
  0
LINE
  5
9B
330
17
100
AcDbEntity
  8
A-WALL
100
AcDbLine
 10
-7.374999618530271
 20
-16.825000762939453
 30
0.0
 11
-7.174999618530272
 21
-15.975000762939452
 31
0.0
  0
LINE
  5
9C
330
17
100
AcDbEntity
  8
A-WALL
100
AcDbLine
 10
12.42500038146973
 20
11.924999237060547
 30
0.0
 11
13.52500038146973
 21
11.924999237060547
 31
0.0
  0
LINE
  5
9D
330
17
100
AcDbEntity
  8
A-WALL
100
AcDbLine
 10
-10.824999618530274
 20
10.62499923706055
 30
0.0
 11
-10.824999618530274
 21
7.774999237060548
 31
0.0
  0
LINE
  5
9E
330
17
100
AcDbEntity
  8
A-WALL
100
AcDbLine
 10
6.225000381469727
 20
7.674999237060547
 30
0.0
 11
7.175000381469729
 21
7.474999237060551
 31
0.0
  0
LINE
  5
9F
330
17
100
AcDbEntity
  8
A-WALL
100
AcDbLine
 10
-11.774999618530273
 20
9.724999237060551
 30
0.0
 11
-11.774999618530273
 21
7.224999237060551
 31
0.0
  0
LINE
  5
A0
330
17
100
AcDbEntity
  8
A-WALL
100
AcDbLine
 10
-10.924999618530272
 20
7.724999237060551
 30
0.0
 11
-10.924999618530272
 21
6.87499923706055
 31
0.0
  0
LINE
  5
A1
330
17
100
AcDbEntity
  8
A-WALL
100
AcDbLine
 10
-24.574999618530274
 20
4.024999237060548
 30
0.0
 11
-22.474999618530273
 21
4.424999237060547
 31
0.0
  0
LINE
  5
A2
330
17
100
AcDbEntity
  8
A-WALL
100
AcDbLine
 10
-4.474999618530273
 20
12.674999237060547
 30
0.0
 11
-4.474999618530273
 21
13.574999237060553
 31
0.0
  0
LINE
  5
A3
330
17
100
AcDbEntity
  8
A-WALL
100
AcDbLine
 10
7.475000381469727
 20
8.774999237060548
 30
0.0
 11
8.375000381469725
 21
8.774999237060548
 31
0.0
  0
LINE
  5
A4
330
17
100
AcDbEntity
  8
A-WALL
100
AcDbLine
 10
-16.974999618530273
 20
18.074999237060553
 30
0.0
 11
-16.974999618530273
 21
15.674999237060547
 31
0.0
  0
LINE
  5
A5
330
17
100
AcDbEntity
  8
A-WALL
100
AcDbLine
 10
-9.624999618530271
 20
10.674999237060547
 30
0.0
 11
-9.624999618530271
 21
9.62499923706055
 31
0.0
  0
LINE
  5
A6
330
17
100
AcDbEntity
  8
A-WALL
100
AcDbLine
 10
-2.1249996185302713
 20
22.924999237060547
 30
0.0
 11
-2.1249996185302713
 21
23.72499923706055
 31
0.0
  0
LINE
  5
A7
330
17
100
AcDbEntity
  8
A-WALL
100
AcDbLine
 10
1.825000381469728
 20
-6.325000762939453
 30
0.0
 11
3.1750003814697294
 21
-5.075000762939453
 31
0.0
  0
LINE
  5
A8
330
17
100
AcDbEntity
  8
A-WALL
100
AcDbLine
 10
-2.3749996185302713
 20
2.824999237060549
 30
0.0
 11
-2.3749996185302713
 21
4.12499923706055
 31
0.0
  0
LINE
  5
A9
330
17
100
AcDbEntity
  8
A-WALL
100
AcDbLine
 10
6.475000381469727
 20
7.274999237060548
 30
0.0
 11
6.475000381469727
 21
8.674999237060547
 31
0.0
  0
LINE
  5
AA
330
17
100
AcDbEntity
  8
A-WALL
100
AcDbLine
 10
-13.274999618530273
 20
-19.825000762939453
 30
0.0
 11
-11.574999618530274
 21
-19.825000762939453
 31
0.0
  0
LINE
  5
AB
330
17
100
AcDbEntity
  8
A-WALL
100
AcDbLine
 10
12.02500038146973
 20
-4.425000762939451
 30
0.0
 11
14.77500038146973
 21
-4.425000762939451
 31
0.0
  0
LINE
  5
AC
330
17
100
AcDbEntity
  8
A-WALL
100
AcDbLine
 10
8.02500038146973
 20
11.37499923706055
 30
0.0
 11
8.92500038146973
 21
11.37499923706055
 31
0.0
  0
LINE
  5
AD
330
17
100
AcDbEntity
  8
A-WALL
100
AcDbLine
 10
-6.824999618530271
 20
-17.325000762939453
 30
0.0
 11
-5.424999618530272
 21
-17.325000762939453
 31
0.0
  0
LINE
  5
AE
330
17
100
AcDbEntity
  8
A-WALL
100
AcDbLine
 10
1.0250003814697273
 20
5.574999237060549
 30
0.0
 11
1.8750003814697287
 21
5.574999237060549
 31
0.0
  0
LINE
  5
AF
330
17
100
AcDbEntity
  8
A-WALL
100
AcDbLine
 10
-6.574999618530271
 20
-15.425000762939453
 30
0.0
 11
-5.774999618530273
 21
-14.625000762939452
 31
0.0
  0
LINE
  5
B0
330
17
100
AcDbEntity
  8
A-WALL
100
AcDbLine
 10
-7.874999618530271
 20
-15.325000762939453
 30
0.0
 11
-7.024999618530273
 21
-14.525000762939452
 31
0.0
  0
LINE
  5
B1
330
17
100
AcDbEntity
  8
A-WALL
100
AcDbLine
 10
-3.8249996185302706
 20
11.324999237060545
 30
0.0
 11
-2.8749996185302713
 21
11.524999237060548
 31
0.0
  0
LINE
  5
B2
330
17
100
AcDbEntity
  8
A-WALL
100
AcDbLine
 10
-2.9749996185302727
 20
8.674999237060547
 30
0.0
 11
-2.9749996185302727
 21
9.574999237060545
 31
0.0
  0
LINE
  5
B3
330
17
100
AcDbEntity
  8
A-WALL
100
AcDbLine
 10
-8.57499961853027
 20
-15.575000762939453
 30
0.0
 11
-8.57499961853027
 21
-16.87500076293945
 31
0.0
  0
LINE
  5
B4
330
17
100
AcDbEntity
  8
A-WALL
100
AcDbLine
 10
-2.2749996185302734
 20
12.524999237060548
 30
0.0
 11
-1.674999618530272
 21
11.024999237060548
 31
0.0
  0
LINE
  5
B5
330
17
100
AcDbEntity
  8
A-WALL
100
AcDbLine
 10
-4.924999618530272
 20
12.674999237060547
 30
0.0
 11
-3.9749996185302727
 21
12.674999237060547
 31
0.0
  0
LINE
  5
B6
330
17
100
AcDbEntity
  8
A-WALL
100
AcDbLine
 10
-5.724999618530273
 20
-14.325000762939453
 30
0.0
 11
-5.724999618530273
 21
-15.525000762939452
 31
0.0
  0
LINE
  5
B7
330
17
100
AcDbEntity
  8
A-WALL
100
AcDbLine
 10
-10.474999618530273
 20
10.424999237060547
 30
0.0
 11
-10.474999618530273
 21
9.12499923706055
 31
0.0
  0
LINE
  5
B8
330
17
100
AcDbEntity
  8
A-WALL
100
AcDbLine
 10
-3.7249996185302727
 20
11.174999237060547
 30
0.0
 11
-2.924999618530272
 21
11.174999237060547
 31
0.0
  0
LINE
  5
B9
330
17
100
AcDbEntity
  8
A-WALL
100
AcDbLine
 10
3.2250003814697266
 20
-5.425000762939451
 30
0.0
 11
4.075000381469728
 21
-4.575000762939453
 31
0.0
  0
LINE
  5
BA
330
17
100
AcDbEntity
  8
A-WALL
100
AcDbLine
 10
-2.9749996185302727
 20
3.924999237060547
 30
0.0
 11
-2.9749996185302727
 21
2.5249992370605483
 31
0.0
  0
LINE
  5
BB
330
17
100
AcDbEntity
  8
A-WALL
100
AcDbLine
 10
-3.0749996185302706
 20
15.074999237060553
 30
0.0
 11
-6.324999618530271
 21
15.074999237060553
 31
0.0
  0
LINE
  5
BC
330
17
100
AcDbEntity
  8
A-WALL
100
AcDbLine
 10
-9.974999618530273
 20
-16.87500076293945
 30
0.0
 11
-8.624999618530271
 21
-16.87500076293945
 31
0.0
  0
LINE
  5
BD
330
17
100
AcDbEntity
  8
A-WALL
100
AcDbLine
 10
-13.374999618530273
 20
18.424999237060547
 30
0.0
 11
-12.074999618530274
 21
18.424999237060547
 31
0.0
  0
LINE
  5
BE
330
17
100
AcDbEntity
  8
A-WALL
100
AcDbLine
 10
-1.674999618530272
 20
8.974999237060551
 30
0.0
 11
-0.8749996185302713
 21
8.974999237060551
 31
0.0
  0
LINE
  5
BF
330
17
100
AcDbEntity
  8
A-WALL
100
AcDbLine
 10
1.075000381469728
 20
4.12499923706055
 30
0.0
 11
1.6250003814697287
 21
2.674999237060547
 31
0.0
  0
LINE
  5
C0
330
17
100
AcDbEntity
  8
A-WALL
100
AcDbLine
 10
15.77500038146973
 20
-0.425000762939451
 30
0.0
 11
15.77500038146973
 21
1.324999237060549
 31
0.0
  0
LINE
  5
C1
330
17
100
AcDbEntity
  8
A-WALL
100
AcDbLine
 10
6.825000381469728
 20
3.4749992370605476
 30
0.0
 11
7.775000381469731
 21
2.924999237060547
 31
0.0
  0
LINE
  5
C2
330
17
100
AcDbEntity
  8
A-WALL
100
AcDbLine
 10
11.42500038146973
 20
-4.475000762939452
 30
0.0
 11
11.42500038146973
 21
-7.125000762939454
 31
0.0
  0
LINE
  5
C3
330
17
100
AcDbEntity
  8
A-WALL
100
AcDbLine
 10
-7.324999618530271
 20
-15.325000762939453
 30
0.0
 11
-7.324999618530271
 21
-16.275000762939452
 31
0.0
  0
LINE
  5
C4
330
17
100
AcDbEntity
  8
A-WALL
100
AcDbLine
 10
-7.024999618530273
 20
-14.225000762939452
 30
0.0
 11
-7.024999618530273
 21
-13.375000762939452
 31
0.0
  0
LINE
  5
C5
330
17
100
AcDbEntity
  8
A-WALL
100
AcDbLine
 10
-1.0749996185302706
 20
15.574999237060553
 30
0.0
 11
-0.22499961853027273
 21
14.924999237060547
 31
0.0
  0
LINE
  5
C6
330
17
100
AcDbEntity
  8
A-WALL
100
AcDbLine
 10
7.575000381469728
 20
11.174999237060547
 30
0.0
 11
8.42500038146973
 21
11.174999237060547
 31
0.0
  0
LINE
  5
C7
330
17
100
AcDbEntity
  8
A-WALL
100
AcDbLine
 10
5.175000381469729
 20
-5.225000762939452
 30
0.0
 11
5.175000381469729
 21
-4.37500076293945
 31
0.0
  0
LINE
  5
C8
330
17
100
AcDbEntity
  8
A-WALL
100
AcDbLine
 10
-10.724999618530273
 20
12.324999237060545
 30
0.0
 11
-9.924999618530272
 21
11.924999237060547
 31
0.0
  0
LINE
  5
C9
330
17
100
AcDbEntity
  8
A-WALL
100
AcDbLine
 10
-1.5749996185302706
 20
8.224999237060551
 30
0.0
 11
-0.7249996185302727
 21
8.37499923706055
 31
0.0
  0
LINE
  5
CA
330
17
100
AcDbEntity
  8
A-WALL
100
AcDbLine
 10
-11.374999618530271
 20
12.524999237060548
 30
0.0
 11
-11.374999618530271
 21
11.62499923706055
 31
0.0
  0
LINE
  5
CB
330
17
100
AcDbEntity
  8
A-WALL
100
AcDbLine
 10
-10.924999618530272
 20
9.524999237060548
 30
0.0
 11
-9.624999618530271
 21
9.524999237060548
 31
0.0
  0
LINE
  5
CC
330
17
100
AcDbEntity
  8
A-WALL
100
AcDbLine
 10
-8.32499961853027
 20
-19.22500076293945
 30
0.0
 11
-8.124999618530271
 21
-18.375000762939454
 31
0.0
  0
LINE
  5
CD
330
17
100
AcDbEntity
  8
A-WALL
100
AcDbLine
 10
-9.974999618530273
 20
-8.825000762939453
 30
0.0
 11
-8.974999618530273
 21
-8.825000762939453
 31
0.0
  0
LINE
  5
CE
330
17
100
AcDbEntity
  8
A-WALL
100
AcDbLine
 10
-9.024999618530273
 20
-17.425000762939455
 30
0.0
 11
-6.024999618530273
 21
-17.425000762939455
 31
0.0
  0
LINE
  5
CF
330
17
100
AcDbEntity
  8
A-WALL
100
AcDbLine
 10
-6.574999618530271
 20
-19.325000762939453
 30
0.0
 11
-5.224999618530273
 21
-19.325000762939453
 31
0.0
  0
LINE
  5
D0
330
17
100
AcDbEntity
  8
A-WALL
100
AcDbLine
 10
-6.174999618530272
 20
12.574999237060553
 30
0.0
 11
-5.224999618530273
 21
13.074999237060553
 31
0.0
  0
LINE
  5
D1
330
17
100
AcDbEntity
  8
A-WALL
100
AcDbLine
 10
-7.024999618530273
 20
-15.325000762939453
 30
0.0
 11
-7.024999618530273
 21
-16.175000762939455
 31
0.0
  0
LINE
  5
D2
330
17
100
AcDbEntity
  8
A-WALL
100
AcDbLine
 10
-6.524999618530273
 20
13.574999237060553
 30
0.0
 11
-5.724999618530273
 21
12.824999237060553
 31
0.0
  0
LINE
  5
D3
330
17
100
AcDbEntity
  8
A-WALL
100
AcDbLine
 10
6.975000381469727
 20
1.0249992370605483
 30
0.0
 11
8.075000381469728
 21
1.0249992370605483
 31
0.0
  0
LINE
  5
D4
330
17
100
AcDbEntity
  8
A-WALL
100
AcDbLine
 10
-6.274999618530273
 20
14.974999237060551
 30
0.0
 11
-6.274999618530273
 21
13.37499923706055
 31
0.0
  0
LINE
  5
D5
330
17
100
AcDbEntity
  8
A-WALL
100
AcDbLine
 10
-24.574999618530274
 20
3.9749992370605476
 30
0.0
 11
-21.774999618530273
 21
3.9749992370605476
 31
0.0
  0
LINE
  5
D6
330
17
100
AcDbEntity
  8
A-WALL
100
AcDbLine
 10
-5.724999618530273
 20
12.974999237060551
 30
0.0
 11
-4.924999618530272
 21
12.824999237060553
 31
0.0
  0
LINE
  5
D7
330
17
100
AcDbEntity
  8
A-WALL
100
AcDbLine
 10
-1.0749996185302706
 20
5.274999237060548
 30
0.0
 11
-0.1249996185302713
 21
5.274999237060548
 31
0.0
  0
LINE
  5
D8
330
17
100
AcDbEntity
  8
A-WALL
100
AcDbLine
 10
11.67500038146973
 20
1.3749992370605497
 30
0.0
 11
12.575000381469728
 21
1.3749992370605497
 31
0.0
  0
LINE
  5
D9
330
17
100
AcDbEntity
  8
A-WALL
100
AcDbLine
 10
1.5250003814697273
 20
6.37499923706055
 30
0.0
 11
1.5250003814697273
 21
5.12499923706055
 31
0.0
  0
LINE
  5
DA
330
17
100
AcDbEntity
  8
A-WALL
100
AcDbLine
 10
6.925000381469729
 20
4.974999237060548
 30
0.0
 11
6.925000381469729
 21
5.924999237060547
 31
0.0
  0
LINE
  5
DB
330
17
100
AcDbEntity
  8
A-WALL
100
AcDbLine
 10
-12.674999618530272
 20
-17.62500076293945
 30
0.0
 11
-11.474999618530273
 21
-17.62500076293945
 31
0.0
  0
LINE
  5
DC
330
17
100
AcDbEntity
  8
A-WALL
100
AcDbLine
 10
-16.474999618530273
 20
11.574999237060545
 30
0.0
 11
-15.524999618530273
 21
11.574999237060545
 31
0.0
  0
LINE
  5
DD
330
17
100
AcDbEntity
  8
A-WALL
100
AcDbLine
 10
-8.624999618530271
 20
-15.025000762939452
 30
0.0
 11
-6.474999618530273
 21
-15.025000762939452
 31
0.0
  0
LINE
  5
DE
330
17
100
AcDbEntity
  8
A-WALL
100
AcDbLine
 10
-10.074999618530274
 20
-16.72500076293945
 30
0.0
 11
-8.924999618530272
 21
-16.72500076293945
 31
0.0
  0
LINE
  5
DF
330
17
100
AcDbEntity
  8
A-WALL
100
AcDbLine
 10
8.27500038146973
 20
0.9249992370605469
 30
0.0
 11
9.67500038146973
 21
0.9249992370605469
 31
0.0
  0
LINE
  5
E0
330
17
100
AcDbEntity
  8
A-WALL
100
AcDbLine
 10
6.175000381469729
 20
10.774999237060548
 30
0.0
 11
6.975000381469727
 21
10.924999237060547
 31
0.0
  0
LINE
  5
E1
330
17
100
AcDbEntity
  8
A-WALL
100
AcDbLine
 10
-20.724999618530273
 20
-24.275000762939452
 30
0.0
 11
-19.274999618530273
 21
-22.825000762939453
 31
0.0
  0
LINE
  5
E2
330
17
100
AcDbEntity
  8
A-WALL
100
AcDbLine
 10
-10.824999618530274
 20
6.424999237060547
 30
0.0
 11
-9.624999618530271
 21
6.424999237060547
 31
0.0
  0
LINE
  5
E3
330
17
100
AcDbEntity
  8
A-WALL
100
AcDbLine
 10
-10.074999618530274
 20
-12.475000762939452
 30
0.0
 11
-9.224999618530273
 21
-12.475000762939452
 31
0.0
  0
LINE
  5
E4
330
17
100
AcDbEntity
  8
A-WALL
100
AcDbLine
 10
22.375000381469732
 20
-2.175000762939451
 30
0.0
 11
23.17500038146973
 21
-2.425000762939451
 31
0.0
  0
LINE
  5
E5
330
17
100
AcDbEntity
  8
A-DOOR
100
AcDbLine
 10
26.575
 20
10.525
 30
0.0
 11
26.575
 21
5.425000000000001
 31
0.0
  0
ARC
  5
E6
330
17
100
AcDbEntity
  8
A-DOOR
100
AcDbCircle
 10
26.575
 20
10.525
 30
0.0
 40
5.1
100
AcDbArc
 50
-90.0
 51
0.0
  0
LINE
  5
E7
330
17
100
AcDbEntity
  8
A-DOOR
100
AcDbLine
 10
13.575
 20
18.475
 30
0.0
 11
15.325000000000001
 21
18.475
 31
0.0
  0
ARC
  5
E8
330
17
100
AcDbEntity
  8
A-DOOR
100
AcDbCircle
 10
13.575
 20
18.475
 30
0.0
 40
1.75
100
AcDbArc
 50
0.0
 51
90.0
  0
LINE
  5
E9
330
17
100
AcDbEntity
  8
A-DOOR
100
AcDbLine
 10
-10.025
 20
-10.125
 30
0.0
 11
-10.025
 21
-11.475
 31
0.0
  0
ARC
  5
EA
330
17
100
AcDbEntity
  8
A-DOOR
100
AcDbCircle
 10
-10.025
 20
-10.125
 30
0.0
 40
1.35
100
AcDbArc
 50
-90.0
 51
0.0
  0
LINE
  5
EB
330
17
100
AcDbEntity
  8
A-DOOR
100
AcDbLine
 10
-10.025
 20
-14.725
 30
0.0
 11
-10.025
 21
-15.625
 31
0.0
  0
ARC
  5
EC
330
17
100
AcDbEntity
  8
A-DOOR
100
AcDbCircle
 10
-10.025
 20
-14.725
 30
0.0
 40
0.9
100
AcDbArc
 50
-90.0
 51
0.0
  0
LINE
  5
ED
330
17
100
AcDbEntity
  8
A-DOOR
100
AcDbLine
 10
13.325
 20
-7.475
 30
0.0
 11
15.524999999999999
 21
-7.475
 31
0.0
  0
ARC
  5
EE
330
17
100
AcDbEntity
  8
A-DOOR
100
AcDbCircle
 10
13.325
 20
-7.475
 30
0.0
 40
2.2
100
AcDbArc
 50
0.0
 51
90.0
  0
LINE
  5
EF
330
17
100
AcDbEntity
  8
A-DOOR
100
AcDbLine
 10
-4.925
 20
-9.125
 30
0.0
 11
-4.925
 21
-10.325
 31
0.0
  0
ARC
  5
F0
330
17
100
AcDbEntity
  8
A-DOOR
100
AcDbCircle
 10
-4.925
 20
-9.125
 30
0.0
 40
1.2
100
AcDbArc
 50
-90.0
 51
0.0
  0
LINE
  5
F1
330
17
100
AcDbEntity
  8
A-DOOR
100
AcDbLine
 10
-8.475
 20
13.425
 30
0.0
 11
-7.174999999999999
 21
13.425
 31
0.0
  0
ARC
  5
F2
330
17
100
AcDbEntity
  8
A-DOOR
100
AcDbCircle
 10
-8.475
 20
13.425
 30
0.0
 40
1.3
100
AcDbArc
 50
0.0
 51
90.0
  0
LINE
  5
F3
330
17
100
AcDbEntity
  8
A-WINDOW
100
AcDbLine
 10
26.525
 20
11.175
 30
0.0
 11
26.525
 21
10.575
 31
0.0
  0
LINE
  5
F4
330
17
100
AcDbEntity
  8
A-WINDOW
100
AcDbLine
 10
26.625
 20
11.175
 30
0.0
 11
26.625
 21
10.575
 31
0.0
  0
LINE
  5
F5
330
17
100
AcDbEntity
  8
A-WINDOW
100
AcDbLine
 10
26.525
 20
1.325
 30
0.0
 11
26.525
 21
0.425
 31
0.0
  0
LINE
  5
F6
330
17
100
AcDbEntity
  8
A-WINDOW
100
AcDbLine
 10
26.625
 20
1.325
 30
0.0
 11
26.625
 21
0.425
 31
0.0
  0
LINE
  5
F7
330
17
100
AcDbEntity
  8
A-WINDOW
100
AcDbLine
 10
13.525
 20
15.325000000000001
 30
0.0
 11
12.725
 21
15.325000000000001
 31
0.0
  0
LINE
  5
F8
330
17
100
AcDbEntity
  8
A-WINDOW
100
AcDbLine
 10
13.525
 20
15.225
 30
0.0
 11
12.725
 21
15.225
 31
0.0
  0
LINE
  5
F9
330
17
100
AcDbEntity
  8
A-WINDOW
100
AcDbLine
 10
-8.925
 20
-10.075000000000001
 30
0.0
 11
-8.925
 21
-11.275
 31
0.0
  0
LINE
  5
FA
330
17
100
AcDbEntity
  8
A-WINDOW
100
AcDbLine
 10
-8.825
 20
-10.075000000000001
 30
0.0
 11
-8.825
 21
-11.275
 31
0.0
  0
LINE
  5
FB
330
17
100
AcDbEntity
  8
A-WINDOW
100
AcDbLine
 10
11.725000000000001
 20
15.625
 30
0.0
 11
11.725000000000001
 21
17.625
 31
0.0
  0
LINE
  5
FC
330
17
100
AcDbEntity
  8
A-WINDOW
100
AcDbLine
 10
11.625
 20
15.625
 30
0.0
 11
11.625
 21
17.625
 31
0.0
  0
LINE
  5
FD
330
17
100
AcDbEntity
  8
A-WINDOW
100
AcDbLine
 10
11.375
 20
-4.5249999999999995
 30
0.0
 11
11.375
 21
-5.675
 31
0.0
  0
LINE
  5
FE
330
17
100
AcDbEntity
  8
A-WINDOW
100
AcDbLine
 10
11.475000000000001
 20
-4.5249999999999995
 30
0.0
 11
11.475000000000001
 21
-5.675
 31
0.0
  0
TEXT
  5
FF
330
17
100
AcDbEntity
  8
A-TEXT
100
AcDbText
 10
-29.024999618530273
 20
-27.825000762939453
 30
0.0
 40
0.4
  1
Floor 0  —  177 walls  ·  7 doors  ·  6 windows
 11
-29.024999618530273
 21
-27.825000762939453
 31
0.0
100
AcDbText
  0
ENDSEC
  0
SECTION
  2
OBJECTS
  0
DICTIONARY
  5
A
330
0
100
AcDbDictionary
281
1
  3
ACAD_COLOR
350
B
  3
ACAD_GROUP
350
C
  3
ACAD_LAYOUT
350
D
  3
ACAD_MATERIAL
350
E
  3
ACAD_MLEADERSTYLE
350
F
  3
ACAD_MLINESTYLE
350
10
  3
ACAD_PLOTSETTINGS
350
11
  3
ACAD_PLOTSTYLENAME
350
12
  3
ACAD_SCALELIST
350
14
  3
ACAD_TABLESTYLE
350
15
  3
ACAD_VISUALSTYLE
350
16
  3
EZDXF_META
350
2D
  0
DICTIONARY
  5
B
330
A
100
AcDbDictionary
281
1
  0
DICTIONARY
  5
C
330
A
100
AcDbDictionary
281
1
  0
DICTIONARY
  5
D
330
A
100
AcDbDictionary
281
1
  3
Model
350
1A
  3
Layout1
350
1E
  0
DICTIONARY
  5
E
330
A
100
AcDbDictionary
281
1
  3
ByBlock
350
1F
  3
ByLayer
350
20
  3
Global
350
21
  0
DICTIONARY
  5
F
330
A
100
AcDbDictionary
281
1
  3
Standard
350
2C
  0
DICTIONARY
  5
10
330
A
100
AcDbDictionary
281
1
  3
Standard
350
22
  0
DICTIONARY
  5
11
330
A
100
AcDbDictionary
281
1
  0
ACDBDICTIONARYWDFLT
  5
12
330
A
100
AcDbDictionary
281
1
  3
Normal
350
13
100
AcDbDictionaryWithDefault
340
13
  0
ACDBPLACEHOLDER
  5
13
330
12
  0
DICTIONARY
  5
14
330
A
100
AcDbDictionary
281
1
  0
DICTIONARY
  5
15
330
A
100
AcDbDictionary
281
1
  0
DICTIONARY
  5
16
330
A
100
AcDbDictionary
281
1
  0
LAYOUT
  5
1A
330
D
100
AcDbPlotSettings
  1

  4
A3
  6

 40
7.5
 41
20.0
 42
7.5
 43
20.0
 44
420.0
 45
297.0
 46
0.0
 47
0.0
 48
0.0
 49
0.0
140
0.0
141
0.0
142
1.0
143
1.0
 70
1024
 72
1
 73
0
 74
5
  7

 75
16
 76
0
 77
2
 78
300
147
1.0
148
0.0
149
0.0
100
AcDbLayout
  1
Model
 70
1
 71
0
 10
0.0
 20
0.0
 11
420.0
 21
297.0
 12
0.0
 22
0.0
 32
0.0
 14
1e+20
 24
1e+20
 34
1e+20
 15
-1e+20
 25
-1e+20
 35
-1e+20
146
0.0
 13
0.0
 23
0.0
 33
0.0
 16
1.0
 26
0.0
 36
0.0
 17
0.0
 27
1.0
 37
0.0
 76
1
330
17
  0
LAYOUT
  5
1E
330
D
100
AcDbPlotSettings
  1

  4
A3
  6

 40
7.5
 41
20.0
 42
7.5
 43
20.0
 44
420.0
 45
297.0
 46
0.0
 47
0.0
 48
0.0
 49
0.0
140
0.0
141
0.0
142
1.0
143
1.0
 70
0
 72
1
 73
0
 74
5
  7

 75
16
 76
0
 77
2
 78
300
147
1.0
148
0.0
149
0.0
100
AcDbLayout
  1
Layout1
 70
1
 71
1
 10
0.0
 20
0.0
 11
420.0
 21
297.0
 12
0.0
 22
0.0
 32
0.0
 14
1e+20
 24
1e+20
 34
1e+20
 15
-1e+20
 25
-1e+20
 35
-1e+20
146
0.0
 13
0.0
 23
0.0
 33
0.0
 16
1.0
 26
0.0
 36
0.0
 17
0.0
 27
1.0
 37
0.0
 76
1
330
1B
  0
MATERIAL
  5
1F
102
{ACAD_REACTORS
330
E
102
}
330
E
100
AcDbMaterial
  1
ByBlock
  2

 70
0
 40
1.0
 71
1
 41
1.0
 91
-1023410177
 42
1.0
 72
1
  3

 73
1
 74
1
 75
1
 44
0.5
 73
0
 45
1.0
 46
1.0
 77
1
  4

 78
1
 79
1
170
1
 48
1.0
171
1
  6

172
1
173
1
174
1
140
1.0
141
1.0
175
1
  7

176
1
177
1
178
1
143
1.0
179
1
  8

270
1
271
1
272
1
145
1.0
146
1.0
273
1
  9

274
1
275
1
276
1
 42
1.0
 72
1
  3

 73
1
 74
1
 75
1
 94
63
  0
MATERIAL
  5
20
102
{ACAD_REACTORS
330
E
102
}
330
E
100
AcDbMaterial
  1
ByLayer
  2

 70
0
 40
1.0
 71
1
 41
1.0
 91
-1023410177
 42
1.0
 72
1
  3

 73
1
 74
1
 75
1
 44
0.5
 73
0
 45
1.0
 46
1.0
 77
1
  4

 78
1
 79
1
170
1
 48
1.0
171
1
  6

172
1
173
1
174
1
140
1.0
141
1.0
175
1
  7

176
1
177
1
178
1
143
1.0
179
1
  8

270
1
271
1
272
1
145
1.0
146
1.0
273
1
  9

274
1
275
1
276
1
 42
1.0
 72
1
  3

 73
1
 74
1
 75
1
 94
63
  0
MATERIAL
  5
21
102
{ACAD_REACTORS
330
E
102
}
330
E
100
AcDbMaterial
  1
Global
  2

 70
0
 40
1.0
 71
1
 41
1.0
 91
-1023410177
 42
1.0
 72
1
  3

 73
1
 74
1
 75
1
 44
0.5
 73
0
 45
1.0
 46
1.0
 77
1
  4

 78
1
 79
1
170
1
 48
1.0
171
1
  6

172
1
173
1
174
1
140
1.0
141
1.0
175
1
  7

176
1
177
1
178
1
143
1.0
179
1
  8

270
1
271
1
272
1
145
1.0
146
1.0
273
1
  9

274
1
275
1
276
1
 42
1.0
 72
1
  3

 73
1
 74
1
 75
1
 94
63
  0
MLINESTYLE
  5
22
102
{ACAD_REACTORS
330
10
102
}
330
10
100
AcDbMlineStyle
  2
Standard
 70
0
  3

 62
256
 51
90.0
 52
90.0
 71
2
 49
0.5
 62
256
  6
BYLAYER
 49
-0.5
 62
256
  6
BYLAYER
  0
MLEADERSTYLE
  5
2C
102
{ACAD_REACTORS
330
F
102
}
330
F
100
AcDbMLeaderStyle
179
2
170
2
171
1
172
0
 90
2
 40
0.0
 41
0.0
173
1
 91
-1056964608
 92
-2
290
1
 42
2.0
291
1
 43
8.0
  3
Standard
 44
4.0
300

342
29
174
1
175
1
176
0
178
1
 93
-1056964608
 45
4.0
292
0
297
0
 46
4.0
 94
-1056964608
 47
1.0
 49
1.0
140
1.0
294
1
141
0.0
177
0
142
1.0
295
0
296
0
143
3.75
271
0
272
9
273
9
  0
DICTIONARY
  5
2D
330
A
100
AcDbDictionary
280
1
281
1
  3
CREATED_BY_EZDXF
350
2E
  3
WRITTEN_BY_EZDXF
350
102
  0
DICTIONARYVAR
  5
2E
330
2D
100
DictionaryVariables
280
0
  1
1.4.3 @ 2026-04-08T08:17:57.854689+00:00
  0
DICTIONARYVAR
  5
102
330
2D
100
DictionaryVariables
280
0
  1
1.4.3 @ 2026-04-08T08:17:57.858011+00:00
  0
ENDSEC
  0
EOF
