  0
SECTION
  2
HEADER
  9
$ACADVER
  1
AC1024
  9
$ACADMAINTVER
 70
6
  9
$DWGCODEPAGE
  3
ANSI_1252
  9
$LASTSAVEDBY
  1
ezdxf
  9
$INSBASE
 10
0.0
 20
0.0
 30
0.0
  9
$EXTMIN
 10
1e+20
 20
1e+20
 30
1e+20
  9
$EXTMAX
 10
-1e+20
 20
-1e+20
 30
-1e+20
  9
$LIMMIN
 10
0.0
 20
0.0
  9
$LIMMAX
 10
420.0
 20
297.0
  9
$ORTHOMODE
 70
0
  9
$REGENMODE
 70
1
  9
$FILLMODE
 70
1
  9
$QTEXTMODE
 70
0
  9
$MIRRTEXT
 70
1
  9
$LTSCALE
 40
1.0
  9
$ATTMODE
 70
1
  9
$TEXTSIZE
 40
2.5
  9
$TRACEWID
 40
1.0
  9
$TEXTSTYLE
  7
Standard
  9
$CLAYER
  8
0
  9
$CELTYPE
  6
ByLayer
  9
$CECOLOR
 62
256
  9
$CELTSCALE
 40
1.0
  9
$DISPSILH
 70
0
  9
$DIMSCALE
 40
1.0
  9
$DIMASZ
 40
2.5
  9
$DIMEXO
 40
0.625
  9
$DIMDLI
 40
3.75
  9
$DIMRND
 40
0.0
  9
$DIMDLE
 40
0.0
  9
$DIMEXE
 40
1.25
  9
$DIMTP
 40
0.0
  9
$DIMTM
 40
0.0
  9
$DIMTXT
 40
2.5
  9
$DIMCEN
 40
2.5
  9
$DIMTSZ
 40
0.0
  9
$DIMTOL
 70
0
  9
$DIMLIM
 70
0
  9
$DIMTIH
 70
0
  9
$DIMTOH
 70
0
  9
$DIMSE1
 70
0
  9
$DIMSE2
 70
0
  9
$DIMTAD
 70
1
  9
$DIMZIN
 70
8
  9
$DIMBLK
  1

  9
$DIMASO
 70
1
  9
$DIMSHO
 70
1
  9
$DIMPOST
  1

  9
$DIMAPOST
  1

  9
$DIMALT
 70
0
  9
$DIMALTD
 70
3
  9
$DIMALTF
 40
0.03937007874
  9
$DIMLFAC
 40
1.0
  9
$DIMTOFL
 70
1
  9
$DIMTVP
 40
0.0
  9
$DIMTIX
 70
0
  9
$DIMSOXD
 70
0
  9
$DIMSAH
 70
0
  9
$DIMBLK1
  1

  9
$DIMBLK2
  1

  9
$DIMSTYLE
  2
ISO-25
  9
$DIMCLRD
 70
0
  9
$DIMCLRE
 70
0
  9
$DIMCLRT
 70
0
  9
$DIMTFAC
 40
1.0
  9
$DIMGAP
 40
0.625
  9
$DIMJUST
 70
0
  9
$DIMSD1
 70
0
  9
$DIMSD2
 70
0
  9
$DIMTOLJ
 70
0
  9
$DIMTZIN
 70
8
  9
$DIMALTZ
 70
0
  9
$DIMALTTZ
 70
0
  9
$DIMUPT
 70
0
  9
$DIMDEC
 70
2
  9
$DIMTDEC
 70
2
  9
$DIMALTU
 70
2
  9
$DIMALTTD
 70
3
  9
$DIMTXSTY
  7
Standard
  9
$DIMAUNIT
 70
0
  9
$DIMADEC
 70
0
  9
$DIMALTRND
 40
0.0
  9
$DIMAZIN
 70
0
  9
$DIMDSEP
 70
44
  9
$DIMATFIT
 70
3
  9
$DIMFRAC
 70
0
  9
$DIMLDRBLK
  1

  9
$DIMLUNIT
 70
2
  9
$DIMLWD
 70
-2
  9
$DIMLWE
 70
-2
  9
$DIMTMOVE
 70
0
  9
$DIMFXL
 40
1.0
  9
$DIMFXLON
 70
0
  9
$DIMJOGANG
 40
0.785398163397
  9
$DIMTFILL
 70
0
  9
$DIMTFILLCLR
 70
0
  9
$DIMARCSYM
 70
0
  9
$DIMLTYPE
  6

  9
$DIMLTEX1
  6

  9
$DIMLTEX2
  6

  9
$DIMTXTDIRECTION
 70
0
  9
$LUNITS
 70
2
  9
$LUPREC
 70
4
  9
$SKETCHINC
 40
1.0
  9
$FILLETRAD
 40
10.0
  9
$AUNITS
 70
0
  9
$AUPREC
 70
2
  9
$MENU
  1
.
  9
$ELEVATION
 40
0.0
  9
$PELEVATION
 40
0.0
  9
$THICKNESS
 40
0.0
  9
$LIMCHECK
 70
0
  9
$CHAMFERA
 40
0.0
  9
$CHAMFERB
 40
0.0
  9
$CHAMFERC
 40
0.0
  9
$CHAMFERD
 40
0.0
  9
$SKPOLY
 70
0
  9
$TDCREATE
 40
2461232.623472222
  9
$TDUCREATE
 40
2458532.153996898
  9
$TDUPDATE
 40
2461232.623472222
  9
$TDUUPDATE
 40
2458532.1544311
  9
$TDINDWG
 40
0.0
  9
$TDUSRTIMER
 40
0.0
  9
$USRTIMER
 70
1
  9
$ANGBASE
 50
0.0
  9
$ANGDIR
 70
0
  9
$PDMODE
 70
0
  9
$PDSIZE
 40
0.0
  9
$PLINEWID
 40
0.0
  9
$SPLFRAME
 70
0
  9
$SPLINETYPE
 70
6
  9
$SPLINESEGS
 70
8
  9
$HANDSEED
  5
3E2
  9
$SURFTAB1
 70
6
  9
$SURFTAB2
 70
6
  9
$SURFTYPE
 70
6
  9
$SURFU
 70
6
  9
$SURFV
 70
6
  9
$UCSBASE
  2

  9
$UCSNAME
  2

  9
$UCSORG
 10
0.0
 20
0.0
 30
0.0
  9
$UCSXDIR
 10
1.0
 20
0.0
 30
0.0
  9
$UCSYDIR
 10
0.0
 20
1.0
 30
0.0
  9
$UCSORTHOREF
  2

  9
$UCSORTHOVIEW
 70
0
  9
$UCSORGTOP
 10
0.0
 20
0.0
 30
0.0
  9
$UCSORGBOTTOM
 10
0.0
 20
0.0
 30
0.0
  9
$UCSORGLEFT
 10
0.0
 20
0.0
 30
0.0
  9
$UCSORGRIGHT
 10
0.0
 20
0.0
 30
0.0
  9
$UCSORGFRONT
 10
0.0
 20
0.0
 30
0.0
  9
$UCSORGBACK
 10
0.0
 20
0.0
 30
0.0
  9
$PUCSBASE
  2

  9
$PUCSNAME
  2

  9
$PUCSORG
 10
0.0
 20
0.0
 30
0.0
  9
$PUCSXDIR
 10
1.0
 20
0.0
 30
0.0
  9
$PUCSYDIR
 10
0.0
 20
1.0
 30
0.0
  9
$PUCSORTHOREF
  2

  9
$PUCSORTHOVIEW
 70
0
  9
$PUCSORGTOP
 10
0.0
 20
0.0
 30
0.0
  9
$PUCSORGBOTTOM
 10
0.0
 20
0.0
 30
0.0
  9
$PUCSORGLEFT
 10
0.0
 20
0.0
 30
0.0
  9
$PUCSORGRIGHT
 10
0.0
 20
0.0
 30
0.0
  9
$PUCSORGFRONT
 10
0.0
 20
0.0
 30
0.0
  9
$PUCSORGBACK
 10
0.0
 20
0.0
 30
0.0
  9
$USERI1
 70
0
  9
$USERI2
 70
0
  9
$USERI3
 70
0
  9
$USERI4
 70
0
  9
$USERI5
 70
0
  9
$USERR1
 40
0.0
  9
$USERR2
 40
0.0
  9
$USERR3
 40
0.0
  9
$USERR4
 40
0.0
  9
$USERR5
 40
0.0
  9
$WORLDVIEW
 70
1
  9
$SHADEDGE
 70
3
  9
$SHADEDIF
 70
70
  9
$TILEMODE
 70
1
  9
$MAXACTVP
 70
64
  9
$PINSBASE
 10
0.0
 20
0.0
 30
0.0
  9
$PLIMCHECK
 70
0
  9
$PEXTMIN
 10
1e+20
 20
1e+20
 30
1e+20
  9
$PEXTMAX
 10
-1e+20
 20
-1e+20
 30
-1e+20
  9
$PLIMMIN
 10
0.0
 20
0.0
  9
$PLIMMAX
 10
420.0
 20
297.0
  9
$UNITMODE
 70
0
  9
$VISRETAIN
 70
1
  9
$PLINEGEN
 70
0
  9
$PSLTSCALE
 70
1
  9
$TREEDEPTH
 70
3020
  9
$CMLSTYLE
  2
Standard
  9
$CMLJUST
 70
0
  9
$CMLSCALE
 40
20.0
  9
$PROXYGRAPHICS
 70
1
  9
$MEASUREMENT
 70
1
  9
$CELWEIGHT
370
-1
  9
$ENDCAPS
280
0
  9
$JOINSTYLE
280
0
  9
$LWDISPLAY
290
0
  9
$INSUNITS
 70
6
  9
$HYPERLINKBASE
  1

  9
$STYLESHEET
  1

  9
$XEDIT
290
1
  9
$CEPSNTYPE
380
0
  9
$PSTYLEMODE
290
1
  9
$FINGERPRINTGUID
  2
{7C72788B-7E68-4E27-BD37-4C7F47A19933}
  9
$VERSIONGUID
  2
{D7D050AD-E7C9-4F0A-9CF9-14ACA01B55CF}
  9
$EXTNAMES
290
1
  9
$PSVPSCALE
 40
0.0
  9
$OLESTARTUP
290
0
  9
$SORTENTS
280
127
  9
$INDEXCTL
280
0
  9
$HIDETEXT
280
1
  9
$XCLIPFRAME
280
1
  9
$HALOGAP
280
0
  9
$OBSCOLOR
 70
257
  9
$OBSLTYPE
280
0
  9
$INTERSECTIONDISPLAY
280
0
  9
$INTERSECTIONCOLOR
 70
257
  9
$DIMASSOC
280
2
  9
$PROJECTNAME
  1

  9
$CAMERADISPLAY
290
0
  9
$LENSLENGTH
 40
50.0
  9
$CAMERAHEIGHT
 40
0.0
  9
$STEPSPERSEC
 40
24.0
  9
$STEPSIZE
 40
100.0
  9
$3DDWFPREC
 40
2.0
  9
$PSOLWIDTH
 40
0.005
  9
$PSOLHEIGHT
 40
0.08
  9
$LOFTANG1
 40
1.570796326795
  9
$LOFTANG2
 40
1.570796326795
  9
$LOFTMAG1
 40
0.0
  9
$LOFTMAG2
 40
0.0
  9
$LOFTPARAM
 70
7
  9
$LOFTNORMALS
280
1
  9
$LATITUDE
 40
37.795
  9
$LONGITUDE
 40
-122.394
  9
$NORTHDIRECTION
 40
0.0
  9
$TIMEZONE
 70
-8000
  9
$LIGHTGLYPHDISPLAY
280
1
  9
$TILEMODELIGHTSYNCH
280
1
  9
$CMATERIAL
347
20
  9
$SOLIDHIST
280
0
  9
$SHOWHIST
280
1
  9
$DWFFRAME
280
2
  9
$DGNFRAME
280
2
  9
$REALWORLDSCALE
290
1
  9
$INTERFERECOLOR
 62
256
  9
$CSHADOW
280
0
  9
$SHADOWPLANELOCATION
 40
0.0
  0
ENDSEC
  0
SECTION
  2
CLASSES
  0
CLASS
  1
ACDBDICTIONARYWDFLT
  2
AcDbDictionaryWithDefault
  3
ObjectDBX Classes
 90
0
 91
0
280
0
281
0
  0
CLASS
  1
SUN
  2
AcDbSun
  3
SCENEOE
 90
1153
 91
0
280
0
281
0
  0
CLASS
  1
VISUALSTYLE
  2
AcDbVisualStyle
  3
ObjectDBX Classes
 90
4095
 91
0
280
0
281
0
  0
CLASS
  1
MATERIAL
  2
AcDbMaterial
  3
ObjectDBX Classes
 90
1153
 91
0
280
0
281
0
  0
CLASS
  1
SCALE
  2
AcDbScale
  3
ObjectDBX Classes
 90
1153
 91
0
280
0
281
0
  0
CLASS
  1
TABLESTYLE
  2
AcDbTableStyle
  3
ObjectDBX Classes
 90
4095
 91
0
280
0
281
0
  0
CLASS
  1
MLEADERSTYLE
  2
AcDbMLeaderStyle
  3
ACDB_MLEADERSTYLE_CLASS
 90
4095
 91
0
280
0
281
0
  0
CLASS
  1
DICTIONARYVAR
  2
AcDbDictionaryVar
  3
ObjectDBX Classes
 90
0
 91
0
280
0
281
0
  0
CLASS
  1
CELLSTYLEMAP
  2
AcDbCellStyleMap
  3
ObjectDBX Classes
 90
1152
 91
0
280
0
281
0
  0
CLASS
  1
MENTALRAYRENDERSETTINGS
  2
AcDbMentalRayRenderSettings
  3
SCENEOE
 90
1024
 91
0
280
0
281
0
  0
CLASS
  1
ACDBDETAILVIEWSTYLE
  2
AcDbDetailViewStyle
  3
ObjectDBX Classes
 90
1025
 91
0
280
0
281
0
  0
CLASS
  1
ACDBSECTIONVIEWSTYLE
  2
AcDbSectionViewStyle
  3
ObjectDBX Classes
 90
1025
 91
0
280
0
281
0
  0
CLASS
  1
RASTERVARIABLES
  2
AcDbRasterVariables
  3
ISM
 90
0
 91
0
280
0
281
0
  0
CLASS
  1
LAYOUT
  2
AcDbLayout
  3
ObjectDBX Classes
 90
0
 91
0
280
0
281
0
  0
CLASS
  1
ACDBPLACEHOLDER
  2
AcDbPlaceHolder
  3
ObjectDBX Classes
 90
0
 91
0
280
0
281
0
  0
ENDSEC
  0
SECTION
  2
TABLES
  0
TABLE
  2
VPORT
  5
8
330
0
100
AcDbSymbolTable
 70
1
  0
VPORT
  5
23
330
8
100
AcDbSymbolTableRecord
100
AcDbViewportTableRecord
  2
*Active
 70
0
 10
0.0
 20
0.0
 11
1.0
 21
1.0
 12
0.0
 22
0.0
 13
0.0
 23
0.0
 14
0.5
 24
0.5
 15
0.5
 25
0.5
 16
0.0
 26
0.0
 36
1.0
 17
0.0
 27
0.0
 37
0.0
 40
1000.0
 41
1.34
 42
50.0
 43
0.0
 44
0.0
 50
0.0
 51
0.0
 71
0
 72
1000
 73
1
 74
3
 75
0
 76
0
 77
0
 78
0
281
0
 65
0
146
0.0
  0
ENDTAB
  0
TABLE
  2
LTYPE
  5
2
330
0
100
AcDbSymbolTable
 70
3
  0
LTYPE
  5
24
330
2
100
AcDbSymbolTableRecord
100
AcDbLinetypeTableRecord
  2
ByBlock
 70
0
  3

 72
65
 73
0
 40
0.0
  0
LTYPE
  5
25
330
2
100
AcDbSymbolTableRecord
100
AcDbLinetypeTableRecord
  2
ByLayer
 70
0
  3

 72
65
 73
0
 40
0.0
  0
LTYPE
  5
26
330
2
100
AcDbSymbolTableRecord
100
AcDbLinetypeTableRecord
  2
Continuous
 70
0
  3

 72
65
 73
0
 40
0.0
  0
ENDTAB
  0
TABLE
  2
LAYER
  5
1
330
0
100
AcDbSymbolTable
 70
8
  0
LAYER
  5
27
330
1
100
AcDbSymbolTableRecord
100
AcDbLayerTableRecord
  2
0
 70
0
 62
7
  6
Continuous
370
-3
390
13
347
21
  0
LAYER
  5
28
330
1
100
AcDbSymbolTableRecord
100
AcDbLayerTableRecord
  2
Defpoints
 70
0
 62
7
  6
Continuous
290
0
370
-3
390
13
347
21
  0
LAYER
  5
2F
330
1
100
AcDbSymbolTableRecord
100
AcDbLayerTableRecord
  2
A-WALL
 70
0
 62
7
  6
Continuous
370
50
390
13
347
21
  0
LAYER
  5
30
330
1
100
AcDbSymbolTableRecord
100
AcDbLayerTableRecord
  2
A-DOOR
 70
0
 62
3
  6
Continuous
370
35
390
13
347
21
  0
LAYER
  5
31
330
1
100
AcDbSymbolTableRecord
100
AcDbLayerTableRecord
  2
A-WINDOW
 70
0
 62
4
  6
Continuous
370
25
390
13
347
21
  0
LAYER
  5
32
330
1
100
AcDbSymbolTableRecord
100
AcDbLayerTableRecord
  2
A-TEXT
 70
0
 62
2
  6
Continuous
370
-3
390
13
347
21
  0
LAYER
  5
33
330
1
100
AcDbSymbolTableRecord
100
AcDbLayerTableRecord
  2
A-GRID
 70
0
 62
8
  6
Continuous
370
13
390
13
347
21
  0
LAYER
  5
34
330
1
100
AcDbSymbolTableRecord
100
AcDbLayerTableRecord
  2
A-ROOM
 70
0
 62
6
  6
Continuous
370
13
390
13
347
21
  0
ENDTAB
  0
TABLE
  2
STYLE
  5
5
330
0
100
AcDbSymbolTable
 70
1
  0
STYLE
  5
29
330
5
100
AcDbSymbolTableRecord
100
AcDbTextStyleTableRecord
  2
Standard
 70
0
 40
0.0
 41
1.0
 50
0.0
 71
0
 42
2.5
  3
txt
  4

  0
ENDTAB
  0
TABLE
  2
VIEW
  5
7
330
0
100
AcDbSymbolTable
 70
0
  0
ENDTAB
  0
TABLE
  2
UCS
  5
6
330
0
100
AcDbSymbolTable
 70
0
  0
ENDTAB
  0
TABLE
  2
APPID
  5
3
330
0
100
AcDbSymbolTable
 70
3
  0
APPID
  5
2A
330
3
100
AcDbSymbolTableRecord
100
AcDbRegAppTableRecord
  2
ACAD
 70
0
  0
APPID
  5
3DF
330
3
100
AcDbSymbolTableRecord
100
AcDbRegAppTableRecord
  2
HATCHBACKGROUNDCOLOR
 70
0
  0
APPID
  5
3E0
330
3
100
AcDbSymbolTableRecord
100
AcDbRegAppTableRecord
  2
EZDXF
 70
0
  0
ENDTAB
  0
TABLE
  2
DIMSTYLE
  5
4
330
0
100
AcDbSymbolTable
 70
1
100
AcDbDimStyleTable
  0
DIMSTYLE
105
2B
330
4
100
AcDbSymbolTableRecord
100
AcDbDimStyleTableRecord
  2
Standard
 70
0
 40
1.0
 41
2.5
 42
0.625
 43
3.75
 44
1.25
 45
0.0
 46
0.0
 47
0.0
 48
0.0
 49
2.5
140
2.5
141
2.5
142
0.0
143
0.03937007874
144
1.0
145
0.0
146
1.0
147
0.625
148
0.0
 69
0
 70
0
 71
0
 72
0
 73
0
 74
0
 75
0
 76
0
 77
1
 78
8
 79
3
170
0
171
3
172
1
173
0
174
0
175
0
176
0
177
0
178
0
179
2
271
2
272
2
273
2
274
3
275
0
276
0
277
2
278
44
279
0
280
0
281
0
282
0
283
0
284
8
285
0
286
0
288
0
289
3
290
0
371
-2
372
-2
  0
ENDTAB
  0
TABLE
  2
BLOCK_RECORD
  5
9
330
0
100
AcDbSymbolTable
 70
2
  0
BLOCK_RECORD
  5
17
330
9
100
AcDbSymbolTableRecord
100
AcDbBlockTableRecord
  2
*Model_Space
340
1A
 70
0
280
1
281
0
  0
BLOCK_RECORD
  5
1B
330
9
100
AcDbSymbolTableRecord
100
AcDbBlockTableRecord
  2
*Paper_Space
340
1E
 70
0
280
1
281
0
  0
ENDTAB
  0
ENDSEC
  0
SECTION
  2
BLOCKS
  0
BLOCK
  5
18
330
17
100
AcDbEntity
  8
0
100
AcDbBlockBegin
  2
*Model_Space
 70
0
 10
0.0
 20
0.0
 30
0.0
  3
*Model_Space
  1

  0
ENDBLK
  5
19
330
17
100
AcDbEntity
  8
0
100
AcDbBlockEnd
  0
BLOCK
  5
1C
330
1B
100
AcDbEntity
  8
0
100
AcDbBlockBegin
  2
*Paper_Space
 70
0
 10
0.0
 20
0.0
 30
0.0
  3
*Paper_Space
  1

  0
ENDBLK
  5
1D
330
1B
100
AcDbEntity
  8
0
100
AcDbBlockEnd
  0
ENDSEC
  0
SECTION
  2
ENTITIES
  0
LINE
  5
35
330
17
100
AcDbEntity
  8
A-WALL
100
AcDbLine
 10
16.275000000000006
 20
16.02499923706055
 30
0.0
 11
16.825000000000003
 21
16.12499923706055
 31
0.0
  0
LINE
  5
36
330
17
100
AcDbEntity
  8
A-WALL
100
AcDbLine
 10
16.175000000000004
 20
16.324999237060553
 30
0.0
 11
16.675000000000004
 21
16.22499923706055
 31
0.0
  0
LINE
  5
37
330
17
100
AcDbEntity
  8
A-WALL
100
AcDbLine
 10
5.375
 20
16.22499923706055
 30
0.0
 11
5.425
 21
16.22499923706055
 31
0.0
  0
LINE
  5
38
330
17
100
AcDbEntity
  8
A-WALL
100
AcDbLine
 10
6.175000000000001
 20
16.47499923706055
 30
0.0
 11
6.075000000000003
 21
15.974999237060551
 31
0.0
  0
LINE
  5
39
330
17
100
AcDbEntity
  8
A-WALL
100
AcDbLine
 10
4.725000000000001
 20
16.174999237060547
 30
0.0
 11
5.425000000000001
 21
16.174999237060547
 31
0.0
  0
LINE
  5
3A
330
17
100
AcDbEntity
  8
A-WALL
100
AcDbLine
 10
2.675000000000002
 20
16.12499923706055
 30
0.0
 11
1.625
 21
16.12499923706055
 31
0.0
  0
LINE
  5
3B
330
17
100
AcDbEntity
  8
A-WALL
100
AcDbLine
 10
2.325000000000003
 20
16.174999237060547
 30
0.0
 11
1.625
 21
16.174999237060547
 31
0.0
  0
LINE
  5
3C
330
17
100
AcDbEntity
  8
A-WALL
100
AcDbLine
 10
0.125
 20
16.174999237060547
 30
0.0
 11
1.125
 21
16.174999237060547
 31
0.0
  0
LINE
  5
3D
330
17
100
AcDbEntity
  8
A-WALL
100
AcDbLine
 10
20.375
 20
16.22499923706055
 30
0.0
 11
16.725
 21
16.22499923706055
 31
0.0
  0
LINE
  5
3E
330
17
100
AcDbEntity
  8
A-WALL
100
AcDbLine
 10
-11.825
 20
15.224999237060551
 30
0.0
 11
-11.825
 21
15.87499923706055
 31
0.0
  0
LINE
  5
3F
330
17
100
AcDbEntity
  8
A-WALL
100
AcDbLine
 10
-15.174999999999999
 20
16.12499923706055
 30
0.0
 11
-15.174999999999999
 21
14.924999237060547
 31
0.0
  0
LINE
  5
40
330
17
100
AcDbEntity
  8
A-WALL
100
AcDbLine
 10
-15.125
 20
15.12499923706055
 30
0.0
 11
-15.875
 21
14.424999237060547
 31
0.0
  0
LINE
  5
41
330
17
100
AcDbEntity
  8
A-WALL
100
AcDbLine
 10
-11.274999999999999
 20
13.87499923706055
 30
0.0
 11
-11.274999999999999
 21
15.924999237060547
 31
0.0
  0
LINE
  5
42
330
17
100
AcDbEntity
  8
A-WALL
100
AcDbLine
 10
-15.525
 20
15.274999237060548
 30
0.0
 11
-15.525
 21
16.12499923706055
 31
0.0
  0
LINE
  5
43
330
17
100
AcDbEntity
  8
A-WALL
100
AcDbLine
 10
-13.075
 20
15.87499923706055
 30
0.0
 11
-12.725
 21
15.324999237060545
 31
0.0
  0
LINE
  5
44
330
17
100
AcDbEntity
  8
A-WALL
100
AcDbLine
 10
-12.325
 20
15.074999237060545
 30
0.0
 11
-11.774999999999999
 21
15.074999237060545
 31
0.0
  0
LINE
  5
45
330
17
100
AcDbEntity
  8
A-WALL
100
AcDbLine
 10
-12.225
 20
15.474999237060551
 30
0.0
 11
-12.225
 21
16.074999237060553
 31
0.0
  0
LINE
  5
46
330
17
100
AcDbEntity
  8
A-WALL
100
AcDbLine
 10
-12.274999999999999
 20
16.12499923706055
 30
0.0
 11
-12.725
 21
16.12499923706055
 31
0.0
  0
LINE
  5
47
330
17
100
AcDbEntity
  8
A-WALL
100
AcDbLine
 10
-12.125
 20
15.224999237060551
 30
0.0
 11
-12.125
 21
14.274999237060548
 31
0.0
  0
LINE
  5
48
330
17
100
AcDbEntity
  8
A-WALL
100
AcDbLine
 10
-13.424999999999999
 20
15.224999237060551
 30
0.0
 11
-13.424999999999999
 21
14.274999237060548
 31
0.0
  0
LINE
  5
49
330
17
100
AcDbEntity
  8
A-WALL
100
AcDbLine
 10
16.375
 20
16.22499923706055
 30
0.0
 11
16.375
 21
15.67499923706055
 31
0.0
  0
LINE
  5
4A
330
17
100
AcDbEntity
  8
A-WALL
100
AcDbLine
 10
16.375
 20
14.624999237060551
 30
0.0
 11
16.375
 21
14.224999237060551
 31
0.0
  0
LINE
  5
4B
330
17
100
AcDbEntity
  8
A-WALL
100
AcDbLine
 10
16.375
 20
11.524999237060552
 30
0.0
 11
16.375
 21
10.62499923706055
 31
0.0
  0
LINE
  5
4C
330
17
100
AcDbEntity
  8
A-WALL
100
AcDbLine
 10
-13.875
 20
14.024999237060548
 30
0.0
 11
-13.075
 21
14.024999237060548
 31
0.0
  0
LINE
  5
4D
330
17
100
AcDbEntity
  8
A-WALL
100
AcDbLine
 10
1.7250000000000014
 20
13.924999237060547
 30
0.0
 11
0.4250000000000007
 21
13.924999237060547
 31
0.0
  0
LINE
  5
4E
330
17
100
AcDbEntity
  8
A-WALL
100
AcDbLine
 10
1.875
 20
13.724999237060551
 30
0.0
 11
1.875
 21
15.924999237060547
 31
0.0
  0
LINE
  5
4F
330
17
100
AcDbEntity
  8
A-WALL
100
AcDbLine
 10
5.675000000000001
 20
14.024999237060548
 30
0.0
 11
5.675000000000001
 21
14.524999237060548
 31
0.0
  0
LINE
  5
50
330
17
100
AcDbEntity
  8
A-WALL
100
AcDbLine
 10
-11.575
 20
13.824999237060545
 30
0.0
 11
-12.825
 21
13.824999237060545
 31
0.0
  0
LINE
  5
51
330
17
100
AcDbEntity
  8
A-WALL
100
AcDbLine
 10
1.5250000000000021
 20
14.174999237060547
 30
0.0
 11
1.5250000000000021
 21
13.474999237060551
 31
0.0
  0
LINE
  5
52
330
17
100
AcDbEntity
  8
A-WALL
100
AcDbLine
 10
1.625
 20
13.724999237060551
 30
0.0
 11
1.0750000000000028
 21
13.824999237060545
 31
0.0
  0
LINE
  5
53
330
17
100
AcDbEntity
  8
A-WALL
100
AcDbLine
 10
0.4750000000000014
 20
13.774999237060548
 30
0.0
 11
0.4750000000000014
 21
16.37499923706055
 31
0.0
  0
LINE
  5
54
330
17
100
AcDbEntity
  8
A-WALL
100
AcDbLine
 10
5.175000000000001
 20
13.474999237060551
 30
0.0
 11
5.175000000000001
 21
13.57499923706055
 31
0.0
  0
LINE
  5
55
330
17
100
AcDbEntity
  8
A-WALL
100
AcDbLine
 10
4.725000000000001
 20
15.37499923706055
 30
0.0
 11
4.725000000000001
 21
15.974999237060551
 31
0.0
  0
LINE
  5
56
330
17
100
AcDbEntity
  8
A-WALL
100
AcDbLine
 10
4.725000000000001
 20
14.274999237060548
 30
0.0
 11
4.625
 21
13.824999237060545
 31
0.0
  0
LINE
  5
57
330
17
100
AcDbEntity
  8
A-WALL
100
AcDbLine
 10
0.6750000000000007
 20
13.62499923706055
 30
0.0
 11
0.6750000000000007
 21
14.224999237060551
 31
0.0
  0
LINE
  5
58
330
17
100
AcDbEntity
  8
A-WALL
100
AcDbLine
 10
-12.075
 20
13.62499923706055
 30
0.0
 11
-12.075
 21
14.224999237060551
 31
0.0
  0
LINE
  5
59
330
17
100
AcDbEntity
  8
A-WALL
100
AcDbLine
 10
-13.325
 20
13.974999237060551
 30
0.0
 11
-13.875
 21
13.974999237060551
 31
0.0
  0
LINE
  5
5A
330
17
100
AcDbEntity
  8
A-WALL
100
AcDbLine
 10
4.225000000000001
 20
13.324999237060545
 30
0.0
 11
3.125
 21
13.574999237060545
 31
0.0
  0
LINE
  5
5B
330
17
100
AcDbEntity
  8
A-WALL
100
AcDbLine
 10
1.3250000000000028
 20
13.37499923706055
 30
0.0
 11
9.575000000000003
 21
13.37499923706055
 31
0.0
  0
LINE
  5
5C
330
17
100
AcDbEntity
  8
A-WALL
100
AcDbLine
 10
6.275000000000002
 20
15.824999237060553
 30
0.0
 11
6.375
 21
15.274999237060548
 31
0.0
  0
LINE
  5
5D
330
17
100
AcDbEntity
  8
A-WALL
100
AcDbLine
 10
0.625
 20
13.62499923706055
 30
0.0
 11
0.875
 21
13.12499923706055
 31
0.0
  0
LINE
  5
5E
330
17
100
AcDbEntity
  8
A-WALL
100
AcDbLine
 10
0.375
 20
13.12499923706055
 30
0.0
 11
1.1750000000000007
 21
13.12499923706055
 31
0.0
  0
LINE
  5
5F
330
17
100
AcDbEntity
  8
A-WALL
100
AcDbLine
 10
-10.075
 20
12.474999237060551
 30
0.0
 11
-9.575
 21
12.474999237060551
 31
0.0
  0
LINE
  5
60
330
17
100
AcDbEntity
  8
A-WALL
100
AcDbLine
 10
-9.774999999999999
 20
12.674999237060547
 30
0.0
 11
-10.924999999999999
 21
12.674999237060547
 31
0.0
  0
LINE
  5
61
330
17
100
AcDbEntity
  8
A-WALL
100
AcDbLine
 10
-10.725
 20
12.924999237060547
 30
0.0
 11
-10.725
 21
12.224999237060551
 31
0.0
  0
LINE
  5
62
330
17
100
AcDbEntity
  8
A-WALL
100
AcDbLine
 10
-10.125
 20
12.37499923706055
 30
0.0
 11
-10.125
 21
13.024999237060548
 31
0.0
  0
LINE
  5
63
330
17
100
AcDbEntity
  8
A-WALL
100
AcDbLine
 10
1.3250000000000028
 20
13.174999237060547
 30
0.0
 11
1.3250000000000028
 21
10.524999237060548
 31
0.0
  0
LINE
  5
64
330
17
100
AcDbEntity
  8
A-WALL
100
AcDbLine
 10
-12.125
 20
10.974999237060551
 30
0.0
 11
-12.125
 21
12.974999237060551
 31
0.0
  0
LINE
  5
65
330
17
100
AcDbEntity
  8
A-WALL
100
AcDbLine
 10
-15.025
 20
11.574999237060545
 30
0.0
 11
-13.125
 21
11.574999237060545
 31
0.0
  0
LINE
  5
66
330
17
100
AcDbEntity
  8
A-WALL
100
AcDbLine
 10
-15.725
 20
11.574999237060545
 30
0.0
 11
-15.725
 21
12.974999237060551
 31
0.0
  0
LINE
  5
67
330
17
100
AcDbEntity
  8
A-WALL
100
AcDbLine
 10
16.125
 20
11.324999237060545
 30
0.0
 11
16.675000000000004
 21
11.324999237060545
 31
0.0
  0
LINE
  5
68
330
17
100
AcDbEntity
  8
A-WALL
100
AcDbLine
 10
-12.825
 20
11.574999237060545
 30
0.0
 11
-12.125
 21
11.574999237060545
 31
0.0
  0
LINE
  5
69
330
17
100
AcDbEntity
  8
A-WALL
100
AcDbLine
 10
-11.825
 20
10.974999237060551
 30
0.0
 11
-11.825
 21
11.424999237060547
 31
0.0
  0
LINE
  5
6A
330
17
100
AcDbEntity
  8
A-WALL
100
AcDbLine
 10
1.6750000000000007
 20
11.974999237060551
 30
0.0
 11
1.6750000000000007
 21
10.524999237060548
 31
0.0
  0
LINE
  5
6B
330
17
100
AcDbEntity
  8
A-WALL
100
AcDbLine
 10
-12.725
 20
11.424999237060547
 30
0.0
 11
-12.725
 21
10.724999237060551
 31
0.0
  0
LINE
  5
6C
330
17
100
AcDbEntity
  8
A-WALL
100
AcDbLine
 10
-10.725
 20
11.474999237060551
 30
0.0
 11
-10.725
 21
10.87499923706055
 31
0.0
  0
LINE
  5
6D
330
17
100
AcDbEntity
  8
A-WALL
100
AcDbLine
 10
-11.225
 20
11.174999237060547
 30
0.0
 11
-11.225
 21
12.974999237060551
 31
0.0
  0
LINE
  5
6E
330
17
100
AcDbEntity
  8
A-WALL
100
AcDbLine
 10
-11.024999999999999
 20
11.224999237060551
 30
0.0
 11
-10.375
 21
11.224999237060551
 31
0.0
  0
LINE
  5
6F
330
17
100
AcDbEntity
  8
A-WALL
100
AcDbLine
 10
0.4750000000000014
 20
10.174999237060547
 30
0.0
 11
0.4750000000000014
 21
13.474999237060551
 31
0.0
  0
LINE
  5
70
330
17
100
AcDbEntity
  8
A-WALL
100
AcDbLine
 10
-12.325
 20
10.62499923706055
 30
0.0
 11
-11.225
 21
10.62499923706055
 31
0.0
  0
LINE
  5
71
330
17
100
AcDbEntity
  8
A-WALL
100
AcDbLine
 10
16.275000000000006
 20
10.524999237060548
 30
0.0
 11
16.275000000000006
 21
11.12499923706055
 31
0.0
  0
LINE
  5
72
330
17
100
AcDbEntity
  8
A-WALL
100
AcDbLine
 10
3.4250000000000007
 20
10.474999237060551
 30
0.0
 11
3.4250000000000007
 21
12.974999237060551
 31
0.0
  0
LINE
  5
73
330
17
100
AcDbEntity
  8
A-WALL
100
AcDbLine
 10
2.375
 20
10.224999237060551
 30
0.0
 11
4.975000000000001
 21
10.224999237060551
 31
0.0
  0
LINE
  5
74
330
17
100
AcDbEntity
  8
A-WALL
100
AcDbLine
 10
2.275000000000002
 20
10.62499923706055
 30
0.0
 11
2.275000000000002
 21
12.12499923706055
 31
0.0
  0
LINE
  5
75
330
17
100
AcDbEntity
  8
A-WALL
100
AcDbLine
 10
2.275000000000002
 20
10.524999237060548
 30
0.0
 11
4.775000000000002
 21
10.524999237060548
 31
0.0
  0
LINE
  5
76
330
17
100
AcDbEntity
  8
A-WALL
100
AcDbLine
 10
16.275000000000006
 20
9.824999237060545
 30
0.0
 11
16.275000000000006
 21
11.074999237060545
 31
0.0
  0
LINE
  5
77
330
17
100
AcDbEntity
  8
A-WALL
100
AcDbLine
 10
1.625
 20
10.324999237060545
 30
0.0
 11
0.375
 21
10.324999237060545
 31
0.0
  0
LINE
  5
78
330
17
100
AcDbEntity
  8
A-WALL
100
AcDbLine
 10
15.875
 20
9.974999237060551
 30
0.0
 11
17.075000000000003
 21
9.974999237060551
 31
0.0
  0
LINE
  5
79
330
17
100
AcDbEntity
  8
A-WALL
100
AcDbLine
 10
20.275000000000006
 20
16.324999237060553
 30
0.0
 11
20.275000000000006
 21
11.224999237060551
 31
0.0
  0
LINE
  5
7A
330
17
100
AcDbEntity
  8
A-WALL
100
AcDbLine
 10
19.575000000000003
 20
10.62499923706055
 30
0.0
 11
19.975
 21
10.424999237060547
 31
0.0
  0
LINE
  5
7B
330
17
100
AcDbEntity
  8
A-WALL
100
AcDbLine
 10
5.375
 20
9.724999237060551
 30
0.0
 11
6.725
 21
9.724999237060551
 31
0.0
  0
LINE
  5
7C
330
17
100
AcDbEntity
  8
A-WALL
100
AcDbLine
 10
7.925
 20
9.724999237060551
 30
0.0
 11
10.175
 21
9.724999237060551
 31
0.0
  0
LINE
  5
7D
330
17
100
AcDbEntity
  8
A-WALL
100
AcDbLine
 10
15.675
 20
9.724999237060551
 30
0.0
 11
16.425000000000004
 21
9.724999237060551
 31
0.0
  0
LINE
  5
7E
330
17
100
AcDbEntity
  8
A-WALL
100
AcDbLine
 10
1.875
 20
9.824999237060545
 30
0.0
 11
9.575000000000003
 21
9.824999237060545
 31
0.0
  0
LINE
  5
7F
330
17
100
AcDbEntity
  8
A-WALL
100
AcDbLine
 10
9.475000000000001
 20
9.724999237060551
 30
0.0
 11
9.875
 21
9.62499923706055
 31
0.0
  0
LINE
  5
80
330
17
100
AcDbEntity
  8
A-WALL
100
AcDbLine
 10
16.975
 20
9.724999237060551
 30
0.0
 11
17.675000000000004
 21
9.724999237060551
 31
0.0
  0
LINE
  5
81
330
17
100
AcDbEntity
  8
A-WALL
100
AcDbLine
 10
17.925000000000004
 20
10.12499923706055
 30
0.0
 11
17.775000000000006
 21
9.324999237060549
 31
0.0
  0
LINE
  5
82
330
17
100
AcDbEntity
  8
A-WALL
100
AcDbLine
 10
17.775000000000006
 20
9.524999237060548
 30
0.0
 11
19.675000000000004
 21
9.524999237060548
 31
0.0
  0
LINE
  5
83
330
17
100
AcDbEntity
  8
A-WALL
100
AcDbLine
 10
-11.825
 20
9.12499923706055
 30
0.0
 11
-12.325
 21
9.12499923706055
 31
0.0
  0
LINE
  5
84
330
17
100
AcDbEntity
  8
A-WALL
100
AcDbLine
 10
-12.524999999999999
 20
8.87499923706055
 30
0.0
 11
-12.225
 21
9.674999237060547
 31
0.0
  0
LINE
  5
85
330
17
100
AcDbEntity
  8
A-WALL
100
AcDbLine
 10
-13.024999999999999
 20
8.324999237060549
 30
0.0
 11
-13.024999999999999
 21
9.174999237060547
 31
0.0
  0
LINE
  5
86
330
17
100
AcDbEntity
  8
A-WALL
100
AcDbLine
 10
-12.475
 20
9.62499923706055
 30
0.0
 11
-12.325
 21
8.774999237060548
 31
0.0
  0
LINE
  5
87
330
17
100
AcDbEntity
  8
A-WALL
100
AcDbLine
 10
-12.024999999999999
 20
9.424999237060547
 30
0.0
 11
-13.375
 21
9.424999237060547
 31
0.0
  0
LINE
  5
88
330
17
100
AcDbEntity
  8
A-WALL
100
AcDbLine
 10
-13.524999999999999
 20
9.574999237060545
 30
0.0
 11
-13.924999999999999
 21
9.574999237060545
 31
0.0
  0
LINE
  5
89
330
17
100
AcDbEntity
  8
A-WALL
100
AcDbLine
 10
-12.825
 20
9.474999237060551
 30
0.0
 11
-12.024999999999999
 21
9.474999237060551
 31
0.0
  0
LINE
  5
8A
330
17
100
AcDbEntity
  8
A-WALL
100
AcDbLine
 10
5.275000000000002
 20
7.824999237060549
 30
0.0
 11
5.275000000000002
 21
9.87499923706055
 31
0.0
  0
LINE
  5
8B
330
17
100
AcDbEntity
  8
A-WALL
100
AcDbLine
 10
5.625
 20
8.924999237060547
 30
0.0
 11
5.625
 21
9.924999237060547
 31
0.0
  0
LINE
  5
8C
330
17
100
AcDbEntity
  8
A-WALL
100
AcDbLine
 10
17.975
 20
9.074999237060549
 30
0.0
 11
19.675000000000004
 21
9.074999237060549
 31
0.0
  0
LINE
  5
8D
330
17
100
AcDbEntity
  8
A-WALL
100
AcDbLine
 10
19.325000000000003
 20
9.824999237060545
 30
0.0
 11
19.325000000000003
 21
9.12499923706055
 31
0.0
  0
LINE
  5
8E
330
17
100
AcDbEntity
  8
A-WALL
100
AcDbLine
 10
-13.075
 20
9.274999237060548
 30
0.0
 11
-13.174999999999999
 21
9.674999237060547
 31
0.0
  0
LINE
  5
8F
330
17
100
AcDbEntity
  8
A-WALL
100
AcDbLine
 10
-13.924999999999999
 20
8.924999237060547
 30
0.0
 11
-15.125
 21
8.924999237060547
 31
0.0
  0
LINE
  5
90
330
17
100
AcDbEntity
  8
A-WALL
100
AcDbLine
 10
-14.275
 20
9.524999237060548
 30
0.0
 11
-14.275
 21
8.674999237060547
 31
0.0
  0
LINE
  5
91
330
17
100
AcDbEntity
  8
A-WALL
100
AcDbLine
 10
-15.075
 20
9.37499923706055
 30
0.0
 11
-14.024999999999999
 21
9.37499923706055
 31
0.0
  0
LINE
  5
92
330
17
100
AcDbEntity
  8
A-WALL
100
AcDbLine
 10
-14.575
 20
9.12499923706055
 30
0.0
 11
-15.075
 21
9.024999237060548
 31
0.0
  0
LINE
  5
93
330
17
100
AcDbEntity
  8
A-WALL
100
AcDbLine
 10
-14.725
 20
9.474999237060551
 30
0.0
 11
-14.725
 21
7.774999237060548
 31
0.0
  0
LINE
  5
94
330
17
100
AcDbEntity
  8
A-WALL
100
AcDbLine
 10
17.775000000000006
 20
9.174999237060547
 30
0.0
 11
17.775000000000006
 21
9.674999237060547
 31
0.0
  0
LINE
  5
95
330
17
100
AcDbEntity
  8
A-WALL
100
AcDbLine
 10
17.375
 20
9.724999237060551
 30
0.0
 11
17.375
 21
9.174999237060547
 31
0.0
  0
LINE
  5
96
330
17
100
AcDbEntity
  8
A-WALL
100
AcDbLine
 10
-15.225
 20
9.474999237060551
 30
0.0
 11
-15.225
 21
8.824999237060549
 31
0.0
  0
LINE
  5
97
330
17
100
AcDbEntity
  8
A-WALL
100
AcDbLine
 10
-12.975
 20
8.724999237060548
 30
0.0
 11
-13.424999999999999
 21
8.87499923706055
 31
0.0
  0
LINE
  5
98
330
17
100
AcDbEntity
  8
A-WALL
100
AcDbLine
 10
-13.075
 20
8.62499923706055
 30
0.0
 11
-12.325
 21
8.62499923706055
 31
0.0
  0
LINE
  5
99
330
17
100
AcDbEntity
  8
A-WALL
100
AcDbLine
 10
-12.325
 20
9.12499923706055
 30
0.0
 11
-12.325
 21
8.074999237060549
 31
0.0
  0
LINE
  5
9A
330
17
100
AcDbEntity
  8
A-WALL
100
AcDbLine
 10
-12.875
 20
8.724999237060548
 30
0.0
 11
-12.725
 21
8.274999237060548
 31
0.0
  0
LINE
  5
9B
330
17
100
AcDbEntity
  8
A-WALL
100
AcDbLine
 10
-13.875
 20
8.924999237060547
 30
0.0
 11
-13.875
 21
8.274999237060548
 31
0.0
  0
LINE
  5
9C
330
17
100
AcDbEntity
  8
A-WALL
100
AcDbLine
 10
-14.375
 20
8.424999237060547
 30
0.0
 11
-13.174999999999999
 21
8.424999237060547
 31
0.0
  0
LINE
  5
9D
330
17
100
AcDbEntity
  8
A-WALL
100
AcDbLine
 10
-13.825
 20
8.274999237060548
 30
0.0
 11
-14.325
 21
8.424999237060547
 31
0.0
  0
LINE
  5
9E
330
17
100
AcDbEntity
  8
A-WALL
100
AcDbLine
 10
-15.475
 20
8.524999237060548
 30
0.0
 11
-15.125
 21
8.87499923706055
 31
0.0
  0
LINE
  5
9F
330
17
100
AcDbEntity
  8
A-WALL
100
AcDbLine
 10
-15.725
 20
8.524999237060548
 30
0.0
 11
-15.325
 21
8.924999237060547
 31
0.0
  0
LINE
  5
A0
330
17
100
AcDbEntity
  8
A-WALL
100
AcDbLine
 10
-12.125
 20
8.074999237060549
 30
0.0
 11
-14.725
 21
8.074999237060549
 31
0.0
  0
LINE
  5
A1
330
17
100
AcDbEntity
  8
A-WALL
100
AcDbLine
 10
-15.225
 20
7.924999237060547
 30
0.0
 11
-16.425
 21
7.924999237060547
 31
0.0
  0
LINE
  5
A2
330
17
100
AcDbEntity
  8
A-WALL
100
AcDbLine
 10
6.775000000000002
 20
8.324999237060549
 30
0.0
 11
7.375
 21
8.324999237060549
 31
0.0
  0
LINE
  5
A3
330
17
100
AcDbEntity
  8
A-WALL
100
AcDbLine
 10
8.225000000000001
 20
8.024999237060548
 30
0.0
 11
9.125
 21
8.024999237060548
 31
0.0
  0
LINE
  5
A4
330
17
100
AcDbEntity
  8
A-WALL
100
AcDbLine
 10
7.975000000000001
 20
8.574999237060549
 30
0.0
 11
7.725000000000001
 21
8.224999237060548
 31
0.0
  0
LINE
  5
A5
330
17
100
AcDbEntity
  8
A-WALL
100
AcDbLine
 10
16.475
 20
9.174999237060547
 30
0.0
 11
16.475
 21
7.524999237060548
 31
0.0
  0
LINE
  5
A6
330
17
100
AcDbEntity
  8
A-WALL
100
AcDbLine
 10
16.375
 20
7.924999237060547
 30
0.0
 11
17.775000000000006
 21
7.924999237060547
 31
0.0
  0
LINE
  5
A7
330
17
100
AcDbEntity
  8
A-WALL
100
AcDbLine
 10
-12.174999999999999
 20
7.924999237060547
 30
0.0
 11
-12.625
 21
7.924999237060547
 31
0.0
  0
LINE
  5
A8
330
17
100
AcDbEntity
  8
A-WALL
100
AcDbLine
 10
-11.975
 20
8.274999237060548
 30
0.0
 11
-12.225
 21
7.674999237060547
 31
0.0
  0
LINE
  5
A9
330
17
100
AcDbEntity
  8
A-WALL
100
AcDbLine
 10
-16.375
 20
8.224999237060548
 30
0.0
 11
-15.325
 21
8.224999237060548
 31
0.0
  0
LINE
  5
AA
330
17
100
AcDbEntity
  8
A-WALL
100
AcDbLine
 10
-15.325
 20
7.824999237060549
 30
0.0
 11
-15.225
 21
8.274999237060548
 31
0.0
  0
LINE
  5
AB
330
17
100
AcDbEntity
  8
A-WALL
100
AcDbLine
 10
9.175000000000004
 20
7.974999237060548
 30
0.0
 11
9.625
 21
7.974999237060548
 31
0.0
  0
LINE
  5
AC
330
17
100
AcDbEntity
  8
A-WALL
100
AcDbLine
 10
-12.825
 20
8.074999237060549
 30
0.0
 11
-13.125
 21
7.724999237060548
 31
0.0
  0
LINE
  5
AD
330
17
100
AcDbEntity
  8
A-WALL
100
AcDbLine
 10
-12.825
 20
7.774999237060548
 30
0.0
 11
-12.924999999999999
 21
8.324999237060549
 31
0.0
  0
LINE
  5
AE
330
17
100
AcDbEntity
  8
A-WALL
100
AcDbLine
 10
16.575000000000003
 20
7.12499923706055
 30
0.0
 11
16.575000000000003
 21
7.87499923706055
 31
0.0
  0
LINE
  5
AF
330
17
100
AcDbEntity
  8
A-WALL
100
AcDbLine
 10
16.475
 20
8.074999237060549
 30
0.0
 11
16.475
 21
7.524999237060548
 31
0.0
  0
LINE
  5
B0
330
17
100
AcDbEntity
  8
A-WALL
100
AcDbLine
 10
17.025000000000006
 20
7.674999237060547
 30
0.0
 11
17.025000000000006
 21
6.87499923706055
 31
0.0
  0
LINE
  5
B1
330
17
100
AcDbEntity
  8
A-WALL
100
AcDbLine
 10
-14.075
 20
6.324999237060549
 30
0.0
 11
-13.375
 21
6.324999237060549
 31
0.0
  0
LINE
  5
B2
330
17
100
AcDbEntity
  8
A-WALL
100
AcDbLine
 10
5.175000000000001
 20
6.574999237060549
 30
0.0
 11
5.175000000000001
 21
8.024999237060548
 31
0.0
  0
LINE
  5
B3
330
17
100
AcDbEntity
  8
A-WALL
100
AcDbLine
 10
-12.625
 20
6.924999237060547
 30
0.0
 11
-12.625
 21
4.974999237060548
 31
0.0
  0
LINE
  5
B4
330
17
100
AcDbEntity
  8
A-WALL
100
AcDbLine
 10
-14.024999999999999
 20
6.87499923706055
 30
0.0
 11
-14.024999999999999
 21
4.974999237060548
 31
0.0
  0
LINE
  5
B5
330
17
100
AcDbEntity
  8
A-WALL
100
AcDbLine
 10
-15.375
 20
6.424999237060547
 30
0.0
 11
-14.174999999999999
 21
6.424999237060547
 31
0.0
  0
LINE
  5
B6
330
17
100
AcDbEntity
  8
A-WALL
100
AcDbLine
 10
-14.375
 20
4.574999237060549
 30
0.0
 11
-14.375
 21
6.924999237060547
 31
0.0
  0
LINE
  5
B7
330
17
100
AcDbEntity
  8
A-WALL
100
AcDbLine
 10
-12.024999999999999
 20
6.224999237060548
 30
0.0
 11
-12.524999999999999
 21
6.12499923706055
 31
0.0
  0
LINE
  5
B8
330
17
100
AcDbEntity
  8
A-WALL
100
AcDbLine
 10
-15.025
 20
6.774999237060548
 30
0.0
 11
-15.025
 21
4.924999237060547
 31
0.0
  0
LINE
  5
B9
330
17
100
AcDbEntity
  8
A-WALL
100
AcDbLine
 10
-15.125
 20
6.824999237060549
 30
0.0
 11
-13.825
 21
6.824999237060549
 31
0.0
  0
LINE
  5
BA
330
17
100
AcDbEntity
  8
A-WALL
100
AcDbLine
 10
-15.174999999999999
 20
6.674999237060547
 30
0.0
 11
-16.375
 21
6.674999237060547
 31
0.0
  0
LINE
  5
BB
330
17
100
AcDbEntity
  8
A-WALL
100
AcDbLine
 10
-12.725
 20
6.87499923706055
 30
0.0
 11
-12.725
 21
6.224999237060548
 31
0.0
  0
LINE
  5
BC
330
17
100
AcDbEntity
  8
A-WALL
100
AcDbLine
 10
-12.424999999999999
 20
5.474999237060548
 30
0.0
 11
-12.424999999999999
 21
6.424999237060547
 31
0.0
  0
LINE
  5
BD
330
17
100
AcDbEntity
  8
A-WALL
100
AcDbLine
 10
-16.475
 20
5.924999237060547
 30
0.0
 11
-15.325
 21
5.924999237060547
 31
0.0
  0
LINE
  5
BE
330
17
100
AcDbEntity
  8
A-WALL
100
AcDbLine
 10
-12.024999999999999
 20
5.724999237060548
 30
0.0
 11
-11.575
 21
5.824999237060549
 31
0.0
  0
LINE
  5
BF
330
17
100
AcDbEntity
  8
A-WALL
100
AcDbLine
 10
16.125
 20
6.12499923706055
 30
0.0
 11
16.775000000000006
 21
6.12499923706055
 31
0.0
  0
LINE
  5
C0
330
17
100
AcDbEntity
  8
A-WALL
100
AcDbLine
 10
-12.825
 20
5.62499923706055
 30
0.0
 11
-13.274999999999999
 21
5.62499923706055
 31
0.0
  0
LINE
  5
C1
330
17
100
AcDbEntity
  8
A-WALL
100
AcDbLine
 10
-12.575
 20
5.724999237060548
 30
0.0
 11
-12.674999999999999
 21
5.174999237060547
 31
0.0
  0
LINE
  5
C2
330
17
100
AcDbEntity
  8
A-WALL
100
AcDbLine
 10
-15.075
 20
5.12499923706055
 30
0.0
 11
-13.875
 21
5.12499923706055
 31
0.0
  0
LINE
  5
C3
330
17
100
AcDbEntity
  8
A-WALL
100
AcDbLine
 10
-11.875
 20
4.824999237060549
 30
0.0
 11
-13.625
 21
4.824999237060549
 31
0.0
  0
LINE
  5
C4
330
17
100
AcDbEntity
  8
A-WALL
100
AcDbLine
 10
-14.125
 20
4.774999237060548
 30
0.0
 11
-14.125
 21
5.474999237060548
 31
0.0
  0
LINE
  5
C5
330
17
100
AcDbEntity
  8
A-WALL
100
AcDbLine
 10
-12.875
 20
4.474999237060548
 30
0.0
 11
-12.774999999999999
 21
4.924999237060547
 31
0.0
  0
LINE
  5
C6
330
17
100
AcDbEntity
  8
A-WALL
100
AcDbLine
 10
-14.325
 20
4.724999237060548
 30
0.0
 11
-14.875
 21
4.724999237060548
 31
0.0
  0
LINE
  5
C7
330
17
100
AcDbEntity
  8
A-WALL
100
AcDbLine
 10
9.575000000000003
 20
4.62499923706055
 30
0.0
 11
8.925000000000004
 21
4.62499923706055
 31
0.0
  0
LINE
  5
C8
330
17
100
AcDbEntity
  8
A-WALL
100
AcDbLine
 10
-16.225
 20
5.12499923706055
 30
0.0
 11
-16.225
 21
4.474999237060549
 31
0.0
  0
LINE
  5
C9
330
17
100
AcDbEntity
  8
A-WALL
100
AcDbLine
 10
5.075000000000003
 20
1.4749992370605476
 30
0.0
 11
5.075000000000003
 21
5.774999237060548
 31
0.0
  0
LINE
  5
CA
330
17
100
AcDbEntity
  8
A-WALL
100
AcDbLine
 10
6.275000000000002
 20
3.574999237060549
 30
0.0
 11
6.825000000000003
 21
3.674999237060547
 31
0.0
  0
LINE
  5
CB
330
17
100
AcDbEntity
  8
A-WALL
100
AcDbLine
 10
6.475000000000001
 20
4.024999237060548
 30
0.0
 11
6.475000000000001
 21
2.7249992370605476
 31
0.0
  0
LINE
  5
CC
330
17
100
AcDbEntity
  8
A-WALL
100
AcDbLine
 10
6.225000000000001
 20
3.174999237060547
 30
0.0
 11
6.525000000000002
 21
2.674999237060547
 31
0.0
  0
LINE
  5
CD
330
17
100
AcDbEntity
  8
A-WALL
100
AcDbLine
 10
-16.225
 20
2.324999237060549
 30
0.0
 11
-16.225
 21
1.9249992370605469
 31
0.0
  0
LINE
  5
CE
330
17
100
AcDbEntity
  8
A-WALL
100
AcDbLine
 10
16.125
 20
0.9249992370605469
 30
0.0
 11
16.725
 21
0.9249992370605469
 31
0.0
  0
LINE
  5
CF
330
17
100
AcDbEntity
  8
A-WALL
100
AcDbLine
 10
15.825000000000003
 20
2.574999237060549
 30
0.0
 11
16.125
 21
2.924999237060547
 31
0.0
  0
LINE
  5
D0
330
17
100
AcDbEntity
  8
A-WALL
100
AcDbLine
 10
16.475
 20
3.174999237060548
 30
0.0
 11
16.475
 21
3.0249992370605483
 31
0.0
  0
LINE
  5
D1
330
17
100
AcDbEntity
  8
A-WALL
100
AcDbLine
 10
6.375
 20
0.4249992370605469
 30
0.0
 11
5.875
 21
0.5249992370605483
 31
0.0
  0
LINE
  5
D2
330
17
100
AcDbEntity
  8
A-WALL
100
AcDbLine
 10
5.975000000000001
 20
1.1749992370605469
 30
0.0
 11
5.975000000000001
 21
0.5249992370605483
 31
0.0
  0
LINE
  5
D3
330
17
100
AcDbEntity
  8
A-WALL
100
AcDbLine
 10
5.975000000000001
 20
0.4249992370605469
 30
0.0
 11
6.675000000000001
 21
0.4249992370605469
 31
0.0
  0
LINE
  5
D4
330
17
100
AcDbEntity
  8
A-WALL
100
AcDbLine
 10
9.175000000000004
 20
1.2249992370605476
 30
0.0
 11
8.925000000000004
 21
0.824999237060549
 31
0.0
  0
LINE
  5
D5
330
17
100
AcDbEntity
  8
A-WALL
100
AcDbLine
 10
7.575000000000003
 20
0.17499923706054688
 30
0.0
 11
6.925000000000001
 21
0.17499923706054688
 31
0.0
  0
LINE
  5
D6
330
17
100
AcDbEntity
  8
A-WALL
100
AcDbLine
 10
-14.225
 20
-0.675000762939451
 30
0.0
 11
-14.625
 21
-0.675000762939451
 31
0.0
  0
LINE
  5
D7
330
17
100
AcDbEntity
  8
A-WALL
100
AcDbLine
 10
-14.575
 20
-0.5250007629394524
 30
0.0
 11
-14.075
 21
-0.5250007629394524
 31
0.0
  0
LINE
  5
D8
330
17
100
AcDbEntity
  8
A-WALL
100
AcDbLine
 10
16.425000000000004
 20
1.0249992370605483
 30
0.0
 11
16.425000000000004
 21
0.024999237060548296
 31
0.0
  0
LINE
  5
D9
330
17
100
AcDbEntity
  8
A-WALL
100
AcDbLine
 10
16.975
 20
-0.3750007629394503
 30
0.0
 11
17.025000000000002
 21
-0.3750007629394503
 31
0.0
  0
LINE
  5
DA
330
17
100
AcDbEntity
  8
A-WALL
100
AcDbLine
 10
20.075000000000003
 20
-0.3750007629394503
 30
0.0
 11
20.275000000000006
 21
-0.3750007629394503
 31
0.0
  0
LINE
  5
DB
330
17
100
AcDbEntity
  8
A-WALL
100
AcDbLine
 10
16.425000000000004
 20
-2.075000762939453
 30
0.0
 11
16.425000000000004
 21
-0.4750007629394517
 31
0.0
  0
LINE
  5
DC
330
17
100
AcDbEntity
  8
A-WALL
100
AcDbLine
 10
4.275000000000002
 20
-0.9750007629394517
 30
0.0
 11
1.9250000000000007
 21
-0.9750007629394517
 31
0.0
  0
LINE
  5
DD
330
17
100
AcDbEntity
  8
A-WALL
100
AcDbLine
 10
4.775000000000002
 20
-0.8250007629394531
 30
0.0
 11
4.775000000000002
 21
-1.1250007629394532
 31
0.0
  0
LINE
  5
DE
330
17
100
AcDbEntity
  8
A-WALL
100
AcDbLine
 10
0.7750000000000021
 20
-1.8750007629394503
 30
0.0
 11
0.7750000000000021
 21
-0.9750007629394517
 31
0.0
  0
LINE
  5
DF
330
17
100
AcDbEntity
  8
A-WALL
100
AcDbLine
 10
4.675000000000001
 20
-1.0750007629394531
 30
0.0
 11
4.675000000000001
 21
-1.1250007629394532
 31
0.0
  0
LINE
  5
E0
330
17
100
AcDbEntity
  8
A-WALL
100
AcDbLine
 10
4.975000000000001
 20
-2.1250007629394503
 30
0.0
 11
4.925000000000002
 21
-2.1250007629394503
 31
0.0
  0
LINE
  5
E1
330
17
100
AcDbEntity
  8
A-WALL
100
AcDbLine
 10
4.225000000000001
 20
-2.1250007629394503
 30
0.0
 11
2.025000000000002
 21
-2.1250007629394503
 31
0.0
  0
LINE
  5
E2
330
17
100
AcDbEntity
  8
A-WALL
100
AcDbLine
 10
3.4750000000000014
 20
-1.0750007629394518
 30
0.0
 11
3.4750000000000014
 21
-1.0250007629394524
 31
0.0
  0
LINE
  5
E3
330
17
100
AcDbEntity
  8
A-WALL
100
AcDbLine
 10
2.825000000000003
 20
-0.9750007629394517
 30
0.0
 11
2.825000000000003
 21
-1.0750007629394518
 31
0.0
  0
LINE
  5
E4
330
17
100
AcDbEntity
  8
A-WALL
100
AcDbLine
 10
2.375
 20
-1.9750007629394517
 30
0.0
 11
2.375
 21
-0.9750007629394517
 31
0.0
  0
LINE
  5
E5
330
17
100
AcDbEntity
  8
A-WALL
100
AcDbLine
 10
1.875
 20
-1.8250007629394531
 30
0.0
 11
1.875
 21
-0.7750007629394524
 31
0.0
  0
LINE
  5
E6
330
17
100
AcDbEntity
  8
A-WALL
100
AcDbLine
 10
17.425000000000004
 20
-2.0250007629394524
 30
0.0
 11
16.275000000000006
 21
-2.0250007629394524
 31
0.0
  0
LINE
  5
E7
330
17
100
AcDbEntity
  8
A-WALL
100
AcDbLine
 10
-9.024999999999999
 20
-2.5250007629394524
 30
0.0
 11
-9.524999999999999
 21
-2.7250007629394517
 31
0.0
  0
LINE
  5
E8
330
17
100
AcDbEntity
  8
A-WALL
100
AcDbLine
 10
0.32500000000000284
 20
-2.675000762939451
 30
0.0
 11
6.625000000000003
 21
-2.675000762939451
 31
0.0
  0
LINE
  5
E9
330
17
100
AcDbEntity
  8
A-WALL
100
AcDbLine
 10
5.175000000000001
 20
-0.8250007629394531
 30
0.0
 11
5.175000000000001
 21
-0.12500076293945028
 31
0.0
  0
LINE
  5
EA
330
17
100
AcDbEntity
  8
A-WALL
100
AcDbLine
 10
-11.125
 20
-2.575000762939453
 30
0.0
 11
-11.125
 21
-1.9750007629394517
 31
0.0
  0
LINE
  5
EB
330
17
100
AcDbEntity
  8
A-WALL
100
AcDbLine
 10
-8.475
 20
-2.2250007629394517
 30
0.0
 11
-8.924999999999999
 21
-2.325000762939453
 31
0.0
  0
LINE
  5
EC
330
17
100
AcDbEntity
  8
A-WALL
100
AcDbLine
 10
1.1750000000000007
 20
-3.4750007629394517
 30
0.0
 11
1.4750000000000014
 21
-2.425000762939451
 31
0.0
  0
LINE
  5
ED
330
17
100
AcDbEntity
  8
A-WALL
100
AcDbLine
 10
-9.924999999999999
 20
-2.675000762939451
 30
0.0
 11
-10.375
 21
-2.7750007629394524
 31
0.0
  0
LINE
  5
EE
330
17
100
AcDbEntity
  8
A-WALL
100
AcDbLine
 10
15.925000000000004
 20
-3.075000762939453
 30
0.0
 11
15.925000000000004
 21
-2.325000762939453
 31
0.0
  0
LINE
  5
EF
330
17
100
AcDbEntity
  8
A-WALL
100
AcDbLine
 10
2.075000000000003
 20
-2.5250007629394524
 30
0.0
 11
2.075000000000003
 21
-5.125000762939454
 31
0.0
  0
LINE
  5
F0
330
17
100
AcDbEntity
  8
A-WALL
100
AcDbLine
 10
-7.725
 20
-2.575000762939453
 30
0.0
 11
-7.725
 21
-3.175000762939451
 31
0.0
  0
LINE
  5
F1
330
17
100
AcDbEntity
  8
A-WALL
100
AcDbLine
 10
3.875
 20
-2.425000762939451
 30
0.0
 11
3.875
 21
-3.7750007629394524
 31
0.0
  0
LINE
  5
F2
330
17
100
AcDbEntity
  8
A-WALL
100
AcDbLine
 10
3.2250000000000014
 20
-2.425000762939451
 30
0.0
 11
3.2250000000000014
 21
-5.925000762939451
 31
0.0
  0
LINE
  5
F3
330
17
100
AcDbEntity
  8
A-WALL
100
AcDbLine
 10
4.425000000000001
 20
-2.5250007629394524
 30
0.0
 11
4.425000000000001
 21
-3.325000762939453
 31
0.0
  0
LINE
  5
F4
330
17
100
AcDbEntity
  8
A-WALL
100
AcDbLine
 10
2.075000000000003
 20
-5.975000762939452
 30
0.0
 11
2.075000000000003
 21
-3.2750007629394524
 31
0.0
  0
LINE
  5
F5
330
17
100
AcDbEntity
  8
A-WALL
100
AcDbLine
 10
16.375
 20
-3.325000762939453
 30
0.0
 11
16.375
 21
-4.275000762939452
 31
0.0
  0
LINE
  5
F6
330
17
100
AcDbEntity
  8
A-WALL
100
AcDbLine
 10
1.5750000000000028
 20
-3.2750007629394524
 30
0.0
 11
1.5750000000000028
 21
-5.925000762939451
 31
0.0
  0
LINE
  5
F7
330
17
100
AcDbEntity
  8
A-WALL
100
AcDbLine
 10
0.8250000000000028
 20
-5.725000762939452
 30
0.0
 11
0.8250000000000028
 21
-3.7250007629394517
 31
0.0
  0
LINE
  5
F8
330
17
100
AcDbEntity
  8
A-WALL
100
AcDbLine
 10
3.6750000000000007
 20
-3.825000762939453
 30
0.0
 11
3.6750000000000007
 21
-5.925000762939451
 31
0.0
  0
LINE
  5
F9
330
17
100
AcDbEntity
  8
A-WALL
100
AcDbLine
 10
16.475
 20
-5.075000762939453
 30
0.0
 11
16.475
 21
-4.625000762939454
 31
0.0
  0
LINE
  5
FA
330
17
100
AcDbEntity
  8
A-WALL
100
AcDbLine
 10
16.475
 20
-7.725000762939452
 30
0.0
 11
16.475
 21
-7.375000762939452
 31
0.0
  0
LINE
  5
FB
330
17
100
AcDbEntity
  8
A-WALL
100
AcDbLine
 10
16.475
 20
-6.675000762939452
 30
0.0
 11
16.475
 21
-6.225000762939452
 31
0.0
  0
LINE
  5
FC
330
17
100
AcDbEntity
  8
A-WALL
100
AcDbLine
 10
16.475
 20
-5.2750007629394515
 30
0.0
 11
16.475
 21
-4.425000762939451
 31
0.0
  0
LINE
  5
FD
330
17
100
AcDbEntity
  8
A-WALL
100
AcDbLine
 10
-22.625
 20
-4.625000762939454
 30
0.0
 11
-22.625
 21
-5.225000762939452
 31
0.0
  0
LINE
  5
FE
330
17
100
AcDbEntity
  8
A-WALL
100
AcDbLine
 10
-12.825
 20
-6.275000762939452
 30
0.0
 11
-12.825
 21
-5.625000762939454
 31
0.0
  0
LINE
  5
FF
330
17
100
AcDbEntity
  8
A-WALL
100
AcDbLine
 10
1.2750000000000021
 20
-5.925000762939451
 30
0.0
 11
0.9750000000000014
 21
-5.575000762939453
 31
0.0
  0
LINE
  5
100
330
17
100
AcDbEntity
  8
A-WALL
100
AcDbLine
 10
3.9750000000000014
 20
-5.275000762939452
 30
0.0
 11
3.9750000000000014
 21
-5.975000762939452
 31
0.0
  0
LINE
  5
101
330
17
100
AcDbEntity
  8
A-WALL
100
AcDbLine
 10
0.4250000000000007
 20
-6.175000762939451
 30
0.0
 11
3.4250000000000007
 21
-6.175000762939451
 31
0.0
  0
LINE
  5
102
330
17
100
AcDbEntity
  8
A-WALL
100
AcDbLine
 10
-13.024999999999999
 20
-5.725000762939452
 30
0.0
 11
-13.174999999999999
 21
-5.275000762939452
 31
0.0
  0
LINE
  5
103
330
17
100
AcDbEntity
  8
A-WALL
100
AcDbLine
 10
2.9750000000000014
 20
-5.925000762939451
 30
0.0
 11
2.9750000000000014
 21
-3.7750007629394524
 31
0.0
  0
LINE
  5
104
330
17
100
AcDbEntity
  8
A-WALL
100
AcDbLine
 10
2.2250000000000014
 20
-5.975000762939452
 30
0.0
 11
2.375
 21
-5.125000762939454
 31
0.0
  0
LINE
  5
105
330
17
100
AcDbEntity
  8
A-WALL
100
AcDbLine
 10
4.275000000000002
 20
-5.975000762939452
 30
0.0
 11
6.475000000000002
 21
-5.975000762939452
 31
0.0
  0
LINE
  5
106
330
17
100
AcDbEntity
  8
A-WALL
100
AcDbLine
 10
8.975000000000001
 20
-5.975000762939452
 30
0.0
 11
9.425000000000004
 21
-5.975000762939452
 31
0.0
  0
LINE
  5
107
330
17
100
AcDbEntity
  8
A-WALL
100
AcDbLine
 10
-16.525
 20
-5.525000762939452
 30
0.0
 11
-16.875
 21
-5.175000762939451
 31
0.0
  0
LINE
  5
108
330
17
100
AcDbEntity
  8
A-WALL
100
AcDbLine
 10
-11.174999999999999
 20
-6.825000762939453
 30
0.0
 11
-11.625
 21
-6.925000762939453
 31
0.0
  0
LINE
  5
109
330
17
100
AcDbEntity
  8
A-WALL
100
AcDbLine
 10
0.9750000000000014
 20
-6.575000762939453
 30
0.0
 11
1.5750000000000028
 21
-6.575000762939453
 31
0.0
  0
LINE
  5
10A
330
17
100
AcDbEntity
  8
A-WALL
100
AcDbLine
 10
-14.424999999999999
 20
-6.675000762939453
 30
0.0
 11
-14.875
 21
-6.675000762939453
 31
0.0
  0
LINE
  5
10B
330
17
100
AcDbEntity
  8
A-WALL
100
AcDbLine
 10
-13.825
 20
-6.125000762939454
 30
0.0
 11
-14.325
 21
-6.125000762939454
 31
0.0
  0
LINE
  5
10C
330
17
100
AcDbEntity
  8
A-WALL
100
AcDbLine
 10
-8.024999999999999
 20
-1.9750007629394517
 30
0.0
 11
-8.024999999999999
 21
-1.4750007629394517
 31
0.0
  0
LINE
  5
10D
330
17
100
AcDbEntity
  8
A-WALL
100
AcDbLine
 10
-7.625
 20
-7.675000762939453
 30
0.0
 11
-7.774999999999999
 21
-7.125000762939452
 31
0.0
  0
LINE
  5
10E
330
17
100
AcDbEntity
  8
A-WALL
100
AcDbLine
 10
-9.924999999999999
 20
-7.025000762939452
 30
0.0
 11
-9.924999999999999
 21
-9.925000762939453
 31
0.0
  0
LINE
  5
10F
330
17
100
AcDbEntity
  8
A-WALL
100
AcDbLine
 10
-9.375
 20
-7.075000762939453
 30
0.0
 11
-10.075
 21
-7.075000762939453
 31
0.0
  0
LINE
  5
110
330
17
100
AcDbEntity
  8
A-WALL
100
AcDbLine
 10
1.5250000000000021
 20
-9.275000762939452
 30
0.0
 11
1.5250000000000021
 21
-6.725000762939452
 31
0.0
  0
LINE
  5
111
330
17
100
AcDbEntity
  8
A-WALL
100
AcDbLine
 10
-7.324999999999999
 20
-7.175000762939453
 30
0.0
 11
-7.324999999999999
 21
-10.175000762939453
 31
0.0
  0
LINE
  5
112
330
17
100
AcDbEntity
  8
A-WALL
100
AcDbLine
 10
-9.024999999999999
 20
-10.125000762939452
 30
0.0
 11
-9.024999999999999
 21
-7.025000762939452
 31
0.0
  0
LINE
  5
113
330
17
100
AcDbEntity
  8
A-WALL
100
AcDbLine
 10
16.425000000000004
 20
-8.775000762939452
 30
0.0
 11
16.425000000000004
 21
-7.475000762939453
 31
0.0
  0
LINE
  5
114
330
17
100
AcDbEntity
  8
A-WALL
100
AcDbLine
 10
16.425000000000004
 20
-6.675000762939453
 30
0.0
 11
16.425000000000004
 21
-6.475000762939452
 31
0.0
  0
LINE
  5
115
330
17
100
AcDbEntity
  8
A-WALL
100
AcDbLine
 10
-10.325
 20
-7.075000762939453
 30
0.0
 11
-10.325
 21
-8.725000762939453
 31
0.0
  0
LINE
  5
116
330
17
100
AcDbEntity
  8
A-WALL
100
AcDbLine
 10
-8.325
 20
-8.425000762939453
 30
0.0
 11
-8.325
 21
-7.425000762939453
 31
0.0
  0
LINE
  5
117
330
17
100
AcDbEntity
  8
A-WALL
100
AcDbLine
 10
16.925000000000004
 20
-8.875000762939452
 30
0.0
 11
16.925000000000004
 21
-8.175000762939453
 31
0.0
  0
LINE
  5
118
330
17
100
AcDbEntity
  8
A-WALL
100
AcDbLine
 10
4.025000000000002
 20
-7.325000762939453
 30
0.0
 11
4.025000000000002
 21
-6.725000762939452
 31
0.0
  0
LINE
  5
119
330
17
100
AcDbEntity
  8
A-WALL
100
AcDbLine
 10
2.075000000000003
 20
-9.375000762939452
 30
0.0
 11
3.025000000000002
 21
-9.375000762939452
 31
0.0
  0
LINE
  5
11A
330
17
100
AcDbEntity
  8
A-WALL
100
AcDbLine
 10
2.4750000000000014
 20
-7.175000762939453
 30
0.0
 11
2.375
 21
-6.725000762939452
 31
0.0
  0
LINE
  5
11B
330
17
100
AcDbEntity
  8
A-WALL
100
AcDbLine
 10
1.4250000000000007
 20
-9.675000762939453
 30
0.0
 11
2.575000000000003
 21
-10.025000762939452
 31
0.0
  0
LINE
  5
11C
330
17
100
AcDbEntity
  8
A-WALL
100
AcDbLine
 10
0.1750000000000007
 20
-9.475000762939452
 30
0.0
 11
1.1750000000000007
 21
-9.675000762939453
 31
0.0
  0
LINE
  5
11D
330
17
100
AcDbEntity
  8
A-WALL
100
AcDbLine
 10
16.925000000000004
 20
-9.175000762939453
 30
0.0
 11
16.825000000000003
 21
-8.775000762939452
 31
0.0
  0
LINE
  5
11E
330
17
100
AcDbEntity
  8
A-WALL
100
AcDbLine
 10
3.4750000000000014
 20
-9.525000762939452
 30
0.0
 11
2.025000000000002
 21
-9.525000762939452
 31
0.0
  0
LINE
  5
11F
330
17
100
AcDbEntity
  8
A-WALL
100
AcDbLine
 10
0.27500000000000213
 20
-9.575000762939453
 30
0.0
 11
1.5750000000000028
 21
-9.575000762939453
 31
0.0
  0
LINE
  5
120
330
17
100
AcDbEntity
  8
A-WALL
100
AcDbLine
 10
0.375
 20
-9.575000762939453
 30
0.0
 11
0.875
 21
-9.575000762939453
 31
0.0
  0
LINE
  5
121
330
17
100
AcDbEntity
  8
A-WALL
100
AcDbLine
 10
6.575000000000003
 20
-9.125000762939452
 30
0.0
 11
6.575000000000003
 21
-8.525000762939452
 31
0.0
  0
LINE
  5
122
330
17
100
AcDbEntity
  8
A-WALL
100
AcDbLine
 10
9.675000000000004
 20
-9.425000762939453
 30
0.0
 11
8.025000000000004
 21
-9.425000762939453
 31
0.0
  0
LINE
  5
123
330
17
100
AcDbEntity
  8
A-WALL
100
AcDbLine
 10
-7.824999999999999
 20
-9.475000762939452
 30
0.0
 11
-7.824999999999999
 21
-8.675000762939453
 31
0.0
  0
LINE
  5
124
330
17
100
AcDbEntity
  8
A-WALL
100
AcDbLine
 10
-7.625
 20
-9.925000762939453
 30
0.0
 11
-7.875
 21
-8.875000762939452
 31
0.0
  0
LINE
  5
125
330
17
100
AcDbEntity
  8
A-WALL
100
AcDbLine
 10
-9.774999999999999
 20
-9.625000762939452
 30
0.0
 11
-10.274999999999999
 21
-9.775000762939452
 31
0.0
  0
LINE
  5
126
330
17
100
AcDbEntity
  8
A-WALL
100
AcDbLine
 10
-7.625
 20
-9.775000762939452
 30
0.0
 11
-8.675
 21
-9.775000762939452
 31
0.0
  0
LINE
  5
127
330
17
100
AcDbEntity
  8
A-WALL
100
AcDbLine
 10
-13.924999999999999
 20
-9.525000762939452
 30
0.0
 11
-13.924999999999999
 21
-9.075000762939453
 31
0.0
  0
LINE
  5
128
330
17
100
AcDbEntity
  8
A-WALL
100
AcDbLine
 10
8.975000000000001
 20
-7.575000762939453
 30
0.0
 11
8.975000000000001
 21
-7.625000762939453
 31
0.0
  0
LINE
  5
129
330
17
100
AcDbEntity
  8
A-WALL
100
AcDbLine
 10
8.975000000000001
 20
-9.375000762939454
 30
0.0
 11
8.975000000000001
 21
-9.475000762939452
 31
0.0
  0
LINE
  5
12A
330
17
100
AcDbEntity
  8
A-WALL
100
AcDbLine
 10
-7.224999999999998
 20
-9.775000762939452
 30
0.0
 11
-8.274999999999999
 21
-9.775000762939452
 31
0.0
  0
LINE
  5
12B
330
17
100
AcDbEntity
  8
A-WALL
100
AcDbLine
 10
-8.225
 20
-7.225000762939452
 30
0.0
 11
-8.225
 21
-10.075000762939453
 31
0.0
  0
LINE
  5
12C
330
17
100
AcDbEntity
  8
A-WALL
100
AcDbLine
 10
-10.325
 20
-9.675000762939453
 30
0.0
 11
-10.774999999999999
 21
-9.675000762939453
 31
0.0
  0
LINE
  5
12D
330
17
100
AcDbEntity
  8
A-WALL
100
AcDbLine
 10
-10.825
 20
-9.625000762939452
 30
0.0
 11
-11.325
 21
-9.725000762939452
 31
0.0
  0
LINE
  5
12E
330
17
100
AcDbEntity
  8
A-WALL
100
AcDbLine
 10
-13.924999999999999
 20
-8.975000762939452
 30
0.0
 11
-13.924999999999999
 21
-9.475000762939452
 31
0.0
  0
LINE
  5
12F
330
17
100
AcDbEntity
  8
A-WALL
100
AcDbLine
 10
17.025000000000006
 20
-1.425000762939451
 30
0.0
 11
18.175000000000004
 21
-1.425000762939451
 31
0.0
  0
LINE
  5
130
330
17
100
AcDbEntity
  8
A-WALL
100
AcDbLine
 10
16.375
 20
-2.075000762939453
 30
0.0
 11
16.375
 21
-3.4750007629394517
 31
0.0
  0
LINE
  5
131
330
17
100
AcDbEntity
  8
A-WALL
100
AcDbLine
 10
-10.924999999999999
 20
-9.975000762939452
 30
0.0
 11
-11.024999999999999
 21
-9.575000762939453
 31
0.0
  0
LINE
  5
132
330
17
100
AcDbEntity
  8
A-WALL
100
AcDbLine
 10
-21.025
 20
-2.575000762939453
 30
0.0
 11
-21.025
 21
-1.9750007629394517
 31
0.0
  0
LINE
  5
133
330
17
100
AcDbEntity
  8
A-WALL
100
AcDbLine
 10
-19.325
 20
-1.8750007629394503
 30
0.0
 11
-19.325
 21
-2.325000762939453
 31
0.0
  0
LINE
  5
134
330
17
100
AcDbEntity
  8
A-WALL
100
AcDbLine
 10
-16.875
 20
-1.5750007629394531
 30
0.0
 11
-16.525
 21
-1.2250007629394517
 31
0.0
  0
LINE
  5
135
330
17
100
AcDbEntity
  8
A-WALL
100
AcDbLine
 10
-17.075
 20
9.324999237060549
 30
0.0
 11
-17.425
 21
8.974999237060548
 31
0.0
  0
LINE
  5
136
330
17
100
AcDbEntity
  8
A-WALL
100
AcDbLine
 10
-20.275
 20
6.424999237060547
 30
0.0
 11
-20.975
 21
6.424999237060547
 31
0.0
  0
LINE
  5
137
330
17
100
AcDbEntity
  8
A-WALL
100
AcDbLine
 10
1.5250000000000021
 20
-9.675000762939453
 30
0.0
 11
1.4250000000000007
 21
-10.225000762939452
 31
0.0
  0
LINE
  5
138
330
17
100
AcDbEntity
  8
A-WALL
100
AcDbLine
 10
0.6750000000000007
 20
-10.275000762939452
 30
0.0
 11
0.6750000000000007
 21
-9.675000762939453
 31
0.0
  0
LINE
  5
139
330
17
100
AcDbEntity
  8
A-WALL
100
AcDbLine
 10
2.275000000000002
 20
-9.725000762939452
 30
0.0
 11
2.1750000000000007
 21
-10.125000762939452
 31
0.0
  0
LINE
  5
13A
330
17
100
AcDbEntity
  8
A-WALL
100
AcDbLine
 10
2.7250000000000014
 20
-9.825000762939453
 30
0.0
 11
4.275000000000001
 21
-9.825000762939453
 31
0.0
  0
LINE
  5
13B
330
17
100
AcDbEntity
  8
A-WALL
100
AcDbLine
 10
-13.274999999999999
 20
-11.125000762939452
 30
0.0
 11
-12.375
 21
-11.375000762939452
 31
0.0
  0
LINE
  5
13C
330
17
100
AcDbEntity
  8
A-WALL
100
AcDbLine
 10
-11.524999999999999
 20
-11.025000762939452
 30
0.0
 11
-14.325
 21
-11.025000762939452
 31
0.0
  0
LINE
  5
13D
330
17
100
AcDbEntity
  8
A-WALL
100
AcDbLine
 10
-13.325
 20
-10.825000762939453
 30
0.0
 11
-13.325
 21
-11.675000762939453
 31
0.0
  0
LINE
  5
13E
330
17
100
AcDbEntity
  8
A-WALL
100
AcDbLine
 10
-11.524999999999999
 20
-10.875000762939452
 30
0.0
 11
-11.674999999999999
 21
-11.325000762939453
 31
0.0
  0
LINE
  5
13F
330
17
100
AcDbEntity
  8
A-WALL
100
AcDbLine
 10
-13.975
 20
-10.825000762939453
 30
0.0
 11
-14.075
 21
-11.375000762939452
 31
0.0
  0
LINE
  5
140
330
17
100
AcDbEntity
  8
A-WALL
100
AcDbLine
 10
-14.325
 20
-10.975000762939452
 30
0.0
 11
-13.625
 21
-11.175000762939453
 31
0.0
  0
LINE
  5
141
330
17
100
AcDbEntity
  8
A-WALL
100
AcDbLine
 10
-15.525
 20
-11.225000762939452
 30
0.0
 11
-14.575
 21
-11.225000762939452
 31
0.0
  0
LINE
  5
142
330
17
100
AcDbEntity
  8
A-WALL
100
AcDbLine
 10
-12.975
 20
-11.475000762939452
 30
0.0
 11
-13.075
 21
-11.475000762939452
 31
0.0
  0
LINE
  5
143
330
17
100
AcDbEntity
  8
A-WALL
100
AcDbLine
 10
-11.875
 20
-11.175000762939453
 30
0.0
 11
-12.325
 21
-11.175000762939453
 31
0.0
  0
LINE
  5
144
330
17
100
AcDbEntity
  8
A-WALL
100
AcDbLine
 10
-12.424999999999999
 20
-11.475000762939452
 30
0.0
 11
-12.924999999999999
 21
-11.625000762939452
 31
0.0
  0
LINE
  5
145
330
17
100
AcDbEntity
  8
A-WALL
100
AcDbLine
 10
-14.775
 20
-10.975000762939452
 30
0.0
 11
-14.775
 21
-11.125000762939452
 31
0.0
  0
LINE
  5
146
330
17
100
AcDbEntity
  8
A-WALL
100
AcDbLine
 10
-14.775
 20
-14.275000762939452
 30
0.0
 11
-14.775
 21
-15.725000762939452
 31
0.0
  0
LINE
  5
147
330
17
100
AcDbEntity
  8
A-WALL
100
AcDbLine
 10
-15.625
 20
-14.725000762939452
 30
0.0
 11
-15.625
 21
-14.275000762939452
 31
0.0
  0
LINE
  5
148
330
17
100
AcDbEntity
  8
A-WALL
100
AcDbLine
 10
-15.975
 20
-11.325000762939453
 30
0.0
 11
-15.075
 21
-11.325000762939453
 31
0.0
  0
LINE
  5
149
330
17
100
AcDbEntity
  8
A-WALL
100
AcDbLine
 10
-12.875
 20
-11.975000762939452
 30
0.0
 11
-12.975
 21
-11.525000762939452
 31
0.0
  0
LINE
  5
14A
330
17
100
AcDbEntity
  8
A-WALL
100
AcDbLine
 10
-13.424999999999999
 20
-11.825000762939453
 30
0.0
 11
-13.924999999999999
 21
-11.975000762939452
 31
0.0
  0
LINE
  5
14B
330
17
100
AcDbEntity
  8
A-WALL
100
AcDbLine
 10
-11.825
 20
-14.275000762939452
 30
0.0
 11
-11.825
 21
-14.525000762939452
 31
0.0
  0
LINE
  5
14C
330
17
100
AcDbEntity
  8
A-WALL
100
AcDbLine
 10
-16.175
 20
-13.425000762939453
 30
0.0
 11
-15.774999999999999
 21
-13.325000762939453
 31
0.0
  0
LINE
  5
14D
330
17
100
AcDbEntity
  8
A-WALL
100
AcDbLine
 10
-15.075
 20
-13.375000762939452
 30
0.0
 11
-15.024999999999999
 21
-13.375000762939452
 31
0.0
  0
LINE
  5
14E
330
17
100
AcDbEntity
  8
A-WALL
100
AcDbLine
 10
-15.125
 20
-13.625000762939452
 30
0.0
 11
-15.625
 21
-13.725000762939453
 31
0.0
  0
LINE
  5
14F
330
17
100
AcDbEntity
  8
A-WALL
100
AcDbLine
 10
-15.325
 20
-12.975000762939452
 30
0.0
 11
-15.325
 21
-14.325000762939453
 31
0.0
  0
LINE
  5
150
330
17
100
AcDbEntity
  8
A-WALL
100
AcDbLine
 10
-15.625
 20
-13.125000762939452
 30
0.0
 11
-15.625
 21
-13.525000762939452
 31
0.0
  0
LINE
  5
151
330
17
100
AcDbEntity
  8
A-WALL
100
AcDbLine
 10
-12.125
 20
-14.375000762939452
 30
0.0
 11
-14.275
 21
-14.375000762939452
 31
0.0
  0
LINE
  5
152
330
17
100
AcDbEntity
  8
A-WALL
100
AcDbLine
 10
-15.025
 20
-13.975000762939453
 30
0.0
 11
-15.125
 21
-13.975000762939453
 31
0.0
  0
LINE
  5
153
330
17
100
AcDbEntity
  8
A-WALL
100
AcDbLine
 10
-14.024999999999999
 20
-13.975000762939453
 30
0.0
 11
-14.525
 21
-14.075000762939453
 31
0.0
  0
LINE
  5
154
330
17
100
AcDbEntity
  8
A-WALL
100
AcDbLine
 10
-15.024999999999999
 20
-14.025000762939452
 30
0.0
 11
-15.075
 21
-14.025000762939452
 31
0.0
  0
LINE
  5
155
330
17
100
AcDbEntity
  8
A-WALL
100
AcDbLine
 10
-15.825
 20
-13.675000762939453
 30
0.0
 11
-15.325
 21
-13.825000762939453
 31
0.0
  0
LINE
  5
156
330
17
100
AcDbEntity
  8
A-WALL
100
AcDbLine
 10
-15.675
 20
-13.575000762939453
 30
0.0
 11
-15.825
 21
-14.125000762939452
 31
0.0
  0
LINE
  5
157
330
17
100
AcDbEntity
  8
A-WALL
100
AcDbLine
 10
-15.175
 20
-14.025000762939452
 30
0.0
 11
-14.875
 21
-14.025000762939452
 31
0.0
  0
LINE
  5
158
330
17
100
AcDbEntity
  8
A-WALL
100
AcDbLine
 10
-11.674999999999999
 20
-13.775000762939452
 30
0.0
 11
-11.875
 21
-14.325000762939453
 31
0.0
  0
LINE
  5
159
330
17
100
AcDbEntity
  8
A-WALL
100
AcDbLine
 10
-13.725
 20
-13.775000762939452
 30
0.0
 11
-13.725
 21
-14.325000762939453
 31
0.0
  0
LINE
  5
15A
330
17
100
AcDbEntity
  8
A-WALL
100
AcDbLine
 10
-14.625
 20
-13.775000762939452
 30
0.0
 11
-14.625
 21
-14.275000762939452
 31
0.0
  0
LINE
  5
15B
330
17
100
AcDbEntity
  8
A-WALL
100
AcDbLine
 10
-12.825
 20
-13.925000762939453
 30
0.0
 11
-12.375
 21
-14.025000762939452
 31
0.0
  0
LINE
  5
15C
330
17
100
AcDbEntity
  8
A-WALL
100
AcDbLine
 10
-15.025
 20
-13.975000762939453
 30
0.0
 11
-15.025
 21
-14.425000762939453
 31
0.0
  0
LINE
  5
15D
330
17
100
AcDbEntity
  8
A-WALL
100
AcDbLine
 10
-12.524999999999999
 20
-14.475000762939453
 30
0.0
 11
-12.625
 21
-13.975000762939453
 31
0.0
  0
LINE
  5
15E
330
17
100
AcDbEntity
  8
A-WALL
100
AcDbLine
 10
-15.625
 20
-14.525000762939452
 30
0.0
 11
-15.725
 21
-14.125000762939452
 31
0.0
  0
LINE
  5
15F
330
17
100
AcDbEntity
  8
A-WALL
100
AcDbLine
 10
-11.375
 20
-14.525000762939452
 30
0.0
 11
-11.924999999999999
 21
-14.625000762939454
 31
0.0
  0
LINE
  5
160
330
17
100
AcDbEntity
  8
A-WALL
100
AcDbLine
 10
-14.875
 20
-15.125000762939454
 30
0.0
 11
-14.325
 21
-15.025000762939452
 31
0.0
  0
LINE
  5
161
330
17
100
AcDbEntity
  8
A-WALL
100
AcDbLine
 10
-13.674999999999999
 20
-15.825000762939453
 30
0.0
 11
-14.125
 21
-15.725000762939452
 31
0.0
  0
LINE
  5
162
330
17
100
AcDbEntity
  8
A-WALL
100
AcDbLine
 10
-14.674999999999999
 20
-15.675000762939453
 30
0.0
 11
-14.674999999999999
 21
-14.775000762939452
 31
0.0
  0
LINE
  5
163
330
17
100
AcDbEntity
  8
A-WALL
100
AcDbLine
 10
-12.475
 20
-16.025000762939452
 30
0.0
 11
-13.174999999999999
 21
-15.825000762939453
 31
0.0
  0
LINE
  5
164
330
17
100
AcDbEntity
  8
A-WALL
100
AcDbLine
 10
-12.375
 20
-15.675000762939453
 30
0.0
 11
-13.375
 21
-15.675000762939453
 31
0.0
  0
LINE
  5
165
330
17
100
AcDbEntity
  8
A-WALL
100
AcDbLine
 10
-13.274999999999999
 20
-16.22500076293945
 30
0.0
 11
-13.274999999999999
 21
-15.425000762939453
 31
0.0
  0
LINE
  5
166
330
17
100
AcDbEntity
  8
A-WALL
100
AcDbLine
 10
-14.024999999999999
 20
-15.375000762939454
 30
0.0
 11
-14.275
 21
-16.425000762939455
 31
0.0
  0
LINE
  5
167
330
17
100
AcDbEntity
  8
A-WALL
100
AcDbLine
 10
-14.125
 20
-16.025000762939452
 30
0.0
 11
-16.275
 21
-16.025000762939452
 31
0.0
  0
LINE
  5
168
330
17
100
AcDbEntity
  8
A-WALL
100
AcDbLine
 10
-15.325
 20
-14.725000762939452
 30
0.0
 11
-15.325
 21
-16.47500076293945
 31
0.0
  0
LINE
  5
169
330
17
100
AcDbEntity
  8
A-WALL
100
AcDbLine
 10
-14.575
 20
-15.675000762939453
 30
0.0
 11
-16.275
 21
-15.675000762939453
 31
0.0
  0
LINE
  5
16A
330
17
100
AcDbEntity
  8
A-WALL
100
AcDbLine
 10
-15.575
 20
-15.925000762939451
 30
0.0
 11
-15.575
 21
-15.475000762939452
 31
0.0
  0
LINE
  5
16B
330
17
100
AcDbEntity
  8
A-WALL
100
AcDbLine
 10
-11.674999999999999
 20
-15.825000762939453
 30
0.0
 11
-12.725
 21
-16.075000762939453
 31
0.0
  0
LINE
  5
16C
330
17
100
AcDbEntity
  8
A-WALL
100
AcDbLine
 10
-13.024999999999999
 20
-15.975000762939452
 30
0.0
 11
-13.875
 21
-15.975000762939452
 31
0.0
  0
LINE
  5
16D
330
17
100
AcDbEntity
  8
A-WALL
100
AcDbLine
 10
-11.725
 20
-16.025000762939452
 30
0.0
 11
-11.725
 21
-16.47500076293945
 31
0.0
  0
LINE
  5
16E
330
17
100
AcDbEntity
  8
A-WALL
100
AcDbLine
 10
-14.075
 20
-16.97500076293945
 30
0.0
 11
-14.075
 21
-17.47500076293945
 31
0.0
  0
LINE
  5
16F
330
17
100
AcDbEntity
  8
A-WALL
100
AcDbLine
 10
-11.375
 20
-15.525000762939452
 30
0.0
 11
-11.375
 21
-16.825000762939453
 31
0.0
  0
LINE
  5
170
330
17
100
AcDbEntity
  8
A-WALL
100
AcDbLine
 10
-11.375
 20
-16.675000762939455
 30
0.0
 11
-12.625
 21
-16.675000762939455
 31
0.0
  0
LINE
  5
171
330
17
100
AcDbEntity
  8
A-WALL
100
AcDbLine
 10
-13.075
 20
-16.72500076293945
 30
0.0
 11
-14.075
 21
-16.72500076293945
 31
0.0
  0
LINE
  5
172
330
17
100
AcDbEntity
  8
A-WALL
100
AcDbLine
 10
-16.225
 20
-16.72500076293945
 30
0.0
 11
-16.275
 21
-16.72500076293945
 31
0.0
  0
LINE
  5
173
330
17
100
AcDbEntity
  8
A-WALL
100
AcDbLine
 10
-14.875
 20
-16.875000762939454
 30
0.0
 11
-15.325
 21
-16.875000762939454
 31
0.0
  0
LINE
  5
174
330
17
100
AcDbEntity
  8
A-WALL
100
AcDbLine
 10
-16.375
 20
-17.075000762939453
 30
0.0
 11
-15.925
 21
-17.175000762939455
 31
0.0
  0
LINE
  5
175
330
17
100
AcDbEntity
  8
A-WALL
100
AcDbLine
 10
-12.924999999999999
 20
-16.325000762939453
 30
0.0
 11
-12.924999999999999
 21
-16.825000762939453
 31
0.0
  0
LINE
  5
176
330
17
100
AcDbEntity
  8
A-WALL
100
AcDbLine
 10
-13.024999999999999
 20
-16.875000762939454
 30
0.0
 11
-13.024999999999999
 21
-16.325000762939453
 31
0.0
  0
LINE
  5
177
330
17
100
AcDbEntity
  8
A-WALL
100
AcDbLine
 10
-14.625
 20
-16.775000762939452
 30
0.0
 11
-14.625
 21
-17.22500076293945
 31
0.0
  0
LINE
  5
178
330
17
100
AcDbEntity
  8
A-WALL
100
AcDbLine
 10
-15.025
 20
-17.72500076293945
 30
0.0
 11
-15.025
 21
-18.72500076293945
 31
0.0
  0
LINE
  5
179
330
17
100
AcDbEntity
  8
A-WALL
100
AcDbLine
 10
-14.375
 20
-17.375000762939454
 30
0.0
 11
-15.325
 21
-17.375000762939454
 31
0.0
  0
LINE
  5
17A
330
17
100
AcDbEntity
  8
A-WALL
100
AcDbLine
 10
-15.575
 20
-17.625000762939454
 30
0.0
 11
-16.275
 21
-17.625000762939454
 31
0.0
  0
LINE
  5
17B
330
17
100
AcDbEntity
  8
A-WALL
100
AcDbLine
 10
-11.825
 20
-17.575000762939453
 30
0.0
 11
-13.325
 21
-17.575000762939453
 31
0.0
  0
LINE
  5
17C
330
17
100
AcDbEntity
  8
A-WALL
100
AcDbLine
 10
-15.424999999999999
 20
-17.275000762939452
 30
0.0
 11
-15.424999999999999
 21
-17.825000762939453
 31
0.0
  0
LINE
  5
17D
330
17
100
AcDbEntity
  8
A-WALL
100
AcDbLine
 10
-12.375
 20
-17.775000762939452
 30
0.0
 11
-12.825
 21
-17.775000762939452
 31
0.0
  0
LINE
  5
17E
330
17
100
AcDbEntity
  8
A-WALL
100
AcDbLine
 10
-12.524999999999999
 20
-18.775000762939452
 30
0.0
 11
-12.524999999999999
 21
-17.525000762939452
 31
0.0
  0
LINE
  5
17F
330
17
100
AcDbEntity
  8
A-WALL
100
AcDbLine
 10
-13.575
 20
-17.425000762939455
 30
0.0
 11
-13.774999999999999
 21
-17.97500076293945
 31
0.0
  0
LINE
  5
180
330
17
100
AcDbEntity
  8
A-WALL
100
AcDbLine
 10
-14.225
 20
-18.075000762939453
 30
0.0
 11
-15.125
 21
-18.075000762939453
 31
0.0
  0
LINE
  5
181
330
17
100
AcDbEntity
  8
A-WALL
100
AcDbLine
 10
-16.125
 20
-18.625000762939454
 30
0.0
 11
-16.125
 21
-18.325000762939453
 31
0.0
  0
LINE
  5
182
330
17
100
AcDbEntity
  8
A-WALL
100
AcDbLine
 10
-16.125
 20
-17.525000762939452
 30
0.0
 11
-16.125
 21
-17.47500076293945
 31
0.0
  0
LINE
  5
183
330
17
100
AcDbEntity
  8
A-WALL
100
AcDbLine
 10
-11.725
 20
-17.525000762939452
 30
0.0
 11
-11.725
 21
-18.025000762939452
 31
0.0
  0
LINE
  5
184
330
17
100
AcDbEntity
  8
A-WALL
100
AcDbLine
 10
-12.475
 20
-18.575000762939453
 30
0.0
 11
-13.375
 21
-18.575000762939453
 31
0.0
  0
LINE
  5
185
330
17
100
AcDbEntity
  8
A-WALL
100
AcDbLine
 10
-12.575
 20
-17.825000762939453
 30
0.0
 11
-12.575
 21
-18.72500076293945
 31
0.0
  0
LINE
  5
186
330
17
100
AcDbEntity
  8
A-WALL
100
AcDbLine
 10
-13.075
 20
-18.575000762939453
 30
0.0
 11
-12.625
 21
-18.575000762939453
 31
0.0
  0
LINE
  5
187
330
17
100
AcDbEntity
  8
A-WALL
100
AcDbLine
 10
-14.575
 20
-18.375000762939454
 30
0.0
 11
-14.475
 21
-17.875000762939454
 31
0.0
  0
LINE
  5
188
330
17
100
AcDbEntity
  8
A-WALL
100
AcDbLine
 10
-12.424999999999999
 20
-18.72500076293945
 30
0.0
 11
-12.524999999999999
 21
-18.275000762939452
 31
0.0
  0
LINE
  5
189
330
17
100
AcDbEntity
  8
A-WALL
100
AcDbLine
 10
-16.025
 20
-18.325000762939453
 30
0.0
 11
-16.025
 21
-19.22500076293945
 31
0.0
  0
LINE
  5
18A
330
17
100
AcDbEntity
  8
A-WALL
100
AcDbLine
 10
-15.825
 20
-19.025000762939452
 30
0.0
 11
-15.125
 21
-19.025000762939452
 31
0.0
  0
LINE
  5
18B
330
17
100
AcDbEntity
  8
A-WALL
100
AcDbLine
 10
-14.424999999999999
 20
-18.675000762939455
 30
0.0
 11
-14.525
 21
-18.22500076293945
 31
0.0
  0
LINE
  5
18C
330
17
100
AcDbEntity
  8
A-WALL
100
AcDbLine
 10
-20.775
 20
-18.22500076293945
 30
0.0
 11
-21.875
 21
-18.22500076293945
 31
0.0
  0
LINE
  5
18D
330
17
100
AcDbEntity
  8
A-WALL
100
AcDbLine
 10
-20.025
 20
-17.075000762939453
 30
0.0
 11
-21.875
 21
-17.075000762939453
 31
0.0
  0
LINE
  5
18E
330
17
100
AcDbEntity
  8
A-WALL
100
AcDbLine
 10
-20.025
 20
-16.375000762939454
 30
0.0
 11
-21.875
 21
-16.375000762939454
 31
0.0
  0
LINE
  5
18F
330
17
100
AcDbEntity
  8
A-WALL
100
AcDbLine
 10
-10.225
 20
-19.925000762939455
 30
0.0
 11
-11.774999999999999
 21
-19.925000762939455
 31
0.0
  0
LINE
  5
190
330
17
100
AcDbEntity
  8
A-WALL
100
AcDbLine
 10
-10.375
 20
-19.875000762939454
 30
0.0
 11
-11.875
 21
-19.875000762939454
 31
0.0
  0
LINE
  5
191
330
17
100
AcDbEntity
  8
A-WALL
100
AcDbLine
 10
-10.825
 20
-20.575000762939453
 30
0.0
 11
-10.575
 21
-19.525000762939452
 31
0.0
  0
LINE
  5
192
330
17
100
AcDbEntity
  8
A-WALL
100
AcDbLine
 10
-11.225
 20
-19.47500076293945
 30
0.0
 11
-11.225
 21
-19.97500076293945
 31
0.0
  0
LINE
  5
193
330
17
100
AcDbEntity
  8
A-WALL
100
AcDbLine
 10
-11.225
 20
-20.175000762939455
 30
0.0
 11
-10.225
 21
-20.375000762939454
 31
0.0
  0
LINE
  5
194
330
17
100
AcDbEntity
  8
A-WALL
100
AcDbLine
 10
-12.575
 20
-19.72500076293945
 30
0.0
 11
-13.125
 21
-19.72500076293945
 31
0.0
  0
LINE
  5
195
330
17
100
AcDbEntity
  8
A-WALL
100
AcDbLine
 10
-14.024999999999999
 20
-19.72500076293945
 30
0.0
 11
-14.575
 21
-19.72500076293945
 31
0.0
  0
LINE
  5
196
330
17
100
AcDbEntity
  8
A-WALL
100
AcDbLine
 10
-14.325
 20
-19.925000762939455
 30
0.0
 11
-15.075
 21
-19.925000762939455
 31
0.0
  0
LINE
  5
197
330
17
100
AcDbEntity
  8
A-WALL
100
AcDbLine
 10
-15.875
 20
-19.925000762939455
 30
0.0
 11
-16.125
 21
-19.925000762939455
 31
0.0
  0
LINE
  5
198
330
17
100
AcDbEntity
  8
A-WALL
100
AcDbLine
 10
-15.475
 20
-19.325000762939453
 30
0.0
 11
-15.475
 21
-19.375000762939454
 31
0.0
  0
LINE
  5
199
330
17
100
AcDbEntity
  8
A-WALL
100
AcDbLine
 10
-15.475
 20
-20.425000762939455
 30
0.0
 11
-15.475
 21
-20.72500076293945
 31
0.0
  0
LINE
  5
19A
330
17
100
AcDbEntity
  8
A-WALL
100
AcDbLine
 10
-15.475
 20
-21.925000762939455
 30
0.0
 11
-15.475
 21
-21.97500076293945
 31
0.0
  0
LINE
  5
19B
330
17
100
AcDbEntity
  8
A-WALL
100
AcDbLine
 10
-15.225
 20
-19.775000762939452
 30
0.0
 11
-15.225
 21
-19.275000762939452
 31
0.0
  0
LINE
  5
19C
330
17
100
AcDbEntity
  8
A-WALL
100
AcDbLine
 10
-10.325
 20
-19.47500076293945
 30
0.0
 11
-10.325
 21
-19.97500076293945
 31
0.0
  0
LINE
  5
19D
330
17
100
AcDbEntity
  8
A-WALL
100
AcDbLine
 10
-11.325
 20
-20.075000762939453
 30
0.0
 11
-10.825
 21
-20.075000762939453
 31
0.0
  0
LINE
  5
19E
330
17
100
AcDbEntity
  8
A-WALL
100
AcDbLine
 10
-14.674999999999999
 20
-20.325000762939453
 30
0.0
 11
-14.525
 21
-19.825000762939453
 31
0.0
  0
LINE
  5
19F
330
17
100
AcDbEntity
  8
A-WALL
100
AcDbLine
 10
-15.225
 20
-19.775000762939452
 30
0.0
 11
-15.225
 21
-20.22500076293945
 31
0.0
  0
LINE
  5
1A0
330
17
100
AcDbEntity
  8
A-WALL
100
AcDbLine
 10
-14.174999999999999
 20
-19.72500076293945
 30
0.0
 11
-14.174999999999999
 21
-20.47500076293945
 31
0.0
  0
LINE
  5
1A1
330
17
100
AcDbEntity
  8
A-WALL
100
AcDbLine
 10
-11.424999999999999
 20
-20.175000762939455
 30
0.0
 11
-11.875
 21
-20.175000762939455
 31
0.0
  0
LINE
  5
1A2
330
17
100
AcDbEntity
  8
A-WALL
100
AcDbLine
 10
-15.825
 20
-20.375000762939454
 30
0.0
 11
-17.775
 21
-20.375000762939454
 31
0.0
  0
LINE
  5
1A3
330
17
100
AcDbEntity
  8
A-WALL
100
AcDbLine
 10
-14.625
 20
-20.875000762939454
 30
0.0
 11
-12.625
 21
-20.875000762939454
 31
0.0
  0
LINE
  5
1A4
330
17
100
AcDbEntity
  8
A-WALL
100
AcDbLine
 10
-14.775
 20
-20.72500076293945
 30
0.0
 11
-15.825
 21
-20.72500076293945
 31
0.0
  0
LINE
  5
1A5
330
17
100
AcDbEntity
  8
A-WALL
100
AcDbLine
 10
-14.825
 20
-20.875000762939454
 30
0.0
 11
-15.575
 21
-20.875000762939454
 31
0.0
  0
LINE
  5
1A6
330
17
100
AcDbEntity
  8
A-WALL
100
AcDbLine
 10
-15.925
 20
-20.575000762939453
 30
0.0
 11
-16.425
 21
-20.575000762939453
 31
0.0
  0
LINE
  5
1A7
330
17
100
AcDbEntity
  8
A-WALL
100
AcDbLine
 10
-15.275
 20
-20.275000762939452
 30
0.0
 11
-15.275
 21
-21.275000762939452
 31
0.0
  0
LINE
  5
1A8
330
17
100
AcDbEntity
  8
A-WALL
100
AcDbLine
 10
-10.424999999999999
 20
-20.97500076293945
 30
0.0
 11
-10.875
 21
-20.97500076293945
 31
0.0
  0
LINE
  5
1A9
330
17
100
AcDbEntity
  8
A-WALL
100
AcDbLine
 10
-14.725
 20
-20.47500076293945
 30
0.0
 11
-14.875
 21
-21.22500076293945
 31
0.0
  0
LINE
  5
1AA
330
17
100
AcDbEntity
  8
A-WALL
100
AcDbLine
 10
-15.725
 20
-21.97500076293945
 30
0.0
 11
-15.725
 21
-20.72500076293945
 31
0.0
  0
LINE
  5
1AB
330
17
100
AcDbEntity
  8
A-WALL
100
AcDbLine
 10
-16.625
 20
-20.625000762939454
 30
0.0
 11
-16.175
 21
-21.22500076293945
 31
0.0
  0
LINE
  5
1AC
330
17
100
AcDbEntity
  8
A-WALL
100
AcDbLine
 10
-10.674999999999999
 20
-21.275000762939452
 30
0.0
 11
-10.575
 21
-21.825000762939453
 31
0.0
  0
LINE
  5
1AD
330
17
100
AcDbEntity
  8
A-WALL
100
AcDbLine
 10
-15.424999999999999
 20
-21.025000762939452
 30
0.0
 11
-15.424999999999999
 21
-21.47500076293945
 31
0.0
  0
LINE
  5
1AE
330
17
100
AcDbEntity
  8
A-WALL
100
AcDbLine
 10
-9.825
 20
-21.72500076293945
 30
0.0
 11
-10.125
 21
-21.22500076293945
 31
0.0
  0
LINE
  5
1AF
330
17
100
AcDbEntity
  8
A-WALL
100
AcDbLine
 10
-11.674999999999999
 20
-21.775000762939452
 30
0.0
 11
-13.225
 21
-21.775000762939452
 31
0.0
  0
LINE
  5
1B0
330
17
100
AcDbEntity
  8
A-WALL
100
AcDbLine
 10
-12.774999999999999
 20
-21.22500076293945
 30
0.0
 11
-12.774999999999999
 21
-22.025000762939452
 31
0.0
  0
LINE
  5
1B1
330
17
100
AcDbEntity
  8
A-WALL
100
AcDbLine
 10
-14.075
 20
-21.72500076293945
 30
0.0
 11
-15.825
 21
-21.72500076293945
 31
0.0
  0
LINE
  5
1B2
330
17
100
AcDbEntity
  8
A-WALL
100
AcDbLine
 10
-14.875
 20
-21.97500076293945
 30
0.0
 11
-14.875
 21
-21.325000762939453
 31
0.0
  0
LINE
  5
1B3
330
17
100
AcDbEntity
  8
A-WALL
100
AcDbLine
 10
-15.125
 20
-21.47500076293945
 30
0.0
 11
-15.625
 21
-21.47500076293945
 31
0.0
  0
LINE
  5
1B4
330
17
100
AcDbEntity
  8
A-WALL
100
AcDbLine
 10
-12.674999999999999
 20
-19.575000762939453
 30
0.0
 11
-12.225
 21
-19.925000762939455
 31
0.0
  0
LINE
  5
1B5
330
17
100
AcDbEntity
  8
A-WALL
100
AcDbLine
 10
-13.475
 20
-21.72500076293945
 30
0.0
 11
-13.375
 21
-21.275000762939452
 31
0.0
  0
LINE
  5
1B6
330
17
100
AcDbEntity
  8
A-WALL
100
AcDbLine
 10
-10.075
 20
-21.625000762939454
 30
0.0
 11
-10.225
 21
-22.125000762939454
 31
0.0
  0
LINE
  5
1B7
330
17
100
AcDbEntity
  8
A-WALL
100
AcDbLine
 10
-12.375
 20
-21.925000762939455
 30
0.0
 11
-13.125
 21
-21.925000762939455
 31
0.0
  0
LINE
  5
1B8
330
17
100
AcDbEntity
  8
A-WALL
100
AcDbLine
 10
-12.375
 20
-21.775000762939452
 30
0.0
 11
-12.825
 21
-21.775000762939452
 31
0.0
  0
LINE
  5
1B9
330
17
100
AcDbEntity
  8
A-WALL
100
AcDbLine
 10
-10.125
 20
-22.375000762939454
 30
0.0
 11
-10.575
 21
-22.375000762939454
 31
0.0
  0
LINE
  5
1BA
330
17
100
AcDbEntity
  8
A-WALL
100
AcDbLine
 10
-22.525
 20
-20.125000762939454
 30
0.0
 11
-23.025
 21
-20.125000762939454
 31
0.0
  0
LINE
  5
1BB
330
17
100
AcDbEntity
  8
A-WALL
100
AcDbLine
 10
1.625
 20
16.37499923706055
 30
0.0
 11
0.875
 21
15.674999237060547
 31
0.0
  0
LINE
  5
1BC
330
17
100
AcDbEntity
  8
A-WALL
100
AcDbLine
 10
-15.075
 20
15.674999237060547
 30
0.0
 11
-14.775
 21
15.974999237060551
 31
0.0
  0
LINE
  5
1BD
330
17
100
AcDbEntity
  8
A-WALL
100
AcDbLine
 10
1.375
 20
14.974999237060551
 30
0.0
 11
2.075000000000003
 21
15.674999237060547
 31
0.0
  0
LINE
  5
1BE
330
17
100
AcDbEntity
  8
A-WALL
100
AcDbLine
 10
-12.325
 20
15.724999237060551
 30
0.0
 11
-12.774999999999999
 21
16.12499923706055
 31
0.0
  0
LINE
  5
1BF
330
17
100
AcDbEntity
  8
A-WALL
100
AcDbLine
 10
-11.875
 20
15.474999237060551
 30
0.0
 11
-11.325
 21
14.924999237060547
 31
0.0
  0
LINE
  5
1C0
330
17
100
AcDbEntity
  8
A-WALL
100
AcDbLine
 10
-14.825
 20
14.37499923706055
 30
0.0
 11
-13.924999999999999
 21
15.224999237060551
 31
0.0
  0
LINE
  5
1C1
330
17
100
AcDbEntity
  8
A-WALL
100
AcDbLine
 10
-14.275
 20
14.974999237060551
 30
0.0
 11
-13.924999999999999
 21
15.37499923706055
 31
0.0
  0
LINE
  5
1C2
330
17
100
AcDbEntity
  8
A-WALL
100
AcDbLine
 10
-14.325
 20
15.87499923706055
 30
0.0
 11
-14.575
 21
15.474999237060551
 31
0.0
  0
LINE
  5
1C3
330
17
100
AcDbEntity
  8
A-WALL
100
AcDbLine
 10
-14.575
 20
14.474999237060551
 30
0.0
 11
-14.575
 21
15.474999237060551
 31
0.0
  0
LINE
  5
1C4
330
17
100
AcDbEntity
  8
A-WALL
100
AcDbLine
 10
-16.525
 20
14.62499923706055
 30
0.0
 11
-15.575
 21
15.474999237060551
 31
0.0
  0
LINE
  5
1C5
330
17
100
AcDbEntity
  8
A-WALL
100
AcDbLine
 10
-16.375
 20
16.12499923706055
 30
0.0
 11
-16.775
 21
15.724999237060551
 31
0.0
  0
LINE
  5
1C6
330
17
100
AcDbEntity
  8
A-WALL
100
AcDbLine
 10
-16.775
 20
15.474999237060551
 30
0.0
 11
-17.275
 21
14.974999237060551
 31
0.0
  0
LINE
  5
1C7
330
17
100
AcDbEntity
  8
A-WALL
100
AcDbLine
 10
-13.924999999999999
 20
14.37499923706055
 30
0.0
 11
-13.575
 21
14.724999237060551
 31
0.0
  0
LINE
  5
1C8
330
17
100
AcDbEntity
  8
A-WALL
100
AcDbLine
 10
-12.924999999999999
 20
15.474999237060551
 30
0.0
 11
-13.274999999999999
 21
15.724999237060551
 31
0.0
  0
LINE
  5
1C9
330
17
100
AcDbEntity
  8
A-WALL
100
AcDbLine
 10
16.675000000000004
 20
14.224999237060551
 30
0.0
 11
17.575000000000003
 21
14.474999237060551
 31
0.0
  0
LINE
  5
1CA
330
17
100
AcDbEntity
  8
A-WALL
100
AcDbLine
 10
1.4750000000000014
 20
15.724999237060551
 30
0.0
 11
1.125
 21
15.37499923706055
 31
0.0
  0
LINE
  5
1CB
330
17
100
AcDbEntity
  8
A-WALL
100
AcDbLine
 10
4.125
 20
14.674999237060547
 30
0.0
 11
4.025000000000002
 21
14.224999237060551
 31
0.0
  0
LINE
  5
1CC
330
17
100
AcDbEntity
  8
A-WALL
100
AcDbLine
 10
4.075000000000003
 20
14.674999237060547
 30
0.0
 11
4.075000000000003
 21
15.174999237060547
 31
0.0
  0
LINE
  5
1CD
330
17
100
AcDbEntity
  8
A-WALL
100
AcDbLine
 10
4.075000000000003
 20
15.174999237060547
 30
0.0
 11
4.175000000000001
 21
15.724999237060551
 31
0.0
  0
LINE
  5
1CE
330
17
100
AcDbEntity
  8
A-WALL
100
AcDbLine
 10
2.575000000000003
 20
13.724999237060551
 30
0.0
 11
2.575000000000003
 21
15.974999237060551
 31
0.0
  0
LINE
  5
1CF
330
17
100
AcDbEntity
  8
A-WALL
100
AcDbLine
 10
-12.924999999999999
 20
14.174999237060547
 30
0.0
 11
-12.575
 21
13.724999237060551
 31
0.0
  0
LINE
  5
1D0
330
17
100
AcDbEntity
  8
A-WALL
100
AcDbLine
 10
-13.075
 20
13.974999237060551
 30
0.0
 11
-12.774999999999999
 21
13.674999237060547
 31
0.0
  0
LINE
  5
1D1
330
17
100
AcDbEntity
  8
A-WALL
100
AcDbLine
 10
6.925000000000001
 20
14.724999237060551
 30
0.0
 11
7.025000000000002
 21
15.224999237060551
 31
0.0
  0
LINE
  5
1D2
330
17
100
AcDbEntity
  8
A-WALL
100
AcDbLine
 10
6.575000000000003
 20
13.924999237060547
 30
0.0
 11
6.575000000000003
 21
13.474999237060551
 31
0.0
  0
LINE
  5
1D3
330
17
100
AcDbEntity
  8
A-WALL
100
AcDbLine
 10
6.225000000000001
 20
13.974999237060551
 30
0.0
 11
6.325000000000003
 21
13.474999237060551
 31
0.0
  0
LINE
  5
1D4
330
17
100
AcDbEntity
  8
A-WALL
100
AcDbLine
 10
5.925000000000001
 20
14.224999237060551
 30
0.0
 11
6.025000000000002
 21
14.724999237060551
 31
0.0
  0
LINE
  5
1D5
330
17
100
AcDbEntity
  8
A-WALL
100
AcDbLine
 10
-15.825
 20
13.974999237060551
 30
0.0
 11
-15.825
 21
13.37499923706055
 31
0.0
  0
LINE
  5
1D6
330
17
100
AcDbEntity
  8
A-WALL
100
AcDbLine
 10
-16.575
 20
14.224999237060551
 30
0.0
 11
-16.575
 21
13.274999237060552
 31
0.0
  0
LINE
  5
1D7
330
17
100
AcDbEntity
  8
A-WALL
100
AcDbLine
 10
-16.575
 20
12.474999237060551
 30
0.0
 11
-16.575
 21
9.474999237060551
 31
0.0
  0
LINE
  5
1D8
330
17
100
AcDbEntity
  8
A-WALL
100
AcDbLine
 10
1.875
 20
12.974999237060551
 30
0.0
 11
2.9750000000000014
 21
12.974999237060551
 31
0.0
  0
LINE
  5
1D9
330
17
100
AcDbEntity
  8
A-WALL
100
AcDbLine
 10
1.5750000000000028
 20
13.12499923706055
 30
0.0
 11
2.075000000000003
 21
12.724999237060551
 31
0.0
  0
LINE
  5
1DA
330
17
100
AcDbEntity
  8
A-WALL
100
AcDbLine
 10
-9.575
 20
12.724999237060551
 30
0.0
 11
-9.875
 21
13.12499923706055
 31
0.0
  0
LINE
  5
1DB
330
17
100
AcDbEntity
  8
A-WALL
100
AcDbLine
 10
-16.525
 20
11.674999237060547
 30
0.0
 11
-15.825
 21
12.37499923706055
 31
0.0
  0
LINE
  5
1DC
330
17
100
AcDbEntity
  8
A-WALL
100
AcDbLine
 10
-15.774999999999999
 20
12.974999237060551
 30
0.0
 11
-16.125
 21
13.224999237060551
 31
0.0
  0
LINE
  5
1DD
330
17
100
AcDbEntity
  8
A-WALL
100
AcDbLine
 10
-12.875
 20
11.474999237060551
 30
0.0
 11
-12.524999999999999
 21
11.724999237060551
 31
0.0
  0
LINE
  5
1DE
330
17
100
AcDbEntity
  8
A-WALL
100
AcDbLine
 10
-16.125
 20
11.12499923706055
 30
0.0
 11
-15.325
 21
11.87499923706055
 31
0.0
  0
LINE
  5
1DF
330
17
100
AcDbEntity
  8
A-WALL
100
AcDbLine
 10
-15.774999999999999
 20
10.974999237060551
 30
0.0
 11
-15.075
 21
11.724999237060551
 31
0.0
  0
LINE
  5
1E0
330
17
100
AcDbEntity
  8
A-WALL
100
AcDbLine
 10
1.625
 20
10.724999237060551
 30
0.0
 11
2.075000000000003
 21
11.224999237060551
 31
0.0
  0
LINE
  5
1E1
330
17
100
AcDbEntity
  8
A-WALL
100
AcDbLine
 10
-15.525
 20
10.974999237060551
 30
0.0
 11
-15.025
 21
11.474999237060551
 31
0.0
  0
LINE
  5
1E2
330
17
100
AcDbEntity
  8
A-WALL
100
AcDbLine
 10
-11.325
 20
11.224999237060551
 30
0.0
 11
-11.024999999999999
 21
10.924999237060547
 31
0.0
  0
LINE
  5
1E3
330
17
100
AcDbEntity
  8
A-WALL
100
AcDbLine
 10
-14.924999999999999
 20
10.474999237060551
 30
0.0
 11
-13.075
 21
10.474999237060551
 31
0.0
  0
LINE
  5
1E4
330
17
100
AcDbEntity
  8
A-WALL
100
AcDbLine
 10
16.925000000000004
 20
14.474999237060551
 30
0.0
 11
17.275000000000006
 21
14.174999237060547
 31
0.0
  0
LINE
  5
1E5
330
17
100
AcDbEntity
  8
A-WALL
100
AcDbLine
 10
18.125
 20
10.674999237060547
 30
0.0
 11
18.925000000000004
 21
10.674999237060547
 31
0.0
  0
LINE
  5
1E6
330
17
100
AcDbEntity
  8
A-WALL
100
AcDbLine
 10
16.025000000000006
 20
16.47499923706055
 30
0.0
 11
12.925000000000004
 21
16.47499923706055
 31
0.0
  0
LINE
  5
1E7
330
17
100
AcDbEntity
  8
A-WALL
100
AcDbLine
 10
12.925000000000004
 20
16.52499923706055
 30
0.0
 11
12.075000000000003
 21
16.52499923706055
 31
0.0
  0
LINE
  5
1E8
330
17
100
AcDbEntity
  8
A-WALL
100
AcDbLine
 10
12.075000000000003
 20
16.574999237060553
 30
0.0
 11
10.175000000000004
 21
16.574999237060553
 31
0.0
  0
LINE
  5
1E9
330
17
100
AcDbEntity
  8
A-WALL
100
AcDbLine
 10
18.175000000000004
 20
10.12499923706055
 30
0.0
 11
17.875
 21
10.424999237060547
 31
0.0
  0
LINE
  5
1EA
330
17
100
AcDbEntity
  8
A-WALL
100
AcDbLine
 10
5.075000000000003
 20
9.274999237060548
 30
0.0
 11
5.075000000000003
 21
8.474999237060548
 31
0.0
  0
LINE
  5
1EB
330
17
100
AcDbEntity
  8
A-WALL
100
AcDbLine
 10
7.025000000000002
 20
8.62499923706055
 30
0.0
 11
6.725000000000001
 21
8.224999237060548
 31
0.0
  0
LINE
  5
1EC
330
17
100
AcDbEntity
  8
A-WALL
100
AcDbLine
 10
17.175000000000004
 20
8.224999237060548
 30
0.0
 11
17.425000000000004
 21
7.824999237060549
 31
0.0
  0
LINE
  5
1ED
330
17
100
AcDbEntity
  8
A-WALL
100
AcDbLine
 10
10.175000000000004
 20
8.674999237060547
 30
0.0
 11
10.175000000000004
 21
9.12499923706055
 31
0.0
  0
LINE
  5
1EE
330
17
100
AcDbEntity
  8
A-WALL
100
AcDbLine
 10
10.125
 20
9.12499923706055
 30
0.0
 11
9.675000000000004
 21
9.474999237060551
 31
0.0
  0
LINE
  5
1EF
330
17
100
AcDbEntity
  8
A-WALL
100
AcDbLine
 10
9.675000000000004
 20
9.474999237060551
 30
0.0
 11
9.175000000000004
 21
9.474999237060551
 31
0.0
  0
LINE
  5
1F0
330
17
100
AcDbEntity
  8
A-WALL
100
AcDbLine
 10
8.425000000000004
 20
9.37499923706055
 30
0.0
 11
8.925000000000004
 21
9.474999237060551
 31
0.0
  0
LINE
  5
1F1
330
17
100
AcDbEntity
  8
A-WALL
100
AcDbLine
 10
5.875
 20
9.274999237060548
 30
0.0
 11
6.225000000000001
 21
8.974999237060548
 31
0.0
  0
LINE
  5
1F2
330
17
100
AcDbEntity
  8
A-WALL
100
AcDbLine
 10
9.625
 20
7.824999237060549
 30
0.0
 11
9.925000000000004
 21
8.224999237060548
 31
0.0
  0
LINE
  5
1F3
330
17
100
AcDbEntity
  8
A-WALL
100
AcDbLine
 10
-14.424999999999999
 20
7.924999237060547
 30
0.0
 11
-14.125
 21
7.62499923706055
 31
0.0
  0
LINE
  5
1F4
330
17
100
AcDbEntity
  8
A-WALL
100
AcDbLine
 10
16.775000000000006
 20
6.974999237060548
 30
0.0
 11
17.375
 21
6.62499923706055
 31
0.0
  0
LINE
  5
1F5
330
17
100
AcDbEntity
  8
A-WALL
100
AcDbLine
 10
-13.125
 20
6.724999237060548
 30
0.0
 11
-12.625
 21
7.074999237060549
 31
0.0
  0
LINE
  5
1F6
330
17
100
AcDbEntity
  8
A-WALL
100
AcDbLine
 10
-13.325
 20
6.774999237060548
 30
0.0
 11
-13.825
 21
6.524999237060548
 31
0.0
  0
LINE
  5
1F7
330
17
100
AcDbEntity
  8
A-WALL
100
AcDbLine
 10
5.475000000000001
 20
7.12499923706055
 30
0.0
 11
5.275000000000002
 21
7.724999237060548
 31
0.0
  0
LINE
  5
1F8
330
17
100
AcDbEntity
  8
A-WALL
100
AcDbLine
 10
17.925000000000004
 20
6.824999237060549
 30
0.0
 11
19.425000000000004
 21
6.824999237060549
 31
0.0
  0
LINE
  5
1F9
330
17
100
AcDbEntity
  8
A-WALL
100
AcDbLine
 10
5.375
 20
6.274999237060548
 30
0.0
 11
4.675000000000001
 21
5.724999237060548
 31
0.0
  0
LINE
  5
1FA
330
17
100
AcDbEntity
  8
A-WALL
100
AcDbLine
 10
5.225000000000001
 20
6.62499923706055
 30
0.0
 11
4.875
 21
6.274999237060548
 31
0.0
  0
LINE
  5
1FB
330
17
100
AcDbEntity
  8
A-WALL
100
AcDbLine
 10
-13.325
 20
5.824999237060549
 30
0.0
 11
-13.825
 21
5.524999237060548
 31
0.0
  0
LINE
  5
1FC
330
17
100
AcDbEntity
  8
A-WALL
100
AcDbLine
 10
-12.825
 20
5.724999237060548
 30
0.0
 11
-13.075
 21
5.12499923706055
 31
0.0
  0
LINE
  5
1FD
330
17
100
AcDbEntity
  8
A-WALL
100
AcDbLine
 10
-14.325
 20
4.974999237060548
 30
0.0
 11
-13.625
 21
4.524999237060548
 31
0.0
  0
LINE
  5
1FE
330
17
100
AcDbEntity
  8
A-WALL
100
AcDbLine
 10
-16.525
 20
5.324999237060549
 30
0.0
 11
-16.025
 21
4.824999237060549
 31
0.0
  0
LINE
  5
1FF
330
17
100
AcDbEntity
  8
A-WALL
100
AcDbLine
 10
4.625
 20
4.274999237060548
 30
0.0
 11
4.925000000000001
 21
3.8749992370605497
 31
0.0
  0
LINE
  5
200
330
17
100
AcDbEntity
  8
A-WALL
100
AcDbLine
 10
7.725000000000001
 20
4.12499923706055
 30
0.0
 11
8.225000000000001
 21
4.024999237060548
 31
0.0
  0
LINE
  5
201
330
17
100
AcDbEntity
  8
A-WALL
100
AcDbLine
 10
8.225000000000001
 20
4.024999237060548
 30
0.0
 11
8.675000000000004
 21
4.12499923706055
 31
0.0
  0
LINE
  5
202
330
17
100
AcDbEntity
  8
A-WALL
100
AcDbLine
 10
7.325000000000003
 20
2.824999237060549
 30
0.0
 11
7.775000000000002
 21
2.824999237060549
 31
0.0
  0
LINE
  5
203
330
17
100
AcDbEntity
  8
A-WALL
100
AcDbLine
 10
4.975000000000001
 20
2.674999237060547
 30
0.0
 11
4.325000000000003
 21
2.824999237060549
 31
0.0
  0
LINE
  5
204
330
17
100
AcDbEntity
  8
A-WALL
100
AcDbLine
 10
16.125
 20
1.4249992370605469
 30
0.0
 11
15.875
 21
1.824999237060549
 31
0.0
  0
LINE
  5
205
330
17
100
AcDbEntity
  8
A-WALL
100
AcDbLine
 10
15.875
 20
2.674999237060547
 30
0.0
 11
15.875
 21
2.074999237060549
 31
0.0
  0
LINE
  5
206
330
17
100
AcDbEntity
  8
A-WALL
100
AcDbLine
 10
17.275000000000006
 20
2.9749992370605476
 30
0.0
 11
17.925000000000004
 21
2.9749992370605476
 31
0.0
  0
LINE
  5
207
330
17
100
AcDbEntity
  8
A-WALL
100
AcDbLine
 10
17.275000000000006
 20
2.924999237060547
 30
0.0
 11
19.425000000000004
 21
2.924999237060547
 31
0.0
  0
LINE
  5
208
330
17
100
AcDbEntity
  8
A-WALL
100
AcDbLine
 10
19.925000000000004
 20
2.0249992370605483
 30
0.0
 11
19.575000000000003
 21
1.7749992370605483
 31
0.0
  0
LINE
  5
209
330
17
100
AcDbEntity
  8
A-WALL
100
AcDbLine
 10
19.075000000000003
 20
1.4249992370605469
 30
0.0
 11
19.075000000000003
 21
2.924999237060547
 31
0.0
  0
LINE
  5
20A
330
17
100
AcDbEntity
  8
A-WALL
100
AcDbLine
 10
9.175000000000004
 20
0.324999237060549
 30
0.0
 11
9.575000000000003
 21
0.6749992370605469
 31
0.0
  0
LINE
  5
20B
330
17
100
AcDbEntity
  8
A-WALL
100
AcDbLine
 10
9.075000000000003
 20
1.0249992370605483
 30
0.0
 11
8.675000000000004
 21
0.9249992370605469
 31
0.0
  0
LINE
  5
20C
330
17
100
AcDbEntity
  8
A-WALL
100
AcDbLine
 10
9.175000000000004
 20
1.4249992370605469
 30
0.0
 11
8.325000000000003
 21
1.4249992370605469
 31
0.0
  0
LINE
  5
20D
330
17
100
AcDbEntity
  8
A-WALL
100
AcDbLine
 10
8.125
 20
1.324999237060549
 30
0.0
 11
7.625
 21
1.324999237060549
 31
0.0
  0
LINE
  5
20E
330
17
100
AcDbEntity
  8
A-WALL
100
AcDbLine
 10
17.175000000000004
 20
8.274999237060548
 30
0.0
 11
17.825000000000003
 21
8.274999237060548
 31
0.0
  0
LINE
  5
20F
330
17
100
AcDbEntity
  8
A-WALL
100
AcDbLine
 10
18.825000000000003
 20
6.724999237060548
 30
0.0
 11
19.425000000000004
 21
6.724999237060548
 31
0.0
  0
LINE
  5
210
330
17
100
AcDbEntity
  8
A-WALL
100
AcDbLine
 10
5.425000000000001
 20
-0.675000762939451
 30
0.0
 11
9.575000000000001
 21
-0.675000762939451
 31
0.0
  0
LINE
  5
211
330
17
100
AcDbEntity
  8
A-WALL
100
AcDbLine
 10
15.975000000000001
 20
-0.675000762939451
 30
0.0
 11
16.425000000000004
 21
-0.675000762939451
 31
0.0
  0
LINE
  5
212
330
17
100
AcDbEntity
  8
A-WALL
100
AcDbLine
 10
16.525000000000006
 20
-0.3250007629394531
 30
0.0
 11
16.175000000000004
 21
0.074999237060549
 31
0.0
  0
LINE
  5
213
330
17
100
AcDbEntity
  8
A-WALL
100
AcDbLine
 10
17.125
 20
-0.07500076293945312
 30
0.0
 11
17.625
 21
-0.07500076293945312
 31
0.0
  0
LINE
  5
214
330
17
100
AcDbEntity
  8
A-WALL
100
AcDbLine
 10
17.375
 20
-0.07500076293945312
 30
0.0
 11
18.525000000000006
 21
0.17499923706054688
 31
0.0
  0
LINE
  5
215
330
17
100
AcDbEntity
  8
A-WALL
100
AcDbLine
 10
17.025000000000006
 20
-0.7250007629394517
 30
0.0
 11
16.175000000000004
 21
-1.425000762939451
 31
0.0
  0
LINE
  5
216
330
17
100
AcDbEntity
  8
A-WALL
100
AcDbLine
 10
-15.525
 20
-1.0750007629394531
 30
0.0
 11
-15.075
 21
-1.425000762939451
 31
0.0
  0
LINE
  5
217
330
17
100
AcDbEntity
  8
A-WALL
100
AcDbLine
 10
1.7750000000000021
 20
-1.0750007629394531
 30
0.0
 11
1.375
 21
-1.6250007629394503
 31
0.0
  0
LINE
  5
218
330
17
100
AcDbEntity
  8
A-WALL
100
AcDbLine
 10
-16.275
 20
-1.9750007629394517
 30
0.0
 11
-15.825
 21
-1.6250007629394503
 31
0.0
  0
LINE
  5
219
330
17
100
AcDbEntity
  8
A-WALL
100
AcDbLine
 10
9.425000000000004
 20
-0.8250007629394531
 30
0.0
 11
9.425000000000004
 21
-2.325000762939453
 31
0.0
  0
LINE
  5
21A
330
17
100
AcDbEntity
  8
A-WALL
100
AcDbLine
 10
-8.625
 20
-1.9750007629394517
 30
0.0
 11
-8.875
 21
-2.4750007629394517
 31
0.0
  0
LINE
  5
21B
330
17
100
AcDbEntity
  8
A-WALL
100
AcDbLine
 10
0.4750000000000014
 20
-3.075000762939453
 30
0.0
 11
1.0250000000000021
 21
-2.4750007629394517
 31
0.0
  0
LINE
  5
21C
330
17
100
AcDbEntity
  8
A-WALL
100
AcDbLine
 10
16.075000000000003
 20
-3.1250007629394503
 30
0.0
 11
16.425000000000004
 21
-2.825000762939453
 31
0.0
  0
LINE
  5
21D
330
17
100
AcDbEntity
  8
A-WALL
100
AcDbLine
 10
3.6750000000000007
 20
-3.1250007629394503
 30
0.0
 11
3.2250000000000014
 21
-3.3750007629394503
 31
0.0
  0
LINE
  5
21E
330
17
100
AcDbEntity
  8
A-WALL
100
AcDbLine
 10
3.9750000000000014
 20
-3.325000762939453
 30
0.0
 11
3.9750000000000014
 21
-2.4750007629394517
 31
0.0
  0
LINE
  5
21F
330
17
100
AcDbEntity
  8
A-WALL
100
AcDbLine
 10
-16.275
 20
-3.4750007629394517
 30
0.0
 11
-15.825
 21
-3.075000762939453
 31
0.0
  0
LINE
  5
220
330
17
100
AcDbEntity
  8
A-WALL
100
AcDbLine
 10
0.875
 20
-2.8750007629394503
 30
0.0
 11
0.7250000000000014
 21
-3.325000762939453
 31
0.0
  0
LINE
  5
221
330
17
100
AcDbEntity
  8
A-WALL
100
AcDbLine
 10
-11.424999999999999
 20
-3.675000762939451
 30
0.0
 11
-11.674999999999999
 21
-3.325000762939453
 31
0.0
  0
LINE
  5
222
330
17
100
AcDbEntity
  8
A-WALL
100
AcDbLine
 10
-11.625
 20
-4.925000762939451
 30
0.0
 11
-12.075
 21
-4.475000762939452
 31
0.0
  0
LINE
  5
223
330
17
100
AcDbEntity
  8
A-WALL
100
AcDbLine
 10
3.775000000000002
 20
-5.425000762939451
 30
0.0
 11
4.075000000000003
 21
-4.675000762939451
 31
0.0
  0
LINE
  5
224
330
17
100
AcDbEntity
  8
A-WALL
100
AcDbLine
 10
-20.525
 20
-4.725000762939452
 30
0.0
 11
-20.275
 21
-5.075000762939453
 31
0.0
  0
LINE
  5
225
330
17
100
AcDbEntity
  8
A-WALL
100
AcDbLine
 10
-17.525
 20
-3.675000762939451
 30
0.0
 11
-17.525
 21
-4.175000762939451
 31
0.0
  0
LINE
  5
226
330
17
100
AcDbEntity
  8
A-WALL
100
AcDbLine
 10
0.375
 20
-3.175000762939451
 30
0.0
 11
0.375
 21
-5.825000762939453
 31
0.0
  0
LINE
  5
227
330
17
100
AcDbEntity
  8
A-WALL
100
AcDbLine
 10
-12.024999999999999
 20
-5.475000762939452
 30
0.0
 11
-12.024999999999999
 21
-5.975000762939452
 31
0.0
  0
LINE
  5
228
330
17
100
AcDbEntity
  8
A-WALL
100
AcDbLine
 10
15.925000000000004
 20
-6.175000762939451
 30
0.0
 11
15.925000000000004
 21
-5.425000762939451
 31
0.0
  0
LINE
  5
229
330
17
100
AcDbEntity
  8
A-WALL
100
AcDbLine
 10
1.5750000000000028
 20
-6.425000762939451
 30
0.0
 11
1.875
 21
-6.775000762939452
 31
0.0
  0
LINE
  5
22A
330
17
100
AcDbEntity
  8
A-WALL
100
AcDbLine
 10
-7.625
 20
-1.425000762939451
 30
0.0
 11
-7.625
 21
-1.925000762939451
 31
0.0
  0
LINE
  5
22B
330
17
100
AcDbEntity
  8
A-WALL
100
AcDbLine
 10
-11.024999999999999
 20
-4.175000762939451
 30
0.0
 11
-11.024999999999999
 21
-4.675000762939451
 31
0.0
  0
LINE
  5
22C
330
17
100
AcDbEntity
  8
A-WALL
100
AcDbLine
 10
0.7250000000000014
 20
-6.725000762939452
 30
0.0
 11
0.125
 21
-6.325000762939453
 31
0.0
  0
LINE
  5
22D
330
17
100
AcDbEntity
  8
A-WALL
100
AcDbLine
 10
0.8250000000000028
 20
-6.425000762939451
 30
0.0
 11
1.2250000000000014
 21
-6.775000762939452
 31
0.0
  0
LINE
  5
22E
330
17
100
AcDbEntity
  8
A-WALL
100
AcDbLine
 10
-7.224999999999998
 20
-7.575000762939453
 30
0.0
 11
-7.125
 21
-7.075000762939453
 31
0.0
  0
LINE
  5
22F
330
17
100
AcDbEntity
  8
A-WALL
100
AcDbLine
 10
5.375
 20
-8.425000762939453
 30
0.0
 11
5.175000000000001
 21
-7.675000762939453
 31
0.0
  0
LINE
  5
230
330
17
100
AcDbEntity
  8
A-WALL
100
AcDbLine
 10
16.875
 20
-8.225000762939452
 30
0.0
 11
17.525000000000006
 21
-7.825000762939453
 31
0.0
  0
LINE
  5
231
330
17
100
AcDbEntity
  8
A-WALL
100
AcDbLine
 10
6.475000000000001
 20
-7.025000762939452
 30
0.0
 11
6.475000000000001
 21
-6.575000762939453
 31
0.0
  0
LINE
  5
232
330
17
100
AcDbEntity
  8
A-WALL
100
AcDbLine
 10
6.175000000000001
 20
-7.125000762939452
 30
0.0
 11
6.425000000000001
 21
-7.575000762939453
 31
0.0
  0
LINE
  5
233
330
17
100
AcDbEntity
  8
A-WALL
100
AcDbLine
 10
-20.275
 20
-7.675000762939453
 30
0.0
 11
-20.275
 21
-8.275000762939452
 31
0.0
  0
LINE
  5
234
330
17
100
AcDbEntity
  8
A-WALL
100
AcDbLine
 10
-8.325
 20
-7.275000762939452
 30
0.0
 11
-8.625
 21
-6.975000762939452
 31
0.0
  0
LINE
  5
235
330
17
100
AcDbEntity
  8
A-WALL
100
AcDbLine
 10
0.375
 20
-6.575000762939453
 30
0.0
 11
0.375
 21
-9.175000762939453
 31
0.0
  0
LINE
  5
236
330
17
100
AcDbEntity
  8
A-WALL
100
AcDbLine
 10
6.375000000000003
 20
-6.525000762939452
 30
0.0
 11
7.125000000000003
 21
-6.525000762939452
 31
0.0
  0
LINE
  5
237
330
17
100
AcDbEntity
  8
A-WALL
100
AcDbLine
 10
8.075000000000003
 20
-6.525000762939452
 30
0.0
 11
9.375
 21
-6.525000762939452
 31
0.0
  0
LINE
  5
238
330
17
100
AcDbEntity
  8
A-WALL
100
AcDbLine
 10
-13.125
 20
-7.575000762939453
 30
0.0
 11
-13.125
 21
-6.975000762939452
 31
0.0
  0
LINE
  5
239
330
17
100
AcDbEntity
  8
A-WALL
100
AcDbLine
 10
9.274999999999999
 20
-7.025000762939452
 30
0.0
 11
9.274999999999999
 21
-8.575000762939453
 31
0.0
  0
LINE
  5
23A
330
17
100
AcDbEntity
  8
A-WALL
100
AcDbLine
 10
9.274999999999999
 20
-9.375000762939452
 30
0.0
 11
9.274999999999999
 21
-9.475000762939452
 31
0.0
  0
LINE
  5
23B
330
17
100
AcDbEntity
  8
A-WALL
100
AcDbLine
 10
6.775000000000002
 20
-8.925000762939453
 30
0.0
 11
6.625
 21
-9.325000762939453
 31
0.0
  0
LINE
  5
23C
330
17
100
AcDbEntity
  8
A-WALL
100
AcDbLine
 10
-7.375
 20
-8.675000762939453
 30
0.0
 11
-7.474999999999998
 21
-9.075000762939453
 31
0.0
  0
LINE
  5
23D
330
17
100
AcDbEntity
  8
A-WALL
100
AcDbLine
 10
16.875
 20
-9.475000762939452
 30
0.0
 11
20.275000000000006
 21
-9.475000762939452
 31
0.0
  0
LINE
  5
23E
330
17
100
AcDbEntity
  8
A-WALL
100
AcDbLine
 10
17.375
 20
-4.975000762939452
 30
0.0
 11
18.425000000000004
 21
-4.975000762939452
 31
0.0
  0
LINE
  5
23F
330
17
100
AcDbEntity
  8
A-WALL
100
AcDbLine
 10
17.075000000000003
 20
-5.075000762939453
 30
0.0
 11
17.425000000000004
 21
-5.325000762939453
 31
0.0
  0
LINE
  5
240
330
17
100
AcDbEntity
  8
A-WALL
100
AcDbLine
 10
17.675000000000004
 20
-6.475000762939452
 30
0.0
 11
18.175000000000004
 21
-6.625000762939452
 31
0.0
  0
LINE
  5
241
330
17
100
AcDbEntity
  8
A-WALL
100
AcDbLine
 10
18.175000000000004
 20
-6.625000762939452
 30
0.0
 11
18.875
 21
-6.625000762939452
 31
0.0
  0
LINE
  5
242
330
17
100
AcDbEntity
  8
A-WALL
100
AcDbLine
 10
17.575000000000003
 20
-7.825000762939453
 30
0.0
 11
18.825000000000003
 21
-7.825000762939453
 31
0.0
  0
LINE
  5
243
330
17
100
AcDbEntity
  8
A-WALL
100
AcDbLine
 10
18.825000000000003
 20
-7.825000762939453
 30
0.0
 11
19.625
 21
-8.075000762939453
 31
0.0
  0
LINE
  5
244
330
17
100
AcDbEntity
  8
A-WALL
100
AcDbLine
 10
17.025000000000006
 20
-8.875000762939452
 30
0.0
 11
16.625
 21
-9.275000762939452
 31
0.0
  0
LINE
  5
245
330
17
100
AcDbEntity
  8
A-WALL
100
AcDbLine
 10
4.875
 20
-2.425000762939451
 30
0.0
 11
4.875
 21
-3.325000762939453
 31
0.0
  0
LINE
  5
246
330
17
100
AcDbEntity
  8
A-WALL
100
AcDbLine
 10
7.475000000000001
 20
-9.625000762939452
 30
0.0
 11
16.125
 21
-9.625000762939452
 31
0.0
  0
LINE
  5
247
330
17
100
AcDbEntity
  8
A-WALL
100
AcDbLine
 10
-7.175000000000001
 20
-7.575000762939453
 30
0.0
 11
-7.175000000000001
 21
-8.175000762939453
 31
0.0
  0
LINE
  5
248
330
17
100
AcDbEntity
  8
A-WALL
100
AcDbLine
 10
-20.375
 20
-8.325000762939453
 30
0.0
 11
-20.275
 21
-7.875000762939452
 31
0.0
  0
LINE
  5
249
330
17
100
AcDbEntity
  8
A-WALL
100
AcDbLine
 10
-23.625
 20
-5.825000762939453
 30
0.0
 11
-23.125
 21
-5.825000762939453
 31
0.0
  0
LINE
  5
24A
330
17
100
AcDbEntity
  8
A-WALL
100
AcDbLine
 10
-21.025
 20
-1.925000762939451
 30
0.0
 11
-20.625
 21
-1.5750007629394531
 31
0.0
  0
LINE
  5
24B
330
17
100
AcDbEntity
  8
A-WALL
100
AcDbLine
 10
-19.525
 20
-2.2250007629394517
 30
0.0
 11
-19.625
 21
-1.8250007629394531
 31
0.0
  0
LINE
  5
24C
330
17
100
AcDbEntity
  8
A-WALL
100
AcDbLine
 10
-16.625
 20
1.4249992370605469
 30
0.0
 11
-17.275
 21
1.4249992370605469
 31
0.0
  0
LINE
  5
24D
330
17
100
AcDbEntity
  8
A-WALL
100
AcDbLine
 10
-16.525
 20
10.62499923706055
 30
0.0
 11
-20.875
 21
10.62499923706055
 31
0.0
  0
LINE
  5
24E
330
17
100
AcDbEntity
  8
A-WALL
100
AcDbLine
 10
-20.275
 20
10.62499923706055
 30
0.0
 11
-20.275
 21
6.524999237060548
 31
0.0
  0
LINE
  5
24F
330
17
100
AcDbEntity
  8
A-WALL
100
AcDbLine
 10
-19.625
 20
6.37499923706055
 30
0.0
 11
-18.125
 21
7.87499923706055
 31
0.0
  0
LINE
  5
250
330
17
100
AcDbEntity
  8
A-WALL
100
AcDbLine
 10
-18.125
 20
7.87499923706055
 30
0.0
 11
-17.625
 21
7.87499923706055
 31
0.0
  0
LINE
  5
251
330
17
100
AcDbEntity
  8
A-WALL
100
AcDbLine
 10
-19.125
 20
6.87499923706055
 30
0.0
 11
-17.625
 21
6.87499923706055
 31
0.0
  0
LINE
  5
252
330
17
100
AcDbEntity
  8
A-WALL
100
AcDbLine
 10
-20.875
 20
6.424999237060547
 30
0.0
 11
-22.625
 21
8.074999237060549
 31
0.0
  0
LINE
  5
253
330
17
100
AcDbEntity
  8
A-WALL
100
AcDbLine
 10
-17.275
 20
14.974999237060551
 30
0.0
 11
-21.775
 21
14.974999237060551
 31
0.0
  0
LINE
  5
254
330
17
100
AcDbEntity
  8
A-WALL
100
AcDbLine
 10
-12.875
 20
10.724999237060551
 30
0.0
 11
-13.274999999999999
 21
10.474999237060551
 31
0.0
  0
LINE
  5
255
330
17
100
AcDbEntity
  8
A-WALL
100
AcDbLine
 10
-16.125
 20
11.12499923706055
 30
0.0
 11
-16.525
 21
10.974999237060551
 31
0.0
  0
LINE
  5
256
330
17
100
AcDbEntity
  8
A-WALL
100
AcDbLine
 10
-11.625
 20
5.62499923706055
 30
0.0
 11
-12.024999999999999
 21
5.37499923706055
 31
0.0
  0
LINE
  5
257
330
17
100
AcDbEntity
  8
A-WALL
100
AcDbLine
 10
-9.674999999999999
 20
-9.475000762939452
 30
0.0
 11
-8.875
 21
-9.475000762939452
 31
0.0
  0
LINE
  5
258
330
17
100
AcDbEntity
  8
A-WALL
100
AcDbLine
 10
-6.625
 20
-10.025000762939452
 30
0.0
 11
-6.625
 21
-7.075000762939453
 31
0.0
  0
LINE
  5
259
330
17
100
AcDbEntity
  8
A-WALL
100
AcDbLine
 10
-6.625
 20
-7.675000762939453
 30
0.0
 11
-6.724999999999998
 21
-7.125000762939452
 31
0.0
  0
LINE
  5
25A
330
17
100
AcDbEntity
  8
A-WALL
100
AcDbLine
 10
5.075000000000003
 20
1.4249992370605469
 30
0.0
 11
5.075000000000003
 21
2.1249992370605497
 31
0.0
  0
LINE
  5
25B
330
17
100
AcDbEntity
  8
A-WALL
100
AcDbLine
 10
4.025000000000002
 20
-10.225000762939452
 30
0.0
 11
3.4750000000000014
 21
-10.225000762939452
 31
0.0
  0
LINE
  5
25C
330
17
100
AcDbEntity
  8
A-WALL
100
AcDbLine
 10
-16.125
 20
-11.075000762939453
 30
0.0
 11
-15.575
 21
-11.625000762939452
 31
0.0
  0
LINE
  5
25D
330
17
100
AcDbEntity
  8
A-WALL
100
AcDbLine
 10
-11.325
 20
-14.575000762939453
 30
0.0
 11
-11.325
 21
-14.175000762939453
 31
0.0
  0
LINE
  5
25E
330
17
100
AcDbEntity
  8
A-WALL
100
AcDbLine
 10
-12.274999999999999
 20
-16.22500076293945
 30
0.0
 11
-11.875
 21
-16.47500076293945
 31
0.0
  0
LINE
  5
25F
330
17
100
AcDbEntity
  8
A-WALL
100
AcDbLine
 10
-13.774999999999999
 20
-17.22500076293945
 30
0.0
 11
-13.524999999999999
 21
-16.825000762939453
 31
0.0
  0
LINE
  5
260
330
17
100
AcDbEntity
  8
A-WALL
100
AcDbLine
 10
-15.875
 20
-16.97500076293945
 30
0.0
 11
-15.325
 21
-17.575000762939453
 31
0.0
  0
LINE
  5
261
330
17
100
AcDbEntity
  8
A-WALL
100
AcDbLine
 10
-13.274999999999999
 20
-18.22500076293945
 30
0.0
 11
-12.825
 21
-17.825000762939453
 31
0.0
  0
LINE
  5
262
330
17
100
AcDbEntity
  8
A-WALL
100
AcDbLine
 10
-11.825
 20
-17.825000762939453
 30
0.0
 11
-11.325
 21
-18.325000762939453
 31
0.0
  0
LINE
  5
263
330
17
100
AcDbEntity
  8
A-WALL
100
AcDbLine
 10
-15.125
 20
-17.97500076293945
 30
0.0
 11
-14.825
 21
-18.325000762939453
 31
0.0
  0
LINE
  5
264
330
17
100
AcDbEntity
  8
A-WALL
100
AcDbLine
 10
-15.325
 20
-18.575000762939453
 30
0.0
 11
-15.625
 21
-18.22500076293945
 31
0.0
  0
LINE
  5
265
330
17
100
AcDbEntity
  8
A-WALL
100
AcDbLine
 10
-21.525
 20
-18.72500076293945
 30
0.0
 11
-20.025
 21
-17.22500076293945
 31
0.0
  0
LINE
  5
266
330
17
100
AcDbEntity
  8
A-WALL
100
AcDbLine
 10
-21.375
 20
-18.575000762939453
 30
0.0
 11
-21.875
 21
-18.47500076293945
 31
0.0
  0
LINE
  5
267
330
17
100
AcDbEntity
  8
A-WALL
100
AcDbLine
 10
-19.875
 20
-14.475000762939453
 30
0.0
 11
-21.275
 21
-13.075000762939453
 31
0.0
  0
LINE
  5
268
330
17
100
AcDbEntity
  8
A-WALL
100
AcDbLine
 10
-21.275
 20
-13.075000762939453
 30
0.0
 11
-21.875
 21
-13.075000762939453
 31
0.0
  0
LINE
  5
269
330
17
100
AcDbEntity
  8
A-WALL
100
AcDbLine
 10
-15.774999999999999
 20
-19.22500076293945
 30
0.0
 11
-16.125
 21
-19.575000762939453
 31
0.0
  0
LINE
  5
26A
330
17
100
AcDbEntity
  8
A-WALL
100
AcDbLine
 10
-12.075
 20
-19.825000762939453
 30
0.0
 11
-11.575
 21
-20.575000762939453
 31
0.0
  0
LINE
  5
26B
330
17
100
AcDbEntity
  8
A-WALL
100
AcDbLine
 10
-11.024999999999999
 20
-21.22500076293945
 30
0.0
 11
-11.524999999999999
 21
-21.72500076293945
 31
0.0
  0
LINE
  5
26C
330
17
100
AcDbEntity
  8
A-WALL
100
AcDbLine
 10
-14.325
 20
-21.22500076293945
 30
0.0
 11
-14.875
 21
-21.72500076293945
 31
0.0
  0
LINE
  5
26D
330
17
100
AcDbEntity
  8
A-WALL
100
AcDbLine
 10
-12.075
 20
-22.075000762939453
 30
0.0
 11
-12.375
 21
-21.72500076293945
 31
0.0
  0
LINE
  5
26E
330
17
100
AcDbEntity
  8
A-WALL
100
AcDbLine
 10
-18.025
 20
-20.825000762939453
 30
0.0
 11
-17.525
 21
-21.325000762939453
 31
0.0
  0
LINE
  5
26F
330
17
100
AcDbEntity
  8
A-WALL
100
AcDbLine
 10
-17.525
 20
-21.47500076293945
 30
0.0
 11
-17.875
 21
-20.97500076293945
 31
0.0
  0
LINE
  5
270
330
17
100
AcDbEntity
  8
A-WALL
100
AcDbLine
 10
-17.875
 20
-20.97500076293945
 30
0.0
 11
-18.275
 21
-20.72500076293945
 31
0.0
  0
LINE
  5
271
330
17
100
AcDbEntity
  8
A-WALL
100
AcDbLine
 10
-18.275
 20
-20.575000762939453
 30
0.0
 11
-21.775
 21
-20.575000762939453
 31
0.0
  0
LINE
  5
272
330
17
100
AcDbEntity
  8
A-WALL
100
AcDbLine
 10
-21.775
 20
-20.47500076293945
 30
0.0
 11
-22.625
 21
-21.325000762939453
 31
0.0
  0
LINE
  5
273
330
17
100
AcDbEntity
  8
A-WALL
100
AcDbLine
 10
-22.375
 20
-20.325000762939453
 30
0.0
 11
-22.775
 21
-20.72500076293945
 31
0.0
  0
LINE
  5
274
330
17
100
AcDbEntity
  8
A-WALL
100
AcDbLine
 10
-19.275
 20
-20.675000762939455
 30
0.0
 11
-18.275
 21
-20.675000762939455
 31
0.0
  0
LINE
  5
275
330
17
100
AcDbEntity
  8
A-WALL
100
AcDbLine
 10
-17.625
 20
-20.575000762939453
 30
0.0
 11
-16.875
 21
-19.825000762939453
 31
0.0
  0
LINE
  5
276
330
17
100
AcDbEntity
  8
A-DOOR
100
AcDbLine
 10
6.575
 20
16.225
 30
0.0
 11
7.325
 21
16.225
 31
0.0
  0
ARC
  5
277
330
17
100
AcDbEntity
  8
A-DOOR
100
AcDbCircle
 10
6.575
 20
16.225
 30
0.0
 40
0.75
100
AcDbArc
 50
0.0
 51
90.0
  0
LINE
  5
278
330
17
100
AcDbEntity
  8
A-DOOR
100
AcDbLine
 10
5.425
 20
16.225
 30
0.0
 11
10.024999999999999
 21
16.225
 31
0.0
  0
ARC
  5
279
330
17
100
AcDbEntity
  8
A-DOOR
100
AcDbCircle
 10
5.425
 20
16.225
 30
0.0
 40
4.6
100
AcDbArc
 50
0.0
 51
90.0
  0
LINE
  5
27A
330
17
100
AcDbEntity
  8
A-DOOR
100
AcDbLine
 10
6.975
 20
15.875
 30
0.0
 11
6.975
 21
13.475000000000001
 31
0.0
  0
ARC
  5
27B
330
17
100
AcDbEntity
  8
A-DOOR
100
AcDbCircle
 10
6.975
 20
15.875
 30
0.0
 40
2.4
100
AcDbArc
 50
-90.0
 51
0.0
  0
LINE
  5
27C
330
17
100
AcDbEntity
  8
A-DOOR
100
AcDbLine
 10
5.275
 20
16.125
 30
0.0
 11
2.6749999999999985
 21
16.125
 31
0.0
  0
ARC
  5
27D
330
17
100
AcDbEntity
  8
A-DOOR
100
AcDbCircle
 10
5.275
 20
16.125
 30
0.0
 40
2.6
100
AcDbArc
 50
180.0
 51
270.0
  0
LINE
  5
27E
330
17
100
AcDbEntity
  8
A-DOOR
100
AcDbLine
 10
3.975
 20
15.875
 30
0.0
 11
3.975
 21
13.725000000000001
 31
0.0
  0
ARC
  5
27F
330
17
100
AcDbEntity
  8
A-DOOR
100
AcDbCircle
 10
3.975
 20
15.875
 30
0.0
 40
2.15
100
AcDbArc
 50
-90.0
 51
0.0
  0
LINE
  5
280
330
17
100
AcDbEntity
  8
A-DOOR
100
AcDbLine
 10
16.375
 20
14.225
 30
0.0
 11
16.375
 21
11.524999999999999
 31
0.0
  0
ARC
  5
281
330
17
100
AcDbEntity
  8
A-DOOR
100
AcDbCircle
 10
16.375
 20
14.225
 30
0.0
 40
2.7
100
AcDbArc
 50
-90.0
 51
0.0
  0
LINE
  5
282
330
17
100
AcDbEntity
  8
A-DOOR
100
AcDbLine
 10
4.175
 20
13.725
 30
0.0
 11
4.175
 21
15.124999999999998
 31
0.0
  0
ARC
  5
283
330
17
100
AcDbEntity
  8
A-DOOR
100
AcDbCircle
 10
4.175
 20
13.725
 30
0.0
 40
1.4
100
AcDbArc
 50
90.0
 51
180.0
  0
LINE
  5
284
330
17
100
AcDbEntity
  8
A-DOOR
100
AcDbLine
 10
4.325
 20
13.625
 30
0.0
 11
2.174999999999999
 21
13.625
 31
0.0
  0
ARC
  5
285
330
17
100
AcDbEntity
  8
A-DOOR
100
AcDbCircle
 10
4.325
 20
13.625
 30
0.0
 40
2.15
100
AcDbArc
 50
180.0
 51
270.0
  0
LINE
  5
286
330
17
100
AcDbEntity
  8
A-DOOR
100
AcDbLine
 10
2.975
 20
13.725
 30
0.0
 11
2.975
 21
15.924999999999995
 31
0.0
  0
ARC
  5
287
330
17
100
AcDbEntity
  8
A-DOOR
100
AcDbCircle
 10
2.975
 20
13.725
 30
0.0
 40
2.2
100
AcDbArc
 50
90.0
 51
180.0
  0
LINE
  5
288
330
17
100
AcDbEntity
  8
A-DOOR
100
AcDbLine
 10
6.375
 20
13.475
 30
0.0
 11
6.375
 21
15.174999999999995
 31
0.0
  0
ARC
  5
289
330
17
100
AcDbEntity
  8
A-DOOR
100
AcDbCircle
 10
6.375
 20
13.475
 30
0.0
 40
1.7
100
AcDbArc
 50
90.0
 51
180.0
  0
LINE
  5
28A
330
17
100
AcDbEntity
  8
A-DOOR
100
AcDbLine
 10
-13.875
 20
11.675
 30
0.0
 11
-13.875
 21
13.025000000000006
 31
0.0
  0
ARC
  5
28B
330
17
100
AcDbEntity
  8
A-DOOR
100
AcDbCircle
 10
-13.875
 20
11.675
 30
0.0
 40
1.35
100
AcDbArc
 50
90.0
 51
180.0
  0
LINE
  5
28C
330
17
100
AcDbEntity
  8
A-DOOR
100
AcDbLine
 10
-14.825
 20
11.675
 30
0.0
 11
-14.825
 21
13.025000000000006
 31
0.0
  0
ARC
  5
28D
330
17
100
AcDbEntity
  8
A-DOOR
100
AcDbCircle
 10
-14.825
 20
11.675
 30
0.0
 40
1.35
100
AcDbArc
 50
90.0
 51
180.0
  0
LINE
  5
28E
330
17
100
AcDbEntity
  8
A-DOOR
100
AcDbLine
 10
6.725
 20
9.725
 30
0.0
 11
7.925
 21
9.725
 31
0.0
  0
ARC
  5
28F
330
17
100
AcDbEntity
  8
A-DOOR
100
AcDbCircle
 10
6.725
 20
9.725
 30
0.0
 40
1.2
100
AcDbArc
 50
0.0
 51
90.0
  0
LINE
  5
290
330
17
100
AcDbEntity
  8
A-DOOR
100
AcDbLine
 10
-16.225
 20
4.475
 30
0.0
 11
-16.225
 21
-4.925000000000001
 31
0.0
  0
ARC
  5
291
330
17
100
AcDbEntity
  8
A-DOOR
100
AcDbCircle
 10
-16.225
 20
4.475
 30
0.0
 40
9.4
100
AcDbArc
 50
-90.0
 51
0.0
  0
LINE
  5
292
330
17
100
AcDbEntity
  8
A-DOOR
100
AcDbLine
 10
-16.575
 20
3.975
 30
0.0
 11
-15.725
 21
3.975
 31
0.0
  0
ARC
  5
293
330
17
100
AcDbEntity
  8
A-DOOR
100
AcDbCircle
 10
-16.575
 20
3.975
 30
0.0
 40
0.85
100
AcDbArc
 50
0.0
 51
90.0
  0
LINE
  5
294
330
17
100
AcDbEntity
  8
A-DOOR
100
AcDbLine
 10
-16.625
 20
3.025
 30
0.0
 11
-15.724999999999998
 21
3.025
 31
0.0
  0
ARC
  5
295
330
17
100
AcDbEntity
  8
A-DOOR
100
AcDbCircle
 10
-16.625
 20
3.025
 30
0.0
 40
0.9
100
AcDbArc
 50
0.0
 51
90.0
  0
LINE
  5
296
330
17
100
AcDbEntity
  8
A-DOOR
100
AcDbLine
 10
-16.625
 20
2.125
 30
0.0
 11
-15.875
 21
2.125
 31
0.0
  0
ARC
  5
297
330
17
100
AcDbEntity
  8
A-DOOR
100
AcDbCircle
 10
-16.625
 20
2.125
 30
0.0
 40
0.75
100
AcDbArc
 50
0.0
 51
90.0
  0
LINE
  5
298
330
17
100
AcDbEntity
  8
A-DOOR
100
AcDbLine
 10
-15.425
 20
3.875
 30
0.0
 11
-15.425
 21
-1.625
 31
0.0
  0
ARC
  5
299
330
17
100
AcDbEntity
  8
A-DOOR
100
AcDbCircle
 10
-15.425
 20
3.875
 30
0.0
 40
5.5
100
AcDbArc
 50
-90.0
 51
0.0
  0
LINE
  5
29A
330
17
100
AcDbEntity
  8
A-DOOR
100
AcDbLine
 10
16.475
 20
4.775
 30
0.0
 11
16.475
 21
3.1750000000000003
 31
0.0
  0
ARC
  5
29B
330
17
100
AcDbEntity
  8
A-DOOR
100
AcDbCircle
 10
16.475
 20
4.775
 30
0.0
 40
1.6
100
AcDbArc
 50
-90.0
 51
0.0
  0
LINE
  5
29C
330
17
100
AcDbEntity
  8
A-DOOR
100
AcDbLine
 10
-13.825
 20
-1.175
 30
0.0
 11
-13.825
 21
-0.3250000000000022
 31
0.0
  0
ARC
  5
29D
330
17
100
AcDbEntity
  8
A-DOOR
100
AcDbCircle
 10
-13.825
 20
-1.175
 30
0.0
 40
0.85
100
AcDbArc
 50
90.0
 51
180.0
  0
LINE
  5
29E
330
17
100
AcDbEntity
  8
A-DOOR
100
AcDbLine
 10
-14.825
 20
-0.975
 30
0.0
 11
-15.525
 21
-0.975
 31
0.0
  0
ARC
  5
29F
330
17
100
AcDbEntity
  8
A-DOOR
100
AcDbCircle
 10
-14.825
 20
-0.975
 30
0.0
 40
0.7
100
AcDbArc
 50
180.0
 51
270.0
  0
LINE
  5
2A0
330
17
100
AcDbEntity
  8
A-DOOR
100
AcDbLine
 10
17.025
 20
-0.375
 30
0.0
 11
20.075000000000003
 21
-0.375
 31
0.0
  0
ARC
  5
2A1
330
17
100
AcDbEntity
  8
A-DOOR
100
AcDbCircle
 10
17.025
 20
-0.375
 30
0.0
 40
3.05
100
AcDbArc
 50
0.0
 51
90.0
  0
LINE
  5
2A2
330
17
100
AcDbEntity
  8
A-DOOR
100
AcDbLine
 10
4.775
 20
-1.125
 30
0.0
 11
4.775
 21
-1.8749999999999978
 31
0.0
  0
ARC
  5
2A3
330
17
100
AcDbEntity
  8
A-DOOR
100
AcDbCircle
 10
4.775
 20
-1.125
 30
0.0
 40
0.75
100
AcDbArc
 50
-90.0
 51
0.0
  0
LINE
  5
2A4
330
17
100
AcDbEntity
  8
A-DOOR
100
AcDbLine
 10
4.675
 20
-1.125
 30
0.0
 11
4.675
 21
-1.924999999999998
 31
0.0
  0
ARC
  5
2A5
330
17
100
AcDbEntity
  8
A-DOOR
100
AcDbCircle
 10
4.675
 20
-1.125
 30
0.0
 40
0.8
100
AcDbArc
 50
-90.0
 51
0.0
  0
LINE
  5
2A6
330
17
100
AcDbEntity
  8
A-DOOR
100
AcDbLine
 10
4.925
 20
-2.125
 30
0.0
 11
4.225
 21
-2.125
 31
0.0
  0
ARC
  5
2A7
330
17
100
AcDbEntity
  8
A-DOOR
100
AcDbCircle
 10
4.925
 20
-2.125
 30
0.0
 40
0.7
100
AcDbArc
 50
180.0
 51
270.0
  0
LINE
  5
2A8
330
17
100
AcDbEntity
  8
A-DOOR
100
AcDbLine
 10
3.475
 20
-1.975
 30
0.0
 11
3.475
 21
-1.0750000000000006
 31
0.0
  0
ARC
  5
2A9
330
17
100
AcDbEntity
  8
A-DOOR
100
AcDbCircle
 10
3.475
 20
-1.975
 30
0.0
 40
0.9
100
AcDbArc
 50
90.0
 51
180.0
  0
LINE
  5
2AA
330
17
100
AcDbEntity
  8
A-DOOR
100
AcDbLine
 10
2.825
 20
-1.075
 30
0.0
 11
2.825
 21
-1.975
 31
0.0
  0
ARC
  5
2AB
330
17
100
AcDbEntity
  8
A-DOOR
100
AcDbCircle
 10
2.825
 20
-1.075
 30
0.0
 40
0.9
100
AcDbArc
 50
-90.0
 51
0.0
  0
LINE
  5
2AC
330
17
100
AcDbEntity
  8
A-DOOR
100
AcDbLine
 10
-15.875
 20
1.725
 30
0.0
 11
-16.575
 21
1.725
 31
0.0
  0
ARC
  5
2AD
330
17
100
AcDbEntity
  8
A-DOOR
100
AcDbCircle
 10
-15.875
 20
1.725
 30
0.0
 40
0.7
100
AcDbArc
 50
180.0
 51
270.0
  0
LINE
  5
2AE
330
17
100
AcDbEntity
  8
A-DOOR
100
AcDbLine
 10
-9.625
 20
-3.075
 30
0.0
 11
-9.625
 21
-1.8250000000000002
 31
0.0
  0
ARC
  5
2AF
330
17
100
AcDbEntity
  8
A-DOOR
100
AcDbCircle
 10
-9.625
 20
-3.075
 30
0.0
 40
1.25
100
AcDbArc
 50
90.0
 51
180.0
  0
LINE
  5
2B0
330
17
100
AcDbEntity
  8
A-DOOR
100
AcDbLine
 10
-10.525
 20
-2.975
 30
0.0
 11
-10.525
 21
-1.8249999999999988
 31
0.0
  0
ARC
  5
2B1
330
17
100
AcDbEntity
  8
A-DOOR
100
AcDbCircle
 10
-10.525
 20
-2.975
 30
0.0
 40
1.15
100
AcDbArc
 50
90.0
 51
180.0
  0
LINE
  5
2B2
330
17
100
AcDbEntity
  8
A-DOOR
100
AcDbLine
 10
-9.825
 20
-1.975
 30
0.0
 11
-11.075
 21
-1.975
 31
0.0
  0
ARC
  5
2B3
330
17
100
AcDbEntity
  8
A-DOOR
100
AcDbCircle
 10
-9.825
 20
-1.975
 30
0.0
 40
1.25
100
AcDbArc
 50
180.0
 51
270.0
  0
LINE
  5
2B4
330
17
100
AcDbEntity
  8
A-DOOR
100
AcDbLine
 10
6.625
 20
-2.675
 30
0.0
 11
9.325
 21
-2.675
 31
0.0
  0
ARC
  5
2B5
330
17
100
AcDbEntity
  8
A-DOOR
100
AcDbCircle
 10
6.625
 20
-2.675
 30
0.0
 40
2.7
100
AcDbArc
 50
0.0
 51
90.0
  0
LINE
  5
2B6
330
17
100
AcDbEntity
  8
A-DOOR
100
AcDbLine
 10
-7.375
 20
-2.875
 30
0.0
 11
-10.325
 21
-2.875
 31
0.0
  0
ARC
  5
2B7
330
17
100
AcDbEntity
  8
A-DOOR
100
AcDbCircle
 10
-7.375
 20
-2.875
 30
0.0
 40
2.95
100
AcDbArc
 50
180.0
 51
270.0
  0
LINE
  5
2B8
330
17
100
AcDbEntity
  8
A-DOOR
100
AcDbLine
 10
-11.225
 20
-3.225
 30
0.0
 11
-11.225
 21
-2.0750000000000015
 31
0.0
  0
ARC
  5
2B9
330
17
100
AcDbEntity
  8
A-DOOR
100
AcDbCircle
 10
-11.225
 20
-3.225
 30
0.0
 40
1.15
100
AcDbArc
 50
90.0
 51
180.0
  0
LINE
  5
2BA
330
17
100
AcDbEntity
  8
A-DOOR
100
AcDbLine
 10
-16.525
 20
-2.575
 30
0.0
 11
-17.525
 21
-2.575
 31
0.0
  0
ARC
  5
2BB
330
17
100
AcDbEntity
  8
A-DOOR
100
AcDbCircle
 10
-16.525
 20
-2.575
 30
0.0
 40
1.0
100
AcDbArc
 50
180.0
 51
270.0
  0
LINE
  5
2BC
330
17
100
AcDbEntity
  8
A-DOOR
100
AcDbLine
 10
-15.725
 20
-2.225
 30
0.0
 11
-15.725
 21
-6.375000000000002
 31
0.0
  0
ARC
  5
2BD
330
17
100
AcDbEntity
  8
A-DOOR
100
AcDbCircle
 10
-15.725
 20
-2.225
 30
0.0
 40
4.15
100
AcDbArc
 50
-90.0
 51
0.0
  0
LINE
  5
2BE
330
17
100
AcDbEntity
  8
A-DOOR
100
AcDbLine
 10
-7.875
 20
-3.275
 30
0.0
 11
-7.875
 21
-2.5750000000000006
 31
0.0
  0
ARC
  5
2BF
330
17
100
AcDbEntity
  8
A-DOOR
100
AcDbCircle
 10
-7.875
 20
-3.275
 30
0.0
 40
0.7
100
AcDbArc
 50
90.0
 51
180.0
  0
LINE
  5
2C0
330
17
100
AcDbEntity
  8
A-DOOR
100
AcDbLine
 10
-8.725
 20
-3.225
 30
0.0
 11
-8.725
 21
-2.3249999999999984
 31
0.0
  0
ARC
  5
2C1
330
17
100
AcDbEntity
  8
A-DOOR
100
AcDbCircle
 10
-8.725
 20
-3.225
 30
0.0
 40
0.9
100
AcDbArc
 50
90.0
 51
180.0
  0
LINE
  5
2C2
330
17
100
AcDbEntity
  8
A-DOOR
100
AcDbLine
 10
-11.275
 20
-3.675
 30
0.0
 11
-11.275
 21
-4.675
 31
0.0
  0
ARC
  5
2C3
330
17
100
AcDbEntity
  8
A-DOOR
100
AcDbCircle
 10
-11.275
 20
-3.675
 30
0.0
 40
1.0
100
AcDbArc
 50
-90.0
 51
0.0
  0
LINE
  5
2C4
330
17
100
AcDbEntity
  8
A-DOOR
100
AcDbLine
 10
-16.525
 20
-4.375
 30
0.0
 11
-15.825
 21
-4.375
 31
0.0
  0
ARC
  5
2C5
330
17
100
AcDbEntity
  8
A-DOOR
100
AcDbCircle
 10
-16.525
 20
-4.375
 30
0.0
 40
0.7
100
AcDbArc
 50
0.0
 51
90.0
  0
LINE
  5
2C6
330
17
100
AcDbEntity
  8
A-DOOR
100
AcDbLine
 10
-12.075
 20
-1.875
 30
0.0
 11
-12.075
 21
-5.225000000000001
 31
0.0
  0
ARC
  5
2C7
330
17
100
AcDbEntity
  8
A-DOOR
100
AcDbCircle
 10
-12.075
 20
-1.875
 30
0.0
 40
3.35
100
AcDbArc
 50
-90.0
 51
0.0
  0
LINE
  5
2C8
330
17
100
AcDbEntity
  8
A-DOOR
100
AcDbLine
 10
16.675
 20
-3.925
 30
0.0
 11
18.925
 21
-3.925
 31
0.0
  0
ARC
  5
2C9
330
17
100
AcDbEntity
  8
A-DOOR
100
AcDbCircle
 10
16.675
 20
-3.925
 30
0.0
 40
2.25
100
AcDbArc
 50
0.0
 51
90.0
  0
LINE
  5
2CA
330
17
100
AcDbEntity
  8
A-DOOR
100
AcDbLine
 10
-13.275
 20
-6.075
 30
0.0
 11
-13.275
 21
-2.1749999999999985
 31
0.0
  0
ARC
  5
2CB
330
17
100
AcDbEntity
  8
A-DOOR
100
AcDbCircle
 10
-13.275
 20
-6.075
 30
0.0
 40
3.9
100
AcDbArc
 50
90.0
 51
180.0
  0
LINE
  5
2CC
330
17
100
AcDbEntity
  8
A-DOOR
100
AcDbLine
 10
16.475
 20
-7.375
 30
0.0
 11
16.475
 21
-6.675
 31
0.0
  0
ARC
  5
2CD
330
17
100
AcDbEntity
  8
A-DOOR
100
AcDbCircle
 10
16.475
 20
-7.375
 30
0.0
 40
0.7
100
AcDbArc
 50
90.0
 51
180.0
  0
LINE
  5
2CE
330
17
100
AcDbEntity
  8
A-DOOR
100
AcDbLine
 10
-19.875
 20
-3.175
 30
0.0
 11
-20.59144409786529
 21
-3.942618676284238
 31
0.0
  0
ARC
  5
2CF
330
17
100
AcDbEntity
  8
A-DOOR
100
AcDbCircle
 10
-19.875
 20
-3.175
 30
0.0
 40
1.05
100
AcDbArc
 50
-133.025065989118
 51
-43.02506598911799
  0
LINE
  5
2D0
330
17
100
AcDbEntity
  8
A-DOOR
100
AcDbLine
 10
6.475
 20
-5.975
 30
0.0
 11
8.975000000000001
 21
-5.975
 31
0.0
  0
ARC
  5
2D1
330
17
100
AcDbEntity
  8
A-DOOR
100
AcDbCircle
 10
6.475
 20
-5.975
 30
0.0
 40
2.5
100
AcDbArc
 50
0.0
 51
90.0
  0
LINE
  5
2D2
330
17
100
AcDbEntity
  8
A-DOOR
100
AcDbLine
 10
-11.675
 20
-5.725
 30
0.0
 11
-11.517602308499475
 21
-6.407056663168942
 31
0.0
  0
ARC
  5
2D3
330
17
100
AcDbEntity
  8
A-DOOR
100
AcDbCircle
 10
-11.675
 20
-5.725
 30
0.0
 40
0.7
100
AcDbArc
 50
-77.00538320808352
 51
12.994616791916485
  0
LINE
  5
2D4
330
17
100
AcDbEntity
  8
A-DOOR
100
AcDbLine
 10
-12.425
 20
-6.375
 30
0.0
 11
-12.425
 21
-5.474999999999999
 31
0.0
  0
ARC
  5
2D5
330
17
100
AcDbEntity
  8
A-DOOR
100
AcDbCircle
 10
-12.425
 20
-6.375
 30
0.0
 40
0.9
100
AcDbArc
 50
90.0
 51
180.0
  0
LINE
  5
2D6
330
17
100
AcDbEntity
  8
A-DOOR
100
AcDbLine
 10
-16.525
 20
-6.525
 30
0.0
 11
-15.825
 21
-6.525
 31
0.0
  0
ARC
  5
2D7
330
17
100
AcDbEntity
  8
A-DOOR
100
AcDbCircle
 10
-16.525
 20
-6.525
 30
0.0
 40
0.7
100
AcDbArc
 50
0.0
 51
90.0
  0
LINE
  5
2D8
330
17
100
AcDbEntity
  8
A-DOOR
100
AcDbLine
 10
-14.275
 20
-2.225
 30
0.0
 11
-14.275
 21
-6.375000000000002
 31
0.0
  0
ARC
  5
2D9
330
17
100
AcDbEntity
  8
A-DOOR
100
AcDbCircle
 10
-14.275
 20
-2.225
 30
0.0
 40
4.15
100
AcDbArc
 50
-90.0
 51
0.0
  0
LINE
  5
2DA
330
17
100
AcDbEntity
  8
A-DOOR
100
AcDbLine
 10
3.325
 20
-6.625
 30
0.0
 11
1.824999999999997
 21
-6.625
 31
0.0
  0
ARC
  5
2DB
330
17
100
AcDbEntity
  8
A-DOOR
100
AcDbCircle
 10
3.325
 20
-6.625
 30
0.0
 40
1.5
100
AcDbArc
 50
180.0
 51
270.0
  0
LINE
  5
2DC
330
17
100
AcDbEntity
  8
A-DOOR
100
AcDbLine
 10
-10.075
 20
-7.075
 30
0.0
 11
-11.125
 21
-7.075
 31
0.0
  0
ARC
  5
2DD
330
17
100
AcDbEntity
  8
A-DOOR
100
AcDbCircle
 10
-10.075
 20
-7.075
 30
0.0
 40
1.05
100
AcDbArc
 50
180.0
 51
270.0
  0
LINE
  5
2DE
330
17
100
AcDbEntity
  8
A-DOOR
100
AcDbLine
 10
-20.925
 20
-7.025
 30
0.0
 11
-20.925
 21
-5.825000000000001
 31
0.0
  0
ARC
  5
2DF
330
17
100
AcDbEntity
  8
A-DOOR
100
AcDbCircle
 10
-20.925
 20
-7.025
 30
0.0
 40
1.2
100
AcDbArc
 50
90.0
 51
180.0
  0
LINE
  5
2E0
330
17
100
AcDbEntity
  8
A-DOOR
100
AcDbLine
 10
16.425
 20
-7.475
 30
0.0
 11
16.425
 21
-6.674999999999999
 31
0.0
  0
ARC
  5
2E1
330
17
100
AcDbEntity
  8
A-DOOR
100
AcDbCircle
 10
16.425
 20
-7.475
 30
0.0
 40
0.8
100
AcDbArc
 50
90.0
 51
180.0
  0
LINE
  5
2E2
330
17
100
AcDbEntity
  8
A-DOOR
100
AcDbLine
 10
5.475
 20
-6.575
 30
0.0
 11
5.475
 21
-8.425
 31
0.0
  0
ARC
  5
2E3
330
17
100
AcDbEntity
  8
A-DOOR
100
AcDbCircle
 10
5.475
 20
-6.575
 30
0.0
 40
1.85
100
AcDbArc
 50
-90.0
 51
0.0
  0
LINE
  5
2E4
330
17
100
AcDbEntity
  8
A-DOOR
100
AcDbLine
 10
-10.325
 20
-8.725
 30
0.0
 11
-10.325
 21
-10.024999999999999
 31
0.0
  0
ARC
  5
2E5
330
17
100
AcDbEntity
  8
A-DOOR
100
AcDbCircle
 10
-10.325
 20
-8.725
 30
0.0
 40
1.3
100
AcDbArc
 50
-90.0
 51
0.0
  0
LINE
  5
2E6
330
17
100
AcDbEntity
  8
A-DOOR
100
AcDbLine
 10
-13.575
 20
-8.325
 30
0.0
 11
-13.732397691500525
 21
-9.007056663168939
 31
0.0
  0
ARC
  5
2E7
330
17
100
AcDbEntity
  8
A-DOOR
100
AcDbCircle
 10
-13.575
 20
-8.325
 30
0.0
 40
0.7
100
AcDbArc
 50
-102.99461679191657
 51
-12.99461679191657
  0
LINE
  5
2E8
330
17
100
AcDbEntity
  8
A-DOOR
100
AcDbLine
 10
-13.525
 20
-9.475
 30
0.0
 11
-13.525
 21
-7.025
 31
0.0
  0
ARC
  5
2E9
330
17
100
AcDbEntity
  8
A-DOOR
100
AcDbCircle
 10
-13.525
 20
-9.475
 30
0.0
 40
2.45
100
AcDbArc
 50
90.0
 51
180.0
  0
LINE
  5
2EA
330
17
100
AcDbEntity
  8
A-DOOR
100
AcDbLine
 10
4.925
 20
-7.325
 30
0.0
 11
4.925
 21
-9.175
 31
0.0
  0
ARC
  5
2EB
330
17
100
AcDbEntity
  8
A-DOOR
100
AcDbCircle
 10
4.925
 20
-7.325
 30
0.0
 40
1.85
100
AcDbArc
 50
-90.0
 51
0.0
  0
LINE
  5
2EC
330
17
100
AcDbEntity
  8
A-DOOR
100
AcDbLine
 10
3.975
 20
-9.125
 30
0.0
 11
3.975
 21
-6.675000000000001
 31
0.0
  0
ARC
  5
2ED
330
17
100
AcDbEntity
  8
A-DOOR
100
AcDbCircle
 10
3.975
 20
-9.125
 30
0.0
 40
2.45
100
AcDbArc
 50
90.0
 51
180.0
  0
LINE
  5
2EE
330
17
100
AcDbEntity
  8
A-DOOR
100
AcDbLine
 10
4.725
 20
-9.175
 30
0.0
 11
3.624999999999999
 21
-9.175
 31
0.0
  0
ARC
  5
2EF
330
17
100
AcDbEntity
  8
A-DOOR
100
AcDbCircle
 10
4.725
 20
-9.175
 30
0.0
 40
1.1
100
AcDbArc
 50
180.0
 51
270.0
  0
LINE
  5
2F0
330
17
100
AcDbEntity
  8
A-DOOR
100
AcDbLine
 10
2.875
 20
-6.725
 30
0.0
 11
2.875
 21
-9.225
 31
0.0
  0
ARC
  5
2F1
330
17
100
AcDbEntity
  8
A-DOOR
100
AcDbCircle
 10
2.875
 20
-6.725
 30
0.0
 40
2.5
100
AcDbArc
 50
-90.0
 51
0.0
  0
LINE
  5
2F2
330
17
100
AcDbEntity
  8
A-DOOR
100
AcDbLine
 10
6.325
 20
-8.275
 30
0.0
 11
6.167855147366948
 21
-9.008342645620896
 31
0.0
  0
ARC
  5
2F3
330
17
100
AcDbEntity
  8
A-DOOR
100
AcDbCircle
 10
6.325
 20
-8.275
 30
0.0
 40
0.75
100
AcDbArc
 50
-102.09475707701229
 51
-12.09475707701229
  0
LINE
  5
2F4
330
17
100
AcDbEntity
  8
A-DOOR
100
AcDbLine
 10
8.025
 20
-9.425
 30
0.0
 11
5.3249999999999975
 21
-9.425
 31
0.0
  0
ARC
  5
2F5
330
17
100
AcDbEntity
  8
A-DOOR
100
AcDbCircle
 10
8.025
 20
-9.425
 30
0.0
 40
2.7
100
AcDbArc
 50
180.0
 51
270.0
  0
LINE
  5
2F6
330
17
100
AcDbEntity
  8
A-DOOR
100
AcDbLine
 10
-8.675
 20
-9.775
 30
0.0
 11
-12.024999999999999
 21
-9.775
 31
0.0
  0
ARC
  5
2F7
330
17
100
AcDbEntity
  8
A-DOOR
100
AcDbCircle
 10
-8.675
 20
-9.775
 30
0.0
 40
3.35
100
AcDbArc
 50
180.0
 51
270.0
  0
LINE
  5
2F8
330
17
100
AcDbEntity
  8
A-DOOR
100
AcDbLine
 10
-11.825
 20
-9.525
 30
0.0
 11
-11.825
 21
-7.075000000000001
 31
0.0
  0
ARC
  5
2F9
330
17
100
AcDbEntity
  8
A-DOOR
100
AcDbCircle
 10
-11.825
 20
-9.525
 30
0.0
 40
2.45
100
AcDbArc
 50
90.0
 51
180.0
  0
LINE
  5
2FA
330
17
100
AcDbEntity
  8
A-DOOR
100
AcDbLine
 10
-12.725
 20
-7.025
 30
0.0
 11
-12.725
 21
-9.475
 31
0.0
  0
ARC
  5
2FB
330
17
100
AcDbEntity
  8
A-DOOR
100
AcDbCircle
 10
-12.725
 20
-7.025
 30
0.0
 40
2.45
100
AcDbArc
 50
-90.0
 51
0.0
  0
LINE
  5
2FC
330
17
100
AcDbEntity
  8
A-DOOR
100
AcDbLine
 10
8.975
 20
-7.625
 30
0.0
 11
8.975
 21
-9.375
 31
0.0
  0
ARC
  5
2FD
330
17
100
AcDbEntity
  8
A-DOOR
100
AcDbCircle
 10
8.975
 20
-7.625
 30
0.0
 40
1.75
100
AcDbArc
 50
-90.0
 51
0.0
  0
LINE
  5
2FE
330
17
100
AcDbEntity
  8
A-DOOR
100
AcDbLine
 10
-10.825
 20
-8.775
 30
0.0
 11
-10.825
 21
-9.875
 31
0.0
  0
ARC
  5
2FF
330
17
100
AcDbEntity
  8
A-DOOR
100
AcDbCircle
 10
-10.825
 20
-8.775
 30
0.0
 40
1.1
100
AcDbArc
 50
-90.0
 51
0.0
  0
LINE
  5
300
330
17
100
AcDbEntity
  8
A-DOOR
100
AcDbLine
 10
-14.725
 20
-9.525
 30
0.0
 11
-14.725
 21
-7.025
 31
0.0
  0
ARC
  5
301
330
17
100
AcDbEntity
  8
A-DOOR
100
AcDbCircle
 10
-14.725
 20
-9.525
 30
0.0
 40
2.5
100
AcDbArc
 50
90.0
 51
180.0
  0
LINE
  5
302
330
17
100
AcDbEntity
  8
A-DOOR
100
AcDbLine
 10
-12.425
 20
-9.475
 30
0.0
 11
-14.925
 21
-9.475
 31
0.0
  0
ARC
  5
303
330
17
100
AcDbEntity
  8
A-DOOR
100
AcDbCircle
 10
-12.425
 20
-9.475
 30
0.0
 40
2.5
100
AcDbArc
 50
180.0
 51
270.0
  0
LINE
  5
304
330
17
100
AcDbEntity
  8
A-DOOR
100
AcDbLine
 10
-22.875
 20
-5.675
 30
0.0
 11
-23.625
 21
-5.675
 31
0.0
  0
ARC
  5
305
330
17
100
AcDbEntity
  8
A-DOOR
100
AcDbCircle
 10
-22.875
 20
-5.675
 30
0.0
 40
0.75
100
AcDbArc
 50
180.0
 51
270.0
  0
LINE
  5
306
330
17
100
AcDbEntity
  8
A-DOOR
100
AcDbLine
 10
-22.575
 20
-4.675
 30
0.0
 11
-23.65385949139481
 21
-3.493391985615208
 31
0.0
  0
ARC
  5
307
330
17
100
AcDbEntity
  8
A-DOOR
100
AcDbCircle
 10
-22.575
 20
-4.675
 30
0.0
 40
1.6
100
AcDbArc
 50
132.39743779750026
 51
222.39743779750026
  0
LINE
  5
308
330
17
100
AcDbEntity
  8
A-DOOR
100
AcDbLine
 10
4.275
 20
-9.825
 30
0.0
 11
7.124999999999999
 21
-9.825
 31
0.0
  0
ARC
  5
309
330
17
100
AcDbEntity
  8
A-DOOR
100
AcDbCircle
 10
4.275
 20
-9.825
 30
0.0
 40
2.85
100
AcDbArc
 50
0.0
 51
90.0
  0
LINE
  5
30A
330
17
100
AcDbEntity
  8
A-DOOR
100
AcDbLine
 10
-11.425
 20
-11.375
 30
0.0
 11
-12.454613649735244
 21
-11.58092272994705
 31
0.0
  0
ARC
  5
30B
330
17
100
AcDbEntity
  8
A-DOOR
100
AcDbCircle
 10
-11.425
 20
-11.375
 30
0.0
 40
1.05
100
AcDbArc
 50
-168.6900675259797
 51
-78.69006752597971
  0
LINE
  5
30C
330
17
100
AcDbEntity
  8
A-DOOR
100
AcDbLine
 10
-11.925
 20
-11.475
 30
0.0
 11
-12.975000000000001
 21
-11.475
 31
0.0
  0
ARC
  5
30D
330
17
100
AcDbEntity
  8
A-DOOR
100
AcDbCircle
 10
-11.925
 20
-11.475
 30
0.0
 40
1.05
100
AcDbArc
 50
180.0
 51
270.0
  0
LINE
  5
30E
330
17
100
AcDbEntity
  8
A-DOOR
100
AcDbLine
 10
-13.075
 20
-11.475
 30
0.0
 11
-15.175
 21
-11.475
 31
0.0
  0
ARC
  5
30F
330
17
100
AcDbEntity
  8
A-DOOR
100
AcDbCircle
 10
-13.075
 20
-11.475
 30
0.0
 40
2.1
100
AcDbArc
 50
180.0
 51
270.0
  0
LINE
  5
310
330
17
100
AcDbEntity
  8
A-DOOR
100
AcDbLine
 10
-14.625
 20
-11.475
 30
0.0
 11
-13.875
 21
-11.475
 31
0.0
  0
ARC
  5
311
330
17
100
AcDbEntity
  8
A-DOOR
100
AcDbCircle
 10
-14.625
 20
-11.475
 30
0.0
 40
0.75
100
AcDbArc
 50
0.0
 51
90.0
  0
LINE
  5
312
330
17
100
AcDbEntity
  8
A-DOOR
100
AcDbLine
 10
-14.775
 20
-11.125
 30
0.0
 11
-14.775
 21
-14.275
 31
0.0
  0
ARC
  5
313
330
17
100
AcDbEntity
  8
A-DOOR
100
AcDbCircle
 10
-14.775
 20
-11.125
 30
0.0
 40
3.15
100
AcDbArc
 50
-90.0
 51
0.0
  0
LINE
  5
314
330
17
100
AcDbEntity
  8
A-DOOR
100
AcDbLine
 10
-15.625
 20
-14.275
 30
0.0
 11
-15.625
 21
-11.125
 31
0.0
  0
ARC
  5
315
330
17
100
AcDbEntity
  8
A-DOOR
100
AcDbCircle
 10
-15.625
 20
-14.275
 30
0.0
 40
3.15
100
AcDbArc
 50
90.0
 51
180.0
  0
LINE
  5
316
330
17
100
AcDbEntity
  8
A-DOOR
100
AcDbLine
 10
-15.525
 20
-11.675
 30
0.0
 11
-15.525
 21
-12.875
 31
0.0
  0
ARC
  5
317
330
17
100
AcDbEntity
  8
A-DOOR
100
AcDbCircle
 10
-15.525
 20
-11.675
 30
0.0
 40
1.2
100
AcDbArc
 50
-90.0
 51
0.0
  0
LINE
  5
318
330
17
100
AcDbEntity
  8
A-DOOR
100
AcDbLine
 10
-12.275
 20
-13.375
 30
0.0
 11
-12.275
 21
-11.875
 31
0.0
  0
ARC
  5
319
330
17
100
AcDbEntity
  8
A-DOOR
100
AcDbCircle
 10
-12.275
 20
-13.375
 30
0.0
 40
1.5
100
AcDbArc
 50
90.0
 51
180.0
  0
LINE
  5
31A
330
17
100
AcDbEntity
  8
A-DOOR
100
AcDbLine
 10
-13.425
 20
-14.025
 30
0.0
 11
-13.425
 21
-11.575
 31
0.0
  0
ARC
  5
31B
330
17
100
AcDbEntity
  8
A-DOOR
100
AcDbCircle
 10
-13.425
 20
-14.025
 30
0.0
 40
2.45
100
AcDbArc
 50
90.0
 51
180.0
  0
LINE
  5
31C
330
17
100
AcDbEntity
  8
A-DOOR
100
AcDbLine
 10
-11.825
 20
-11.825
 30
0.0
 11
-11.825
 21
-14.274999999999999
 31
0.0
  0
ARC
  5
31D
330
17
100
AcDbEntity
  8
A-DOOR
100
AcDbCircle
 10
-11.825
 20
-11.825
 30
0.0
 40
2.45
100
AcDbArc
 50
-90.0
 51
0.0
  0
LINE
  5
31E
330
17
100
AcDbEntity
  8
A-DOOR
100
AcDbLine
 10
-15.975
 20
-11.925
 30
0.0
 11
-15.975
 21
-13.125
 31
0.0
  0
ARC
  5
31F
330
17
100
AcDbEntity
  8
A-DOOR
100
AcDbCircle
 10
-15.975
 20
-11.925
 30
0.0
 40
1.2
100
AcDbArc
 50
-90.0
 51
0.0
  0
LINE
  5
320
330
17
100
AcDbEntity
  8
A-DOOR
100
AcDbLine
 10
-11.625
 20
-12.725
 30
0.0
 11
-11.625
 21
-13.875
 31
0.0
  0
ARC
  5
321
330
17
100
AcDbEntity
  8
A-DOOR
100
AcDbCircle
 10
-11.625
 20
-12.725
 30
0.0
 40
1.15
100
AcDbArc
 50
-90.0
 51
0.0
  0
LINE
  5
322
330
17
100
AcDbEntity
  8
A-DOOR
100
AcDbLine
 10
-11.325
 20
-13.575
 30
0.0
 11
-12.325
 21
-13.575
 31
0.0
  0
ARC
  5
323
330
17
100
AcDbEntity
  8
A-DOOR
100
AcDbCircle
 10
-11.325
 20
-13.575
 30
0.0
 40
1.0
100
AcDbArc
 50
180.0
 51
270.0
  0
LINE
  5
324
330
17
100
AcDbEntity
  8
A-DOOR
100
AcDbLine
 10
-12.075
 20
-12.775
 30
0.0
 11
-12.075
 21
-13.775
 31
0.0
  0
ARC
  5
325
330
17
100
AcDbEntity
  8
A-DOOR
100
AcDbCircle
 10
-12.075
 20
-12.775
 30
0.0
 40
1.0
100
AcDbArc
 50
-90.0
 51
0.0
  0
LINE
  5
326
330
17
100
AcDbEntity
  8
A-DOOR
100
AcDbLine
 10
-15.025
 20
-13.375
 30
0.0
 11
-13.875000000000002
 21
-13.375
 31
0.0
  0
ARC
  5
327
330
17
100
AcDbEntity
  8
A-DOOR
100
AcDbCircle
 10
-15.025
 20
-13.375
 30
0.0
 40
1.15
100
AcDbArc
 50
0.0
 51
90.0
  0
LINE
  5
328
330
17
100
AcDbEntity
  8
A-DOOR
100
AcDbLine
 10
-12.825
 20
-13.675
 30
0.0
 11
-12.091657354379103
 21
-13.517855147366951
 31
0.0
  0
ARC
  5
329
330
17
100
AcDbEntity
  8
A-DOOR
100
AcDbCircle
 10
-12.825
 20
-13.675
 30
0.0
 40
0.75
100
AcDbArc
 50
12.094757077012142
 51
102.09475707701215
  0
LINE
  5
32A
330
17
100
AcDbEntity
  8
A-DOOR
100
AcDbLine
 10
-12.575
 20
-13.375
 30
0.0
 11
-12.575
 21
-14.125
 31
0.0
  0
ARC
  5
32B
330
17
100
AcDbEntity
  8
A-DOOR
100
AcDbCircle
 10
-12.575
 20
-13.375
 30
0.0
 40
0.75
100
AcDbArc
 50
-90.0
 51
0.0
  0
LINE
  5
32C
330
17
100
AcDbEntity
  8
A-DOOR
100
AcDbLine
 10
-13.625
 20
-13.975
 30
0.0
 11
-15.025
 21
-13.975
 31
0.0
  0
ARC
  5
32D
330
17
100
AcDbEntity
  8
A-DOOR
100
AcDbCircle
 10
-13.625
 20
-13.975
 30
0.0
 40
1.4
100
AcDbArc
 50
180.0
 51
270.0
  0
LINE
  5
32E
330
17
100
AcDbEntity
  8
A-DOOR
100
AcDbLine
 10
-13.575
 20
-13.275
 30
0.0
 11
-13.575
 21
-14.125000000000002
 31
0.0
  0
ARC
  5
32F
330
17
100
AcDbEntity
  8
A-DOOR
100
AcDbCircle
 10
-13.575
 20
-13.275
 30
0.0
 40
0.85
100
AcDbArc
 50
-90.0
 51
0.0
  0
LINE
  5
330
330
17
100
AcDbEntity
  8
A-DOOR
100
AcDbLine
 10
-14.325
 20
-13.375
 30
0.0
 11
-14.325
 21
-14.125
 31
0.0
  0
ARC
  5
331
330
17
100
AcDbEntity
  8
A-DOOR
100
AcDbCircle
 10
-14.325
 20
-13.375
 30
0.0
 40
0.75
100
AcDbArc
 50
-90.0
 51
0.0
  0
LINE
  5
332
330
17
100
AcDbEntity
  8
A-DOOR
100
AcDbLine
 10
-12.575
 20
-14.025
 30
0.0
 11
-15.024999999999999
 21
-14.025
 31
0.0
  0
ARC
  5
333
330
17
100
AcDbEntity
  8
A-DOOR
100
AcDbCircle
 10
-12.575
 20
-14.025
 30
0.0
 40
2.45
100
AcDbArc
 50
180.0
 51
270.0
  0
LINE
  5
334
330
17
100
AcDbEntity
  8
A-DOOR
100
AcDbLine
 10
-16.225
 20
-14.025
 30
0.0
 11
-15.175
 21
-14.025
 31
0.0
  0
ARC
  5
335
330
17
100
AcDbEntity
  8
A-DOOR
100
AcDbCircle
 10
-16.225
 20
-14.025
 30
0.0
 40
1.05
100
AcDbArc
 50
0.0
 51
90.0
  0
LINE
  5
336
330
17
100
AcDbEntity
  8
A-DOOR
100
AcDbLine
 10
-15.025
 20
-15.075
 30
0.0
 11
-16.125
 21
-15.075
 31
0.0
  0
ARC
  5
337
330
17
100
AcDbEntity
  8
A-DOOR
100
AcDbCircle
 10
-15.025
 20
-15.075
 30
0.0
 40
1.1
100
AcDbArc
 50
180.0
 51
270.0
  0
LINE
  5
338
330
17
100
AcDbEntity
  8
A-DOOR
100
AcDbLine
 10
-15.575
 20
-16.975
 30
0.0
 11
-15.575
 21
-15.925
 31
0.0
  0
ARC
  5
339
330
17
100
AcDbEntity
  8
A-DOOR
100
AcDbCircle
 10
-15.575
 20
-16.975
 30
0.0
 40
1.05
100
AcDbArc
 50
90.0
 51
180.0
  0
LINE
  5
33A
330
17
100
AcDbEntity
  8
A-DOOR
100
AcDbLine
 10
-14.075
 20
-15.975
 30
0.0
 11
-14.075
 21
-16.975
 31
0.0
  0
ARC
  5
33B
330
17
100
AcDbEntity
  8
A-DOOR
100
AcDbCircle
 10
-14.075
 20
-15.975
 30
0.0
 40
1.0
100
AcDbArc
 50
-90.0
 51
0.0
  0
LINE
  5
33C
330
17
100
AcDbEntity
  8
A-DOOR
100
AcDbLine
 10
-14.875
 20
-16.725
 30
0.0
 11
-16.224999999999998
 21
-16.725
 31
0.0
  0
ARC
  5
33D
330
17
100
AcDbEntity
  8
A-DOOR
100
AcDbCircle
 10
-14.875
 20
-16.725
 30
0.0
 40
1.35
100
AcDbArc
 50
180.0
 51
270.0
  0
LINE
  5
33E
330
17
100
AcDbEntity
  8
A-DOOR
100
AcDbLine
 10
-16.125
 20
-18.325
 30
0.0
 11
-16.125
 21
-17.525
 31
0.0
  0
ARC
  5
33F
330
17
100
AcDbEntity
  8
A-DOOR
100
AcDbCircle
 10
-16.125
 20
-18.325
 30
0.0
 40
0.8
100
AcDbArc
 50
90.0
 51
180.0
  0
LINE
  5
340
330
17
100
AcDbEntity
  8
A-DOOR
100
AcDbLine
 10
-15.075
 20
-19.925
 30
0.0
 11
-15.875
 21
-19.925
 31
0.0
  0
ARC
  5
341
330
17
100
AcDbEntity
  8
A-DOOR
100
AcDbCircle
 10
-15.075
 20
-19.925
 30
0.0
 40
0.8
100
AcDbArc
 50
180.0
 51
270.0
  0
LINE
  5
342
330
17
100
AcDbEntity
  8
A-DOOR
100
AcDbLine
 10
-15.475
 20
-19.375
 30
0.0
 11
-15.475
 21
-20.425
 31
0.0
  0
ARC
  5
343
330
17
100
AcDbEntity
  8
A-DOOR
100
AcDbCircle
 10
-15.475
 20
-19.375
 30
0.0
 40
1.05
100
AcDbArc
 50
-90.0
 51
0.0
  0
LINE
  5
344
330
17
100
AcDbEntity
  8
A-DOOR
100
AcDbLine
 10
-15.475
 20
-20.725
 30
0.0
 11
-15.475
 21
-21.925
 31
0.0
  0
ARC
  5
345
330
17
100
AcDbEntity
  8
A-DOOR
100
AcDbCircle
 10
-15.475
 20
-20.725
 30
0.0
 40
1.2
100
AcDbArc
 50
-90.0
 51
0.0
  0
LINE
  5
346
330
17
100
AcDbEntity
  8
A-DOOR
100
AcDbLine
 10
-10.925
 20
-21.475
 30
0.0
 11
-10.925
 21
-20.725
 31
0.0
  0
ARC
  5
347
330
17
100
AcDbEntity
  8
A-DOOR
100
AcDbCircle
 10
-10.925
 20
-21.475
 30
0.0
 40
0.75
100
AcDbArc
 50
90.0
 51
180.0
  0
LINE
  5
348
330
17
100
AcDbEntity
  8
A-DOOR
100
AcDbLine
 10
-10.575
 20
-20.825
 30
0.0
 11
-10.575
 21
-21.724999999999998
 31
0.0
  0
ARC
  5
349
330
17
100
AcDbEntity
  8
A-DOOR
100
AcDbCircle
 10
-10.575
 20
-20.825
 30
0.0
 40
0.9
100
AcDbArc
 50
-90.0
 51
0.0
  0
LINE
  5
34A
330
17
100
AcDbEntity
  8
A-DOOR
100
AcDbLine
 10
-9.825
 20
-21.875
 30
0.0
 11
-11.524999999999999
 21
-21.875
 31
0.0
  0
ARC
  5
34B
330
17
100
AcDbEntity
  8
A-DOOR
100
AcDbCircle
 10
-9.825
 20
-21.875
 30
0.0
 40
1.7
100
AcDbArc
 50
180.0
 51
270.0
  0
LINE
  5
34C
330
17
100
AcDbEntity
  8
A-DOOR
100
AcDbLine
 10
-10.475
 20
-21.525
 30
0.0
 11
-10.475
 21
-22.625
 31
0.0
  0
ARC
  5
34D
330
17
100
AcDbEntity
  8
A-DOOR
100
AcDbCircle
 10
-10.475
 20
-21.525
 30
0.0
 40
1.1
100
AcDbArc
 50
-90.0
 51
0.0
  0
LINE
  5
34E
330
17
100
AcDbEntity
  8
A-DOOR
100
AcDbLine
 10
-10.025
 20
-22.375
 30
0.0
 11
-11.225000000000001
 21
-22.375
 31
0.0
  0
ARC
  5
34F
330
17
100
AcDbEntity
  8
A-DOOR
100
AcDbCircle
 10
-10.025
 20
-22.375
 30
0.0
 40
1.2
100
AcDbArc
 50
180.0
 51
270.0
  0
LINE
  5
350
330
17
100
AcDbEntity
  8
A-DOOR
100
AcDbLine
 10
-16.575
 20
13.275
 30
0.0
 11
-16.575
 21
12.475
 31
0.0
  0
ARC
  5
351
330
17
100
AcDbEntity
  8
A-DOOR
100
AcDbCircle
 10
-16.575
 20
13.275
 30
0.0
 40
0.8
100
AcDbArc
 50
-90.0
 51
0.0
  0
LINE
  5
352
330
17
100
AcDbEntity
  8
A-DOOR
100
AcDbLine
 10
9.575
 20
-0.675
 30
0.0
 11
15.975000000000001
 21
-0.675
 31
0.0
  0
ARC
  5
353
330
17
100
AcDbEntity
  8
A-DOOR
100
AcDbCircle
 10
9.575
 20
-0.675
 30
0.0
 40
6.4
100
AcDbArc
 50
0.0
 51
90.0
  0
LINE
  5
354
330
17
100
AcDbEntity
  8
A-DOOR
100
AcDbLine
 10
-13.325
 20
-1.125
 30
0.0
 11
-13.325
 21
-0.32500000000000284
 31
0.0
  0
ARC
  5
355
330
17
100
AcDbEntity
  8
A-DOOR
100
AcDbCircle
 10
-13.325
 20
-1.125
 30
0.0
 40
0.8
100
AcDbArc
 50
90.0
 51
180.0
  0
LINE
  5
356
330
17
100
AcDbEntity
  8
A-DOOR
100
AcDbLine
 10
3.775
 20
-1.925
 30
0.0
 11
3.775
 21
-1.175
 31
0.0
  0
ARC
  5
357
330
17
100
AcDbEntity
  8
A-DOOR
100
AcDbCircle
 10
3.775
 20
-1.925
 30
0.0
 40
0.75
100
AcDbArc
 50
90.0
 51
180.0
  0
LINE
  5
358
330
17
100
AcDbEntity
  8
A-DOOR
100
AcDbLine
 10
-16.525
 20
-1.325
 30
0.0
 11
-16.367602308499475
 21
-2.007056663168939
 31
0.0
  0
ARC
  5
359
330
17
100
AcDbEntity
  8
A-DOOR
100
AcDbCircle
 10
-16.525
 20
-1.325
 30
0.0
 40
0.7
100
AcDbArc
 50
-77.00538320808359
 51
12.994616791916414
  0
LINE
  5
35A
330
17
100
AcDbEntity
  8
A-DOOR
100
AcDbLine
 10
-11.025
 20
-2.725
 30
0.0
 11
-10.275
 21
-3.1249999999999987
 31
0.0
  0
ARC
  5
35B
330
17
100
AcDbEntity
  8
A-DOOR
100
AcDbCircle
 10
-11.025
 20
-2.725
 30
0.0
 40
0.85
100
AcDbArc
 50
-28.072486935852876
 51
61.92751306414712
  0
LINE
  5
35C
330
17
100
AcDbEntity
  8
A-DOOR
100
AcDbLine
 10
-22.275
 20
-3.675
 30
0.0
 11
-20.775
 21
-3.675
 31
0.0
  0
ARC
  5
35D
330
17
100
AcDbEntity
  8
A-DOOR
100
AcDbCircle
 10
-22.275
 20
-3.675
 30
0.0
 40
1.5
100
AcDbArc
 50
0.0
 51
90.0
  0
LINE
  5
35E
330
17
100
AcDbEntity
  8
A-DOOR
100
AcDbLine
 10
-11.375
 20
-4.575
 30
0.0
 11
-11.375
 21
-3.624999999999998
 31
0.0
  0
ARC
  5
35F
330
17
100
AcDbEntity
  8
A-DOOR
100
AcDbCircle
 10
-11.375
 20
-4.575
 30
0.0
 40
0.95
100
AcDbArc
 50
90.0
 51
180.0
  0
LINE
  5
360
330
17
100
AcDbEntity
  8
A-DOOR
100
AcDbLine
 10
-15.825
 20
-4.075
 30
0.0
 11
-16.525
 21
-4.075
 31
0.0
  0
ARC
  5
361
330
17
100
AcDbEntity
  8
A-DOOR
100
AcDbCircle
 10
-15.825
 20
-4.075
 30
0.0
 40
0.7
100
AcDbArc
 50
180.0
 51
270.0
  0
LINE
  5
362
330
17
100
AcDbEntity
  8
A-DOOR
100
AcDbLine
 10
-18.625
 20
-5.075
 30
0.0
 11
-19.54022603309605
 21
-5.685150688730699
 31
0.0
  0
ARC
  5
363
330
17
100
AcDbEntity
  8
A-DOOR
100
AcDbCircle
 10
-18.625
 20
-5.075
 30
0.0
 40
1.1
100
AcDbArc
 50
-146.30993247402026
 51
-56.30993247402026
  0
LINE
  5
364
330
17
100
AcDbEntity
  8
A-DOOR
100
AcDbLine
 10
-18.375
 20
-5.075
 30
0.0
 11
-17.516691574440582
 21
-4.166202843525323
 31
0.0
  0
ARC
  5
365
330
17
100
AcDbEntity
  8
A-DOOR
100
AcDbCircle
 10
-18.375
 20
-5.075
 30
0.0
 40
1.25
100
AcDbArc
 50
46.63657704161674
 51
136.63657704161673
  0
LINE
  5
366
330
17
100
AcDbEntity
  8
A-DOOR
100
AcDbLine
 10
-18.125
 20
-5.175
 30
0.0
 11
-16.875
 21
-5.175
 31
0.0
  0
ARC
  5
367
330
17
100
AcDbEntity
  8
A-DOOR
100
AcDbCircle
 10
-18.125
 20
-5.175
 30
0.0
 40
1.25
100
AcDbArc
 50
0.0
 51
90.0
  0
LINE
  5
368
330
17
100
AcDbEntity
  8
A-DOOR
100
AcDbLine
 10
-17.775
 20
-2.675
 30
0.0
 11
-18.925
 21
-2.675
 31
0.0
  0
ARC
  5
369
330
17
100
AcDbEntity
  8
A-DOOR
100
AcDbCircle
 10
-17.775
 20
-2.675
 30
0.0
 40
1.15
100
AcDbArc
 50
180.0
 51
270.0
  0
LINE
  5
36A
330
17
100
AcDbEntity
  8
A-DOOR
100
AcDbLine
 10
-18.875
 20
-2.675
 30
0.0
 11
-19.665437097847793
 21
-3.201958065231861
 31
0.0
  0
ARC
  5
36B
330
17
100
AcDbEntity
  8
A-DOOR
100
AcDbCircle
 10
-18.875
 20
-2.675
 30
0.0
 40
0.95
100
AcDbArc
 50
-146.30993247402023
 51
-56.30993247402023
  0
LINE
  5
36C
330
17
100
AcDbEntity
  8
A-DOOR
100
AcDbLine
 10
-11.775
 20
-5.575
 30
0.0
 11
-12.090672196088141
 21
-6.364180490220352
 31
0.0
  0
ARC
  5
36D
330
17
100
AcDbEntity
  8
A-DOOR
100
AcDbCircle
 10
-11.775
 20
-5.575
 30
0.0
 40
0.85
100
AcDbArc
 50
-111.80140948635186
 51
-21.801409486351858
  0
LINE
  5
36E
330
17
100
AcDbEntity
  8
A-DOOR
100
AcDbLine
 10
-11.125
 20
-5.475
 30
0.0
 11
-11.125
 21
-6.675
 31
0.0
  0
ARC
  5
36F
330
17
100
AcDbEntity
  8
A-DOOR
100
AcDbCircle
 10
-11.125
 20
-5.475
 30
0.0
 40
1.2
100
AcDbArc
 50
-90.0
 51
0.0
  0
LINE
  5
370
330
17
100
AcDbEntity
  8
A-DOOR
100
AcDbLine
 10
-20.275
 20
-7.675
 30
0.0
 11
-19.603220191470843
 21
-7.003220191470843
 31
0.0
  0
ARC
  5
371
330
17
100
AcDbEntity
  8
A-DOOR
100
AcDbCircle
 10
-20.275
 20
-7.675
 30
0.0
 40
0.95
100
AcDbArc
 50
45.00000000000008
 51
135.00000000000009
  0
LINE
  5
372
330
17
100
AcDbEntity
  8
A-DOOR
100
AcDbLine
 10
-19.625
 20
-6.175
 30
0.0
 11
-19.625
 21
-7.075000000000001
 31
0.0
  0
ARC
  5
373
330
17
100
AcDbEntity
  8
A-DOOR
100
AcDbCircle
 10
-19.625
 20
-6.175
 30
0.0
 40
0.9
100
AcDbArc
 50
-90.0
 51
0.0
  0
LINE
  5
374
330
17
100
AcDbEntity
  8
A-DOOR
100
AcDbLine
 10
-20.625
 20
-5.225
 30
0.0
 11
-21.634013857123637
 21
-6.3349152428360025
 31
0.0
  0
ARC
  5
375
330
17
100
AcDbEntity
  8
A-DOOR
100
AcDbCircle
 10
-20.625
 20
-5.225
 30
0.0
 40
1.5
100
AcDbArc
 50
-132.27368900609372
 51
-42.27368900609372
  0
LINE
  5
376
330
17
100
AcDbEntity
  8
A-DOOR
100
AcDbLine
 10
-22.625
 20
-5.175
 30
0.0
 11
-23.544233186675047
 21
-6.09423318667505
 31
0.0
  0
ARC
  5
377
330
17
100
AcDbEntity
  8
A-DOOR
100
AcDbCircle
 10
-22.625
 20
-5.175
 30
0.0
 40
1.3
100
AcDbArc
 50
-134.9999999999999
 51
-44.999999999999886
  0
LINE
  5
378
330
17
100
AcDbEntity
  8
A-DOOR
100
AcDbLine
 10
-22.375
 20
-6.475
 30
0.0
 11
-21.49891204764086
 21
-6.681138341731563
 31
0.0
  0
ARC
  5
379
330
17
100
AcDbEntity
  8
A-DOOR
100
AcDbCircle
 10
-22.375
 20
-6.475
 30
0.0
 40
0.9
100
AcDbArc
 50
-13.240519915187253
 51
76.75948008481275
  0
LINE
  5
37A
330
17
100
AcDbEntity
  8
A-DOOR
100
AcDbLine
 10
6.675
 20
-7.325
 30
0.0
 11
6.675
 21
-8.224999999999998
 31
0.0
  0
ARC
  5
37B
330
17
100
AcDbEntity
  8
A-DOOR
100
AcDbCircle
 10
6.675
 20
-7.325
 30
0.0
 40
0.9
100
AcDbArc
 50
-90.0
 51
0.0
  0
LINE
  5
37C
330
17
100
AcDbEntity
  8
A-DOOR
100
AcDbLine
 10
6.475
 20
-8.475
 30
0.0
 11
6.475
 21
-7.575000000000001
 31
0.0
  0
ARC
  5
37D
330
17
100
AcDbEntity
  8
A-DOOR
100
AcDbCircle
 10
6.475
 20
-8.475
 30
0.0
 40
0.9
100
AcDbArc
 50
90.0
 51
180.0
  0
LINE
  5
37E
330
17
100
AcDbEntity
  8
A-DOOR
100
AcDbLine
 10
-21.525
 20
-8.275
 30
0.0
 11
-17.375
 21
-8.275
 31
0.0
  0
ARC
  5
37F
330
17
100
AcDbEntity
  8
A-DOOR
100
AcDbCircle
 10
-21.525
 20
-8.275
 30
0.0
 40
4.15
100
AcDbArc
 50
0.0
 51
90.0
  0
LINE
  5
380
330
17
100
AcDbEntity
  8
A-DOOR
100
AcDbLine
 10
-17.375
 20
-8.275
 30
0.0
 11
-16.49113010564845
 21
-7.3911301056484495
 31
0.0
  0
ARC
  5
381
330
17
100
AcDbEntity
  8
A-DOOR
100
AcDbCircle
 10
-17.375
 20
-8.275
 30
0.0
 40
1.25
100
AcDbArc
 50
44.999999999999936
 51
134.99999999999994
  0
LINE
  5
382
330
17
100
AcDbEntity
  8
A-DOOR
100
AcDbLine
 10
5.325
 20
-6.525
 30
0.0
 11
6.375
 21
-6.525
 31
0.0
  0
ARC
  5
383
330
17
100
AcDbEntity
  8
A-DOOR
100
AcDbCircle
 10
5.325
 20
-6.525
 30
0.0
 40
1.05
100
AcDbArc
 50
0.0
 51
90.0
  0
LINE
  5
384
330
17
100
AcDbEntity
  8
A-DOOR
100
AcDbLine
 10
9.275
 20
-8.575
 30
0.0
 11
9.275
 21
-9.375
 31
0.0
  0
ARC
  5
385
330
17
100
AcDbEntity
  8
A-DOOR
100
AcDbCircle
 10
9.275
 20
-8.575
 30
0.0
 40
0.8
100
AcDbArc
 50
-90.0
 51
0.0
  0
LINE
  5
386
330
17
100
AcDbEntity
  8
A-DOOR
100
AcDbLine
 10
-10.825
 20
-9.475
 30
0.0
 11
-10.825
 21
-7.075000000000001
 31
0.0
  0
ARC
  5
387
330
17
100
AcDbEntity
  8
A-DOOR
100
AcDbCircle
 10
-10.825
 20
-9.475
 30
0.0
 40
2.4
100
AcDbArc
 50
90.0
 51
180.0
  0
LINE
  5
388
330
17
100
AcDbEntity
  8
A-DOOR
100
AcDbLine
 10
-23.625
 20
-9.675
 30
0.0
 11
-22.35223158728363
 21
-8.40223158728363
 31
0.0
  0
ARC
  5
389
330
17
100
AcDbEntity
  8
A-DOOR
100
AcDbCircle
 10
-23.625
 20
-9.675
 30
0.0
 40
1.8
100
AcDbArc
 50
45.0
 51
135.0
  0
LINE
  5
38A
330
17
100
AcDbEntity
  8
A-DOOR
100
AcDbLine
 10
-22.275
 20
-8.425
 30
0.0
 11
-23.6435839291431
 21
-7.107104364528865
 31
0.0
  0
ARC
  5
38B
330
17
100
AcDbEntity
  8
A-DOOR
100
AcDbCircle
 10
-22.275
 20
-8.425
 30
0.0
 40
1.9
100
AcDbArc
 50
136.0809241866607
 51
226.0809241866607
  0
LINE
  5
38C
330
17
100
AcDbEntity
  8
A-DOOR
100
AcDbLine
 10
-22.375
 20
-8.375
 30
0.0
 11
-21.474999999999998
 21
-8.375
 31
0.0
  0
ARC
  5
38D
330
17
100
AcDbEntity
  8
A-DOOR
100
AcDbCircle
 10
-22.375
 20
-8.375
 30
0.0
 40
0.9
100
AcDbArc
 50
0.0
 51
90.0
  0
LINE
  5
38E
330
17
100
AcDbEntity
  8
A-DOOR
100
AcDbLine
 10
-21.775
 20
-6.575
 30
0.0
 11
-22.525
 21
-6.575
 31
0.0
  0
ARC
  5
38F
330
17
100
AcDbEntity
  8
A-DOOR
100
AcDbCircle
 10
-21.775
 20
-6.575
 30
0.0
 40
0.75
100
AcDbArc
 50
180.0
 51
270.0
  0
LINE
  5
390
330
17
100
AcDbEntity
  8
A-DOOR
100
AcDbLine
 10
-21.025
 20
-2.575
 30
0.0
 11
-20.10576681332495
 21
-1.6557668133249508
 31
0.0
  0
ARC
  5
391
330
17
100
AcDbEntity
  8
A-DOOR
100
AcDbCircle
 10
-21.025
 20
-2.575
 30
0.0
 40
1.3
100
AcDbArc
 50
45.000000000000114
 51
135.0000000000001
  0
LINE
  5
392
330
17
100
AcDbEntity
  8
A-DOOR
100
AcDbLine
 10
-17.375
 20
-8.275
 30
0.0
 11
-16.10223158728363
 21
-9.547768412716371
 31
0.0
  0
ARC
  5
393
330
17
100
AcDbEntity
  8
A-DOOR
100
AcDbCircle
 10
-17.375
 20
-8.275
 30
0.0
 40
1.8
100
AcDbArc
 50
-45.0
 51
45.0
  0
LINE
  5
394
330
17
100
AcDbEntity
  8
A-DOOR
100
AcDbLine
 10
-12.375
 20
-9.425
 30
0.0
 11
-11.999175487037888
 21
-10.015581377511888
 31
0.0
  0
ARC
  5
395
330
17
100
AcDbEntity
  8
A-DOOR
100
AcDbCircle
 10
-12.375
 20
-9.425
 30
0.0
 40
0.7
100
AcDbArc
 50
-57.52880770915136
 51
32.47119229084864
  0
LINE
  5
396
330
17
100
AcDbEntity
  8
A-DOOR
100
AcDbLine
 10
-15.075
 20
-9.675
 30
0.0
 11
-15.075
 21
-6.925000000000001
 31
0.0
  0
ARC
  5
397
330
17
100
AcDbEntity
  8
A-DOOR
100
AcDbCircle
 10
-15.075
 20
-9.675
 30
0.0
 40
2.75
100
AcDbArc
 50
90.0
 51
180.0
  0
LINE
  5
398
330
17
100
AcDbEntity
  8
A-DOOR
100
AcDbLine
 10
-11.325
 20
-14.175
 30
0.0
 11
-11.325
 21
-10.924999999999999
 31
0.0
  0
ARC
  5
399
330
17
100
AcDbEntity
  8
A-DOOR
100
AcDbCircle
 10
-11.325
 20
-14.175
 30
0.0
 40
3.25
100
AcDbArc
 50
90.0
 51
180.0
  0
LINE
  5
39A
330
17
100
AcDbEntity
  8
A-WINDOW
100
AcDbLine
 10
16.325
 20
15.675
 30
0.0
 11
16.325
 21
14.625
 31
0.0
  0
LINE
  5
39B
330
17
100
AcDbEntity
  8
A-WINDOW
100
AcDbLine
 10
16.425
 20
15.675
 30
0.0
 11
16.425
 21
14.625
 31
0.0
  0
LINE
  5
39C
330
17
100
AcDbEntity
  8
A-WINDOW
100
AcDbLine
 10
5.225
 20
13.575000000000003
 30
0.0
 11
5.225
 21
15.924999999999997
 31
0.0
  0
LINE
  5
39D
330
17
100
AcDbEntity
  8
A-WINDOW
100
AcDbLine
 10
5.125
 20
13.575000000000003
 30
0.0
 11
5.125
 21
15.924999999999997
 31
0.0
  0
LINE
  5
39E
330
17
100
AcDbEntity
  8
A-WINDOW
100
AcDbLine
 10
10.175
 20
9.674999999999999
 30
0.0
 11
15.675
 21
9.674999999999999
 31
0.0
  0
LINE
  5
39F
330
17
100
AcDbEntity
  8
A-WINDOW
100
AcDbLine
 10
10.175
 20
9.775
 30
0.0
 11
15.675
 21
9.775
 31
0.0
  0
LINE
  5
3A0
330
17
100
AcDbEntity
  8
A-WINDOW
100
AcDbLine
 10
16.525000000000002
 20
-6.225
 30
0.0
 11
16.525000000000002
 21
-5.275
 31
0.0
  0
LINE
  5
3A1
330
17
100
AcDbEntity
  8
A-WINDOW
100
AcDbLine
 10
16.425
 20
-6.225
 30
0.0
 11
16.425
 21
-5.275
 31
0.0
  0
LINE
  5
3A2
330
17
100
AcDbEntity
  8
A-WINDOW
100
AcDbLine
 10
5.925
 20
-6.475
 30
0.0
 11
5.925
 21
-7.175000000000001
 31
0.0
  0
LINE
  5
3A3
330
17
100
AcDbEntity
  8
A-WINDOW
100
AcDbLine
 10
6.0249999999999995
 20
-6.475
 30
0.0
 11
6.0249999999999995
 21
-7.175000000000001
 31
0.0
  0
LINE
  5
3A4
330
17
100
AcDbEntity
  8
A-WINDOW
100
AcDbLine
 10
8.924999999999999
 20
-6.575
 30
0.0
 11
8.924999999999999
 21
-7.575
 31
0.0
  0
LINE
  5
3A5
330
17
100
AcDbEntity
  8
A-WINDOW
100
AcDbLine
 10
9.025
 20
-6.575
 30
0.0
 11
9.025
 21
-7.575
 31
0.0
  0
LINE
  5
3A6
330
17
100
AcDbEntity
  8
A-WINDOW
100
AcDbLine
 10
-13.125
 20
-19.675
 30
0.0
 11
-14.024999999999999
 21
-19.675
 31
0.0
  0
LINE
  5
3A7
330
17
100
AcDbEntity
  8
A-WINDOW
100
AcDbLine
 10
-13.125
 20
-19.775000000000002
 30
0.0
 11
-14.024999999999999
 21
-19.775000000000002
 31
0.0
  0
LINE
  5
3A8
330
17
100
AcDbEntity
  8
A-WINDOW
100
AcDbLine
 10
7.125
 20
-6.575
 30
0.0
 11
8.075
 21
-6.575
 31
0.0
  0
LINE
  5
3A9
330
17
100
AcDbEntity
  8
A-WINDOW
100
AcDbLine
 10
7.125
 20
-6.4750000000000005
 30
0.0
 11
8.075
 21
-6.4750000000000005
 31
0.0
  0
LWPOLYLINE
  5
3AA
330
17
100
AcDbEntity
  8
A-ROOM
100
AcDbPolyline
 90
4
 70
1
 10
5.375
 20
-0.425
 10
16.275
 20
-0.425
 10
16.275
 20
9.425
 10
5.375
 20
9.425
  0
TEXT
  5
3AB
330
17
100
AcDbEntity
  8
A-TEXT
100
AcDbText
 10
11.6944
 20
4.679
 30
0.0
 40
0.25
  1
R1  76.8 m²
 72
1
 11
11.6944
 21
4.679
 31
0.0
100
AcDbText
 73
2
  0
LWPOLYLINE
  5
3AC
330
17
100
AcDbEntity
  8
A-ROOM
100
AcDbPolyline
 90
4
 70
1
 10
4.275
 20
-9.375
 10
16.175
 20
-9.375
 10
16.175
 20
-0.975
 10
4.275
 20
-0.975
  0
TEXT
  5
3AD
330
17
100
AcDbEntity
  8
A-TEXT
100
AcDbText
 10
11.591
 20
-5.0476
 30
0.0
 40
0.25
  1
R2  65.1 m²
 72
1
 11
11.591
 21
-5.0476
 31
0.0
100
AcDbText
 73
2
  0
LWPOLYLINE
  5
3AE
330
17
100
AcDbEntity
  8
A-ROOM
100
AcDbPolyline
 90
4
 70
1
 10
3.725
 20
9.975
 10
16.125
 20
9.975
 10
16.125
 20
16.275
 10
3.725
 20
16.275
  0
TEXT
  5
3AF
330
17
100
AcDbEntity
  8
A-TEXT
100
AcDbText
 10
10.8726
 20
12.8757
 30
0.0
 40
0.25
  1
R3  59.8 m²
 72
1
 11
10.8726
 21
12.8757
 31
0.0
100
AcDbText
 73
2
  0
LWPOLYLINE
  5
3B0
330
17
100
AcDbEntity
  8
A-ROOM
100
AcDbPolyline
 90
4
 70
1
 10
16.675
 20
10.925
 10
20.025
 20
10.925
 10
20.025
 20
15.925
 10
16.675
 20
15.925
  0
TEXT
  5
3B1
330
17
100
AcDbEntity
  8
A-TEXT
100
AcDbText
 10
18.462
 20
13.4321
 30
0.0
 40
0.25
  1
R4  14.7 m²
 72
1
 11
18.462
 21
13.4321
 31
0.0
100
AcDbText
 73
2
  0
LWPOLYLINE
  5
3B2
330
17
100
AcDbEntity
  8
A-ROOM
100
AcDbPolyline
 90
4
 70
1
 10
-19.975
 20
7.125
 10
-16.975
 20
7.125
 10
-16.975
 20
10.325
 10
-19.975
 20
10.325
  0
TEXT
  5
3B3
330
17
100
AcDbEntity
  8
A-TEXT
100
AcDbText
 10
-18.8543
 20
9.0805
 30
0.0
 40
0.25
  1
R5  6.5 m²
 72
1
 11
-18.8543
 21
9.0805
 31
0.0
100
AcDbText
 73
2
  0
LWPOLYLINE
  5
3B4
330
17
100
AcDbEntity
  8
A-ROOM
100
AcDbPolyline
 90
4
 70
1
 10
-19.325
 20
-8.025
 10
-16.725
 20
-8.025
 10
-16.725
 20
-5.475
 10
-19.325
 20
-5.475
  0
TEXT
  5
3B5
330
17
100
AcDbEntity
  8
A-TEXT
100
AcDbText
 10
-18.1112
 20
-6.7031
 30
0.0
 40
0.25
  1
R6  5.5 m²
 72
1
 11
-18.1112
 21
-6.7031
 31
0.0
100
AcDbText
 73
2
  0
LWPOLYLINE
  5
3B6
330
17
100
AcDbEntity
  8
A-ROOM
100
AcDbPolyline
 90
4
 70
1
 10
5.425
 20
-2.425
 10
9.175
 20
-2.425
 10
9.175
 20
-0.975
 10
5.425
 20
-0.975
  0
TEXT
  5
3B7
330
17
100
AcDbEntity
  8
A-TEXT
100
AcDbText
 10
7.3272
 20
-1.664
 30
0.0
 40
0.25
  1
R7  5.3 m²
 72
1
 11
7.3272
 21
-1.664
 31
0.0
100
AcDbText
 73
2
  0
LWPOLYLINE
  5
3B8
330
17
100
AcDbEntity
  8
A-ROOM
100
AcDbPolyline
 90
4
 70
1
 10
16.275
 20
0.275
 10
18.825
 20
0.275
 10
18.825
 20
2.625
 10
16.275
 20
2.625
  0
TEXT
  5
3B9
330
17
100
AcDbEntity
  8
A-TEXT
100
AcDbText
 10
17.7515
 20
1.6345
 30
0.0
 40
0.25
  1
R8  4.5 m²
 72
1
 11
17.7515
 21
1.6345
 31
0.0
100
AcDbText
 73
2
  0
LWPOLYLINE
  5
3BA
330
17
100
AcDbEntity
  8
A-ROOM
100
AcDbPolyline
 90
4
 70
1
 10
6.575
 20
16.475
 10
16.225
 20
16.475
 10
16.225
 20
17.125
 10
6.575
 20
17.125
  0
TEXT
  5
3BB
330
17
100
AcDbEntity
  8
A-TEXT
100
AcDbText
 10
10.8442
 20
16.9109
 30
0.0
 40
0.25
  1
R9  4.2 m²
 72
1
 11
10.8442
 21
16.9109
 31
0.0
100
AcDbText
 73
2
  0
LWPOLYLINE
  5
3BC
330
17
100
AcDbEntity
  8
A-ROOM
100
AcDbPolyline
 90
4
 70
1
 10
-20.275
 20
-5.225
 10
-17.775
 20
-5.225
 10
-17.775
 20
-2.975
 10
-20.275
 20
-2.975
  0
TEXT
  5
3BD
330
17
100
AcDbEntity
  8
A-TEXT
100
AcDbText
 10
-19.0092
 20
-4.0398
 30
0.0
 40
0.25
  1
R10  3.9 m²
 72
1
 11
-19.0092
 21
-4.0398
 31
0.0
100
AcDbText
 73
2
  0
LWPOLYLINE
  5
3BE
330
17
100
AcDbEntity
  8
A-ROOM
100
AcDbPolyline
 90
4
 70
1
 10
6.975
 20
-9.175
 10
8.725
 20
-9.175
 10
8.725
 20
-6.825
 10
6.975
 20
-6.825
  0
TEXT
  5
3BF
330
17
100
AcDbEntity
  8
A-TEXT
100
AcDbText
 10
7.8636
 20
-7.9356
 30
0.0
 40
0.25
  1
R11  3.9 m²
 72
1
 11
7.8636
 21
-7.9356
 31
0.0
100
AcDbText
 73
2
  0
LWPOLYLINE
  5
3C0
330
17
100
AcDbEntity
  8
A-ROOM
100
AcDbPolyline
 90
4
 70
1
 10
-15.425
 20
-5.925
 10
-14.525
 20
-5.925
 10
-14.525
 20
-2.025
 10
-15.425
 20
-2.025
  0
TEXT
  5
3C1
330
17
100
AcDbEntity
  8
A-TEXT
100
AcDbText
 10
-14.9497
 20
-4.0413
 30
0.0
 40
0.25
  1
R12  3.0 m²
 72
1
 11
-14.9497
 21
-4.0413
 31
0.0
100
AcDbText
 73
2
  0
LWPOLYLINE
  5
3C2
330
17
100
AcDbEntity
  8
A-ROOM
100
AcDbPolyline
 90
4
 70
1
 10
-16.625
 20
-9.275
 10
-15.325
 20
-9.275
 10
-15.325
 20
-7.075
 10
-16.625
 20
-7.075
  0
TEXT
  5
3C3
330
17
100
AcDbEntity
  8
A-TEXT
100
AcDbText
 10
-15.89
 20
-8.1977
 30
0.0
 40
0.25
  1
R13  2.2 m²
 72
1
 11
-15.89
 21
-8.1977
 31
0.0
100
AcDbText
 73
2
  0
LWPOLYLINE
  5
3C4
330
17
100
AcDbEntity
  8
A-ROOM
100
AcDbPolyline
 90
4
 70
1
 10
16.575
 20
16.475
 10
20.075
 20
16.475
 10
20.075
 20
17.125
 10
16.575
 20
17.125
  0
TEXT
  5
3C5
330
17
100
AcDbEntity
  8
A-TEXT
100
AcDbText
 10
18.3149
 20
16.8292
 30
0.0
 40
0.25
  1
R14  2.2 m²
 72
1
 11
18.3149
 21
16.8292
 31
0.0
100
AcDbText
 73
2
  0
LWPOLYLINE
  5
3C6
330
17
100
AcDbEntity
  8
A-ROOM
100
AcDbPolyline
 90
4
 70
1
 10
2.175
 20
16.375
 10
6.025
 20
16.375
 10
6.025
 20
17.125
 10
2.175
 20
17.125
  0
TEXT
  5
3C7
330
17
100
AcDbEntity
  8
A-TEXT
100
AcDbText
 10
4.0919
 20
16.8621
 30
0.0
 40
0.25
  1
R15  2.1 m²
 72
1
 11
4.0919
 21
16.8621
 31
0.0
100
AcDbText
 73
2
  0
LWPOLYLINE
  5
3C8
330
17
100
AcDbEntity
  8
A-ROOM
100
AcDbPolyline
 90
4
 70
1
 10
-22.325
 20
-5.975
 10
-20.925
 20
-5.975
 10
-20.925
 20
-3.975
 10
-22.325
 20
-3.975
  0
TEXT
  5
3C9
330
17
100
AcDbEntity
  8
A-TEXT
100
AcDbText
 10
-21.6608
 20
-4.8451
 30
0.0
 40
0.25
  1
R16  2.1 m²
 72
1
 11
-21.6608
 21
-4.8451
 31
0.0
100
AcDbText
 73
2
  0
LWPOLYLINE
  5
3CA
330
17
100
AcDbEntity
  8
A-ROOM
100
AcDbPolyline
 90
4
 70
1
 10
-24.175
 20
-9.575
 10
-23.075
 20
-9.575
 10
-23.075
 20
-7.225
 10
-24.175
 20
-7.225
  0
TEXT
  5
3CB
330
17
100
AcDbEntity
  8
A-TEXT
100
AcDbText
 10
-23.7482
 20
-8.375
 30
0.0
 40
0.25
  1
R17  1.9 m²
 72
1
 11
-23.7482
 21
-8.375
 31
0.0
100
AcDbText
 73
2
  0
LWPOLYLINE
  5
3CC
330
17
100
AcDbEntity
  8
A-ROOM
100
AcDbPolyline
 90
4
 70
1
 10
-24.175
 20
-5.425
 10
-22.975
 20
-5.425
 10
-22.975
 20
-3.575
 10
-24.175
 20
-3.575
  0
TEXT
  5
3CD
330
17
100
AcDbEntity
  8
A-TEXT
100
AcDbText
 10
-23.6942
 20
-4.6224
 30
0.0
 40
0.25
  1
R18  1.7 m²
 72
1
 11
-23.6942
 21
-4.6224
 31
0.0
100
AcDbText
 73
2
  0
LWPOLYLINE
  5
3CE
330
17
100
AcDbEntity
  8
A-ROOM
100
AcDbPolyline
 90
4
 70
1
 10
-13.575
 20
11.825
 10
-12.375
 20
11.825
 10
-12.375
 20
13.525
 10
-13.575
 20
13.525
  0
TEXT
  5
3CF
330
17
100
AcDbEntity
  8
A-TEXT
100
AcDbText
 10
-13.0716
 20
12.6878
 30
0.0
 40
0.25
  1
R19  1.7 m²
 72
1
 11
-13.0716
 21
12.6878
 31
0.0
100
AcDbText
 73
2
  0
LWPOLYLINE
  5
3D0
330
17
100
AcDbEntity
  8
A-ROOM
100
AcDbPolyline
 90
4
 70
1
 10
-22.925
 20
-8.025
 10
-21.175
 20
-8.025
 10
-21.175
 20
-6.875
 10
-22.925
 20
-6.875
  0
TEXT
  5
3D1
330
17
100
AcDbEntity
  8
A-TEXT
100
AcDbText
 10
-22.0213
 20
-7.3901
 30
0.0
 40
0.25
  1
R20  1.7 m²
 72
1
 11
-22.0213
 21
-7.3901
 31
0.0
100
AcDbText
 73
2
  0
LWPOLYLINE
  5
3D2
330
17
100
AcDbEntity
  8
A-ROOM
100
AcDbPolyline
 90
4
 70
1
 10
8.475
 20
8.275
 10
9.825
 20
8.275
 10
9.825
 20
9.175
 10
8.475
 20
9.175
  0
TEXT
  5
3D3
330
17
100
AcDbEntity
  8
A-TEXT
100
AcDbText
 10
9.1236
 20
8.7385
 30
0.0
 40
0.25
  1
R21  1.1 m²
 72
1
 11
9.1236
 21
8.7385
 31
0.0
100
AcDbText
 73
2
  0
LWPOLYLINE
  5
3D4
330
17
100
AcDbEntity
  8
A-ROOM
100
AcDbPolyline
 90
4
 70
1
 10
3.175
 20
-8.925
 10
3.725
 20
-8.925
 10
3.725
 20
-6.925
 10
3.175
 20
-6.925
  0
TEXT
  5
3D5
330
17
100
AcDbEntity
  8
A-TEXT
100
AcDbText
 10
3.425
 20
-7.9
 30
0.0
 40
0.25
  1
R22  1.1 m²
 72
1
 11
3.425
 21
-7.9
 31
0.0
100
AcDbText
 73
2
  0
LWPOLYLINE
  5
3D6
330
17
100
AcDbEntity
  8
A-ROOM
100
AcDbPolyline
 90
4
 70
1
 10
0.675
 20
-9.025
 10
1.275
 20
-9.025
 10
1.275
 20
-7.275
 10
0.675
 20
-7.275
  0
TEXT
  5
3D7
330
17
100
AcDbEntity
  8
A-TEXT
100
AcDbText
 10
0.9507
 20
-8.123
 30
0.0
 40
0.25
  1
R23  1.0 m²
 72
1
 11
0.9507
 21
-8.123
 31
0.0
100
AcDbText
 73
2
  0
LWPOLYLINE
  5
3D8
330
17
100
AcDbEntity
  8
A-ROOM
100
AcDbPolyline
 90
4
 70
1
 10
1.825
 20
-9.075
 10
2.625
 20
-9.075
 10
2.625
 20
-7.725
 10
1.825
 20
-7.725
  0
TEXT
  5
3D9
330
17
100
AcDbEntity
  8
A-TEXT
100
AcDbText
 10
2.1862
 20
-8.3888
 30
0.0
 40
0.25
  1
R24  1.0 m²
 72
1
 11
2.1862
 21
-8.3888
 31
0.0
100
AcDbText
 73
2
  0
LWPOLYLINE
  5
3DA
330
17
100
AcDbEntity
  8
A-ROOM
100
AcDbPolyline
 90
4
 70
1
 10
-17.125
 20
6.925
 10
-15.675
 20
6.925
 10
-15.675
 20
7.625
 10
-17.125
 20
7.625
  0
TEXT
  5
3DB
330
17
100
AcDbEntity
  8
A-TEXT
100
AcDbText
 10
-16.4125
 20
7.3102
 30
0.0
 40
0.25
  1
R25  1.0 m²
 72
1
 11
-16.4125
 21
7.3102
 31
0.0
100
AcDbText
 73
2
  0
LWPOLYLINE
  5
3DC
330
17
100
AcDbEntity
  8
A-ROOM
100
AcDbPolyline
 90
4
 70
1
 10
6.275
 20
0.675
 10
6.975
 20
0.675
 10
6.975
 20
1.975
 10
6.275
 20
1.975
  0
TEXT
  5
3DD
330
17
100
AcDbEntity
  8
A-TEXT
100
AcDbText
 10
6.5991
 20
1.3501
 30
0.0
 40
0.25
  1
R26  0.9 m²
 72
1
 11
6.5991
 21
1.3501
 31
0.0
100
AcDbText
 73
2
  0
TEXT
  5
3DE
330
17
100
AcDbEntity
  8
A-TEXT
100
AcDbText
 10
-23.625
 20
-24.575000762939453
 30
0.0
 40
0.4
  1
Floor 0  —  660 walls  ·  146 doors  ·  8 windows
 11
-23.625
 21
-24.575000762939453
 31
0.0
100
AcDbText
  0
ENDSEC
  0
SECTION
  2
OBJECTS
  0
DICTIONARY
  5
A
330
0
100
AcDbDictionary
281
1
  3
ACAD_COLOR
350
B
  3
ACAD_GROUP
350
C
  3
ACAD_LAYOUT
350
D
  3
ACAD_MATERIAL
350
E
  3
ACAD_MLEADERSTYLE
350
F
  3
ACAD_MLINESTYLE
350
10
  3
ACAD_PLOTSETTINGS
350
11
  3
ACAD_PLOTSTYLENAME
350
12
  3
ACAD_SCALELIST
350
14
  3
ACAD_TABLESTYLE
350
15
  3
ACAD_VISUALSTYLE
350
16
  3
EZDXF_META
350
2D
  0
DICTIONARY
  5
B
330
A
100
AcDbDictionary
281
1
  0
DICTIONARY
  5
C
330
A
100
AcDbDictionary
281
1
  0
DICTIONARY
  5
D
330
A
100
AcDbDictionary
281
1
  3
Model
350
1A
  3
Layout1
350
1E
  0
DICTIONARY
  5
E
330
A
100
AcDbDictionary
281
1
  3
ByBlock
350
1F
  3
ByLayer
350
20
  3
Global
350
21
  0
DICTIONARY
  5
F
330
A
100
AcDbDictionary
281
1
  3
Standard
350
2C
  0
DICTIONARY
  5
10
330
A
100
AcDbDictionary
281
1
  3
Standard
350
22
  0
DICTIONARY
  5
11
330
A
100
AcDbDictionary
281
1
  0
ACDBDICTIONARYWDFLT
  5
12
330
A
100
AcDbDictionary
281
1
  3
Normal
350
13
100
AcDbDictionaryWithDefault
340
13
  0
ACDBPLACEHOLDER
  5
13
330
12
  0
DICTIONARY
  5
14
330
A
100
AcDbDictionary
281
1
  0
DICTIONARY
  5
15
330
A
100
AcDbDictionary
281
1
  0
DICTIONARY
  5
16
330
A
100
AcDbDictionary
281
1
  0
LAYOUT
  5
1A
330
D
100
AcDbPlotSettings
  1

  4
A3
  6

 40
7.5
 41
20.0
 42
7.5
 43
20.0
 44
420.0
 45
297.0
 46
0.0
 47
0.0
 48
0.0
 49
0.0
140
0.0
141
0.0
142
1.0
143
1.0
 70
1024
 72
1
 73
0
 74
5
  7

 75
16
 76
0
 77
2
 78
300
147
1.0
148
0.0
149
0.0
100
AcDbLayout
  1
Model
 70
1
 71
0
 10
0.0
 20
0.0
 11
420.0
 21
297.0
 12
0.0
 22
0.0
 32
0.0
 14
1e+20
 24
1e+20
 34
1e+20
 15
-1e+20
 25
-1e+20
 35
-1e+20
146
0.0
 13
0.0
 23
0.0
 33
0.0
 16
1.0
 26
0.0
 36
0.0
 17
0.0
 27
1.0
 37
0.0
 76
1
330
17
  0
LAYOUT
  5
1E
330
D
100
AcDbPlotSettings
  1

  4
A3
  6

 40
7.5
 41
20.0
 42
7.5
 43
20.0
 44
420.0
 45
297.0
 46
0.0
 47
0.0
 48
0.0
 49
0.0
140
0.0
141
0.0
142
1.0
143
1.0
 70
0
 72
1
 73
0
 74
5
  7

 75
16
 76
0
 77
2
 78
300
147
1.0
148
0.0
149
0.0
100
AcDbLayout
  1
Layout1
 70
1
 71
1
 10
0.0
 20
0.0
 11
420.0
 21
297.0
 12
0.0
 22
0.0
 32
0.0
 14
1e+20
 24
1e+20
 34
1e+20
 15
-1e+20
 25
-1e+20
 35
-1e+20
146
0.0
 13
0.0
 23
0.0
 33
0.0
 16
1.0
 26
0.0
 36
0.0
 17
0.0
 27
1.0
 37
0.0
 76
1
330
1B
  0
MATERIAL
  5
1F
102
{ACAD_REACTORS
330
E
102
}
330
E
100
AcDbMaterial
  1
ByBlock
  2

 70
0
 40
1.0
 71
1
 41
1.0
 91
-1023410177
 42
1.0
 72
1
  3

 73
1
 74
1
 75
1
 44
0.5
 73
0
 45
1.0
 46
1.0
 77
1
  4

 78
1
 79
1
170
1
 48
1.0
171
1
  6

172
1
173
1
174
1
140
1.0
141
1.0
175
1
  7

176
1
177
1
178
1
143
1.0
179
1
  8

270
1
271
1
272
1
145
1.0
146
1.0
273
1
  9

274
1
275
1
276
1
 42
1.0
 72
1
  3

 73
1
 74
1
 75
1
 94
63
  0
MATERIAL
  5
20
102
{ACAD_REACTORS
330
E
102
}
330
E
100
AcDbMaterial
  1
ByLayer
  2

 70
0
 40
1.0
 71
1
 41
1.0
 91
-1023410177
 42
1.0
 72
1
  3

 73
1
 74
1
 75
1
 44
0.5
 73
0
 45
1.0
 46
1.0
 77
1
  4

 78
1
 79
1
170
1
 48
1.0
171
1
  6

172
1
173
1
174
1
140
1.0
141
1.0
175
1
  7

176
1
177
1
178
1
143
1.0
179
1
  8

270
1
271
1
272
1
145
1.0
146
1.0
273
1
  9

274
1
275
1
276
1
 42
1.0
 72
1
  3

 73
1
 74
1
 75
1
 94
63
  0
MATERIAL
  5
21
102
{ACAD_REACTORS
330
E
102
}
330
E
100
AcDbMaterial
  1
Global
  2

 70
0
 40
1.0
 71
1
 41
1.0
 91
-1023410177
 42
1.0
 72
1
  3

 73
1
 74
1
 75
1
 44
0.5
 73
0
 45
1.0
 46
1.0
 77
1
  4

 78
1
 79
1
170
1
 48
1.0
171
1
  6

172
1
173
1
174
1
140
1.0
141
1.0
175
1
  7

176
1
177
1
178
1
143
1.0
179
1
  8

270
1
271
1
272
1
145
1.0
146
1.0
273
1
  9

274
1
275
1
276
1
 42
1.0
 72
1
  3

 73
1
 74
1
 75
1
 94
63
  0
MLINESTYLE
  5
22
102
{ACAD_REACTORS
330
10
102
}
330
10
100
AcDbMlineStyle
  2
Standard
 70
0
  3

 62
256
 51
90.0
 52
90.0
 71
2
 49
0.5
 62
256
  6
BYLAYER
 49
-0.5
 62
256
  6
BYLAYER
  0
MLEADERSTYLE
  5
2C
102
{ACAD_REACTORS
330
F
102
}
330
F
100
AcDbMLeaderStyle
179
2
170
2
171
1
172
0
 90
2
 40
0.0
 41
0.0
173
1
 91
-1056964608
 92
-2
290
1
 42
2.0
291
1
 43
8.0
  3
Standard
 44
4.0
300

342
29
174
1
175
1
176
0
178
1
 93
-1056964608
 45
4.0
292
0
297
0
 46
4.0
 94
-1056964608
 47
1.0
 49
1.0
140
1.0
294
1
141
0.0
177
0
142
1.0
295
0
296
0
143
3.75
271
0
272
9
273
9
  0
DICTIONARY
  5
2D
330
A
100
AcDbDictionary
280
1
281
1
  3
CREATED_BY_EZDXF
350
2E
  3
WRITTEN_BY_EZDXF
350
3E1
  0
DICTIONARYVAR
  5
2E
330
2D
100
DictionaryVariables
280
0
  1
1.4.3 @ 2026-07-10T12:57:48.847260+00:00
  0
DICTIONARYVAR
  5
3E1
330
2D
100
DictionaryVariables
280
0
  1
1.4.3 @ 2026-07-10T12:57:48.857805+00:00
  0
ENDSEC
  0
EOF
